<?xml version="1.0" encoding="utf-8"?>
<svg version="1.1" id="Layer_1"
xmlns="http://www.w3.org/2000/svg"
xmlns:xlink="http://www.w3.org/1999/xlink"
xmlns:author="http://www.sothink.com"
width="15px" height="12px"
xml:space="preserve">
<g id="270" transform="matrix(1, 0, 0, 1, 0, 0)">
<radialGradient
id="RadialGradID_2579" gradientUnits="userSpaceOnUse" gradientTransform="matrix(0.00227356, 0.000366211, -0.000350952, 0.00241089, 6.8, 1.85)" spreadMethod ="pad" cx="0" cy="0" r="819.2" fx="0" fy="0" >
<stop  offset="0"  style="stop-color:#F15E1F;stop-opacity:0.423529" />
<stop  offset="1"  style="stop-color:#FFEFEA;stop-opacity:0" />
</radialGradient>
<path style="fill:url(#RadialGradID_2579) " d="M8.35,0.75Q8 2.4 7.3 2.15L6.55 1.65L6.45 0.9L6.9 0Q7.05 0.95 8.35 0.75" />
<radialGradient
id="RadialGradID_2580" gradientUnits="userSpaceOnUse" gradientTransform="matrix(0.000213623, -0.00515747, -0.0100403, -0.000488281, 7.15, 8.3)" spreadMethod ="pad" cx="0" cy="0" r="819.2" fx="0" fy="0" >
<stop  offset="0"  style="stop-color:#F15E1F;stop-opacity:0.423529" />
<stop  offset="1"  style="stop-color:#FFEFEA;stop-opacity:0" />
</radialGradient>
<path style="fill:url(#RadialGradID_2580) " d="M11.8,6.35Q13.45 7.3 13.4 8.7Q13.35 10 11.55 10.95Q9.6 11.75 7 11.7Q4.4 11.5 2.7 10.5Q0.8 9.45 0.85 8.1Q0.9 6.75 2.9 5.95Q4.7 5.05 7.25 5.15Q9.85 5.3 11.8 6.35" />
<path style="fill:#D18E72;fill-opacity:1" d="M11.65,6.8Q11.05 7.65 10.15 7.85L8.45 7.9L6.75 7.8L5.25 7.9L4 7.6L3.3 7.15L2.95 6.9L3.4 7.15L2.85 6.8L3.65 7.2L4.3 7.4L5.1 7.5L6.65 7.4L7.9 7.4L9.35 7.55Q10.35 7.6 11.65 6.8M11.5,6.7L11.55 6.7L11.5 6.7" />
<radialGradient
id="RadialGradID_2581" gradientUnits="userSpaceOnUse" gradientTransform="matrix(0.00968933, 7.62939e-005, -7.62939e-005, 0.00808716, 7.45, 4.65)" spreadMethod ="pad" cx="0" cy="0" r="819.2" fx="0" fy="0" >
<stop  offset="0.776471"  style="stop-color:#C16A46;stop-opacity:1" />
<stop  offset="1"  style="stop-color:#C16A46;stop-opacity:0.0235294" />
</radialGradient>
<path style="fill:url(#RadialGradID_2581) " d="M1.2,4.55L1.15 4.55L1 4.55L0.95 4.5L0.85 4.55L0.8 4.5L0.25 4.2Q-0.1 3.95 0.05 3.4L0.5 3.9L0.65 4L1.15 4.15L1.25 4.15L1.4 4.15L1.5 4.15L1.65 4.15L1.8 4.15L2.2 4.15L2.9 4.1L4.5 3.9L5.85 4.05L7.05 4.35L7.25 4.4L9.65 3.75L10.4 3.8L12.85 4.2L13.5 4.25L13.85 4.2L14.7 3.55Q14.95 4.25 13.85 4.6L12.65 4.6L13.65 4.6L9.45 4.25L7.25 4.8L6.45 4.65L4.9 4.3L1.4 4.55L1.3 4.55L1.2 4.55M1.05,4.7L1.1 4.6L1.2 4.6Q1.1 4.6 1.05 4.7" />
<radialGradient
id="RadialGradID_2582" gradientUnits="userSpaceOnUse" gradientTransform="matrix(6.10352e-005, 0.0038147, -0.0143738, 0.000289917, 7.25, 4.9)" spreadMethod ="pad" cx="0" cy="0" r="819.2" fx="0" fy="0" >
<stop  offset="0.568627"  style="stop-color:#ED9B79;stop-opacity:1" />
<stop  offset="1"  style="stop-color:#FFFFFF;stop-opacity:0.192157" />
</radialGradient>
<path style="fill:url(#RadialGradID_2582) " d="M0.5,3.9L0.5 3.8L0.15 3.4L0.65 3.45L1.6 3.25L2.2 3.1L4.2 2.8L5.25 3L5.45 3.05L5.5 3.05L7.15 3.5L7.25 3.55L9.45 2.85L9.85 2.8L12.8 3.4L13.1 3.5L13.5 3.65L14.75 3.5L14.7 3.55L13.85 4.2L13.5 4.25L12.85 4.2L10.4 3.8L9.65 3.75L7.25 4.4L7.05 4.35L5.85 4.05L4.5 3.9L2.9 4.1L2.2 4.15L1.8 4.15L1.65 4.15L1.5 4.15L1.4 4.15L1.15 4.1L1.15 4.15L0.65 4L0.5 3.9" />
<radialGradient
id="RadialGradID_2583" gradientUnits="userSpaceOnUse" gradientTransform="matrix(0.0114441, 0.0017395, -0.00100708, 0.0055542, 7.15, 2.6)" spreadMethod ="pad" cx="0" cy="0" r="819.2" fx="0" fy="0" >
<stop  offset="0.568627"  style="stop-color:#ED9B79;stop-opacity:1" />
<stop  offset="1"  style="stop-color:#FFCFBB;stop-opacity:0" />
</radialGradient>
<path style="fill:url(#RadialGradID_2583) " d="M9.35,7.55L8.25 7.4L7.9 7.4L6.65 7.4L5.1 7.5L4.3 7.4L3.65 7.2L2.85 6.8L3.4 7.15L2.95 6.9L2.75 6.8L2.05 6.05L1 4.65L1.1 4.6L1.15 4.55L1.1 4.6L1.05 4.7Q1.1 4.6 1.2 4.6L1.45 4.6L1.2 4.55L1.3 4.55L1.4 4.6L1.45 4.6L1.4 4.55L4.9 4.3L6.45 4.65L7.25 4.8L9.45 4.25L13.65 4.6L12.65 4.6L13.85 4.6L13.65 4.65L14.05 4.6L13.7 4.65L13.9 4.7L13.85 4.7L13.8 4.8L11.95 6.55L11.65 6.8Q10.35 7.6 9.35 7.55M11.8,5.35L11.8 5.25L11.8 5.3L11.8 5.35M11.55,6.7L11.5 6.7L11.55 6.7" />
<radialGradient
id="RadialGradID_2584" gradientUnits="userSpaceOnUse" gradientTransform="matrix(0.00134277, 0, 0, 0.00134277, 8.85, 7.45)" spreadMethod ="pad" cx="0" cy="0" r="819.2" fx="0" fy="0" >
<stop  offset="0.568627"  style="stop-color:#ED9B79;stop-opacity:1" />
<stop  offset="1"  style="stop-color:#FFCFBB;stop-opacity:0" />
</radialGradient>
<path style="fill:url(#RadialGradID_2584) " d="M7.9,7.4L8.25 7.4L9.35 7.55L7.9 7.4" />
<radialGradient
id="RadialGradID_2585" gradientUnits="userSpaceOnUse" gradientTransform="matrix(0.000411987, 0.00708008, -0.0278015, 0.00157166, 0.75, 7.3)" spreadMethod ="pad" cx="0" cy="0" r="819.2" fx="0" fy="0" >
<stop  offset="0.568627"  style="stop-color:#ED9B79;stop-opacity:1" />
<stop  offset="1"  style="stop-color:#FFFFFF;stop-opacity:0.192157" />
</radialGradient>
<path style="fill:url(#RadialGradID_2585) " d="M7.15,3.5L5.5 3.05L5.45 3.05L5.25 3L4.2 2.8L2.2 3.1L2.55 2.95L4.65 2.4Q5.7 2.15 7.15 2.85L7.2 2.85L7.15 3.5" />
<radialGradient
id="RadialGradID_2586" gradientUnits="userSpaceOnUse" gradientTransform="matrix(-0.000457764, 0.00611877, -0.0353851, -0.00244141, 20.05, 6.6)" spreadMethod ="pad" cx="0" cy="0" r="819.2" fx="0" fy="0" >
<stop  offset="0.568627"  style="stop-color:#ED9B79;stop-opacity:1" />
<stop  offset="1"  style="stop-color:#FFFFFF;stop-opacity:0.192157" />
</radialGradient>
<path style="fill:url(#RadialGradID_2586) " d="M7.15,3.5L7.2 2.85Q8.9 2.1 9.7 2.4L12.8 3.4L9.85 2.8L9.45 2.85L7.25 3.55L7.15 3.5" />
<radialGradient
id="RadialGradID_2587" gradientUnits="userSpaceOnUse" gradientTransform="matrix(0.0032959, 0.000701904, -0.000137329, 0.000732422, 5.5, 5.8)" spreadMethod ="pad" cx="0" cy="0" r="819.2" fx="0" fy="0" >
<stop  offset="0.313725"  style="stop-color:#FFFFFF;stop-opacity:0.662745" />
<stop  offset="1"  style="stop-color:#FFFFFF;stop-opacity:0" />
</radialGradient>
<path style="fill:url(#RadialGradID_2587) " d="M8.1,6.45Q8.05 6.7 7.2 6.75L5.2 6.6L3.3 5.9L2.6 5.3Q2.65 5 3.45 4.95L5.45 5.2L7.35 5.8Q8.15 6.15 8.1 6.45" />
<radialGradient
id="RadialGradID_2588" gradientUnits="userSpaceOnUse" gradientTransform="matrix(0.00143433, -0.000259399, 0.000442505, 0.000823975, 9.9, 2.95)" spreadMethod ="pad" cx="0" cy="0" r="819.2" fx="0" fy="0" >
<stop  offset="0.313725"  style="stop-color:#FFFFFF;stop-opacity:0.282353" />
<stop  offset="1"  style="stop-color:#FFFFFF;stop-opacity:0" />
</radialGradient>
<path style="fill:url(#RadialGradID_2588) " d="M8.9,2.75Q9.15 2.55 9.65 2.5L10.5 2.45L11.05 2.75L10.9 3.15L10.2 3.45L9.3 3.45Q8.85 3.35 8.8 3.15Q8.65 2.95 8.9 2.75" />
<radialGradient
id="RadialGradID_2589" gradientUnits="userSpaceOnUse" gradientTransform="matrix(0.00088501, 0.000152588, -0.00012207, 0.000762939, 9.85, 5.6)" spreadMethod ="pad" cx="0" cy="0" r="819.2" fx="0" fy="0" >
<stop  offset="0.313725"  style="stop-color:#FFFFFF;stop-opacity:0.662745" />
<stop  offset="1"  style="stop-color:#FFFFFF;stop-opacity:0" />
</radialGradient>
<path style="fill:url(#RadialGradID_2589) " d="M9.45,5.2L9.95 5.15L10.4 5.4L10.55 5.75L10.3 6L9.8 6.05L9.35 5.85L9.2 5.5L9.45 5.2" />
</g>
</svg>
