<?xml version="1.0" encoding="utf-8"?>
<svg version="1.1" id="Layer_1"
xmlns="http://www.w3.org/2000/svg"
xmlns:xlink="http://www.w3.org/1999/xlink"
xmlns:author="http://www.sothink.com"
width="8px" height="6px"
xml:space="preserve">
<g id="266" transform="matrix(1, 0, 0, 1, 0, 0)">
<radialGradient
id="RadialGradID_2544" gradientUnits="userSpaceOnUse" gradientTransform="matrix(0.00120544, 0.000183105, -0.000183105, 0.00120544, 3.55, 0.9)" spreadMethod ="pad" cx="0" cy="0" r="819.2" fx="0" fy="0" >
<stop  offset="0"  style="stop-color:#F15E1F;stop-opacity:0.423529" />
<stop  offset="1"  style="stop-color:#FFEFEA;stop-opacity:0" />
</radialGradient>
<path style="fill:url(#RadialGradID_2544) " d="M3.8,1.05Q3.45 0.9 3.4 0.8L3.35 0.45Q3.4 0.25 3.6 0Q3.7 0.45 4.4 0.35Q4.2 1.15 3.8 1.05" />
<path style="fill:#D18E72;fill-opacity:1" d="M3,3.75L3.05 3.8L4.25 3.85L4.75 3.8L5.55 3.4L5.45 3.6L4.9 4.1L4.4 4.15L4 4.1L3.5 4.15L2.8 3.9L2.55 3.65L2.35 3.45L2.25 3.35L2.4 3.45L2.45 3.45L2.5 3.5L2.5 3.55L2.7 3.65L3 3.75" />
<radialGradient
id="RadialGradID_2545" gradientUnits="userSpaceOnUse" gradientTransform="matrix(0.00466919, 0.000198364, -6.10352e-005, 0.00192261, 4.05, 2.3)" spreadMethod ="pad" cx="0" cy="0" r="819.2" fx="0" fy="0" >
<stop  offset="0.568627"  style="stop-color:#ED9B79;stop-opacity:1" />
<stop  offset="1"  style="stop-color:#FFFFFF;stop-opacity:0.192157" />
</radialGradient>
<path style="fill:url(#RadialGradID_2545) " d="M0.9,1.5L1.6 1.35L2.55 1.05Q3.1 0.9 3.85 1.35Q4.85 0.85 5.15 1.05L6.8 1.45L7.15 1.45L7.8 1.2L7.2 1.8L6.7 1.8L4.85 1.45Q4.7 1.35 3.85 1.9Q3.25 1.45 3 1.5L1.8 1.75L0.65 1.85L0 1.05L0.9 1.5" />
<radialGradient
id="RadialGradID_2546" gradientUnits="userSpaceOnUse" gradientTransform="matrix(0.00489807, 4.57764e-005, -3.05176e-005, 0.00468445, 3.95, 2.1)" spreadMethod ="pad" cx="0" cy="0" r="819.2" fx="0" fy="0" >
<stop  offset="0.776471"  style="stop-color:#C16A46;stop-opacity:1" />
<stop  offset="1"  style="stop-color:#C16A46;stop-opacity:0.0235294" />
</radialGradient>
<path style="fill:url(#RadialGradID_2546) " d="M4.95,1.75Q4.3 1.9 3.9 2.2Q3.55 1.95 2.9 1.75L1.85 1.85L0.95 2.05Q0.45 2.05 0.2 1.75L0 1.35L0 1.05L0.65 1.85L1.8 1.75L3 1.5Q3.25 1.45 3.85 1.9Q4.7 1.35 4.85 1.45L6.7 1.8L7.2 1.8L7.8 1.2Q7.8 2.05 7 2L4.95 1.75" />
<radialGradient
id="RadialGradID_2547" gradientUnits="userSpaceOnUse" gradientTransform="matrix(0.00563049, 0.00100708, -0.000640869, 0.00401306, 3.6, 0.1)" spreadMethod ="pad" cx="0" cy="0" r="819.2" fx="0" fy="0" >
<stop  offset="0.568627"  style="stop-color:#ED9B79;stop-opacity:1" />
<stop  offset="1"  style="stop-color:#FFCFBB;stop-opacity:0" />
</radialGradient>
<path style="fill:url(#RadialGradID_2547) " d="M0.95,2.05L1.85 1.85L2.9 1.75Q3.55 1.95 3.9 2.2Q4.3 1.9 4.95 1.75L7 2L6.15 2.9L5.8 3.25L5.7 3.3L5.6 3.35L5.55 3.35L5.75 3.35L5.75 3.3L5.8 3.3L5.75 3.35L5.5 3.4L4.85 3.6L4.35 3.65L2.95 3.6L2.9 3.6L2.55 3.45L2.55 3.5L2.5 3.45L2.35 3.35L2.3 3.3L2.25 3.3L2.2 3.3L2.05 3.2L2.05 3.15L1.65 2.85L0.95 2.05" />
<radialGradient
id="RadialGradID_2548" gradientUnits="userSpaceOnUse" gradientTransform="matrix(0.00166321, 0.000350952, -7.62939e-005, 0.000366211, 2.75, 2.6)" spreadMethod ="pad" cx="0" cy="0" r="819.2" fx="0" fy="0" >
<stop  offset="0.313725"  style="stop-color:#FFFFFF;stop-opacity:0.662745" />
<stop  offset="1"  style="stop-color:#FFFFFF;stop-opacity:0" />
</radialGradient>
<path style="fill:url(#RadialGradID_2548) " d="M4.05,2.95L3.6 3.1L2.6 3L1.65 2.7L1.3 2.35Q1.35 2.25 1.75 2.2L2.7 2.3L3.7 2.6L4.05 2.95" />
<radialGradient
id="RadialGradID_2549" gradientUnits="userSpaceOnUse" gradientTransform="matrix(0.000106812, -0.00257874, -0.00508118, -0.000244141, 3.8, 4.15)" spreadMethod ="pad" cx="0" cy="0" r="819.2" fx="0" fy="0" >
<stop  offset="0"  style="stop-color:#F15E1F;stop-opacity:0.423529" />
<stop  offset="1"  style="stop-color:#FFEFEA;stop-opacity:0" />
</radialGradient>
<path style="fill:url(#RadialGradID_2549) " d="M6.2,3.2Q7 3.65 7 4.35Q6.95 5 6.05 5.45L3.7 5.8L1.55 5.25Q0.6 4.7 0.65 4.05Q0.7 3.35 1.65 2.95Q2.55 2.5 3.85 2.6Q5.2 2.65 6.2 3.2" />
</g>
</svg>
