<?xml version="1.0" encoding="utf-8"?>
<svg version="1.1" id="Layer_1"
xmlns="http://www.w3.org/2000/svg"
xmlns:xlink="http://www.w3.org/1999/xlink"
xmlns:author="http://www.sothink.com"
width="29px" height="22px"
xml:space="preserve">
<g id="159" transform="matrix(1, 0, 0, 1, 2.3, 0)">
<radialGradient
id="RadialGradID_1628" gradientUnits="userSpaceOnUse" gradientTransform="matrix(-3.05176e-005, -0.00886536, -0.0188141, -0.00038147, 13.2, 16.65)" spreadMethod ="pad" cx="0" cy="0" r="819.2" fx="0" fy="0" >
<stop  offset="0"  style="stop-color:#F15E1F;stop-opacity:0.423529" />
<stop  offset="1"  style="stop-color:#FFEFEA;stop-opacity:0" />
</radialGradient>
<path style="fill:url(#RadialGradID_1628) " d="M21.4,10.85Q24.6 12.8 24.5 15.45Q24.4 18.1 21 19.95Q17.25 21.6 12.35 21.4Q7.4 21.15 4.2 19.2Q0.6 17 0.75 14.3Q0.8 11.6 4.6 10Q7.95 8.2 12.95 8.5Q17.75 8.7 21.4 10.85" />
<radialGradient
id="RadialGradID_1629" gradientUnits="userSpaceOnUse" gradientTransform="matrix(0.00430298, 0.000732422, -0.000671387, 0.00482178, 11.35, 3.7)" spreadMethod ="pad" cx="0" cy="0" r="819.2" fx="0" fy="0" >
<stop  offset="0"  style="stop-color:#F15E1F;stop-opacity:0.423529" />
<stop  offset="1"  style="stop-color:#FFEFEA;stop-opacity:0" />
</radialGradient>
<path style="fill:url(#RadialGradID_1629) " d="M14.3,1.5Q13.6 4.8 12.25 4.3Q10.95 3.8 10.85 3.25Q10.6 2.7 10.65 1.8L11.55 0Q11.8 1.9 14.3 1.5" />
<path style="fill:#D18E72;fill-opacity:1" d="M5.55,12.45L5.6 12.5L5.7 12.55L8.55 13.65L11.2 14.15L11.65 14.2L12.25 14.2L12.75 14.25L14.4 14.1L16.45 13.7L19.45 12.5L20.15 12.2Q17.7 13.75 16.8 14.25L14.2 14.85L12.25 14.95L10.9 14.85L8.35 14.3Q7.3 13.85 4.85 12.1L5.55 12.45" />
<radialGradient
id="RadialGradID_1630" gradientUnits="userSpaceOnUse" gradientTransform="matrix(0.0183258, 0.000152588, -0.000137329, 0.0161743, 12.6, 9.3)" spreadMethod ="pad" cx="0" cy="0" r="819.2" fx="210518" fy="0" >
<stop  offset="0.776471"  style="stop-color:#C16A46;stop-opacity:1" />
<stop  offset="1"  style="stop-color:#C16A46;stop-opacity:0.0235294" />
</radialGradient>
<path style="fill:url(#RadialGradID_1630) " d="M26.4,7.3L26.45 7.5Q26.6 8.45 25.05 9.05L24.7 9.2L24.65 9.2L24.3 9.2L16.35 8.5Q13.8 9.5 12.25 9.55L12.25 8.75L16.75 7.5L18.15 7.6L22.75 8.4L22.8 8.35L24.05 8.5L25.25 8.4Q25.95 8.3 26.25 7.65L26.4 7.3" />
<radialGradient
id="RadialGradID_1631" gradientUnits="userSpaceOnUse" gradientTransform="matrix(0.00012207, 0.00762939, -0.0271912, 0.000579834, 12.15, 9.8)" spreadMethod ="pad" cx="0" cy="0" r="819.2" fx="6" fy="0" >
<stop  offset="0.568627"  style="stop-color:#ED9B79;stop-opacity:1" />
<stop  offset="1"  style="stop-color:#FFFFFF;stop-opacity:0.192157" />
</radialGradient>
<path style="fill:url(#RadialGradID_1631) " d="M12.25,6.35L15.9 5.5L17.5 5.3L22.35 7.25Q23.2 7.85 23.7 7.95L25 8.1L26.25 7.65Q25.95 8.3 25.25 8.4L24.05 8.5L22.8 8.35L22.75 8.4L18.15 7.6L16.75 7.5L12.25 8.75L12.25 6.35" />
<radialGradient
id="RadialGradID_1632" gradientUnits="userSpaceOnUse" gradientTransform="matrix(0.0213165, 0.000808716, -0.000106812, 0.0108948, 12, 5.2)" spreadMethod ="pad" cx="0" cy="0" r="819.2" fx="6" fy="0" >
<stop  offset="0.568627"  style="stop-color:#ED9B79;stop-opacity:1" />
<stop  offset="1"  style="stop-color:#FFCFBB;stop-opacity:0" />
</radialGradient>
<path style="fill:url(#RadialGradID_1632) " d="M24.6,9.25L24.5 9.25L24.3 9.3L24.6 9.25L24.65 9.25L24.75 9.25L24.4 9.3L24.5 9.35L19.85 12.3L19.45 12.5L16.45 13.7L14.4 14.1L12.75 14.25L12.25 14.2L12.25 9.55Q13.8 9.5 16.35 8.5L24.3 9.2L24.65 9.2L24.6 9.25M25.1,9.2L24.8 9.25L24.75 9.25L25.1 9.2M20.8,10.55L20.8 10.65L20.8 10.5L20.8 10.55" />
<radialGradient
id="RadialGradID_1633" gradientUnits="userSpaceOnUse" gradientTransform="matrix(-0.000869751, 0.0122375, -0.0669556, -0.00488281, 35.7, 12.9)" spreadMethod ="pad" cx="0" cy="0" r="819.2" fx="6" fy="0" >
<stop  offset="0.568627"  style="stop-color:#ED9B79;stop-opacity:1" />
<stop  offset="1"  style="stop-color:#FFFFFF;stop-opacity:0.192157" />
</radialGradient>
<path style="fill:url(#RadialGradID_1633) " d="M12.25,5.65Q16.95 4.25 18.15 4.95L22.35 7.25L17.5 5.3L15.9 5.5L12.25 6.35L12.25 5.65" />
<radialGradient
id="RadialGradID_1634" gradientUnits="userSpaceOnUse" gradientTransform="matrix(-0.000900269, 0.0122375, -0.0690918, -0.00488281, 36.45, 12.9)" spreadMethod ="pad" cx="0" cy="0" r="819.2" fx="6" fy="0" >
<stop  offset="0.568627"  style="stop-color:#ED9B79;stop-opacity:1" />
<stop  offset="1"  style="stop-color:#FFFFFF;stop-opacity:0.192157" />
</radialGradient>
<path style="fill:url(#RadialGradID_1634) " d="M12.25,6.35L12.05 6.4L12.05 5.7L12.25 5.65L12.25 6.35" />
<radialGradient
id="RadialGradID_1635" gradientUnits="userSpaceOnUse" gradientTransform="matrix(0.000808716, 0.0141602, -0.0542755, 0.00314331, -0.75, 14.1)" spreadMethod ="pad" cx="0" cy="0" r="819.2" fx="6" fy="0" >
<stop  offset="0.568627"  style="stop-color:#ED9B79;stop-opacity:1" />
<stop  offset="1"  style="stop-color:#FFFFFF;stop-opacity:0.192157" />
</radialGradient>
<path style="fill:url(#RadialGradID_1635) " d="M12.05,6.4L12.05 6.45L8.35 5.45L6.15 5.5Q4.5 5.85 3.1 6.65L4.85 5.65L6.75 4.7Q7.8 4.2 12 5.7L12.05 5.7L12.05 6.4" />
<radialGradient
id="RadialGradID_1636" gradientUnits="userSpaceOnUse" gradientTransform="matrix(0.00012207, 0.00762939, -0.0280609, 0.000579834, 12.15, 9.8)" spreadMethod ="pad" cx="0" cy="0" r="819.2" fx="6" fy="0" >
<stop  offset="0.568627"  style="stop-color:#ED9B79;stop-opacity:1" />
<stop  offset="1"  style="stop-color:#FFFFFF;stop-opacity:0.192157" />
</radialGradient>
<path style="fill:url(#RadialGradID_1636) " d="M12.25,6.35L12.25 8.75L12.15 8.75L11.75 8.65L9.45 8.05L6.8 7.75L3.7 8.15L2.35 8.3L1.55 8.3L1.2 8.3L1 8.3L0.7 8.3L0.45 8.3L-0.2 8.35L-1.15 8.15L-2 7.45L-1.4 7.75L0.2 7.9Q1.2 7.75 2.05 7.25L3.1 6.65Q4.5 5.85 6.15 5.5L8.35 5.45L12.05 6.45L12.05 6.4L12.25 6.35M-2.3,7.2L-2.25 7.25L-2.3 7.2" />
<radialGradient
id="RadialGradID_1637" gradientUnits="userSpaceOnUse" gradientTransform="matrix(0.0189056, 0.000152588, -0.000137329, 0.0161743, 12.6, 9.3)" spreadMethod ="pad" cx="0" cy="0" r="819.2" fx="210518" fy="0" >
<stop  offset="0.776471"  style="stop-color:#C16A46;stop-opacity:1" />
<stop  offset="1"  style="stop-color:#C16A46;stop-opacity:0.0235294" />
</radialGradient>
<path style="fill:url(#RadialGradID_1637) " d="M12.2,9.55L10.65 9.3L7.6 8.6L0.75 9.05L0.55 9.05L0.4 9.05L0.4 9.1L0.25 9.1L0.2 9.15L-0.1 9.1L-1.5 8.4Q-2 8.05 -2 7.45L-1.15 8.15L-0.2 8.35L0.45 8.3L0.7 8.3L1 8.3L1.2 8.3L1.55 8.3L2.35 8.3L3.7 8.15L6.8 7.75L9.45 8.05L11.75 8.65L12.15 8.75L12.25 8.75L12.25 9.55L12.2 9.55M0.25,9.25L0.2 9.2L0.2 9.15L0.35 9.15L0.25 9.25" />
<radialGradient
id="RadialGradID_1638" gradientUnits="userSpaceOnUse" gradientTransform="matrix(0.0220032, 0.000808716, -0.000106812, 0.0108948, 12, 5.2)" spreadMethod ="pad" cx="0" cy="0" r="819.2" fx="6" fy="0" >
<stop  offset="0.568627"  style="stop-color:#ED9B79;stop-opacity:1" />
<stop  offset="1"  style="stop-color:#FFCFBB;stop-opacity:0" />
</radialGradient>
<path style="fill:url(#RadialGradID_1638) " d="M0.25,9.25L0.35 9.15L0.4 9.15L0.85 9.2L0.4 9.1L0.4 9.05L0.55 9.05L0.75 9.15L0.85 9.15L0.75 9.05L7.6 8.6L10.65 9.3L12.2 9.55L12.25 9.55L12.25 14.2L11.65 14.2L11.2 14.15L8.55 13.65L5.7 12.55L5.6 12.5L5.55 12.45L0.25 9.25" />
<radialGradient
id="RadialGradID_1639" gradientUnits="userSpaceOnUse" gradientTransform="matrix(0.0045166, 0.00102234, -0.000183105, 0.00105286, 8.25, 10.75)" spreadMethod ="pad" cx="0" cy="0" r="819.2" fx="0" fy="0" >
<stop  offset="0.313725"  style="stop-color:#FFFFFF;stop-opacity:0.662745" />
<stop  offset="1"  style="stop-color:#FFFFFF;stop-opacity:0" />
</radialGradient>
<path style="fill:url(#RadialGradID_1639) " d="M11.85,11.7Q11.75 12.1 10.6 12.15L7.9 11.85Q6.3 11.5 5.3 10.95Q4.25 10.4 4.35 10Q4.4 9.6 5.55 9.55L8.25 9.85L10.85 10.75Q11.9 11.3 11.85 11.7" />
<radialGradient
id="RadialGradID_1640" gradientUnits="userSpaceOnUse" gradientTransform="matrix(0.00271606, -0.000518799, 0.000839233, 0.00164795, 17.2, 5.9)" spreadMethod ="pad" cx="0" cy="0" r="819.2" fx="0" fy="0" >
<stop  offset="0.313725"  style="stop-color:#FFFFFF;stop-opacity:0.282353" />
<stop  offset="1"  style="stop-color:#FFFFFF;stop-opacity:0" />
</radialGradient>
<path style="fill:url(#RadialGradID_1640) " d="M18.35,4.9Q19.1 5.1 19.35 5.5Q19.55 5.9 19.05 6.3Q18.6 6.7 17.7 6.9L16.05 6.85Q15.25 6.7 15.05 6.3Q14.85 5.9 15.3 5.5Q15.8 5.1 16.7 4.95L18.35 4.9" />
<radialGradient
id="RadialGradID_1641" gradientUnits="userSpaceOnUse" gradientTransform="matrix(0.00167847, 0.000305176, -0.000228882, 0.00152588, 17.7, 10.45)" spreadMethod ="pad" cx="0" cy="0" r="819.2" fx="0" fy="0" >
<stop  offset="0.313725"  style="stop-color:#FFFFFF;stop-opacity:0.662745" />
<stop  offset="1"  style="stop-color:#FFFFFF;stop-opacity:0" />
</radialGradient>
<path style="fill:url(#RadialGradID_1641) " d="M17.9,9.55Q18.4 9.65 18.8 10Q19.15 10.35 19.1 10.7L18.6 11.25L17.65 11.35Q17.1 11.25 16.75 10.9Q16.4 10.55 16.45 10.2Q16.5 9.85 16.95 9.65L17.9 9.55" />
</g>
</svg>
