<?xml version="1.0" encoding="utf-8"?>
<svg version="1.1" id="Layer_1"
xmlns="http://www.w3.org/2000/svg"
xmlns:xlink="http://www.w3.org/1999/xlink"
xmlns:author="http://www.sothink.com"
width="33px" height="21px"
xml:space="preserve">
<g id="271" transform="matrix(1, 0, 0, 1, 3.9, -1.3)">
<radialGradient
id="RadialGradID_2590" gradientUnits="userSpaceOnUse" gradientTransform="matrix(-3.05176e-005, -0.00886536, -0.0162964, -0.00038147, 12.15, 17.15)" spreadMethod ="pad" cx="0" cy="0" r="819.2" fx="0" fy="0" >
<stop  offset="0"  style="stop-color:#F15E1F;stop-opacity:0.423529" />
<stop  offset="1"  style="stop-color:#FFEFEA;stop-opacity:0" />
</radialGradient>
<path style="fill:url(#RadialGradID_2590) " d="M19.25,11.35Q22 13.3 21.95 15.95Q21.85 18.6 18.9 20.45Q15.65 22.1 11.4 21.9Q7.1 21.65 4.35 19.7Q1.2 17.5 1.35 14.8Q1.4 12.1 4.7 10.5Q7.6 8.7 11.9 9Q16.1 9.2 19.25 11.35" />
<radialGradient
id="RadialGradID_2591" gradientUnits="userSpaceOnUse" gradientTransform="matrix(0.00372314, 0.000732422, -0.000579834, 0.00482178, 11.5, 5)" spreadMethod ="pad" cx="0" cy="0" r="819.2" fx="0" fy="0" >
<stop  offset="0"  style="stop-color:#F15E1F;stop-opacity:0.423529" />
<stop  offset="1"  style="stop-color:#FFEFEA;stop-opacity:0" />
</radialGradient>
<path style="fill:url(#RadialGradID_2591) " d="M14.05,2.8Q13.45 6.1 12.25 5.6Q11.15 5.1 11.05 4.55Q10.8 4 10.9 3.1Q11 2.4 11.65 1.3Q11.9 3.2 14.05 2.8" />
<path style="fill:#D18E72;fill-opacity:1" d="M7.15,15.4L12.45 15.8L12.55 15.8L13.1 15.8L18.85 15.45Q21.1 15 23.8 13.35L23.85 13.4L21.25 15.15Q19.55 16.1 17.95 16.4L12.55 16.65L12.45 16.65L6.1 15.9Q4.1 15.25 1.9 13.75L1.95 13.6Q5.1 15.1 7.15 15.4" />
<radialGradient
id="RadialGradID_2592" gradientUnits="userSpaceOnUse" gradientTransform="matrix(0.036911, 0.000869751, -0.000198364, 0.0116577, 11.45, 5.8)" spreadMethod ="pad" cx="0" cy="0" r="819.2" fx="0" fy="0" >
<stop  offset="0.568627"  style="stop-color:#ED9B79;stop-opacity:1" />
<stop  offset="1"  style="stop-color:#FFCFBB;stop-opacity:0" />
</radialGradient>
<path style="fill:url(#RadialGradID_2592) " d="M22.7,11.25L22.65 11.25L22.65 11.35L22.7 11.25M18.85,15.45L13.1 15.8L12.55 15.8L12.55 10.5L12.85 10.5L17.4 9.75L27 10.1L27.55 10.1L27.35 10.25L27.25 10.3Q26.6 11.5 24.45 12.95L24.05 13.2L23.8 13.35Q21.1 15 18.85 15.45" />
<radialGradient
id="RadialGradID_2593" gradientUnits="userSpaceOnUse" gradientTransform="matrix(0.0218201, 0.000106812, -0.000183105, 0.0118866, 12.9, 10.35)" spreadMethod ="pad" cx="0" cy="0" r="819.2" fx="0" fy="0" >
<stop  offset="0.776471"  style="stop-color:#C16A46;stop-opacity:1" />
<stop  offset="1"  style="stop-color:#C16A46;stop-opacity:0.0235294" />
</radialGradient>
<path style="fill:url(#RadialGradID_2593) " d="M27,10.1L17.4 9.75L12.85 10.5L12.55 10.5L12.55 9.9L17.85 9.05L26.55 9.65L27.55 9.5Q27.55 9.45 28.3 9.05L28.3 9.3L28.45 9.2L28.3 9.35L27.95 9.7L27.65 9.95L27.55 10.1L27 10.1M27.25,9.8L27.4 9.85L27.4 9.8L27.25 9.8" />
<radialGradient
id="RadialGradID_2594" gradientUnits="userSpaceOnUse" gradientTransform="matrix(0.000198364, 0.00709534, -0.0408478, 0.000534058, 12.45, 10.25)" spreadMethod ="pad" cx="0" cy="0" r="819.2" fx="0" fy="0" >
<stop  offset="0.568627"  style="stop-color:#ED9B79;stop-opacity:1" />
<stop  offset="1"  style="stop-color:#FFFFFF;stop-opacity:0.192157" />
</radialGradient>
<path style="fill:url(#RadialGradID_2594) " d="M20.15,6.7L25.1 8.15L26.65 9.1L27.55 9.5L26.55 9.65L17.85 9.05L12.55 9.9L12.55 7.35Q15.8 5.75 20.15 6.7M27.4,9.8L27.4 9.85L27.25 9.8L27.4 9.8" />
<radialGradient
id="RadialGradID_2595" gradientUnits="userSpaceOnUse" gradientTransform="matrix(-0.0010376, 0.00900269, -0.0797272, -0.00358582, 39.85, 11.65)" spreadMethod ="pad" cx="0" cy="0" r="819.2" fx="0" fy="0" >
<stop  offset="0.568627"  style="stop-color:#ED9B79;stop-opacity:1" />
<stop  offset="1"  style="stop-color:#FFFFFF;stop-opacity:0.192157" />
</radialGradient>
<path style="fill:url(#RadialGradID_2595) " d="M12.55,7.35L12.55 6.4Q17.85 4.35 20.15 5.55L25.1 8.15L20.15 6.7Q15.8 5.75 12.55 7.35" />
<radialGradient
id="RadialGradID_2596" gradientUnits="userSpaceOnUse" gradientTransform="matrix(-0.00114441, 0.00900269, -0.0874023, -0.00358582, 42.45, 11.65)" spreadMethod ="pad" cx="0" cy="0" r="819.2" fx="0" fy="0" >
<stop  offset="0.568627"  style="stop-color:#ED9B79;stop-opacity:1" />
<stop  offset="1"  style="stop-color:#FFFFFF;stop-opacity:0.192157" />
</radialGradient>
<path style="fill:url(#RadialGradID_2596) " d="M12.25,6.6L12.45 6.55L12.25 6.5L12.45 6.45L12.45 6.55L12.45 7.4L12.3 7.45L12.25 6.6" />
<radialGradient
id="RadialGradID_2597" gradientUnits="userSpaceOnUse" gradientTransform="matrix(-0.00106812, 0.00900269, -0.0825043, -0.00358582, 40.8, 11.65)" spreadMethod ="pad" cx="0" cy="0" r="819.2" fx="0" fy="0" >
<stop  offset="0.568627"  style="stop-color:#ED9B79;stop-opacity:1" />
<stop  offset="1"  style="stop-color:#FFFFFF;stop-opacity:0.192157" />
</radialGradient>
<path style="fill:url(#RadialGradID_2597) " d="M12.45,6.55L12.45 6.45L12.55 6.4L12.55 7.35L12.45 7.4L12.45 6.55" />
<radialGradient
id="RadialGradID_2598" gradientUnits="userSpaceOnUse" gradientTransform="matrix(0.000213623, 0.00709534, -0.0447845, 0.000534058, 12.45, 10.25)" spreadMethod ="pad" cx="0" cy="0" r="819.2" fx="0" fy="0" >
<stop  offset="0.568627"  style="stop-color:#ED9B79;stop-opacity:1" />
<stop  offset="1"  style="stop-color:#FFFFFF;stop-opacity:0.192157" />
</radialGradient>
<path style="fill:url(#RadialGradID_2598) " d="M-3.7,9.15L-3.9 9L-3.7 9.1L-3.7 9.15M12.45,9.95L12.35 9.95L11.9 9.85L9.1 9.45L5.55 9.2L1.4 9.45L-0.3 9.55L-1.05 9.6L-1.1 9.6L-1.45 9.6L-1.75 9.6L-1.95 9.6L-2.05 9.65L-3.2 9.35Q-1.7 9.2 -0.45 8.2L4.6 6.7L8.3 6.55Q10.35 6.65 12.15 7.5L12.3 7.55L12.3 7.45L12.45 7.4L12.45 9.95" />
<radialGradient
id="RadialGradID_2599" gradientUnits="userSpaceOnUse" gradientTransform="matrix(0.00100708, 0.0104065, -0.0686646, 0.00230408, -3.45, 12.7)" spreadMethod ="pad" cx="0" cy="0" r="819.2" fx="0" fy="0" >
<stop  offset="0.568627"  style="stop-color:#ED9B79;stop-opacity:1" />
<stop  offset="1"  style="stop-color:#FFFFFF;stop-opacity:0.192157" />
</radialGradient>
<path style="fill:url(#RadialGradID_2599) " d="M12.3,7.45L12.3 7.55L12.15 7.5Q10.35 6.65 8.3 6.55L4.6 6.7L-0.45 8.2L2 6.7L5.05 5.5Q8.25 4.25 12.25 6.6L12.3 7.45" />
<radialGradient
id="RadialGradID_2600" gradientUnits="userSpaceOnUse" gradientTransform="matrix(0.000198364, 0.00709534, -0.0422668, 0.000534058, 12.45, 10.25)" spreadMethod ="pad" cx="0" cy="0" r="819.2" fx="0" fy="0" >
<stop  offset="0.568627"  style="stop-color:#ED9B79;stop-opacity:1" />
<stop  offset="1"  style="stop-color:#FFFFFF;stop-opacity:0.192157" />
</radialGradient>
<path style="fill:url(#RadialGradID_2600) " d="M12.55,9.9L12.45 9.95L12.45 7.4L12.55 7.35L12.55 9.9" />
<radialGradient
id="RadialGradID_2601" gradientUnits="userSpaceOnUse" gradientTransform="matrix(0.022583, 0.000106812, -0.000183105, 0.0118866, 12.9, 10.35)" spreadMethod ="pad" cx="0" cy="0" r="819.2" fx="0" fy="0" >
<stop  offset="0.776471"  style="stop-color:#C16A46;stop-opacity:1" />
<stop  offset="1"  style="stop-color:#C16A46;stop-opacity:0.0235294" />
</radialGradient>
<path style="fill:url(#RadialGradID_2601) " d="M12.45,10.5L12.45 9.95L12.55 9.9L12.55 10.5L12.45 10.5" />
<radialGradient
id="RadialGradID_2602" gradientUnits="userSpaceOnUse" gradientTransform="matrix(0.0239258, 0.000106812, -0.000198364, 0.0118866, 12.95, 10.35)" spreadMethod ="pad" cx="0" cy="0" r="819.2" fx="0" fy="0" >
<stop  offset="0.776471"  style="stop-color:#C16A46;stop-opacity:1" />
<stop  offset="1"  style="stop-color:#C16A46;stop-opacity:0.0235294" />
</radialGradient>
<path style="fill:url(#RadialGradID_2602) " d="M-3.7,9.1L-3.25 9.35L-3.2 9.35L-2.05 9.65L-1.95 9.6L-1.75 9.6L-1.45 9.6L-1.1 9.6L-1.05 9.6L-0.3 9.55L1.4 9.45L5.55 9.2L9.1 9.45L11.9 9.85L12.35 9.95L12.45 9.95L12.45 10.5L8.9 9.95L3.45 9.75L-2.65 9.95L-2.7 9.9L-3.3 9.7L-3.85 9.2L-3.7 9.15L-3.7 9.1" />
<radialGradient
id="RadialGradID_2603" gradientUnits="userSpaceOnUse" gradientTransform="matrix(0.0381927, 0.000869751, -0.000198364, 0.0116577, 11.4, 5.8)" spreadMethod ="pad" cx="0" cy="0" r="819.2" fx="0" fy="0" >
<stop  offset="0.568627"  style="stop-color:#ED9B79;stop-opacity:1" />
<stop  offset="1"  style="stop-color:#FFCFBB;stop-opacity:0" />
</radialGradient>
<path style="fill:url(#RadialGradID_2603) " d="M12.45,15.8L12.45 10.5L12.55 10.5L12.55 15.8L12.45 15.8" />
<radialGradient
id="RadialGradID_2604" gradientUnits="userSpaceOnUse" gradientTransform="matrix(0.0404663, 0.000869751, -0.000213623, 0.0116577, 11.35, 5.8)" spreadMethod ="pad" cx="0" cy="0" r="819.2" fx="0" fy="0" >
<stop  offset="0.568627"  style="stop-color:#ED9B79;stop-opacity:1" />
<stop  offset="1"  style="stop-color:#FFCFBB;stop-opacity:0" />
</radialGradient>
<path style="fill:url(#RadialGradID_2604) " d="M1.95,13.6L1.2 13.25L0.85 13.05Q-1.5 11.75 -2.65 10L-2.25 10.15L-2.65 9.95L3.45 9.75L8.9 9.95L12.45 10.5L12.45 15.8L7.15 15.4Q5.1 15.1 1.95 13.6" />
<radialGradient
id="RadialGradID_2605" gradientUnits="userSpaceOnUse" gradientTransform="matrix(0.00465393, 0.000961304, -0.000198364, 0.000991821, 7.15, 13.05)" spreadMethod ="pad" cx="0" cy="0" r="819.2" fx="0" fy="0" >
<stop  offset="0.313725"  style="stop-color:#FFFFFF;stop-opacity:0.662745" />
<stop  offset="1"  style="stop-color:#FFFFFF;stop-opacity:0" />
</radialGradient>
<path style="fill:url(#RadialGradID_2605) " d="M10.85,13.95Q10.75 14.3 9.6 14.35L6.8 14.1Q5.15 13.75 4.1 13.25Q3.05 12.7 3.1 12.35Q3.15 11.95 4.35 11.9L7.2 12.2Q8.8 12.5 9.85 13.05Q10.9 13.55 10.85 13.95" />
<radialGradient
id="RadialGradID_2606" gradientUnits="userSpaceOnUse" gradientTransform="matrix(0.00234985, -0.000518799, 0.000732422, 0.00164795, 17.55, 7.9)" spreadMethod ="pad" cx="0" cy="0" r="819.2" fx="0" fy="0" >
<stop  offset="0.313725"  style="stop-color:#FFFFFF;stop-opacity:0.282353" />
<stop  offset="1"  style="stop-color:#FFFFFF;stop-opacity:0" />
</radialGradient>
<path style="fill:url(#RadialGradID_2606) " d="M18.55,6.9Q19.2 7.1 19.4 7.5Q19.6 7.9 19.15 8.3Q18.75 8.7 18 8.9L16.55 8.85Q15.85 8.7 15.7 8.3Q15.5 7.9 15.9 7.5Q16.35 7.1 17.1 6.95L18.55 6.9" />
<radialGradient
id="RadialGradID_2607" gradientUnits="userSpaceOnUse" gradientTransform="matrix(0.00144958, 0.000305176, -0.000198364, 0.00152588, 18, 12.45)" spreadMethod ="pad" cx="0" cy="0" r="819.2" fx="0" fy="0" >
<stop  offset="0.313725"  style="stop-color:#FFFFFF;stop-opacity:0.662745" />
<stop  offset="1"  style="stop-color:#FFFFFF;stop-opacity:0" />
</radialGradient>
<path style="fill:url(#RadialGradID_2607) " d="M18.15,11.55Q18.6 11.65 18.95 12L19.2 12.7L18.75 13.25L17.95 13.35L17.15 12.9Q16.85 12.55 16.9 12.2Q16.95 11.85 17.35 11.65L18.15 11.55" />
</g>
</svg>
