<?xml version="1.0" encoding="utf-8"?>
<svg version="1.1" id="Layer_1"
xmlns="http://www.w3.org/2000/svg"
xmlns:xlink="http://www.w3.org/1999/xlink"
xmlns:author="http://www.sothink.com"
width="30px" height="18px"
xml:space="preserve">
<g id="265" transform="matrix(1, 0, 0, 1, 2.45, -1.9)">
<radialGradient
id="RadialGradID_2530" gradientUnits="userSpaceOnUse" gradientTransform="matrix(-3.05176e-005, -0.00886536, -0.0162964, -0.00038147, 12.15, 15.15)" spreadMethod ="pad" cx="0" cy="0" r="819.2" fx="0" fy="0" >
<stop  offset="0"  style="stop-color:#F15E1F;stop-opacity:0.423529" />
<stop  offset="1"  style="stop-color:#FFEFEA;stop-opacity:0" />
</radialGradient>
<path style="fill:url(#RadialGradID_2530) " d="M19.25,9.35Q22 11.3 21.95 13.95Q21.85 16.6 18.9 18.45Q15.65 20.1 11.4 19.9Q7.1 19.65 4.35 17.7Q1.2 15.5 1.35 12.8Q1.4 10.1 4.7 8.5Q7.6 6.7 11.9 7Q16.1 7.2 19.25 9.35" />
<radialGradient
id="RadialGradID_2531" gradientUnits="userSpaceOnUse" gradientTransform="matrix(0.00372314, 0.000732422, -0.000579834, 0.00482178, 11.55, 5.6)" spreadMethod ="pad" cx="0" cy="0" r="819.2" fx="0" fy="0" >
<stop  offset="0"  style="stop-color:#F15E1F;stop-opacity:0.423529" />
<stop  offset="1"  style="stop-color:#FFEFEA;stop-opacity:0" />
</radialGradient>
<path style="fill:url(#RadialGradID_2531) " d="M14.1,3.4Q13.5 6.7 12.3 6.2Q11.2 5.7 11.1 5.15Q10.85 4.6 10.95 3.7Q11.05 3 11.7 1.9Q11.95 3.8 14.1 3.4" />
<path style="fill:#D18E72;fill-opacity:1" d="M14.2,13.55L18.1 13.25Q19.4 12.9 21.5 11.8Q19.15 13.45 17.95 13.85L12.45 14.3L12.05 14.3L12.05 13.55L12.05 14.3L6.65 13.65Q4.4 12.6 3.5 12L5 12.65Q7 13.45 9.3 13.5L12.05 13.55L14.2 13.55" />
<radialGradient
id="RadialGradID_2532" gradientUnits="userSpaceOnUse" gradientTransform="matrix(0.000137329, 0.00561523, -0.0300903, 0.000427246, 12.05, 10.1)" spreadMethod ="pad" cx="0" cy="0" r="819.2" fx="0" fy="0" >
<stop  offset="0.568627"  style="stop-color:#ED9B79;stop-opacity:1" />
<stop  offset="1"  style="stop-color:#FFFFFF;stop-opacity:0.192157" />
</radialGradient>
<path style="fill:url(#RadialGradID_2532) " d="M12.05,7.85L17.9 6.8L23.25 8.25L24.4 8.7Q24.9 9 25.75 9.15L25.95 9.2L25.95 9.25L25.8 9.2L25.75 9.2L25.15 9.15L23.8 9.05L23.75 9.1L17.1 8.45L12.05 9.35L12.05 7.85" />
<radialGradient
id="RadialGradID_2533" gradientUnits="userSpaceOnUse" gradientTransform="matrix(0.0202789, 0.000106812, -0.000167847, 0.0118866, 12.5, 9.75)" spreadMethod ="pad" cx="0" cy="0" r="819.2" fx="0" fy="0" >
<stop  offset="0.776471"  style="stop-color:#C16A46;stop-opacity:1" />
<stop  offset="1"  style="stop-color:#C16A46;stop-opacity:0.0235294" />
</radialGradient>
<path style="fill:url(#RadialGradID_2533) " d="M26.95,8.6L26.2 9.35L26.1 9.5L25.55 9.5L16.65 9.15L12.1 9.95L12.05 9.95L12.05 9.35L17.1 8.45L23.75 9.1L23.8 9.05L25.15 9.15L25.75 9.2L25.8 9.2L25.95 9.25L25.95 9.2L26.95 8.6" />
<radialGradient
id="RadialGradID_2534" gradientUnits="userSpaceOnUse" gradientTransform="matrix(0.0235901, 0.000595093, -0.00012207, 0.00801086, 11.8, 6.7)" spreadMethod ="pad" cx="0" cy="0" r="819.2" fx="0" fy="0" >
<stop  offset="0.568627"  style="stop-color:#ED9B79;stop-opacity:1" />
<stop  offset="1"  style="stop-color:#FFCFBB;stop-opacity:0" />
</radialGradient>
<path style="fill:url(#RadialGradID_2534) " d="M12.05,9.95L12.1 9.95L16.65 9.15L25.55 9.5L26.1 9.5L25.9 9.65L25.85 9.7L25.8 9.7L22.35 11.4L21.7 11.75L21.5 11.8Q19.4 12.9 18.1 13.25L14.2 13.55L12.05 13.55L12.05 9.95M21.55,10.75L21.6 10.65L21.55 10.65L21.55 10.75" />
<radialGradient
id="RadialGradID_2535" gradientUnits="userSpaceOnUse" gradientTransform="matrix(-0.000961304, 0.00900269, -0.0740967, -0.00358582, 38.1, 12.4)" spreadMethod ="pad" cx="0" cy="0" r="819.2" fx="0" fy="0" >
<stop  offset="0.568627"  style="stop-color:#ED9B79;stop-opacity:1" />
<stop  offset="1"  style="stop-color:#FFFFFF;stop-opacity:0.192157" />
</radialGradient>
<path style="fill:url(#RadialGradID_2535) " d="M12.05,7.1Q15.75 6.2 17.75 6.65L23.25 8.25L17.9 6.8L12.05 7.85L12.05 7.1" />
<radialGradient
id="RadialGradID_2536" gradientUnits="userSpaceOnUse" gradientTransform="matrix(-0.000991821, 0.00900269, -0.0770111, -0.00358582, 39.1, 12.4)" spreadMethod ="pad" cx="0" cy="0" r="819.2" fx="0" fy="0" >
<stop  offset="0.568627"  style="stop-color:#ED9B79;stop-opacity:1" />
<stop  offset="1"  style="stop-color:#FFFFFF;stop-opacity:0.192157" />
</radialGradient>
<path style="fill:url(#RadialGradID_2536) " d="M11.95,7.8L11.9 7.1L12.05 7.1L12.05 7.8L12.05 7.85L11.55 7.9L12.05 7.8L11.95 7.8" />
<radialGradient
id="RadialGradID_2537" gradientUnits="userSpaceOnUse" gradientTransform="matrix(0.00088501, 0.0104065, -0.0605011, 0.00230408, -2.35, 13.25)" spreadMethod ="pad" cx="0" cy="0" r="819.2" fx="0" fy="0" >
<stop  offset="0.568627"  style="stop-color:#ED9B79;stop-opacity:1" />
<stop  offset="1"  style="stop-color:#FFFFFF;stop-opacity:0.192157" />
</radialGradient>
<path style="fill:url(#RadialGradID_2537) " d="M11.95,7.8L7.8 6.9L5.9 7L2.2 8L4.7 7.2L7.2 6.65Q9.15 6.3 11.85 7.1L11.9 7.1L11.95 7.8" />
<radialGradient
id="RadialGradID_2538" gradientUnits="userSpaceOnUse" gradientTransform="matrix(0.000137329, 0.00561523, -0.0312805, 0.000427246, 12.05, 10.1)" spreadMethod ="pad" cx="0" cy="0" r="819.2" fx="0" fy="0" >
<stop  offset="0.568627"  style="stop-color:#ED9B79;stop-opacity:1" />
<stop  offset="1"  style="stop-color:#FFFFFF;stop-opacity:0.192157" />
</radialGradient>
<path style="fill:url(#RadialGradID_2538) " d="M12,9.35L11.55 9.25L9 8.85L6.05 8.6L2.55 8.9L1.05 9L0.15 9L-0.2 9L-0.45 9L-0.65 9L0.15 8.75L2.2 8L5.9 7L7.8 6.9L11.95 7.8L12.05 7.8L11.55 7.9L12.05 7.85L12.05 9.35L12 9.35" />
<radialGradient
id="RadialGradID_2539" gradientUnits="userSpaceOnUse" gradientTransform="matrix(0.0245209, 0.000595093, -0.00012207, 0.00801086, 11.75, 6.7)" spreadMethod ="pad" cx="0" cy="0" r="819.2" fx="0" fy="0" >
<stop  offset="0.568627"  style="stop-color:#ED9B79;stop-opacity:1" />
<stop  offset="1"  style="stop-color:#FFCFBB;stop-opacity:0" />
</radialGradient>
<path style="fill:url(#RadialGradID_2539) " d="M9.3,13.5Q7 13.45 5 12.65L3.5 12L2.55 11.6L1.3 11.1L0 10.35L-0.9 9.7L-1.25 9.4L-0.9 9.55L-1.25 9.35L6.95 9.25L10.3 9.75L12.05 9.95L12.05 13.55L9.3 13.5" />
<radialGradient
id="RadialGradID_2540" gradientUnits="userSpaceOnUse" gradientTransform="matrix(0.0210724, 0.000106812, -0.000167847, 0.0118866, 12.5, 9.75)" spreadMethod ="pad" cx="0" cy="0" r="819.2" fx="0" fy="0" >
<stop  offset="0.776471"  style="stop-color:#C16A46;stop-opacity:1" />
<stop  offset="1"  style="stop-color:#C16A46;stop-opacity:0.0235294" />
</radialGradient>
<path style="fill:url(#RadialGradID_2540) " d="M-1.25,9.35L-2.45 8.65L-0.65 9L-0.45 9L-0.2 9L0.15 9L1.05 9L2.55 8.9L6.05 8.6L9 8.85L11.55 9.25L12 9.35L12.05 9.35L12.05 9.95L10.3 9.75L6.95 9.25L-1.25 9.35" />
<radialGradient
id="RadialGradID_2541" gradientUnits="userSpaceOnUse" gradientTransform="matrix(0.00465393, 0.000961304, -0.000198364, 0.000991821, 7.2, 11.4)" spreadMethod ="pad" cx="0" cy="0" r="819.2" fx="0" fy="0" >
<stop  offset="0.313725"  style="stop-color:#FFFFFF;stop-opacity:0.662745" />
<stop  offset="1"  style="stop-color:#FFFFFF;stop-opacity:0" />
</radialGradient>
<path style="fill:url(#RadialGradID_2541) " d="M10.9,12.3Q10.8 12.65 9.65 12.7L6.85 12.45L4.15 11.6Q3.1 11.05 3.15 10.7Q3.2 10.3 4.4 10.25L7.25 10.55Q8.85 10.85 9.9 11.4Q10.95 11.9 10.9 12.3" />
<radialGradient
id="RadialGradID_2542" gradientUnits="userSpaceOnUse" gradientTransform="matrix(0.00234985, -0.000518799, 0.000732422, 0.00164795, 16.5, 7.3)" spreadMethod ="pad" cx="0" cy="0" r="819.2" fx="0" fy="0" >
<stop  offset="0.313725"  style="stop-color:#FFFFFF;stop-opacity:0.282353" />
<stop  offset="1"  style="stop-color:#FFFFFF;stop-opacity:0" />
</radialGradient>
<path style="fill:url(#RadialGradID_2542) " d="M17.5,6.3L18.35 6.9Q18.55 7.3 18.1 7.7Q17.7 8.1 16.95 8.3L15.5 8.25Q14.8 8.1 14.65 7.7Q14.45 7.3 14.85 6.9Q15.3 6.5 16.05 6.35L17.5 6.3" />
<radialGradient
id="RadialGradID_2543" gradientUnits="userSpaceOnUse" gradientTransform="matrix(0.00144958, 0.000305176, -0.000198364, 0.00152588, 16.95, 11.85)" spreadMethod ="pad" cx="0" cy="0" r="819.2" fx="0" fy="0" >
<stop  offset="0.313725"  style="stop-color:#FFFFFF;stop-opacity:0.662745" />
<stop  offset="1"  style="stop-color:#FFFFFF;stop-opacity:0" />
</radialGradient>
<path style="fill:url(#RadialGradID_2543) " d="M17.1,10.95Q17.55 11.05 17.9 11.4Q18.2 11.75 18.15 12.1L17.7 12.65L16.9 12.75L16.1 12.3Q15.8 11.95 15.85 11.6Q15.9 11.25 16.3 11.05L17.1 10.95" />
</g>
</svg>
