<?xml version="1.0" encoding="utf-8"?>
<svg version="1.1" id="Layer_1"
xmlns="http://www.w3.org/2000/svg"
xmlns:xlink="http://www.w3.org/1999/xlink"
xmlns:author="http://www.sothink.com"
width="7px" height="6px"
xml:space="preserve">
<g id="267" transform="matrix(1, 0, 0, 1, 0, 0)">
<radialGradient
id="RadialGradID_2550" gradientUnits="userSpaceOnUse" gradientTransform="matrix(0.00120544, 0.000183105, -0.000183105, 0.00120544, 3.05, 0.9)" spreadMethod ="pad" cx="0" cy="0" r="819.2" fx="0" fy="0" >
<stop  offset="0"  style="stop-color:#F15E1F;stop-opacity:0.423529" />
<stop  offset="1"  style="stop-color:#FFEFEA;stop-opacity:0" />
</radialGradient>
<path style="fill:url(#RadialGradID_2550) " d="M3.3,1.05L2.9 0.8L2.85 0.45L3.1 0Q3.2 0.45 3.9 0.35Q3.7 1.15 3.3 1.05" />
<path style="fill:#D18E72;fill-opacity:1" d="M2.35,3.65L2.6 3.75L2.65 3.8L3.7 3.85L4.15 3.8L4.85 3.4L4.75 3.6L4.25 4.1L3.85 4.15L3.5 4.1L3 4.15L2.45 3.9L2.2 3.65L2.05 3.45L1.95 3.35L2.1 3.45L2.15 3.5L2.2 3.55L2.3 3.65L2.35 3.65" />
<radialGradient
id="RadialGradID_2551" gradientUnits="userSpaceOnUse" gradientTransform="matrix(0.0040741, 0.000198364, -6.10352e-005, 0.00192261, 3.5, 2.3)" spreadMethod ="pad" cx="0" cy="0" r="819.2" fx="0" fy="0" >
<stop  offset="0.568627"  style="stop-color:#ED9B79;stop-opacity:1" />
<stop  offset="1"  style="stop-color:#FFFFFF;stop-opacity:0.192157" />
</radialGradient>
<path style="fill:url(#RadialGradID_2551) " d="M0.75,1.5L1.35 1.35L2.2 1.05Q2.65 0.9 3.3 1.35Q4.2 0.85 4.45 1.05L5.9 1.45L6.2 1.45L6.8 1.2L6.25 1.8L5.8 1.8L4.2 1.45Q4.1 1.35 3.35 1.9Q2.85 1.45 2.6 1.5L1.55 1.75L0.55 1.85L0 1.05L0.75 1.5" />
<radialGradient
id="RadialGradID_2552" gradientUnits="userSpaceOnUse" gradientTransform="matrix(0.00427246, 4.57764e-005, -3.05176e-005, 0.00468445, 3.45, 2.1)" spreadMethod ="pad" cx="0" cy="0" r="819.2" fx="0" fy="0" >
<stop  offset="0.776471"  style="stop-color:#C16A46;stop-opacity:1" />
<stop  offset="1"  style="stop-color:#C16A46;stop-opacity:0.0235294" />
</radialGradient>
<path style="fill:url(#RadialGradID_2552) " d="M4.3,1.75Q3.75 1.9 3.4 2.2L2.5 1.75L1.6 1.85L0.85 2.05L0.15 1.75L0 1.35L0 1.05L0.55 1.85L1.55 1.75L2.6 1.5Q2.85 1.45 3.35 1.9Q4.1 1.35 4.2 1.45L5.8 1.8L6.25 1.8L6.8 1.2Q6.8 2.05 6.1 2L4.3 1.75" />
<radialGradient
id="RadialGradID_2553" gradientUnits="userSpaceOnUse" gradientTransform="matrix(0.00489807, 0.00100708, -0.000564575, 0.00401306, 3.1, 0.1)" spreadMethod ="pad" cx="0" cy="0" r="819.2" fx="0" fy="0" >
<stop  offset="0.568627"  style="stop-color:#ED9B79;stop-opacity:1" />
<stop  offset="1"  style="stop-color:#FFCFBB;stop-opacity:0" />
</radialGradient>
<path style="fill:url(#RadialGradID_2553) " d="M0.85,2.05L1.6 1.85L2.5 1.75L3.4 2.2Q3.75 1.9 4.3 1.75L6.1 2L5.35 2.9L5.05 3.25L4.95 3.3L4.85 3.35L4.8 3.35L5 3.35L5 3.3L5.05 3.3L5 3.35L4.75 3.4L4.2 3.6L3.8 3.65L2.55 3.6L2.5 3.6L2.2 3.45L2.2 3.5L2.2 3.45L2 3.35L2 3.3L1.95 3.3L1.9 3.3L1.75 3.2L1.75 3.15L1.4 2.85L0.85 2.05" />
<radialGradient
id="RadialGradID_2554" gradientUnits="userSpaceOnUse" gradientTransform="matrix(0.00144958, 0.000350952, -6.10352e-005, 0.000366211, 2.35, 2.6)" spreadMethod ="pad" cx="0" cy="0" r="819.2" fx="0" fy="0" >
<stop  offset="0.313725"  style="stop-color:#FFFFFF;stop-opacity:0.662745" />
<stop  offset="1"  style="stop-color:#FFFFFF;stop-opacity:0" />
</radialGradient>
<path style="fill:url(#RadialGradID_2554) " d="M3.5,2.95L3.15 3.1L2.25 3L1.4 2.7L1.1 2.35L1.5 2.2L2.35 2.3L3.25 2.6L3.5 2.95" />
<radialGradient
id="RadialGradID_2555" gradientUnits="userSpaceOnUse" gradientTransform="matrix(9.15527e-005, -0.00257874, -0.00442505, -0.000244141, 3.3, 4.15)" spreadMethod ="pad" cx="0" cy="0" r="819.2" fx="0" fy="0" >
<stop  offset="0"  style="stop-color:#F15E1F;stop-opacity:0.423529" />
<stop  offset="1"  style="stop-color:#FFEFEA;stop-opacity:0" />
</radialGradient>
<path style="fill:url(#RadialGradID_2555) " d="M5.4,3.2Q6.1 3.65 6.1 4.35Q6.05 5 5.25 5.45L3.25 5.8Q2.1 5.75 1.35 5.25Q0.5 4.7 0.55 4.05Q0.6 3.35 1.45 2.95Q2.2 2.5 3.35 2.6Q4.55 2.65 5.4 3.2" />
</g>
</svg>
