<?xml version="1.0" encoding="utf-8"?>
<svg version="1.1" id="Layer_1"
xmlns="http://www.w3.org/2000/svg"
xmlns:xlink="http://www.w3.org/1999/xlink"
xmlns:author="http://www.sothink.com"
width="16px" height="10px"
xml:space="preserve">
<g id="170" transform="matrix(1, 0, 0, 1, 0, 0)">
<radialGradient
id="RadialGradID_1737" gradientUnits="userSpaceOnUse" gradientTransform="matrix(0.00909424, 0, 0, 0.0101471, 7.75, 2.85)" spreadMethod ="pad" cx="0" cy="0" r="819.2" fx="0" fy="0" >
<stop  offset="0.568627"  style="stop-color:#ED9B79;stop-opacity:1" />
<stop  offset="0.913725"  style="stop-color:#DE8E6D;stop-opacity:0.984314" />
<stop  offset="1"  style="stop-color:#68290F;stop-opacity:0.85098" />
</radialGradient>
<path style="fill:url(#RadialGradID_1737) " d="M1.95,3.1L1.7 3.1L1.1 3.15Q0.55 3.1 0.35 2.6L1.6 2.5L4.55 1.9L6.35 2.1Q6.9 2.6 7.65 2.7L8.8 2.6L9.8 2.1L13.05 2.35L15 2.6L14.95 3Q14.8 2.9 14.8 3.05L14.1 3L12.7 2.85L10.8 3.2L10.45 3.2L9.3 3.45L8.2 3.65L7.35 3.7L6.75 3.4L6.1 3.05L5.2 2.95L4.75 3L3.75 3.05L3.7 3.05L3.25 3.05L1.95 3.1" />
<linearGradient
id="LinearGradID_1738" gradientUnits="userSpaceOnUse" gradientTransform="matrix(0.00976563, 0.00422668, -0.000930786, 0.00193787, 5.35, 4.65)" spreadMethod ="pad" x1="-819.2" y1="0" x2="819.2" y2="0" >
<stop  offset="0" style="stop-color:#FEE0CD;stop-opacity:1" />
<stop  offset="0.854902" style="stop-color:#EFAC8F;stop-opacity:1" />
<stop  offset="1" style="stop-color:#FACEB7;stop-opacity:1" />
</linearGradient>
<path style="fill:url(#LinearGradID_1738) " d="M1.7,3.1L1.95 3.1L2.6 3.1L4.45 3.1L4.8 3.1L6.7 3.4L6.75 3.4L7.35 3.7L7.4 3.75L8 3.75L8.25 3.8L9.25 3.45L9.3 3.45L10.45 3.2L10.8 3.2L12.45 3.2L13.95 3.2L14.55 3.3Q14.55 3.45 14.65 3.35Q12.9 5.85 11.8 6.2L10.1 6.45Q9.4 6.3 7.35 6.45L6.3 6.45Q4.2 6.5 3.2 5.8Q2.2 5 0.55 3L1.1 3.15L1.7 3.1" />
<radialGradient
id="RadialGradID_1739" gradientUnits="userSpaceOnUse" gradientTransform="matrix(0.00982666, 0, 0, 0.0092926, 8, 2.9)" spreadMethod ="pad" cx="0" cy="0" r="819.2" fx="0" fy="0" >
<stop  offset="0.568627"  style="stop-color:#ED9B79;stop-opacity:1" />
<stop  offset="0.737255"  style="stop-color:#EFAA8D;stop-opacity:0.847059" />
<stop  offset="1"  style="stop-color:#FFFFFF;stop-opacity:0" />
</radialGradient>
<path style="fill:url(#RadialGradID_1739) " d="M15.2,2.1L15.05 2.25L14.95 2.1L15.2 2.1" />
<radialGradient
id="RadialGradID_1740" gradientUnits="userSpaceOnUse" gradientTransform="matrix(0.00248718, 0.000335693, -0.000396729, 0.0020752, 7.25, 1.5)" spreadMethod ="pad" cx="0" cy="0" r="819.2" fx="0" fy="0" >
<stop  offset="0"  style="stop-color:#F15E1F;stop-opacity:0.423529" />
<stop  offset="1"  style="stop-color:#FFEFEA;stop-opacity:0" />
</radialGradient>
<path style="fill:url(#RadialGradID_1740) " d="M7.9,1.8Q7.1 1.55 7 1.35L6.9 0.75Q7 0.4 7.4 0Q7.6 0.75 9.05 0.65Q8.6 2.05 7.9 1.8" />
<radialGradient
id="RadialGradID_1741" gradientUnits="userSpaceOnUse" gradientTransform="matrix(0.000228882, -0.00439453, -0.01091, -0.000427246, 7.6, 6.5)" spreadMethod ="pad" cx="0" cy="0" r="819.2" fx="0" fy="0" >
<stop  offset="0"  style="stop-color:#F15E1F;stop-opacity:0.423529" />
<stop  offset="1"  style="stop-color:#FFEFEA;stop-opacity:0" />
</radialGradient>
<path style="fill:url(#RadialGradID_1741) " d="M12.65,4.9Q14.55 5.7 14.45 6.9Q14.35 8 12.45 8.8Q10.25 9.5 7.5 9.4Q4.65 9.3 2.85 8.4Q0.75 7.5 0.85 6.4Q0.85 5.2 3.05 4.5Q4.95 3.7 7.8 3.9Q10.55 3.9 12.65 4.9" />
<radialGradient
id="RadialGradID_1742" gradientUnits="userSpaceOnUse" gradientTransform="matrix(0.0015564, -0.000213623, 0.000488281, 0.000701904, 10.7, 2.25)" spreadMethod ="pad" cx="0" cy="0" r="819.2" fx="0" fy="0" >
<stop  offset="0.313725"  style="stop-color:#FFFFFF;stop-opacity:0.282353" />
<stop  offset="1"  style="stop-color:#FFFFFF;stop-opacity:0" />
</radialGradient>
<path style="fill:url(#RadialGradID_1742) " d="M11.8,2.45L11 2.7L10.05 2.7L9.45 2.45Q9.3 2.3 9.65 2.1L10.4 1.85L11.4 1.85L11.95 2.1L11.8 2.45" />
<radialGradient
id="RadialGradID_1743" gradientUnits="userSpaceOnUse" gradientTransform="matrix(0.0091095, 9.15527e-005, -9.15527e-005, 0.00801086, 7.75, 3.7)" spreadMethod ="pad" cx="0" cy="0" r="819.2" fx="0" fy="0" >
<stop  offset="0"  style="stop-color:#8A492F;stop-opacity:0.945098" />
<stop  offset="0.776471"  style="stop-color:#9C5436;stop-opacity:0.631373" />
<stop  offset="1"  style="stop-color:#86472D;stop-opacity:1" />
</radialGradient>
<path style="fill:url(#RadialGradID_1743) " d="M9.7,3.6L6.8 3.7L6.25 3.45L2.85 3.25L2.7 3.25L2.65 3.25L1.05 3.3L0.55 3L3.4 2.9L5.85 2.95L7.3 3.45L8.9 3.4Q9.65 3.05 10.9 2.95L13.2 2.85L13.65 2.85L14.9 2.95Q14.9 3.7 13.15 3.35L12.85 3.25Q11.25 3 9.7 3.6" />
<radialGradient
id="RadialGradID_1744" gradientUnits="userSpaceOnUse" gradientTransform="matrix(0.0014801, 0.000137329, -0.000198364, 0.000656128, 8.85, 4.8)" spreadMethod ="pad" cx="0" cy="0" r="819.2" fx="0" fy="0" >
<stop  offset="0.313725"  style="stop-color:#FFFFFF;stop-opacity:0.662745" />
<stop  offset="1"  style="stop-color:#FFFFFF;stop-opacity:0" />
</radialGradient>
<path style="fill:url(#RadialGradID_1744) " d="M10.05,4.9L9.65 5.15L8.75 5.2L7.95 5L7.7 4.7Q7.75 4.5 8.15 4.45L9 4.45L9.8 4.6L10.05 4.9" />
<linearGradient
id="LinearGradID_1745" gradientUnits="userSpaceOnUse" gradientTransform="matrix(0, 0.00201416, -0.00111389, 0, 6.8, 6.45)" spreadMethod ="pad" x1="-819.2" y1="0" x2="819.2" y2="0" >
<stop  offset="0" style="stop-color:#F0B195;stop-opacity:1" />
<stop  offset="1" style="stop-color:#A15E43;stop-opacity:1" />
</linearGradient>
<path style="fill:url(#LinearGradID_1745) " d="M9.6,6.45Q8.25 6.3 7.45 6.45L5.95 6.55L4.75 6.45L2.25 4.95L8.55 5.5L11.2 5.4L13.35 5L11.4 6.4L9.6 6.45" />
<linearGradient
id="LinearGradID_1746" gradientUnits="userSpaceOnUse" gradientTransform="matrix(0, -0.00222778, 0.00608826, 0, 8.3, 3.05)" spreadMethod ="pad" x1="-819.2" y1="0" x2="819.2" y2="0" >
<stop  offset="0" style="stop-color:#F0B195;stop-opacity:1" />
<stop  offset="1" style="stop-color:#A15E43;stop-opacity:1" />
</linearGradient>
<path style="fill:url(#LinearGradID_1746) " d="M2.85,3.25L6.25 3.45L6.8 3.7L9.7 3.6Q11.25 3 12.85 3.25Q9.05 4.5 7.6 4.45L5.2 3.95L2.85 3.25" />
<radialGradient
id="RadialGradID_1747" gradientUnits="userSpaceOnUse" gradientTransform="matrix(0.000961304, 0.000137329, -0.00012207, 0.000656128, 6.45, 4.8)" spreadMethod ="pad" cx="0" cy="0" r="819.2" fx="0" fy="0" >
<stop  offset="0.313725"  style="stop-color:#FFFFFF;stop-opacity:0.662745" />
<stop  offset="1"  style="stop-color:#FFFFFF;stop-opacity:0" />
</radialGradient>
<path style="fill:url(#RadialGradID_1747) " d="M5.9,4.95L5.7 4.65Q5.7 4.45 6 4.45L6.55 4.4L7.05 4.55L7.25 4.85L6.95 5.1L6.4 5.15L5.9 4.95" />
<radialGradient
id="RadialGradID_1748" gradientUnits="userSpaceOnUse" gradientTransform="matrix(0.00413513, 0.000595093, -0.000183105, 0.00062561, 3.65, 4.3)" spreadMethod ="pad" cx="0" cy="0" r="819.2" fx="0" fy="0" >
<stop  offset="0.313725"  style="stop-color:#FFFFFF;stop-opacity:0.662745" />
<stop  offset="1"  style="stop-color:#FFFFFF;stop-opacity:0" />
</radialGradient>
<path style="fill:url(#RadialGradID_1748) " d="M6.85,4.9L5.75 5.15L3.25 4.95L0.9 4.45L0 3.9Q0.05 3.6 1.1 3.6L3.6 3.8L5.95 4.3Q6.9 4.6 6.85 4.9" />
<radialGradient
id="RadialGradID_1749" gradientUnits="userSpaceOnUse" gradientTransform="matrix(0.00411987, 0.000595093, -0.000183105, 0.00062561, 2.25, 3.75)" spreadMethod ="pad" cx="0" cy="0" r="819.2" fx="0" fy="0" >
<stop  offset="0.313725"  style="stop-color:#FFFFFF;stop-opacity:0.662745" />
<stop  offset="1"  style="stop-color:#FFFFFF;stop-opacity:0" />
</radialGradient>
<path style="fill:url(#RadialGradID_1749) " d="M2.25,3.2L4.55 3.75L5.5 4.3L4.4 4.55L1.9 4.4L1.65 4.35L1.45 4.1Q0.9 3.15 0.15 3.05L2.25 3.2" />
</g>
</svg>
