<?xml version="1.0" encoding="utf-8"?>
<svg version="1.1" id="Layer_1"
xmlns="http://www.w3.org/2000/svg"
xmlns:xlink="http://www.w3.org/1999/xlink"
xmlns:author="http://www.sothink.com"
width="8px" height="6px"
xml:space="preserve">
<g id="167" transform="matrix(1, 0, 0, 1, -66.7, -38.65)">
<radialGradient
id="RadialGradID_1702" gradientUnits="userSpaceOnUse" gradientTransform="matrix(0.00114441, 0.000183105, -0.000167847, 0.00120544, 70.1, 39.55)" spreadMethod ="pad" cx="0" cy="0" r="819.2" fx="0" fy="0" >
<stop  offset="0"  style="stop-color:#F15E1F;stop-opacity:0.423529" />
<stop  offset="1"  style="stop-color:#FFEFEA;stop-opacity:0" />
</radialGradient>
<path style="fill:url(#RadialGradID_1702) " d="M70.35,39.7L69.95 39.45L69.9 39.1L70.15 38.65Q70.2 39.1 70.85 39Q70.7 39.85 70.35 39.7" />
<radialGradient
id="RadialGradID_1703" gradientUnits="userSpaceOnUse" gradientTransform="matrix(9.15527e-005, -0.00257874, -0.00502014, -0.000244141, 70.25, 42.8)" spreadMethod ="pad" cx="0" cy="0" r="819.2" fx="0" fy="0" >
<stop  offset="0"  style="stop-color:#F15E1F;stop-opacity:0.423529" />
<stop  offset="1"  style="stop-color:#FFEFEA;stop-opacity:0" />
</radialGradient>
<path style="fill:url(#RadialGradID_1703) " d="M72.55,41.85Q73.4 42.3 73.4 42.95Q73.35 43.65 72.45 44.05L70.15 44.45Q68.85 44.4 68 43.9Q67.05 43.35 67.1 42.7Q67.15 42 68.15 41.6Q69 41.15 70.35 41.2Q71.6 41.25 72.55 41.85" />
<path style="fill:#D18E72;fill-opacity:1" d="M72.5,42.05L71.75 42.55L70.9 42.6L70.05 42.55L69.3 42.6L68.7 42.45L68.35 42.2L68.15 42.1L68.4 42.2L68.1 42.05L68.5 42.25L68.85 42.35L69.25 42.4L70 42.35L70.65 42.35L71.35 42.4L72.5 42.05" />
<radialGradient
id="RadialGradID_1704" gradientUnits="userSpaceOnUse" gradientTransform="matrix(0.00485229, 4.57764e-005, -3.05176e-005, 0.00404358, 70.4, 40.95)" spreadMethod ="pad" cx="0" cy="0" r="819.2" fx="210518" fy="0" >
<stop  offset="0.776471"  style="stop-color:#C16A46;stop-opacity:1" />
<stop  offset="1"  style="stop-color:#C16A46;stop-opacity:0.0235294" />
</radialGradient>
<path style="fill:url(#RadialGradID_1704) " d="M67.35,40.9L67.3 40.9L67.25 40.9L67.2 40.9L67.15 40.9L67.1 40.9L66.8 40.75L66.7 40.35L66.95 40.6L67 40.65L67.25 40.7L67.3 40.7L67.4 40.7L67.45 40.7L67.5 40.7L67.6 40.7L67.8 40.7L68.15 40.7L68.95 40.6L69.6 40.65L70.2 40.8L70.3 40.85L71.5 40.5L71.9 40.55L73.1 40.75L73.45 40.75L73.6 40.75L74.05 40.4Q74.15 40.75 73.6 40.95L73 40.95L73.5 40.95L71.4 40.75L70.3 41.05L69.9 40.95L69.15 40.8L67.4 40.9L67.35 40.9M67.2,41L67.25 40.95L67.3 40.95L67.2 41" />
<radialGradient
id="RadialGradID_1705" gradientUnits="userSpaceOnUse" gradientTransform="matrix(3.05176e-005, 0.00190735, -0.00718689, 0.000152588, 70.3, 41.1)" spreadMethod ="pad" cx="0" cy="0" r="819.2" fx="6" fy="0" >
<stop  offset="0.568627"  style="stop-color:#ED9B79;stop-opacity:1" />
<stop  offset="1"  style="stop-color:#FFFFFF;stop-opacity:0.192157" />
</radialGradient>
<path style="fill:url(#RadialGradID_1705) " d="M66.95,40.6L66.95 40.55L66.75 40.35L67 40.35L67.5 40.25L67.8 40.2L68.8 40.05L69.3 40.15L69.4 40.15L69.45 40.15L70.25 40.4L70.3 40.4L71.4 40.05L71.6 40.05L73.1 40.35L73.25 40.4L73.45 40.45L74.05 40.4L73.6 40.75L73.45 40.75L73.1 40.75L71.9 40.55L71.5 40.5L70.3 40.85L70.2 40.8L69.6 40.65L68.95 40.6L68.15 40.7L67.8 40.7L67.6 40.7L67.5 40.7L67.45 40.7L67.4 40.7L67.25 40.7L67 40.65L66.95 40.6" />
<radialGradient
id="RadialGradID_1706" gradientUnits="userSpaceOnUse" gradientTransform="matrix(0.00572205, 0.000869751, -0.00050354, 0.0027771, 70.25, 39.95)" spreadMethod ="pad" cx="0" cy="0" r="819.2" fx="6" fy="0" >
<stop  offset="0.568627"  style="stop-color:#ED9B79;stop-opacity:1" />
<stop  offset="1"  style="stop-color:#FFCFBB;stop-opacity:0" />
</radialGradient>
<path style="fill:url(#RadialGradID_1706) " d="M71.35,42.4L70.8 42.35L70.65 42.35L70 42.35L69.25 42.4L68.85 42.35L68.5 42.25L68.1 42.05L68.4 42.2L68.15 42.1L68.05 42.05L67.7 41.65L67.2 40.95L67.25 40.95L67.25 40.9L67.25 40.95L67.2 41L67.3 40.95L67.4 40.95L67.3 40.9L67.35 40.9L67.4 40.95L67.4 40.9L69.15 40.8L69.9 40.95L70.3 41.05L71.4 40.75L73.5 40.95L73 40.95L73.6 40.95L73.5 40.95L73.7 40.95L73.55 40.95L73.65 41L73.6 41L73.6 41.05L72.65 41.9L72.5 42.05L71.35 42.4M72.6,41.3L72.6 41.25L72.6 41.3" />
<radialGradient
id="RadialGradID_1707" gradientUnits="userSpaceOnUse" gradientTransform="matrix(0.000671387, 0, 0, 0.000671387, 71.1, 42.35)" spreadMethod ="pad" cx="0" cy="0" r="819.2" fx="6" fy="0" >
<stop  offset="0.568627"  style="stop-color:#ED9B79;stop-opacity:1" />
<stop  offset="1"  style="stop-color:#FFCFBB;stop-opacity:0" />
</radialGradient>
<path style="fill:url(#RadialGradID_1707) " d="M70.65,42.35L70.8 42.35L71.35 42.4L70.65 42.35" />
<radialGradient
id="RadialGradID_1708" gradientUnits="userSpaceOnUse" gradientTransform="matrix(0.000213623, 0.00354004, -0.0139008, 0.000793457, 67.05, 42.3)" spreadMethod ="pad" cx="0" cy="0" r="819.2" fx="6" fy="0" >
<stop  offset="0.568627"  style="stop-color:#ED9B79;stop-opacity:1" />
<stop  offset="1"  style="stop-color:#FFFFFF;stop-opacity:0.192157" />
</radialGradient>
<path style="fill:url(#RadialGradID_1708) " d="M70.25,40.4L69.45 40.15L69.4 40.15L69.3 40.15L68.8 40.05L67.8 40.2L67.95 40.1L69 39.85L70.25 40.05L70.3 40.05L70.25 40.4" />
<radialGradient
id="RadialGradID_1709" gradientUnits="userSpaceOnUse" gradientTransform="matrix(-0.000228882, 0.00306702, -0.0176849, -0.0012207, 76.7, 41.95)" spreadMethod ="pad" cx="0" cy="0" r="819.2" fx="6" fy="0" >
<stop  offset="0.568627"  style="stop-color:#ED9B79;stop-opacity:1" />
<stop  offset="1"  style="stop-color:#FFFFFF;stop-opacity:0.192157" />
</radialGradient>
<path style="fill:url(#RadialGradID_1709) " d="M70.25,40.4L70.3 40.05L71.55 39.85L73.1 40.35L71.6 40.05L71.4 40.05L70.3 40.4L70.25 40.4" />
<radialGradient
id="RadialGradID_1710" gradientUnits="userSpaceOnUse" gradientTransform="matrix(0.00164795, 0.000350952, -7.62939e-005, 0.000366211, 69.4, 41.5)" spreadMethod ="pad" cx="0" cy="0" r="819.2" fx="0" fy="0" >
<stop  offset="0.313725"  style="stop-color:#FFFFFF;stop-opacity:0.662745" />
<stop  offset="1"  style="stop-color:#FFFFFF;stop-opacity:0" />
</radialGradient>
<path style="fill:url(#RadialGradID_1710) " d="M70.75,41.85L70.3 42L69.25 41.9L68.35 41.6L68 41.25L68.45 41.1L69.4 41.2Q70 41.3 70.4 41.5L70.75 41.85" />
<radialGradient
id="RadialGradID_1711" gradientUnits="userSpaceOnUse" gradientTransform="matrix(0.000717163, -0.00012207, 0.000228882, 0.000411987, 71.65, 40.1)" spreadMethod ="pad" cx="0" cy="0" r="819.2" fx="0" fy="0" >
<stop  offset="0.313725"  style="stop-color:#FFFFFF;stop-opacity:0.282353" />
<stop  offset="1"  style="stop-color:#FFFFFF;stop-opacity:0" />
</radialGradient>
<path style="fill:url(#RadialGradID_1711) " d="M71.1,40.2L71.15 40L71.5 39.9L71.95 39.85L72.2 40L72.15 40.2L71.8 40.35L71.35 40.35L71.1 40.2" />
<radialGradient
id="RadialGradID_1712" gradientUnits="userSpaceOnUse" gradientTransform="matrix(0.000442505, 7.62939e-005, -6.10352e-005, 0.00038147, 71.6, 41.45)" spreadMethod ="pad" cx="0" cy="0" r="819.2" fx="0" fy="0" >
<stop  offset="0.313725"  style="stop-color:#FFFFFF;stop-opacity:0.662745" />
<stop  offset="1"  style="stop-color:#FFFFFF;stop-opacity:0" />
</radialGradient>
<path style="fill:url(#RadialGradID_1712) " d="M71.4,41.25L71.65 41.2L71.9 41.35L71.95 41.5L71.85 41.65L71.6 41.65L71.35 41.55L71.3 41.4L71.4 41.25" />
</g>
</svg>
