<?xml version="1.0" encoding="utf-8"?>
<svg version="1.1" id="Layer_1"
xmlns="http://www.w3.org/2000/svg"
xmlns:xlink="http://www.w3.org/1999/xlink"
xmlns:author="http://www.sothink.com"
width="8px" height="5px"
xml:space="preserve">
<g id="163" transform="matrix(1, 0, 0, 1, -66.15, -39.1)">
<radialGradient
id="RadialGradID_1662" gradientUnits="userSpaceOnUse" gradientTransform="matrix(0.00115967, 0.000152588, -0.000167847, 0.000961304, 69.8, 39.85)" spreadMethod ="pad" cx="0" cy="0" r="819.2" fx="0" fy="0" >
<stop  offset="0"  style="stop-color:#F15E1F;stop-opacity:0.4" />
<stop  offset="1"  style="stop-color:#FFEFEA;stop-opacity:0" />
</radialGradient>
<path style="fill:url(#RadialGradID_1662) " d="M69.65,39.75L69.65 39.45L69.85 39.1Q69.95 39.45 70.6 39.4Q70.4 40.05 70.05 39.95Q69.7 39.85 69.65 39.75" />
<path style="fill:#D18E72;fill-opacity:1" d="M71.95,41.8L72 41.8L72.15 41.75L72.25 41.7L72.3 41.7L71.4 42.25L70.75 42.3L70.2 42.25L69.5 42.3L68.6 42.1Q68.25 41.85 68 41.75L67.9 41.65L68.1 41.75L68.15 41.75L68.2 41.75L68.25 41.8L68.45 41.9L68.5 41.9L68.9 42L70.55 42.05L71.9 41.85L71.95 41.8" />
<path style="fill:#C16A46;fill-opacity:1" d="M66.8,40.75L66.75 40.75L66.8 40.75" />
<radialGradient
id="RadialGradID_1663" gradientUnits="userSpaceOnUse" gradientTransform="matrix(0.00492859, 4.57764e-005, -3.05176e-005, 0.00372314, 70.1, 40.8)" spreadMethod ="pad" cx="0" cy="0" r="819.2" fx="210518" fy="0" >
<stop  offset="0.776471"  style="stop-color:#C16A46;stop-opacity:1" />
<stop  offset="1"  style="stop-color:#C16A46;stop-opacity:0.0235294" />
</radialGradient>
<path style="fill:url(#RadialGradID_1663) " d="M67,40.75L66.95 40.75L66.85 40.8L66.9 40.75L66.85 40.75L66.8 40.7L66.75 40.7L66.3 40.55L66.15 40.3L66.3 40.15L66.65 40.5L66.9 40.55L67.8 40.55L68.9 40.4Q69.2 40.35 70 40.65L70.8 40.45L71.1 40.35L72.85 40.6L72.85 40.55L73.2 40.6Q73.55 40.6 74 40.25Q73.95 40.75 73.35 40.8L73.3 40.8L73.2 40.85L73.25 40.75L70.9 40.6L69.6 40.8L69.05 40.55L67.05 40.75L67 40.75M66.9,40.7L66.9 40.75L66.9 40.7L66.85 40.7L66.9 40.7M73.5,40.7L73.35 40.75L73.5 40.7" />
<radialGradient
id="RadialGradID_1664" gradientUnits="userSpaceOnUse" gradientTransform="matrix(0.00566101, 0.000808716, -0.000656128, 0.00318909, 69.75, 39.2)" spreadMethod ="pad" cx="0" cy="0" r="819.2" fx="6" fy="0" >
<stop  offset="0.568627"  style="stop-color:#ED9B79;stop-opacity:1" />
<stop  offset="1"  style="stop-color:#FFCFBB;stop-opacity:0" />
</radialGradient>
<path style="fill:url(#RadialGradID_1664) " d="M66.85,40.7L66.9 40.7L66.9 40.75L66.9 40.7L66.85 40.7" />
<radialGradient
id="RadialGradID_1665" gradientUnits="userSpaceOnUse" gradientTransform="matrix(0.00469971, 0.000152588, -6.10352e-005, 0.00152588, 70.2, 40.95)" spreadMethod ="pad" cx="0" cy="0" r="819.2" fx="6" fy="0" >
<stop  offset="0.568627"  style="stop-color:#EFA687;stop-opacity:1" />
<stop  offset="1"  style="stop-color:#FFFFFF;stop-opacity:0.192157" />
</radialGradient>
<path style="fill:url(#RadialGradID_1665) " d="M73.2,40.6L72.85 40.55L72.85 40.6L71.1 40.35L70.8 40.45L70 40.65Q69.2 40.35 68.9 40.4L67.8 40.55L66.9 40.55L66.65 40.5L66.3 40.15L67.05 40.35L67.75 40.25L68.7 40.05L70 40.25L71.25 40.05L72.9 40.3L73.35 40.3L73.65 40.25L73.7 40.35L74 40.25Q73.55 40.6 73.2 40.6" />
<radialGradient
id="RadialGradID_1666" gradientUnits="userSpaceOnUse" gradientTransform="matrix(0.00566101, 0.000808716, -0.000656128, 0.00318909, 69.75, 39.2)" spreadMethod ="pad" cx="0" cy="0" r="819.2" fx="6" fy="0" >
<stop  offset="0.568627"  style="stop-color:#EFA889;stop-opacity:1" />
<stop  offset="1"  style="stop-color:#FFCFBB;stop-opacity:0" />
</radialGradient>
<path style="fill:url(#RadialGradID_1666) " d="M72.15,41.75L72 41.8L71.95 41.8L71.9 41.8L71.9 41.85L70.55 42.05L68.9 42L68.5 41.9L68.45 41.9L68.25 41.8L68.2 41.75L68.15 41.75L68.1 41.75L67.9 41.65L66.8 40.75L66.75 40.75L66.6 40.8L66.7 40.75L66.75 40.7L66.8 40.7L66.85 40.75L66.9 40.75L66.85 40.8L66.95 40.75L67 40.75L67.05 40.75L69.05 40.55L69.6 40.8L70.9 40.6L73.25 40.75L73.2 40.85L72.25 41.7L72.15 41.75" />
<radialGradient
id="RadialGradID_1667" gradientUnits="userSpaceOnUse" gradientTransform="matrix(0.00167847, 0.000274658, -7.62939e-005, 0.000289917, 69.15, 41.45)" spreadMethod ="pad" cx="0" cy="0" r="819.2" fx="0" fy="0" >
<stop  offset="0.313725"  style="stop-color:#FFFFFF;stop-opacity:0.662745" />
<stop  offset="1"  style="stop-color:#FFFFFF;stop-opacity:0" />
</radialGradient>
<path style="fill:url(#RadialGradID_1667) " d="M70.45,41.75L70 41.85L68.95 41.75L68 41.55L67.65 41.25L68.1 41.15L69.1 41.2L70.1 41.45L70.45 41.75" />
<radialGradient
id="RadialGradID_1668" gradientUnits="userSpaceOnUse" gradientTransform="matrix(0.000732422, -0.000106812, 0.000228882, 0.000335693, 70.85, 40.3)" spreadMethod ="pad" cx="0" cy="0" r="819.2" fx="0" fy="0" >
<stop  offset="0.313725"  style="stop-color:#FFFFFF;stop-opacity:0.282353" />
<stop  offset="1"  style="stop-color:#FFFFFF;stop-opacity:0" />
</radialGradient>
<path style="fill:url(#RadialGradID_1668) " d="M71,40.5L70.5 40.5L70.3 40.35L70.3 40.25L70.7 40.1L71.15 40.15L71.4 40.25L71.35 40.35L71 40.5" />
<radialGradient
id="RadialGradID_1669" gradientUnits="userSpaceOnUse" gradientTransform="matrix(0.000442505, 6.10352e-005, -6.10352e-005, 0.000305176, 70.8, 41.4)" spreadMethod ="pad" cx="0" cy="0" r="819.2" fx="0" fy="0" >
<stop  offset="0.313725"  style="stop-color:#FFFFFF;stop-opacity:0.662745" />
<stop  offset="1"  style="stop-color:#FFFFFF;stop-opacity:0" />
</radialGradient>
<path style="fill:url(#RadialGradID_1669) " d="M70.6,41.2L70.85 41.2L71.1 41.25L71.15 41.45L71.05 41.5L70.75 41.55L70.55 41.45L70.45 41.35L70.6 41.2" />
<radialGradient
id="RadialGradID_1670" gradientUnits="userSpaceOnUse" gradientTransform="matrix(0.000106812, -0.00204468, -0.00511169, -0.000183105, 70, 42.4)" spreadMethod ="pad" cx="0" cy="0" r="819.2" fx="0" fy="0" >
<stop  offset="0"  style="stop-color:#F15E1F;stop-opacity:0.423529" />
<stop  offset="1"  style="stop-color:#FFEFEA;stop-opacity:0" />
</radialGradient>
<path style="fill:url(#RadialGradID_1670) " d="M72.35,41.7Q73.2 42.05 73.15 42.6Q73.15 43.1 72.2 43.45L69.9 43.8L67.7 43.35Q66.75 42.9 66.8 42.35Q66.8 41.8 67.8 41.5L70 41.2Q71.35 41.25 72.35 41.7" />
</g>
</svg>
