<?xml version="1.0" encoding="utf-8"?>
<svg version="1.1" id="Layer_1"
xmlns="http://www.w3.org/2000/svg"
xmlns:xlink="http://www.w3.org/1999/xlink"
xmlns:author="http://www.sothink.com"
width="8px" height="5px"
xml:space="preserve">
<g id="172" transform="matrix(1, 0, 0, 1, -66.85, -39.15)">
<radialGradient
id="RadialGradID_1762" gradientUnits="userSpaceOnUse" gradientTransform="matrix(0.00106812, 0.000137329, -0.000152588, 0.000900269, 70.05, 39.85)" spreadMethod ="pad" cx="0" cy="0" r="819.2" fx="0" fy="0" >
<stop  offset="0"  style="stop-color:#F15E1F;stop-opacity:0.423529" />
<stop  offset="1"  style="stop-color:#FFEFEA;stop-opacity:0" />
</radialGradient>
<path style="fill:url(#RadialGradID_1762) " d="M70.25,40L69.95 39.8L69.9 39.55L70.1 39.15Q70.15 39.5 70.75 39.45L70.25 40" />
<path style="fill:#D18E72;fill-opacity:1" d="M68.45,41.95L68.35 41.85L68.55 41.95L68.65 41.95L68.7 41.95L68.9 42.05L69.45 42L70.7 41.95L72.05 42L72.1 41.95L72.15 41.95L72.25 41.95L72.35 41.9L72.4 41.9L71.75 42.3L71.45 42.35L71.1 42.3L70.05 42.35L69 42.25L68.45 41.95" />
<radialGradient
id="RadialGradID_1763" gradientUnits="userSpaceOnUse" gradientTransform="matrix(0.00430298, 0.000152588, -4.57764e-005, 0.00143433, 70.45, 40.9)" spreadMethod ="pad" cx="0" cy="0" r="819.2" fx="0" fy="0" >
<stop  offset="0.568627"  style="stop-color:#BE785A;stop-opacity:1" />
<stop  offset="1"  style="stop-color:#FFFFFF;stop-opacity:0.192157" />
</radialGradient>
<path style="fill:url(#RadialGradID_1763) " d="M73.3,40.55L72.95 40.55L72.85 40.55L71.25 40.35L70.95 40.45L70.25 40.65L69.2 40.45L68.45 40.5L68.4 40.5L68.3 40.5L67.85 40.55L67.4 40.55L67.15 40.5L66.85 40.15L67.55 40.3L68.15 40.25L69.05 40.05L70.2 40.25L71.4 40.05L72.9 40.3L73.3 40.3L73.6 40.25L73.65 40.35L73.9 40.25L73.3 40.55" />
<radialGradient
id="RadialGradID_1764" gradientUnits="userSpaceOnUse" gradientTransform="matrix(0.00518799, 0.000747681, -0.000610352, 0.00300598, 70, 39.25)" spreadMethod ="pad" cx="0" cy="0" r="819.2" fx="0" fy="0" >
<stop  offset="0.568627"  style="stop-color:#BE785A;stop-opacity:1" />
<stop  offset="1"  style="stop-color:#FFCFBB;stop-opacity:0" />
</radialGradient>
<path style="fill:url(#RadialGradID_1764) " d="M67.55,41L67.65 40.95L68.1 40.75L68.3 40.7L69.4 40.55L69.9 40.75L71.05 40.6L72.5 40.6L73.15 40.7L73.2 40.75L73.4 40.85L72.2 41.7L72.1 41.7L72.05 41.7L72 41.7L72 41.75L70.65 41.7L69.4 41.75L68.85 41.8L68.65 41.7L68.6 41.7L68.5 41.7L68.3 41.6L67.55 41" />
<radialGradient
id="RadialGradID_1765" gradientUnits="userSpaceOnUse" gradientTransform="matrix(0.00453186, 3.05176e-005, -4.57764e-005, 0.00350952, 70.35, 40.75)" spreadMethod ="pad" cx="0" cy="0" r="819.2" fx="0" fy="0" >
<stop  offset="0.776471"  style="stop-color:#885844;stop-opacity:1" />
<stop  offset="1"  style="stop-color:#C16A46;stop-opacity:0.0235294" />
</radialGradient>
<path style="fill:url(#RadialGradID_1765) " d="M67.35,40.65L67.85 40.55L68.3 40.5L68.4 40.5L68.45 40.5L69.2 40.45L70.25 40.65L70.95 40.45L71.25 40.35L72.85 40.55L72.95 40.55L73.3 40.55L73.8 40.95L73.7 41.05L73.65 41.05L73.55 41L73.4 40.85L73.2 40.75L73.15 40.7L72.5 40.6L71.05 40.6L69.9 40.75L69.4 40.55L68.3 40.7L68.1 40.75L67.65 40.95L67.55 41L67.2 41.15L67.05 41L67.25 40.7L67.3 40.7L67.35 40.65" />
<radialGradient
id="RadialGradID_1766" gradientUnits="userSpaceOnUse" gradientTransform="matrix(0.00518799, 0.000747681, -0.000610352, 0.00300598, 70, 39.25)" spreadMethod ="pad" cx="0" cy="0" r="819.2" fx="0" fy="0" >
<stop  offset="0.568627"  style="stop-color:#ED9B79;stop-opacity:1" />
<stop  offset="1"  style="stop-color:#FFCFBB;stop-opacity:0" />
</radialGradient>
<path style="fill:url(#RadialGradID_1766) " d="M67.3,40.7L67.25 40.7L67.3 40.7M67.2,40.7L67.1 40.75L67.2 40.7L67.25 40.7L67.2 40.7" />
<radialGradient
id="RadialGradID_1767" gradientUnits="userSpaceOnUse" gradientTransform="matrix(0.00154114, 0.000259399, -6.10352e-005, 0.000274658, 69.35, 41.3)" spreadMethod ="pad" cx="0" cy="0" r="819.2" fx="0" fy="0" >
<stop  offset="0.313725"  style="stop-color:#FFFFFF;stop-opacity:0.662745" />
<stop  offset="1"  style="stop-color:#FFFFFF;stop-opacity:0" />
</radialGradient>
<path style="fill:url(#RadialGradID_1767) " d="M70.55,41.55L70.15 41.65L69.2 41.6L68.3 41.35L68 41.1L68.4 41L69.3 41.05L70.25 41.3L70.55 41.55" />
<radialGradient
id="RadialGradID_1768" gradientUnits="userSpaceOnUse" gradientTransform="matrix(0.000671387, -9.15527e-005, 0.000198364, 0.000320435, 70.9, 40.3)" spreadMethod ="pad" cx="0" cy="0" r="819.2" fx="0" fy="0" >
<stop  offset="0.313725"  style="stop-color:#FFFFFF;stop-opacity:0.282353" />
<stop  offset="1"  style="stop-color:#FFFFFF;stop-opacity:0" />
</radialGradient>
<path style="fill:url(#RadialGradID_1768) " d="M71.1,40.45L70.65 40.45L70.4 40.35L70.45 40.15L70.8 40.05L71.2 40.05L71.45 40.2L71.4 40.35L71.1 40.45" />
<radialGradient
id="RadialGradID_1769" gradientUnits="userSpaceOnUse" gradientTransform="matrix(0.000411987, 6.10352e-005, -6.10352e-005, 0.000289917, 70.9, 41.25)" spreadMethod ="pad" cx="0" cy="0" r="819.2" fx="0" fy="0" >
<stop  offset="0.313725"  style="stop-color:#FFFFFF;stop-opacity:0.662745" />
<stop  offset="1"  style="stop-color:#FFFFFF;stop-opacity:0" />
</radialGradient>
<path style="fill:url(#RadialGradID_1769) " d="M70.7,41.1L70.95 41.1L71.2 41.2L71.2 41.3L71.15 41.4L70.9 41.4L70.65 41.3L70.55 41.2L70.7 41.1" />
<radialGradient
id="RadialGradID_1770" gradientUnits="userSpaceOnUse" gradientTransform="matrix(0.000106812, -0.00192261, -0.00468445, -0.000183105, 70.15, 42.45)" spreadMethod ="pad" cx="0" cy="0" r="819.2" fx="0" fy="0" >
<stop  offset="0"  style="stop-color:#F15E1F;stop-opacity:0.423529" />
<stop  offset="1"  style="stop-color:#FFEFEA;stop-opacity:0" />
</radialGradient>
<path style="fill:url(#RadialGradID_1770) " d="M72.35,41.7Q73.1 42.05 73.1 42.55Q73.05 43.05 72.25 43.4L70.1 43.7L68.1 43.25Q67.2 42.85 67.25 42.35Q67.25 41.85 68.2 41.55L70.25 41.25Q71.45 41.3 72.35 41.7" />
</g>
</svg>
