<?xml version="1.0" encoding="utf-8"?>
<svg version="1.1" id="Layer_1"
xmlns="http://www.w3.org/2000/svg"
xmlns:xlink="http://www.w3.org/1999/xlink"
xmlns:author="http://www.sothink.com"
width="16px" height="11px"
xml:space="preserve">
<g id="173" transform="matrix(1, 0, 0, 1, -62.75, -33.8)">
<radialGradient
id="RadialGradID_1771" gradientUnits="userSpaceOnUse" gradientTransform="matrix(0.0012207, 0.000167847, -0.000167847, 0.0012207, 69.9, 39.45)" spreadMethod ="pad" cx="0" cy="0" r="819.2" fx="0" fy="0" >
<stop  offset="0"  style="stop-color:#F15E1F;stop-opacity:0.423529" />
<stop  offset="1"  style="stop-color:#FFEFEA;stop-opacity:0" />
</radialGradient>
<path style="fill:url(#RadialGradID_1771) " d="M70.2,39.65L69.8 39.4L69.75 39.05L70 38.55Q70.05 39 70.75 38.95Q70.55 39.75 70.2 39.65" />
<path style="fill:#C16A46;fill-opacity:1" d="M67.05,40.9Q66.5 40.75 66.55 40.55L66.65 40.4L67.85 40.4L69 40.2L70.2 40.5L71 40.2L71.3 40.15L73 40.4L73.8 40.4Q74.3 40.55 74.05 40.8L73.25 40.7L71.35 40.4L71.15 40.45Q70.25 40.9 70.35 41.15L69.8 40.7L69.75 40.7L69.2 40.4L68.3 40.6L68 40.65L67.05 40.9M67.1,40.7L67.05 40.65L67.1 40.7" />
<radialGradient
id="RadialGradID_1772" gradientUnits="userSpaceOnUse" gradientTransform="matrix(0.00592041, 0.000946045, -0.000656128, 0.00401306, 69.85, 38.7)" spreadMethod ="pad" cx="0" cy="0" r="819.2" fx="0" fy="0" >
<stop  offset="0.568627"  style="stop-color:#ED9B79;stop-opacity:1" />
<stop  offset="1"  style="stop-color:#FFCFBB;stop-opacity:0" />
</radialGradient>
<path style="fill:url(#RadialGradID_1772) " d="M68,40.65L68.3 40.6L69.2 40.4L69.75 40.7L69.8 40.7L70.35 41.15Q70.25 40.9 71.15 40.45L71.35 40.4L73.25 40.7L73.05 41.25L72.85 41.45L72.5 41.8L72.4 41.9L72.3 41.95L72.2 41.95L72.2 41.9L72.2 41.95L72.15 42L71.85 42.1L72.2 41.75L70.7 42.3L69.9 42.3L69.8 42.25Q68.65 42.05 68 41.3L67.8 41.4L67.85 41.7L67.9 41.75L67.05 40.9L68 40.65M68.55,42.1L68.6 42.1L68.55 42.1M72.7,41.05L72.65 41L72.7 41.05" />
<radialGradient
id="RadialGradID_1773" gradientUnits="userSpaceOnUse" gradientTransform="matrix(0.00489807, 0.000137329, -4.57764e-005, 0.00193787, 70.25, 40.7)" spreadMethod ="pad" cx="0" cy="0" r="819.2" fx="0" fy="0" >
<stop  offset="0.568627"  style="stop-color:#ED9B79;stop-opacity:1" />
<stop  offset="1"  style="stop-color:#FFFFFF;stop-opacity:0.192157" />
</radialGradient>
<path style="fill:url(#RadialGradID_1773) " d="M73,40.4L71.3 40.15L71 40.2L70.2 40.5L69 40.2L67.85 40.4L66.65 40.4L66.55 40.55L66.4 40.65Q66.1 40.9 66.2 40.3L66.2 40.25L65.95 40.25L66.15 40.2L67.05 40.15L67.8 40L68.9 39.55Q69.5 39.15 70.15 40Q70.8 38.95 71.8 39.45L73.2 40.05L73.65 40.05L74 39.95L74.05 40.1L74.3 40L73.8 40.4L73 40.4" />
<radialGradient
id="RadialGradID_1774" gradientUnits="userSpaceOnUse" gradientTransform="matrix(0.00175476, 0.000335693, -7.62939e-005, 0.000366211, 69.4, 40.95)" spreadMethod ="pad" cx="0" cy="0" r="819.2" fx="0" fy="0" >
<stop  offset="0.313725"  style="stop-color:#FFFFFF;stop-opacity:0.662745" />
<stop  offset="1"  style="stop-color:#FFFFFF;stop-opacity:0" />
</radialGradient>
<path style="fill:url(#RadialGradID_1774) " d="M70.8,41.25Q70.75 41.4 70.3 41.45L69.2 41.35L68.25 41.05L67.85 40.7Q67.85 40.55 68.35 40.55L69.35 40.65L70.4 40.95L70.8 41.25" />
<radialGradient
id="RadialGradID_1775" gradientUnits="userSpaceOnUse" gradientTransform="matrix(0.000762939, -0.00012207, 0.000244141, 0.000411987, 70.85, 39.75)" spreadMethod ="pad" cx="0" cy="0" r="819.2" fx="0" fy="0" >
<stop  offset="0.313725"  style="stop-color:#FFFFFF;stop-opacity:0.282353" />
<stop  offset="1"  style="stop-color:#FFFFFF;stop-opacity:0" />
</radialGradient>
<path style="fill:url(#RadialGradID_1775) " d="M71,40.05L70.5 40L70.3 39.85L70.3 39.65L70.7 39.55L71.15 39.5L71.45 39.65L71.35 39.9L71 40.05" />
<radialGradient
id="RadialGradID_1776" gradientUnits="userSpaceOnUse" gradientTransform="matrix(0.000473022, 7.62939e-005, -6.10352e-005, 0.00038147, 70.85, 41.1)" spreadMethod ="pad" cx="0" cy="0" r="819.2" fx="0" fy="0" >
<stop  offset="0.313725"  style="stop-color:#FFFFFF;stop-opacity:0.662745" />
<stop  offset="1"  style="stop-color:#FFFFFF;stop-opacity:0" />
</radialGradient>
<path style="fill:url(#RadialGradID_1776) " d="M70.65,40.9L70.9 40.9L71.15 41L71.2 41.15L71.1 41.3L70.8 41.35L70.6 41.2L70.45 41.05L70.65 40.9" />
<path style="fill:#D18E72;fill-opacity:1" d="M70.3,42L71.75 41.7L72.25 41.35L71.65 42L70.35 42.3L68.95 42L68.45 41.5L68.75 41.7L70.3 42" />
<radialGradient
id="RadialGradID_1777" gradientUnits="userSpaceOnUse" gradientTransform="matrix(7.62939e-005, -0.00187683, -0.00534058, -0.000137329, 70.3, 42.6)" spreadMethod ="pad" cx="0" cy="0" r="819.2" fx="0" fy="0" >
<stop  offset="0"  style="stop-color:#C0410C;stop-opacity:0.423529" />
<stop  offset="1"  style="stop-color:#FFEFEA;stop-opacity:0" />
</radialGradient>
<path style="fill:url(#RadialGradID_1777) " d="M72.8,41.9Q73.7 42.25 73.65 42.75Q73.6 43.2 72.7 43.55L70.25 43.85L67.95 43.45Q66.95 43.05 67 42.6Q67 42.1 68.05 41.8L70.4 41.5L72.8 41.9" />
<radialGradient
id="RadialGradID_1778" gradientUnits="userSpaceOnUse" gradientTransform="matrix(0.00227356, 0.00109863, -0.000717163, 0.00512695, 76.15, 36.35)" spreadMethod ="pad" cx="0" cy="0" r="819.2" fx="0" fy="0" >
<stop  offset="0"  style="stop-color:#FFFFFF;stop-opacity:0.313725" />
<stop  offset="1"  style="stop-color:#FFFFFF;stop-opacity:0" />
</radialGradient>
<path style="fill:url(#RadialGradID_1778) " d="M77.5,34.7Q78 35.5 77.9 36.45L77.1 38.4L75.75 39.6Q75.05 39.7 74.55 38.95Q74.05 38.1 74.15 37.15Q74.25 36.2 74.95 35.15Q75.7 34.05 76.35 34Q76.95 33.85 77.5 34.7" />
<radialGradient
id="RadialGradID_1779" gradientUnits="userSpaceOnUse" gradientTransform="matrix(0.00202942, -0.000549316, 0.000640869, 0.0032196, 64.25, 36.6)" spreadMethod ="pad" cx="0" cy="0" r="819.2" fx="0" fy="0" >
<stop  offset="0"  style="stop-color:#FFFFFF;stop-opacity:0.262745" />
<stop  offset="1"  style="stop-color:#FFFFFF;stop-opacity:0" />
</radialGradient>
<path style="fill:url(#RadialGradID_1779) " d="M65.15,34.4Q65.8 35.05 65.95 35.9Q66.15 36.7 65.8 37.8Q65.4 38.75 64.9 38.9Q64.35 39.05 63.65 38.35Q62.95 37.65 62.8 36.8Q62.6 36 63 34.95Q63.3 33.95 63.9 33.85Q64.45 33.7 65.15 34.4" />
</g>
</svg>
