<?xml version="1.0" encoding="utf-8"?>
<svg version="1.1" id="Layer_1"
xmlns="http://www.w3.org/2000/svg"
xmlns:xlink="http://www.w3.org/1999/xlink"
xmlns:author="http://www.sothink.com"
width="8px" height="7px"
xml:space="preserve">
<g id="182" transform="matrix(1, 0, 0, 1, -66.55, -38)">
<path style="fill:#D18E72;fill-opacity:1" d="M68.55,41.6L69.4 41.45L71.65 41.55L69.5 41.6L68.55 41.6" />
<radialGradient
id="RadialGradID_1868" gradientUnits="userSpaceOnUse" gradientTransform="matrix(0.00132751, 0.000274658, -0.000198364, 0.00163269, 69.85, 39.25)" spreadMethod ="pad" cx="0" cy="0" r="819.2" fx="0" fy="0" >
<stop  offset="0"  style="stop-color:#F15E1F;stop-opacity:0.423529" />
<stop  offset="1"  style="stop-color:#FFEFEA;stop-opacity:0" />
</radialGradient>
<path style="fill:url(#RadialGradID_1868) " d="M69.9,38Q70 38.65 70.75 38.5Q70.55 39.6 70.1 39.45L69.7 39.05L69.6 38.6L69.9 38" />
<radialGradient
id="RadialGradID_1869" gradientUnits="userSpaceOnUse" gradientTransform="matrix(0.00480652, 0.000213623, -9.15527e-005, 0.00212097, 70.4, 40.55)" spreadMethod ="pad" cx="0" cy="0" r="819.2" fx="0" fy="0" >
<stop  offset="0.568627"  style="stop-color:#ED9B79;stop-opacity:1" />
<stop  offset="1"  style="stop-color:#FFFFFF;stop-opacity:0.192157" />
</radialGradient>
<path style="fill:url(#RadialGradID_1869) " d="M66.55,40.3L66.7 40.35L66.6 40.35L66.55 40.3M66.8,40.35L66.7 40.35L66.8 40.3L66.8 40.35" />
<radialGradient
id="RadialGradID_1870" gradientUnits="userSpaceOnUse" gradientTransform="matrix(0.00505066, 6.10352e-005, -0.000106812, 0.00515747, 70.3, 40.3)" spreadMethod ="pad" cx="0" cy="0" r="819.2" fx="0" fy="0" >
<stop  offset="0.776471"  style="stop-color:#C16A46;stop-opacity:1" />
<stop  offset="1"  style="stop-color:#C16A46;stop-opacity:0.0235294" />
</radialGradient>
<path style="fill:url(#RadialGradID_1870) " d="M66.65,40.3L66.8 40.3L66.65 40.3" />
<radialGradient
id="RadialGradID_1871" gradientUnits="userSpaceOnUse" gradientTransform="matrix(0.00480652, 1.52588e-005, 0.000473022, 0.00257874, 66.2, 40.35)" spreadMethod ="pad" cx="0" cy="0" r="819.2" fx="0" fy="0" >
<stop  offset="0.776471"  style="stop-color:#C16A46;stop-opacity:1" />
<stop  offset="1"  style="stop-color:#C16A46;stop-opacity:0.0235294" />
</radialGradient>
<path style="fill:url(#RadialGradID_1871) " d="M70.2,40.6L69.8 40.55L69.45 40.5L67.35 41.1L67.3 41.1L67.15 41.1L66.7 40.85L66.75 40.8L66.8 40.8L67 40.85L67.1 40.9L67.25 40.85L69.3 40.25L70.15 40.35L70.15 40.4L70.25 40.4L70.2 40.6" />
<radialGradient
id="RadialGradID_1872" gradientUnits="userSpaceOnUse" gradientTransform="matrix(-0.00508118, -1.52588e-005, -0.000534058, 0.00257874, 74.05, 40.8)" spreadMethod ="pad" cx="0" cy="0" r="819.2" fx="0" fy="0" >
<stop  offset="0.776471"  style="stop-color:#C16A46;stop-opacity:1" />
<stop  offset="1"  style="stop-color:#C16A46;stop-opacity:0.0235294" />
</radialGradient>
<path style="fill:url(#RadialGradID_1872) " d="M70.25,40.4L71 40.2L71.9 40.55L73.05 40.9L73.25 40.9L73.55 40.8L73.6 40.85L73.55 40.95L73.35 41.05L73.2 41.1L73 41.1L70.9 40.5L70.55 40.55L70.25 40.6L70.2 40.6L70.25 40.4" />
<radialGradient
id="RadialGradID_1873" gradientUnits="userSpaceOnUse" gradientTransform="matrix(0.00575256, -6.10352e-005, 1.52588e-005, 0.00260925, 70.3, 41.45)" spreadMethod ="pad" cx="0" cy="0" r="819.2" fx="0" fy="0" >
<stop  offset="0.568627"  style="stop-color:#ED9B79;stop-opacity:1" />
<stop  offset="1"  style="stop-color:#FFFFFF;stop-opacity:0.192157" />
</radialGradient>
<path style="fill:url(#RadialGradID_1873) " d="M70,39.8Q70.35 40 71.15 39.55Q71.75 39.7 72.25 40.15L73.2 40.9L72.15 40.7L71 40.3L70.25 40.45L70.25 40.4L70.15 40.45L69.3 40.3L67.05 40.9Q67.55 40.8 68.25 40.25L69.25 39.6L70 39.8" />
<radialGradient
id="RadialGradID_1874" gradientUnits="userSpaceOnUse" gradientTransform="matrix(0.00601196, 1.52588e-005, -6.10352e-005, 0.00576782, 70.2, 37.85)" spreadMethod ="pad" cx="0" cy="0" r="819.2" fx="0" fy="0" >
<stop  offset="0.568627"  style="stop-color:#ED9B79;stop-opacity:1" />
<stop  offset="1"  style="stop-color:#FFFFFF;stop-opacity:0.192157" />
</radialGradient>
<path style="fill:url(#RadialGradID_1874) " d="M70.3,41.35L69.2 41.35L67.35 41.1L67.35 41.05L69.45 40.5L69.8 40.55L70.2 40.55L70.25 40.55L70.55 40.55L70.9 40.5L73 41.1L73.2 41.05L70.3 41.35" />
<radialGradient
id="RadialGradID_1875" gradientUnits="userSpaceOnUse" gradientTransform="matrix(0.00146484, -4.57764e-005, 3.05176e-005, 0.001297, 70.2, 40.5)" spreadMethod ="pad" cx="0" cy="0" r="819.2" fx="0" fy="0" >
<stop  offset="0.776471"  style="stop-color:#C57350;stop-opacity:1" />
<stop  offset="1"  style="stop-color:#C16A46;stop-opacity:0.0235294" />
</radialGradient>
<path style="fill:url(#RadialGradID_1875) " d="M70.2,40.6L68.15 40.75L69.45 40.2L70.25 40.35L70.95 40.15L72.2 40.8L70.2 40.6" />
<radialGradient
id="RadialGradID_1876" gradientUnits="userSpaceOnUse" gradientTransform="matrix(0.00175476, 0.00012207, -1.52588e-005, 0.000411987, 70.15, 40.95)" spreadMethod ="pad" cx="0" cy="0" r="819.2" fx="0" fy="0" >
<stop  offset="0.313725"  style="stop-color:#FFFFFF;stop-opacity:0.662745" />
<stop  offset="1"  style="stop-color:#FFFFFF;stop-opacity:0" />
</radialGradient>
<path style="fill:url(#RadialGradID_1876) " d="M71.55,41.1L71.1 41.35L70.05 41.4L69.05 41.2L68.6 40.9Q68.6 40.75 69.05 40.65L70.05 40.6L71.1 40.8L71.55 41.1" />
<radialGradient
id="RadialGradID_1877" gradientUnits="userSpaceOnUse" gradientTransform="matrix(0.000747681, 0.000152588, 6.10352e-005, 0.000518799, 71.5, 39.55)" spreadMethod ="pad" cx="0" cy="0" r="819.2" fx="0" fy="0" >
<stop  offset="0.313725"  style="stop-color:#FFFFFF;stop-opacity:0.282353" />
<stop  offset="1"  style="stop-color:#FFFFFF;stop-opacity:0" />
</radialGradient>
<path style="fill:url(#RadialGradID_1877) " d="M71.5,39.85L71.05 39.7L70.85 39.45L71.05 39.25L71.45 39.25L71.85 39.4L72.05 39.65L71.9 39.85L71.5 39.85" />
<radialGradient
id="RadialGradID_1878" gradientUnits="userSpaceOnUse" gradientTransform="matrix(0.000396729, 0.000259399, -0.000213623, 0.000366211, 70.9, 40.9)" spreadMethod ="pad" cx="0" cy="0" r="819.2" fx="0" fy="0" >
<stop  offset="0.313725"  style="stop-color:#FFFFFF;stop-opacity:0.662745" />
<stop  offset="1"  style="stop-color:#FFFFFF;stop-opacity:0" />
</radialGradient>
<path style="fill:url(#RadialGradID_1878) " d="M70.8,40.6L71.05 40.7L71.2 40.9L71.2 41.1L71 41.2L70.8 41.1L70.6 40.9L70.6 40.7Q70.65 40.6 70.8 40.6" />
<radialGradient
id="RadialGradID_1879" gradientUnits="userSpaceOnUse" gradientTransform="matrix(-1.52588e-005, -0.00276184, -0.00624084, -0.000137329, 70.15, 42.75)" spreadMethod ="pad" cx="0" cy="0" r="819.2" fx="0" fy="0" >
<stop  offset="0"  style="stop-color:#F15E1F;stop-opacity:0.341176" />
<stop  offset="1"  style="stop-color:#FFEFEA;stop-opacity:0" />
</radialGradient>
<path style="fill:url(#RadialGradID_1879) " d="M72.75,42.1Q73.65 42.5 73.65 43.1Q73.65 43.75 72.7 44.15L70.25 44.5Q68.85 44.45 67.95 43.95Q66.95 43.5 67 42.85Q67 42.25 68.05 41.85L70.35 41.55Q71.7 41.6 72.75 42.1" />
</g>
</svg>
