<?xml version="1.0" encoding="utf-8"?>
<svg version="1.1" id="Layer_1"
xmlns="http://www.w3.org/2000/svg"
xmlns:xlink="http://www.w3.org/1999/xlink"
xmlns:author="http://www.sothink.com"
width="9px" height="6px"
xml:space="preserve">
<g id="181" transform="matrix(1, 0, 0, 1, -65.8, -38.45)">
<radialGradient
id="RadialGradID_1855" gradientUnits="userSpaceOnUse" gradientTransform="matrix(0.00114441, 0.000183105, -0.000167847, 0.00120544, 69.9, 39.35)" spreadMethod ="pad" cx="0" cy="0" r="819.2" fx="0" fy="0" >
<stop  offset="0"  style="stop-color:#F15E1F;stop-opacity:0.423529" />
<stop  offset="1"  style="stop-color:#FFEFEA;stop-opacity:0" />
</radialGradient>
<path style="fill:url(#RadialGradID_1855) " d="M70.1,39.5L69.75 39.25L69.7 38.9L69.9 38.45Q70 38.9 70.65 38.8Q70.45 39.65 70.1 39.5" />
<radialGradient
id="RadialGradID_1856" gradientUnits="userSpaceOnUse" gradientTransform="matrix(9.15527e-005, -0.00257874, -0.00502014, -0.000244141, 70.05, 42.6)" spreadMethod ="pad" cx="0" cy="0" r="819.2" fx="0" fy="0" >
<stop  offset="0"  style="stop-color:#F15E1F;stop-opacity:0.423529" />
<stop  offset="1"  style="stop-color:#FFEFEA;stop-opacity:0" />
</radialGradient>
<path style="fill:url(#RadialGradID_1856) " d="M72.35,41.65Q73.2 42.1 73.2 42.75Q73.15 43.45 72.25 43.85L69.95 44.25Q68.65 44.2 67.8 43.7Q66.85 43.15 66.9 42.5Q66.95 41.8 67.95 41.4Q68.8 40.95 70.15 41Q71.4 41.05 72.35 41.65" />
<path style="fill:#D18E72;fill-opacity:1" d="M71.7,42.35L71.75 42.35Q71.6 42.4 71.6 42.45L71.4 42.65L71.1 42.75L70.65 42.75L70.55 42.75L70.2 42.75L70.05 42.75L69.9 42.75L68.95 42.75Q68.65 42.75 68.3 42.4L68.35 42.4L68.5 42.4L68.75 42.45L69.65 42.55L70 42.55L70.1 42.55L70.4 42.55L71.15 42.5L71.7 42.35" />
<radialGradient
id="RadialGradID_1857" gradientUnits="userSpaceOnUse" gradientTransform="matrix(0.000213623, 0.00354004, -0.0139008, 0.000793457, 66.8, 42)" spreadMethod ="pad" cx="0" cy="0" r="819.2" fx="0" fy="0" >
<stop  offset="0.568627"  style="stop-color:#ED9B79;stop-opacity:1" />
<stop  offset="1"  style="stop-color:#FFFFFF;stop-opacity:0.192157" />
</radialGradient>
<path style="fill:url(#RadialGradID_1857) " d="M70.05,40.1Q69.15 39.75 68.25 40.1L66.8 40.3L66.75 40.3L66.65 40.3L68.25 39.85L69 39.55L69.05 39.55L69.1 39.6L69.15 39.6L69.45 39.6L69.6 39.65L69.55 39.6L70 39.75L70.05 39.75L70.05 40.1" />
<radialGradient
id="RadialGradID_1858" gradientUnits="userSpaceOnUse" gradientTransform="matrix(0.00502014, 0, 0, 0.00215149, 69.9, 40.35)" spreadMethod ="pad" cx="0" cy="0" r="819.2" fx="0" fy="0" >
<stop  offset="0.568627"  style="stop-color:#ED9B79;stop-opacity:1" />
<stop  offset="1"  style="stop-color:#FFFFFF;stop-opacity:0.192157" />
</radialGradient>
<path style="fill:url(#RadialGradID_1858) " d="M70.5,39.95L71.9 40.05L73.5 40.3L72 40.35L71.15 40.35L70.85 40.35L70.05 40.5L69.3 40.35L68.4 40.35L67.45 40.4L66.8 40.3L68.25 40.1Q69.15 39.75 70.05 40.1L70.5 39.95" />
<radialGradient
id="RadialGradID_1859" gradientUnits="userSpaceOnUse" gradientTransform="matrix(-0.00521851, 0, 0, 0.00192261, 70.1, 40.25)" spreadMethod ="pad" cx="0" cy="0" r="819.2" fx="0" fy="0" >
<stop  offset="0.776471"  style="stop-color:#C16A46;stop-opacity:1" />
<stop  offset="1"  style="stop-color:#C16A46;stop-opacity:0.0235294" />
</radialGradient>
<path style="fill:url(#RadialGradID_1859) " d="M69,41L69.65 41.1L70.1 41.2L70.5 41.1L71.7 41.05L72.1 40.95L72.2 40.9L73 40.55L72.4 40.55L71.55 40.5L70.95 40.55L70.05 40.65L69.8 40.6L69.2 40.55L67.05 40.55L68.55 41.05L69 41M73.5,40.3L73.6 40.25L73.65 40.25L73.7 40.25L74.2 40L73.2 40.7L72.9 40.9L71.7 41.35L70.05 41.35L70.15 41.35L70.1 41.35L70 41.35L69.55 41.4L68.6 41.35M68.6,41.35L66.95 40.7L67.05 40.9L66.95 40.7L66.55 40.5L65.8 39.95L66.6 40.25L66.65 40.3L66.75 40.3L66.8 40.3L67.45 40.4L68.4 40.35L69.3 40.35L70.05 40.5L70.85 40.35L71.15 40.35L72 40.35L73.5 40.3M70.1,41.3L70.05 41.3L70.1 41.3" />
<radialGradient
id="RadialGradID_1860" gradientUnits="userSpaceOnUse" gradientTransform="matrix(0.00387573, 0, 0, 0.000717163, 70.1, 41.05)" spreadMethod ="pad" cx="0" cy="0" r="819.2" fx="0" fy="0" >
<stop  offset="0.133333"  style="stop-color:#F1B8B8;stop-opacity:1" />
<stop  offset="0.807843"  style="stop-color:#BD8686;stop-opacity:1" />
</radialGradient>
<path style="fill:url(#RadialGradID_1860) " d="M68.55,41.05L67.05 40.55L69.2 40.55L69.8 40.6L70.05 40.65L70.95 40.55L71.55 40.5L72.4 40.55L73 40.55L72.2 40.9L72.1 40.95L71.7 41.05L70.5 41.1L70.1 41.2L69.65 41.1L69 41L68.55 41.05" />
<radialGradient
id="RadialGradID_1861" gradientUnits="userSpaceOnUse" gradientTransform="matrix(-0.000488281, 0.0030365, -0.0175171, -0.00268555, 77.4, 42.1)" spreadMethod ="pad" cx="0" cy="0" r="819.2" fx="0" fy="0" >
<stop  offset="0.568627"  style="stop-color:#ED9B79;stop-opacity:1" />
<stop  offset="1"  style="stop-color:#FFFFFF;stop-opacity:0.192157" />
</radialGradient>
<path style="fill:url(#RadialGradID_1861) " d="M73.5,40.3L71.9 40.05L70.5 39.95L70.05 40.1L70.05 39.75L70.6 39.6L71.35 39.65L72.05 39.85L72.95 40.15L73.6 40.25L73.5 40.3" />
<radialGradient
id="RadialGradID_1862" gradientUnits="userSpaceOnUse" gradientTransform="matrix(0.00468445, 0, 0, 0.00244141, 70, 40.65)" spreadMethod ="pad" cx="0" cy="0" r="819.2" fx="0" fy="0" >
<stop  offset="0.568627"  style="stop-color:#ED9B79;stop-opacity:1" />
<stop  offset="1"  style="stop-color:#FFCFBB;stop-opacity:0" />
</radialGradient>
<path style="fill:url(#RadialGradID_1862) " d="M71.15,42.5L70.4 42.55L70.1 42.55L70 42.55L69.65 42.55L68.75 42.45L68.5 42.4L68.35 42.4Q67.65 42.05 66.95 40.7L68.6 41.35L69.55 41.4L70 41.35L70.1 41.35L70.15 41.35L70.05 41.35L71.7 41.35L72.9 40.9L73.2 40.7Q72.35 41.9 71.7 42.35L71.15 42.5" />
<radialGradient
id="RadialGradID_1863" gradientUnits="userSpaceOnUse" gradientTransform="matrix(0.00791931, 0, 0, 0.00401306, 70, 40.25)" spreadMethod ="pad" cx="0" cy="0" r="819.2" fx="0" fy="0" >
<stop  offset="0.776471"  style="stop-color:#C16A46;stop-opacity:1" />
<stop  offset="1"  style="stop-color:#C16A46;stop-opacity:0.0235294" />
</radialGradient>
<path style="fill:url(#RadialGradID_1863) " d="M70.05,41.3L70.1 41.3L70.05 41.3" />
<radialGradient
id="RadialGradID_1864" gradientUnits="userSpaceOnUse" gradientTransform="matrix(0.00637817, 0, 0, 0.00401306, 70, 40.25)" spreadMethod ="pad" cx="0" cy="0" r="819.2" fx="0" fy="0" >
<stop  offset="0.776471"  style="stop-color:#C16A46;stop-opacity:1" />
<stop  offset="1"  style="stop-color:#C16A46;stop-opacity:0.0235294" />
</radialGradient>
<path style="fill:url(#RadialGradID_1864) " d="M70.1,41.35L70.15 41.35L70.1 41.35" />
<radialGradient
id="RadialGradID_1865" gradientUnits="userSpaceOnUse" gradientTransform="matrix(0.00164795, 0.000350952, -7.62939e-005, 0.000366211, 68.7, 41.75)" spreadMethod ="pad" cx="0" cy="0" r="819.2" fx="0" fy="0" >
<stop  offset="0.313725"  style="stop-color:#FFFFFF;stop-opacity:0.662745" />
<stop  offset="1"  style="stop-color:#FFFFFF;stop-opacity:0" />
</radialGradient>
<path style="fill:url(#RadialGradID_1865) " d="M70.05,42.1L69.6 42.25L68.55 42.15L67.65 41.85L67.3 41.5Q67.3 41.4 67.75 41.35L68.7 41.45L69.7 41.75L70.05 42.1" />
<radialGradient
id="RadialGradID_1866" gradientUnits="userSpaceOnUse" gradientTransform="matrix(0.000442505, 7.62939e-005, -6.10352e-005, 0.00038147, 71.25, 41.85)" spreadMethod ="pad" cx="0" cy="0" r="819.2" fx="0" fy="0" >
<stop  offset="0.313725"  style="stop-color:#FFFFFF;stop-opacity:0.662745" />
<stop  offset="1"  style="stop-color:#FFFFFF;stop-opacity:0" />
</radialGradient>
<path style="fill:url(#RadialGradID_1866) " d="M71.5,41.75L71.6 41.95L71.45 42.05L71.2 42.1L71 42L70.9 41.8L71.05 41.65L71.3 41.65L71.5 41.75" />
<radialGradient
id="RadialGradID_1867" gradientUnits="userSpaceOnUse" gradientTransform="matrix(0.000717163, -0.00012207, 0.000228882, 0.000411987, 71.1, 39.8)" spreadMethod ="pad" cx="0" cy="0" r="819.2" fx="0" fy="0" >
<stop  offset="0.313725"  style="stop-color:#FFFFFF;stop-opacity:0.282353" />
<stop  offset="1"  style="stop-color:#FFFFFF;stop-opacity:0" />
</radialGradient>
<path style="fill:url(#RadialGradID_1867) " d="M70.55,39.9L70.6 39.7L70.95 39.6L71.4 39.55L71.65 39.7L71.6 39.9L71.25 40.05L70.8 40.05L70.55 39.9" />
</g>
</svg>
