<?xml version="1.0" encoding="utf-8"?>
<svg version="1.1" id="Layer_1"
xmlns="http://www.w3.org/2000/svg"
xmlns:xlink="http://www.w3.org/1999/xlink"
xmlns:author="http://www.sothink.com"
width="7px" height="5px"
xml:space="preserve">
<g id="178" transform="matrix(1, 0, 0, 1, 0, 0)">
<radialGradient
id="RadialGradID_1825" gradientUnits="userSpaceOnUse" gradientTransform="matrix(0.00102234, 0.000167847, -0.000152588, 0.00112915, 3.05, 0.9)" spreadMethod ="pad" cx="0" cy="0" r="819.2" fx="0" fy="0" >
<stop  offset="0"  style="stop-color:#F15E1F;stop-opacity:0.423529" />
<stop  offset="1"  style="stop-color:#FFEFEA;stop-opacity:0" />
</radialGradient>
<path style="fill:url(#RadialGradID_1825) " d="M3.3,1.05L2.95 0.75L2.9 0.45L3.1 0Q3.2 0.45 3.75 0.4Q3.6 1.15 3.3 1.05" />
<radialGradient
id="RadialGradID_1826" gradientUnits="userSpaceOnUse" gradientTransform="matrix(9.15527e-005, -0.00186157, -0.00453186, -0.000167847, 3.25, 3.25)" spreadMethod ="pad" cx="0" cy="0" r="819.2" fx="0" fy="0" >
<stop  offset="0"  style="stop-color:#F15E1F;stop-opacity:0.423529" />
<stop  offset="1"  style="stop-color:#FFEFEA;stop-opacity:0" />
</radialGradient>
<path style="fill:url(#RadialGradID_1826) " d="M5.35,2.55Q6.1 2.9 6.1 3.35Q6.05 3.85 5.25 4.15L3.2 4.45L1.2 4.05Q0.35 3.65 0.4 3.15Q0.45 2.65 1.3 2.35L3.3 2.1Q4.5 2.15 5.35 2.55" />
<path style="fill:#D18E72;fill-opacity:1" d="M4.2,2.95L5.25 2.7L4.6 3.1L3.8 3.1L3.05 3.05L2.35 3.1L1.8 3L1.5 2.85L1.35 2.75L1.55 2.85L1.3 2.7L1.65 2.85L1.95 2.9L2.3 2.95L3 2.9L3.55 2.9L4.2 2.95" />
<radialGradient
id="RadialGradID_1827" gradientUnits="userSpaceOnUse" gradientTransform="matrix(0.00437927, 3.05176e-005, -3.05176e-005, 0.00291443, 3.35, 1.95)" spreadMethod ="pad" cx="0" cy="0" r="819.2" fx="0" fy="0" >
<stop  offset="0.776471"  style="stop-color:#C16A46;stop-opacity:1" />
<stop  offset="1"  style="stop-color:#C16A46;stop-opacity:0.0235294" />
</radialGradient>
<path style="fill:url(#RadialGradID_1827) " d="M0.65,1.75L0.7 1.75L0.75 1.75L0.8 1.75L1 1.75L1.3 1.75L2.05 1.65L2.65 1.7L3.2 1.8L3.25 1.85L4.35 1.6L4.7 1.6L5.8 1.75L6.1 1.8L6.25 1.75L6.65 1.55Q6.75 1.8 6.25 1.9L5.7 1.9L6.15 1.9L4.25 1.8L3.25 2L2.9 1.95L2.2 1.8L0.65 1.9L0.6 1.9L0.55 1.9L0.45 1.95L0.5 1.9L0.45 1.9L0.45 1.85L0.4 1.9L0.35 1.85L0.1 1.75L0 1.5L0.25 1.65L0.3 1.7L0.5 1.75L0.55 1.75L0.65 1.75M0.55,1.9L0.5 1.9L0.55 1.9" />
<radialGradient
id="RadialGradID_1828" gradientUnits="userSpaceOnUse" gradientTransform="matrix(0.00517273, 0.00062561, -0.000457764, 0.0019989, 3.25, 1.2)" spreadMethod ="pad" cx="0" cy="0" r="819.2" fx="0" fy="0" >
<stop  offset="0.568627"  style="stop-color:#ED9B79;stop-opacity:1" />
<stop  offset="1"  style="stop-color:#FFCFBB;stop-opacity:0" />
</radialGradient>
<path style="fill:url(#RadialGradID_1828) " d="M5.35,2.15L5.35 2.2L5.35 2.15M4.2,2.95L3.75 2.9L3.55 2.9L3 2.9L2.3 2.95L1.95 2.9L1.65 2.85L1.3 2.7L1.55 2.85L1.35 2.75L1.25 2.7L0.95 2.45L0.45 1.95L0.5 1.9L0.45 1.95L0.55 1.9L0.65 1.9L0.55 1.9L0.6 1.9L0.65 1.9L2.2 1.8L2.9 1.95L3.25 2L4.25 1.8L6.15 1.9L5.7 1.9L6.25 1.9L6.15 1.95L6.35 1.9L6.2 1.95L6.3 1.95L6.25 1.95L6.25 2L5.4 2.6L5.25 2.7L4.2 2.95" />
<radialGradient
id="RadialGradID_1829" gradientUnits="userSpaceOnUse" gradientTransform="matrix(3.05176e-005, 0.00137329, -0.00648499, 0.000106812, 3.25, 2)" spreadMethod ="pad" cx="0" cy="0" r="819.2" fx="0" fy="0" >
<stop  offset="0.568627"  style="stop-color:#ED9B79;stop-opacity:1" />
<stop  offset="1"  style="stop-color:#FFFFFF;stop-opacity:0.192157" />
</radialGradient>
<path style="fill:url(#RadialGradID_1829) " d="M6.25,1.75L6.1 1.8L5.8 1.75L4.7 1.6L4.35 1.6L3.25 1.85L3.2 1.8L2.65 1.7L2.05 1.65L1.3 1.75L1 1.75L0.8 1.75L0.75 1.75L0.7 1.75L0.65 1.75L0.5 1.75L0.3 1.7L0.25 1.65L0.25 1.6L0.05 1.5L0.3 1.5L0.7 1.4L1 1.35L1.9 1.25L2.35 1.35L2.45 1.35L2.5 1.35L3.25 1.5L3.25 1.55L4.25 1.3L4.45 1.25L5.8 1.5L5.9 1.5L6.1 1.55L6.65 1.5L6.65 1.55L6.25 1.75" />
<radialGradient
id="RadialGradID_1830" gradientUnits="userSpaceOnUse" gradientTransform="matrix(0.000183105, 0.00254822, -0.012558, 0.000564575, 0.35, 2.9)" spreadMethod ="pad" cx="0" cy="0" r="819.2" fx="0" fy="0" >
<stop  offset="0.568627"  style="stop-color:#ED9B79;stop-opacity:1" />
<stop  offset="1"  style="stop-color:#FFFFFF;stop-opacity:0.192157" />
</radialGradient>
<path style="fill:url(#RadialGradID_1830) " d="M3.25,1.5L2.5 1.35L2.45 1.35L2.35 1.35L1.9 1.25L1 1.35L1.15 1.3L2.1 1.1L3.25 1.3L3.25 1.5" />
<radialGradient
id="RadialGradID_1831" gradientUnits="userSpaceOnUse" gradientTransform="matrix(-0.000213623, 0.00221252, -0.015976, -0.00088501, 9.05, 2.65)" spreadMethod ="pad" cx="0" cy="0" r="819.2" fx="0" fy="0" >
<stop  offset="0.568627"  style="stop-color:#ED9B79;stop-opacity:1" />
<stop  offset="1"  style="stop-color:#FFFFFF;stop-opacity:0.192157" />
</radialGradient>
<path style="fill:url(#RadialGradID_1831) " d="M4.4,1.1L5.8 1.5L4.45 1.25L4.25 1.3L3.25 1.55L3.25 1.5L3.25 1.3L4.4 1.1" />
<radialGradient
id="RadialGradID_1832" gradientUnits="userSpaceOnUse" gradientTransform="matrix(0.000610352, 0, 0, 0.000488281, 4, 2.95)" spreadMethod ="pad" cx="0" cy="0" r="819.2" fx="0" fy="0" >
<stop  offset="0.568627"  style="stop-color:#ED9B79;stop-opacity:1" />
<stop  offset="1"  style="stop-color:#FFCFBB;stop-opacity:0" />
</radialGradient>
<path style="fill:url(#RadialGradID_1832) " d="M3.55,2.9L3.75 2.9L4.2 2.95L3.55 2.9" />
<radialGradient
id="RadialGradID_1833" gradientUnits="userSpaceOnUse" gradientTransform="matrix(0.00149536, 0.000259399, -6.10352e-005, 0.000259399, 2.5, 2.3)" spreadMethod ="pad" cx="0" cy="0" r="819.2" fx="0" fy="0" >
<stop  offset="0.313725"  style="stop-color:#FFFFFF;stop-opacity:0.662745" />
<stop  offset="1"  style="stop-color:#FFFFFF;stop-opacity:0" />
</radialGradient>
<path style="fill:url(#RadialGradID_1833) " d="M3.7,2.55L3.25 2.7L2.4 2.6L1.5 2.4L1.2 2.15L1.6 2.05L2.5 2.1L3.35 2.35L3.7 2.55" />
<radialGradient
id="RadialGradID_1834" gradientUnits="userSpaceOnUse" gradientTransform="matrix(0.000640869, -9.15527e-005, 0.000198364, 0.000289917, 4.5, 1.35)" spreadMethod ="pad" cx="0" cy="0" r="819.2" fx="0" fy="0" >
<stop  offset="0.313725"  style="stop-color:#FFFFFF;stop-opacity:0.282353" />
<stop  offset="1"  style="stop-color:#FFFFFF;stop-opacity:0" />
</radialGradient>
<path style="fill:url(#RadialGradID_1834) " d="M4.2,1.5L4 1.4L4.05 1.25L4.35 1.15L4.75 1.15L5 1.25L4.95 1.4L4.6 1.5L4.2 1.5" />
<radialGradient
id="RadialGradID_1835" gradientUnits="userSpaceOnUse" gradientTransform="matrix(0.000396729, 6.10352e-005, -6.10352e-005, 0.000274658, 4.45, 2.3)" spreadMethod ="pad" cx="0" cy="0" r="819.2" fx="0" fy="0" >
<stop  offset="0.313725"  style="stop-color:#FFFFFF;stop-opacity:0.662745" />
<stop  offset="1"  style="stop-color:#FFFFFF;stop-opacity:0" />
</radialGradient>
<path style="fill:url(#RadialGradID_1835) " d="M4.3,2.15L4.5 2.1L4.7 2.2L4.8 2.35L4.65 2.45L4.45 2.45L4.25 2.35L4.15 2.25Q4.15 2.15 4.3 2.15" />
</g>
</svg>
