<?xml version="1.0" encoding="utf-8"?>
<svg version="1.1" id="Layer_1"
xmlns="http://www.w3.org/2000/svg"
xmlns:xlink="http://www.w3.org/1999/xlink"
xmlns:author="http://www.sothink.com"
width="17px" height="12px"
xml:space="preserve">
<g id="175" transform="matrix(1, 0, 0, 1, 0, 0)">
<radialGradient
id="RadialGradID_1794" gradientUnits="userSpaceOnUse" gradientTransform="matrix(0.00241089, 0.000366211, -0.000366211, 0.00241089, 7.55, 1.85)" spreadMethod ="pad" cx="0" cy="0" r="819.2" fx="0" fy="0" >
<stop  offset="0"  style="stop-color:#F15E1F;stop-opacity:0.423529" />
<stop  offset="1"  style="stop-color:#FFEFEA;stop-opacity:0" />
</radialGradient>
<path style="fill:url(#RadialGradID_1794) " d="M8.1,2.15L7.3 1.65L7.2 0.9L7.7 0Q7.85 0.95 9.25 0.75Q8.85 2.4 8.1 2.15" />
<path style="fill:#D18E72;fill-opacity:1" d="M3.95,5.75Q3.55 5.45 3.8 5.55L4.2 5.8L4.25 5.8L4.4 5.85L4.5 5.95L4.6 6L4.9 6.15L5 6.2L4.95 6.15L5.8 6.4L9.25 6.6L12.05 6.05L12.15 6.05L12.25 5.95L12.35 5.9L12.6 5.8L12.8 5.7L12.9 5.7Q10.85 6.8 10.3 6.9L9.35 7.05L8.75 7.05L7.45 7.1Q6.3 7.05 5.4 6.6L4 5.8L3.95 5.75" />
<radialGradient
id="RadialGradID_1795" gradientUnits="userSpaceOnUse" gradientTransform="matrix(0.0102539, 9.15527e-005, -9.15527e-005, 0.00935364, 8.25, 4.25)" spreadMethod ="pad" cx="0" cy="0" r="819.2" fx="0" fy="0" >
<stop  offset="0.776471"  style="stop-color:#C16A46;stop-opacity:1" />
<stop  offset="1"  style="stop-color:#C16A46;stop-opacity:0.0235294" />
</radialGradient>
<path style="fill:url(#RadialGradID_1795) " d="M1.6,4L1.3 3.95L1.4 4L1.6 4.1L1.55 4.15L1.5 4.15L1.35 4L1.2 3.95L1.35 3.95L1.25 3.95L1.1 4L0.3 3.65L0 2.95L0.3 2.65L0.75 3.2L0.35 3.1L0.3 3.1L0.95 3.6L1.1 3.65L1.6 3.75L3.45 3.7L5.3 3.55L5.65 3.5L5.7 3.5L5.9 3.5L8 3.9L8.05 3.9L8.45 3.8L9.65 3.5L10.2 3.4L10.25 3.4L13.85 3.8L14 3.8L14.55 3.85L14.65 3.85L14.7 3.85L14.75 3.8L15.8 3.45L15.85 3.45L16.05 3.3L15.75 3.4Q15.95 3.2 15.5 3.3Q16.3 3.15 16.25 3.3Q16.45 3.6 15.15 3.95L14.7 4L14.65 4.05L14.65 4L9.9 3.75Q8.65 4.35 7.25 4.1L6.25 3.75L6.1 3.65L5.7 3.75L1.9 4L1.95 4.05L1.9 4.05L1.75 4L1.65 4L1.6 4.05L1.6 4" />
<radialGradient
id="RadialGradID_1796" gradientUnits="userSpaceOnUse" gradientTransform="matrix(0.0117798, 0.00143433, -0.00137329, 0.00576782, 7.5, 1.2)" spreadMethod ="pad" cx="0" cy="0" r="819.2" fx="0" fy="0" >
<stop  offset="0.568627"  style="stop-color:#ED9B79;stop-opacity:1" />
<stop  offset="1"  style="stop-color:#FFCFBB;stop-opacity:0" />
</radialGradient>
<path style="fill:url(#RadialGradID_1796) " d="M4.5,5.95L4.4 5.85L4.25 5.8L4.2 5.8L3.8 5.55Q3.55 5.45 3.95 5.75L3.7 5.65L1.6 4.2L1.55 4.2L1.45 4.1L1.35 4L1.3 4L1.2 4L1.15 4L0.9 4.05L1.1 4L1.25 3.95L1.35 3.95L1.2 3.95L1.35 4L1.5 4.15L1.55 4.15L1.6 4.1L1.6 4.05L1.65 4L1.75 4L1.9 4.05L1.95 4.05L1.9 4L5.7 3.75L6.1 3.7L6.25 3.75L7.25 4.1Q8.65 4.35 9.9 3.75L14.65 4L14.65 4.05L14.7 4L15.15 3.95L14.75 4.1L14.65 4.1L14.55 4.1L14.7 4.15L14.7 4.2L12.5 5.85L12.25 5.9L12.1 5.9L12.05 5.9L11.95 6L9.15 6.4L5.7 6.25L4.85 6.05L4.9 6.1L4.8 6.05L4.6 6L4.5 5.95" />
<radialGradient
id="RadialGradID_1797" gradientUnits="userSpaceOnUse" gradientTransform="matrix(0.00965881, 0.000244141, -0.000137329, 0.00253296, 8.4, 4.4)" spreadMethod ="pad" cx="0" cy="0" r="819.2" fx="0" fy="0" >
<stop  offset="0.568627"  style="stop-color:#ED9B79;stop-opacity:1" />
<stop  offset="1"  style="stop-color:#FFFFFF;stop-opacity:0.192157" />
</radialGradient>
<path style="fill:url(#RadialGradID_1797) " d="M14.65,3.85L14.55 3.85L14 3.8L13.85 3.75L13.85 3.8L10.25 3.4L10.2 3.4L10.15 3.4L9.55 3.5L8.45 3.8L8.05 3.9L8 3.9L5.9 3.5L5.65 3.5L5.3 3.55L3.45 3.7L1.6 3.75L1.1 3.65L0.95 3.6L0.35 3.1L0.75 3.2L1.85 3.35L3.3 3.25L5.25 2.9L7.9 3.25L10.55 2.95L13.95 3.3L14.85 3.3L15.5 3.25L15.5 3.3L15.55 3.4L15.75 3.4L16.05 3.3L15.85 3.45L15.8 3.45L14.75 3.8L14.65 3.85" />
<radialGradient
id="RadialGradID_1798" gradientUnits="userSpaceOnUse" gradientTransform="matrix(0.0117798, 0.0019989, -0.00137329, 0.00801086, 7.5, 0.25)" spreadMethod ="pad" cx="0" cy="0" r="819.2" fx="0" fy="0" >
<stop  offset="0.568627"  style="stop-color:#ED9B79;stop-opacity:1" />
<stop  offset="1"  style="stop-color:#FFCFBB;stop-opacity:0" />
</radialGradient>
<path style="fill:url(#RadialGradID_1798) " d="M1.6,4.05L1.6 4.1L1.4 4L1.3 3.95L1.6 4L1.6 4.05" />
<radialGradient
id="RadialGradID_1799" gradientUnits="userSpaceOnUse" gradientTransform="matrix(0.00349426, 0.000701904, -0.000152588, 0.000732422, 6.5, 5.35)" spreadMethod ="pad" cx="0" cy="0" r="819.2" fx="0" fy="0" >
<stop  offset="0.313725"  style="stop-color:#FFFFFF;stop-opacity:0.662745" />
<stop  offset="1"  style="stop-color:#FFFFFF;stop-opacity:0" />
</radialGradient>
<path style="fill:url(#RadialGradID_1799) " d="M9.25,6Q9.2 6.25 8.3 6.3L6.2 6.15Q4.95 5.9 4.2 5.45L3.4 4.85Q3.45 4.55 4.4 4.5L6.5 4.75L8.5 5.35Q9.3 5.7 9.25 6" />
<radialGradient
id="RadialGradID_1800" gradientUnits="userSpaceOnUse" gradientTransform="matrix(0.00152588, -0.000259399, 0.000473022, 0.000823975, 9.8, 2.95)" spreadMethod ="pad" cx="0" cy="0" r="819.2" fx="0" fy="0" >
<stop  offset="0.313725"  style="stop-color:#FFFFFF;stop-opacity:0.282353" />
<stop  offset="1"  style="stop-color:#FFFFFF;stop-opacity:0" />
</radialGradient>
<path style="fill:url(#RadialGradID_1800) " d="M11,2.75L10.85 3.15L10.1 3.45L9.15 3.45Q8.7 3.35 8.6 3.15Q8.5 2.95 8.75 2.75L9.55 2.5L10.45 2.45Q10.9 2.55 11 2.75" />
<radialGradient
id="RadialGradID_1801" gradientUnits="userSpaceOnUse" gradientTransform="matrix(0.000930786, 0.000152588, -0.00012207, 0.000762939, 10.25, 5.15)" spreadMethod ="pad" cx="0" cy="0" r="819.2" fx="0" fy="0" >
<stop  offset="0.313725"  style="stop-color:#FFFFFF;stop-opacity:0.662745" />
<stop  offset="1"  style="stop-color:#FFFFFF;stop-opacity:0" />
</radialGradient>
<path style="fill:url(#RadialGradID_1801) " d="M10.2,5.6L9.7 5.4L9.55 5.05L9.8 4.75L10.35 4.7L10.85 4.95L11 5.3L10.75 5.55L10.2 5.6" />
<radialGradient
id="RadialGradID_1802" gradientUnits="userSpaceOnUse" gradientTransform="matrix(0.000213623, -0.00515747, -0.0106506, -0.000488281, 8, 8.3)" spreadMethod ="pad" cx="0" cy="0" r="819.2" fx="0" fy="0" >
<stop  offset="0"  style="stop-color:#F15E1F;stop-opacity:0.423529" />
<stop  offset="1"  style="stop-color:#FFEFEA;stop-opacity:0" />
</radialGradient>
<path style="fill:url(#RadialGradID_1802) " d="M12.9,6.35Q14.7 7.3 14.65 8.7Q14.6 10 12.65 10.95Q10.6 11.75 7.85 11.7Q5.1 11.5 3.3 10.5Q1.25 9.45 1.3 8.1Q1.35 6.75 3.5 5.95Q5.35 5.05 8.1 5.15Q10.85 5.3 12.9 6.35" />
</g>
</svg>
