<?xml version="1.0" encoding="utf-8"?>
<svg version="1.1" id="Layer_1"
xmlns="http://www.w3.org/2000/svg"
xmlns:xlink="http://www.w3.org/1999/xlink"
xmlns:author="http://www.sothink.com"
width="9px" height="6px"
xml:space="preserve">
<g id="183" transform="matrix(1, 0, 0, 1, -65.7, -38.85)">
<path style="fill:#743207;fill-opacity:0.701961" d="M73.2,40.05L73.25 40L73.5 39.9L73.25 40L73.25 40.05L73.2 40.1L73.1 40.15L73.15 40.1L73.15 40.05L73.2 40.05" />
<path style="fill:#D9D2D2;fill-opacity:1" d="M72.6,39.95L72.55 39.95L70.1 40.3L69.65 40.25L69.3 40.15L68.35 40.05L67.8 40.15L67.25 39.95L67.35 39.95L67.8 39.85L68.05 39.8L68.85 39.8L70.1 40L71.55 39.8L72.15 39.7L72.85 39.8L72.6 39.95" />
<path style="fill:#F5EDED;fill-opacity:1" d="M67.2,40.25L67.3 40.25L67.2 40.25M71.5,40.35L70.9 40.5L69.6 40.55L69 40.45L67.8 40.15L68.35 40.05L69.3 40.15L69.65 40.25L70.1 40.3L72.55 39.95L72.6 39.95L71.5 40.35M73.2,40L73.2 40.05L73.2 40" />
<radialGradient
id="RadialGradID_1880" gradientUnits="userSpaceOnUse" gradientTransform="matrix(0.00292969, 0.000213623, -0.000152588, 0.00230408, 69.65, 39.6)" spreadMethod ="pad" cx="0" cy="0" r="819.2" fx="0" fy="0" >
<stop  offset="0"  style="stop-color:#F15E1F;stop-opacity:0.423529" />
<stop  offset="1"  style="stop-color:#FFEFEA;stop-opacity:0" />
</radialGradient>
<path style="fill:url(#RadialGradID_1880) " d="M70.05,39.35Q69.75 39.3 69.4 38.85Q70.1 39.2 70.55 38.85L70.05 39.35" />
<radialGradient
id="RadialGradID_1881" gradientUnits="userSpaceOnUse" gradientTransform="matrix(0.000289917, -0.00334167, 0.00447083, 0.000366211, 69.85, 39.8)" spreadMethod ="pad" cx="0" cy="0" r="819.2" fx="6" fy="0" >
<stop  offset="0.568627"  style="stop-color:#ED9B79;stop-opacity:1" />
<stop  offset="1"  style="stop-color:#FFCFBB;stop-opacity:0" />
</radialGradient>
<path style="fill:url(#RadialGradID_1881) " d="M73.2,40.1L73.25 40.05L73.25 40L73.5 39.9L73.65 39.9L73.75 39.9L74.1 39.85L74.15 39.6L74.1 39.45L73.65 39.1L73.75 39.1Q74 39.15 74.3 39.35L74.35 39.55L74.35 40.05L74 40.05L73.6 40.15L73.1 40.65L73 40.85L72.9 41.05Q72.45 41.85 70.7 42.25L70.6 42.3L70.2 42.3L69.85 42.3L69.35 42.2Q68.05 41.95 67.4 41.05Q66.65 40.15 66.1 40.2L65.75 40.25L65.7 39.75L65.75 39.5L66.2 39.3L66.2 39.35L66.15 39.35L66.05 39.45Q65.7 39.65 65.95 39.8L66 40.05L66.1 40.15L66.25 40.1L66.45 40.1L66.75 40.1L66.9 40.2L66.85 40.15L66.7 40L67.05 40.2L67.2 40.25L67.3 40.25L67.45 40.35L67.75 40.55L67.8 40.55L68.1 40.7L68.3 40.8L69.8 41.15L70.4 41.15L72.25 40.6L72.7 40.4L72.9 40.25L73.1 40.15L73.2 40.1M70.35,42.15L70.5 42.15L70.1 42.15L70.35 42.15" />
<radialGradient
id="RadialGradID_1882" gradientUnits="userSpaceOnUse" gradientTransform="matrix(-3.05176e-005, 0.00257874, -0.00634766, -9.15527e-005, 70.15, 40.4)" spreadMethod ="pad" cx="0" cy="0" r="819.2" fx="210518" fy="0" >
<stop  offset="0.776471"  style="stop-color:#C16A46;stop-opacity:1" />
<stop  offset="1"  style="stop-color:#C16A46;stop-opacity:0.0235294" />
</radialGradient>
<path style="fill:url(#RadialGradID_1882) " d="M72.05,40.55L72.1 40.5L72.75 40.25L72.95 40.2L73 40.15L73.15 40.05L73.15 40.1L73.1 40.15L72.9 40.25L72.7 40.4L72.25 40.6L70.4 41.15L69.8 41.15L68.3 40.8L68.1 40.7L67.8 40.55L67.75 40.55L67.45 40.35L67.3 40.25L67.8 40.45L68.35 40.65L68.5 40.65L72.05 40.55" />
<radialGradient
id="RadialGradID_1883" gradientUnits="userSpaceOnUse" gradientTransform="matrix(-3.05176e-005, 0.00213623, -0.00613403, -9.15527e-005, 70.15, 40.4)" spreadMethod ="pad" cx="0" cy="0" r="819.2" fx="6" fy="0" >
<stop  offset="0.568627"  style="stop-color:#ED9B79;stop-opacity:1" />
<stop  offset="1"  style="stop-color:#FFFFFF;stop-opacity:0.192157" />
</radialGradient>
<path style="fill:url(#RadialGradID_1883) " d="M73.4,39.65L73.2 39.75L72.9 39.8L72.85 39.8L72.15 39.7L71.55 39.8L70.1 40L68.85 39.8L68.05 39.8L67.8 39.85L67.35 39.95L67.25 39.95L66.65 39.9L66.7 39.75L66.9 39.7L67 39.75L67.15 39.7L67.65 39.65L68.65 39.65L69.45 39.7L70.1 39.85L70.6 39.7L71.4 39.65L72.65 39.55L72.15 39.45L72.7 39.55L72.85 39.6L72.9 39.6L73.1 39.55L73.15 39.55L73.2 39.55L73.35 39.55L73.4 39.65M70.1,39.75L70.05 39.7L70.2 39.7L70.1 39.75" />
<radialGradient
id="RadialGradID_1884" gradientUnits="userSpaceOnUse" gradientTransform="matrix(0.000289917, -0.00334167, 0.00447083, 0.000366211, 69.75, 39.65)" spreadMethod ="pad" cx="0" cy="0" r="819.2" fx="6" fy="0" >
<stop  offset="0.568627"  style="stop-color:#ED9B79;stop-opacity:1" />
<stop  offset="1"  style="stop-color:#FFCFBB;stop-opacity:0" />
</radialGradient>
<path style="fill:url(#RadialGradID_1884) " d="M70.1,42.15L70.5 42.15L70.35 42.15L70.1 42.15" />
<radialGradient
id="RadialGradID_1885" gradientUnits="userSpaceOnUse" gradientTransform="matrix(-3.05176e-005, 0.00224304, -0.00550842, -7.62939e-005, 70.15, 40.4)" spreadMethod ="pad" cx="0" cy="0" r="819.2" fx="210518" fy="0" >
<stop  offset="0.631373"  style="stop-color:#C16A46;stop-opacity:1" />
<stop  offset="1"  style="stop-color:#C16A46;stop-opacity:0" />
</radialGradient>
<path style="fill:url(#RadialGradID_1885) " d="M73.25,40L73.2 40.05L73.2 40L73.4 39.75L73.4 39.65L73.35 39.55L73.55 39.55L73.6 39.4L73.75 39.35L73.8 39.35L74 39.45L74.1 39.45L74.15 39.6L74.1 39.85L73.75 39.9L73.65 39.9L73.5 39.9L73.25 40M66.7,40L66.85 40.15L66.9 40.2L66.75 40.1L66.45 40.1L66.25 40.1L66.1 40.15L66 40.05L65.95 39.8L65.95 39.75L66.05 39.55L66.25 39.5L66.4 39.55L66.45 39.55L66.5 39.65L66.9 39.7L66.7 39.75L66.65 39.9L66.7 40" />
<path style="fill:#9B5353;fill-opacity:1" d="M67.8,40.15L69 40.45L68.5 40.65L68.35 40.65L67.8 40.45L67.3 40.25L67.2 40.25L67.05 40.2L66.7 40L66.65 39.9L67.25 39.95L67.8 40.15M71.5,40.35L72.6 39.95L72.85 39.8L72.9 39.8L73.2 39.75L73.4 39.65L73.4 39.75L73.2 40L73.2 40.05L73.15 40.05L73 40.15L72.95 40.2L72.75 40.25L72.1 40.5L72.05 40.55L71.5 40.35" />
<path style="fill:#DA8383;fill-opacity:1" d="M72.05,40.55L68.5 40.65L69 40.45L69.6 40.55L70.9 40.5L71.5 40.35L72.05 40.55" />
<path style="fill:#D18E72;fill-opacity:1" d="M66.25,41.7L65.75 41.45L65.85 41.5L66.25 41.7M67.95,41.9L68.45 42.1L68.9 42.25L70.6 42.35L72 42.05L72.05 42.05L72.15 42L72.25 41.95L72.4 41.9L71.5 42.6L70.8 42.65L70.1 42.65L69.4 42.7Q68.95 42.75 68.65 42.45L68.1 42.05L67.85 41.85L67.95 41.9" />
<radialGradient
id="RadialGradID_1886" gradientUnits="userSpaceOnUse" gradientTransform="matrix(0.00175476, 0.000350952, -7.62939e-005, 0.000366211, 69.05, 41.55)" spreadMethod ="pad" cx="0" cy="0" r="819.2" fx="0" fy="0" >
<stop  offset="0.313725"  style="stop-color:#FFFFFF;stop-opacity:0.662745" />
<stop  offset="1"  style="stop-color:#FFFFFF;stop-opacity:0" />
</radialGradient>
<path style="fill:url(#RadialGradID_1886) " d="M70.45,41.9L70 42.05L68.95 41.95L67.9 41.65L67.55 41.3L68 41.15L69.1 41.25L70.1 41.55L70.45 41.9" />
<radialGradient
id="RadialGradID_1887" gradientUnits="userSpaceOnUse" gradientTransform="matrix(0.000473022, 7.62939e-005, -6.10352e-005, 0.00038147, 71.15, 41.55)" spreadMethod ="pad" cx="0" cy="0" r="819.2" fx="0" fy="0" >
<stop  offset="0.313725"  style="stop-color:#FFFFFF;stop-opacity:0.662745" />
<stop  offset="1"  style="stop-color:#FFFFFF;stop-opacity:0" />
</radialGradient>
<path style="fill:url(#RadialGradID_1887) " d="M71.45,41.4L71.5 41.6L71.35 41.75L71.1 41.75L70.85 41.65L70.75 41.5L70.9 41.35L71.2 41.3L71.45 41.4" />
<radialGradient
id="RadialGradID_1888" gradientUnits="userSpaceOnUse" gradientTransform="matrix(0.000762939, -0.00012207, 0.000244141, 0.000411987, 71.4, 39.65)" spreadMethod ="pad" cx="0" cy="0" r="819.2" fx="0" fy="0" >
<stop  offset="0.313725"  style="stop-color:#FFFFFF;stop-opacity:0.282353" />
<stop  offset="1"  style="stop-color:#FFFFFF;stop-opacity:0" />
</radialGradient>
<path style="fill:url(#RadialGradID_1888) " d="M72,39.55L71.95 39.75L71.55 39.9L71.1 39.9L70.8 39.75L70.9 39.55L71.25 39.4L71.75 39.4L72 39.55" />
<radialGradient
id="RadialGradID_1889" gradientUnits="userSpaceOnUse" gradientTransform="matrix(-3.05176e-005, 0.00213623, -0.00613403, -9.15527e-005, 70.15, 40.4)" spreadMethod ="pad" cx="0" cy="0" r="819.2" fx="6" fy="0" >
<stop  offset="0.568627"  style="stop-color:#ED9B79;stop-opacity:1" />
<stop  offset="1"  style="stop-color:#FFFFFF;stop-opacity:0.192157" />
</radialGradient>
<path style="fill:url(#RadialGradID_1889) " d="M69.9,39.75L69.9 39.8L69.45 39.7L68.65 39.65L67.7 39.65L67.8 39.65L68.1 39.5L68.75 39.25L69.25 39.2L69.3 39.2L69.9 39.75M70.1,39.5L70.2 39.5Q70.35 39.4 70.75 39.25L71.55 39.2L72.15 39.45L72.7 39.6L71.4 39.65L70.6 39.7L70.3 39.8L70.1 39.85L70.05 39.85L70.1 39.5" />
<radialGradient
id="RadialGradID_1890" gradientUnits="userSpaceOnUse" gradientTransform="matrix(1, 0, 0, 1, 0, 0)" spreadMethod ="pad" cx="0" cy="0" r="819.2" fx="0" fy="0" >
<stop  offset="0.568627"  style="stop-color:#E78054;stop-opacity:1" />
<stop  offset="1"  style="stop-color:#FFFFFF;stop-opacity:0.192157" />
</radialGradient>
<path style="fill:url(#RadialGradID_1890) " d="M70.05,39.85L70 39.85L69.9 39.8L69.9 39.75L69.3 39.2L69.6 39.35L69.9 39.45L70.1 39.5L70.05 39.85" />
<radialGradient
id="RadialGradID_1891" gradientUnits="userSpaceOnUse" gradientTransform="matrix(0.000106812, -0.00257874, -0.00532532, -0.000244141, 70.05, 42.95)" spreadMethod ="pad" cx="0" cy="0" r="819.2" fx="0" fy="0" >
<stop  offset="0"  style="stop-color:#F15E1F;stop-opacity:0.423529" />
<stop  offset="1"  style="stop-color:#FFEFEA;stop-opacity:0" />
</radialGradient>
<path style="fill:url(#RadialGradID_1891) " d="M72.5,42Q73.4 42.45 73.4 43.15Q73.35 43.8 72.4 44.25L69.95 44.6Q68.55 44.55 67.7 44.05Q66.65 43.5 66.7 42.85Q66.75 42.15 67.8 41.75Q68.75 41.3 70.15 41.4Q71.5 41.45 72.5 42" />
<radialGradient
id="RadialGradID_1892" gradientUnits="userSpaceOnUse" gradientTransform="matrix(0.000732422, 0, 0, 0.000732422, 66.45, 39.9)" spreadMethod ="pad" cx="0" cy="0" r="819.2" fx="0" fy="0" >
<stop  offset="0"  style="stop-color:#C16A46;stop-opacity:0.541176" />
<stop  offset="1"  style="stop-color:#C16A46;stop-opacity:0" />
</radialGradient>
<path style="fill:url(#RadialGradID_1892) " d="M66.75,40.15L66.45 40.25L66.1 40.15L66 39.9L66.1 39.65L66.45 39.55L66.75 39.65L66.9 39.9L66.75 40.15" />
<radialGradient
id="RadialGradID_1893" gradientUnits="userSpaceOnUse" gradientTransform="matrix(0.000717163, -0.00012207, 0.00012207, 0.000717163, 73.65, 39.7)" spreadMethod ="pad" cx="0" cy="0" r="819.2" fx="0" fy="0" >
<stop  offset="0"  style="stop-color:#C16A46;stop-opacity:0.541176" />
<stop  offset="1"  style="stop-color:#C16A46;stop-opacity:0" />
</radialGradient>
<path style="fill:url(#RadialGradID_1893) " d="M74,39.9L73.7 40.05L73.35 40L73.2 39.8L73.25 39.5L73.6 39.35L73.9 39.4L74.1 39.65L74 39.9" />
</g>
</svg>
