<?xml version="1.0" encoding="utf-8"?>
<svg version="1.1" id="Layer_1"
xmlns="http://www.w3.org/2000/svg"
xmlns:xlink="http://www.w3.org/1999/xlink"
xmlns:author="http://www.sothink.com"
width="8px" height="4px"
xml:space="preserve">
<g id="186" transform="matrix(1, 0, 0, 1, -66.55, -39.1)">
<radialGradient
id="RadialGradID_1912" gradientUnits="userSpaceOnUse" gradientTransform="matrix(0.00105286, 0.000106812, -0.000167847, 0.000808716, 69.9, 39.75)" spreadMethod ="pad" cx="0" cy="0" r="819.2" fx="0" fy="0" >
<stop  offset="0"  style="stop-color:#F15E1F;stop-opacity:0.423529" />
<stop  offset="1"  style="stop-color:#FFEFEA;stop-opacity:0" />
</radialGradient>
<path style="fill:url(#RadialGradID_1912) " d="M70.7,39.35L70.2 39.85L69.8 39.65L69.75 39.4L70 39.1Q70.05 39.4 70.7 39.35" />
<path style="fill:#D18E72;fill-opacity:1" d="M68.7,41.6L69.45 41.75L70.7 41.75L71.65 41.65L71.05 41.85L70.4 41.9L70.15 41.9L69.1 41.8L68.2 41.4L68.7 41.6" />
<radialGradient
id="RadialGradID_1913" gradientUnits="userSpaceOnUse" gradientTransform="matrix(0.00431824, 6.10352e-005, -4.57764e-005, 0.00128174, 70.3, 40.75)" spreadMethod ="pad" cx="0" cy="0" r="819.2" fx="6" fy="0" >
<stop  offset="0.568627"  style="stop-color:#ED9B79;stop-opacity:1" />
<stop  offset="1"  style="stop-color:#FFFFFF;stop-opacity:0.192157" />
</radialGradient>
<path style="fill:url(#RadialGradID_1913) " d="M73.15,40.45L71.55 40.45L70.1 40.5L69.2 40.5L68.05 40.55L67.25 40.55L67 40.45L66.7 40.15L67.35 40.3L68.05 40.2L68.9 40.05L70.1 40.15L71.3 40L72.8 40.2L73.2 40.15L73.45 40.1L73.5 40.2L73.75 40.15L73.15 40.45" />
<radialGradient
id="RadialGradID_1914" gradientUnits="userSpaceOnUse" gradientTransform="matrix(0.00453186, -4.57764e-005, -1.52588e-005, 0.00312805, 70.2, 40.65)" spreadMethod ="pad" cx="0" cy="0" r="819.2" fx="210518" fy="0" >
<stop  offset="0.776471"  style="stop-color:#C16A46;stop-opacity:1" />
<stop  offset="1"  style="stop-color:#C16A46;stop-opacity:0.0235294" />
</radialGradient>
<path style="fill:url(#RadialGradID_1914) " d="M67.05,40.6L66.7 40.5L66.55 40.3L66.7 40.15L67 40.45L67.25 40.55L68.05 40.55L69.2 40.5L70.1 40.5L71.55 40.45L73.15 40.45L73.75 40.15Q73.75 40.55 73.2 40.6L73.15 40.6L71.6 40.55L71.4 40.55L69.8 40.7L68.95 40.55L67.4 40.65L67.3 40.65L67.1 40.6L67.05 40.6" />
<radialGradient
id="RadialGradID_1915" gradientUnits="userSpaceOnUse" gradientTransform="matrix(0.00520325, 0.000595093, -0.000579834, 0.00270081, 69.85, 39.3)" spreadMethod ="pad" cx="0" cy="0" r="819.2" fx="6" fy="0" >
<stop  offset="0.568627"  style="stop-color:#ED9B79;stop-opacity:1" />
<stop  offset="1"  style="stop-color:#FFCFBB;stop-opacity:0" />
</radialGradient>
<path style="fill:url(#RadialGradID_1915) " d="M67.1,40.6L67.3 40.65L67.35 40.65L67.4 40.65L68.95 40.55L69.8 40.7L71.4 40.55L71.6 40.55L73.15 40.6L73.05 40.65L72.15 41.4L71.95 41.5L71.65 41.65L70.7 41.75L69.45 41.75L68.7 41.6L68.2 41.4L67.05 40.65L67 40.6L67.05 40.6L67.1 40.6M67.1,40.65L67.1 40.6L67.05 40.65L67.1 40.65" />
<radialGradient
id="RadialGradID_1916" gradientUnits="userSpaceOnUse" gradientTransform="matrix(0.00154114, 0.000213623, -6.10352e-005, 0.000244141, 69.35, 41)" spreadMethod ="pad" cx="0" cy="0" r="819.2" fx="0" fy="0" >
<stop  offset="0.313725"  style="stop-color:#FFFFFF;stop-opacity:0.662745" />
<stop  offset="1"  style="stop-color:#FFFFFF;stop-opacity:0" />
</radialGradient>
<path style="fill:url(#RadialGradID_1916) " d="M70.55,41.25L70.15 41.35L69.2 41.3L68.3 41.1L68 40.9L68.4 40.8L69.3 40.8L70.25 41.05L70.55 41.25" />
<radialGradient
id="RadialGradID_1917" gradientUnits="userSpaceOnUse" gradientTransform="matrix(0.000671387, -9.15527e-005, 0.000213623, 0.000274658, 71.15, 40.25)" spreadMethod ="pad" cx="0" cy="0" r="819.2" fx="0" fy="0" >
<stop  offset="0.313725"  style="stop-color:#FFFFFF;stop-opacity:0.282353" />
<stop  offset="1"  style="stop-color:#FFFFFF;stop-opacity:0" />
</radialGradient>
<path style="fill:url(#RadialGradID_1917) " d="M71.25,40.45L70.85 40.45L70.6 40.35L70.65 40.2L71.05 40.1L71.45 40.1L71.7 40.15L71.6 40.3L71.25 40.45" />
<radialGradient
id="RadialGradID_1918" gradientUnits="userSpaceOnUse" gradientTransform="matrix(0.000411987, 4.57764e-005, -6.10352e-005, 0.000259399, 71.1, 41.15)" spreadMethod ="pad" cx="0" cy="0" r="819.2" fx="0" fy="0" >
<stop  offset="0.313725"  style="stop-color:#FFFFFF;stop-opacity:0.662745" />
<stop  offset="1"  style="stop-color:#FFFFFF;stop-opacity:0" />
</radialGradient>
<path style="fill:url(#RadialGradID_1918) " d="M70.95,41L71.15 41L71.4 41.05L71.45 41.15L71.35 41.25L71.1 41.3L70.9 41.2L70.8 41.1L70.95 41" />
<radialGradient
id="RadialGradID_1919" gradientUnits="userSpaceOnUse" gradientTransform="matrix(7.62939e-005, -0.00172424, -0.00469971, -9.15527e-005, 70.1, 42)" spreadMethod ="pad" cx="0" cy="0" r="819.2" fx="0" fy="0" >
<stop  offset="0"  style="stop-color:#F15E1F;stop-opacity:0.423529" />
<stop  offset="1"  style="stop-color:#FFEFEA;stop-opacity:0" />
</radialGradient>
<path style="fill:url(#RadialGradID_1919) " d="M72.25,41.35Q73.05 41.65 73 42.15L72.15 42.9L70 43.1L68 42.8Q67.1 42.45 67.15 42Q67.15 41.5 68.1 41.25L70.15 40.95L72.25 41.35" />
</g>
</svg>
