<?xml version="1.0" encoding="utf-8"?>
<svg version="1.1" id="Layer_1"
xmlns="http://www.w3.org/2000/svg"
xmlns:xlink="http://www.w3.org/1999/xlink"
xmlns:author="http://www.sothink.com"
width="8px" height="4px"
xml:space="preserve">
<g id="184" transform="matrix(1, 0, 0, 1, -66.3, -39.8)">
<radialGradient
id="RadialGradID_1894" gradientUnits="userSpaceOnUse" gradientTransform="matrix(0.00279236, 0, 0, 0.00112915, 70.1, 42.3)" spreadMethod ="pad" cx="0" cy="0" r="819.2" fx="0" fy="0" >
<stop  offset="0.117647"  style="stop-color:#EF957E;stop-opacity:0.8" />
<stop  offset="1"  style="stop-color:#E69E8B;stop-opacity:0" />
</radialGradient>
<path style="fill:url(#RadialGradID_1894) " d="M71.65,42.95L70.05 43.25L68.45 43Q67.75 42.75 67.75 42.4Q67.75 42.05 68.45 41.8L70 41.5L71.6 41.75Q72.25 41.95 72.25 42.3Q72.25 42.65 71.65 42.95" />
<radialGradient
id="RadialGradID_1895" gradientUnits="userSpaceOnUse" gradientTransform="matrix(0.000961304, -1.52588e-005, 1.52588e-005, 0.000793457, 73.1, 40.45)" spreadMethod ="pad" cx="0" cy="0" r="819.2" fx="0" fy="0" >
<stop  offset="0.117647"  style="stop-color:#EF957E;stop-opacity:0.8" />
<stop  offset="1"  style="stop-color:#E69E8B;stop-opacity:0" />
</radialGradient>
<path style="fill:url(#RadialGradID_1895) " d="M72.55,40.05Q72.75 39.85 73.1 39.85L73.65 40.05L73.9 40.45L73.7 40.9L73.15 41.1L72.6 40.95L72.35 40.5Q72.35 40.2 72.55 40.05" />
<radialGradient
id="RadialGradID_1896" gradientUnits="userSpaceOnUse" gradientTransform="matrix(0.000961304, -1.52588e-005, 1.52588e-005, 0.000793457, 67, 40.4)" spreadMethod ="pad" cx="0" cy="0" r="819.2" fx="0" fy="0" >
<stop  offset="0.117647"  style="stop-color:#EF957E;stop-opacity:0.8" />
<stop  offset="1"  style="stop-color:#E69E8B;stop-opacity:0" />
</radialGradient>
<path style="fill:url(#RadialGradID_1896) " d="M67.8,40.4L67.6 40.85L67.05 41.05L66.5 40.9Q66.25 40.7 66.3 40.45Q66.25 40.15 66.5 40L67 39.8L67.55 40L67.8 40.4" />
<path style="fill:#FCF1F1;fill-opacity:1" d="M69.6,40.7L69.65 40.6L70.05 40.6L70.55 40.6L70.7 40.7L69.95 40.8L69.6 40.7" />
<radialGradient
id="RadialGradID_1897" gradientUnits="userSpaceOnUse" gradientTransform="matrix(0.00437927, -4.57764e-005, 1.52588e-005, 0.00161743, 70.1, 40.7)" spreadMethod ="pad" cx="0" cy="0" r="819.2" fx="0" fy="0" >
<stop  offset="0"  style="stop-color:#FC94A9;stop-opacity:1" />
<stop  offset="1"  style="stop-color:#F7B9B3;stop-opacity:0.501961" />
</radialGradient>
<path style="fill:url(#RadialGradID_1897) " d="M72.4,40.6L72.4 40.65L72.35 40.65L72.35 40.6L72.4 40.6" />
<radialGradient
id="RadialGradID_1898" gradientUnits="userSpaceOnUse" gradientTransform="matrix(0.00437927, -4.57764e-005, 1.52588e-005, 0.00161743, 69.9, 41.1)" spreadMethod ="pad" cx="0" cy="0" r="819.2" fx="0" fy="0" >
<stop  offset="0"  style="stop-color:#EE6A33;stop-opacity:1" />
<stop  offset="1"  style="stop-color:#E0BDAF;stop-opacity:0.341176" />
</radialGradient>
<path style="fill:url(#RadialGradID_1898) " d="M68,41.75Q67.4 41.4 67.1 40.7L67.3 40.7L68.8 41.05L69 41.1L70.4 41.15L72.2 40.8L72.8 40.7L72.95 40.6Q73 41.05 72.5 41.55Q71.95 42 71.1 42.15L69.4 42.2L68 41.75" />
<radialGradient
id="RadialGradID_1899" gradientUnits="userSpaceOnUse" gradientTransform="matrix(0.00160217, -3.05176e-005, 1.52588e-005, 0.000839233, 69.15, 41.4)" spreadMethod ="pad" cx="0" cy="0" r="819.2" fx="0" fy="0" >
<stop  offset="0"  style="stop-color:#FFFFFF;stop-opacity:0.45098" />
<stop  offset="0.992157"  style="stop-color:#FA82A2;stop-opacity:0" />
</radialGradient>
<path style="fill:url(#RadialGradID_1899) " d="M68.6,41.1L68.65 41.2L69 41.25L69.2 41.3L69.85 41.4L69.55 41.65L69.4 41.65L69.25 41.45L69.25 41.6L68.8 41.55L68.65 41.3L68.5 41.5Q68.35 41.3 68.6 41.1" />
<radialGradient
id="RadialGradID_1900" gradientUnits="userSpaceOnUse" gradientTransform="matrix(0.00108337, -1.52588e-005, 1.52588e-005, 0.000762939, 70.9, 41.4)" spreadMethod ="pad" cx="0" cy="0" r="819.2" fx="0" fy="0" >
<stop  offset="0"  style="stop-color:#FFFFFF;stop-opacity:1" />
<stop  offset="0.992157"  style="stop-color:#FA82A2;stop-opacity:0" />
</radialGradient>
<path style="fill:url(#RadialGradID_1900) " d="M71.3,41.25L71.15 41.3L70.95 41.45L70.5 41.45L70.4 41.65L70.2 41.4L70.35 41.45Q70.3 41.3 70.6 41.3L71 41.25Q71.15 41.1 71.3 41.25" />
<radialGradient
id="RadialGradID_1901" gradientUnits="userSpaceOnUse" gradientTransform="matrix(0.00437927, -4.57764e-005, 1.52588e-005, 0.00157166, 70.05, 40.8)" spreadMethod ="pad" cx="0" cy="0" r="819.2" fx="0" fy="0" >
<stop  offset="0"  style="stop-color:#F435BB;stop-opacity:1" />
<stop  offset="1"  style="stop-color:#F7D2C4;stop-opacity:0.501961" />
</radialGradient>
<path style="fill:url(#RadialGradID_1901) " d="M71.5,40.65L71.5 40.7L71.4 40.65L71.5 40.65" />
<radialGradient
id="RadialGradID_1902" gradientUnits="userSpaceOnUse" gradientTransform="matrix(0.00437927, -4.57764e-005, 1.52588e-005, 0.00157166, 70.05, 40.8)" spreadMethod ="pad" cx="0" cy="0" r="819.2" fx="0" fy="0" >
<stop  offset="0.0392157"  style="stop-color:#DA612E;stop-opacity:1" />
<stop  offset="1"  style="stop-color:#E7BBA9;stop-opacity:0.501961" />
</radialGradient>
<path style="fill:url(#RadialGradID_1902) " d="M71.5,40.65L71.4 40.65L71.1 40.65L69.85 40.6L69.55 40.6L69.35 40.6L68.8 40.7L68.6 40.7L68.35 40.7L68.25 40.7L68.15 40.75L68.15 40.7L68.1 40.7L67.6 40.75L67.2 40.75L67.3 40.7L67.25 40.65L67.25 40.6L67.25 40.55L67.25 40.5L67.3 40.5L68 40.2L69.2 39.9L69.75 40L70.35 40L70.85 39.9L71.65 40.05L72.65 40.4L73.05 40.6L72.95 40.7L72.95 40.65L72.85 40.75L72.6 40.75L72.45 40.75L72.2 40.7L72.15 40.75L71.5 40.7L71.5 40.65" />
<radialGradient
id="RadialGradID_1903" gradientUnits="userSpaceOnUse" gradientTransform="matrix(0.000869751, -0.000106812, 7.62939e-005, 0.000320435, 70.65, 40.05)" spreadMethod ="pad" cx="0" cy="0" r="819.2" fx="0" fy="0" >
<stop  offset="0"  style="stop-color:#FFFFFF;stop-opacity:0.501961" />
<stop  offset="0.992157"  style="stop-color:#FDD7E3;stop-opacity:0" />
</radialGradient>
<path style="fill:url(#RadialGradID_1903) " d="M70.5,40L71.45 40.05L71.05 40.25L70.05 40.4L70 40.2L70.5 40" />
<path style="fill:#F1FCFB;fill-opacity:1" d="M71.35,40.65L70.9 40.75L70.85 40.65L71.15 40.65L71.25 40.65L71.35 40.65M69.9,40.65L70 40.65L70.8 40.7L69.25 40.7L68.7 40.7L69.3 40.6L69.9 40.65" />
<path style="fill:#FFFFFF;fill-opacity:1" d="M69.25,40.7L70.8 40.7L70 40.65L69.9 40.65L70.7 40.6L71.25 40.65L71.15 40.65L70.85 40.65L70.9 40.75L70.65 40.75L70.25 40.8L69.9 40.8L69.05 40.75L68.7 40.7L69.25 40.7" />
<path style="fill:#E7988F;fill-opacity:1" d="M71.35,40.65L71.95 40.75L71.1 41L69.9 41.1L68.7 40.9L68.3 40.7L68.65 40.7L68.7 40.7L69.05 40.75L69.9 40.8L70.25 40.8L70.65 40.75L70.9 40.75L71.35 40.65" />
<path style="fill:#A35332;fill-opacity:1" d="M67.7,40.7L68.6 40.6L69.1 40.5L69.55 40.5L70.4 40.5L70.8 40.45L71.5 40.55L71.7 40.55L72.8 40.6L73.05 40.45L73.2 40.5L73.25 40.65L72.95 40.7L72.6 40.75L72.4 40.8L71.75 41L70.75 41.15L69.7 41.2L68.6 41.05L67.9 40.85L67.65 40.75L67.4 40.75L67.05 40.7L66.95 40.55L67.05 40.45L67.2 40.5L67.25 40.55L67.65 40.7L67.7 40.7M71.25,40.65L70.7 40.6L69.9 40.65L69.3 40.6L68.7 40.7L68.65 40.7L68.3 40.7L68.7 40.9L69.9 41.1L71.1 41L71.95 40.75L71.35 40.65L71.25 40.65" />
</g>
</svg>
