<?xml version="1.0" encoding="utf-8"?>
<svg version="1.1" id="Layer_1"
xmlns="http://www.w3.org/2000/svg"
xmlns:xlink="http://www.w3.org/1999/xlink"
xmlns:author="http://www.sothink.com"
width="8px" height="5px"
xml:space="preserve">
<g id="185" transform="matrix(1, 0, 0, 1, -66.45, -39.9)">
<radialGradient
id="RadialGradID_1904" gradientUnits="userSpaceOnUse" gradientTransform="matrix(0.000106812, -0.00257874, -0.00532532, -0.000244141, 70.25, 42.65)" spreadMethod ="pad" cx="0" cy="0" r="819.2" fx="0" fy="0" >
<stop  offset="0"  style="stop-color:#F15E1F;stop-opacity:0.423529" />
<stop  offset="1"  style="stop-color:#FFEFEA;stop-opacity:0" />
</radialGradient>
<path style="fill:url(#RadialGradID_1904) " d="M72.7,41.7Q73.6 42.15 73.6 42.8Q73.55 43.5 72.6 43.9L70.15 44.3Q68.75 44.25 67.85 43.75Q66.9 43.2 66.95 42.55Q66.95 41.85 67.95 41.45Q68.95 41 70.35 41.05Q71.7 41.1 72.7 41.7" />
<radialGradient
id="RadialGradID_1905" gradientUnits="userSpaceOnUse" gradientTransform="matrix(0.00463867, 0, 0, 0.00463867, 70, 42.15)" spreadMethod ="pad" cx="0" cy="0" r="819.2" fx="0" fy="0" >
<stop  offset="0"  style="stop-color:#FBAEB6;stop-opacity:1" />
<stop  offset="1"  style="stop-color:#E04D0E;stop-opacity:0" />
</radialGradient>
<path style="fill:url(#RadialGradID_1905) " d="M72.55,40.6L71.45 40.45L71.05 40.45L70.15 40.75L70.1 40.75L69.7 40.7L69.35 40.55L69 40.45L67.55 40.65L67.5 40.65Q67 40.7 66.75 40.35L67.05 40.35L67.1 40.35L68 40.2L68.45 40.1Q69.3 39.8 69.85 40.1L70.2 40.2L70.75 40.05Q71.15 39.7 73.5 40.4L72.55 40.6" />
<radialGradient
id="RadialGradID_1906" gradientUnits="userSpaceOnUse" gradientTransform="matrix(0.00244141, 0, 0, 0.00244141, 70.3, 42.7)" spreadMethod ="pad" cx="0" cy="0" r="819.2" fx="0" fy="0" >
<stop  offset="0"  style="stop-color:#EDB692;stop-opacity:1" />
<stop  offset="1"  style="stop-color:#DD9888;stop-opacity:0" />
</radialGradient>
<path style="fill:url(#RadialGradID_1906) " d="M70.2,42.55L71.95 42.1Q71.4 42.85 70 42.85Q68.7 42.85 68.4 42.1Q68.8 42.55 70.2 42.55" />
<radialGradient
id="RadialGradID_1907" gradientUnits="userSpaceOnUse" gradientTransform="matrix(0.00436401, 0, 0, 0.00195313, 70.25, 40.9)" spreadMethod ="pad" cx="0" cy="0" r="819.2" fx="0" fy="0" >
<stop  offset="0.0705882"  style="stop-color:#F5BAAB;stop-opacity:1" />
<stop  offset="0.352941"  style="stop-color:#F4BBB5;stop-opacity:1" />
<stop  offset="1"  style="stop-color:#E04D0E;stop-opacity:0" />
</radialGradient>
<path style="fill:url(#RadialGradID_1907) " d="M73.2,40.95L72.15 41.9L70.2 42.4Q69.05 42.4 68.3 42Q67.65 41.6 67.2 40.95L68.35 40.8L69.45 40.95L70.2 41.05L70.7 40.9L71.15 40.75L72.1 40.8L73.2 40.95" />
<radialGradient
id="RadialGradID_1908" gradientUnits="userSpaceOnUse" gradientTransform="matrix(0.00512695, 0, 0, 0.00512695, 70.05, 40.6)" spreadMethod ="pad" cx="0" cy="0" r="819.2" fx="0" fy="0" >
<stop  offset="0.470588"  style="stop-color:#C16A46;stop-opacity:0.823529" />
<stop  offset="1"  style="stop-color:#330000;stop-opacity:0.4" />
</radialGradient>
<path style="fill:url(#RadialGradID_1908) " d="M72.1,40.8L71.15 40.75L70.7 40.9L70.2 41.05L69.45 40.95L68.35 40.8L67.2 40.95Q66.15 40.45 66.55 40.05L66.55 40.1L66.6 40.15L66.75 40.35Q67 40.7 67.5 40.65L67.55 40.65L69 40.45L69.35 40.55L69.7 40.7L70.1 40.75L70.15 40.75L71.05 40.45L71.45 40.45L72.55 40.6L73.5 40.4L73.7 40.25L73.8 40.15L73.8 40.1L73.85 40.15Q74.05 40.6 73.2 40.95L72.1 40.8" />
<radialGradient
id="RadialGradID_1909" gradientUnits="userSpaceOnUse" gradientTransform="matrix(0.00175476, 0.000350952, -7.62939e-005, 0.000366211, 69, 41.65)" spreadMethod ="pad" cx="0" cy="0" r="819.2" fx="0" fy="0" >
<stop  offset="0.313725"  style="stop-color:#FFFFFF;stop-opacity:0.4" />
<stop  offset="1"  style="stop-color:#FFFFFF;stop-opacity:0" />
</radialGradient>
<path style="fill:url(#RadialGradID_1909) " d="M70.4,42L69.95 42.15L68.9 42.05L67.9 41.75Q67.45 41.55 67.5 41.45L68 41.25L69.05 41.35L70.05 41.7L70.4 42" />
<radialGradient
id="RadialGradID_1910" gradientUnits="userSpaceOnUse" gradientTransform="matrix(0.000762939, -9.15527e-005, 0.000244141, 0.000305176, 71.1, 40.1)" spreadMethod ="pad" cx="0" cy="0" r="819.2" fx="0" fy="0" >
<stop  offset="0.313725"  style="stop-color:#FFFFFF;stop-opacity:0.282353" />
<stop  offset="1"  style="stop-color:#FFFFFF;stop-opacity:0" />
</radialGradient>
<path style="fill:url(#RadialGradID_1910) " d="M70.6,40.05L71 39.95L71.45 39.95L71.7 40.05L71.65 40.2L71.25 40.3L70.8 40.3L70.5 40.2L70.6 40.05" />
<radialGradient
id="RadialGradID_1911" gradientUnits="userSpaceOnUse" gradientTransform="matrix(0.000473022, 7.62939e-005, -6.10352e-005, 0.00038147, 71.1, 41.5)" spreadMethod ="pad" cx="0" cy="0" r="819.2" fx="0" fy="0" >
<stop  offset="0.313725"  style="stop-color:#FFFFFF;stop-opacity:0.662745" />
<stop  offset="1"  style="stop-color:#FFFFFF;stop-opacity:0" />
</radialGradient>
<path style="fill:url(#RadialGradID_1911) " d="M70.85,41.3L71.15 41.3L71.4 41.4L71.45 41.55L71.35 41.7L71.05 41.75L70.8 41.6L70.75 41.45L70.85 41.3" />
</g>
</svg>
