<?xml version="1.0" encoding="utf-8"?>
<svg version="1.1" id="Layer_1"
xmlns="http://www.w3.org/2000/svg"
xmlns:xlink="http://www.w3.org/1999/xlink"
xmlns:author="http://www.sothink.com"
width="6px" height="6px"
xml:space="preserve">
<g id="204" transform="matrix(1, 0, 0, 1, -67.9, -38.55)">
<radialGradient
id="RadialGradID_2041" gradientUnits="userSpaceOnUse" gradientTransform="matrix(0.0012207, 0.000167847, -0.000167847, 0.0012207, 69.95, 39.45)" spreadMethod ="pad" cx="0" cy="0" r="819.2" fx="0" fy="0" >
<stop  offset="0"  style="stop-color:#F15E1F;stop-opacity:0.423529" />
<stop  offset="1"  style="stop-color:#FFEFEA;stop-opacity:0" />
</radialGradient>
<path style="fill:url(#RadialGradID_2041) " d="M70.25,39.65L69.85 39.4L69.8 39.05L70.05 38.55Q70.1 39 70.8 38.95Q70.6 39.75 70.25 39.65" />
<radialGradient
id="RadialGradID_2042" gradientUnits="userSpaceOnUse" gradientTransform="matrix(0, 0.00299072, -0.00408936, 0, 70.6, 41.4)" spreadMethod ="pad" cx="0" cy="0" r="819.2" fx="0" fy="0" >
<stop  offset="0"  style="stop-color:#F15E1F;stop-opacity:0.423529" />
<stop  offset="1"  style="stop-color:#FFEFEA;stop-opacity:0" />
</radialGradient>
<path style="fill:url(#RadialGradID_2042) " d="M69.6,41.6L70.25 41.3L70.9 41.45Q71.45 41.7 72.05 42.1L73.1 42.95Q72.2 43.7 69.35 43.7Q68 43.7 67.9 42.9L68.55 42.2L68.9 41.95L69.6 41.6" />
<path style="fill:#7B4833;fill-opacity:1" d="M70.35,40.75Q69.95 40.8 69.45 41.2L68.5 42.05L68.45 42.05L68.4 42.15L68.5 41.85L69.15 41.05Q69.85 40.35 70.4 40.4Q70.95 40.4 71.6 41.15L72.15 41.85L72.25 42.15L71.6 41.6Q70.6 40.65 70.35 40.75" />
<radialGradient
id="RadialGradID_2043" gradientUnits="userSpaceOnUse" gradientTransform="matrix(0.00143433, 0, 0, 0.00143433, 70.3, 40.8)" spreadMethod ="pad" cx="0" cy="0" r="819.2" fx="0" fy="0" >
<stop  offset="0"  style="stop-color:#FFFFFF;stop-opacity:0.513725" />
<stop  offset="1"  style="stop-color:#FFEFEA;stop-opacity:0" />
</radialGradient>
<path style="fill:url(#RadialGradID_2043) " d="M68.5,42.05L69.45 41.2Q69.95 40.8 70.35 40.75Q70.6 40.65 71.6 41.6L70.35 41.2Q69.9 41.2 68.5 42.05" />
</g>
</svg>
