<?xml version="1.0" encoding="utf-8"?>
<svg version="1.1" id="Layer_1"
xmlns="http://www.w3.org/2000/svg"
xmlns:xlink="http://www.w3.org/1999/xlink"
xmlns:author="http://www.sothink.com"
width="8px" height="7px"
xml:space="preserve">
<g id="192" transform="matrix(1, 0, 0, 1, 3.8, 3.4)">
<radialGradient
id="RadialGradID_1953" gradientUnits="userSpaceOnUse" gradientTransform="matrix(0.0012207, 0.000167847, -0.000167847, 0.0012207, -0.45, -2.5)" spreadMethod ="pad" cx="0" cy="0" r="819.2" fx="0" fy="0" >
<stop  offset="0"  style="stop-color:#F15E1F;stop-opacity:0.423529" />
<stop  offset="1"  style="stop-color:#FFEFEA;stop-opacity:0" />
</radialGradient>
<path style="fill:url(#RadialGradID_1953) " d="M-0.15,-2.3L-0.55 -2.55L-0.6 -2.9L-0.35 -3.4Q-0.3 -2.95 0.4 -3Q0.2 -2.2 -0.15 -2.3" />
<radialGradient
id="RadialGradID_1954" gradientUnits="userSpaceOnUse" gradientTransform="matrix(0, 0.00219727, -0.00332642, 0, -0.1, 1.65)" spreadMethod ="pad" cx="0" cy="0" r="819.2" fx="0" fy="0" >
<stop  offset="0"  style="stop-color:#F15E1F;stop-opacity:0.423529" />
<stop  offset="1"  style="stop-color:#FFEFEA;stop-opacity:0" />
</radialGradient>
<path style="fill:url(#RadialGradID_1954) " d="M0.4,1.8L2.7 1.15Q1.55 3.4 -0.2 3.4Q-2.45 3.4 -2.45 1.75L-2.3 1.15L-1.6 1.4L-0.4 1.8L0.4 1.8" />
<path style="fill:#FFFFFF;fill-opacity:1" d="M-0.75,-0.55L-1.25 -0.5L-1.7 -0.45L-2.05 -0.8L-2.1 -0.8L-2.45 -0.55L-2.6 -0.55L-2.25 -0.3L-2.15 0.1Q-2.65 -0.25 -3 -1.05L-2.7 -1.1L-0.65 -0.95L-0.75 -0.55M0.6,-0.45L0.2 -0.45L-0.5 -0.5L-0.55 -0.7L-0.55 -0.95L0 -0.9L0.6 -0.9L0.6 -0.45M-2.45,0.05L-2.4 0.05L-2.4 0.1L-2.45 0.05M-2.1,0.35L-2.1 0.3L-2.05 0.35L-2.1 0.35M-1.9,0.2L-2.05 0.15L-2.05 -0.4L-1.8 -0.4L-0.85 -0.4L-0.8 0.55L-1.9 0.2M-0.15,0.7L-0.45 0.6L-0.7 0.55L-0.7 0.15L-0.5 -0.3L0.1 -0.3L0.4 -0.15L0.45 0.5L-0.15 0.7M0.6,0.45L0.6 0.15L0.6 -0.25L1.95 -0.35L2 -0.05Q1.65 0.55 0.6 0.45M2.7,-0.35L2.1 -0.1L2.1 -0.2Q2.15 -0.4 2.85 -0.55L2.7 -0.35M3.2,-1.1L3 -0.8L2.1 -0.45Q1.95 -0.45 1.95 -0.7L1.85 -1L2.9 -1.2L3.2 -1.1M1.8,-1L1.75 -0.45L1 -0.4L0.7 -0.45L0.65 -0.9L1.8 -1" />
<radialGradient
id="RadialGradID_1955" gradientUnits="userSpaceOnUse" gradientTransform="matrix(0.00680542, -0.000167847, 0.000137329, 0.00645447, -0.2, -0.25)" spreadMethod ="pad" cx="0" cy="0" r="819.2" fx="210534" fy="0" >
<stop  offset="0.113725"  style="stop-color:#A24222;stop-opacity:0.792157" />
<stop  offset="1"  style="stop-color:#F7613C;stop-opacity:0.243137" />
</radialGradient>
<path style="fill:url(#RadialGradID_1955) " d="M-3.65,-1.8L-0.1 -1.4L2.1 -1.55L3.5 -1.95L3.8 -1.95L3.8 -1.65L3.8 -1.6L3.45 -1.05L3.4 -0.9L3.35 -0.8L3.2 -0.65L3.1 -0.5L3.05 -0.45L2.3 0.4L2.25 0.4Q1.3 1.2 0.4 1.25L-1.25 1.05L-2.6 0.2L-2.75 0L-3.1 -0.35Q-3.9 -1.3 -3.8 -1.7L-3.8 -1.75L-3.75 -1.8L-3.65 -1.8M2.85,-0.55L3 -0.8L3.2 -1.1L3.6 -1.7L3.6 -1.75L2.15 -1.35L1.85 -1.3L0.6 -1.2L-0.1 -1.2L-3.15 -1.45L-3.6 -1.55L-3.25 -0.9L-3.2 -0.8L-3.15 -0.8L-2.95 -0.55L-2.4 0.05L-2.45 0.05L-2.4 0.1L-2.1 0.35L-1.15 0.85L0.4 1.05L0.45 1.05Q1.2 0.95 2 0.35L2.1 0.25L2.1 0.2L2.7 -0.35L2.85 -0.55" />
<path style="fill:#BBBBBB;fill-opacity:1" d="M-3.2,-0.85L-3.2 -0.8L-3.25 -0.9L-3.6 -1.55L-3.15 -1.45L-0.1 -1.2L0.6 -1.2L0.6 -0.9L0 -0.9L-0.55 -0.95L-0.6 -1.1L-0.65 -0.95L-2.7 -1.1L-3 -1.05L-3.2 -0.85M0.65,-0.9L0.6 -1.2L1.85 -1.3L2.15 -1.35L3.6 -1.75L3.6 -1.7L3.2 -1.1L2.9 -1.2L1.85 -1L1.85 -1.05L1.85 -1.3L1.8 -1L0.65 -0.9" />
<path style="fill:#DDDDDD;fill-opacity:1" d="M-2.1,0.3L-2.1 0.35L-2.4 0.1L-2.4 0.05L-2.95 -0.55L-3.15 -0.8L-3.2 -0.8L-3.2 -0.85L-3 -1.05Q-2.65 -0.25 -2.15 0.1L-2.1 0.3M2,-0.05L2 0L1.95 0.25L2.1 -0.1L2.7 -0.35L2.1 0.2L2.1 0.25L2 0.35Q1.2 0.95 0.45 1.05L0.4 1.05L-1.15 0.85L-2.1 0.35L-2.05 0.35L-2.05 0.15L-1.9 0.2L-0.8 0.55Q-0.8 1.1 -0.75 0.6L-0.7 0.6L-0.7 0.55L-0.45 0.6L-0.15 0.7L0.45 0.5L0.45 1L0.6 0.45Q1.65 0.55 2 -0.05" />
<path style="fill:#CECED2;fill-opacity:1" d="M0.6,-0.9L0.6 -1.2L0.65 -0.9L0.7 -0.45L1 -0.4L1.75 -0.45L1.8 -1L1.85 -1.3L1.85 -1.05L1.85 -1L1.95 -0.7Q1.95 -0.45 2.1 -0.45L3 -0.8L2.85 -0.55Q2.15 -0.4 2.1 -0.2L2.1 -0.1L1.95 0.25L2 0L2 -0.05L1.95 -0.35L0.6 -0.25L0.6 0.15L0.6 0.45L0.45 1L0.45 0.5L0.4 -0.15L0.1 -0.3L-0.5 -0.3L-0.7 0.15L-0.7 0.55L-0.7 0.6L-0.75 0.6Q-0.8 1.1 -0.8 0.55L-0.85 -0.4L-1.8 -0.4L-2.05 -0.4L-2.05 0.15L-2.05 0.35L-2.1 0.3L-2.15 0.1L-2.25 -0.3L-2.6 -0.55L-2.45 -0.55L-2.1 -0.8L-2.05 -0.8L-1.7 -0.45L-1.25 -0.5L-0.75 -0.55L-0.65 -0.95L-0.6 -1.1L-0.55 -0.95L-0.55 -0.7L-0.5 -0.5L0.2 -0.45L0.6 -0.45L0.6 -0.9" />
</g>
</svg>
