<?xml version="1.0" encoding="utf-8"?>
<svg version="1.1" id="Layer_1"
xmlns="http://www.w3.org/2000/svg"
xmlns:xlink="http://www.w3.org/1999/xlink"
xmlns:author="http://www.sothink.com"
width="9px" height="7px"
xml:space="preserve">
<g id="202" transform="matrix(1, 0, 0, 1, 4.2, 3.2)">
<radialGradient
id="RadialGradID_2033" gradientUnits="userSpaceOnUse" gradientTransform="matrix(0.000518799, -0.00283813, -0.00637817, -0.00114441, -0.25, 1.2)" spreadMethod ="pad" cx="0" cy="0" r="819.2" fx="0" fy="0" >
<stop  offset="0"  style="stop-color:#F15E1F;stop-opacity:0.423529" />
<stop  offset="1"  style="stop-color:#FFEFEA;stop-opacity:0" />
</radialGradient>
<path style="fill:url(#RadialGradID_2033) " d="M2.9,0.6Q3.9 1.2 3.75 1.95Q3.6 2.7 2.4 3.05Q1.05 3.35 -0.6 3.05L-3.2 2.05Q-4.35 1.25 -4.2 0.5Q-4.05 -0.25 -2.75 -0.45L0.1 -0.5Q1.75 -0.2 2.9 0.6" />
<radialGradient
id="RadialGradID_2034" gradientUnits="userSpaceOnUse" gradientTransform="matrix(0.0045929, 0, 0, 0.00428772, 0.25, -0.35)" spreadMethod ="pad" cx="0" cy="0" r="819.2" fx="210518" fy="0" >
<stop  offset="0.776471"  style="stop-color:#C16A46;stop-opacity:1" />
<stop  offset="1"  style="stop-color:#C16A46;stop-opacity:0.0235294" />
</radialGradient>
<path style="fill:url(#RadialGradID_2034) " d="M3.55,0.2L3.7 0.85Q3.7 1.65 2.3 1.65L-0.75 0.95Q-3.35 0.65 -3.35 -0.1Q-3.35 -1 -2 -1L-0.05 -0.65L2.2 -0.3Q3.25 -0.2 3.55 0.2M0.75,-0.15L-2.6 -0.8L-3 -0.5L-3.1 -0.15L-2.7 0.4L-2.1 0.45L-1.35 0.55L-0.5 0.65L2.35 1.25Q3.3 1.25 3.3 0.6Q3.3 0.05 0.75 -0.15" />
<radialGradient
id="RadialGradID_2035" gradientUnits="userSpaceOnUse" gradientTransform="matrix(0.00563049, 0, 0, 0.00559998, 0.55, 0.2)" spreadMethod ="pad" cx="0" cy="0" r="819.2" fx="0" fy="0" >
<stop  offset="0.227451"  style="stop-color:#532C1C;stop-opacity:1" />
<stop  offset="1"  style="stop-color:#9F5535;stop-opacity:1" />
</radialGradient>
<path style="fill:url(#RadialGradID_2035) " d="M3.3,0.6Q3.3 1.25 2.35 1.25L-0.5 0.65L-1.35 0.55L-2.1 0.45L-2.7 0.4L-3.1 -0.15L-3 -0.5L-2.6 -0.8L0.75 -0.15Q3.3 0.05 3.3 0.6" />
<radialGradient
id="RadialGradID_2036" gradientUnits="userSpaceOnUse" gradientTransform="matrix(0.000518799, -0.00283813, -0.00637817, -0.00114441, 0.25, -0.55)" spreadMethod ="pad" cx="0" cy="0" r="819.2" fx="0" fy="0" >
<stop  offset="0"  style="stop-color:#F15E1F;stop-opacity:0.423529" />
<stop  offset="1"  style="stop-color:#FFEFEA;stop-opacity:0" />
</radialGradient>
<path style="fill:url(#RadialGradID_2036) " d="M3.4,-1.15Q4.4 -0.55 4.25 0.2Q4.1 0.95 2.9 1.3Q1.55 1.6 -0.1 1.3Q-1.7 0.95 -2.7 0.3Q-3.85 -0.5 -3.7 -1.25Q-3.55 -2 -2.25 -2.2L0.6 -2.25Q2.25 -1.95 3.4 -1.15" />
<radialGradient
id="RadialGradID_2037" gradientUnits="userSpaceOnUse" gradientTransform="matrix(0.00134277, 0.000198364, -0.000198364, 0.00132751, 0.15, -2.2)" spreadMethod ="pad" cx="0" cy="0" r="819.2" fx="0" fy="0" >
<stop  offset="0"  style="stop-color:#F15E1F;stop-opacity:0.423529" />
<stop  offset="1"  style="stop-color:#FFEFEA;stop-opacity:0" />
</radialGradient>
<path style="fill:url(#RadialGradID_2037) " d="M0.2,-3.2Q0.3 -2.7 1.05 -2.8Q0.85 -1.9 0.45 -2.05L0 -2.3L-0.05 -2.7L0.2 -3.2" />
</g>
</svg>
