<?xml version="1.0" encoding="utf-8"?>
<svg version="1.1" id="Layer_1"
xmlns="http://www.w3.org/2000/svg"
xmlns:xlink="http://www.w3.org/1999/xlink"
xmlns:author="http://www.sothink.com"
width="9px" height="7px"
xml:space="preserve">
<g id="188" transform="matrix(1, 0, 0, 1, 4.25, 3.05)">
<radialGradient
id="RadialGradID_1926" gradientUnits="userSpaceOnUse" gradientTransform="matrix(0.0012207, 0.000167847, -0.000167847, 0.0012207, -0.5, -2.15)" spreadMethod ="pad" cx="0" cy="0" r="819.2" fx="0" fy="0" >
<stop  offset="0"  style="stop-color:#F15E1F;stop-opacity:0.423529" />
<stop  offset="1"  style="stop-color:#FFEFEA;stop-opacity:0" />
</radialGradient>
<path style="fill:url(#RadialGradID_1926) " d="M-0.2,-1.95Q-0.6 -2.1 -0.6 -2.2L-0.65 -2.55L-0.4 -3.05Q-0.35 -2.6 0.35 -2.65Q0.15 -1.85 -0.2 -1.95" />
<radialGradient
id="RadialGradID_1927" gradientUnits="userSpaceOnUse" gradientTransform="matrix(7.62939e-005, -0.00259399, -0.00534058, -0.000198364, -0.2, 1)" spreadMethod ="pad" cx="0" cy="0" r="819.2" fx="0" fy="0" >
<stop  offset="0"  style="stop-color:#F15E1F;stop-opacity:0.423529" />
<stop  offset="1"  style="stop-color:#FFEFEA;stop-opacity:0" />
</radialGradient>
<path style="fill:url(#RadialGradID_1927) " d="M2.3,0.05Q3.2 0.5 3.15 1.2Q3.1 1.85 2.2 2.3L-0.25 2.7Q-1.65 2.65 -2.55 2.15Q-3.55 1.6 -3.5 0.95Q-3.5 0.25 -2.45 -0.15L-0.1 -0.55L2.3 0.05" />
<radialGradient
id="RadialGradID_1928" gradientUnits="userSpaceOnUse" gradientTransform="matrix(0.0012207, 0.000167847, -0.000167847, 0.0012207, -0.5, -2.15)" spreadMethod ="pad" cx="0" cy="0" r="819.2" fx="0" fy="0" >
<stop  offset="0"  style="stop-color:#F15E1F;stop-opacity:0.423529" />
<stop  offset="1"  style="stop-color:#FFEFEA;stop-opacity:0" />
</radialGradient>
<path style="fill:url(#RadialGradID_1928) " d="M-0.2,-1.95Q-0.6 -2.1 -0.6 -2.2L-0.65 -2.55L-0.4 -3.05Q-0.35 -2.6 0.35 -2.65Q0.15 -1.85 -0.2 -1.95" />
<path style="fill:#C16A46;fill-opacity:1" d="M4.15,-0.05L4.3 -0.05L4.15 0.15L4 0.15L3.4 0.15Q2.55 0 1.05 -0.6L-0.5 -0.4L-1.45 -0.6Q-2 -0.65 -2.85 -0.15L-3.95 0.25L-4.25 0.15L-4.2 0.15Q-3.4 -0.05 -1.9 -0.9L-0.35 -0.7Q0.35 -0.7 0.8 -1L2.6 -0.45L4 -0.05L4.15 -0.05" />
<radialGradient
id="RadialGradID_1929" gradientUnits="userSpaceOnUse" gradientTransform="matrix(-0.000595093, -0.00514221, 0.00654602, -0.000762939, -0.3, -1.4)" spreadMethod ="pad" cx="0" cy="0" r="819.2" fx="6" fy="0" >
<stop  offset="0.568627"  style="stop-color:#ED9B79;stop-opacity:1" />
<stop  offset="1"  style="stop-color:#FFCFBB;stop-opacity:0" />
</radialGradient>
<path style="fill:url(#RadialGradID_1929) " d="M2,0.95L-0.1 0.65L-2.3 1.05Q-2.9 1.15 -4.25 0.15L-3.95 0.25L-2.85 -0.15Q-2 -0.65 -1.45 -0.6L-0.5 -0.4L1.05 -0.6Q2.55 0 3.4 0.15L4 0.15Q3.3 0.95 2 0.95" />
<radialGradient
id="RadialGradID_1930" gradientUnits="userSpaceOnUse" gradientTransform="matrix(-0.00038147, -0.00448608, 0.00556946, -0.000488281, -0.1, 0.35)" spreadMethod ="pad" cx="0" cy="0" r="819.2" fx="6" fy="0" >
<stop  offset="0.568627"  style="stop-color:#ED9B79;stop-opacity:1" />
<stop  offset="1"  style="stop-color:#FFFFFF;stop-opacity:0.192157" />
</radialGradient>
<path style="fill:url(#RadialGradID_1930) " d="M-2.85,-1.35Q-2.3 -1.85 -1.35 -1.85L-0.25 -1.6L1.55 -1.95Q2.8 -1.55 4 -0.05L2.6 -0.45L0.8 -1Q0.35 -0.7 -0.35 -0.7L-1.9 -0.9Q-3.4 -0.05 -4.2 0.15L-2.85 -1.35" />
<radialGradient
id="RadialGradID_1931" gradientUnits="userSpaceOnUse" gradientTransform="matrix(0.0015564, -0.000106812, 1.52588e-005, 0.000320435, -1.3, 0.35)" spreadMethod ="pad" cx="0" cy="0" r="819.2" fx="0" fy="0" >
<stop  offset="0.313725"  style="stop-color:#FFFFFF;stop-opacity:0.662745" />
<stop  offset="1"  style="stop-color:#FFFFFF;stop-opacity:0" />
</radialGradient>
<path style="fill:url(#RadialGradID_1931) " d="M-0.05,0.3L-0.4 0.5L-1.35 0.7L-2.25 0.65L-2.65 0.5Q-2.65 0.4 -2.25 0.25L-1.35 0.1L-0.4 0.1Q-0.05 0.2 -0.05 0.3" />
<radialGradient
id="RadialGradID_1932" gradientUnits="userSpaceOnUse" gradientTransform="matrix(0.000701904, -0.00012207, 0.000228882, 0.00038147, 1.8, -1.1)" spreadMethod ="pad" cx="0" cy="0" r="819.2" fx="0" fy="0" >
<stop  offset="0.313725"  style="stop-color:#FFFFFF;stop-opacity:0.282353" />
<stop  offset="1"  style="stop-color:#FFFFFF;stop-opacity:0" />
</radialGradient>
<path style="fill:url(#RadialGradID_1932) " d="M1.9,-0.9L1.5 -0.85L1.2 -1L1.3 -1.2L1.6 -1.35L2.1 -1.3L2.3 -1.2L2.25 -1L1.9 -0.9" />
<radialGradient
id="RadialGradID_1933" gradientUnits="userSpaceOnUse" gradientTransform="matrix(0.000427246, 7.62939e-005, -6.10352e-005, 0.000350952, 1.75, 0.1)" spreadMethod ="pad" cx="0" cy="0" r="819.2" fx="0" fy="0" >
<stop  offset="0.313725"  style="stop-color:#FFFFFF;stop-opacity:0.662745" />
<stop  offset="1"  style="stop-color:#FFFFFF;stop-opacity:0" />
</radialGradient>
<path style="fill:url(#RadialGradID_1933) " d="M1.5,-0.05L1.8 -0.1L2 0L2.1 0.15L1.95 0.3L1.7 0.35L1.45 0.25L1.4 0.05L1.5 -0.05" />
<radialGradient
id="RadialGradID_1934" gradientUnits="userSpaceOnUse" gradientTransform="matrix(7.62939e-005, -0.00259399, -0.00534058, -0.000198364, -0.2, 1.4)" spreadMethod ="pad" cx="0" cy="0" r="819.2" fx="0" fy="0" >
<stop  offset="0"  style="stop-color:#A8390B;stop-opacity:0.141176" />
<stop  offset="1"  style="stop-color:#FFEFEA;stop-opacity:0" />
</radialGradient>
<path style="fill:url(#RadialGradID_1934) " d="M2.3,0.45Q3.2 0.9 3.15 1.6Q3.1 2.25 2.2 2.7L-0.25 3.1Q-1.65 3.05 -2.55 2.55Q-3.55 2 -3.5 1.35Q-3.5 0.65 -2.45 0.25L-0.1 -0.15Q1.25 -0.1 2.3 0.45" />
</g>
</svg>
