<?xml version="1.0" encoding="utf-8"?>
<svg version="1.1" id="Layer_1"
xmlns="http://www.w3.org/2000/svg"
xmlns:xlink="http://www.w3.org/1999/xlink"
xmlns:author="http://www.sothink.com"
width="7px" height="5px"
xml:space="preserve">
<g id="197" transform="matrix(1, 0, 0, 1, 3.25, 2.45)">
<radialGradient
id="RadialGradID_1987" gradientUnits="userSpaceOnUse" gradientTransform="matrix(9.15527e-005, -0.00178528, -0.00413513, -0.000167847, -0.05, 1.25)" spreadMethod ="pad" cx="0" cy="0" r="819.2" fx="0" fy="0" >
<stop  offset="0"  style="stop-color:#F15E1F;stop-opacity:0.423529" />
<stop  offset="1"  style="stop-color:#FFEFEA;stop-opacity:0" />
</radialGradient>
<path style="fill:url(#RadialGradID_1987) " d="M1.85,0.6Q2.55 0.95 2.5 1.4Q2.5 1.85 1.75 2.2L-0.15 2.45L-1.9 2.05Q-2.7 1.65 -2.65 1.2Q-2.65 0.75 -1.8 0.45L0 0.2L1.85 0.6" />
<path style="fill:#E37143;fill-opacity:1" d="M2.05,-0.3L1.3 -0.4L1.15 -0.4L1.2 -0.4L1.05 -0.4L0.6 -0.25L0.1 -0.05L-0.2 -0.05L-0.35 -0.05Q-0.75 -0.15 -1 -0.4L-1.35 -0.45L-1.5 -0.45L-2.55 -0.45L-2.85 -0.35L-2.95 -0.35L-3 -0.35L-3.25 -0.55L-3.2 -0.65L-3.15 -0.65L-2.15 -0.5L-1.15 -0.6L-0.4 -0.4L-0.3 -0.4L0.3 -0.5L0.85 -0.6L1.3 -0.55L1.5 -0.5L2.25 -0.4L2.7 -0.45L2.85 -0.5L2.9 -0.5L2.85 -0.5L2.9 -0.55L3.05 -0.6L3.1 -0.65L3.3 -0.5L3.15 -0.35L3 -0.4L2.95 -0.4L2.9 -0.4L2.85 -0.4L2.75 -0.35L2.05 -0.3" />
<path style="fill:#FCB89C;fill-opacity:1" d="M2,0.95Q1.5 1.5 0.7 1.45L-0.75 1.5Q-1.5 1.5 -1.9 1.05L-0.8 1.3L-0.65 1.3L-0.6 1.25L-0.3 1.25L0 1.25L0.15 1.3L0.4 1.3L0.6 1.3L2 0.95" />
<radialGradient
id="RadialGradID_1988" gradientUnits="userSpaceOnUse" gradientTransform="matrix(0.00698853, 0, 0, 0.00343323, -0.1, -0.25)" spreadMethod ="pad" cx="0" cy="0" r="819.2" fx="28" fy="0" >
<stop  offset="0"  style="stop-color:#FB7D48;stop-opacity:1" />
<stop  offset="1"  style="stop-color:#FFDEC2;stop-opacity:0.121569" />
</radialGradient>
<path style="fill:url(#RadialGradID_1988) " d="M2.7,-0.45L2.25 -0.4L1.5 -0.5L1.3 -0.55L0.85 -0.6L0.3 -0.5L-0.3 -0.4L-0.4 -0.4L-1.15 -0.6L-2.15 -0.5L-3.15 -0.65L-3 -0.65Q-2.8 -0.65 -2.15 -1.15L-0.95 -1.65L-0.3 -1.5L-0.05 -1.4L0.15 -1.4L0.75 -1.55L1.85 -1.3L2.85 -0.5L2.7 -0.45" />
<radialGradient
id="RadialGradID_1989" gradientUnits="userSpaceOnUse" gradientTransform="matrix(0.00880432, 0, 0, 0.00350952, 0.15, -0.9)" spreadMethod ="pad" cx="0" cy="0" r="819.2" fx="0" fy="0" >
<stop  offset="0"  style="stop-color:#FB7D48;stop-opacity:1" />
<stop  offset="1"  style="stop-color:#FFDEC2;stop-opacity:0.121569" />
</radialGradient>
<path style="fill:url(#RadialGradID_1989) " d="M0.6,1.3L0.4 1.3L0.15 1.3L0 1.25L-0.3 1.25L-0.6 1.25L-0.65 1.3L-0.8 1.3L-1.9 1.05L-2.25 0.8Q-2.7 0.4 -2.85 -0.35L-2.55 -0.45L-1.5 -0.45L-1.35 -0.45L-1 -0.4Q-0.75 -0.15 -0.35 -0.05L-0.2 -0.05L0.1 -0.05L0.6 -0.25L1.05 -0.4L1.2 -0.4L1.15 -0.4L1.3 -0.4L2.05 -0.3L2.75 -0.35L2.9 -0.4L2.95 -0.4L2.75 0.15L2.7 0.35L2.6 0.5L2 0.95L0.6 1.3" />
<radialGradient
id="RadialGradID_1990" gradientUnits="userSpaceOnUse" gradientTransform="matrix(0.00540161, 0, 0, 0.00343323, -0.3, -0.25)" spreadMethod ="pad" cx="0" cy="0" r="819.2" fx="0" fy="0" >
<stop  offset="0.447059"  style="stop-color:#B15F56;stop-opacity:0.792157" />
<stop  offset="1"  style="stop-color:#FEDEC1;stop-opacity:0" />
</radialGradient>
<path style="fill:url(#RadialGradID_1990) " d="M2.9,-0.5L2.85 -0.5L2.9 -0.5" />
<radialGradient
id="RadialGradID_1991" gradientUnits="userSpaceOnUse" gradientTransform="matrix(0.00115967, 0.000152588, -0.000183105, 0.0010376, -0.15, -1.65)" spreadMethod ="pad" cx="0" cy="0" r="819.2" fx="0" fy="0" >
<stop  offset="0"  style="stop-color:#F15E1F;stop-opacity:0.423529" />
<stop  offset="1"  style="stop-color:#FFEFEA;stop-opacity:0" />
</radialGradient>
<path style="fill:url(#RadialGradID_1991) " d="M0.1,-1.55L-0.25 -1.75L-0.3 -2.05L-0.1 -2.45Q0 -2.05 0.7 -2.15Q0.5 -1.45 0.1 -1.55" />
<radialGradient
id="RadialGradID_1992" gradientUnits="userSpaceOnUse" gradientTransform="matrix(0.00166321, 0.000305176, -7.62939e-005, 0.000320435, -0.75, 0.5)" spreadMethod ="pad" cx="0" cy="0" r="819.2" fx="0" fy="0" >
<stop  offset="0.313725"  style="stop-color:#FFFFFF;stop-opacity:0.662745" />
<stop  offset="1"  style="stop-color:#FFFFFF;stop-opacity:0" />
</radialGradient>
<path style="fill:url(#RadialGradID_1992) " d="M0.55,0.8L0.1 0.95L-0.95 0.85L-1.85 0.6L-2.2 0.3L-1.75 0.15L-0.8 0.2Q-0.2 0.3 0.2 0.5Q0.55 0.65 0.55 0.8" />
<radialGradient
id="RadialGradID_1993" gradientUnits="userSpaceOnUse" gradientTransform="matrix(0.000823975, -0.00012207, 0.000259399, 0.000396729, 1.15, -0.95)" spreadMethod ="pad" cx="0" cy="0" r="819.2" fx="0" fy="0" >
<stop  offset="0.313725"  style="stop-color:#FFFFFF;stop-opacity:0.282353" />
<stop  offset="1"  style="stop-color:#FFFFFF;stop-opacity:0" />
</radialGradient>
<path style="fill:url(#RadialGradID_1993) " d="M1.3,-0.7L0.8 -0.75L0.55 -0.85L0.6 -1.05L1 -1.2L1.5 -1.2L1.85 -1.05L1.75 -0.85L1.3 -0.7" />
<radialGradient
id="RadialGradID_1994" gradientUnits="userSpaceOnUse" gradientTransform="matrix(0.00050354, 7.62939e-005, -7.62939e-005, 0.000366211, 1.2, 0.35)" spreadMethod ="pad" cx="0" cy="0" r="819.2" fx="0" fy="0" >
<stop  offset="0.313725"  style="stop-color:#FFFFFF;stop-opacity:0.662745" />
<stop  offset="1"  style="stop-color:#FFFFFF;stop-opacity:0" />
</radialGradient>
<path style="fill:url(#RadialGradID_1994) " d="M0.9,0.15L1.2 0.15L1.45 0.2L1.6 0.4L1.4 0.5L1.15 0.55L0.85 0.45L0.8 0.25L0.9 0.15" />
</g>
</svg>
