<?xml version="1.0" encoding="utf-8"?>
<svg version="1.1" id="Layer_1"
xmlns="http://www.w3.org/2000/svg"
xmlns:xlink="http://www.w3.org/1999/xlink"
xmlns:author="http://www.sothink.com"
width="7px" height="5px"
xml:space="preserve">
<g id="200" transform="matrix(1, 0, 0, 1, 3.4, 2.1)">
<radialGradient
id="RadialGradID_2013" gradientUnits="userSpaceOnUse" gradientTransform="matrix(0.00111389, 0.000152588, -0.000183105, 0.000930786, -0.15, -1.45)" spreadMethod ="pad" cx="0" cy="0" r="819.2" fx="0" fy="0" >
<stop  offset="0"  style="stop-color:#F15E1F;stop-opacity:0.423529" />
<stop  offset="1"  style="stop-color:#FFEFEA;stop-opacity:0" />
</radialGradient>
<path style="fill:url(#RadialGradID_2013) " d="M0.15,-1.3L-0.25 -1.5L-0.3 -1.75L-0.05 -2.1Q0 -1.75 0.7 -1.8Q0.45 -1.2 0.15 -1.3" />
<radialGradient
id="RadialGradID_2014" gradientUnits="userSpaceOnUse" gradientTransform="matrix(0.00408936, 0, 0, 0.00456238, 0.1, -0.8)" spreadMethod ="pad" cx="0" cy="0" r="819.2" fx="0" fy="0" >
<stop  offset="0.0352941"  style="stop-color:#EEA080;stop-opacity:0.862745" />
<stop  offset="0.705882"  style="stop-color:#F1AE93;stop-opacity:0.341176" />
<stop  offset="1"  style="stop-color:#F1AE93;stop-opacity:0.113725" />
</radialGradient>
<path style="fill:url(#RadialGradID_2014) " d="M1.45,-0.65L2.9 -0.65L3.15 -0.6L3.2 -0.6L1.9 0.7L1.15 0.8L-0.1 0.8L-0.55 0.8L-1.95 0.5L-3.15 -0.75L-3.05 -0.7L-3.25 -0.9L-2.65 -0.95L-1.35 -1.25L-0.55 -1.15Q-0.3 -0.9 0.05 -0.85L0.55 -0.9L1 -1.15L3.35 -0.9L3.35 -0.75L3.25 -0.7L2.35 -0.8L1.45 -0.65" />
<radialGradient
id="RadialGradID_2015" gradientUnits="userSpaceOnUse" gradientTransform="matrix(0.000106812, -0.00198364, -0.00491333, -0.000198364, 0, 0.8)" spreadMethod ="pad" cx="0" cy="0" r="819.2" fx="0" fy="0" >
<stop  offset="0"  style="stop-color:#EF5F21;stop-opacity:0.423529" />
<stop  offset="1"  style="stop-color:#FFEFEA;stop-opacity:0" />
</radialGradient>
<path style="fill:url(#RadialGradID_2015) " d="M-2.1,1.7Q-3.05 1.25 -3 0.8Q-3 0.25 -2 -0.05L0.1 -0.35L2.3 0.1Q3.15 0.45 3.1 1Q3.05 1.5 2.2 1.85L0 2.15L-2.1 1.7" />
<radialGradient
id="RadialGradID_2016" gradientUnits="userSpaceOnUse" gradientTransform="matrix(0.000701904, -9.15527e-005, 0.000213623, 0.000320435, 1.4, -1.1)" spreadMethod ="pad" cx="0" cy="0" r="819.2" fx="0" fy="0" >
<stop  offset="0.313725"  style="stop-color:#FFFFFF;stop-opacity:0.282353" />
<stop  offset="1"  style="stop-color:#FFFFFF;stop-opacity:0" />
</radialGradient>
<path style="fill:url(#RadialGradID_2016) " d="M0.85,-1L0.95 -1.15L1.3 -1.25L1.75 -1.25L2 -1.15L1.9 -1L1.55 -0.85L1.15 -0.85L0.85 -1" />
<radialGradient
id="RadialGradID_2017" gradientUnits="userSpaceOnUse" gradientTransform="matrix(0.000427246, 6.10352e-005, -6.10352e-005, 0.000289917, -0.5, 0.05)" spreadMethod ="pad" cx="0" cy="0" r="819.2" fx="0" fy="0" >
<stop  offset="0.313725"  style="stop-color:#FFFFFF;stop-opacity:0.662745" />
<stop  offset="1"  style="stop-color:#FFFFFF;stop-opacity:0" />
</radialGradient>
<path style="fill:url(#RadialGradID_2017) " d="M-0.2,-0.05L-0.1 0.1L-0.25 0.2L-0.5 0.25L-0.75 0.15L-0.8 0L-0.7 -0.1L-0.45 -0.1L-0.2 -0.05" />
<radialGradient
id="RadialGradID_2018" gradientUnits="userSpaceOnUse" gradientTransform="matrix(0.000671387, 6.10352e-005, -9.15527e-005, 0.000289917, 0.6, 0.05)" spreadMethod ="pad" cx="0" cy="0" r="819.2" fx="0" fy="0" >
<stop  offset="0.313725"  style="stop-color:#FFFFFF;stop-opacity:0.662745" />
<stop  offset="1"  style="stop-color:#FFFFFF;stop-opacity:0" />
</radialGradient>
<path style="fill:url(#RadialGradID_2018) " d="M0.65,-0.1L1 0L1.15 0.1L0.95 0.25L0.55 0.25L0.2 0.15L0.1 0.05L0.3 -0.1L0.65 -0.1" />
<path style="fill:#C16A46;fill-opacity:1" d="M1,-0.45L-0.35 -0.4L-0.55 -0.55L-2.1 -0.6L-2.9 -0.6L-3.15 -0.75L-0.75 -0.75L-0.1 -0.55L0.6 -0.55L1.5 -0.75L3.3 -0.75Q3.3 -0.45 2.55 -0.6L2.4 -0.6L1 -0.45" />
<linearGradient
id="LinearGradID_2019" gradientUnits="userSpaceOnUse" gradientTransform="matrix(0, -0.00100708, 0.00274658, 0, 0.35, -0.75)" spreadMethod ="pad" x1="-819.2" y1="0" x2="819.2" y2="0" >
<stop  offset="0" style="stop-color:#ED9B79;stop-opacity:1" />
<stop  offset="1" style="stop-color:#F3C1AD;stop-opacity:1" />
</linearGradient>
<path style="fill:url(#LinearGradID_2019) " d="M-2.1,-0.6L-0.55 -0.55L-0.35 -0.4L1 -0.45L2.4 -0.6L0.05 -0.1L-2.1 -0.6" />
<linearGradient
id="LinearGradID_2020" gradientUnits="userSpaceOnUse" gradientTransform="matrix(0, 0.000900269, -0.00050354, 0, -0.35, 0.8)" spreadMethod ="pad" x1="-819.2" y1="0" x2="819.2" y2="0" >
<stop  offset="0" style="stop-color:#E1B7A6;stop-opacity:0.313725" />
<stop  offset="1" style="stop-color:#C16A46;stop-opacity:1" />
</linearGradient>
<path style="fill:url(#LinearGradID_2020) " d="M2.6,0.15L1.75 0.8L0.95 0.8L-0.05 0.8L-0.7 0.85L-1.25 0.8L-2.35 0.15L0.45 0.4L1.65 0.35L2.6 0.15" />
<radialGradient
id="RadialGradID_2021" gradientUnits="userSpaceOnUse" gradientTransform="matrix(0.00186157, 0.000274658, -7.62939e-005, 0.000274658, -1.75, -0.15)" spreadMethod ="pad" cx="0" cy="0" r="819.2" fx="0" fy="0" >
<stop  offset="0.313725"  style="stop-color:#FFFFFF;stop-opacity:0.662745" />
<stop  offset="1"  style="stop-color:#FFFFFF;stop-opacity:0" />
</radialGradient>
<path style="fill:url(#RadialGradID_2021) " d="M-0.8,0.2L-1.95 0.15L-3 -0.1L-3.4 -0.35L-2.9 -0.5L-1.8 -0.4L-0.7 -0.15L-0.3 0.1L-0.8 0.2" />
<radialGradient
id="RadialGradID_2022" gradientUnits="userSpaceOnUse" gradientTransform="matrix(0.00184631, 0.000274658, -7.62939e-005, 0.000274658, -2.4, -0.4)" spreadMethod ="pad" cx="0" cy="0" r="819.2" fx="0" fy="0" >
<stop  offset="0.313725"  style="stop-color:#FFFFFF;stop-opacity:0.662745" />
<stop  offset="1"  style="stop-color:#FFFFFF;stop-opacity:0" />
</radialGradient>
<path style="fill:url(#RadialGradID_2022) " d="M-1.35,-0.4L-0.95 -0.15L-1.4 -0.05L-2.55 -0.1L-2.65 -0.15L-2.75 -0.25L-3.35 -0.75L-2.4 -0.65L-1.35 -0.4" />
</g>
</svg>
