<?xml version="1.0" encoding="utf-8"?>
<svg version="1.1" id="Layer_1"
xmlns="http://www.w3.org/2000/svg"
xmlns:xlink="http://www.w3.org/1999/xlink"
xmlns:author="http://www.sothink.com"
width="8px" height="7px"
xml:space="preserve">
<g id="189" transform="matrix(1, 0, 0, 1, 3.8, 3.35)">
<radialGradient
id="RadialGradID_1935" gradientUnits="userSpaceOnUse" gradientTransform="matrix(0.0012207, 0.000167847, -0.000167847, 0.0012207, -0.55, -2.45)" spreadMethod ="pad" cx="0" cy="0" r="819.2" fx="0" fy="0" >
<stop  offset="0"  style="stop-color:#F15E1F;stop-opacity:0.423529" />
<stop  offset="1"  style="stop-color:#FFEFEA;stop-opacity:0" />
</radialGradient>
<path style="fill:url(#RadialGradID_1935) " d="M-0.25,-2.25Q-0.65 -2.4 -0.65 -2.5L-0.7 -2.85L-0.45 -3.35Q-0.4 -2.9 0.3 -2.95Q0.1 -2.15 -0.25 -2.25" />
<radialGradient
id="RadialGradID_1936" gradientUnits="userSpaceOnUse" gradientTransform="matrix(7.62939e-005, -0.00172424, -0.00506592, -0.000137329, -0.4, 2.25)" spreadMethod ="pad" cx="0" cy="0" r="819.2" fx="0" fy="0" >
<stop  offset="0"  style="stop-color:#F15E1F;stop-opacity:0.423529" />
<stop  offset="1"  style="stop-color:#FFEFEA;stop-opacity:0" />
</radialGradient>
<path style="fill:url(#RadialGradID_1936) " d="M1.95,1.6Q2.8 1.9 2.8 2.35Q2.75 2.8 1.9 3.1L-0.45 3.35L-2.6 3Q-3.55 2.65 -3.5 2.2Q-3.5 1.75 -2.55 1.45L-0.3 1.2L1.95 1.6" />
<path style="fill:#AC5B39;fill-opacity:1" d="M-3.15,0.9L-3.1 1.05L-2.25 1.35L1.15 1.3L2.75 1.05L3.1 0.75L3 1.2L2.8 1.25L2.4 1.35L0.45 1.45L-2.55 1.4Q-3.1 1.35 -3.4 1L-3.45 0.55L-3.15 0.9" />
<path style="fill:#FFFFFF;fill-opacity:1" d="M3.1,0.75L2.75 1.05L1.15 1.3L-2.25 1.35L-3.1 1.05L-3.15 0.9L-3.15 0.7L-3 0.4L-2.55 0.35L-2.45 0.4L-2.25 0.55L-1.9 0.55L-1.55 0.65L-1.3 0.6L-0.5 0.65L1.35 0.7L2.65 0.5L2.7 0.5L2.75 0.45L2.85 0.45L3.05 0.65L3.1 0.75" />
<path style="fill:#9F2D44;fill-opacity:1" d="M3.35,-1.4L3.3 -1.4L3.15 -1.3L3.05 -0.95L3.05 -0.9L3 -0.55L2.95 -0.2L0.95 -0.75L0.85 -0.7L-1.3 -0.85L-2.15 -0.85L-3.05 -0.7L-3.1 -0.9L-3.4 -1.2L-3.5 -1.15L-3.2 -1.9L-3.1 -1.95L-2.6 -1.65L-2.25 -1.35L-0.45 -1.35L1.7 -1.5Q2.25 -1.5 2.35 -1.75L2.85 -2.1L3.25 -2.05L3.4 -1.9L3.55 -1.35L3.35 -1.4" />
<path style="fill:#D5D5D5;fill-opacity:1" d="M-3,0.4L-3.15 0.7L-3.3 0.25L-3.15 -0.25L-3.25 -0.25L-3.3 -0.35L-3.35 -0.55L-3.2 -0.8L-3.4 -0.8L-3.4 -0.9L-3.4 -1.2L-3.1 -0.9L-3.05 -0.7L-3.05 -0.6L-3 -0.4L-2.8 0.05L-2.55 0.35L-3 0.4M3,-0.55L3.05 -0.9L3.05 -0.95L3.15 -1.3L3.25 -1.2L3.2 -0.95L3.15 -0.85L3.3 -0.5L3.05 0.65L2.85 0.45L2.75 0.45L2.95 -0.2L3 -0.55" />
<path style="fill:#AEAEAE;fill-opacity:1" d="M-3.15,0.9L-3.45 0.55L-3.6 0L-3.6 -0.3L-3.6 -0.9L-3.6 -1.05L-3.5 -1.15L-3.4 -1.2L-3.4 -0.9L-3.4 -0.8L-3.2 -0.8L-3.35 -0.55L-3.3 -0.35L-3.25 -0.25L-3.15 -0.25L-3.3 0.25L-3.15 0.7L-3.15 0.9M3.05,0.65L3.3 -0.5L3.15 -0.85L3.2 -0.95L3.25 -1.2L3.15 -1.3L3.3 -1.4L3.35 -1.4L3.55 -1.35L3.55 -0.95L3.55 -0.85L3.45 0L3.2 0.65L3.1 0.75L3.05 0.65" />
<path style="fill:#F28E84;fill-opacity:1" d="M-2.15,-0.85L-1.3 -0.85L0.85 -0.7L0.95 -0.75L2.95 -0.2L2.75 0.45L2.7 0.5L2.65 0.5L1.35 0.7L-0.5 0.65L-1.3 0.6L-1.55 0.65L-1.9 0.55L-2.25 0.55L-2.45 0.4L-2.55 0.35L-2.8 0.05L-3 -0.4L-3.05 -0.6L-3.05 -0.7L-2.15 -0.85" />
<path style="fill:#3C111B;fill-opacity:1" d="M3.1,0.75L3.2 0.65L3.45 0L3.55 -0.85L3.55 -0.95L3.55 -1.35L3.4 -1.9L3.25 -2.05L2.85 -2.1L2.35 -1.75Q2.25 -1.5 1.7 -1.5L-0.45 -1.35L-2.25 -1.35L-2.6 -1.65L-3.1 -1.95L-3.2 -1.9L-3.5 -1.15L-3.6 -1.05L-3.6 -0.9L-3.6 -0.3L-3.6 0L-3.45 0.55L-3.4 1Q-3.75 0.6 -3.8 -0.2L-3.8 -0.9Q-3.8 -1.95 -3.6 -2L-3.1 -2.1L-3.05 -2.1L-2.6 -1.9Q-2.95 -2.05 -2.5 -1.7L-0.6 -1.45L1.4 -1.6Q1.95 -1.7 2.2 -1.9L2.9 -2.25L3.15 -2.3L3.2 -2.3L3.55 -2.05L3.8 -1.3L3.8 -1.25L3.8 -0.95L3.65 0.05L3.5 0.6L3.35 0.85L3.15 1.05L3 1.2L3.1 0.75" />
</g>
</svg>
