<?xml version="1.0" encoding="utf-8"?>
<svg version="1.1" id="Layer_1"
xmlns="http://www.w3.org/2000/svg"
xmlns:xlink="http://www.w3.org/1999/xlink"
xmlns:author="http://www.sothink.com"
width="9px" height="6px"
xml:space="preserve">
<g id="198" transform="matrix(1, 0, 0, 1, 4.05, 2.9)">
<radialGradient
id="RadialGradID_1995" gradientUnits="userSpaceOnUse" gradientTransform="matrix(0.00120544, 0.000183105, -0.000183105, 0.00120544, -0.25, -2)" spreadMethod ="pad" cx="0" cy="0" r="819.2" fx="0" fy="0" >
<stop  offset="0"  style="stop-color:#F15E1F;stop-opacity:0.423529" />
<stop  offset="1"  style="stop-color:#FFEFEA;stop-opacity:0" />
</radialGradient>
<path style="fill:url(#RadialGradID_1995) " d="M0,-1.85Q-0.35 -2 -0.4 -2.1L-0.45 -2.45L-0.25 -2.9Q-0.15 -2.45 0.55 -2.55Q0.35 -1.75 0 -1.85" />
<path style="fill:#D18E72;fill-opacity:1" d="M-2,0.4L-1.95 0.4L-1.9 0.45L-1.85 0.45L-1.65 0.55L-1.6 0.6L-1.6 0.55L-1.2 0.7L0.55 0.8L1.95 0.5L1.95 0.55L2 0.5L2.1 0.45L2.2 0.45L2.3 0.35L2.35 0.35L1.4 1L0.75 1.05L0.2 1.05L-0.55 1.1L-1.45 0.85L-2.1 0.4L-2.2 0.3L-2 0.4" />
<path style="fill:#C16A46;fill-opacity:1" d="M-3.4,-0.85L-3.45 -0.85L-3.4 -0.85" />
<radialGradient
id="RadialGradID_1996" gradientUnits="userSpaceOnUse" gradientTransform="matrix(0.00488281, 0.000198364, -6.10352e-005, 0.00192261, 0.2, -0.6)" spreadMethod ="pad" cx="0" cy="0" r="819.2" fx="6" fy="0" >
<stop  offset="0.568627"  style="stop-color:#ED9B79;stop-opacity:1" />
<stop  offset="1"  style="stop-color:#FFFFFF;stop-opacity:0.192157" />
</radialGradient>
<path style="fill:url(#RadialGradID_1996) " d="M-3.15,-1.35L-2.4 -1.5L-1.4 -1.75L-0.05 -1.5Q0.85 -1.9 1.3 -1.75L3 -1.4L3.45 -1.4L3.8 -1.5L3.8 -1.35L4.1 -1.45Q3.65 -1.05 3.3 -1.05L2.95 -1.05L1.1 -1.35L0.8 -1.25L0 -1L-1.2 -1.25L-2.35 -1.15L-3.25 -1.1L-3.5 -1.15L-3.9 -1.65L-3.15 -1.35" />
<radialGradient
id="RadialGradID_1997" gradientUnits="userSpaceOnUse" gradientTransform="matrix(0.00587463, 0.000991821, -0.000686646, 0.00401306, -0.3, -2.8)" spreadMethod ="pad" cx="0" cy="0" r="819.2" fx="6" fy="0" >
<stop  offset="0.568627"  style="stop-color:#ED9B79;stop-opacity:1" />
<stop  offset="1"  style="stop-color:#FFCFBB;stop-opacity:0" />
</radialGradient>
<path style="fill:url(#RadialGradID_1997) " d="M-3.45,-0.85L-3.6 -0.85L-3.5 -0.85L-3.45 -0.9L-3.4 -0.9L-3.35 -0.85L-3.25 -0.85L-3.3 -0.75L-3.2 -0.85L-3.15 -0.85L-3.1 -0.8L-3.1 -0.85L-1 -1.1L-0.45 -0.8Q0.3 -0.65 0.9 -1.05L3.35 -0.85L3.3 -0.7L2.2 0.45L2.1 0.45L2 0.5L2 0.45L1.95 0.5L0.55 0.8L-1.2 0.7L-1.6 0.55L-1.6 0.6L-1.65 0.55L-1.85 0.45L-1.9 0.45L-1.95 0.4L-2 0.4L-2.2 0.3L-3.4 -0.85L-3.45 -0.85M-3.25,-0.85L-3.3 -0.85L-3.35 -0.9L-3.25 -0.9L-3.25 -0.85" />
<radialGradient
id="RadialGradID_1998" gradientUnits="userSpaceOnUse" gradientTransform="matrix(0.00512695, 4.57764e-005, -4.57764e-005, 0.00468445, 0.1, -0.8)" spreadMethod ="pad" cx="0" cy="0" r="819.2" fx="210518" fy="0" >
<stop  offset="0.776471"  style="stop-color:#C16A46;stop-opacity:1" />
<stop  offset="1"  style="stop-color:#C16A46;stop-opacity:0.0235294" />
</radialGradient>
<path style="fill:url(#RadialGradID_1998) " d="M3.45,-0.8L3.5 -0.8L3.4 -0.8L3.3 -0.7L3.35 -0.85L0.9 -1.05Q0.3 -0.65 -0.45 -0.8L-1 -1.1L-3.1 -0.85L-3.15 -0.85L-3.2 -0.85L-3.3 -0.75L-3.25 -0.85L-3.35 -0.85L-3.4 -0.9L-3.45 -0.9L-3.9 -1.1L-4.05 -1.45L-3.9 -1.65L-3.5 -1.15L-3.25 -1.1L-2.35 -1.15L-1.2 -1.25L0 -1L0.8 -1.25L1.1 -1.35L2.95 -1.05L3.3 -1.05Q3.65 -1.05 4.1 -1.45Q4.05 -0.85 3.5 -0.8L3.6 -0.9L3.45 -0.8M-3.25,-0.9L-3.35 -0.9L-3.3 -0.85L-3.25 -0.85L-3.25 -0.9" />
<radialGradient
id="RadialGradID_1999" gradientUnits="userSpaceOnUse" gradientTransform="matrix(0.00175476, 0.000350952, -7.62939e-005, 0.000366211, -1, -0.05)" spreadMethod ="pad" cx="0" cy="0" r="819.2" fx="0" fy="0" >
<stop  offset="0.313725"  style="stop-color:#FFFFFF;stop-opacity:0.662745" />
<stop  offset="1"  style="stop-color:#FFFFFF;stop-opacity:0" />
</radialGradient>
<path style="fill:url(#RadialGradID_1999) " d="M0.4,0.3L-0.05 0.45L-1.1 0.35L-2.15 0.05L-2.5 -0.3L-2.05 -0.45L-0.95 -0.35L0.05 -0.05L0.4 0.3" />
<radialGradient
id="RadialGradID_2000" gradientUnits="userSpaceOnUse" gradientTransform="matrix(0.000762939, -0.00012207, 0.000244141, 0.000411987, 0.85, -1.45)" spreadMethod ="pad" cx="0" cy="0" r="819.2" fx="0" fy="0" >
<stop  offset="0.313725"  style="stop-color:#FFFFFF;stop-opacity:0.282353" />
<stop  offset="1"  style="stop-color:#FFFFFF;stop-opacity:0" />
</radialGradient>
<path style="fill:url(#RadialGradID_2000) " d="M1,-1.2L0.5 -1.2Q0.3 -1.25 0.25 -1.35L0.3 -1.55L0.7 -1.7L1.15 -1.7L1.45 -1.55L1.35 -1.35L1 -1.2" />
<radialGradient
id="RadialGradID_2001" gradientUnits="userSpaceOnUse" gradientTransform="matrix(0.000473022, 7.62939e-005, -6.10352e-005, 0.00038147, 0.85, -0.1)" spreadMethod ="pad" cx="0" cy="0" r="819.2" fx="0" fy="0" >
<stop  offset="0.313725"  style="stop-color:#FFFFFF;stop-opacity:0.662745" />
<stop  offset="1"  style="stop-color:#FFFFFF;stop-opacity:0" />
</radialGradient>
<path style="fill:url(#RadialGradID_2001) " d="M0.6,-0.3L0.9 -0.35L1.15 -0.2L1.2 -0.05L1.05 0.1L0.8 0.1L0.5 0L0.45 -0.2L0.6 -0.3" />
<radialGradient
id="RadialGradID_2002" gradientUnits="userSpaceOnUse" gradientTransform="matrix(0.000106812, -0.00257874, -0.00532532, -0.000244141, -0.05, 1.25)" spreadMethod ="pad" cx="0" cy="0" r="819.2" fx="0" fy="0" >
<stop  offset="0"  style="stop-color:#F15E1F;stop-opacity:0.423529" />
<stop  offset="1"  style="stop-color:#FFEFEA;stop-opacity:0" />
</radialGradient>
<path style="fill:url(#RadialGradID_2002) " d="M2.4,0.3Q3.3 0.75 3.3 1.4Q3.25 2.1 2.3 2.5L-0.15 2.9L-2.45 2.35Q-3.4 1.8 -3.35 1.15Q-3.35 0.45 -2.35 0.05L0.05 -0.35Q1.4 -0.3 2.4 0.3" />
</g>
</svg>
