<?xml version="1.0" encoding="utf-8"?>
<svg version="1.1" id="Layer_1"
xmlns="http://www.w3.org/2000/svg"
xmlns:xlink="http://www.w3.org/1999/xlink"
xmlns:author="http://www.sothink.com"
width="10px" height="6px"
xml:space="preserve">
<g id="195" transform="matrix(1, 0, 0, 1, 4.6, 2.8)">
<radialGradient
id="RadialGradID_1972" gradientUnits="userSpaceOnUse" gradientTransform="matrix(0.00160217, 0, 0, 0.00160217, 0.15, -2)" spreadMethod ="pad" cx="0" cy="0" r="819.2" fx="0" fy="0" >
<stop  offset="0"  style="stop-color:#F15E1F;stop-opacity:0.423529" />
<stop  offset="1"  style="stop-color:#FFEFEA;stop-opacity:0" />
</radialGradient>
<path style="fill:url(#RadialGradID_1972) " d="M-0.3,-2.6L-0.3 -2.8L-0.1 -2.65L0.15 -2.6L0.35 -2.55L0.75 -2.5L1.1 -2.5L1 -2.4Q0.7 -2.1 0.35 -2.1L0.25 -2.05L-0.2 -2.35L-0.3 -2.6" />
<radialGradient
id="RadialGradID_1973" gradientUnits="userSpaceOnUse" gradientTransform="matrix(0.00421143, 0, 0, 0.00421143, 0.2, -1.45)" spreadMethod ="pad" cx="0" cy="0" r="819.2" fx="6" fy="0" >
<stop  offset="0.568627"  style="stop-color:#ED9B79;stop-opacity:1" />
<stop  offset="1"  style="stop-color:#FFCFBB;stop-opacity:0" />
</radialGradient>
<path style="fill:url(#RadialGradID_1973) " d="M3.45,-1.6L2.55 -1.75L1.05 -1.55L0.35 -1.45L-0.3 -1.45L-2.05 -1.6L-2.65 -1.75L-1 -2.1L0.15 -1.9L0.35 -1.9L0.7 -2L1.55 -2.15L2.65 -1.9L3.55 -1.65L3.45 -1.6" />
<path style="fill:#C16A46;fill-opacity:1" d="M-3.2,-1.3Q-3.7 -1.35 -3.65 -1.55Q-3.7 -1.85 -3 -1.85L-2.65 -1.75L-2.05 -1.6L-0.3 -1.45L0.35 -1.45L1.05 -1.55L2.55 -1.75L3.45 -1.6L3.55 -1.65L3.65 -1.75L3.85 -1.85L4.05 -1.85L4.05 -1.7Q4.05 -1.55 3.45 -1.4L3.4 -1.35L2.15 -1.35L0.8 -1.2L0.35 -1.15L-0.15 -1.15L-1.75 -1.25L-2.65 -1.35L-3 -1.25L-3.2 -1.3" />
<radialGradient
id="RadialGradID_1974" gradientUnits="userSpaceOnUse" gradientTransform="matrix(0.00488281, 0, 0, 0.00401306, 0.2, -2.95)" spreadMethod ="pad" cx="0" cy="0" r="819.2" fx="6" fy="0" >
<stop  offset="0.568627"  style="stop-color:#ED9B79;stop-opacity:1" />
<stop  offset="1"  style="stop-color:#FFCFBB;stop-opacity:0" />
</radialGradient>
<path style="fill:url(#RadialGradID_1974) " d="M-3,-1.25L-2.65 -1.35L-1.75 -1.25L-0.15 -1.15L0.35 -1.15L0.8 -1.2L2.15 -1.35L3.4 -1.35L3.45 -1.4Q3.45 -0.9 2.9 -0.05Q2.3 0.65 0.35 0.75L0 0.8Q-2.35 0.8 -3.2 -1.3L-3 -1.25" />
<radialGradient
id="RadialGradID_1975" gradientUnits="userSpaceOnUse" gradientTransform="matrix(0.00119019, 0, 0, 0.00119019, 1.6, -0.9)" spreadMethod ="pad" cx="0" cy="0" r="819.2" fx="0" fy="0" >
<stop  offset="0.313725"  style="stop-color:#FFFFFF;stop-opacity:0.431373" />
<stop  offset="1"  style="stop-color:#FFFFFF;stop-opacity:0" />
</radialGradient>
<path style="fill:url(#RadialGradID_1975) " d="M1.35,-1.05L1.95 -1.15L2.5 -1L2.35 -0.85L1.5 -0.8L1.3 -0.8L1 -0.75L0.7 -0.65L1.2 -0.95L1.35 -1.05" />
<radialGradient
id="RadialGradID_1976" gradientUnits="userSpaceOnUse" gradientTransform="matrix(0.00149536, 0, 0, 0.00149536, -0.9, -0.85)" spreadMethod ="pad" cx="0" cy="0" r="819.2" fx="0" fy="0" >
<stop  offset="0.313725"  style="stop-color:#FFFFFF;stop-opacity:0.431373" />
<stop  offset="1"  style="stop-color:#FFFFFF;stop-opacity:0" />
</radialGradient>
<path style="fill:url(#RadialGradID_1976) " d="M-0.9,-0.9L0.25 -0.75L-0.8 -0.55L-1.55 -0.7L-2.05 -1L-1.85 -1.15L-0.9 -0.9" />
<radialGradient
id="RadialGradID_1977" gradientUnits="userSpaceOnUse" gradientTransform="matrix(0.000686646, 0, 0, 0.000686646, 1.4, -2)" spreadMethod ="pad" cx="0" cy="0" r="819.2" fx="0" fy="0" >
<stop  offset="0.313725"  style="stop-color:#FFFFFF;stop-opacity:0.431373" />
<stop  offset="1"  style="stop-color:#FFFFFF;stop-opacity:0" />
</radialGradient>
<path style="fill:url(#RadialGradID_1977) " d="M1.9,-1.95L1.85 -1.9L1.25 -1.95L1 -1.95L0.95 -1.95L1.2 -2L1.65 -2.05L1.9 -1.95" />
<path style="fill:#DE9C7B;fill-opacity:1" d="M2.3,0L2.4 0.05Q1.4 0.7 0.5 0.7L-1.45 0.35L-1.9 -0.05L-1.3 0.2L0.3 0.35L2.3 0" />
<radialGradient
id="RadialGradID_1978" gradientUnits="userSpaceOnUse" gradientTransform="matrix(0.00559998, 0, 0, 0.00337219, 0.15, 0.7)" spreadMethod ="pad" cx="0" cy="0" r="819.2" fx="0" fy="0" >
<stop  offset="0"  style="stop-color:#F15E1F;stop-opacity:0.423529" />
<stop  offset="1"  style="stop-color:#FFEFEA;stop-opacity:0" />
</radialGradient>
<path style="fill:url(#RadialGradID_1978) " d="M3.3,-1Q4.65 -0.35 4.65 0.6Q4.65 1.5 3.3 2.15Q1.95 2.8 0 2.8Q-1.9 2.8 -3.25 2.15Q-4.6 1.5 -4.6 0.6Q-4.6 -0.35 -3.25 -1Q-1.9 -1.65 0 -1.65Q1.95 -1.65 3.3 -1" />
</g>
</svg>
