<?xml version="1.0" encoding="utf-8"?>
<svg version="1.1" id="Layer_1"
xmlns="http://www.w3.org/2000/svg"
xmlns:xlink="http://www.w3.org/1999/xlink"
xmlns:author="http://www.sothink.com"
width="10px" height="6px"
xml:space="preserve">
<g id="187" transform="matrix(1, 0, 0, 1, 4.8, 2.85)">
<radialGradient
id="RadialGradID_1920" gradientUnits="userSpaceOnUse" gradientTransform="matrix(0.0012207, 0.000167847, -0.000167847, 0.0012207, -0.35, -1.95)" spreadMethod ="pad" cx="0" cy="0" r="819.2" fx="0" fy="0" >
<stop  offset="0"  style="stop-color:#F15E1F;stop-opacity:0.423529" />
<stop  offset="1"  style="stop-color:#FFEFEA;stop-opacity:0" />
</radialGradient>
<path style="fill:url(#RadialGradID_1920) " d="M-0.25,-2.85Q-0.2 -2.4 0.5 -2.45Q0.3 -1.65 -0.05 -1.75L-0.45 -2L-0.5 -2.35L-0.25 -2.85" />
<radialGradient
id="RadialGradID_1921" gradientUnits="userSpaceOnUse" gradientTransform="matrix(7.62939e-005, -0.00238037, -0.00489807, -0.000183105, -0.05, 1.2)" spreadMethod ="pad" cx="0" cy="0" r="819.2" fx="0" fy="0" >
<stop  offset="0"  style="stop-color:#F15E1F;stop-opacity:0.423529" />
<stop  offset="1"  style="stop-color:#FFEFEA;stop-opacity:0" />
</radialGradient>
<path style="fill:url(#RadialGradID_1921) " d="M-0.5,1.1Q1.35 1.25 3.35 0.3L3.3 1.4Q3.25 2.05 2.35 2.5L-0.1 2.9Q-1.5 2.85 -2.4 2.35Q-3.4 1.8 -3.35 1.15Q-3.35 0.7 -2.85 0.35Q-2.35 0.9 -0.5 1.1" />
<radialGradient
id="RadialGradID_1922" gradientUnits="userSpaceOnUse" gradientTransform="matrix(0.000991821, 0, 0, 0.000991821, 3.8, -1.4)" spreadMethod ="pad" cx="0" cy="0" r="819.2" fx="0" fy="0" >
<stop  offset="0"  style="stop-color:#F15E1F;stop-opacity:0.423529" />
<stop  offset="1"  style="stop-color:#FFEFEA;stop-opacity:0" />
</radialGradient>
<path style="fill:url(#RadialGradID_1922) " d="M3.4,-1.95L3.9 -2.2Q4.8 -2.2 4.8 -1.5Q4.8 -0.4 3.85 -0.4Q3.1 -0.4 3.1 -1.25L3.15 -1.4L3.4 -1.95" />
<radialGradient
id="RadialGradID_1923" gradientUnits="userSpaceOnUse" gradientTransform="matrix(0.00120544, 0, 0, 0.00120544, -3.75, -1)" spreadMethod ="pad" cx="0" cy="0" r="819.2" fx="0" fy="0" >
<stop  offset="0"  style="stop-color:#F15E1F;stop-opacity:0.423529" />
<stop  offset="1"  style="stop-color:#FFEFEA;stop-opacity:0" />
</radialGradient>
<path style="fill:url(#RadialGradID_1923) " d="M-3.7,-2.2Q-2.95 -2.2 -2.95 -1.4Q-2.95 -0.15 -4 -0.15Q-4.8 -0.15 -4.8 -1.05L-4.6 -1.6L-4 -2.15L-3.7 -2.2" />
<path style="fill:#AC5B39;fill-opacity:1" d="M1.4,0.15L1.5 0.1L1.55 0.1L2.05 0L2.15 -0.25L2.3 -0.25L2.75 -0.5L2.95 -0.9L3.3 -1.05L3.8 -1.3L2.8 -0.45L2.35 -0.15L2.35 -0.1L2.1 0.05L1.9 0.15L1.8 0.2L1.7 0.3L1.65 0.3L1.55 0.3L1.5 0.35L1.4 0.35L1.4 0.15M-2.15,-0.05L-1.9 -0.15L-1.85 -0.05L-1.8 0L-1.5 0.1L-1.05 0.15L-1.05 0.3L-1.05 0.4L-1.4 0.3L-1.95 0.1L-2.65 -0.15L-3.75 -0.85L-2.75 -0.45Q-2.65 -0.05 -2.15 -0.05" />
<path style="fill:#FFFFFF;fill-opacity:1" d="M0.45,0.8L0.45 0.7L0.45 0.55L0.45 0.05L0.75 -0.05L0.95 -0.1L1.15 -0.1L1.35 -0.1L1.4 -0.05L1.4 0.05L1.4 0.15L1.4 0.35L1.35 0.55L1.25 0.65L1.15 0.7L1 0.7L1.15 0.7L0.45 0.8M0,0.8L-0.55 0.75L-0.9 0.65L-0.85 0.1L-0.6 -0.15L-0.1 -0.1L0.05 0L0.05 0.2L0.05 0.35L0.05 0.8L0 0.8" />
<path style="fill:#A2A2A2;fill-opacity:1" d="M-1.05,0.15L-1.15 0L-1.05 -0.4L-1 -0.4L-1.05 0.15M1.4,0.05L1.4 -0.05L1.4 -0.35L1.5 -0.4L1.6 -0.4L1.7 -0.4L1.6 -0.3L1.5 -0.2L1.5 0L1.5 0.1L1.4 0.15L1.4 0.05" />
<path style="fill:#D5D5D5;fill-opacity:1" d="M-1.15,0L-1.05 0.15L-1.5 0.1L-1.8 0L-1.85 -0.05L-1.9 -0.15L-2.15 -0.05Q-2.65 -0.05 -2.75 -0.45L-2.65 -0.45L-2.35 -0.4L-1.05 -0.4L-1.15 0M1.7,-0.4L1.75 -0.4L1.8 -0.45L2.35 -0.6L2.45 -0.7L2.95 -0.9L2.75 -0.5L2.3 -0.25L2.15 -0.25L2.05 0L1.55 0.1L1.5 0.1L1.5 0L1.5 -0.2L1.6 -0.3L1.7 -0.4" />
<path style="fill:#E1E1E1;fill-opacity:1" d="M-1.05,0.4L-1.05 0.3L-1.05 0.15L-1 -0.4L-0.95 -0.4L-0.35 -0.3L0.1 -0.25L0.1 0.15L0.1 0.75L0.05 0.8L0.05 0.35L0.05 0.2L0.05 0L-0.1 -0.1L-0.6 -0.15L-0.85 0.1L-0.9 0.65L-1.05 0.4M1.4,-0.05L1.35 -0.1L1.15 -0.1L0.95 -0.1L0.75 -0.05L0.45 0.05L0.45 0.55L0.45 0.7L0.45 0.8L0.35 0.8L0.2 0.7L0.2 0.65L0.2 0.3L0.15 -0.25L0.8 -0.25L1.4 -0.35L1.4 -0.05" />
<path style="fill:#BBBBBB;fill-opacity:1" d="M0.1,0.7L0.1 0.75L0.1 0.15L0.1 -0.25L0.15 -0.25L0.2 0.3L0.2 0.65L0.1 0.7" />
<radialGradient
id="RadialGradID_1924" gradientUnits="userSpaceOnUse" gradientTransform="matrix(-0.000152588, 0.00408936, -0.00643921, -0.000244141, 0.1, 1)" spreadMethod ="pad" cx="0" cy="0" r="819.2" fx="6" fy="0" >
<stop  offset="0.568627"  style="stop-color:#ED9B79;stop-opacity:1" />
<stop  offset="1"  style="stop-color:#FFFFFF;stop-opacity:0.192157" />
</radialGradient>
<path style="fill:url(#RadialGradID_1924) " d="M2.95,-0.9L2.45 -0.7L2.35 -0.6L1.8 -0.45L1.75 -0.4L1.7 -0.4L1.6 -0.4L1.5 -0.4L1.4 -0.35L0.8 -0.25L0.15 -0.25L0.1 -0.25L-0.35 -0.3L-0.95 -0.4L-1 -0.4L-1.05 -0.4L-2.35 -0.4L-2.65 -0.45L-2.75 -0.45L-3.75 -0.85L-3.8 -0.9L-3.1 -0.9L-1.65 -1.2L-0.6 -1.1L0.1 -0.95L0.8 -1.1L1.65 -1.2L2.6 -1.15L3.4 -1.15L3.65 -1.3L3.3 -1.05L2.95 -0.9" />
<radialGradient
id="RadialGradID_1925" gradientUnits="userSpaceOnUse" gradientTransform="matrix(-9.15527e-005, 0.00311279, -0.00588989, -0.000198364, -0.1, -0.6)" spreadMethod ="pad" cx="0" cy="0" r="819.2" fx="276" fy="0" >
<stop  offset="0.568627"  style="stop-color:#ED9B79;stop-opacity:1" />
<stop  offset="1"  style="stop-color:#FFFFFF;stop-opacity:0.192157" />
</radialGradient>
<path style="fill:url(#RadialGradID_1925) " d="M1.15,0.7L1 0.7L1.15 0.7L1.25 0.65L1.35 0.55L1.4 0.35L1.5 0.35L1.55 0.3L1.65 0.3L1.7 0.3L1.8 0.2L1.9 0.15L2.1 0.05L2.35 -0.1L2.35 -0.15L2.8 -0.45L3.8 -1.3L3.85 -1.3L3.35 -0.25L2.85 0.6L1.7 1.35L-0.6 1.6Q-2.2 1.45 -2.8 0.7Q-3.45 -0.1 -3.75 -0.85L-2.65 -0.15L-1.95 0.1L-1.4 0.3L-1.05 0.4L-0.9 0.65L-0.55 0.75L0 0.8L0.05 0.8L0.1 0.75L0.1 0.7L0.2 0.65L0.2 0.7L0.35 0.8L0.45 0.8L1.15 0.7" />
</g>
</svg>
