<?xml version="1.0" encoding="utf-8"?>
<svg version="1.1" id="Layer_1"
xmlns="http://www.w3.org/2000/svg"
xmlns:xlink="http://www.w3.org/1999/xlink"
xmlns:author="http://www.sothink.com"
width="9px" height="7px"
xml:space="preserve">
<g id="191" transform="matrix(1, 0, 0, 1, 4.25, 3.1)">
<radialGradient
id="RadialGradID_1944" gradientUnits="userSpaceOnUse" gradientTransform="matrix(0.0012207, 0.000167847, -0.000167847, 0.0012207, -0.25, -2.2)" spreadMethod ="pad" cx="0" cy="0" r="819.2" fx="0" fy="0" >
<stop  offset="0"  style="stop-color:#F15E1F;stop-opacity:0.423529" />
<stop  offset="1"  style="stop-color:#FFEFEA;stop-opacity:0" />
</radialGradient>
<path style="fill:url(#RadialGradID_1944) " d="M0.05,-2Q-0.35 -2.15 -0.35 -2.25L-0.4 -2.6L-0.15 -3.1Q-0.1 -2.65 0.6 -2.7Q0.4 -1.9 0.05 -2" />
<radialGradient
id="RadialGradID_1945" gradientUnits="userSpaceOnUse" gradientTransform="matrix(7.62939e-005, -0.00259399, -0.00534058, -0.000198364, -0.15, 1.4)" spreadMethod ="pad" cx="0" cy="0" r="819.2" fx="0" fy="0" >
<stop  offset="0"  style="stop-color:#F15E1F;stop-opacity:0.423529" />
<stop  offset="1"  style="stop-color:#FFEFEA;stop-opacity:0" />
</radialGradient>
<path style="fill:url(#RadialGradID_1945) " d="M2.35,0.45Q3.25 0.9 3.2 1.6Q3.15 2.25 2.25 2.7L-0.2 3.1L-2.5 2.55Q-3.5 2 -3.45 1.35Q-3.45 0.65 -2.4 0.25L-0.05 -0.15Q1.3 -0.1 2.35 0.45" />
<path style="fill:#C16A46;fill-opacity:1" d="M4.15,-0.85L4.15 -0.9L4.15 -0.85L4.1 -0.85L4.1 -0.8L4.05 -0.85L4 -0.8L3.8 -0.8L2.95 -0.8L2.05 -0.85L1.95 -0.85L0.6 -0.5L0.45 -0.45L0.2 -0.4L-0.85 -0.7L-1.25 -0.75L-1.7 -0.75L-1.75 -0.75L-2.85 -0.75L-3.85 -0.8L-4.05 -0.95L-4 -0.85L-4.05 -0.85L-4 -0.85L-4.05 -0.9L-4.1 -0.9L-4.1 -0.95L-4.15 -0.95L-4.2 -0.95L-4.25 -1L-4.2 -1L-4.1 -1L-4.05 -1L-4 -1L-3.7 -0.95L-3.15 -0.95L-3.6 -1L-3.55 -1L-3.35 -1L-2.75 -0.95L-1.75 -0.95L-1.2 -0.9L-0.85 -0.9L-0.4 -0.75L0.3 -0.65L1.25 -1L2.05 -1L3.2 -0.95L4.1 -0.85L3.95 -0.9L4.05 -0.9L4.15 -0.9L4.2 -0.9L4.2 -0.85L4.15 -0.85M-3.85,-0.85L-3.8 -0.8L-3.85 -0.85M1.75,-1.7L1.75 -1.75L1.85 -1.75L2.15 -1.7L1.9 -1.7L1.75 -1.7" />
<path style="fill:#CF8D72;fill-opacity:1" d="M4.2,-0.9L4.25 -0.85L4.2 -0.85L4.2 -0.9" />
<radialGradient
id="RadialGradID_1946" gradientUnits="userSpaceOnUse" gradientTransform="matrix(0.00927734, 0, 0, 0.00927734, 0, -2.05)" spreadMethod ="pad" cx="0" cy="0" r="819.2" fx="6" fy="0" >
<stop  offset="0.568627"  style="stop-color:#ED9B79;stop-opacity:1" />
<stop  offset="1"  style="stop-color:#FFFFFF;stop-opacity:0.192157" />
</radialGradient>
<path style="fill:url(#RadialGradID_1946) " d="M-4.1,-0.85L-4.1 -0.9L-4.05 -0.9L-4.1 -0.85M4.15,-0.85L4.15 -0.9L4.15 -0.85" />
<radialGradient
id="RadialGradID_1947" gradientUnits="userSpaceOnUse" gradientTransform="matrix(0.00126648, 0.0057373, -0.00799561, 0.00178528, -0.5, 0.75)" spreadMethod ="pad" cx="0" cy="0" r="819.2" fx="210527" fy="0" >
<stop  offset="0.568627"  style="stop-color:#ED9B79;stop-opacity:1" />
<stop  offset="1"  style="stop-color:#FFFFFF;stop-opacity:0.192157" />
</radialGradient>
<path style="fill:url(#RadialGradID_1947) " d="M4.2,-0.9L4.25 -0.9L4.2 -0.9M4.2,-0.85L4.15 -0.85L4.1 -0.85L4.15 -0.85L4.2 -0.85M-4.1,-0.9L-4.25 -0.85L-4.1 -0.9L-4.05 -0.9L-4.1 -0.9" />
<radialGradient
id="RadialGradID_1948" gradientUnits="userSpaceOnUse" gradientTransform="matrix(9.15527e-005, 0.00408936, -0.00828552, 0.000183105, 0, -1.55)" spreadMethod ="pad" cx="0" cy="0" r="819.2" fx="6" fy="0" >
<stop  offset="0.568627"  style="stop-color:#ED9B79;stop-opacity:1" />
<stop  offset="1"  style="stop-color:#FFCFBB;stop-opacity:0" />
</radialGradient>
<path style="fill:url(#RadialGradID_1948) " d="M-4.05,-0.85L-4 -0.85L-4.05 -0.95L-3.85 -0.8L-2.85 -0.75L-1.75 -0.75L-1.7 -0.75L-1.25 -0.75L-0.85 -0.7L0.2 -0.4L0.45 -0.45L0.6 -0.5L1.95 -0.85L2.05 -0.85L2.95 -0.8L3.8 -0.8L4 -0.8L4.05 -0.85L4.1 -0.8L4.1 -0.85L4.15 -0.85L4.15 -0.75L3.55 -0.05Q3.2 0.55 2.1 1.1L0.4 1.5L-1.2 1.35Q-2.55 1.2 -3.2 0.55L-3.95 -0.4L-4.1 -0.85L-4.05 -0.9L-4.05 -0.85" />
<radialGradient
id="RadialGradID_1949" gradientUnits="userSpaceOnUse" gradientTransform="matrix(0.00741577, 0, 0, 0.00579834, -0.4, 0.9)" spreadMethod ="pad" cx="0" cy="0" r="819.2" fx="0" fy="0" >
<stop  offset="0.568627"  style="stop-color:#ED9B79;stop-opacity:1" />
<stop  offset="1"  style="stop-color:#FFCFBB;stop-opacity:0" />
</radialGradient>
<path style="fill:url(#RadialGradID_1949) " d="M3.95,-0.9L4.1 -0.85L3.2 -0.95L2.05 -1L1.25 -1L0.3 -0.65L-0.4 -0.75L-0.85 -0.9L-1.2 -0.9L-1.75 -0.95L-2.75 -0.95L-3.35 -1L-3.55 -1L-3.6 -1L-3.15 -0.95L-3.7 -0.95L-4 -1L-4.05 -1L-4.1 -1L-4.1 -1.05L-4 -1.15L-3.8 -1.25L-3.75 -1.3L-3.5 -1.45L-3.25 -1.6L-2.05 -2.05L-0.8 -2.25L0.7 -2.3L0.8 -2.25L2.35 -2L3.5 -1.6L4.15 -1.2Q4.4 -1 4.1 -0.9L4.05 -0.9L3.95 -0.9M1.9,-1.7L2.15 -1.7L1.85 -1.75L1.75 -1.75L1.75 -1.7L1.9 -1.7" />
<radialGradient
id="RadialGradID_1950" gradientUnits="userSpaceOnUse" gradientTransform="matrix(0.000427246, 0.000595093, -0.001297, 0.000915527, 2.1, 0.15)" spreadMethod ="pad" cx="0" cy="0" r="819.2" fx="0" fy="0" >
<stop  offset="0.305882"  style="stop-color:#FFFFFF;stop-opacity:0.572549" />
<stop  offset="1"  style="stop-color:#FFFFFF;stop-opacity:0" />
</radialGradient>
<path style="fill:url(#RadialGradID_1950) " d="M2.9,-0.3L1.95 0.45L1.45 0.6L1.15 0.6L1.35 0.25L1.45 0.15L1.65 0.05L1.7 0.05L2.5 -0.3L2.9 -0.3" />
<radialGradient
id="RadialGradID_1951" gradientUnits="userSpaceOnUse" gradientTransform="matrix(0.000976563, 0, 0, 0.000976563, -1.8, 0)" spreadMethod ="pad" cx="0" cy="0" r="819.2" fx="0" fy="0" >
<stop  offset="0.305882"  style="stop-color:#FFFFFF;stop-opacity:0.572549" />
<stop  offset="1"  style="stop-color:#FFFFFF;stop-opacity:0" />
</radialGradient>
<path style="fill:url(#RadialGradID_1951) " d="M-1.95,-0.2L-1.4 -0.05L-1.45 0.1L-1.2 0.1L-1.3 0.5L-1.5 0.4L-2.6 0L-2.6 -0.15L-1.95 -0.2" />
<radialGradient
id="RadialGradID_1952" gradientUnits="userSpaceOnUse" gradientTransform="matrix(0, 0.000869751, -0.00164795, 0, 1.85, -1.55)" spreadMethod ="pad" cx="0" cy="0" r="819.2" fx="0" fy="0" >
<stop  offset="0.305882"  style="stop-color:#FFFFFF;stop-opacity:0.572549" />
<stop  offset="1"  style="stop-color:#FFFFFF;stop-opacity:0" />
</radialGradient>
<path style="fill:url(#RadialGradID_1952) " d="M1.95,-1.5L1.25 -1.35L1 -1.5Q1.15 -1.8 1.65 -1.8L1.95 -1.5" />
</g>
</svg>
