<?xml version="1.0" encoding="utf-8"?>
<svg version="1.1" id="Layer_1"
xmlns="http://www.w3.org/2000/svg"
xmlns:xlink="http://www.w3.org/1999/xlink"
xmlns:author="http://www.sothink.com"
width="13px" height="7px"
xml:space="preserve">
<g id="206" transform="matrix(1, 0, 0, 1, 6.5, 3.35)">
<radialGradient
id="RadialGradID_2047" gradientUnits="userSpaceOnUse" gradientTransform="matrix(0.00131226, 0.000183105, -0.000183105, 0.00131226, -0.35, -2.35)" spreadMethod ="pad" cx="0" cy="0" r="819.2" fx="0" fy="0" >
<stop  offset="0"  style="stop-color:#F15E1F;stop-opacity:0.423529" />
<stop  offset="1"  style="stop-color:#FFEFEA;stop-opacity:0" />
</radialGradient>
<path style="fill:url(#RadialGradID_2047) " d="M0,-2.15L-0.45 -2.4L-0.55 -2.8L-0.25 -3.35Q-0.15 -2.8 0.6 -2.95Q0.4 -2.05 0 -2.15" />
<radialGradient
id="RadialGradID_2048" gradientUnits="userSpaceOnUse" gradientTransform="matrix(7.62939e-005, -0.00242615, -0.00498962, -0.000183105, -0.1, 1.75)" spreadMethod ="pad" cx="0" cy="0" r="819.2" fx="0" fy="0" >
<stop  offset="0"  style="stop-color:#F15E1F;stop-opacity:0.423529" />
<stop  offset="1"  style="stop-color:#FFEFEA;stop-opacity:0" />
</radialGradient>
<path style="fill:url(#RadialGradID_2048) " d="M2.25,0.85Q3.1 1.3 3.05 1.95Q3 2.55 2.15 2.95L-0.1 3.35L-2.25 2.8Q-3.2 2.3 -3.15 1.7Q-3.15 1.05 -2.2 0.65L0 0.3Q1.3 0.35 2.25 0.85" />
<path style="fill:#FFFFFF;fill-opacity:1" d="M3.95,-0.55L4.35 -0.7L4.4 -0.7L4.8 -0.4L4.8 -0.5L4.85 -0.65L5.05 -0.8L4.5 0.4L4.1 0.6L3.15 1.1L3.05 1.1L0.9 0.8L-2.85 1.15L-3.45 1.15Q-3.95 0.75 -4 -0.15L-3.65 -0.45L-3.55 -0.55L-3.9 -0.8Q-3.7 -1.1 -3.3 -1.05L-1.6 -1.15L-0.3 -1.05L3.1 -1.6L4.1 -1.35L4.35 -1.2L4.5 -1.1L3.95 -0.55M-2.65,-0.55Q-2.6 -0.35 -2.25 -0.3L-2.1 -0.3L-1.05 -0.5L-1.1 -0.5L-1.75 -0.65L-2.65 -0.65L-2.65 -0.55M0.5,-0.35L1.8 -0.45L3.15 -0.7L1.45 -0.7L1.3 -0.95Q1.2 -0.45 0.7 -0.45L-0.05 -0.5Q0.2 -0.35 0.5 -0.35" />
<path style="fill:#CA7E60;fill-opacity:1" d="M1.85,1.1L0.6 1.1L-2.4 1.45L-3.25 1.45L-3.45 1.45L-4.1 1.2Q-4.8 0.8 -5.45 -0.3L-5.85 -1L-5.9 -1.4Q-5.85 -2.4 -5.1 -2.4L-4.55 -2.4L-2.1 -2L-1.75 -1.95L-0.4 -2L1.3 -2L4.5 -2.4L4.75 -2.4L4.9 -2.35L5.75 -2.1L5.95 -1.95L6 -1.1L6 -1L5.35 0.1L4.85 0.55L4.55 0.8L4.35 0.95L4.1 1.15L3.95 1.2L3.75 1.3L3.1 1.45L2.85 1.3L1.85 1.1M-5.55,-1.65Q-5.75 -1.2 -5.15 -0.35L-5.1 -0.3L-4.85 0L-4.75 0.1L-4.45 0.4L-4.1 0.75L-3.45 1.15L-2.85 1.15L0.9 0.8L3.05 1.1L3.15 1.1L4.1 0.6L4.5 0.4L4.7 0.25L4.8 0.2L5 0.1L5.25 -0.2L5.65 -1.15L5.65 -1.4L5.55 -1.7L5.35 -1.95L4.7 -2.05L3.9 -1.95L-0.15 -1.6L-0.75 -1.6L-2.1 -1.7L-4.6 -2L-4.85 -2L-4.9 -2Q-5.4 -2.1 -5.55 -1.65" />
<path style="fill:#E8C6B0;fill-opacity:1" d="M-2.65,-0.65L-1.75 -0.65L-1.1 -0.5L-1.05 -0.5L-2.1 -0.3L-2.25 -0.3Q-2.6 -0.35 -2.65 -0.55L-2.65 -0.65" />
<path style="fill:#ECCFBD;fill-opacity:1" d="M-4.95,-1.65L-4.9 -1.8L-4.9 -1.45L-4.9 -1.3L-4.95 -1.65M-0.05,-0.5L0.7 -0.45Q1.2 -0.45 1.3 -0.95L1.45 -0.7L3.15 -0.7L1.8 -0.45L0.5 -0.35Q0.2 -0.35 -0.05 -0.5" />
<path style="fill:#D3450A;fill-opacity:0.282353" d="M-5.65,-3.05Q-6.2 -2.45 -6.35 -1.3L-6.35 -1.2Q-6.9 -2.25 -5.65 -3.05M5.75,-2.7Q7 -2.15 6.2 -1.3Q6.45 -2.1 5.75 -2.6L5.75 -2.7" />
<radialGradient
id="RadialGradID_2049" gradientUnits="userSpaceOnUse" gradientTransform="matrix(0.00344849, 0, 0, 0.00344849, -0.25, 1.2)" spreadMethod ="pad" cx="0" cy="0" r="819.2" fx="0" fy="0" >
<stop  offset="0.376471"  style="stop-color:#FFFFF7;stop-opacity:0.423529" />
<stop  offset="1"  style="stop-color:#FFFFFF;stop-opacity:0.192157" />
</radialGradient>
<path style="fill:url(#RadialGradID_2049) " d="M2.85,1.3L2.3 1.5L0.9 1.6L-1.7 1.8L-3.45 1.45L-3.25 1.45L-2.4 1.45L0.6 1.1L1.85 1.1L2.85 1.3" />
<path style="fill:#F8ECE4;fill-opacity:1" d="M-4.15,-0.55L-4.15 -0.45L-4.1 -0.2L-4.15 0.2L-4 -0.15Q-3.95 0.75 -3.45 1.15L-4.1 0.75L-4.45 0.4L-4.75 -0.4L-4.8 -0.55L-4.15 -0.55" />
<path style="fill:#875F4E;fill-opacity:1" d="M-4.45,-0.85L-4.8 -0.55L-4.75 -0.4L-4.45 0.4L-4.75 0.1L-4.85 0L-5.1 -0.3L-5.15 -0.35Q-5.75 -1.2 -5.55 -1.65Q-5.4 -2.1 -4.9 -2L-4.9 -1.8L-4.95 -1.65L-4.9 -1.3L-4.45 -0.85M5.05,-0.8L5.1 -0.95L4.75 -1L5.05 -1.15L5.1 -1.2L5.35 -1.75L5.35 -1.95L5.55 -1.7L5.65 -1.4L5.65 -1.15L5.25 -0.2L5 0.1L4.8 0.2L4.7 0.25L4.5 0.4L5.05 -0.8" />
<path style="fill:#E2B89C;fill-opacity:1" d="M-4.9,-1.3L-4.6 -1L-4.45 -0.95L-4.35 -0.95L-4.3 -1.65L-4.25 -1.65L-3.9 -0.8L-3.55 -0.55L-3.65 -0.45L-4 -0.15L-4.15 0.2L-4.1 -0.2L-4.15 -0.45L-4.15 -0.55L-4.8 -0.55L-4.45 -0.85L-4.9 -1.3M4.5,-1.1L4.55 -1.2L4.6 -1.75L4.7 -1.75L4.7 -1.95L4.85 -1.4L4.9 -1.2L5.05 -1.15L4.75 -1L5.1 -0.95L5.05 -0.8L4.85 -0.65L4.8 -0.5L4.8 -0.4L4.4 -0.7L4.35 -0.7L3.95 -0.55L4.5 -1.1" />
<path style="fill:#F3E2D8;fill-opacity:1" d="M5.35,-1.75L5.1 -1.2L5.05 -1.15L4.9 -1.2L4.85 -1.4L4.7 -1.95L4.7 -1.75L4.6 -1.75L4.55 -1.2L4.5 -1.1L4.35 -1.2L4.1 -1.35L3.1 -1.6L-0.3 -1.05L-1.6 -1.15L-3.3 -1.05Q-3.7 -1.1 -3.9 -0.8L-4.25 -1.65L-4.3 -1.65L-4.35 -0.95L-4.45 -0.95L-4.6 -1L-4.9 -1.3L-4.9 -1.45L-4.9 -1.8L-4.9 -2L-4.85 -2L-4.6 -2L-2.1 -1.7L-0.75 -1.6L-0.15 -1.6L3.9 -1.95L4.7 -2.05L5.35 -1.95L5.35 -1.75" />
</g>
</svg>
