<?xml version="1.0" encoding="utf-8"?>
<svg version="1.1" id="Layer_1"
xmlns="http://www.w3.org/2000/svg"
xmlns:xlink="http://www.w3.org/1999/xlink"
xmlns:author="http://www.sothink.com"
width="7px" height="6px"
xml:space="preserve">
<g id="193" transform="matrix(1, 0, 0, 1, 3.1, 3.15)">
<radialGradient
id="RadialGradID_1956" gradientUnits="userSpaceOnUse" gradientTransform="matrix(0.00137329, 0.000198364, -0.000213623, 0.00128174, -0.3, -2.2)" spreadMethod ="pad" cx="0" cy="0" r="819.2" fx="0" fy="0" >
<stop  offset="0"  style="stop-color:#F15E1F;stop-opacity:0.423529" />
<stop  offset="1"  style="stop-color:#FFEFEA;stop-opacity:0" />
</radialGradient>
<path style="fill:url(#RadialGradID_1956) " d="M0.65,-2.8Q0.4 -1.9 0 -2.05L-0.45 -2.3L-0.5 -2.65L-0.25 -3.15Q-0.15 -2.65 0.65 -2.8" />
<radialGradient
id="RadialGradID_1957" gradientUnits="userSpaceOnUse" gradientTransform="matrix(0, -0.00213623, 0.00334167, 0, 0.05, 0.5)" spreadMethod ="pad" cx="0" cy="0" r="819.2" fx="0" fy="0" >
<stop  offset="0"  style="stop-color:#F15E1F;stop-opacity:0.423529" />
<stop  offset="0.368627"  style="stop-color:#F37C49;stop-opacity:0.337255" />
<stop  offset="1"  style="stop-color:#FFEFEA;stop-opacity:0" />
</radialGradient>
<path style="fill:url(#RadialGradID_1957) " d="M0.15,-0.8Q1.4 -0.75 2.3 -0.15Q3.1 0.35 3.1 1.1Q3.05 1.85 2.25 2.4L0.05 2.75Q-1.2 2.65 -2 2.15Q-2.95 1.55 -2.95 0.8Q-2.85 0.05 -1.95 -0.4Q-1.1 -0.9 0.15 -0.8" />
<radialGradient
id="RadialGradID_1958" gradientUnits="userSpaceOnUse" gradientTransform="matrix(0.00531006, 0.00112915, -0.00062561, 0.00444031, -0.15, -2.65)" spreadMethod ="pad" cx="0" cy="0" r="819.2" fx="0" fy="0" >
<stop  offset="0.568627"  style="stop-color:#ED9B79;stop-opacity:1" />
<stop  offset="1"  style="stop-color:#FFCFBB;stop-opacity:0" />
</radialGradient>
<path style="fill:url(#RadialGradID_1958) " d="M-3.1,-0.9L3.15 -0.8Q3.2 0.35 0.25 0.4Q-2.7 0.4 -3.1 -0.8L-3.1 -0.9" />
<radialGradient
id="RadialGradID_1959" gradientUnits="userSpaceOnUse" gradientTransform="matrix(0.00462341, 4.57764e-005, -3.05176e-005, 0.00390625, 0.05, -0.75)" spreadMethod ="pad" cx="0" cy="0" r="819.2" fx="0" fy="0" >
<stop  offset="0.776471"  style="stop-color:#C16A46;stop-opacity:1" />
<stop  offset="1"  style="stop-color:#C16A46;stop-opacity:0.0235294" />
</radialGradient>
<path style="fill:url(#RadialGradID_1959) " d="M-2.15,-0.95L3.05 -0.95L3.15 -0.8L3.15 -0.75L3.05 -0.75L2.95 -0.7L-3.1 -0.8L-3.1 -0.85L-2.15 -0.95" />
<radialGradient
id="RadialGradID_1960" gradientUnits="userSpaceOnUse" gradientTransform="matrix(0.00616455, 0.000228882, -9.15527e-005, 0.0022583, 0, -0.2)" spreadMethod ="pad" cx="0" cy="0" r="819.2" fx="0" fy="0" >
<stop  offset="0.568627"  style="stop-color:#ED9B79;stop-opacity:1" />
<stop  offset="1"  style="stop-color:#FFFFFF;stop-opacity:0.192157" />
</radialGradient>
<path style="fill:url(#RadialGradID_1960) " d="M-3.1,-0.85Q-1.25 -2.45 0.05 -1.55Q0.35 -2 1.35 -1.9Q2.3 -1.75 3.05 -0.95L-2.15 -0.95L-3.1 -0.85" />
<path style="fill:#D18E72;fill-opacity:1" d="M1.3,0.35L1.45 0.3L1.5 0.3L1.55 0.25L1.65 0.25L0.4 0.9L-0.45 0.85L-1.1 0.55L-1.55 0.3L-1.45 0.3L-1.3 0.4L-1.25 0.45L-1.25 0.4L-0.95 0.5L0.25 0.6L1.3 0.35" />
<radialGradient
id="RadialGradID_1961" gradientUnits="userSpaceOnUse" gradientTransform="matrix(0.00157166, 0.000396729, -6.10352e-005, 0.000411987, -0.8, -0.25)" spreadMethod ="pad" cx="0" cy="0" r="819.2" fx="0" fy="0" >
<stop  offset="0.313725"  style="stop-color:#FFFFFF;stop-opacity:0.443137" />
<stop  offset="1"  style="stop-color:#FFFFFF;stop-opacity:0" />
</radialGradient>
<path style="fill:url(#RadialGradID_1961) " d="M0,0.3L-0.9 0.2L-1.85 -0.15L-2.15 -0.45L-1.8 -0.7L-0.8 -0.55L0.1 -0.2L0.45 0.15L0 0.3" />
<radialGradient
id="RadialGradID_1962" gradientUnits="userSpaceOnUse" gradientTransform="matrix(0.000701904, -0.000137329, 0.000213623, 0.000457764, 1.05, -1.3)" spreadMethod ="pad" cx="0" cy="0" r="819.2" fx="0" fy="0" >
<stop  offset="0.313725"  style="stop-color:#FFFFFF;stop-opacity:0.282353" />
<stop  offset="1"  style="stop-color:#FFFFFF;stop-opacity:0" />
</radialGradient>
<path style="fill:url(#RadialGradID_1962) " d="M1.55,-1.2L1.2 -1L0.8 -1L0.55 -1.2L0.6 -1.4L1 -1.6L1.4 -1.6L1.65 -1.4L1.55 -1.2" />
<radialGradient
id="RadialGradID_1963" gradientUnits="userSpaceOnUse" gradientTransform="matrix(0.000411987, 7.62939e-005, -6.10352e-005, 0.000427246, 1.05, -0.2)" spreadMethod ="pad" cx="0" cy="0" r="819.2" fx="0" fy="0" >
<stop  offset="0.313725"  style="stop-color:#FFFFFF;stop-opacity:0.662745" />
<stop  offset="1"  style="stop-color:#FFFFFF;stop-opacity:0" />
</radialGradient>
<path style="fill:url(#RadialGradID_1963) " d="M1.1,-0.45L1.35 -0.35L1.4 -0.15L1.3 0L1.05 0L0.8 -0.1L0.75 -0.25L0.85 -0.4L1.1 -0.45" />
</g>
</svg>
