<?xml version="1.0" encoding="utf-8"?>
<svg version="1.1" id="Layer_1"
xmlns="http://www.w3.org/2000/svg"
xmlns:xlink="http://www.w3.org/1999/xlink"
xmlns:author="http://www.sothink.com"
width="7px" height="8px"
xml:space="preserve">
<g id="196" transform="matrix(1, 0, 0, 1, 3.1, 3.8)">
<radialGradient
id="RadialGradID_1979" gradientUnits="userSpaceOnUse" gradientTransform="matrix(0.00137329, 0.000183105, -0.000213623, 0.00123596, -0.3, -2.85)" spreadMethod ="pad" cx="0" cy="0" r="819.2" fx="0" fy="0" >
<stop  offset="0"  style="stop-color:#F15E1F;stop-opacity:0.423529" />
<stop  offset="1"  style="stop-color:#FFEFEA;stop-opacity:0" />
</radialGradient>
<path style="fill:url(#RadialGradID_1979) " d="M0.65,-3.45Q0.4 -2.6 0 -2.7L-0.45 -3L-0.5 -3.35L-0.25 -3.8Q-0.15 -3.35 0.65 -3.45" />
<radialGradient
id="RadialGradID_1980" gradientUnits="userSpaceOnUse" gradientTransform="matrix(0, -0.00254822, 0.00334167, 0, -0.05, 1.1)" spreadMethod ="pad" cx="0" cy="0" r="819.2" fx="0" fy="0" >
<stop  offset="0"  style="stop-color:#F15E1F;stop-opacity:0.423529" />
<stop  offset="0.368627"  style="stop-color:#F37C49;stop-opacity:0.337255" />
<stop  offset="1"  style="stop-color:#FFEFEA;stop-opacity:0" />
</radialGradient>
<path style="fill:url(#RadialGradID_1980) " d="M0.05,-0.45Q1.3 -0.4 2.2 0.3Q3 0.9 3 1.8Q2.95 2.7 2.15 3.35L-0.05 3.8Q-1.3 3.65 -2.1 3.1Q-3.05 2.3 -3.05 1.45Q-2.95 0.55 -2.05 0.05Q-1.2 -0.6 0.05 -0.45" />
<path style="fill:#D18E72;fill-opacity:1" d="M1.85,0.65L1.95 0.55L2 0.5L2.15 0.65Q1.05 1.45 0.55 1.45L-0.5 1.4Q-1 1.35 -1.3 1L-1.9 0.55L-1.85 0.55L-1.75 0.55L-1.75 0.65L-1.55 0.75L-1.5 0.8L-1.5 0.75L-1.1 0.9L0.4 1.05L1.7 0.7L1.85 0.65" />
<radialGradient
id="RadialGradID_1981" gradientUnits="userSpaceOnUse" gradientTransform="matrix(0.00462341, 6.10352e-005, -3.05176e-005, 0.00619507, 0.05, -1.05)" spreadMethod ="pad" cx="0" cy="0" r="819.2" fx="0" fy="0" >
<stop  offset="0.776471"  style="stop-color:#C16A46;stop-opacity:1" />
<stop  offset="1"  style="stop-color:#C16A46;stop-opacity:0.0235294" />
</radialGradient>
<path style="fill:url(#RadialGradID_1981) " d="M-3.1,-1.2L-2.15 -1.35L3.05 -1.35L3.15 -1.1L3.15 -1.05L3.05 -1.05L3 -1.1L-2.95 -1.1L-3.05 -1.05L-3.1 -1.1L-3.1 -1.2" />
<radialGradient
id="RadialGradID_1982" gradientUnits="userSpaceOnUse" gradientTransform="matrix(0.00520325, 0.000305176, -7.62939e-005, 0.00300598, 0.15, -0.7)" spreadMethod ="pad" cx="0" cy="0" r="819.2" fx="0" fy="0" >
<stop  offset="0.568627"  style="stop-color:#ED9B79;stop-opacity:1" />
<stop  offset="1"  style="stop-color:#FFFFFF;stop-opacity:0.192157" />
</radialGradient>
<path style="fill:url(#RadialGradID_1982) " d="M3.05,-1.35L-2.15 -1.35L-3.1 -1.2L-2.3 -2.5L-0.95 -2.7L-0.45 -2.65L1 -2.7Q2.55 -2.95 3.05 -1.35" />
<radialGradient
id="RadialGradID_1983" gradientUnits="userSpaceOnUse" gradientTransform="matrix(0.00531006, 0.00134277, -0.00062561, 0.0052948, -0.15, -3.2)" spreadMethod ="pad" cx="0" cy="0" r="819.2" fx="0" fy="0" >
<stop  offset="0.568627"  style="stop-color:#ED9B79;stop-opacity:1" />
<stop  offset="1"  style="stop-color:#FFCFBB;stop-opacity:0" />
</radialGradient>
<path style="fill:url(#RadialGradID_1983) " d="M3.1,-1L2.15 0.65L2 0.5L1.95 0.55L1.85 0.65L1.7 0.65L1.7 0.7L0.4 1.05L-1.1 0.9L-1.5 0.75L-1.5 0.8L-1.55 0.75L-1.75 0.65L-1.75 0.55L-1.85 0.55Q-2.7 0.1 -3.1 -1.1L-3.05 -1.05L-2.95 -1.1L3 -1.1L3.05 -1.05L3.1 -1" />
<radialGradient
id="RadialGradID_1984" gradientUnits="userSpaceOnUse" gradientTransform="matrix(0.00157166, 0.000473022, -6.10352e-005, 0.000488281, -0.75, -0.05)" spreadMethod ="pad" cx="0" cy="0" r="819.2" fx="0" fy="0" >
<stop  offset="0.313725"  style="stop-color:#FFFFFF;stop-opacity:0.443137" />
<stop  offset="1"  style="stop-color:#FFFFFF;stop-opacity:0" />
</radialGradient>
<path style="fill:url(#RadialGradID_1984) " d="M0.05,0.6L-0.85 0.5L-1.8 0.1L-2.1 -0.3L-1.75 -0.6L-0.75 -0.4L0.15 0.05L0.5 0.4Q0.5 0.6 0.05 0.6" />
<radialGradient
id="RadialGradID_1985" gradientUnits="userSpaceOnUse" gradientTransform="matrix(0.000701904, -0.000152588, 0.000213623, 0.000549316, 0.8, -1.85)" spreadMethod ="pad" cx="0" cy="0" r="819.2" fx="0" fy="0" >
<stop  offset="0.313725"  style="stop-color:#FFFFFF;stop-opacity:0.282353" />
<stop  offset="1"  style="stop-color:#FFFFFF;stop-opacity:0" />
</radialGradient>
<path style="fill:url(#RadialGradID_1985) " d="M1.15,-2.25L1.4 -2L1.3 -1.75L0.95 -1.55L0.55 -1.55L0.3 -1.75L0.35 -2L0.75 -2.25L1.15 -2.25" />
<radialGradient
id="RadialGradID_1986" gradientUnits="userSpaceOnUse" gradientTransform="matrix(0.000411987, 9.15527e-005, -6.10352e-005, 0.00050354, 0.8, -0.1)" spreadMethod ="pad" cx="0" cy="0" r="819.2" fx="0" fy="0" >
<stop  offset="0.313725"  style="stop-color:#FFFFFF;stop-opacity:0.662745" />
<stop  offset="1"  style="stop-color:#FFFFFF;stop-opacity:0" />
</radialGradient>
<path style="fill:url(#RadialGradID_1986) " d="M0.85,-0.4L1.1 -0.3L1.15 -0.05L1.05 0.15L0.8 0.15L0.55 0.05L0.5 -0.15L0.6 -0.35L0.85 -0.4" />
</g>
</svg>
