<?xml version="1.0" encoding="utf-8"?>
<svg version="1.1" id="Layer_1"
xmlns="http://www.w3.org/2000/svg"
xmlns:xlink="http://www.w3.org/1999/xlink"
xmlns:author="http://www.sothink.com"
width="9px" height="4px"
xml:space="preserve">
<g id="211" transform="matrix(1, 0, 0, 1, -65.7, -38.65)">
<radialGradient
id="RadialGradID_2091" gradientUnits="userSpaceOnUse" gradientTransform="matrix(0, -0.00131226, 0.00489807, -0.000762939, 70.35, 40.55)" spreadMethod ="pad" cx="0" cy="0" r="819.2" fx="6" fy="0" >
<stop  offset="0.568627"  style="stop-color:#ED9B79;stop-opacity:1" />
<stop  offset="1"  style="stop-color:#ED9A78;stop-opacity:0.333333" />
</radialGradient>
<path style="fill:url(#RadialGradID_2091) " d="M71.7,39.25L71.8 39.3L72 39.35L73.6 39.55L74.25 39.65L73.95 39.85L73.7 39.9L73.55 39.9L72.85 39.85L72.65 39.85L72.15 39.8L71.6 39.8L71.7 39.8L71.7 39.25" />
<radialGradient
id="RadialGradID_2092" gradientUnits="userSpaceOnUse" gradientTransform="matrix(0.00595093, -0.000930786, 0, 0.00486755, 70.4, 40.35)" spreadMethod ="pad" cx="0" cy="0" r="819.2" fx="210518" fy="0" >
<stop  offset="0.776471"  style="stop-color:#C16A46;stop-opacity:1" />
<stop  offset="1"  style="stop-color:#C16A46;stop-opacity:0.0235294" />
</radialGradient>
<path style="fill:url(#RadialGradID_2092) " d="M74.45,39.45L74.65 39.5L74.7 39.6L74.5 39.95L74.2 40.05L74.2 40L74.15 40.05L74.05 40.1L74 40.1L73.6 40.45L73.4 40.6L73.25 40.65L73.3 40.6L73.35 40.55L73.4 40.55L73.4 40.45L73.45 40.45L73.4 40.4L73.35 40.4L73.35 40.3L73.35 40.2L72.35 40L71.8 40.05L71.6 40.05L71.55 39.8L71.7 39.8L71.6 39.8L72.15 39.8L72.65 39.85L72.85 39.85L73.55 39.9L73.7 39.9L73.95 39.85L74.25 39.65L74.45 39.45" />
<radialGradient
id="RadialGradID_2093" gradientUnits="userSpaceOnUse" gradientTransform="matrix(-0.000213623, -0.00216675, 0.00463867, -0.000228882, 70.35, 40.95)" spreadMethod ="pad" cx="0" cy="0" r="819.2" fx="6" fy="0" >
<stop  offset="0.568627"  style="stop-color:#ED9B79;stop-opacity:1" />
<stop  offset="1"  style="stop-color:#ED9A78;stop-opacity:0.243137" />
</radialGradient>
<path style="fill:url(#RadialGradID_2093) " d="M73.2,40.75L73.25 40.7L73.25 40.65L73.4 40.6L73.6 40.45L74 40.1L74.05 40.1L74.15 40.05L74.2 40L74.2 40.05L74.15 40.2L74 40.5L73.95 40.6L73.95 40.65L73.9 40.7L73.85 40.75L73.2 40.75M66.5,40.75L66.45 40.75L66.4 40.6L66.35 40.45Q66.2 40.25 66.2 40.05L66.25 40.05L66.4 40.1L66.5 40.15L66.5 40.2L67.1 40.6L67.15 40.65L67.25 40.7L67.3 40.75L66.5 40.75M67.35,40.6L67.3 40.55L67.35 40.55L67.35 40.6" />
<path style="fill:#C26945;fill-opacity:0.752941" d="M67.35,40.55L67.35 40.5L67.4 40.5L67.7 40.6L67.95 40.7L68.1 40.75L68.3 40.75L68.55 40.8L68.8 40.85L69.05 40.9L71.7 40.9L71.9 40.85L72.35 40.75L72.55 40.75L72.65 40.7L72.9 40.6L73.35 40.4L73.4 40.4L73.45 40.45L73.4 40.45L73.4 40.55L73.35 40.55L73.2 40.6L73 40.7L72.9 40.75L72.7 40.75L72.35 40.85L71.7 41L69.05 41L68.55 40.9L68.35 40.85L68.25 40.85L67.75 40.75L67.6 40.7L67.4 40.6L67.35 40.6L67.35 40.55" />
<path style="fill:#FFFFFF;fill-opacity:1" d="M71.6,40.05L71.8 40.05L72.35 40L73.35 40.2L73.35 40.3L73.35 40.4L72.9 40.6L72.65 40.7L72.55 40.75L72.35 40.75L71.9 40.85L71.7 40.9L69.05 40.9L68.8 40.85L68.55 40.8L68.3 40.75L68.1 40.75L67.95 40.7L67.7 40.6L67.4 40.5L67.35 40.5L67.35 40.55L67.3 40.55L67.3 40.45L67.3 40.25L67.55 40.2L68.55 40.1L68.85 40.1L69.05 40.1L69.75 40.25L69.7 40.25L69.85 40.25L69.9 40.25L70 40.25L69.9 40.25L70.05 40.3L69.95 40.25L70.1 40.3L70.05 40.3L70.1 40.3L70.15 40.3L70.25 40.3L70.75 40.25L71.15 40.15L71.45 40.05L71.6 40.05M73.25,40.7L73.2 40.75L72.95 40.85L73 40.85L72.9 40.9L72.8 40.95L72.3 41.15L71.7 41.3L71.1 41.35L69.9 41.3L69.25 41.25L69.05 41.25L68.55 41.15L67.65 40.85L67.45 40.75L67.35 40.75L67.35 40.7L67.35 40.6L67.4 40.6L67.6 40.7L67.75 40.75L68.25 40.85L68.35 40.85L68.55 40.9L69.05 41L71.7 41L72.35 40.85L72.7 40.75L72.9 40.75L73 40.7L73.2 40.6L73.35 40.55L73.3 40.6L73.25 40.65L73.25 40.7" />
<radialGradient
id="RadialGradID_2094" gradientUnits="userSpaceOnUse" gradientTransform="matrix(-0.000213623, -0.00158691, 0.00463867, -0.000167847, 70.35, 40.85)" spreadMethod ="pad" cx="0" cy="0" r="819.2" fx="6" fy="0" >
<stop  offset="0.568627"  style="stop-color:#ED9B79;stop-opacity:1" />
<stop  offset="1"  style="stop-color:#ED9A78;stop-opacity:0.243137" />
</radialGradient>
<path style="fill:url(#RadialGradID_2094) " d="M67.3,41.7L66.95 41.45L66.55 40.85L66.5 40.75L67.3 40.75L67.35 40.75L67.45 40.75L67.65 40.85L68.55 41.15L69.05 41.25L69.25 41.25L69.9 41.3L71.1 41.35L71.7 41.3L72.3 41.15L72.8 40.95L72.9 40.9L73 40.85L72.95 40.85L73.2 40.75L73.85 40.75L73.75 40.85L73.6 41.05L73.55 41.1L72.95 41.85L72.45 42.1L72.2 42.15L71.7 42.3L71.55 42.35L69.9 42.45L69.65 42.45Q69.25 42.45 69.5 42.5L69.05 42.4L68.85 42.35L68.6 42.3L68.55 42.3L68.15 42.15L67.95 42.05L67.3 41.7" />
<radialGradient
id="RadialGradID_2095" gradientUnits="userSpaceOnUse" gradientTransform="matrix(0, -0.00131226, 0.00489807, 0.000610352, 70.35, 40.45)" spreadMethod ="pad" cx="0" cy="0" r="819.2" fx="6" fy="0" >
<stop  offset="0.568627"  style="stop-color:#ED9B79;stop-opacity:1" />
<stop  offset="1"  style="stop-color:#ED9A78;stop-opacity:0.333333" />
</radialGradient>
<path style="fill:url(#RadialGradID_2095) " d="M69,39.9L67.25 40L66.7 39.9L66.65 39.9L66.45 39.75L66.45 39.7L66.5 39.7L67.1 39.65L67.15 39.65L67.55 39.6L68.55 39.4L68.85 39.35L69.05 39.3L69 39.9" />
<radialGradient
id="RadialGradID_2096" gradientUnits="userSpaceOnUse" gradientTransform="matrix(0.00595093, 0.000732422, 0, 0.00486755, 70.4, 40.25)" spreadMethod ="pad" cx="0" cy="0" r="819.2" fx="210518" fy="0" >
<stop  offset="0.776471"  style="stop-color:#C16A46;stop-opacity:1" />
<stop  offset="1"  style="stop-color:#C16A46;stop-opacity:0.0235294" />
</radialGradient>
<path style="fill:url(#RadialGradID_2096) " d="M67.3,40.75L67.25 40.7L67.15 40.65L67.1 40.6L66.5 40.2L66.5 40.15L66.4 40.1L66.25 40.05L66.2 40.05L65.7 39.7Q65.65 39.55 65.95 39.5L66.5 39.7L66.45 39.7L66.45 39.75L66.65 39.9L66.7 39.9L67.25 40L69 39.9L69.05 40.1L68.85 40.1L68.55 40.1L67.55 40.2L67.3 40.25L67.3 40.45L67.3 40.55L67.35 40.6L67.35 40.7L67.35 40.75L67.3 40.75" />
<path style="fill:#D18E72;fill-opacity:1" d="M67.95,42.05L68.15 42.15L68.55 42.3L68.6 42.3L68.85 42.35L69.05 42.4L69.5 42.5Q69.25 42.45 69.65 42.45L69.9 42.45L71.55 42.35L71.7 42.3L72.2 42.15L72.45 42.1L72.95 41.85L73.3 41.6L72.8 41.95L72.7 42.05L72.2 42.25L71.8 42.4L71.7 42.45L70.85 42.55L69.65 42.6L69.2 42.5L69.05 42.5L68.85 42.4L68.55 42.35L68.2 42.2L67.6 41.9L67.3 41.7L67.95 42.05" />
<radialGradient
id="RadialGradID_2097" gradientUnits="userSpaceOnUse" gradientTransform="matrix(0, -0.00131226, 0.00489807, 0, 70.35, 40.35)" spreadMethod ="pad" cx="0" cy="0" r="819.2" fx="6" fy="0" >
<stop  offset="0.568627"  style="stop-color:#ED9B79;stop-opacity:1" />
<stop  offset="1"  style="stop-color:#ED9A78;stop-opacity:0.333333" />
</radialGradient>
<path style="fill:url(#RadialGradID_2097) " d="M69,39.9L69.05 39.3L69.25 39.25L69.55 39.25L69.85 39.3L70.2 39.4L70.45 39.4L70.65 39.35L71 39.3L71.65 39.25L71.7 39.25L71.7 39.8L71.55 39.8L71.15 39.9L70.8 40L70.45 40.15L70.2 40.2L69.9 40.15L69.3 39.95L69 39.9M69.95,40.25L69.9 40.25L69.95 40.25M70.25,40.3L70.2 40.3L70.25 40.3" />
<radialGradient
id="RadialGradID_2098" gradientUnits="userSpaceOnUse" gradientTransform="matrix(0.00595093, 0, 0, 0.00486755, 70.4, 40.15)" spreadMethod ="pad" cx="0" cy="0" r="819.2" fx="210518" fy="0" >
<stop  offset="0.776471"  style="stop-color:#C16A46;stop-opacity:1" />
<stop  offset="1"  style="stop-color:#C16A46;stop-opacity:0.0235294" />
</radialGradient>
<path style="fill:url(#RadialGradID_2098) " d="M71.45,40.05L71.15 40.15L70.75 40.25L70.25 40.3L70.2 40.3L70.25 40.3L70.15 40.3L70.1 40.3L70.05 40.3L70.1 40.3L69.95 40.25L70.05 40.3L69.9 40.25L70 40.25L69.9 40.25L69.85 40.25L69.7 40.25L69.75 40.25L69.05 40.1L69 39.9L69.3 39.95L69.9 40.15L70.2 40.2L70.45 40.15L70.8 40L71.15 39.9L71.55 39.8L71.6 40.05L71.45 40.05M69.9,40.25L69.95 40.25L69.9 40.25" />
<radialGradient
id="RadialGradID_2099" gradientUnits="userSpaceOnUse" gradientTransform="matrix(0, -0.000442505, 0.00288391, 0, 70.3, 41.45)" spreadMethod ="pad" cx="0" cy="0" r="819.2" fx="0" fy="0" >
<stop  offset="0"  style="stop-color:#FFFFFF;stop-opacity:0.843137" />
<stop  offset="1"  style="stop-color:#FFFFFF;stop-opacity:0" />
</radialGradient>
<path style="fill:url(#RadialGradID_2099) " d="M67.5,41.25L67.85 41.15L68.2 41.2L68.8 41.3L71.15 41.35L73.1 41.05Q72.75 41.45 71.05 41.6L68.55 41.6L67.9 41.5L67.5 41.25" />
<radialGradient
id="RadialGradID_2100" gradientUnits="userSpaceOnUse" gradientTransform="matrix(0.00119019, 0, 0, 0.000549316, 69.9, 39.65)" spreadMethod ="pad" cx="0" cy="0" r="819.2" fx="210508" fy="0" >
<stop  offset="0"  style="stop-color:#FFFFFF;stop-opacity:0.572549" />
<stop  offset="1"  style="stop-color:#FFFFFF;stop-opacity:0" />
</radialGradient>
<path style="fill:url(#RadialGradID_2100) " d="M70.1,39.7L70.25 39.95L68.25 39.8Q68.3 39.65 68.65 39.55L69.4 39.5L70.1 39.7" />
<radialGradient
id="RadialGradID_2101" gradientUnits="userSpaceOnUse" gradientTransform="matrix(0.00111389, 0.000106812, -0.000183105, 0.000717163, 70, 39.2)" spreadMethod ="pad" cx="0" cy="0" r="819.2" fx="0" fy="0" >
<stop  offset="0"  style="stop-color:#F15E1F;stop-opacity:0.423529" />
<stop  offset="1"  style="stop-color:#FFEFEA;stop-opacity:0" />
</radialGradient>
<path style="fill:url(#RadialGradID_2101) " d="M70.8,38.85L70.75 38.95Q70.6 39.35 70.25 39.3Q69.9 39.2 69.9 39.1L69.85 38.95L69.85 38.9L70.05 38.65Q70.1 38.9 70.8 38.85" />
</g>
</svg>
