<?xml version="1.0" encoding="utf-8"?>
<svg version="1.1" id="Layer_1"
xmlns="http://www.w3.org/2000/svg"
xmlns:xlink="http://www.w3.org/1999/xlink"
xmlns:author="http://www.sothink.com"
width="8px" height="4px"
xml:space="preserve">
<g id="214" transform="matrix(1, 0, 0, 1, 3.7, 1.95)">
<radialGradient
id="RadialGradID_2111" gradientUnits="userSpaceOnUse" gradientTransform="matrix(0.000900269, -0.000762939, -0.0010376, -0.00100708, -2.85, -0.85)" spreadMethod ="pad" cx="0" cy="0" r="819.2" fx="0" fy="0" >
<stop  offset="0"  style="stop-color:#D9521C;stop-opacity:0.552941" />
<stop  offset="1"  style="stop-color:#FFEFEA;stop-opacity:0" />
</radialGradient>
<path style="fill:url(#RadialGradID_2111) " d="M-2.95,-1.6Q-2.6 -1.6 -2.35 -1.35L-2 -0.75L-2.2 -0.2L-2.8 -0.05Q-3.2 -0.15 -3.4 -0.35L-3.7 -0.95L-3.5 -1.5L-2.95 -1.6" />
<radialGradient
id="RadialGradID_2112" gradientUnits="userSpaceOnUse" gradientTransform="matrix(-0.000900269, -0.000762939, 0.0010376, -0.00100708, 2.85, -0.8)" spreadMethod ="pad" cx="0" cy="0" r="819.2" fx="0" fy="0" >
<stop  offset="0"  style="stop-color:#D9521C;stop-opacity:0.552941" />
<stop  offset="1"  style="stop-color:#FFEFEA;stop-opacity:0" />
</radialGradient>
<path style="fill:url(#RadialGradID_2112) " d="M2.95,-1.55Q2.6 -1.55 2.35 -1.3L2 -0.7L2.2 -0.15L2.8 0Q3.2 -0.1 3.4 -0.3L3.7 -0.9L3.5 -1.45L2.95 -1.55" />
<radialGradient
id="RadialGradID_2113" gradientUnits="userSpaceOnUse" gradientTransform="matrix(-0.000228882, -0.00193787, -0.00386047, 0.000244141, -0.15, 0.7)" spreadMethod ="pad" cx="0" cy="0" r="819.2" fx="0" fy="0" >
<stop  offset="0.0666667"  style="stop-color:#E37653;stop-opacity:0.662745" />
<stop  offset="1"  style="stop-color:#FFEFEA;stop-opacity:0" />
</radialGradient>
<path style="fill:url(#RadialGradID_2113) " d="M-2.55,0.95Q-2.6 0.4 -1.9 0.05L-0.3 -0.4L1.5 -0.2Q2.15 0.1 2.25 0.6Q2.3 1.15 1.7 1.55L-0.05 2L-1.7 1.8Q-2.55 1.45 -2.55 0.95" />
<radialGradient
id="RadialGradID_2114" gradientUnits="userSpaceOnUse" gradientTransform="matrix(0.00395203, 0, 0, 0.00192261, -0.15, -0.8)" spreadMethod ="pad" cx="0" cy="0" r="819.2" fx="0" fy="0" >
<stop  offset="0.0941176"  style="stop-color:#E8795A;stop-opacity:1" />
<stop  offset="0.611765"  style="stop-color:#FAA18C;stop-opacity:0.8" />
<stop  offset="1"  style="stop-color:#FCD2B2;stop-opacity:0.713725" />
</radialGradient>
<path style="fill:url(#RadialGradID_2114) " d="M-2.5,-0.7L-0.6 -0.75L0.5 -0.75L2.4 -0.7L2.7 -0.75L1.95 -0.05L-0.05 0.4L-0.15 0.4L-2.15 -0.05L-2.85 -0.75L-2.5 -0.7" />
<path style="fill:#964A46;fill-opacity:1" d="M2.9,-1.05L2.9 -0.9L2.7 -0.75L2.4 -0.7L0.5 -0.75L-0.6 -0.75L-2.5 -0.7L-2.85 -0.75L-3 -0.9L-3 -1.05L-2.5 -0.95L-0.75 -1.15L-0.5 -1.2L0.4 -1.2L2.4 -0.95L2.9 -1.05" />
<radialGradient
id="RadialGradID_2115" gradientUnits="userSpaceOnUse" gradientTransform="matrix(0.00436401, 0, 0, 0.00228882, -0.25, -0.75)" spreadMethod ="pad" cx="0" cy="0" r="819.2" fx="0" fy="0" >
<stop  offset="0.207843"  style="stop-color:#ED846F;stop-opacity:1" />
<stop  offset="0.662745"  style="stop-color:#FAA18C;stop-opacity:0.592157" />
<stop  offset="1"  style="stop-color:#FCD2B2;stop-opacity:0.713725" />
</radialGradient>
<path style="fill:url(#RadialGradID_2115) " d="M2.4,-0.95L0.4 -1.2L-0.5 -1.2L-0.75 -1.15L-2.5 -0.95L-3 -1.05Q-2.45 -1.05 -1.85 -1.5L-1.05 -1.95L-0.1 -1.7L0.85 -1.95L1.65 -1.5Q2.25 -1.05 2.9 -1.05L2.4 -0.95" />
<radialGradient
id="RadialGradID_2116" gradientUnits="userSpaceOnUse" gradientTransform="matrix(-0.00466919, 0.000488281, 0.000534058, 0.00152588, 1.45, -0.75)" spreadMethod ="pad" cx="0" cy="0" r="819.2" fx="0" fy="0" >
<stop  offset="0"  style="stop-color:#FFFFFF;stop-opacity:0.843137" />
<stop  offset="1"  style="stop-color:#FFFFFF;stop-opacity:0" />
</radialGradient>
<path style="fill:url(#RadialGradID_2116) " d="M-1.75,-0.5L1.65 -0.5Q1.85 -0.15 1.15 -0.1L-0.75 0Q-2 0.05 -1.75 -0.5" />
</g>
</svg>
