<?xml version="1.0" encoding="utf-8"?>
<svg version="1.1" id="Layer_1"
xmlns="http://www.w3.org/2000/svg"
xmlns:xlink="http://www.w3.org/1999/xlink"
xmlns:author="http://www.sothink.com"
width="11px" height="6px"
xml:space="preserve">
<g id="220" transform="matrix(1, 0, 0, 1, 5.2, 2.95)">
<radialGradient
id="RadialGradID_2162" gradientUnits="userSpaceOnUse" gradientTransform="matrix(0.00012207, -0.00231934, -0.00605774, -0.000228882, 0.3, 1.5)" spreadMethod ="pad" cx="0" cy="0" r="819.2" fx="0" fy="0" >
<stop  offset="0"  style="stop-color:#F15E1F;stop-opacity:0.423529" />
<stop  offset="1"  style="stop-color:#FFEFEA;stop-opacity:0" />
</radialGradient>
<path style="fill:url(#RadialGradID_2162) " d="M-3.5,1.4Q-3.5 0.8 -2.25 0.5L0.4 0.15L3.1 0.65Q4.1 1.05 4.1 1.7Q4 2.25 3 2.7L0.2 3L-2.4 2.55Q-3.55 2 -3.5 1.4" />
<radialGradient
id="RadialGradID_2163" gradientUnits="userSpaceOnUse" gradientTransform="matrix(0.00134277, 3.05176e-005, -3.05176e-005, 0.00115967, 4.4, -0.75)" spreadMethod ="pad" cx="0" cy="0" r="819.2" fx="0" fy="0" >
<stop  offset="0"  style="stop-color:#DB8D67;stop-opacity:0.772549" />
<stop  offset="1"  style="stop-color:#FFDEC2;stop-opacity:0" />
</radialGradient>
<path style="fill:url(#RadialGradID_2163) " d="M5.05,-1.3L5.25 -0.75L5 -0.25Q4.8 -0.05 4.45 -0.05Q4.05 -0.05 3.85 -0.3Q3.6 -0.45 3.65 -0.8L3.85 -1.3Q4.1 -1.55 4.45 -1.5L5.05 -1.3" />
<radialGradient
id="RadialGradID_2164" gradientUnits="userSpaceOnUse" gradientTransform="matrix(0.00134277, 3.05176e-005, -3.05176e-005, 0.00115967, -4.4, -0.75)" spreadMethod ="pad" cx="0" cy="0" r="819.2" fx="0" fy="0" >
<stop  offset="0"  style="stop-color:#DB8D67;stop-opacity:0.772549" />
<stop  offset="1"  style="stop-color:#FFDEC2;stop-opacity:0" />
</radialGradient>
<path style="fill:url(#RadialGradID_2164) " d="M-4.35,-0.05Q-4.75 -0.05 -5 -0.3L-5.2 -0.8L-4.95 -1.35L-4.35 -1.5L-3.75 -1.3L-3.5 -0.75Q-3.5 -0.4 -3.75 -0.25L-4.35 -0.05" />
<path style="fill:#FFFFFF;fill-opacity:1" d="M1.7,0.1L-2.2 0L-2.25 0L-2.55 -0.45L-2.4 -0.5L-2.2 -0.5L0.2 -0.4L1.7 -0.55L2.9 -0.45L2.6 0L2.55 0L1.7 0.1M2.4,0.1L1.7 0.3L0.15 0.5Q-1.2 0.5 -2 0.1L1.7 0.2L2.4 0.1" />
<path style="fill:#BDBDBD;fill-opacity:1" d="M1.7,0.2L-2 0.1L-2.2 0L1.7 0.1L2.55 0L2.4 0.1L1.7 0.2" />
<radialGradient
id="RadialGradID_2165" gradientUnits="userSpaceOnUse" gradientTransform="matrix(0.00613403, 0, 0, 0.0027771, -0.15, -0.25)" spreadMethod ="pad" cx="0" cy="0" r="819.2" fx="6" fy="0" >
<stop  offset="0.313725"  style="stop-color:#ED9B79;stop-opacity:1" />
<stop  offset="1"  style="stop-color:#FFCFBB;stop-opacity:0" />
</radialGradient>
<path style="fill:url(#RadialGradID_2165) " d="M3.55,-0.7L3.5 -0.7L3.45 -0.65L3.4 -0.65L3.3 -0.65L2.75 -0.6L1.7 -0.65L1 -0.65L0.75 -0.65L0.15 -0.5L-0.1 -0.6L-0.45 -0.65L-0.6 -0.65L-1.35 -0.65L-1.4 -0.65L-1.65 -0.6L-1.85 -0.6L-2.2 -0.6L-2.4 -0.6L-2.45 -0.6L-2.6 -0.6L-2.95 -0.65L-3.15 -0.7L-3.25 -0.7L-3.5 -0.8L-3 -0.85L-2.4 -1L-2.2 -1.05L-1 -1.35L-0.3 -1.2L0.15 -0.95L0.6 -1.2L1.25 -1.35L1.7 -1.25L3.3 -0.85L3.8 -0.8L3.55 -0.7" />
<radialGradient
id="RadialGradID_2166" gradientUnits="userSpaceOnUse" gradientTransform="matrix(0.00575256, 0, 0, 0.00517273, 0.15, -0.05)" spreadMethod ="pad" cx="0" cy="0" r="819.2" fx="210518" fy="0" >
<stop  offset="0.776471"  style="stop-color:#C16A46;stop-opacity:1" />
<stop  offset="1"  style="stop-color:#C16A46;stop-opacity:0.0235294" />
</radialGradient>
<path style="fill:url(#RadialGradID_2166) " d="M-3.15,-0.7L-2.95 -0.65L-2.6 -0.6L-2.45 -0.6L-2.4 -0.6L-2.2 -0.6L-1.85 -0.6L-1.65 -0.6L-1.4 -0.65L-1.35 -0.65L-0.6 -0.65L-0.45 -0.65L-0.1 -0.6L0.15 -0.5L0.75 -0.65L1 -0.65L1.7 -0.65L2.75 -0.6L3.3 -0.65L3.4 -0.65L3.45 -0.65L3.5 -0.7L3.55 -0.7L3.8 -0.8L4.6 -0.95L4.5 -0.6L4 -0.2L3.65 -0.1L3.65 -0.05L1.7 0.45L1.6 0.45L1.4 0.45L1 0.5L0.2 0.55L-0.6 0.5L-1.15 0.45L-1.4 0.45L-1.65 0.35L-1.85 0.3L-1.9 0.35L-2.2 0.25L-2.4 0.2L-3.15 -0.05L-3.5 -0.15L-3.55 -0.15L-3.7 -0.2L-4 -0.3L-4.15 -0.6L-4.2 -0.7L-4.3 -0.95L-3.55 -0.8L-3.5 -0.8L-3.25 -0.7L-3.15 -0.7M-2,0.1Q-1.2 0.5 0.15 0.5L1.7 0.3L2.4 0.1L2.55 0L2.6 0L2.9 -0.45L1.7 -0.55L0.2 -0.4L-2.2 -0.5L-2.4 -0.5L-2.55 -0.45L-2.25 0L-2.2 0L-2 0.1" />
<radialGradient
id="RadialGradID_2167" gradientUnits="userSpaceOnUse" gradientTransform="matrix(0, -0.00357056, 0.00564575, 0, 0.15, -0.95)" spreadMethod ="pad" cx="0" cy="0" r="819.2" fx="6" fy="0" >
<stop  offset="0.568627"  style="stop-color:#ED9B79;stop-opacity:1" />
<stop  offset="1"  style="stop-color:#FFCFBB;stop-opacity:0" />
</radialGradient>
<path style="fill:url(#RadialGradID_2167) " d="M4,-0.2L3.6 0.25Q2.9 1.05 1.9 1.35L0.25 1.6Q-1.35 1.55 -2.45 0.85L-2.65 0.7L-2.85 0.5L-3.1 0.25L-3.5 -0.15L-3.15 -0.05L-2.4 0.2L-2.2 0.25L-1.9 0.35L-1.85 0.3L-1.65 0.35L-1.4 0.45L-1.15 0.45L-0.6 0.5L0.2 0.55L1 0.5L1.4 0.45L1.6 0.45L1.7 0.45L3.65 -0.05L3.65 -0.1L4 -0.2" />
<radialGradient
id="RadialGradID_2168" gradientUnits="userSpaceOnUse" gradientTransform="matrix(0.00160217, -0.000106812, 0, 0.00175476, 0.2, -1.75)" spreadMethod ="pad" cx="0" cy="0" r="819.2" fx="0" fy="0" >
<stop  offset="0.109804"  style="stop-color:#F15E1F;stop-opacity:0.423529" />
<stop  offset="1"  style="stop-color:#FFEFEA;stop-opacity:0" />
</radialGradient>
<path style="fill:url(#RadialGradID_2168) " d="M0.7,-2.8L0.75 -1.85L0.2 -1.25L0.1 -1.35L-0.35 -1.95L-0.35 -2.45L-0.35 -2.55L-0.35 -2.8L0.45 -2.85L0.7 -2.8" />
<path style="fill:#D18E72;fill-opacity:1" d="M-1.8,1.2L-1.75 1.25L-0.35 1.55L0.75 1.55L0.9 1.55L1.9 1.4L2.7 1.1L2.3 1.3L1.7 1.75L1.65 1.8L0.85 1.95L-0.3 1.95L-1.2 1.7L-1.65 1.35L-1.8 1.3L-1.7 1.3L-2.1 1.05L-1.8 1.2" />
<radialGradient
id="RadialGradID_2169" gradientUnits="userSpaceOnUse" gradientTransform="matrix(0, -0.000640869, 0.00230408, 0, 0.45, 1.05)" spreadMethod ="pad" cx="0" cy="0" r="819.2" fx="0" fy="0" >
<stop  offset="0"  style="stop-color:#FFFFFF;stop-opacity:0.843137" />
<stop  offset="1"  style="stop-color:#FFFFFF;stop-opacity:0" />
</radialGradient>
<path style="fill:url(#RadialGradID_2169) " d="M-1.45,1.05L-1.75 0.75L-1.5 0.6L-1.2 0.65L-0.75 0.8L1.15 0.9Q2.2 0.85 2.75 0.45Q2.4 1 1.1 1.2Q-0.1 1.4 -0.95 1.2L-1.45 1.05" />
</g>
</svg>
