<?xml version="1.0" encoding="utf-8"?>
<svg version="1.1" id="Layer_1"
xmlns="http://www.w3.org/2000/svg"
xmlns:xlink="http://www.w3.org/1999/xlink"
xmlns:author="http://www.sothink.com"
width="11px" height="6px"
xml:space="preserve">
<g id="223" transform="matrix(1, 0, 0, 1, 5.1, 2.85)">
<radialGradient
id="RadialGradID_2184" gradientUnits="userSpaceOnUse" gradientTransform="matrix(0.000442505, -0.00131226, -0.00172424, -0.000518799, 4.05, -0.6)" spreadMethod ="pad" cx="0" cy="0" r="819.2" fx="0" fy="0" >
<stop  offset="0"  style="stop-color:#F15E1F;stop-opacity:0.423529" />
<stop  offset="1"  style="stop-color:#FFEFEA;stop-opacity:0" />
</radialGradient>
<path style="fill:url(#RadialGradID_2184) " d="M5,-0.9Q5.2 -0.6 5.05 -0.2L4.55 0.25L3.7 0.25L3.1 -0.15Q2.8 -0.55 2.95 -0.9L3.45 -1.35L4.25 -1.35L5 -0.9" />
<radialGradient
id="RadialGradID_2185" gradientUnits="userSpaceOnUse" gradientTransform="matrix(0.000213623, -0.00227356, -0.00489807, -0.000320435, -0.1, 1.4)" spreadMethod ="pad" cx="0" cy="0" r="819.2" fx="0" fy="0" >
<stop  offset="0"  style="stop-color:#F15E1F;stop-opacity:0.423529" />
<stop  offset="1"  style="stop-color:#FFEFEA;stop-opacity:0" />
</radialGradient>
<path style="fill:url(#RadialGradID_2185) " d="M2.2,0.6Q2.95 1 2.95 1.65Q2.85 2.2 2 2.6L-0.25 2.85L-2.3 2.35Q-3.3 1.8 -3.2 1.2Q-3.1 0.6 -2.1 0.3L0.05 0.05Q1.25 0.1 2.2 0.6" />
<radialGradient
id="RadialGradID_2186" gradientUnits="userSpaceOnUse" gradientTransform="matrix(0.000442505, -0.00131226, -0.00172424, -0.000518799, -4, -0.5)" spreadMethod ="pad" cx="0" cy="0" r="819.2" fx="0" fy="0" >
<stop  offset="0"  style="stop-color:#F15E1F;stop-opacity:0.423529" />
<stop  offset="1"  style="stop-color:#FFEFEA;stop-opacity:0" />
</radialGradient>
<path style="fill:url(#RadialGradID_2186) " d="M-3,-0.8Q-2.8 -0.5 -2.9 -0.15L-3.4 0.35L-4.3 0.35L-4.95 -0.1Q-5.2 -0.45 -5.05 -0.8L-4.5 -1.25L-3.7 -1.25L-3 -0.8" />
<path style="fill:#B16653;fill-opacity:1" d="M-0.05,0.05L-0.3 0.1L-1.1 -0.05L-2.05 -0.2L-3.15 -0.1L-3 -0.2L-3.85 -0.25L-3.75 -0.55L-3.65 -0.55L-3.3 -0.4L-2.85 -0.35L-2.3 -0.4L-1.6 -0.35L-0.9 -0.2L-0.3 -0.1L0.55 -0.2L1.3 -0.35L1.9 -0.3L2.85 -0.25L3.45 -0.35L3.6 -0.45L3.8 -0.5L4.25 -0.55Q4.1 -0.3 3.55 -0.15L1.95 -0.15L0.85 -0.05L-0.05 0.05" />
<radialGradient
id="RadialGradID_2187" gradientUnits="userSpaceOnUse" gradientTransform="matrix(0.00666809, 0, -6.10352e-005, 0.00190735, 0, -0.4)" spreadMethod ="pad" cx="0" cy="0" r="819.2" fx="0" fy="0" >
<stop  offset="0"  style="stop-color:#F09C87;stop-opacity:1" />
<stop  offset="1"  style="stop-color:#FCD4B3;stop-opacity:1" />
</radialGradient>
<path style="fill:url(#RadialGradID_2187) " d="M3.45,-0.35L2.85 -0.25L1.9 -0.3L1.3 -0.35L0.55 -0.2L-0.3 -0.1L-0.9 -0.2L-1.6 -0.35L-2.3 -0.4L-2.85 -0.35L-3.3 -0.4L-2.65 -0.85L-1.3 -1.1L-0.65 -1L-0.25 -0.9L0.2 -1L0.95 -1.1L1.8 -1.05L2.4 -0.95L2.75 -0.85L3.1 -0.7L3.6 -0.45L3.45 -0.35" />
<radialGradient
id="RadialGradID_2188" gradientUnits="userSpaceOnUse" gradientTransform="matrix(0.00492859, 0, -6.10352e-005, 0.00187683, -0.1, 0.15)" spreadMethod ="pad" cx="0" cy="0" r="819.2" fx="0" fy="0" >
<stop  offset="0"  style="stop-color:#F09C87;stop-opacity:1" />
<stop  offset="1"  style="stop-color:#FCD4B3;stop-opacity:1" />
</radialGradient>
<path style="fill:url(#RadialGradID_2188) " d="M-0.05,0.85L-0.05 0.05L0.85 -0.05L1.95 -0.15L3.55 -0.15L1.85 1L1.4 1.2Q-0.05 1.3 -0.05 0.85" />
<radialGradient
id="RadialGradID_2189" gradientUnits="userSpaceOnUse" gradientTransform="matrix(0.00387573, 0.00221252, -0.00175476, 0.00306702, -1.65, -0.5)" spreadMethod ="pad" cx="0" cy="0" r="819.2" fx="0" fy="0" >
<stop  offset="0"  style="stop-color:#F09C87;stop-opacity:1" />
<stop  offset="1"  style="stop-color:#FCD4B3;stop-opacity:1" />
</radialGradient>
<path style="fill:url(#RadialGradID_2189) " d="M1.4,1.2L0.5 1.4L-0.05 1.45L-0.55 1.45L-1.2 1.3L-1.45 1.25L-1.7 1.15L-1.75 1.1L-2.25 0.8L-2.75 0.25L-3.15 -0.1L-2.05 -0.2L-1.1 -0.05L-0.3 0.1L-0.05 0.05L-0.05 0.85Q-0.05 1.3 1.4 1.2" />
<linearGradient
id="LinearGradID_2190" gradientUnits="userSpaceOnUse" gradientTransform="matrix(0.000976563, 0.000183105, 0.000137329, -0.00062561, 0.6, 0.85)" spreadMethod ="pad" x1="-819.2" y1="0" x2="819.2" y2="0" >
<stop  offset="0" style="stop-color:#FFFFFF;stop-opacity:0.352941" />
<stop  offset="1" style="stop-color:#FFFFFF;stop-opacity:0" />
</linearGradient>
<path style="fill:url(#LinearGradID_2190) " d="M-0.15,0.75L-0.6 0.85L-0.35 1.05L0.6 0.95L1.55 0.7L1.15 0.7L0.5 0.75L-0.15 0.75" />
<linearGradient
id="LinearGradID_2191" gradientUnits="userSpaceOnUse" gradientTransform="matrix(0.000823975, 0.000579834, 0.00038147, -0.00050354, -1, 0.55)" spreadMethod ="pad" x1="-819.2" y1="0" x2="819.2" y2="0" >
<stop  offset="0" style="stop-color:#FFFFFF;stop-opacity:0.611765" />
<stop  offset="1" style="stop-color:#FFFFFF;stop-opacity:0" />
</linearGradient>
<path style="fill:url(#LinearGradID_2191) " d="M-0.9,0.45L-1.15 0.7L-1.8 0.55Q-2 -0.05 -1.7 0.2L-1.15 0.4L-0.9 0.45" />
<radialGradient
id="RadialGradID_2192" gradientUnits="userSpaceOnUse" gradientTransform="matrix(0.00202942, 0, 0, 0.00193787, -0.85, -1.75)" spreadMethod ="pad" cx="0" cy="0" r="819.2" fx="0" fy="0" >
<stop  offset="0"  style="stop-color:#F58B69;stop-opacity:0.490196" />
<stop  offset="1"  style="stop-color:#FFDEC2;stop-opacity:0" />
</radialGradient>
<path style="fill:url(#RadialGradID_2192) " d="M0.1,-1.5L0.05 -1.3L-0.15 -1.25L-0.45 -1.3L-0.6 -1.55L-0.15 -2.85L0.1 -1.5" />
</g>
</svg>
