<?xml version="1.0" encoding="utf-8"?>
<svg version="1.1" id="Layer_1"
xmlns="http://www.w3.org/2000/svg"
xmlns:xlink="http://www.w3.org/1999/xlink"
xmlns:author="http://www.sothink.com"
width="10px" height="5px"
xml:space="preserve">
<g id="218" transform="matrix(1, 0, 0, 1, 4.85, 2.3)">
<radialGradient
id="RadialGradID_2145" gradientUnits="userSpaceOnUse" gradientTransform="matrix(0.00840759, 0, 0, 0.00247192, 0.1, 0.7)" spreadMethod ="pad" cx="0" cy="0" r="819.2" fx="0" fy="0" >
<stop  offset="0.156863"  style="stop-color:#F25C1F;stop-opacity:0.313725" />
<stop  offset="1"  style="stop-color:#FFEFEA;stop-opacity:0" />
</radialGradient>
<path style="fill:url(#RadialGradID_2145) " d="M-4.45,0.7Q-4.45 0 -3.1 -0.45L0.1 -0.95L3.35 -0.45Q4.65 0 4.65 0.7Q4.65 1.4 3.35 1.85L0.1 2.35L-3.1 1.85Q-4.45 1.4 -4.45 0.7" />
<radialGradient
id="RadialGradID_2146" gradientUnits="userSpaceOnUse" gradientTransform="matrix(0.00144958, 0, 0, 0.00115967, 4, -1.25)" spreadMethod ="pad" cx="0" cy="0" r="819.2" fx="0" fy="0" >
<stop  offset="0"  style="stop-color:#F15E1F;stop-opacity:0.423529" />
<stop  offset="1"  style="stop-color:#FFEFEA;stop-opacity:0" />
</radialGradient>
<path style="fill:url(#RadialGradID_2146) " d="M4,-1.95L4.65 -1.75L4.9 -1.25L4.65 -0.75L4 -0.5Q3.65 -0.5 3.35 -0.75Q3.1 -0.95 3.1 -1.25L3.35 -1.75L4 -1.95" />
<radialGradient
id="RadialGradID_2147" gradientUnits="userSpaceOnUse" gradientTransform="matrix(0.00144958, 0, 0, 0.00115967, -3.95, -1.35)" spreadMethod ="pad" cx="0" cy="0" r="819.2" fx="0" fy="0" >
<stop  offset="0"  style="stop-color:#F15E1F;stop-opacity:0.423529" />
<stop  offset="1"  style="stop-color:#FFEFEA;stop-opacity:0" />
</radialGradient>
<path style="fill:url(#RadialGradID_2147) " d="M-3.05,-1.35Q-3.05 -1.05 -3.35 -0.8L-3.95 -0.6Q-4.35 -0.6 -4.6 -0.8L-4.85 -1.35L-4.6 -1.8L-3.95 -2.05L-3.35 -1.8L-3.05 -1.35" />
<radialGradient
id="RadialGradID_2148" gradientUnits="userSpaceOnUse" gradientTransform="matrix(0.00761414, 0.000564575, 0, 0.0020752, -0.15, -2.65)" spreadMethod ="pad" cx="0" cy="0" r="819.2" fx="6" fy="0" >
<stop  offset="0.447059"  style="stop-color:#ED9C7B;stop-opacity:1" />
<stop  offset="1"  style="stop-color:#FFCEBA;stop-opacity:0.580392" />
</radialGradient>
<path style="fill:url(#RadialGradID_2148) " d="M-0.95,-1.45L-1.45 -1.5L-2.05 -1.5L-2.85 -1.55L-3.85 -1.75L-2.55 -2L-1 -2.3Q-0.55 -2.25 0.05 -1.85L0.15 -1.95L0.1 -1.3L-0.95 -1.45" />
<radialGradient
id="RadialGradID_2149" gradientUnits="userSpaceOnUse" gradientTransform="matrix(0.00761414, -0.000518799, 0, 0.0020752, -0.15, -2.65)" spreadMethod ="pad" cx="0" cy="0" r="819.2" fx="6" fy="0" >
<stop  offset="0.447059"  style="stop-color:#ED9C7B;stop-opacity:1" />
<stop  offset="1"  style="stop-color:#FFCEBA;stop-opacity:0.580392" />
</radialGradient>
<path style="fill:url(#RadialGradID_2149) " d="M1.1,-2.3L2.6 -1.95L3.9 -1.7L2.9 -1.5L2.1 -1.5L1.55 -1.45L0.85 -1.4L0.1 -1.3L0.15 -1.95L1.1 -2.3" />
<radialGradient
id="RadialGradID_2150" gradientUnits="userSpaceOnUse" gradientTransform="matrix(0.00564575, 0.000427246, 0, 0.00500488, 0, -0.95)" spreadMethod ="pad" cx="0" cy="0" r="819.2" fx="210518" fy="0" >
<stop  offset="0.776471"  style="stop-color:#C16A46;stop-opacity:1" />
<stop  offset="1"  style="stop-color:#C16A46;stop-opacity:0.0235294" />
</radialGradient>
<path style="fill:url(#RadialGradID_2150) " d="M-3.7,-1.3Q-4.2 -1.35 -4.2 -1.9L-3.85 -1.75L-2.85 -1.55L-2.05 -1.5L-1.45 -1.5L-0.95 -1.45L0.1 -1.3L0.15 -1L0.05 -1L-1.75 -1.3L-2.75 -1.4L-3.7 -1.35L-3.7 -1.3" />
<radialGradient
id="RadialGradID_2151" gradientUnits="userSpaceOnUse" gradientTransform="matrix(0.00564575, -0.00038147, 0, 0.00500488, 0, -0.95)" spreadMethod ="pad" cx="0" cy="0" r="819.2" fx="210518" fy="0" >
<stop  offset="0.776471"  style="stop-color:#C16A46;stop-opacity:1" />
<stop  offset="1"  style="stop-color:#C16A46;stop-opacity:0.0235294" />
</radialGradient>
<path style="fill:url(#RadialGradID_2151) " d="M4.25,-1.85Q4.25 -1.35 3.8 -1.3L3.75 -1.3L2.85 -1.4L1.85 -1.25L0.15 -1L0.1 -1.3L0.85 -1.4L1.55 -1.45L2.1 -1.5L2.9 -1.5L3.9 -1.7L4.25 -1.85" />
<radialGradient
id="RadialGradID_2152" gradientUnits="userSpaceOnUse" gradientTransform="matrix(0.00585938, -0.000396729, 0, 0.00238037, 0, -2)" spreadMethod ="pad" cx="0" cy="0" r="819.2" fx="210521" fy="0" >
<stop  offset="0.552941"  style="stop-color:#ED9B79;stop-opacity:1" />
<stop  offset="0.768627"  style="stop-color:#F5AC90;stop-opacity:0.423529" />
<stop  offset="1"  style="stop-color:#ED9A78;stop-opacity:0.560784" />
</radialGradient>
<path style="fill:url(#RadialGradID_2152) " d="M0.15,0.2L0.15 -1L1.85 -1.25L2.85 -1.4L3.75 -1.3Q2.9 -0.05 0.15 0.2" />
<radialGradient
id="RadialGradID_2153" gradientUnits="userSpaceOnUse" gradientTransform="matrix(0.00585938, 0.000442505, 0, 0.00238037, 0, -2)" spreadMethod ="pad" cx="0" cy="0" r="819.2" fx="0" fy="0" >
<stop  offset="0.552941"  style="stop-color:#ED9B79;stop-opacity:1" />
<stop  offset="0.768627"  style="stop-color:#F5AC90;stop-opacity:0.423529" />
<stop  offset="1"  style="stop-color:#ED9A78;stop-opacity:0.560784" />
</radialGradient>
<path style="fill:url(#RadialGradID_2153) " d="M0,0.2Q-2.9 -0.05 -3.7 -1.35L-2.75 -1.4L-1.75 -1.3L0.05 -1L0.15 -1L0.15 0.2L0 0.2" />
<radialGradient
id="RadialGradID_2154" gradientUnits="userSpaceOnUse" gradientTransform="matrix(7.62939e-005, 0.000671387, -0.00476074, 0.000396729, 0.85, -0.85)" spreadMethod ="pad" cx="0" cy="0" r="819.2" fx="0" fy="0" >
<stop  offset="0"  style="stop-color:#FFFFFF;stop-opacity:0.521569" />
<stop  offset="1"  style="stop-color:#FFFFFF;stop-opacity:0" />
</radialGradient>
<path style="fill:url(#RadialGradID_2154) " d="M-0.2,-0.85L2.3 -1.1L2.65 -1.1Q3.35 -1.2 2.45 -0.7L-1.1 -0.5Q-3.1 -0.7 -2.25 -1.2L-0.2 -0.85" />
</g>
</svg>
