<?xml version="1.0" encoding="utf-8"?>
<svg version="1.1" id="Layer_1"
xmlns="http://www.w3.org/2000/svg"
xmlns:xlink="http://www.w3.org/1999/xlink"
xmlns:author="http://www.sothink.com"
width="9px" height="6px"
xml:space="preserve">
<g id="216" transform="matrix(1, 0, 0, 1, 4.45, 2.6)">
<radialGradient
id="RadialGradID_2123" gradientUnits="userSpaceOnUse" gradientTransform="matrix(0, -0.00198364, 0.00453186, 0, 0.15, 1.2)" spreadMethod ="pad" cx="0" cy="0" r="819.2" fx="0" fy="0" >
<stop  offset="0.188235"  style="stop-color:#F15E1F;stop-opacity:0.423529" />
<stop  offset="1"  style="stop-color:#FFEFEA;stop-opacity:0" />
</radialGradient>
<path style="fill:url(#RadialGradID_2123) " d="M-3.55,1.2Q-3.55 0.6 -2.45 0.2L0.15 -0.2L2.7 0.2Q3.8 0.6 3.8 1.2Q3.8 1.8 2.7 2.25L0.15 2.65L-2.45 2.25Q-3.55 1.8 -3.55 1.2" />
<radialGradient
id="RadialGradID_2124" gradientUnits="userSpaceOnUse" gradientTransform="matrix(0.00146484, 0, 0, 0.00125122, 3.55, -0.85)" spreadMethod ="pad" cx="0" cy="0" r="819.2" fx="0" fy="0" >
<stop  offset="0.188235"  style="stop-color:#F15E1F;stop-opacity:0.423529" />
<stop  offset="1"  style="stop-color:#FFEFEA;stop-opacity:0" />
</radialGradient>
<path style="fill:url(#RadialGradID_2124) " d="M4.25,-0.25L3.6 0Q3.2 -0.05 2.9 -0.25Q2.65 -0.5 2.65 -0.8Q2.65 -1.15 2.9 -1.35L3.6 -1.6L4.25 -1.35L4.5 -0.8L4.25 -0.25" />
<radialGradient
id="RadialGradID_2125" gradientUnits="userSpaceOnUse" gradientTransform="matrix(0.00146484, 0, 0, 0.00125122, -3.55, -0.85)" spreadMethod ="pad" cx="0" cy="0" r="819.2" fx="0" fy="0" >
<stop  offset="0.188235"  style="stop-color:#F15E1F;stop-opacity:0.423529" />
<stop  offset="1"  style="stop-color:#FFEFEA;stop-opacity:0" />
</radialGradient>
<path style="fill:url(#RadialGradID_2125) " d="M-3.55,0Q-3.95 -0.05 -4.2 -0.25L-4.45 -0.8L-4.2 -1.35L-3.55 -1.6L-2.9 -1.35Q-2.6 -1.15 -2.6 -0.8Q-2.6 -0.5 -2.9 -0.25L-3.55 0" />
<radialGradient
id="RadialGradID_2126" gradientUnits="userSpaceOnUse" gradientTransform="matrix(0.00210571, 0, 0, 0.00178528, -0.2, -1.6)" spreadMethod ="pad" cx="0" cy="0" r="819.2" fx="0" fy="0" >
<stop  offset="0"  style="stop-color:#F15E1F;stop-opacity:0.423529" />
<stop  offset="1"  style="stop-color:#FFEFEA;stop-opacity:0" />
</radialGradient>
<path style="fill:url(#RadialGradID_2126) " d="M0.35,-2.5L0.55 -2.4L1 -1.65L0.35 -1.25L0.2 -1.2L-0.55 -1.5L-0.4 -2.2L-0.35 -2.6L-0.05 -2.6L0.35 -2.5" />
<radialGradient
id="RadialGradID_2127" gradientUnits="userSpaceOnUse" gradientTransform="matrix(0, -0.00222778, 0.00593567, -0.000610352, -0.1, -0.15)" spreadMethod ="pad" cx="0" cy="0" r="819.2" fx="6" fy="0" >
<stop  offset="0.196078"  style="stop-color:#ED9B79;stop-opacity:1" />
<stop  offset="1"  style="stop-color:#FFFFFF;stop-opacity:0.192157" />
</radialGradient>
<path style="fill:url(#RadialGradID_2127) " d="M3.3,-0.55Q2.2 0.35 1.2 0.55L0.4 0.7L0.05 0.8L0.05 -0.05L0.15 -0.05L0.3 -0.1L1.05 -0.1L2.5 -0.35L3.3 -0.55" />
<radialGradient
id="RadialGradID_2128" gradientUnits="userSpaceOnUse" gradientTransform="matrix(0.00460815, -0.000473022, 0, 0.00444031, 0.1, -0.15)" spreadMethod ="pad" cx="0" cy="0" r="819.2" fx="210518" fy="0" >
<stop  offset="0.776471"  style="stop-color:#C16A46;stop-opacity:1" />
<stop  offset="1"  style="stop-color:#C16A46;stop-opacity:0.0235294" />
</radialGradient>
<path style="fill:url(#RadialGradID_2128) " d="M2.5,-0.35L1.05 -0.1L0.3 -0.1L0.15 -0.05L0.05 -0.05L0.05 -0.4L0.25 -0.35L0.4 -0.4L1.05 -0.6L1.75 -0.7L2.55 -0.75L3.2 -0.8L3.5 -0.85L3.95 -0.95L3.3 -0.55L2.5 -0.35" />
<radialGradient
id="RadialGradID_2129" gradientUnits="userSpaceOnUse" gradientTransform="matrix(0, -0.00216675, 0.00747681, -0.000762939, 0.05, -0.05)" spreadMethod ="pad" cx="0" cy="0" r="819.2" fx="6" fy="0" >
<stop  offset="0.345098"  style="stop-color:#ED9B79;stop-opacity:1" />
<stop  offset="1"  style="stop-color:#FFFFFF;stop-opacity:0.192157" />
</radialGradient>
<path style="fill:url(#RadialGradID_2129) " d="M2.55,-0.75L1.75 -0.7L1.05 -0.6L0.4 -0.4L0.25 -0.35L0.05 -0.4L0.05 -0.85L0.4 -0.9L0.95 -1.2L1.3 -1.2L3.2 -0.8L2.55 -0.75" />
<radialGradient
id="RadialGradID_2130" gradientUnits="userSpaceOnUse" gradientTransform="matrix(0, -0.00216675, 0.00749207, 0.000823975, 0.05, -0.05)" spreadMethod ="pad" cx="0" cy="0" r="819.2" fx="6" fy="0" >
<stop  offset="0.345098"  style="stop-color:#ED9B79;stop-opacity:1" />
<stop  offset="1"  style="stop-color:#FFFFFF;stop-opacity:0.192157" />
</radialGradient>
<path style="fill:url(#RadialGradID_2130) " d="M-0.85,-1.2L-0.05 -0.9L0.05 -0.85L0.05 -0.4L-0.65 -0.55L-1.95 -0.6L-3.15 -0.85L-0.85 -1.2" />
<radialGradient
id="RadialGradID_2131" gradientUnits="userSpaceOnUse" gradientTransform="matrix(0.00460815, 0.000518799, 0, 0.00444031, 0.1, -0.15)" spreadMethod ="pad" cx="0" cy="0" r="819.2" fx="210518" fy="0" >
<stop  offset="0.776471"  style="stop-color:#C16A46;stop-opacity:1" />
<stop  offset="1"  style="stop-color:#C16A46;stop-opacity:0.0235294" />
</radialGradient>
<path style="fill:url(#RadialGradID_2131) " d="M0.05,-0.05L-2.35 -0.3L-3.15 -0.55L-3.15 -0.6L-3.6 -0.9L-3.4 -0.9L-3.15 -0.85L-1.95 -0.6L-0.65 -0.55L0.05 -0.4L0.05 -0.05" />
<radialGradient
id="RadialGradID_2132" gradientUnits="userSpaceOnUse" gradientTransform="matrix(0, -0.00222778, 0.00595093, 0.000640869, -0.05, -0.2)" spreadMethod ="pad" cx="0" cy="0" r="819.2" fx="6" fy="0" >
<stop  offset="0.196078"  style="stop-color:#ED9B79;stop-opacity:1" />
<stop  offset="1"  style="stop-color:#FFFFFF;stop-opacity:0.192157" />
</radialGradient>
<path style="fill:url(#RadialGradID_2132) " d="M-3.15,-0.55L-2.35 -0.3L0.05 -0.05L0.05 0.75L-1.45 0.45Q-2.3 0.2 -3.15 -0.55" />
<radialGradient
id="RadialGradID_2133" gradientUnits="userSpaceOnUse" gradientTransform="matrix(0, -0.000427246, 0.0014801, 0, 0.45, 0.3)" spreadMethod ="pad" cx="0" cy="0" r="819.2" fx="0" fy="0" >
<stop  offset="0"  style="stop-color:#FFFFFF;stop-opacity:0.733333" />
<stop  offset="1"  style="stop-color:#FFFFFF;stop-opacity:0" />
</radialGradient>
<path style="fill:url(#RadialGradID_2133) " d="M1.25,0.45L0.45 0.55L-0.3 0.45L-0.65 0.3Q-0.65 0.15 -0.3 0.1L0.45 0.05L1.25 0.1L1.55 0.3L1.25 0.45" />
</g>
</svg>
