<?xml version="1.0" encoding="utf-8"?>
<svg version="1.1" id="Layer_1"
xmlns="http://www.w3.org/2000/svg"
xmlns:xlink="http://www.w3.org/1999/xlink"
xmlns:author="http://www.sothink.com"
width="11px" height="6px"
xml:space="preserve">
<g id="221" transform="matrix(1, 0, 0, 1, 5.25, 2.8)">
<radialGradient
id="RadialGradID_2170" gradientUnits="userSpaceOnUse" gradientTransform="matrix(0.0100555, 0, 0, 0.00305176, -0.2, 0.35)" spreadMethod ="pad" cx="0" cy="0" r="819.2" fx="210534" fy="0" >
<stop  offset="0"  style="stop-color:#F5A686;stop-opacity:0.6" />
<stop  offset="1"  style="stop-color:#FFDEC2;stop-opacity:0" />
</radialGradient>
<path style="fill:url(#RadialGradID_2170) " d="M-2.4,0.85L-1.25 0.5L-0.05 0.65L0.25 0.65L0.7 0.6L2.75 1.2L0.35 1.7L0.25 1.7L-1.5 1.55L-2.85 1.15L-2.4 0.85" />
<radialGradient
id="RadialGradID_2171" gradientUnits="userSpaceOnUse" gradientTransform="matrix(0.000335693, -0.00114441, -0.00151062, -0.000366211, 4.3, -0.4)" spreadMethod ="pad" cx="0" cy="0" r="819.2" fx="0" fy="0" >
<stop  offset="0"  style="stop-color:#F2571F;stop-opacity:0.6" />
<stop  offset="1"  style="stop-color:#FFEFEA;stop-opacity:0" />
</radialGradient>
<path style="fill:url(#RadialGradID_2171) " d="M4.1,0.4L3.5 0L3.35 -0.6Q3.45 -0.9 3.8 -1L4.5 -1.05Q4.9 -0.95 5.15 -0.7L5.25 -0.1L4.8 0.35L4.1 0.4" />
<radialGradient
id="RadialGradID_2172" gradientUnits="userSpaceOnUse" gradientTransform="matrix(7.62939e-005, -0.00196838, -0.00424194, -6.10352e-005, -0.05, 1.55)" spreadMethod ="pad" cx="0" cy="0" r="819.2" fx="0" fy="0" >
<stop  offset="0"  style="stop-color:#DE501C;stop-opacity:0.423529" />
<stop  offset="1"  style="stop-color:#FFEFEA;stop-opacity:0" />
</radialGradient>
<path style="fill:url(#RadialGradID_2172) " d="M1.9,0.75Q2.6 1.1 2.6 1.6Q2.55 2.1 1.8 2.5L-0.1 2.85L-1.95 2.45Q-2.75 2.05 -2.7 1.55Q-2.7 1.05 -1.85 0.7L0 0.35L1.9 0.75" />
<radialGradient
id="RadialGradID_2173" gradientUnits="userSpaceOnUse" gradientTransform="matrix(0.000335693, -0.00114441, -0.00151062, -0.000366211, -4.3, -0.75)" spreadMethod ="pad" cx="0" cy="0" r="819.2" fx="0" fy="0" >
<stop  offset="0"  style="stop-color:#F2571F;stop-opacity:0.6" />
<stop  offset="1"  style="stop-color:#FFEFEA;stop-opacity:0" />
</radialGradient>
<path style="fill:url(#RadialGradID_2173) " d="M-3.45,-1.05Q-3.25 -0.8 -3.35 -0.5L-3.75 -0.05L-4.5 0L-5.1 -0.35L-5.25 -0.95L-4.8 -1.4L-4.1 -1.45Q-3.7 -1.35 -3.45 -1.05" />
<radialGradient
id="RadialGradID_2174" gradientUnits="userSpaceOnUse" gradientTransform="matrix(0.0067749, 0, 0, 0.00228882, 0.05, -0.25)" spreadMethod ="pad" cx="0" cy="0" r="819.2" fx="0" fy="0" >
<stop  offset="0"  style="stop-color:#F09C87;stop-opacity:1" />
<stop  offset="1"  style="stop-color:#FCD4B3;stop-opacity:1" />
</radialGradient>
<path style="fill:url(#RadialGradID_2174) " d="M-3.15,-0.85L-1.95 -1.1L-0.5 -1.15L0.15 -0.95L0.55 -1.05L1.1 -1.15L1.8 -0.95L3.35 -0.4L3.25 -0.35L3.2 -0.35L2.65 -0.35L0.3 -0.2L-0.7 -0.3L-1.3 -0.35L-2.85 -0.6L-3.7 -0.75L-3.15 -0.85" />
<path style="fill:#B16653;fill-opacity:1" d="M-4.25,-0.55Q-4.45 -0.8 -4.2 -0.8L-3.7 -0.75L-2.85 -0.6L-1.3 -0.35L-0.7 -0.3L0.3 -0.2L2.65 -0.35L3.2 -0.35L3.25 -0.35L3.35 -0.4L3.6 -0.45L4.15 -0.5L4.35 -0.35Q4.3 -0.2 3.55 -0.1L3.5 -0.1L2.65 0L0.15 0L-1.5 -0.1L-3.2 -0.35L-3.8 -0.4L-4.25 -0.55" />
<radialGradient
id="RadialGradID_2175" gradientUnits="userSpaceOnUse" gradientTransform="matrix(0.00534058, 0, 0, 0.00195313, -0.1, 0.05)" spreadMethod ="pad" cx="0" cy="0" r="819.2" fx="0" fy="0" >
<stop  offset="0"  style="stop-color:#F09C87;stop-opacity:1" />
<stop  offset="0.392157"  style="stop-color:#FCD2B2;stop-opacity:0.792157" />
<stop  offset="0.737255"  style="stop-color:#F0A08A;stop-opacity:1" />
</radialGradient>
<path style="fill:url(#RadialGradID_2175) " d="M1.95,0.75L-0.35 0.95L-2.4 0.45L-3.8 -0.4L-3.2 -0.35L-1.5 -0.1L0.15 0L2.65 0L3.5 -0.1Q2.9 0.45 1.95 0.75" />
<linearGradient
id="LinearGradID_2176" gradientUnits="userSpaceOnUse" gradientTransform="matrix(0.000900269, 0.000183105, 0.000137329, -0.000564575, 1, 0.6)" spreadMethod ="pad" x1="-819.2" y1="0" x2="819.2" y2="0" >
<stop  offset="0" style="stop-color:#FFFFFF;stop-opacity:0.352941" />
<stop  offset="1" style="stop-color:#FFFFFF;stop-opacity:0" />
</linearGradient>
<path style="fill:url(#LinearGradID_2176) " d="M0.25,0.5L-0.1 0.6L0.1 0.8L1 0.7L1.85 0.4L1.45 0.45L0.9 0.5L0.25 0.5" />
<radialGradient
id="RadialGradID_2177" gradientUnits="userSpaceOnUse" gradientTransform="matrix(0.00263977, -0.000442505, 0.000396729, 0.00196838, -0.55, -1.9)" spreadMethod ="pad" cx="0" cy="0" r="819.2" fx="0" fy="0" >
<stop  offset="0"  style="stop-color:#F58B69;stop-opacity:0.490196" />
<stop  offset="1"  style="stop-color:#FFDEC2;stop-opacity:0" />
</radialGradient>
<path style="fill:url(#RadialGradID_2177) " d="M0.3,-1.45L0 -1.45Q-0.25 -1.4 -0.15 -1.65L0.05 -2.8L0.25 -2.55L0.95 -1.6L0.3 -1.45" />
</g>
</svg>
