<?xml version="1.0" encoding="utf-8"?>
<svg version="1.1" id="Layer_1"
xmlns="http://www.w3.org/2000/svg"
xmlns:xlink="http://www.w3.org/1999/xlink"
xmlns:author="http://www.sothink.com"
width="10px" height="5px"
xml:space="preserve">
<g id="217" transform="matrix(1, 0, 0, 1, 4.75, 2.4)">
<radialGradient
id="RadialGradID_2134" gradientUnits="userSpaceOnUse" gradientTransform="matrix(-0.000579834, -0.00222778, -0.00138855, -0.000427246, 3.85, -0.5)" spreadMethod ="pad" cx="0" cy="0" r="819.2" fx="0" fy="0" >
<stop  offset="0"  style="stop-color:#F15E1F;stop-opacity:0.423529" />
<stop  offset="1"  style="stop-color:#FFEFEA;stop-opacity:0" />
</radialGradient>
<path style="fill:url(#RadialGradID_2134) " d="M4.25,-1.2L4.75 -0.15L4.7 0.75Q4.55 1.1 4.2 0.95L3.5 0.4Q3.1 -0.1 3 -0.7Q2.85 -1.3 3 -1.65Q3.15 -1.95 3.5 -1.85L4.25 -1.2" />
<radialGradient
id="RadialGradID_2135" gradientUnits="userSpaceOnUse" gradientTransform="matrix(0.00141907, -0.00202942, -0.000335693, -0.00132751, -3.8, -0.65)" spreadMethod ="pad" cx="0" cy="0" r="819.2" fx="0" fy="0" >
<stop  offset="0"  style="stop-color:#F15E1F;stop-opacity:0.423529" />
<stop  offset="1"  style="stop-color:#FFEFEA;stop-opacity:0" />
</radialGradient>
<path style="fill:url(#RadialGradID_2135) " d="M-3,-0.95L-3.6 0.2L-4.3 0.85Q-4.6 0.95 -4.7 0.65L-4.6 -0.3L-4 -1.5L-3.35 -2.1Q-3.05 -2.25 -2.95 -1.9L-3 -0.95" />
<radialGradient
id="RadialGradID_2136" gradientUnits="userSpaceOnUse" gradientTransform="matrix(0.00411987, 0, 0, 0.00296021, -0.25, 1.3)" spreadMethod ="pad" cx="0" cy="0" r="819.2" fx="0" fy="0" >
<stop  offset="0"  style="stop-color:#F15E1F;stop-opacity:0.423529" />
<stop  offset="1"  style="stop-color:#FFEFEA;stop-opacity:0" />
</radialGradient>
<path style="fill:url(#RadialGradID_2136) " d="M2.2,2.1L-0.2 2.45L-2.55 2.1L-3.5 1.4Q-3.5 1 -2.55 0.65L-0.2 0.35L2.2 0.65Q3.15 1 3.15 1.4Q3.15 1.8 2.2 2.1" />
<radialGradient
id="RadialGradID_2137" gradientUnits="userSpaceOnUse" gradientTransform="matrix(0.00157166, 0, 0, 0.00180054, -0.45, -2.05)" spreadMethod ="pad" cx="0" cy="0" r="819.2" fx="0" fy="0" >
<stop  offset="0"  style="stop-color:#F15E1F;stop-opacity:0.423529" />
<stop  offset="1"  style="stop-color:#FFEFEA;stop-opacity:0" />
</radialGradient>
<path style="fill:url(#RadialGradID_2137) " d="M0.2,-2.4L0.55 -1.5L0.6 -1.25L0.6 -1.15Q0.35 -0.9 0 -0.9L-0.2 -0.95L-0.3 -1.05L-0.3 -2.25L-0.05 -2.25L0.2 -2.4" />
<path style="fill:#DB9072;fill-opacity:0.352941" d="M-0.1,1.35Q1.65 1.1 2.55 0.4Q1.8 1.4 -0.05 1.45L-0.2 1.5L-0.2 1.35L-0.1 1.35" />
<radialGradient
id="RadialGradID_2138" gradientUnits="userSpaceOnUse" gradientTransform="matrix(0.000183105, -0.00343323, 0.0085907, 3.05176e-005, -0.35, 0.55)" spreadMethod ="pad" cx="0" cy="0" r="819.2" fx="102" fy="0" >
<stop  offset="0.207843"  style="stop-color:#ED9B79;stop-opacity:1" />
<stop  offset="1"  style="stop-color:#FFCFBB;stop-opacity:0" />
</radialGradient>
<path style="fill:url(#RadialGradID_2138) " d="M2.5,-0.4L1.75 -0.3L0.95 -0.2L0.15 -0.1L-0.2 -0.05L-0.2 -0.55Q0.45 -1.05 0.8 -0.95L1.8 -0.7L2.85 -0.4L2.5 -0.4" />
<radialGradient
id="RadialGradID_2139" gradientUnits="userSpaceOnUse" gradientTransform="matrix(0.00502014, -0.000244141, 0, 0.00502014, -0.05, 0)" spreadMethod ="pad" cx="0" cy="0" r="819.2" fx="210518" fy="0" >
<stop  offset="0.694118"  style="stop-color:#9E4634;stop-opacity:1" />
<stop  offset="0.776471"  style="stop-color:#B9623E;stop-opacity:1" />
<stop  offset="1"  style="stop-color:#C16A46;stop-opacity:0.0235294" />
</radialGradient>
<path style="fill:url(#RadialGradID_2139) " d="M2.4,-0.15L0.5 0L0 0.2L-0.2 0.2L-0.2 -0.05L0.15 -0.1L0.95 -0.2L1.75 -0.3L2.5 -0.4L2.85 -0.4L3.2 -0.45L3.55 -0.65Q3.9 -0.7 3.9 -0.45L3.35 -0.15L3.05 -0.15L2.4 -0.15" />
<radialGradient
id="RadialGradID_2140" gradientUnits="userSpaceOnUse" gradientTransform="matrix(7.62939e-005, -0.00340271, 0.00617981, -0.000137329, -0.3, -0.9)" spreadMethod ="pad" cx="0" cy="0" r="819.2" fx="210531" fy="0" >
<stop  offset="0.427451"  style="stop-color:#ED9B79;stop-opacity:1" />
<stop  offset="1"  style="stop-color:#FFCFBB;stop-opacity:0" />
</radialGradient>
<path style="fill:url(#RadialGradID_2140) " d="M-0.2,1.35L-0.2 0.2L0 0.2L0.5 0L2.4 -0.15L3.05 -0.15L2.85 0.05L2.75 0.15L2.55 0.4Q1.65 1.1 -0.1 1.35L-0.2 1.35" />
<radialGradient
id="RadialGradID_2141" gradientUnits="userSpaceOnUse" gradientTransform="matrix(0.000183105, -0.00340271, 0.0085907, 0.000915527, -0.35, 0.5)" spreadMethod ="pad" cx="0" cy="0" r="819.2" fx="102" fy="0" >
<stop  offset="0.207843"  style="stop-color:#ED9B79;stop-opacity:1" />
<stop  offset="1"  style="stop-color:#FFCFBB;stop-opacity:0" />
</radialGradient>
<path style="fill:url(#RadialGradID_2141) " d="M-0.2,-0.05L-1.05 -0.25L-2.9 -0.4L-3.2 -0.5L-2.25 -0.9L-1.2 -1.15Q-0.75 -1.2 -0.2 -0.55L-0.2 -0.05" />
<radialGradient
id="RadialGradID_2142" gradientUnits="userSpaceOnUse" gradientTransform="matrix(0.00502014, 0.000274658, 0, 0.00502014, -0.05, 0)" spreadMethod ="pad" cx="0" cy="0" r="819.2" fx="210518" fy="0" >
<stop  offset="0.694118"  style="stop-color:#9E4634;stop-opacity:1" />
<stop  offset="0.776471"  style="stop-color:#B9623E;stop-opacity:1" />
<stop  offset="1"  style="stop-color:#C16A46;stop-opacity:0.0235294" />
</radialGradient>
<path style="fill:url(#RadialGradID_2142) " d="M-3.3,-0.2L-3.8 -0.5L-3.45 -0.65L-3.3 -0.6L-3.2 -0.5L-2.9 -0.4L-1.05 -0.25L-0.2 -0.05L-0.2 0.2L-0.45 0.15L-1.3 0L-2.35 -0.15L-3 -0.1L-3.3 -0.2" />
<radialGradient
id="RadialGradID_2143" gradientUnits="userSpaceOnUse" gradientTransform="matrix(7.62939e-005, -0.00340271, 0.00617981, 0.000518799, -0.3, -0.9)" spreadMethod ="pad" cx="0" cy="0" r="819.2" fx="210531" fy="0" >
<stop  offset="0.427451"  style="stop-color:#ED9B79;stop-opacity:1" />
<stop  offset="1"  style="stop-color:#FFCFBB;stop-opacity:0" />
</radialGradient>
<path style="fill:url(#RadialGradID_2143) " d="M-0.2,1.3Q-1.7 1.05 -2.55 0.5L-2.9 0.25L-3.25 -0.15L-3 -0.1L-2.35 -0.15L-1.3 0L-0.45 0.15L-0.2 0.2L-0.2 1.3" />
<path style="fill:#DB9072;fill-opacity:0.352941" d="M-2.55,0.5Q-1.7 1.05 -0.2 1.3L-0.2 1.45Q-1.85 1.35 -2.55 0.5" />
<radialGradient
id="RadialGradID_2144" gradientUnits="userSpaceOnUse" gradientTransform="matrix(-0.000106812, -0.000473022, 0.00175476, -0.000228882, 0.6, 0.95)" spreadMethod ="pad" cx="0" cy="0" r="819.2" fx="0" fy="0" >
<stop  offset="0"  style="stop-color:#FFFFFF;stop-opacity:0.690196" />
<stop  offset="1"  style="stop-color:#FFFFFF;stop-opacity:0" />
</radialGradient>
<path style="fill:url(#RadialGradID_2144) " d="M0.35,0.75L1.9 0.55L2.15 0.45L1.15 1L-0.4 1.2L-0.85 1.2L-1.1 0.95L-0.95 0.8L-0.65 0.85L0.35 0.75" />
</g>
</svg>
