<?xml version="1.0" encoding="utf-8"?>
<svg version="1.1" id="Layer_1"
xmlns="http://www.w3.org/2000/svg"
xmlns:xlink="http://www.w3.org/1999/xlink"
xmlns:author="http://www.sothink.com"
width="8px" height="6px"
xml:space="preserve">
<g id="222" transform="matrix(1, 0, 0, 1, 3.9, 2.75)">
<radialGradient
id="RadialGradID_2178" gradientUnits="userSpaceOnUse" gradientTransform="matrix(0.00012207, -0.00289917, -0.00587463, -0.000198364, -0.2, 0.85)" spreadMethod ="pad" cx="0" cy="0" r="819.2" fx="0" fy="0" >
<stop  offset="0"  style="stop-color:#F15E1F;stop-opacity:0.423529" />
<stop  offset="1"  style="stop-color:#FFEFEA;stop-opacity:0" />
</radialGradient>
<path style="fill:url(#RadialGradID_2178) " d="M2.5,-0.25Q3.45 0.25 3.45 1.05Q3.4 1.75 2.35 2.25L-0.35 2.7L-2.8 2.1Q-3.95 1.55 -3.9 0.8Q-3.85 0 -2.7 -0.5Q-1.65 -1 -0.1 -0.9Q1.4 -0.9 2.5 -0.25" />
<path style="fill:#FFFFFF;fill-opacity:1" d="M1.35,-0.9L2.9 -1.05L2 -0.65L1.15 -0.45L-2.1 -0.6L-2.55 -0.85L-1.35 -0.85L-1.15 -0.85L0.1 -0.9L1.35 -0.9" />
<path style="fill:#D18E72;fill-opacity:1" d="M2.25,0.5L2.3 0.65L2.2 0.75Q1.55 1.35 0.45 1.5L0.05 1.55L-0.3 1.5L-1.15 1.35L-2.1 0.75L-2.15 0.7L-2.3 0.55L-2.05 0.7L-1.15 1.05L0 1.2L1.9 0.75L2.05 0.65L2.25 0.5" />
<radialGradient
id="RadialGradID_2179" gradientUnits="userSpaceOnUse" gradientTransform="matrix(0.00817871, -9.15527e-005, 0, 0.00230408, 0.2, -2.55)" spreadMethod ="pad" cx="0" cy="0" r="819.2" fx="6" fy="0" >
<stop  offset="0.447059"  style="stop-color:#ED9C7B;stop-opacity:1" />
<stop  offset="1"  style="stop-color:#FFCEBA;stop-opacity:0.580392" />
</radialGradient>
<path style="fill:url(#RadialGradID_2179) " d="M2.3,-1.15L0.85 -1.1L0.3 -1.05L-0.2 -1.05L-1.05 -1.05L-1.15 -1.05L-1.7 -1L-2.2 -1.05L-2.85 -1.15L-2.25 -1.4L-1.95 -1.5L-1.1 -1.65L-0.3 -1.6L0.05 -1.55L0.85 -1.7Q1.75 -1.75 2.9 -1.2L2.95 -1.2L3 -1.15L2.3 -1.15" />
<radialGradient
id="RadialGradID_2180" gradientUnits="userSpaceOnUse" gradientTransform="matrix(0.00534058, -6.10352e-005, 0, 0.00486755, -0.05, -0.25)" spreadMethod ="pad" cx="0" cy="0" r="819.2" fx="210518" fy="0" >
<stop  offset="0.776471"  style="stop-color:#C16A46;stop-opacity:1" />
<stop  offset="1"  style="stop-color:#C16A46;stop-opacity:0.0235294" />
</radialGradient>
<path style="fill:url(#RadialGradID_2180) " d="M-3,-0.75L-3.05 -0.75L-3.3 -0.8Q-3.65 -0.9 -3.6 -1.15L-3.6 -1.25L-3.35 -1.35L-2.85 -1.15L-2.2 -1.05L-1.7 -1L-1.15 -1.05L-1.05 -1.05L-0.2 -1.05L0.3 -1.05L0.85 -1.1L2.3 -1.15L3 -1.15L3.05 -1.15Q3.15 -1.15 3.3 -1.25L3.7 -1.25L3.9 -1.15L3.65 -0.95L3.3 -0.9L3.1 -0.85L2.55 -0.65L-1.65 -0.35L-2.6 -0.6L-2.95 -0.75L-3 -0.75M0.1,-0.9L-1.15 -0.85L-1.35 -0.85L-2.55 -0.85L-2.1 -0.6L1.15 -0.45L2 -0.65L2.9 -1.05L1.35 -0.9L0.1 -0.9M-3.05,-1L-3.05 -1.05L-3.05 -1" />
<radialGradient
id="RadialGradID_2181" gradientUnits="userSpaceOnUse" gradientTransform="matrix(-1.52588e-005, -0.00286865, 0.00495911, -7.62939e-005, 0.15, -1.2)" spreadMethod ="pad" cx="0" cy="0" r="819.2" fx="6" fy="0" >
<stop  offset="0.568627"  style="stop-color:#ED9B79;stop-opacity:1" />
<stop  offset="1"  style="stop-color:#FFCFBB;stop-opacity:0" />
</radialGradient>
<path style="fill:url(#RadialGradID_2181) " d="M2.05,0.65L1.9 0.75L0 1.2L-1.15 1.05L-2.05 0.7L-2.3 0.55L-2.95 -0.6L-3 -0.75L-2.95 -0.75L-2.6 -0.6L-1.65 -0.35L2.55 -0.65L3.1 -0.85L3.3 -0.9L3.2 -0.65L2.25 0.5L2.05 0.65" />
<radialGradient
id="RadialGradID_2182" gradientUnits="userSpaceOnUse" gradientTransform="matrix(0.00152588, -1.52588e-005, 0, 0.00164795, -0.25, -2.05)" spreadMethod ="pad" cx="0" cy="0" r="819.2" fx="0" fy="0" >
<stop  offset="0"  style="stop-color:#F15E1F;stop-opacity:0.423529" />
<stop  offset="1"  style="stop-color:#FFEFEA;stop-opacity:0" />
</radialGradient>
<path style="fill:url(#RadialGradID_2182) " d="M0.5,-2.65L0.5 -2.55L0.55 -2.5L0.8 -2.05L0.2 -1.75Q-0.3 -1.8 -0.35 -2L-0.4 -2.15L-0.2 -2.75L0.4 -2.75L0.5 -2.65" />
<radialGradient
id="RadialGradID_2183" gradientUnits="userSpaceOnUse" gradientTransform="matrix(9.15527e-005, -0.000427246, 0.00141907, 0.000106812, -0.65, 0.25)" spreadMethod ="pad" cx="0" cy="0" r="819.2" fx="0" fy="0" >
<stop  offset="0.243137"  style="stop-color:#FFFFFF;stop-opacity:0.662745" />
<stop  offset="1"  style="stop-color:#FFFFFF;stop-opacity:0" />
</radialGradient>
<path style="fill:url(#RadialGradID_2183) " d="M-1.8,0.2L0.35 0.15L0.5 0.4Q0.1 0.7 -0.3 0.6L-1.15 0.6L-1.7 0.4L-1.8 0.2" />
</g>
</svg>
