<?xml version="1.0" encoding="utf-8"?>
<svg version="1.1" id="Layer_1"
xmlns="http://www.w3.org/2000/svg"
xmlns:xlink="http://www.w3.org/1999/xlink"
xmlns:author="http://www.sothink.com"
width="10px" height="6px"
xml:space="preserve">
<g id="226" transform="matrix(1, 0, 0, 1, 4.85, 2.65)">
<path style="fill:#999999;fill-opacity:0.101961" d="M0.6,-2.35L1.9 -2.25L3.55 -1.9Q4.6 -1.75 4.8 -1.1Q4.95 -0.5 4.3 -0.45L3 -0.65L1.55 -0.95L0.55 -1L-0.35 -0.95L-0.85 -1.1L-1.45 -0.95L-2.35 -0.75L-3.45 -0.4L-4.45 -0.1Q-4.9 -0.1 -4.85 -0.85Q-4.9 -1.35 -4.35 -1.55L-2.7 -2.1L-1.65 -2.4L-0.75 -2.35L0.6 -2.35" />
<radialGradient
id="RadialGradID_2210" gradientUnits="userSpaceOnUse" gradientTransform="matrix(0.00416565, 0, 0, 0.00154114, 0.15, 1.4)" spreadMethod ="pad" cx="0" cy="0" r="819.2" fx="0" fy="0" >
<stop  offset="0"  style="stop-color:#F28052;stop-opacity:0.501961" />
<stop  offset="1"  style="stop-color:#F7B999;stop-opacity:0" />
</radialGradient>
<path style="fill:url(#RadialGradID_2210) " d="M0.05,2.7L-1.55 2.55L-2.4 2.3Q-3.4 1.95 -3.4 1.4Q-3.4 0.85 -2.4 0.45L-1.55 0.25L0.1 0.1L1.7 0.25L2.5 0.45Q3.45 0.85 3.5 1.4Q3.45 1.95 2.5 2.3L1.7 2.55L0.1 2.7L0.05 2.7" />
<radialGradient
id="RadialGradID_2211" gradientUnits="userSpaceOnUse" gradientTransform="matrix(0.00549316, 0, 0, 0.00526428, 2.05, -3.35)" spreadMethod ="pad" cx="0" cy="0" r="819.2" fx="150" fy="0" >
<stop  offset="0.447059"  style="stop-color:#F4A572;stop-opacity:0.792157" />
<stop  offset="1"  style="stop-color:#FDD6B9;stop-opacity:0" />
</radialGradient>
<path style="fill:url(#RadialGradID_2211) " d="M0.05,-2.3Q0.2 -2.3 0.8 -2.65L0.8 -2.45L0.8 -1.65Q0.7 -1.35 0.2 -1.35Q-0.2 -1.35 -0.35 -1.6L-0.4 -2.25L-0.4 -2.4L0.05 -2.3" />
<path style="fill:#512A1B;fill-opacity:1" d="M-2.8,-0.6L-2.75 -0.6L-2.4 -0.6L-2.3 -0.5L-2.35 -0.45L-2.55 -0.4L-2.75 -0.4L-2.85 -0.4L-3.05 -0.35L-3.8 -0.6L-3.8 -0.65L-3.5 -0.9L-2.8 -0.6M3,-0.55L3.25 -0.65L3.9 -1L4.1 -0.75L3.85 -0.45L3.6 -0.4L3.05 -0.35L2.8 -0.4L2.8 -0.45L3 -0.55" />
<radialGradient
id="RadialGradID_2212" gradientUnits="userSpaceOnUse" gradientTransform="matrix(0.010376, 0, 0, 0.00494385, 0.3, -3)" spreadMethod ="pad" cx="0" cy="0" r="819.2" fx="9" fy="0" >
<stop  offset="0.568627"  style="stop-color:#FAAF91;stop-opacity:1" />
<stop  offset="1"  style="stop-color:#FFCFBB;stop-opacity:0" />
</radialGradient>
<path style="fill:url(#RadialGradID_2212) " d="M3.25,-0.65L3 -0.55L2.5 -0.5L2.5 -0.45L1.15 -0.3L0.4 -0.2L-0.2 -0.2L-1.35 -0.3L-1.4 -0.35L-1.55 -0.35L-2.35 -0.45L-2.3 -0.5L-2.4 -0.6L-2.75 -0.6L-2.8 -0.6L-2.7 -0.65L-2.55 -0.65L-2.05 -0.85L-1.45 -1.05L-0.65 -1.3L0.45 -1.1L1.15 -1.3L1.6 -1.25L2.2 -1.05L3 -0.75L3.1 -0.7L3.15 -0.7L3.25 -0.65" />
<radialGradient
id="RadialGradID_2213" gradientUnits="userSpaceOnUse" gradientTransform="matrix(0.00535583, 0, 0, 0.00288391, 0.45, -0.2)" spreadMethod ="pad" cx="0" cy="0" r="819.2" fx="0" fy="0" >
<stop  offset="0"  style="stop-color:#E06C3C;stop-opacity:0.811765" />
<stop  offset="0.568627"  style="stop-color:#F79E85;stop-opacity:0.6" />
<stop  offset="1"  style="stop-color:#FFCEBA;stop-opacity:0.152941" />
</radialGradient>
<path style="fill:url(#RadialGradID_2213) " d="M2.8,-0.4L3.05 -0.35L3.6 -0.4L2.35 0.8L1.1 1.35L-0.75 1.25Q-1.8 1 -2.05 0.75L-3.05 -0.25L-3.45 -0.3L-3.35 -0.3L-3.05 -0.35L-2.85 -0.4L-2.75 -0.4L-2.55 -0.4L-1.45 -0.25L-1.4 -0.25L-0.15 -0.1L0.5 -0.05L0.8 -0.1L1.4 -0.15L1.85 -0.25L2.45 -0.35L2.8 -0.4" />
<radialGradient
id="RadialGradID_2214" gradientUnits="userSpaceOnUse" gradientTransform="matrix(0.00332642, -0.00062561, 0.000274658, 0.00141907, -3.4, -0.35)" spreadMethod ="pad" cx="0" cy="0" r="819.2" fx="0" fy="0" >
<stop  offset="0.254902"  style="stop-color:#ED9B79;stop-opacity:1" />
<stop  offset="1"  style="stop-color:#FFCFBB;stop-opacity:0" />
</radialGradient>
<path style="fill:url(#RadialGradID_2214) " d="M-3.5,-0.9L-3.8 -0.65L-3.8 -0.6L-3.05 -0.35L-3.35 -0.3L-3.45 -0.3Q-4.1 -0.4 -4.25 -0.85Q-4.45 -1.35 -4.05 -1.4Q-3.65 -1.4 -2.7 -0.65L-2.8 -0.6L-3.5 -0.9" />
<radialGradient
id="RadialGradID_2215" gradientUnits="userSpaceOnUse" gradientTransform="matrix(0.00228882, -0.000564575, 0.000411987, 0.00149536, 3.65, -0.55)" spreadMethod ="pad" cx="0" cy="0" r="819.2" fx="0" fy="0" >
<stop  offset="0.254902"  style="stop-color:#ED9B79;stop-opacity:1" />
<stop  offset="1"  style="stop-color:#FFCFBB;stop-opacity:0" />
</radialGradient>
<path style="fill:url(#RadialGradID_2215) " d="M4.1,-0.75L3.9 -1L3.25 -0.65L3.15 -0.7L3.6 -0.95L4.4 -1.4Q5 -1.55 4.85 -1Q4.7 -0.45 3.85 -0.45L4.1 -0.75" />
<radialGradient
id="RadialGradID_2216" gradientUnits="userSpaceOnUse" gradientTransform="matrix(0.00419617, 0, 0, 0.00389099, 3.55, -0.6)" spreadMethod ="pad" cx="0" cy="0" r="819.2" fx="9" fy="0" >
<stop  offset="0"  style="stop-color:#4D281A;stop-opacity:1" />
<stop  offset="1"  style="stop-color:#C16A46;stop-opacity:1" />
</radialGradient>
<path style="fill:url(#RadialGradID_2216) " d="M2.8,-0.45L2.8 -0.4L2.45 -0.35L2.5 -0.45L2.5 -0.5L3 -0.55L2.8 -0.45" />
<radialGradient
id="RadialGradID_2217" gradientUnits="userSpaceOnUse" gradientTransform="matrix(0.00382996, 0, 0, 0.00210571, 0.1, -0.15)" spreadMethod ="pad" cx="0" cy="0" r="819.2" fx="210380" fy="0" >
<stop  offset="0"  style="stop-color:#4D281A;stop-opacity:1" />
<stop  offset="1"  style="stop-color:#C16A46;stop-opacity:1" />
</radialGradient>
<path style="fill:url(#RadialGradID_2217) " d="M2.45,-0.35L1.85 -0.25L1.4 -0.15L0.8 -0.1L0.5 -0.05L-0.15 -0.1L-1.4 -0.25L-1.45 -0.25L-2.55 -0.4L-2.35 -0.45L-1.55 -0.35L-1.4 -0.35L-1.35 -0.3L-0.2 -0.2L0.4 -0.2L1.15 -0.3L2.5 -0.45L2.45 -0.35" />
<path style="fill:#FFFFFF;fill-opacity:0.482353" d="M-0.6,0L-0.4 0.1L-0.2 0.15L0.3 0.2L0.4 0.1L0.55 0.15L0.95 0L1.3 0.05L2.9 -0.35L3 -0.35L2.4 -0.05L1.35 0.2L1.1 0.2L1 0.3L0.85 0.35L0.65 0.3L-0.2 0.35L-0.45 0.25L-0.7 0.4L-1.45 0.15L-2.05 -0.05L-2.6 -0.25L-1.65 -0.1L-1.25 0Q-0.9 0 -0.85 0.15L-0.6 0" />
</g>
</svg>
