<?xml version="1.0" encoding="utf-8"?>
<svg version="1.1" id="Layer_1"
xmlns="http://www.w3.org/2000/svg"
xmlns:xlink="http://www.w3.org/1999/xlink"
xmlns:author="http://www.sothink.com"
width="10px" height="6px"
xml:space="preserve">
<g id="224" transform="matrix(1, 0, 0, 1, 4.9, 2.9)">
<radialGradient
id="RadialGradID_2193" gradientUnits="userSpaceOnUse" gradientTransform="matrix(0.000106812, -0.00184631, -0.00563049, -4.57764e-005, -0.25, 1.7)" spreadMethod ="pad" cx="0" cy="0" r="819.2" fx="0" fy="0" >
<stop  offset="0"  style="stop-color:#DE663C;stop-opacity:0.623529" />
<stop  offset="1"  style="stop-color:#FFEFEA;stop-opacity:0" />
</radialGradient>
<path style="fill:url(#RadialGradID_2193) " d="M3.25,1.75Q3.25 2.25 2.25 2.6L-0.35 2.9L-2.75 2.55Q-3.8 2.2 -3.8 1.7Q-3.75 1.2 -2.65 0.9L-0.2 0.6L2.35 0.95Q3.3 1.25 3.25 1.75" />
<radialGradient
id="RadialGradID_2194" gradientUnits="userSpaceOnUse" gradientTransform="matrix(0.00128174, -0.00131226, -0.000442505, -0.00108337, -4, -0.15)" spreadMethod ="pad" cx="0" cy="0" r="819.2" fx="0" fy="0" >
<stop  offset="0"  style="stop-color:#F26D3C;stop-opacity:0.6" />
<stop  offset="1"  style="stop-color:#FFEFEA;stop-opacity:0" />
</radialGradient>
<path style="fill:url(#RadialGradID_2194) " d="M-3.25,-0.95L-3.25 -0.2L-3.75 0.55L-4.4 0.95L-4.85 0.7L-4.8 0L-4.3 -0.8Q-4 -1.15 -3.65 -1.15Q-3.35 -1.25 -3.25 -0.95" />
<radialGradient
id="RadialGradID_2195" gradientUnits="userSpaceOnUse" gradientTransform="matrix(0.00221252, -0.00012207, 0.000106812, 0.00212097, -0.7, -2.05)" spreadMethod ="pad" cx="0" cy="0" r="819.2" fx="0" fy="0" >
<stop  offset="0"  style="stop-color:#F58B69;stop-opacity:0.490196" />
<stop  offset="1"  style="stop-color:#FFDEC2;stop-opacity:0" />
</radialGradient>
<path style="fill:url(#RadialGradID_2195) " d="M-0.05,-1.4L-0.3 -1.5L-0.4 -1.7L-0.1 -2.9L0.05 -2.6L0.45 -1.55L-0.05 -1.4" />
<radialGradient
id="RadialGradID_2196" gradientUnits="userSpaceOnUse" gradientTransform="matrix(-0.00128174, -0.00131226, 0.000442505, -0.00108337, 4.05, -0.15)" spreadMethod ="pad" cx="0" cy="0" r="819.2" fx="0" fy="0" >
<stop  offset="0"  style="stop-color:#F26F41;stop-opacity:0.6" />
<stop  offset="1"  style="stop-color:#FFEFEA;stop-opacity:0" />
</radialGradient>
<path style="fill:url(#RadialGradID_2196) " d="M3.75,-1.15L4.35 -0.8L4.85 0L4.9 0.7Q4.75 0.95 4.45 0.95Q4.15 0.85 3.8 0.55L3.35 -0.2L3.3 -0.95Q3.4 -1.25 3.75 -1.15" />
<path style="fill:#B16653;fill-opacity:1" d="M0,0.2L0 0.15L-0.05 0.15L-0.1 0.15L-0.8 0.05L-2.15 0.05L-3.25 0.15L-3.4 0.1L-3.95 -0.05L-3.95 -0.3L-3.25 -0.2L-3.1 -0.15L-0.95 -0.15L-0.4 -0.1L-0.05 -0.05L0 -0.05L0.05 -0.05L1.15 -0.25L2.9 -0.2L3.6 -0.2L4.1 -0.35L4.1 -0.15L3.75 0.1L3.45 0.1L3.4 0.1Q1.3 -0.05 0.75 0.1L0.1 0.2L0.05 0.2L0 0.2" />
<radialGradient
id="RadialGradID_2197" gradientUnits="userSpaceOnUse" gradientTransform="matrix(0.00569153, 0.000106812, 0, 0.00326538, -0.1, 0)" spreadMethod ="pad" cx="0" cy="0" r="819.2" fx="0" fy="0" >
<stop  offset="0"  style="stop-color:#F09C87;stop-opacity:1" />
<stop  offset="1"  style="stop-color:#FCD4B3;stop-opacity:1" />
</radialGradient>
<path style="fill:url(#RadialGradID_2197) " d="M0,-0.05L-0.05 -0.05L-0.4 -0.1L-0.95 -0.15L-3.1 -0.15L-3.25 -0.2L-2.8 -0.4L-2.3 -0.6L-1.45 -0.85L-0.2 -0.85L0 -0.8L0 -0.75L0 -0.05" />
<radialGradient
id="RadialGradID_2198" gradientUnits="userSpaceOnUse" gradientTransform="matrix(0.00482178, 9.15527e-005, 0, 0.00187683, -0.1, 0.2)" spreadMethod ="pad" cx="0" cy="0" r="819.2" fx="0" fy="0" >
<stop  offset="0"  style="stop-color:#F09C87;stop-opacity:1" />
<stop  offset="0.392157"  style="stop-color:#FCD2B2;stop-opacity:0.792157" />
<stop  offset="0.737255"  style="stop-color:#F0A08A;stop-opacity:1" />
</radialGradient>
<path style="fill:url(#RadialGradID_2198) " d="M0,1.75L-0.05 1.75L-1 1.7Q-2 1.55 -2.55 1.05L-3.25 0.15L-2.15 0.05L-0.8 0.05L-0.1 0.15L-0.05 0.15L0 0.15L0 0.2L0 1.75" />
<radialGradient
id="RadialGradID_2199" gradientUnits="userSpaceOnUse" gradientTransform="matrix(0.00569153, -3.05176e-005, 0, 0.00326538, -0.1, 0)" spreadMethod ="pad" cx="0" cy="0" r="819.2" fx="0" fy="0" >
<stop  offset="0"  style="stop-color:#F09C87;stop-opacity:1" />
<stop  offset="1"  style="stop-color:#FCD4B3;stop-opacity:1" />
</radialGradient>
<path style="fill:url(#RadialGradID_2199) " d="M0.05,-0.05L0 -0.05L0 -0.75L0.05 -0.8L0.05 -0.05" />
<radialGradient
id="RadialGradID_2200" gradientUnits="userSpaceOnUse" gradientTransform="matrix(0.00569153, -0.000137329, 0, 0.00326538, -0.1, 0)" spreadMethod ="pad" cx="0" cy="0" r="819.2" fx="0" fy="0" >
<stop  offset="0"  style="stop-color:#F09C87;stop-opacity:1" />
<stop  offset="1"  style="stop-color:#FCD4B3;stop-opacity:1" />
</radialGradient>
<path style="fill:url(#RadialGradID_2200) " d="M0.05,-0.8L0.2 -0.85L1.3 -1L2.5 -0.65L3.6 -0.2L2.9 -0.2L1.15 -0.25L0.05 -0.05L0.05 -0.8" />
<radialGradient
id="RadialGradID_2201" gradientUnits="userSpaceOnUse" gradientTransform="matrix(0.00482178, -3.05176e-005, 0, 0.00187683, -0.1, 0.2)" spreadMethod ="pad" cx="0" cy="0" r="819.2" fx="0" fy="0" >
<stop  offset="0"  style="stop-color:#F09C87;stop-opacity:1" />
<stop  offset="0.392157"  style="stop-color:#FCD2B2;stop-opacity:0.792157" />
<stop  offset="0.737255"  style="stop-color:#F0A08A;stop-opacity:1" />
</radialGradient>
<path style="fill:url(#RadialGradID_2201) " d="M0,0.2L0.05 0.2L0.05 1.75L0 1.75L0 0.2" />
<radialGradient
id="RadialGradID_2202" gradientUnits="userSpaceOnUse" gradientTransform="matrix(0.00482178, -0.00012207, 0, 0.00187683, -0.1, 0.2)" spreadMethod ="pad" cx="0" cy="0" r="819.2" fx="0" fy="0" >
<stop  offset="0"  style="stop-color:#F09C87;stop-opacity:1" />
<stop  offset="0.392157"  style="stop-color:#FCD2B2;stop-opacity:0.792157" />
<stop  offset="0.737255"  style="stop-color:#F0A08A;stop-opacity:1" />
</radialGradient>
<path style="fill:url(#RadialGradID_2202) " d="M0.05,0.2L0.1 0.2L0.75 0.1Q1.3 -0.05 3.4 0.1Q2.7 1.4 1.35 1.6L0.05 1.75L0.05 0.2" />
<linearGradient
id="LinearGradID_2203" gradientUnits="userSpaceOnUse" gradientTransform="matrix(0.00135803, 0.000305176, 0.000213623, -0.000854492, 0.95, 0.55)" spreadMethod ="pad" x1="-819.2" y1="0" x2="819.2" y2="0" >
<stop  offset="0" style="stop-color:#FFFFFF;stop-opacity:0.352941" />
<stop  offset="1" style="stop-color:#FFFFFF;stop-opacity:0" />
</linearGradient>
<path style="fill:url(#LinearGradID_2203) " d="M2.3,0.35L1.7 0.3L0.85 0.35L-0.1 0.35L-0.65 0.45L-0.35 0.75L1 0.65L2.3 0.35" />
</g>
</svg>
