<?xml version="1.0" encoding="utf-8"?>
<svg version="1.1" id="Layer_1"
xmlns="http://www.w3.org/2000/svg"
xmlns:xlink="http://www.w3.org/1999/xlink"
xmlns:author="http://www.sothink.com"
width="8px" height="4px"
xml:space="preserve">
<g id="234" transform="matrix(1, 0, 0, 1, 0, 0)">
<radialGradient
id="RadialGradID_2271" gradientUnits="userSpaceOnUse" gradientTransform="matrix(0.0010376, 0.000137329, -0.000137329, 0.0010376, 7.35, 0.9)" spreadMethod ="pad" cx="0" cy="0" r="819.2" fx="0" fy="0" >
<stop  offset="0"  style="stop-color:#CF3B00;stop-opacity:0.423529" />
<stop  offset="1"  style="stop-color:#FFEFEA;stop-opacity:0" />
</radialGradient>
<path style="fill:url(#RadialGradID_2271) " d="M7.95,1L7.75 1.45L7.25 1.55Q6.95 1.55 6.85 1.3L6.7 0.8L6.95 0.4L7.4 0.25L7.85 0.5L7.95 1" />
<radialGradient
id="RadialGradID_2272" gradientUnits="userSpaceOnUse" gradientTransform="matrix(0.00102234, 0.00012207, -0.00012207, 0.00102234, 0.7, 0.85)" spreadMethod ="pad" cx="0" cy="0" r="819.2" fx="0" fy="0" >
<stop  offset="0"  style="stop-color:#CF3B00;stop-opacity:0.423529" />
<stop  offset="1"  style="stop-color:#FFEFEA;stop-opacity:0" />
</radialGradient>
<path style="fill:url(#RadialGradID_2272) " d="M1.35,0.95L1.05 1.3L0.55 1.5L0.1 1.2L0.05 0.8L0.25 0.3L0.75 0.2L1.2 0.35L1.35 0.95" />
<radialGradient
id="RadialGradID_2273" gradientUnits="userSpaceOnUse" gradientTransform="matrix(1.52588e-005, -0.00141907, -0.0040741, 0, 3.75, 2.55)" spreadMethod ="pad" cx="0" cy="0" r="819.2" fx="0" fy="0" >
<stop  offset="0.156863"  style="stop-color:#CF3B00;stop-opacity:0.423529" />
<stop  offset="1"  style="stop-color:#FFEFEA;stop-opacity:0" />
</radialGradient>
<path style="fill:url(#RadialGradID_2273) " d="M6.3,2.75Q6.25 3.25 5.5 3.55L3.7 3.7L1.95 3.25Q1.25 2.8 1.3 2.3Q1.3 1.85 2.15 1.6L3.95 1.45Q5 1.55 5.75 1.95Q6.4 2.3 6.3 2.75" />
<radialGradient
id="RadialGradID_2274" gradientUnits="userSpaceOnUse" gradientTransform="matrix(0.00468445, 0.000366211, -0.000366211, 0.00468445, 4.05, 0.95)" spreadMethod ="pad" cx="0" cy="0" r="819.2" fx="0" fy="0" >
<stop  offset="0.776471"  style="stop-color:#944B2D;stop-opacity:1" />
<stop  offset="1"  style="stop-color:#C16A46;stop-opacity:0.0235294" />
</radialGradient>
<path style="fill:url(#RadialGradID_2274) " d="M1.05,0.95L0.65 0.9L0.55 0.75L0.6 0.7L1.1 0.8L1.7 0.85L2.2 0.85L3.1 0.85L3.9 0.95L4.45 0.85L5.5 0.8L5.75 0.85L5.95 0.85L7 0.8L7.3 0.75L7.45 0.85L7.4 1L6.85 1L5.7 1.1L2.7 1.15L2.3 1.1L1.1 0.95L1.05 0.95" />
<radialGradient
id="RadialGradID_2275" gradientUnits="userSpaceOnUse" gradientTransform="matrix(0.00448608, -3.05176e-005, 1.52588e-005, 0.00202942, 3.8, 1.05)" spreadMethod ="pad" cx="0" cy="0" r="819.2" fx="0" fy="0" >
<stop  offset="0.180392"  style="stop-color:#F09C87;stop-opacity:1" />
<stop  offset="0.541176"  style="stop-color:#F7CBAF;stop-opacity:1" />
<stop  offset="0.882353"  style="stop-color:#F09C87;stop-opacity:1" />
</radialGradient>
<path style="fill:url(#RadialGradID_2275) " d="M1.1,0.95L2.3 1.1L2.7 1.15L5.7 1.1L6.85 1L5.85 1.9Q5.05 2.5 3.75 2.55Q2.35 2.55 1.05 0.95L1.1 0.95" />
<radialGradient
id="RadialGradID_2276" gradientUnits="userSpaceOnUse" gradientTransform="matrix(0.00521851, -4.57764e-005, 1.52588e-005, 0.00268555, 3.95, 1.15)" spreadMethod ="pad" cx="0" cy="0" r="819.2" fx="0" fy="0" >
<stop  offset="0"  style="stop-color:#F08B72;stop-opacity:1" />
<stop  offset="1"  style="stop-color:#FCD4B3;stop-opacity:1" />
</radialGradient>
<path style="fill:url(#RadialGradID_2276) " d="M1.1,0.8L2.1 0.35Q2.55 0 2.85 0L3.85 0.4L4.1 0.25L4.7 0.05Q5 -0.15 5.75 0.3L7 0.8L5.95 0.85L5.75 0.85L5.5 0.8L4.45 0.85L3.9 0.95L3.1 0.85L2.2 0.85L1.7 0.85L1.1 0.8" />
<radialGradient
id="RadialGradID_2277" gradientUnits="userSpaceOnUse" gradientTransform="matrix(-0.00337219, 0.000259399, 0.000320435, 0.00106812, 4.95, 1.65)" spreadMethod ="pad" cx="0" cy="0" r="819.2" fx="0" fy="0" >
<stop  offset="0"  style="stop-color:#FFFFFF;stop-opacity:0.631373" />
<stop  offset="1"  style="stop-color:#FFFFFF;stop-opacity:0" />
</radialGradient>
<path style="fill:url(#RadialGradID_2277) " d="M5.4,1.4L4.1 1.45L2.55 1.35Q2.95 2.25 4.45 2Q6.05 1.75 5.4 1.4" />
</g>
</svg>
