<?xml version="1.0" encoding="utf-8"?>
<svg version="1.1" id="Layer_1"
xmlns="http://www.w3.org/2000/svg"
xmlns:xlink="http://www.w3.org/1999/xlink"
xmlns:author="http://www.sothink.com"
width="10px" height="6px"
xml:space="preserve">
<g id="231" transform="matrix(1, 0, 0, 1, 4.75, 2.6)">
<radialGradient
id="RadialGradID_2244" gradientUnits="userSpaceOnUse" gradientTransform="matrix(0.00109863, -0.00109863, -0.00146484, -0.0012207, -3.55, -1.5)" spreadMethod ="pad" cx="0" cy="0" r="819.2" fx="0" fy="0" >
<stop  offset="0"  style="stop-color:#D9521C;stop-opacity:0.552941" />
<stop  offset="1"  style="stop-color:#FFEFEA;stop-opacity:0" />
</radialGradient>
<path style="fill:url(#RadialGradID_2244) " d="M-3.7,-2.45Q-3.3 -2.5 -2.9 -2.15L-2.45 -1.35Q-2.4 -0.95 -2.65 -0.7Q-3 -0.45 -3.45 -0.45L-4.3 -0.75L-4.7 -1.55Q-4.8 -2 -4.5 -2.25L-3.7 -2.45" />
<radialGradient
id="RadialGradID_2245" gradientUnits="userSpaceOnUse" gradientTransform="matrix(-0.00126648, -0.000900269, 0.00125122, -0.00143433, 3.65, -1.5)" spreadMethod ="pad" cx="0" cy="0" r="819.2" fx="0" fy="0" >
<stop  offset="0"  style="stop-color:#D9521C;stop-opacity:0.552941" />
<stop  offset="1"  style="stop-color:#FFEFEA;stop-opacity:0" />
</radialGradient>
<path style="fill:url(#RadialGradID_2245) " d="M3.7,-2.55L2.9 -2.1Q2.6 -1.7 2.6 -1.3Q2.55 -0.9 2.9 -0.65L3.7 -0.5Q4.2 -0.6 4.5 -1Q4.8 -1.35 4.75 -1.75Q4.8 -2.2 4.45 -2.45L3.7 -2.55" />
<radialGradient
id="RadialGradID_2246" gradientUnits="userSpaceOnUse" gradientTransform="matrix(-0.000335693, -0.00219727, -0.00523376, 0.000457764, 0.6, 1.15)" spreadMethod ="pad" cx="0" cy="0" r="819.2" fx="0" fy="0" >
<stop  offset="0.0666667"  style="stop-color:#E37653;stop-opacity:0.662745" />
<stop  offset="1"  style="stop-color:#FFEFEA;stop-opacity:0" />
</radialGradient>
<path style="fill:url(#RadialGradID_2246) " d="M-2.7,1.5Q-2.75 0.95 -1.8 0.5Q-0.95 0 0.4 -0.15L2.75 0.1Q3.75 0.4 3.85 0.95Q3.95 1.5 3.05 2Q2.15 2.5 0.8 2.65L-1.5 2.45Q-2.6 2.1 -2.7 1.5" />
<radialGradient
id="RadialGradID_2247" gradientUnits="userSpaceOnUse" gradientTransform="matrix(0.00450134, -0.000350952, 0.000198364, 0.0025177, 0.4, -0.2)" spreadMethod ="pad" cx="0" cy="0" r="819.2" fx="0" fy="0" >
<stop  offset="0.141176"  style="stop-color:#E84F4F;stop-opacity:1" />
<stop  offset="0.992157"  style="stop-color:#E88692;stop-opacity:0.341176" />
</radialGradient>
<path style="fill:url(#RadialGradID_2247) " d="M2.95,-1.25L-0.2 -0.9L-1.8 -1.15L-2.85 -1.45L-3.35 -1.55L-0.3 -1.55L0.55 -1.45L1.05 -1.5L1.6 -1.65L2.5 -1.6L3.8 -1.55L4.05 -1.55L2.95 -1.25" />
<radialGradient
id="RadialGradID_2248" gradientUnits="userSpaceOnUse" gradientTransform="matrix(0.00660706, -0.000518799, 0.000259399, 0.00326538, 2.15, -0.55)" spreadMethod ="pad" cx="0" cy="0" r="819.2" fx="0" fy="0" >
<stop  offset="0.0156863"  style="stop-color:#D67851;stop-opacity:1" />
<stop  offset="0.411765"  style="stop-color:#EB7D7A;stop-opacity:1" />
<stop  offset="0.992157"  style="stop-color:#F7A09D;stop-opacity:0.341176" />
</radialGradient>
<path style="fill:url(#RadialGradID_2248) " d="M-3,-1.2L-1.1 -0.3Q0.15 -0.05 1.45 -0.3L3.3 -0.85L3.65 -1.05Q3.05 0.7 1.6 1.1Q-0.35 1.55 -1.8 0.45Q-2.45 -0.05 -3.3 -1.3L-3 -1.2" />
<radialGradient
id="RadialGradID_2249" gradientUnits="userSpaceOnUse" gradientTransform="matrix(0.00544739, -0.000427246, 0.000427246, 0.00544739, 0.55, -0.8)" spreadMethod ="pad" cx="0" cy="0" r="819.2" fx="0" fy="0" >
<stop  offset="0.478431"  style="stop-color:#823B2F;stop-opacity:1" />
<stop  offset="1"  style="stop-color:#AB5847;stop-opacity:0.792157" />
</radialGradient>
<path style="fill:url(#RadialGradID_2249) " d="M-3.3,-1.3L-3.65 -1.5L-3.65 -1.65L-3.35 -1.55L-2.85 -1.45L-1.8 -1.15L-0.2 -0.9L2.95 -1.25L4.05 -1.55L4.15 -1.55L4.05 -1.35L3.65 -1.05L3.3 -0.85L1.45 -0.3Q0.15 -0.05 -1.1 -0.3L-3 -1.2L-3.3 -1.3" />
<path style="fill:#FFFFFF;fill-opacity:1" d="M-2.1,-1.05L-1.3 -0.9L0.35 -0.75L2.85 -1.1L2.4 -0.75L1.3 -0.4L-0.2 -0.3L-1.45 -0.55L-2.1 -1.05" />
<radialGradient
id="RadialGradID_2250" gradientUnits="userSpaceOnUse" gradientTransform="matrix(0.00260925, 0.000488281, -0.000198364, 0.00100708, -0.8, 0.2)" spreadMethod ="pad" cx="0" cy="0" r="819.2" fx="0" fy="0" >
<stop  offset="0"  style="stop-color:#FFFFFF;stop-opacity:0.811765" />
<stop  offset="1"  style="stop-color:#FFFFFF;stop-opacity:0" />
</radialGradient>
<path style="fill:url(#RadialGradID_2250) " d="M-0.95,-0.05L0.4 0.1Q1 0 1 0.3L0.55 0.65L-0.6 0.7Q-1.45 0.75 -2.8 -0.8L-0.95 -0.05" />
</g>
</svg>
