<?xml version="1.0" encoding="utf-8"?>
<svg version="1.1" id="Layer_1"
xmlns="http://www.w3.org/2000/svg"
xmlns:xlink="http://www.w3.org/1999/xlink"
xmlns:author="http://www.sothink.com"
width="8px" height="4px"
xml:space="preserve">
<g id="228" transform="matrix(1, 0, 0, 1, 3.9, 1.9)">
<radialGradient
id="RadialGradID_2224" gradientUnits="userSpaceOnUse" gradientTransform="matrix(-9.15527e-005, -0.00189209, -0.00411987, -3.05176e-005, 0.05, 0.65)" spreadMethod ="pad" cx="0" cy="0" r="819.2" fx="0" fy="0" >
<stop  offset="0.0666667"  style="stop-color:#E37653;stop-opacity:0.662745" />
<stop  offset="1"  style="stop-color:#FFEFEA;stop-opacity:0" />
</radialGradient>
<path style="fill:url(#RadialGradID_2224) " d="M0.05,-0.4L1.9 -0.05Q2.6 0.25 2.65 0.75Q2.65 1.25 1.95 1.65L0.1 1.95L-1.65 1.65Q-2.5 1.25 -2.5 0.75Q-2.5 0.25 -1.75 -0.05L0.05 -0.4" />
<radialGradient
id="RadialGradID_2225" gradientUnits="userSpaceOnUse" gradientTransform="matrix(0.000778198, -0.000778198, -0.00114441, -0.000778198, -3.05, -0.9)" spreadMethod ="pad" cx="0" cy="0" r="819.2" fx="0" fy="0" >
<stop  offset="0"  style="stop-color:#D9521C;stop-opacity:0.552941" />
<stop  offset="1"  style="stop-color:#FFEFEA;stop-opacity:0" />
</radialGradient>
<path style="fill:url(#RadialGradID_2225) " d="M-3.2,-1.5L-2.55 -1.35L-2.15 -0.85L-2.3 -0.35L-2.9 -0.15L-3.55 -0.35L-3.85 -0.85L-3.75 -1.35L-3.2 -1.5" />
<radialGradient
id="RadialGradID_2226" gradientUnits="userSpaceOnUse" gradientTransform="matrix(-0.000976563, -0.000564575, 0.00088501, -0.00100708, 3.05, -0.7)" spreadMethod ="pad" cx="0" cy="0" r="819.2" fx="0" fy="0" >
<stop  offset="0"  style="stop-color:#D9521C;stop-opacity:0.552941" />
<stop  offset="1"  style="stop-color:#FFEFEA;stop-opacity:0" />
</radialGradient>
<path style="fill:url(#RadialGradID_2226) " d="M3,-1.45L2.5 -1.1L2.25 -0.55Q2.25 -0.3 2.55 -0.1L3.1 -0.05L3.7 -0.4L3.9 -0.95L3.6 -1.4L3 -1.45" />
<path style="fill:#964A46;fill-opacity:1" d="M-3.05,-0.65L-3.05 -0.85L-2.85 -0.85L-1.95 -1L-1 -1.2L0 -0.95L0.65 -1.1L1.15 -1.15L1.8 -1.05L2.5 -0.85L3 -0.85L3.1 -0.85L3.3 -0.6L2.95 -0.5L2.85 -0.45L2.4 -0.45L1.65 -0.55L0.2 -0.6L-1.2 -0.6L-2.1 -0.5L-2.7 -0.45L-3.05 -0.65" />
<radialGradient
id="RadialGradID_2227" gradientUnits="userSpaceOnUse" gradientTransform="matrix(0.00598145, -0.000152588, 9.15527e-005, 0.00314331, -1.45, -0.75)" spreadMethod ="pad" cx="0" cy="0" r="819.2" fx="0" fy="0" >
<stop  offset="0"  style="stop-color:#EB6969;stop-opacity:1" />
<stop  offset="0.407843"  style="stop-color:#FFB3B6;stop-opacity:0.921569" />
<stop  offset="0.835294"  style="stop-color:#FFC7CF;stop-opacity:0.831373" />
</radialGradient>
<path style="fill:url(#RadialGradID_2227) " d="M1.4,0.7L1.05 0.75L-1.15 0.7L-2.7 -0.45L-2.1 -0.5L-1.2 -0.6L0.2 -0.6L1.65 -0.55L2.4 -0.45L2.85 -0.45Q2 0.6 1.4 0.7" />
<radialGradient
id="RadialGradID_2228" gradientUnits="userSpaceOnUse" gradientTransform="matrix(0.00619507, -0.000152588, 0.000106812, 0.00358582, -0.8, -0.5)" spreadMethod ="pad" cx="0" cy="0" r="819.2" fx="25" fy="0" >
<stop  offset="0.207843"  style="stop-color:#ED846F;stop-opacity:1" />
<stop  offset="0.662745"  style="stop-color:#FAA18C;stop-opacity:0.592157" />
<stop  offset="1"  style="stop-color:#FCD2B2;stop-opacity:0.713725" />
</radialGradient>
<path style="fill:url(#RadialGradID_2228) " d="M3.1,-0.85L3 -0.85L2.5 -0.85L1.8 -1.05L1.15 -1.15L0.65 -1.1L0 -0.95L-1 -1.2L-1.95 -1L-2.85 -0.85L-1.75 -1.45L-0.75 -1.9L-0.15 -1.7L0.55 -1.7L1.15 -1.9L1.95 -1.5L3.1 -0.85" />
<radialGradient
id="RadialGradID_2229" gradientUnits="userSpaceOnUse" gradientTransform="matrix(0.000930786, 4.57764e-005, -0.000106812, 0.000640869, -0.8, 0)" spreadMethod ="pad" cx="0" cy="0" r="819.2" fx="0" fy="0" >
<stop  offset="0"  style="stop-color:#FFFFFF;stop-opacity:0.843137" />
<stop  offset="1"  style="stop-color:#FFFFFF;stop-opacity:0" />
</radialGradient>
<path style="fill:url(#RadialGradID_2229) " d="M-0.35,-0.35L-0.25 0.05L-0.45 0.4L-0.5 0.45L-0.55 0.45L-0.85 0.5L-1.15 0.4L-1.25 0.35L-1.4 0L-1.15 -0.45L-0.7 -0.5L-0.35 -0.35" />
<radialGradient
id="RadialGradID_2230" gradientUnits="userSpaceOnUse" gradientTransform="matrix(0.00178528, 0.000167847, -0.000320435, 0.000701904, 1.25, 0.05)" spreadMethod ="pad" cx="0" cy="0" r="819.2" fx="0" fy="0" >
<stop  offset="0"  style="stop-color:#FFFFFF;stop-opacity:0.862745" />
<stop  offset="1"  style="stop-color:#FFFFFF;stop-opacity:0" />
</radialGradient>
<path style="fill:url(#RadialGradID_2230) " d="M0.65,-0.45L1.5 -0.55L2.2 -0.25L2.4 0.15L1.8 0.5L1.6 0.6L1.55 0.6L1 0.6L0.5 0.5L0.45 0.5L0.25 0.4Q0 0.15 0.1 -0.05L0.65 -0.45" />
</g>
</svg>
