<?xml version="1.0" encoding="utf-8"?>
<svg version="1.1" id="Layer_1"
xmlns="http://www.w3.org/2000/svg"
xmlns:xlink="http://www.w3.org/1999/xlink"
xmlns:author="http://www.sothink.com"
width="8px" height="5px"
xml:space="preserve">
<g id="236" transform="matrix(1, 0, 0, 1, 3.95, 2.1)">
<radialGradient
id="RadialGradID_2287" gradientUnits="userSpaceOnUse" gradientTransform="matrix(0.001297, 0, -0.000152588, -0.00158691, -3.1, -0.8)" spreadMethod ="pad" cx="0" cy="0" r="819.2" fx="0" fy="0" >
<stop  offset="0"  style="stop-color:#D9521C;stop-opacity:0.552941" />
<stop  offset="1"  style="stop-color:#FFEFEA;stop-opacity:0" />
</radialGradient>
<path style="fill:url(#RadialGradID_2287) " d="M-2.6,-1.5L-2.3 -0.8L-2.5 -0.1L-3 0.15L-3.6 -0.1L-3.95 -0.85L-3.7 -1.5L-3.15 -1.8L-2.6 -1.5" />
<radialGradient
id="RadialGradID_2288" gradientUnits="userSpaceOnUse" gradientTransform="matrix(-0.0012207, 0.000457764, -0.000411987, -0.00154114, 3.2, -1.05)" spreadMethod ="pad" cx="0" cy="0" r="819.2" fx="0" fy="0" >
<stop  offset="0"  style="stop-color:#D9521C;stop-opacity:0.552941" />
<stop  offset="1"  style="stop-color:#FFEFEA;stop-opacity:0" />
</radialGradient>
<path style="fill:url(#RadialGradID_2288) " d="M2.95,-2.05L3.6 -1.95L3.95 -1.4L3.9 -0.65L3.45 -0.1L2.9 -0.15Q2.5 -0.45 2.45 -0.8L2.5 -1.55Q2.6 -1.95 2.95 -2.05" />
<radialGradient
id="RadialGradID_2289" gradientUnits="userSpaceOnUse" gradientTransform="matrix(-0.000167847, -0.00186157, -0.00440979, 0.000137329, -0.1, 0.85)" spreadMethod ="pad" cx="0" cy="0" r="819.2" fx="0" fy="0" >
<stop  offset="0.156863"  style="stop-color:#CC6A4B;stop-opacity:0.662745" />
<stop  offset="1"  style="stop-color:#FFEFEA;stop-opacity:0" />
</radialGradient>
<path style="fill:url(#RadialGradID_2289) " d="M-0.2,-0.25L1.8 0.05Q2.6 0.35 2.65 0.85Q2.7 1.3 1.95 1.7L0 2.1L-1.95 1.8Q-2.85 1.45 -2.85 1Q-2.9 0.5 -2.05 0.15L-0.2 -0.25" />
<radialGradient
id="RadialGradID_2290" gradientUnits="userSpaceOnUse" gradientTransform="matrix(0.0067749, -0.00012207, 3.05176e-005, 0.00210571, 0, -0.6)" spreadMethod ="pad" cx="0" cy="0" r="819.2" fx="0" fy="0" >
<stop  offset="0.141176"  style="stop-color:#E86F4F;stop-opacity:1" />
<stop  offset="0.992157"  style="stop-color:#E8A286;stop-opacity:0.341176" />
</radialGradient>
<path style="fill:url(#RadialGradID_2290) " d="M0.85,-1.95L3.25 -1L2.75 -0.95L0.6 -0.7L-1.25 -0.65L-2.45 -0.7L-2.85 -0.8L-2.9 -0.9L-2.85 -0.95L-2.7 -1.1L-1.9 -1.5L-1.6 -1.65L-1.05 -1.9L-0.05 -1.6L0.85 -1.95" />
<radialGradient
id="RadialGradID_2291" gradientUnits="userSpaceOnUse" gradientTransform="matrix(0.00498962, 0, 0, 0.00270081, 0, -0.8)" spreadMethod ="pad" cx="0" cy="0" r="819.2" fx="0" fy="0" >
<stop  offset="0.0941176"  style="stop-color:#D66851;stop-opacity:1" />
<stop  offset="0.180392"  style="stop-color:#E5866E;stop-opacity:1" />
<stop  offset="0.301961"  style="stop-color:#EB937A;stop-opacity:0.8" />
<stop  offset="0.619608"  style="stop-color:#F09F88;stop-opacity:0.470588" />
<stop  offset="0.854902"  style="stop-color:#DB735C;stop-opacity:1" />
</radialGradient>
<path style="fill:url(#RadialGradID_2291) " d="M-2.25,-0.4L2 -0.65L2.75 -0.55L2.5 -0.1L1.9 0.55Q1.45 0.95 0.15 1Q-1.15 1.05 -1.9 0.55L-2.6 -0.35L-2.25 -0.4" />
<radialGradient
id="RadialGradID_2292" gradientUnits="userSpaceOnUse" gradientTransform="matrix(0.00404358, 0, 0, 0.00404358, 0.05, -0.75)" spreadMethod ="pad" cx="0" cy="0" r="819.2" fx="0" fy="0" >
<stop  offset="0.745098"  style="stop-color:#823B2F;stop-opacity:1" />
<stop  offset="1"  style="stop-color:#AB5847;stop-opacity:0.4" />
</radialGradient>
<path style="fill:url(#RadialGradID_2292) " d="M0.85,-0.75L2 -0.95L2.9 -1.05Q3.4 -1.1 3.45 -0.8Q3.4 -0.6 2.9 -0.55L2.8 -0.55L2 -0.6L-2.1 -0.45L-2.45 -0.4L-2.8 -0.4L-3 -0.5L-3.2 -0.65L-2.9 -0.9L-1.65 -0.8L-0.5 -0.7L0.85 -0.75" />
<radialGradient
id="RadialGradID_2293" gradientUnits="userSpaceOnUse" gradientTransform="matrix(0.0032959, -6.10352e-005, 3.05176e-005, 0.00166321, -0.9, -0.45)" spreadMethod ="pad" cx="0" cy="0" r="819.2" fx="0" fy="0" >
<stop  offset="0"  style="stop-color:#FFFFFF;stop-opacity:0.560784" />
<stop  offset="1"  style="stop-color:#FFFFFF;stop-opacity:0" />
</radialGradient>
<path style="fill:url(#RadialGradID_2293) " d="M-0.75,-0.25L1.85 -0.35L1.65 -0.2L0.2 0.2L-1.2 0.1L-2.05 -0.4L-0.75 -0.25" />
</g>
</svg>
