<?xml version="1.0" encoding="utf-8"?>
<svg version="1.1" id="Layer_1"
xmlns="http://www.w3.org/2000/svg"
xmlns:xlink="http://www.w3.org/1999/xlink"
xmlns:author="http://www.sothink.com"
width="7px" height="7px"
xml:space="preserve">
<g id="229" transform="matrix(1, 0, 0, 1, 3.1, 3)">
<radialGradient
id="RadialGradID_2231" gradientUnits="userSpaceOnUse" gradientTransform="matrix(9.15527e-005, -0.00227356, -0.00498962, -0.000228882, 0.05, 1.5)" spreadMethod ="pad" cx="0" cy="0" r="819.2" fx="0" fy="0" >
<stop  offset="0.101961"  style="stop-color:#F15E1F;stop-opacity:0.423529" />
<stop  offset="1"  style="stop-color:#FFEFEA;stop-opacity:0" />
</radialGradient>
<path style="fill:url(#RadialGradID_2231) " d="M2.35,0.7Q3.15 1.15 3.15 1.75Q3.15 2.3 2.25 2.75L0 3.05L-2.15 2.55Q-3.1 2.05 -3.1 1.45Q-3.05 0.85 -2.05 0.5L0.1 0.2Q1.4 0.25 2.35 0.7" />
<radialGradient
id="RadialGradID_2232" gradientUnits="userSpaceOnUse" gradientTransform="matrix(0.00431824, -0.000198364, 4.57764e-005, 0.00111389, -0.9, 0.65)" spreadMethod ="pad" cx="0" cy="0" r="819.2" fx="0" fy="0" >
<stop  offset="0.431373"  style="stop-color:#FFBCB8;stop-opacity:1" />
<stop  offset="0.815686"  style="stop-color:#FF8554;stop-opacity:0.6" />
<stop  offset="0.988235"  style="stop-color:#E84B31;stop-opacity:0.670588" />
</radialGradient>
<path style="fill:url(#RadialGradID_2232) " d="M-1.25,1.15L-1.95 0.7L-2 0.65L-2.6 -0.1L0.45 -0.1L2.05 -0.1L2.75 -0.2Q2.25 1 0.95 1.35L-0.3 1.35L-1.25 1.15" />
<radialGradient
id="RadialGradID_2233" gradientUnits="userSpaceOnUse" gradientTransform="matrix(0.00141907, 0.000167847, -6.10352e-005, 0.00050354, -1.3, 0.45)" spreadMethod ="pad" cx="0" cy="0" r="819.2" fx="0" fy="0" >
<stop  offset="0.313725"  style="stop-color:#FFFFFF;stop-opacity:0.662745" />
<stop  offset="1"  style="stop-color:#FFFFFF;stop-opacity:0" />
</radialGradient>
<path style="fill:url(#RadialGradID_2233) " d="M-0.5,0.85L-1.3 0.9L-2.1 0.65L-2.45 0.35L-2.05 0.05L-1.2 0.05L-0.4 0.25L-0.1 0.6L-0.5 0.85" />
<radialGradient
id="RadialGradID_2234" gradientUnits="userSpaceOnUse" gradientTransform="matrix(0.000396729, 0, 0, 0.000396729, 0.4, 0.6)" spreadMethod ="pad" cx="0" cy="0" r="819.2" fx="0" fy="0" >
<stop  offset="0.313725"  style="stop-color:#FFFFFF;stop-opacity:0.662745" />
<stop  offset="1"  style="stop-color:#FFFFFF;stop-opacity:0" />
</radialGradient>
<path style="fill:url(#RadialGradID_2234) " d="M0.4,0.25L0.65 0.35L0.75 0.6L0.65 0.85L0.4 0.95L0.15 0.85L0.05 0.6L0.15 0.35L0.4 0.25" />
<radialGradient
id="RadialGradID_2235" gradientUnits="userSpaceOnUse" gradientTransform="matrix(0.0067749, 0, 0, 0.0032196, 0.75, 0.1)" spreadMethod ="pad" cx="0" cy="0" r="819.2" fx="0" fy="0" >
<stop  offset="0.266667"  style="stop-color:#E86F4F;stop-opacity:1" />
<stop  offset="0.992157"  style="stop-color:#FFC7B0;stop-opacity:0.341176" />
</radialGradient>
<path style="fill:url(#RadialGradID_2235) " d="M2.55,-0.5L1.65 -0.6L1.3 -0.7L1.2 -0.7L1.1 -0.7L0.1 -0.35L-1 -0.6L-1.1 -0.65L-1.45 -0.65L-2.1 -0.5L-2.65 -0.55Q-1.5 -1.5 -0.8 -1.45L0.1 -1.15L0.55 -1.45L0.95 -1.55Q1.3 -1.55 2.85 -0.55L2.55 -0.5" />
<radialGradient
id="RadialGradID_2236" gradientUnits="userSpaceOnUse" gradientTransform="matrix(0.0045166, 0, 0, 0.0039978, 0, -0.55)" spreadMethod ="pad" cx="0" cy="0" r="819.2" fx="0" fy="0" >
<stop  offset="0.329412"  style="stop-color:#851900;stop-opacity:0.780392" />
<stop  offset="0.694118"  style="stop-color:#801604;stop-opacity:1" />
<stop  offset="1"  style="stop-color:#C16A46;stop-opacity:0.0235294" />
</radialGradient>
<path style="fill:url(#RadialGradID_2236) " d="M2.85,-0.55L2.95 -0.6L3.1 -0.5L2.8 -0.2L2.75 -0.2L2.05 -0.1L0.45 -0.1L-2.6 -0.1L-3.1 -0.4L-3.1 -0.55L-2.95 -0.65L-2.7 -0.55L-2.65 -0.55L-2.1 -0.5L-1.45 -0.65L-1.1 -0.65L-1 -0.6L0.1 -0.35L1.1 -0.7L1.2 -0.7L1.3 -0.7L1.65 -0.6L2.55 -0.5L2.85 -0.55" />
<radialGradient
id="RadialGradID_2237" gradientUnits="userSpaceOnUse" gradientTransform="matrix(0.00189209, 0, 0, 0.00189209, -0.35, -2.3)" spreadMethod ="pad" cx="0" cy="0" r="819.2" fx="0" fy="0" >
<stop  offset="0"  style="stop-color:#F15E1F;stop-opacity:0.423529" />
<stop  offset="1"  style="stop-color:#FFEFEA;stop-opacity:0" />
</radialGradient>
<path style="fill:url(#RadialGradID_2237) " d="M0.8,-3L0.8 -1.8L0.4 -1.5L0.15 -1.45L-0.45 -1.65L-0.45 -2.95Q-0.15 -2.75 0.3 -2.75L0.8 -3" />
</g>
</svg>
