<?xml version="1.0" encoding="utf-8"?>
<svg version="1.1" id="Layer_1"
xmlns="http://www.w3.org/2000/svg"
xmlns:xlink="http://www.w3.org/1999/xlink"
xmlns:author="http://www.sothink.com"
width="8px" height="6px"
xml:space="preserve">
<g id="235" transform="matrix(1, 0, 0, 1, 3.75, 2.55)">
<radialGradient
id="RadialGradID_2278" gradientUnits="userSpaceOnUse" gradientTransform="matrix(-0.000152588, -0.00221252, -0.00437927, 7.62939e-005, 0.2, 1.05)" spreadMethod ="pad" cx="0" cy="0" r="819.2" fx="0" fy="0" >
<stop  offset="0.0666667"  style="stop-color:#E37653;stop-opacity:0.662745" />
<stop  offset="1"  style="stop-color:#FFEFEA;stop-opacity:0" />
</radialGradient>
<path style="fill:url(#RadialGradID_2278) " d="M0.15,-0.2L2.15 0.2Q2.9 0.55 2.95 1.15Q2.95 1.65 2.25 2.1L0.35 2.6L-1.6 2.25Q-2.5 1.8 -2.5 1.25Q-2.55 0.6 -1.7 0.25Q-1.05 -0.25 0.15 -0.2" />
<radialGradient
id="RadialGradID_2279" gradientUnits="userSpaceOnUse" gradientTransform="matrix(0.000915527, -0.000823975, -0.00111389, -0.00102234, 2.85, -0.8)" spreadMethod ="pad" cx="0" cy="0" r="819.2" fx="0" fy="0" >
<stop  offset="0"  style="stop-color:#D9521C;stop-opacity:0.552941" />
<stop  offset="1"  style="stop-color:#FFEFEA;stop-opacity:0" />
</radialGradient>
<path style="fill:url(#RadialGradID_2279) " d="M2.8,-1.6L3.4 -1.3L3.75 -0.7L3.55 -0.15L2.95 0.05L2.25 -0.25L1.95 -0.9Q1.9 -1.25 2.15 -1.45L2.8 -1.6" />
<radialGradient
id="RadialGradID_2280" gradientUnits="userSpaceOnUse" gradientTransform="matrix(-0.000976563, -0.000762939, 0.00105286, -0.00108337, -2.85, -0.4)" spreadMethod ="pad" cx="0" cy="0" r="819.2" fx="0" fy="0" >
<stop  offset="0"  style="stop-color:#D9521C;stop-opacity:0.552941" />
<stop  offset="1"  style="stop-color:#FFEFEA;stop-opacity:0" />
</radialGradient>
<path style="fill:url(#RadialGradID_2280) " d="M-2.85,-1.2L-3.4 -0.9L-3.75 -0.25L-3.5 0.3L-2.9 0.4Q-2.45 0.35 -2.25 0.05Q-1.95 -0.25 -2 -0.55Q-1.95 -0.9 -2.2 -1.1L-2.85 -1.2" />
<path style="fill:#DB6060;fill-opacity:1" d="M2.4,-0.35L2.7 -0.3L1.85 0.6L0.9 0.95L1.95 0.35L2.4 -0.35" />
<path style="fill:#CA5555;fill-opacity:1" d="M-1.3,-0.8L-1.25 -0.8L-0.95 -0.7L-1.3 -0.8" />
<radialGradient
id="RadialGradID_2281" gradientUnits="userSpaceOnUse" gradientTransform="matrix(0.00518799, -0.000274658, 0.000152588, 0.00282288, 0.1, 0.05)" spreadMethod ="pad" cx="0" cy="0" r="819.2" fx="0" fy="0" >
<stop  offset="0.0784314"  style="stop-color:#AE282F;stop-opacity:1" />
<stop  offset="0.956863"  style="stop-color:#F77F79;stop-opacity:0.592157" />
</radialGradient>
<path style="fill:url(#RadialGradID_2281) " d="M-1.7,-0.65L-2.25 -0.5L-2.45 -0.5L-2.55 -0.6L-2.3 -0.85L-2.2 -0.95L-0.65 -0.9Q0.35 -0.7 1.1 -1.15L1.9 -1.4L2.1 -1.25L2.45 -1L2.75 -0.75L2.65 -0.75L2.6 -0.75L2.05 -0.7L1.4 -0.75L0.65 -0.65L-0.05 -0.55L-0.9 -0.7L-0.95 -0.7L-1.25 -0.8L-1.3 -0.8L-1.7 -0.65" />
<radialGradient
id="RadialGradID_2282" gradientUnits="userSpaceOnUse" gradientTransform="matrix(0.00602722, -0.000198364, 9.15527e-005, 0.00309753, 0.85, 0.4)" spreadMethod ="pad" cx="0" cy="0" r="819.2" fx="0" fy="0" >
<stop  offset="0.0352941"  style="stop-color:#EB6969;stop-opacity:1" />
<stop  offset="0.494118"  style="stop-color:#FFB3B6;stop-opacity:0.921569" />
<stop  offset="0.898039"  style="stop-color:#FFC7CF;stop-opacity:0.831373" />
</radialGradient>
<path style="fill:url(#RadialGradID_2282) " d="M1.95,0.35L0.9 0.95L-0.2 0.9L-0.65 0.95L-1.55 0.75Q-1.95 0.65 -2.35 -0.2L-2.15 -0.3L-1.2 -0.35L1.5 -0.25L2.15 -0.3L2.4 -0.35L1.95 0.35" />
<radialGradient
id="RadialGradID_2283" gradientUnits="userSpaceOnUse" gradientTransform="matrix(0.00515747, 0, 0, 0.00175476, -0.05, -0.35)" spreadMethod ="pad" cx="0" cy="0" r="819.2" fx="0" fy="0" >
<stop  offset="0.0784314"  style="stop-color:#AE282F;stop-opacity:1" />
<stop  offset="0.662745"  style="stop-color:#F77F79;stop-opacity:0.592157" />
<stop  offset="1"  style="stop-color:#F5A28C;stop-opacity:0.713725" />
</radialGradient>
<path style="fill:url(#RadialGradID_2283) " d="M1.9,-1.4L1.1 -1.15Q0.35 -0.7 -0.65 -0.9L-2.2 -0.95L-1.2 -1.7L-0.1 -1.45L1 -1.7L1.7 -1.5L1.9 -1.4" />
<radialGradient
id="RadialGradID_2284" gradientUnits="userSpaceOnUse" gradientTransform="matrix(0.00413513, 0.000320435, -0.000320435, 0.00413513, -1.5, -0.25)" spreadMethod ="pad" cx="0" cy="0" r="819.2" fx="0" fy="0" >
<stop  offset="0"  style="stop-color:#A64A45;stop-opacity:0.85098" />
<stop  offset="0.752941"  style="stop-color:#803F3C;stop-opacity:1" />
</radialGradient>
<path style="fill:url(#RadialGradID_2284) " d="M2.8,-0.75L3 -0.8L3.1 -0.55L2.9 -0.4L2.7 -0.3L2.4 -0.35L2.15 -0.3L1.5 -0.25L-1.2 -0.35L-2.15 -0.3L-2.35 -0.2L-2.6 -0.25Q-3 -0.25 -3 -0.45L-2.85 -0.65L-2.55 -0.6L-2.45 -0.5L-2.25 -0.5L-1.7 -0.65L-1.3 -0.8L-0.95 -0.7L-0.9 -0.7L-0.05 -0.55L0.65 -0.65L1.4 -0.75L2.05 -0.7L2.6 -0.75L2.65 -0.75L2.75 -0.75L2.8 -0.75" />
<radialGradient
id="RadialGradID_2285" gradientUnits="userSpaceOnUse" gradientTransform="matrix(0.00177002, 0.000167847, -7.62939e-005, 0.000823975, -0.2, -1.4)" spreadMethod ="pad" cx="0" cy="0" r="819.2" fx="0" fy="0" >
<stop  offset="0"  style="stop-color:#FFFFFF;stop-opacity:1" />
<stop  offset="1"  style="stop-color:#FFFFFF;stop-opacity:0" />
</radialGradient>
<path style="fill:url(#RadialGradID_2285) " d="M-0.65,-2.55L-0.45 -2.55L-0.5 -1.75L-0.15 -1.7L-0.05 -1.7L0.1 -1.75L0.1 -2L0.15 -2.4L0.15 -2.5L0.3 -2.3L0.55 -2Q0.65 -1.8 1 -1.85L1.05 -1.7L1 -1.7L0.7 -1.7L0.5 -1.55L-0.35 -1.5L-1.45 -1.55L-0.75 -2.1L-0.65 -2.55" />
<radialGradient
id="RadialGradID_2286" gradientUnits="userSpaceOnUse" gradientTransform="matrix(0.00491333, 0.000488281, -0.000305176, 0.00318909, -1.9, -0.95)" spreadMethod ="pad" cx="0" cy="0" r="819.2" fx="0" fy="0" >
<stop  offset="0"  style="stop-color:#FFFFFF;stop-opacity:1" />
<stop  offset="1"  style="stop-color:#FFFFFF;stop-opacity:0" />
</radialGradient>
<path style="fill:url(#RadialGradID_2286) " d="M-1.85,0L-1.35 -0.3L-0.75 -0.15L-0.1 0L1.25 -0.05L0.35 0.5L-0.65 0.55Q-1.45 0.45 -1.85 0.05L-1.85 0" />
</g>
</svg>
