<?xml version="1.0" encoding="utf-8"?>
<svg version="1.1" id="Layer_1"
xmlns="http://www.w3.org/2000/svg"
xmlns:xlink="http://www.w3.org/1999/xlink"
xmlns:author="http://www.sothink.com"
width="9px" height="4px"
xml:space="preserve">
<g id="227" transform="matrix(1, 0, 0, 1, 4.15, 1.95)">
<radialGradient
id="RadialGradID_2218" gradientUnits="userSpaceOnUse" gradientTransform="matrix(0.000915527, -0.000656128, -0.000930786, -0.00102234, -3.35, -1)" spreadMethod ="pad" cx="0" cy="0" r="819.2" fx="0" fy="0" >
<stop  offset="0"  style="stop-color:#D9521C;stop-opacity:0.552941" />
<stop  offset="1"  style="stop-color:#FFEFEA;stop-opacity:0" />
</radialGradient>
<path style="fill:url(#RadialGradID_2218) " d="M-3.3,-1.75Q-3 -1.7 -2.8 -1.45L-2.55 -0.85L-2.75 -0.35L-3.35 -0.25L-3.9 -0.55L-4.15 -1.15L-3.9 -1.65L-3.3 -1.75" />
<radialGradient
id="RadialGradID_2219" gradientUnits="userSpaceOnUse" gradientTransform="matrix(-1.52588e-005, -0.00112915, 0.00137329, 0.000106812, 3.25, -0.9)" spreadMethod ="pad" cx="0" cy="0" r="819.2" fx="0" fy="0" >
<stop  offset="0"  style="stop-color:#D9521C;stop-opacity:0.552941" />
<stop  offset="1"  style="stop-color:#FFEFEA;stop-opacity:0" />
</radialGradient>
<path style="fill:url(#RadialGradID_2219) " d="M3.85,-1.35L3.25 -1.6L2.65 -1.45L2.4 -0.95L2.7 -0.4Q2.95 -0.25 3.3 -0.15L3.85 -0.35L4.15 -0.8L3.85 -1.35" />
<radialGradient
id="RadialGradID_2220" gradientUnits="userSpaceOnUse" gradientTransform="matrix(-0.000228882, -0.00184631, -0.00369263, 0.000274658, 0.05, 0.7)" spreadMethod ="pad" cx="0" cy="0" r="819.2" fx="0" fy="0" >
<stop  offset="0.0666667"  style="stop-color:#E37653;stop-opacity:0.662745" />
<stop  offset="1"  style="stop-color:#FFEFEA;stop-opacity:0" />
</radialGradient>
<path style="fill:url(#RadialGradID_2220) " d="M-2.2,0.95Q-2.25 0.5 -1.55 0.1L0 -0.35L1.65 -0.15Q2.3 0.1 2.4 0.6L1.85 1.5L0.2 1.95L-1.4 1.75Q-2.2 1.45 -2.2 0.95" />
<path style="fill:#964A46;fill-opacity:1" d="M1.95,-0.65L0.05 -0.65L-1.25 -0.7L-2.1 -0.65L-2.45 -0.6L-2.55 -0.6L-2.65 -0.6Q-3 -0.6 -3.35 -0.9L-3.15 -1.05L-3.05 -1L-2.9 -0.95L-2.5 -0.95L-0.75 -1.15L0 -0.85L0.9 -1.15L2.65 -0.9L3.05 -0.9L3.3 -1L3.45 -0.85L2.75 -0.55L2.7 -0.55L1.95 -0.65" />
<radialGradient
id="RadialGradID_2221" gradientUnits="userSpaceOnUse" gradientTransform="matrix(0.00743103, 0, 0, 0.00326538, -0.2, -2.1)" spreadMethod ="pad" cx="0" cy="0" r="819.2" fx="0" fy="0" >
<stop  offset="0"  style="stop-color:#ED8874;stop-opacity:0.752941" />
<stop  offset="0.662745"  style="stop-color:#FAA18C;stop-opacity:0.592157" />
<stop  offset="1"  style="stop-color:#FCD2B2;stop-opacity:0.713725" />
</radialGradient>
<path style="fill:url(#RadialGradID_2221) " d="M3.05,-0.9L2.65 -0.9L0.9 -1.15L0 -0.85L-0.75 -1.15L-2.5 -0.95L-2.9 -0.95L-3.05 -1L-2.05 -1.5L-1.2 -1.9L-0.55 -1.55Q-0.15 -1.2 0 -1.3Q0.8 -2 1.05 -1.95L2.05 -1.45Q2.85 -1 3.3 -1L3.05 -0.9" />
<radialGradient
id="RadialGradID_2222" gradientUnits="userSpaceOnUse" gradientTransform="matrix(0.00495911, 0.000335693, -0.000213623, 0.00332642, -0.7, -0.9)" spreadMethod ="pad" cx="0" cy="0" r="819.2" fx="0" fy="0" >
<stop  offset="0.00392157"  style="stop-color:#F2715C;stop-opacity:0.8" />
<stop  offset="0.490196"  style="stop-color:#FAA18C;stop-opacity:0.8" />
<stop  offset="1"  style="stop-color:#FCD2B2;stop-opacity:0.713725" />
</radialGradient>
<path style="fill:url(#RadialGradID_2222) " d="M2.7,-0.55L1.95 0.05Q1.6 0.35 1.25 0.45L1.05 0.5L-0.9 0.5L-2.55 -0.6L-2.45 -0.6L-2.1 -0.65L-1.25 -0.7L0.05 -0.65L1.95 -0.65L2.7 -0.55" />
<radialGradient
id="RadialGradID_2223" gradientUnits="userSpaceOnUse" gradientTransform="matrix(0.00280762, 0.000183105, -0.000183105, 0.00280762, -0.05, -0.65)" spreadMethod ="pad" cx="0" cy="0" r="819.2" fx="0" fy="0" >
<stop  offset="0"  style="stop-color:#FFFFFF;stop-opacity:0.733333" />
<stop  offset="1"  style="stop-color:#FFFFFF;stop-opacity:0" />
</radialGradient>
<path style="fill:url(#RadialGradID_2223) " d="M0.05,0.45L-1.15 0.2L-1.5 -0.1L-1.5 -0.35L-1.1 -0.6L-0.15 -0.35L0.75 -0.4L1.5 -0.55Q1.8 -0.55 1.65 -0.15Q1.45 0.3 0.45 0.45L0.2 0.45L0.2 -0.2L0.1 -0.2L0.05 0.45" />
</g>
</svg>
