<?xml version="1.0" encoding="utf-8"?>
<svg version="1.1" id="Layer_1"
xmlns="http://www.w3.org/2000/svg"
xmlns:xlink="http://www.w3.org/1999/xlink"
xmlns:author="http://www.sothink.com"
width="8px" height="5px"
xml:space="preserve">
<g id="230" transform="matrix(1, 0, 0, 1, 3.85, 2.3)">
<radialGradient
id="RadialGradID_2238" gradientUnits="userSpaceOnUse" gradientTransform="matrix(-0.000152588, -0.00221252, -0.00437927, 7.62939e-005, 0.15, 0.85)" spreadMethod ="pad" cx="0" cy="0" r="819.2" fx="0" fy="0" >
<stop  offset="0.0666667"  style="stop-color:#E37653;stop-opacity:0.662745" />
<stop  offset="1"  style="stop-color:#FFEFEA;stop-opacity:0" />
</radialGradient>
<path style="fill:url(#RadialGradID_2238) " d="M0.1,-0.4L2.1 0Q2.85 0.3 2.9 0.95Q2.95 1.45 2.2 1.9L0.3 2.3L-1.65 2.05Q-2.55 1.6 -2.55 1.05Q-2.6 0.4 -1.75 0L0.1 -0.4" />
<radialGradient
id="RadialGradID_2239" gradientUnits="userSpaceOnUse" gradientTransform="matrix(0.000915527, -0.000823975, -0.00111389, -0.00102234, -2.95, -1.3)" spreadMethod ="pad" cx="0" cy="0" r="819.2" fx="0" fy="0" >
<stop  offset="0"  style="stop-color:#D9521C;stop-opacity:0.552941" />
<stop  offset="1"  style="stop-color:#FFEFEA;stop-opacity:0" />
</radialGradient>
<path style="fill:url(#RadialGradID_2239) " d="M-3.05,-2.05L-2.4 -1.75L-2.05 -1.1L-2.25 -0.6L-2.9 -0.45Q-3.3 -0.5 -3.55 -0.7L-3.8 -1.35L-3.65 -1.9L-3.05 -2.05" />
<radialGradient
id="RadialGradID_2240" gradientUnits="userSpaceOnUse" gradientTransform="matrix(-0.000976563, -0.000762939, 0.00105286, -0.00108337, 2.95, -1.5)" spreadMethod ="pad" cx="0" cy="0" r="819.2" fx="0" fy="0" >
<stop  offset="0"  style="stop-color:#D9521C;stop-opacity:0.552941" />
<stop  offset="1"  style="stop-color:#FFEFEA;stop-opacity:0" />
</radialGradient>
<path style="fill:url(#RadialGradID_2240) " d="M2.95,-2.3L2.35 -1.95L2.05 -1.35L2.3 -0.8L2.95 -0.7Q3.35 -0.75 3.55 -1L3.85 -1.6L3.6 -2.15L2.95 -2.3" />
<path style="fill:#964A46;fill-opacity:1" d="M2.5,-1.15L1.65 -0.85Q0.15 -0.1 -1.1 -0.6L-2.6 -1.05L-2.75 -1L-2.9 -1L-3.1 -1.25L-2.9 -1.45L-2.65 -1.4L-1.8 -1.3L-0.8 -1.35L-0.1 -1.2L-0.05 -1.2L0.4 -1.25L1 -1.4L1.75 -1.45L2.75 -1.55L2.85 -1.55L3.05 -1.6L3.2 -1.45L3.05 -1.25L2.75 -1.15L2.7 -1.15L2.5 -1.15" />
<radialGradient
id="RadialGradID_2241" gradientUnits="userSpaceOnUse" gradientTransform="matrix(0.00669861, 0.000473022, -0.000183105, 0.00248718, 0.2, -0.7)" spreadMethod ="pad" cx="0" cy="0" r="819.2" fx="25" fy="0" >
<stop  offset="0.207843"  style="stop-color:#ED846F;stop-opacity:1" />
<stop  offset="0.662745"  style="stop-color:#FAA18C;stop-opacity:0.592157" />
<stop  offset="1"  style="stop-color:#FCD2B2;stop-opacity:0.713725" />
</radialGradient>
<path style="fill:url(#RadialGradID_2241) " d="M1.75,-1.45L1 -1.4L0.4 -1.25L-0.05 -1.2L-0.1 -1.2L-0.8 -1.35L-1.8 -1.3L-2.65 -1.4L-2.5 -1.45L-1.65 -1.7L-0.9 -1.85L0.15 -1.45Q0.75 -1.9 1.3 -1.8L1.95 -1.75L2.75 -1.55L1.75 -1.45" />
<radialGradient
id="RadialGradID_2242" gradientUnits="userSpaceOnUse" gradientTransform="matrix(0.00419617, -7.62939e-005, 4.57764e-005, 0.003479, -0.05, -1.75)" spreadMethod ="pad" cx="0" cy="0" r="819.2" fx="0" fy="0" >
<stop  offset="0.227451"  style="stop-color:#E86E5A;stop-opacity:1" />
<stop  offset="0.788235"  style="stop-color:#FCAC97;stop-opacity:0.713725" />
<stop  offset="1"  style="stop-color:#E8795A;stop-opacity:0.8" />
</radialGradient>
<path style="fill:url(#RadialGradID_2242) " d="M2.7,-1.15L2.6 -0.6L2.05 0.2L0.95 0.8L0.75 0.85L-0.85 0.8L-2 0.3L-2.6 -0.4L-2.75 -1L-2.6 -1.05L-1.1 -0.6Q0.15 -0.1 1.65 -0.85L2.5 -1.15L2.7 -1.15" />
<path style="fill:#FFFFFF;fill-opacity:1" d="M-0.2,-1.05L0.65 -1.1L1.45 -1.25L1.8 -1.35L1.85 -1.35L1.3 -0.95L0.4 -0.8L-0.85 -0.8L-0.9 -0.8Q-1.65 -1 -1.8 -1.2L-1.75 -1.2L-0.95 -1.2L-0.2 -1.05" />
<radialGradient
id="RadialGradID_2243" gradientUnits="userSpaceOnUse" gradientTransform="matrix(0.00311279, 0.00114441, -0.00114441, 0.00311279, 0.55, 0)" spreadMethod ="pad" cx="0" cy="0" r="819.2" fx="0" fy="0" >
<stop  offset="0"  style="stop-color:#FFFFFF;stop-opacity:0.843137" />
<stop  offset="1"  style="stop-color:#FFFFFF;stop-opacity:0" />
</radialGradient>
<path style="fill:url(#RadialGradID_2243) " d="M-2,0Q-2.25 -0.2 -2.15 -0.45L-2.05 -0.65L-1 -0.25L0 0L0.6 0Q0.9 -0.05 0.8 0.2L0.4 0.55L-0.6 0.5L-1.55 0.25L-2 0" />
</g>
</svg>
