<?xml version="1.0" encoding="utf-8"?>
<svg version="1.1" id="Layer_1"
xmlns="http://www.w3.org/2000/svg"
xmlns:xlink="http://www.w3.org/1999/xlink"
xmlns:author="http://www.sothink.com"
width="9px" height="4px"
xml:space="preserve">
<g id="232" transform="matrix(1, 0, 0, 1, 4.05, 1.85)">
<radialGradient
id="RadialGradID_2251" gradientUnits="userSpaceOnUse" gradientTransform="matrix(-0.000930786, -0.000732422, 0.000930786, -0.00114441, 3.25, -0.85)" spreadMethod ="pad" cx="0" cy="0" r="819.2" fx="0" fy="0" >
<stop  offset="0"  style="stop-color:#D9521C;stop-opacity:0.552941" />
<stop  offset="1"  style="stop-color:#FFEFEA;stop-opacity:0" />
</radialGradient>
<path style="fill:url(#RadialGradID_2251) " d="M3.25,-1.65L2.65 -1.3L2.45 -0.65Q2.4 -0.3 2.7 -0.1L3.25 0L3.85 -0.4L4.1 -1.05L3.85 -1.6L3.25 -1.65" />
<radialGradient
id="RadialGradID_2252" gradientUnits="userSpaceOnUse" gradientTransform="matrix(-0.000930786, -0.000732422, 0.000930786, -0.00114441, -3.25, -0.9)" spreadMethod ="pad" cx="0" cy="0" r="819.2" fx="0" fy="0" >
<stop  offset="0"  style="stop-color:#D9521C;stop-opacity:0.552941" />
<stop  offset="1"  style="stop-color:#FFEFEA;stop-opacity:0" />
</radialGradient>
<path style="fill:url(#RadialGradID_2252) " d="M-3.25,-1.7L-3.85 -1.35L-4.05 -0.7Q-4.1 -0.35 -3.8 -0.15L-3.25 -0.05L-2.65 -0.45Q-2.4 -0.75 -2.4 -1.1L-2.65 -1.65L-3.25 -1.7" />
<radialGradient
id="RadialGradID_2253" gradientUnits="userSpaceOnUse" gradientTransform="matrix(-0.00012207, -0.00192261, -0.00372314, 0.000198364, -0.3, 0.65)" spreadMethod ="pad" cx="0" cy="0" r="819.2" fx="0" fy="0" >
<stop  offset="0.0666667"  style="stop-color:#E37653;stop-opacity:0.662745" />
<stop  offset="1"  style="stop-color:#FFEFEA;stop-opacity:0" />
</radialGradient>
<path style="fill:url(#RadialGradID_2253) " d="M-2.6,0.8Q-2.65 0.3 -1.95 -0.1L-0.35 -0.5L1.3 -0.25Q2 0.05 2.05 0.55Q2.1 1.05 1.4 1.45L-0.2 1.9L-1.8 1.65Q-2.55 1.3 -2.6 0.8" />
<radialGradient
id="RadialGradID_2254" gradientUnits="userSpaceOnUse" gradientTransform="matrix(0.00617981, -0.000534058, 0.000228882, 0.00314331, 0.05, -1.85)" spreadMethod ="pad" cx="0" cy="0" r="819.2" fx="0" fy="0" >
<stop  offset="0"  style="stop-color:#ED846F;stop-opacity:1" />
<stop  offset="0.662745"  style="stop-color:#FAA18C;stop-opacity:0.592157" />
<stop  offset="1"  style="stop-color:#FCD2B2;stop-opacity:0.713725" />
</radialGradient>
<path style="fill:url(#RadialGradID_2254) " d="M3.45,-0.85L3.4 -0.85L3.1 -0.85L3.05 -0.85L2.8 -0.9L2.55 -0.9L2.2 -0.95L1.35 -1.05L1.15 -1.1L1.15 -1.15L1.1 -1.1L1.05 -1.1L0.95 -1.15L0.5 -1L0.4 -0.95L0.4 -0.9L0.35 -0.9L-0.15 -1L-0.55 -1.15L-0.95 -1.05L-1.8 -0.95L-2.75 -0.95L-2.8 -0.95L-2.45 -1L-1 -1.65L-0.6 -1.85L0.2 -1.5L0.05 -1.4L0.15 -1.45Q0.65 -1.9 0.85 -1.85L0.95 -1.85L1 -1.85L1.1 -1.8L1.15 -1.75L1.2 -1.75L1.35 -1.65L3.1 -0.95L3.15 -0.95L3.55 -0.85L3.45 -0.85M1.15,-1.75L1.15 -1.7L1.2 -1.7L1.15 -1.75" />
<radialGradient
id="RadialGradID_2255" gradientUnits="userSpaceOnUse" gradientTransform="matrix(0.00376892, -0.000320435, 0.000289917, 0.00413513, -0.2, -0.85)" spreadMethod ="pad" cx="0" cy="0" r="819.2" fx="0" fy="0" >
<stop  offset="0.709804"  style="stop-color:#964A46;stop-opacity:1" />
<stop  offset="1"  style="stop-color:#964A46;stop-opacity:0.360784" />
</radialGradient>
<path style="fill:url(#RadialGradID_2255) " d="M1.15,-0.85L1.2 -0.85L1.35 -0.85L1.6 -0.8L1.65 -0.8L1.75 -0.8L2.2 -0.65L1.75 -0.7L1.4 -0.75L0.2 -0.7L0.15 -0.7L-1 -0.75L-2.75 -0.6L-2.8 -0.6L-3.25 -0.95L-3.05 -1.05L-2.95 -1L-2.8 -0.95L-2.75 -0.95L-1.8 -0.95L-0.95 -1.05L-0.55 -1.15L-0.15 -1L0.35 -0.9L0.4 -0.9L0.4 -0.95L0.5 -1L0.95 -1.15L1.05 -1.1L1.1 -1.1L1.15 -1.15L1.15 -1.1L1.15 -0.85" />
<radialGradient
id="RadialGradID_2256" gradientUnits="userSpaceOnUse" gradientTransform="matrix(0.00482178, 0, 0, 0.00222778, 0.05, -0.85)" spreadMethod ="pad" cx="0" cy="0" r="819.2" fx="0" fy="0" >
<stop  offset="0.00392157"  style="stop-color:#F2735D;stop-opacity:1" />
<stop  offset="0.611765"  style="stop-color:#FAA18C;stop-opacity:0.8" />
<stop  offset="1"  style="stop-color:#FCD2B2;stop-opacity:0.713725" />
</radialGradient>
<path style="fill:url(#RadialGradID_2256) " d="M2.25,-0.65L2.65 -0.65L3.05 -0.6L3.35 -0.65L3.2 -0.55Q2.25 0.45 1.1 0.4L0.75 0.4L1 0.4L0.35 0.4L0.3 0.4L0.2 0.4L0.15 0.4L-0.65 0.4L-1.95 0.05L-2.8 -0.6L-2.75 -0.6L-1 -0.75L0.15 -0.7L0.2 -0.7L1.4 -0.75L1.75 -0.7L2.2 -0.65L2.25 -0.65" />
<radialGradient
id="RadialGradID_2257" gradientUnits="userSpaceOnUse" gradientTransform="matrix(0.00704956, -0.000320435, 0.000549316, 0.00413513, -1.7, -0.85)" spreadMethod ="pad" cx="0" cy="0" r="819.2" fx="0" fy="0" >
<stop  offset="0.709804"  style="stop-color:#964A46;stop-opacity:1" />
<stop  offset="1"  style="stop-color:#964A46;stop-opacity:0.360784" />
</radialGradient>
<path style="fill:url(#RadialGradID_2257) " d="M2.2,-0.65L1.75 -0.8L1.65 -0.8L1.6 -0.8L1.35 -0.85L1.2 -0.85L1.15 -0.85L1.15 -1.1L1.35 -1.05L2.2 -0.95L2.55 -0.9L2.8 -0.9L3.05 -0.85L3.1 -0.85L3.3 -0.85L3.4 -0.85L3.45 -0.85L3.55 -0.85L3.6 -0.85L3.6 -0.8L3.4 -0.65L3.35 -0.65L3.05 -0.6L2.65 -0.65L2.25 -0.65L2.2 -0.65" />
<radialGradient
id="RadialGradID_2258" gradientUnits="userSpaceOnUse" gradientTransform="matrix(0.00671387, -0.000534058, 0.000228882, 0.00314331, -0.1, -1.85)" spreadMethod ="pad" cx="0" cy="0" r="819.2" fx="0" fy="0" >
<stop  offset="0"  style="stop-color:#ED846F;stop-opacity:1" />
<stop  offset="0.662745"  style="stop-color:#FAA18C;stop-opacity:0.592157" />
<stop  offset="1"  style="stop-color:#FCD2B2;stop-opacity:0.713725" />
</radialGradient>
<path style="fill:url(#RadialGradID_2258) " d="M1.2,-1.7L1.15 -1.7L1.15 -1.75L1.2 -1.7" />
<radialGradient
id="RadialGradID_2259" gradientUnits="userSpaceOnUse" gradientTransform="matrix(0.00389099, -0.000335693, 0.000305176, 0.00427246, -1.55, -0.35)" spreadMethod ="pad" cx="0" cy="0" r="819.2" fx="0" fy="0" >
<stop  offset="0"  style="stop-color:#FFFFFF;stop-opacity:0.6" />
<stop  offset="1"  style="stop-color:#FFFFFF;stop-opacity:0" />
</radialGradient>
<path style="fill:url(#RadialGradID_2259) " d="M-1.5,-0.5L-0.9 -0.45L-0.1 -0.25L0.95 -0.3L1.7 -0.05L-0.15 0.2Q-1.4 0.25 -1.95 -0.3L-1.5 -0.5" />
</g>
</svg>
