<?xml version="1.0" encoding="utf-8"?>
<svg version="1.1" id="Layer_1"
xmlns="http://www.w3.org/2000/svg"
xmlns:xlink="http://www.w3.org/1999/xlink"
xmlns:author="http://www.sothink.com"
width="8px" height="5px"
xml:space="preserve">
<g id="237" transform="matrix(1, 0, 0, 1, 3.95, 2.25)">
<radialGradient
id="RadialGradID_2294" gradientUnits="userSpaceOnUse" gradientTransform="matrix(0.000106812, -0.00234985, -0.00485229, -0.000228882, -0.2, 0.7)" spreadMethod ="pad" cx="0" cy="0" r="819.2" fx="0" fy="0" >
<stop  offset="0"  style="stop-color:#F15E1F;stop-opacity:0.423529" />
<stop  offset="1"  style="stop-color:#FFEFEA;stop-opacity:0" />
</radialGradient>
<path style="fill:url(#RadialGradID_2294) " d="M2,-0.15Q2.85 0.25 2.85 0.9Q2.8 1.5 1.9 1.9L-0.3 2.25Q-1.55 2.2 -2.35 1.75Q-3.35 1.2 -3.3 0.6Q-3.25 -0.05 -2.25 -0.35L-0.15 -0.7Q1.15 -0.65 2 -0.15" />
<radialGradient
id="RadialGradID_2295" gradientUnits="userSpaceOnUse" gradientTransform="matrix(0.000946045, -0.000793457, -0.00108337, -0.00105286, 3.1, -1)" spreadMethod ="pad" cx="0" cy="0" r="819.2" fx="0" fy="0" >
<stop  offset="0"  style="stop-color:#D9521C;stop-opacity:0.552941" />
<stop  offset="1"  style="stop-color:#FFEFEA;stop-opacity:0" />
</radialGradient>
<path style="fill:url(#RadialGradID_2295) " d="M3.05,-1.8L3.7 -1.5L4 -0.85L3.8 -0.35Q3.55 -0.15 3.15 -0.15Q2.75 -0.3 2.5 -0.5Q2.2 -0.8 2.2 -1.1Q2.15 -1.5 2.45 -1.7L3.05 -1.8" />
<radialGradient
id="RadialGradID_2296" gradientUnits="userSpaceOnUse" gradientTransform="matrix(-0.000961304, -0.000793457, 0.00109863, -0.00105286, -3.05, -1.15)" spreadMethod ="pad" cx="0" cy="0" r="819.2" fx="0" fy="0" >
<stop  offset="0"  style="stop-color:#D9521C;stop-opacity:0.552941" />
<stop  offset="1"  style="stop-color:#FFEFEA;stop-opacity:0" />
</radialGradient>
<path style="fill:url(#RadialGradID_2296) " d="M-2.35,-1.8Q-2.1 -1.65 -2.15 -1.25Q-2.15 -0.95 -2.45 -0.65Q-2.7 -0.4 -3.1 -0.3L-3.7 -0.45Q-4 -0.65 -3.95 -1L-3.6 -1.65L-3 -1.95L-2.35 -1.8" />
<radialGradient
id="RadialGradID_2297" gradientUnits="userSpaceOnUse" gradientTransform="matrix(-1.52588e-005, -0.00177002, -0.00416565, -0.000228882, -0.2, 0.75)" spreadMethod ="pad" cx="0" cy="0" r="819.2" fx="0" fy="0" >
<stop  offset="0.0705882"  style="stop-color:#C25E3E;stop-opacity:0.662745" />
<stop  offset="1"  style="stop-color:#FFEFEA;stop-opacity:0" />
</radialGradient>
<path style="fill:url(#RadialGradID_2297) " d="M-2.8,0.7Q-2.85 0.25 -1.95 -0.05L-0.2 -0.25Q0.85 -0.25 1.65 0.15Q2.35 0.5 2.4 1Q2.4 1.45 1.7 1.75L-0.2 1.95L-1.95 1.55L-2.8 0.7" />
<radialGradient
id="RadialGradID_2298" gradientUnits="userSpaceOnUse" gradientTransform="matrix(0.00474548, 0.000762939, -0.000411987, 0.00263977, -0.35, -1.05)" spreadMethod ="pad" cx="0" cy="0" r="819.2" fx="0" fy="0" >
<stop  offset="0.141176"  style="stop-color:#E86F4F;stop-opacity:1" />
<stop  offset="0.992157"  style="stop-color:#E89B86;stop-opacity:0.341176" />
</radialGradient>
<path style="fill:url(#RadialGradID_2298) " d="M2.25,-1.2L0.8 -1.25L0 -1.15L-0.05 -1.15L-0.85 -1.25L-2.3 -1.2L-2.8 -1.25L-2.5 -1.45Q-1.4 -2.25 -1.1 -2.25L-0.25 -2L-0.15 -1.95L-0.1 -1.95L0 -1.95L0.2 -2L1.05 -2.25Q1.35 -2.25 2.45 -1.45L2.75 -1.25L2.25 -1.2" />
<radialGradient
id="RadialGradID_2299" gradientUnits="userSpaceOnUse" gradientTransform="matrix(0.00358582, 0, 0, 0.00358582, -0.2, -0.95)" spreadMethod ="pad" cx="0" cy="0" r="819.2" fx="0" fy="0" >
<stop  offset="0.321569"  style="stop-color:#823B2F;stop-opacity:1" />
<stop  offset="0.658824"  style="stop-color:#B55B4B;stop-opacity:1" />
<stop  offset="1"  style="stop-color:#823B2F;stop-opacity:1" />
</radialGradient>
<path style="fill:url(#RadialGradID_2299) " d="M-2.5,-0.8L-3.1 -0.75L-3.25 -0.95L-3.2 -1.15L-2.8 -1.25L-2.3 -1.2L-0.85 -1.25L-0.05 -1.15L0 -1.15L0.8 -1.25L2.25 -1.2L2.75 -1.25L3.15 -1.15L3.2 -0.95L3.05 -0.75L2.45 -0.8L2.3 -0.8L1.65 -0.8L0.5 -0.75L0 -0.75L-0.55 -0.75L-1.7 -0.8L-2.3 -0.8L-2.5 -0.8" />
<radialGradient
id="RadialGradID_2300" gradientUnits="userSpaceOnUse" gradientTransform="matrix(0.00469971, 0, 0, 0.00300598, -0.7, -0.95)" spreadMethod ="pad" cx="0" cy="0" r="819.2" fx="0" fy="0" >
<stop  offset="0.0156863"  style="stop-color:#D66851;stop-opacity:1" />
<stop  offset="0.411765"  style="stop-color:#EB937A;stop-opacity:1" />
<stop  offset="0.992157"  style="stop-color:#F7B19D;stop-opacity:0.341176" />
</radialGradient>
<path style="fill:url(#RadialGradID_2300) " d="M-2.3,-0.8L-1.7 -0.8L-0.55 -0.75L0 -0.75L0.5 -0.75L1.65 -0.8L2.3 -0.8L2.45 -0.8L1.55 0.15L1.45 0.25L1.4 0.3L1.25 0.35L1 0.5L0.65 0.6L0.05 0.6L-0.1 0.6L-0.2 0.6L-1.35 0.35L-1.4 0.3L-1.6 0.15L-2.05 -0.4L-2 -0.25L-2.5 -0.8L-2.3 -0.8" />
<radialGradient
id="RadialGradID_2301" gradientUnits="userSpaceOnUse" gradientTransform="matrix(0.00387573, 0, 0, 0.000854492, 0.2, -0.1)" spreadMethod ="pad" cx="0" cy="0" r="819.2" fx="0" fy="0" >
<stop  offset="0.00784314"  style="stop-color:#FFFFFF;stop-opacity:0.870588" />
<stop  offset="1"  style="stop-color:#FFFFFF;stop-opacity:0" />
</radialGradient>
<path style="fill:url(#RadialGradID_2301) " d="M-1.15,0L-1.8 -0.6L-1.85 -0.65L-1.6 -0.8L-0.9 -0.6L0.35 -0.4L1.25 -0.6L1.85 -0.75Q2.15 -0.8 2.05 -0.35Q1.9 0 0.8 0.2L-1.15 0" />
</g>
</svg>
