<?xml version="1.0" encoding="utf-8"?>
<svg version="1.1" id="Layer_1"
xmlns="http://www.w3.org/2000/svg"
xmlns:xlink="http://www.w3.org/1999/xlink"
xmlns:author="http://www.sothink.com"
width="9px" height="6px"
xml:space="preserve">
<g id="238" transform="matrix(1, 0, 0, 1, -65.65, -38.1)">
<path style="fill:#964A46;fill-opacity:1" d="M70.1,41.1L70.1 41.05L70.15 41.1L70.1 41.1" />
<radialGradient
id="RadialGradID_2302" gradientUnits="userSpaceOnUse" gradientTransform="matrix(-0.00427246, 0.000198364, 0.000106812, 0.00222778, 70, 41.05)" spreadMethod ="pad" cx="0" cy="0" r="819.2" fx="0" fy="0" >
<stop  offset="0.0941176"  style="stop-color:#D96D54;stop-opacity:1" />
<stop  offset="0.462745"  style="stop-color:#F09C87;stop-opacity:1" />
<stop  offset="1"  style="stop-color:#FCD2B2;stop-opacity:0.713725" />
</radialGradient>
<path style="fill:url(#RadialGradID_2302) " d="M73.15,40.55L72.55 40.5L72.3 40.45L72.15 40.45L71.45 40.45L70.15 40.6L70.1 40.6L68.8 40.45L68.1 40.45L67.95 40.45L67.7 40.5L67.1 40.55L66.95 40.45L68.85 39.8Q69.35 39.5 69.5 39.5L69.9 39.7L70.15 39.9L70.35 39.7L70.75 39.5L71.4 39.8L73.3 40.45L73.15 40.55" />
<radialGradient
id="RadialGradID_2303" gradientUnits="userSpaceOnUse" gradientTransform="matrix(-0.00465393, -0.000289917, -0.000106812, 0.00180054, 69.9, 41.1)" spreadMethod ="pad" cx="0" cy="0" r="819.2" fx="0" fy="0" >
<stop  offset="0.0941176"  style="stop-color:#D96D54;stop-opacity:1" />
<stop  offset="0.462745"  style="stop-color:#F09C87;stop-opacity:1" />
<stop  offset="1"  style="stop-color:#FCD2B2;stop-opacity:0.713725" />
</radialGradient>
<path style="fill:url(#RadialGradID_2303) " d="M70.15,41.1L70.55 40.95L70.85 40.85L71.3 40.8L72.05 40.85L72.25 40.85L72.4 40.9L72.9 40.95L71.95 41.75Q71.4 42.2 71 42.25L70.95 42.25L70.85 42.3L70.45 42.3L70.1 42.3L69.8 42.3L69.4 42.3L69.3 42.25L69.25 42.25Q68.85 42.2 68.3 41.75L67.35 40.95L67.85 40.9L68 40.85L68.2 40.85L68.95 40.8L69.4 40.85L69.7 40.95L70.1 41.05L70.1 41.1L70.15 41.1" />
<radialGradient
id="RadialGradID_2304" gradientUnits="userSpaceOnUse" gradientTransform="matrix(0.00488281, 0, 0, 0.00488281, 70.2, 40.75)" spreadMethod ="pad" cx="0" cy="0" r="819.2" fx="0" fy="0" >
<stop  offset="0"  style="stop-color:#650101;stop-opacity:1" />
<stop  offset="0.713725"  style="stop-color:#964A46;stop-opacity:1" />
</radialGradient>
<path style="fill:url(#RadialGradID_2304) " d="M70.1,41.05L69.7 40.95L69.4 40.85L68.95 40.8L68.2 40.85L68 40.85L67.85 40.9L67.35 40.95L67.2 41L66.9 41L66.6 41.05L66.55 40.9L66.45 40.85L66.45 40.8L66.95 40.45L67.1 40.55L67.7 40.5L67.95 40.45L68.1 40.45L68.8 40.45L70.1 40.6L70.15 40.6L71.45 40.45L72.15 40.45L72.3 40.45L72.55 40.5L73.15 40.55L73.3 40.45L73.35 40.4L73.8 40.75L73.9 40.9L73.8 41.05L73.3 41L72.9 40.95L72.4 40.9L72.25 40.85L72.05 40.85L71.3 40.8L70.85 40.85L70.55 40.95L70.15 41.1L70.1 41.05" />
<radialGradient
id="RadialGradID_2305" gradientUnits="userSpaceOnUse" gradientTransform="matrix(-0.00227356, -0.000106812, 0.00012207, 0.00195313, 70.2, 41.5)" spreadMethod ="pad" cx="0" cy="0" r="819.2" fx="0" fy="0" >
<stop  offset="0"  style="stop-color:#FFFFFF;stop-opacity:0.623529" />
<stop  offset="1"  style="stop-color:#FFFFFF;stop-opacity:0" />
</radialGradient>
<path style="fill:url(#RadialGradID_2305) " d="M70.5,41.2L71.4 40.95Q71.75 40.85 71.6 41.35Q71.45 41.8 70.2 41.9Q69 42 68.55 41.05L69.1 41.05L69.85 41.2L70.25 41.2L70.5 41.2" />
<radialGradient
id="RadialGradID_2306" gradientUnits="userSpaceOnUse" gradientTransform="matrix(0.00724792, -9.15527e-005, 4.57764e-005, 0.00296021, 70.15, 42.4)" spreadMethod ="pad" cx="0" cy="0" r="819.2" fx="210508" fy="0" >
<stop  offset="0.054902"  style="stop-color:#E69370;stop-opacity:1" />
<stop  offset="0.988235"  style="stop-color:#FFEFEA;stop-opacity:0" />
</radialGradient>
<path style="fill:url(#RadialGradID_2306) " d="M67.5,41.65Q67.85 42.1 68.3 42.25L69.2 42.45L70.8 42.4L72.15 42.15L72.2 42.1L72.7 41.6L72.95 41.2L73 41.15L73 41.2L73 41.25L73 41.3L72.6 42.05L71.9 42.7L70.8 42.95L69.3 43L69.25 43L69.15 43L68.05 42.55L67.35 41.8L67.4 41.7L67.5 41.65" />
<radialGradient
id="RadialGradID_2307" gradientUnits="userSpaceOnUse" gradientTransform="matrix(0.000106812, -0.00187683, -0.00439453, -7.62939e-005, 70.15, 42.75)" spreadMethod ="pad" cx="0" cy="0" r="819.2" fx="0" fy="0" >
<stop  offset="0.0666667"  style="stop-color:#E37653;stop-opacity:0.662745" />
<stop  offset="1"  style="stop-color:#FFEFEA;stop-opacity:0" />
</radialGradient>
<path style="fill:url(#RadialGradID_2307) " d="M72.9,42.8Q72.9 43.3 72.1 43.65L70.1 43.95L68.2 43.6Q67.4 43.2 67.4 42.75Q67.45 42.25 68.3 41.9L70.25 41.6L72.2 42Q72.95 42.3 72.9 42.8" />
<radialGradient
id="RadialGradID_2308" gradientUnits="userSpaceOnUse" gradientTransform="matrix(-0.000289917, -0.00117493, -0.00137329, 0.000488281, 66.5, 40.6)" spreadMethod ="pad" cx="0" cy="0" r="819.2" fx="0" fy="0" >
<stop  offset="0"  style="stop-color:#D9521C;stop-opacity:0.552941" />
<stop  offset="1"  style="stop-color:#FFEFEA;stop-opacity:0" />
</radialGradient>
<path style="fill:url(#RadialGradID_2308) " d="M65.8,40.3L66.3 39.9L66.95 39.9L67.3 40.35L67.25 40.9L66.65 41.3Q66.25 41.5 66.05 41.3Q65.7 41.2 65.7 40.95Q65.55 40.6 65.8 40.3" />
<radialGradient
id="RadialGradID_2309" gradientUnits="userSpaceOnUse" gradientTransform="matrix(0.00100708, -0.000534058, -0.000778198, -0.00114441, 73.65, 40.7)" spreadMethod ="pad" cx="0" cy="0" r="819.2" fx="0" fy="0" >
<stop  offset="0"  style="stop-color:#D9521C;stop-opacity:0.552941" />
<stop  offset="1"  style="stop-color:#FFEFEA;stop-opacity:0" />
</radialGradient>
<path style="fill:url(#RadialGradID_2309) " d="M73.75,39.95L74.3 40.3L74.45 40.95L74.2 41.35L73.55 41.4L73.05 41Q72.85 40.7 72.9 40.4L73.2 39.9L73.75 39.95" />
<radialGradient
id="RadialGradID_2310" gradientUnits="userSpaceOnUse" gradientTransform="matrix(0.00236511, 0, 0, 0.00149536, 70.2, 39.05)" spreadMethod ="pad" cx="0" cy="0" r="819.2" fx="0" fy="0" >
<stop  offset="0"  style="stop-color:#FFF1DD;stop-opacity:1" />
<stop  offset="1"  style="stop-color:#FFF1DD;stop-opacity:0" />
</radialGradient>
<path style="fill:url(#RadialGradID_2310) " d="M70.85,38.35Q70.95 39.15 71.4 39.4L71.85 39.6L72.1 39.7L71.95 39.7L71.55 39.6L71.2 39.5L70.7 39.7L70.3 39.9L69.95 39.7L69.55 39.55L69 39.7L68.35 39.95L68.45 39.9L68.8 39.6L69.1 39.25L69.6 38.8L69.8 38.1L69.9 39.15Q69.9 39.55 70.3 39.55L70.8 39.1L70.85 38.4L70.85 38.35" />
<radialGradient
id="RadialGradID_2311" gradientUnits="userSpaceOnUse" gradientTransform="matrix(0.0025177, 0, 0, 0.00186157, 70.35, 42)" spreadMethod ="pad" cx="0" cy="0" r="819.2" fx="0" fy="0" >
<stop  offset="0"  style="stop-color:#FFF1DD;stop-opacity:1" />
<stop  offset="1"  style="stop-color:#FFF1DD;stop-opacity:0" />
</radialGradient>
<path style="fill:url(#RadialGradID_2311) " d="M69,42.2L69.5 42.25Q71.9 42.25 72.5 41.55Q72.4 42 71.45 42.25L69.7 42.45L69 42.35L68.25 41.9L68.25 41.8L69 42.2" />
</g>
</svg>
