<?xml version="1.0" encoding="utf-8"?>
<svg version="1.1" id="Layer_1"
xmlns="http://www.w3.org/2000/svg"
xmlns:xlink="http://www.w3.org/1999/xlink"
xmlns:author="http://www.sothink.com"
width="10px" height="5px"
xml:space="preserve">
<g id="241" transform="matrix(1, 0, 0, 1, 4.7, 2.5)">
<radialGradient
id="RadialGradID_2333" gradientUnits="userSpaceOnUse" gradientTransform="matrix(-0.000946045, -0.000656128, 0.00120544, -0.00111389, -3.75, -1.25)" spreadMethod ="pad" cx="0" cy="0" r="819.2" fx="0" fy="0" >
<stop  offset="0.0941176"  style="stop-color:#D9521C;stop-opacity:0.552941" />
<stop  offset="1"  style="stop-color:#FFEFEA;stop-opacity:0" />
</radialGradient>
<path style="fill:url(#RadialGradID_2333) " d="M-2.95,-1.95Q-2.65 -1.8 -2.7 -1.45Q-2.65 -1.1 -2.95 -0.75Q-3.3 -0.5 -3.7 -0.45L-4.45 -0.55L-4.7 -1.1L-4.35 -1.7L-3.65 -2.05L-2.95 -1.95" />
<radialGradient
id="RadialGradID_2334" gradientUnits="userSpaceOnUse" gradientTransform="matrix(0.00112915, -0.000244141, -0.000518799, -0.00160217, 3.8, -1.45)" spreadMethod ="pad" cx="0" cy="0" r="819.2" fx="0" fy="0" >
<stop  offset="0.0941176"  style="stop-color:#D9521C;stop-opacity:0.552941" />
<stop  offset="1"  style="stop-color:#FFEFEA;stop-opacity:0" />
</radialGradient>
<path style="fill:url(#RadialGradID_2334) " d="M4.15,-2.25L4.65 -1.65L4.6 -0.9L4.1 -0.45Q3.75 -0.4 3.4 -0.65Q3.05 -0.9 2.95 -1.35L2.95 -2.05L3.5 -2.5L4.15 -2.25" />
<radialGradient
id="RadialGradID_2335" gradientUnits="userSpaceOnUse" gradientTransform="matrix(-0.000213623, -0.00180054, -0.0058136, 0.000198364, 0.15, 1.3)" spreadMethod ="pad" cx="0" cy="0" r="819.2" fx="0" fy="0" >
<stop  offset="0.145098"  style="stop-color:#E37653;stop-opacity:0.662745" />
<stop  offset="1"  style="stop-color:#FFEFEA;stop-opacity:0" />
</radialGradient>
<path style="fill:url(#RadialGradID_2335) " d="M0.05,0.25L2.6 0.5Q3.7 0.8 3.75 1.25Q3.8 1.7 2.8 2.1L0.25 2.5L-2.3 2.3Q-3.5 2 -3.5 1.55Q-3.55 1.05 -2.45 0.65L0.05 0.25" />
<radialGradient
id="RadialGradID_2336" gradientUnits="userSpaceOnUse" gradientTransform="matrix(0.00843811, -0.000305176, 0.00012207, 0.00343323, 0.25, -1.95)" spreadMethod ="pad" cx="0" cy="0" r="819.2" fx="0" fy="0" >
<stop  offset="0.0941176"  style="stop-color:#D96D54;stop-opacity:1" />
<stop  offset="0.462745"  style="stop-color:#F09C87;stop-opacity:1" />
<stop  offset="1"  style="stop-color:#FCD2B2;stop-opacity:0.713725" />
</radialGradient>
<path style="fill:url(#RadialGradID_2336) " d="M3.45,-1.3L3.4 -1.25L3.25 -1.15L3 -1L2.85 -1L2.65 -1L1.3 -0.75L0.4 -0.5L-0.3 -0.6L-1.8 -0.85L-3.15 -1.05L-3.3 -1.1L-3.45 -1.15L-0.95 -1.4L-0.35 -1.25L0.15 -1.05L0.6 -1.25L1.2 -1.4L3.5 -1.3L3.45 -1.3" />
<radialGradient
id="RadialGradID_2337" gradientUnits="userSpaceOnUse" gradientTransform="matrix(0.0050354, -0.000183105, 0.000183105, 0.0050354, 0.3, -0.25)" spreadMethod ="pad" cx="0" cy="0" r="819.2" fx="0" fy="0" >
<stop  offset="0"  style="stop-color:#964A46;stop-opacity:1" />
<stop  offset="1"  style="stop-color:#7A3734;stop-opacity:1" />
</radialGradient>
<path style="fill:url(#RadialGradID_2337) " d="M2.9,-0.5L1.75 -0.05L-0.4 0.15L-0.5 0.15L-2.15 -0.3L-3.05 -0.7L-3.3 -0.8L-3.3 -0.85L-3.35 -0.85L-3.45 -0.9L-3.5 -0.9L-3.7 -1.1L-3.7 -1.25L-3.45 -1.15L-3.3 -1.1L-3.15 -1.05L-1.8 -0.85L-0.3 -0.6L0.4 -0.5L1.3 -0.75L2.65 -1L2.85 -1L3 -1L3.25 -1.15L3.4 -1.25L3.45 -1.3L3.5 -1.3L3.6 -1.35L3.75 -1.2L3.55 -0.95L3.45 -0.85L3.25 -0.7L2.9 -0.5" />
<radialGradient
id="RadialGradID_2338" gradientUnits="userSpaceOnUse" gradientTransform="matrix(0.00537109, -0.000198364, 7.62939e-005, 0.00219727, 0.3, -0.1)" spreadMethod ="pad" cx="0" cy="0" r="819.2" fx="0" fy="0" >
<stop  offset="0.192157"  style="stop-color:#F0785B;stop-opacity:0.933333" />
<stop  offset="0.67451"  style="stop-color:#E87555;stop-opacity:0.462745" />
<stop  offset="1"  style="stop-color:#D9553E;stop-opacity:0.501961" />
</radialGradient>
<path style="fill:url(#RadialGradID_2338) " d="M3.25,-0.7L3.2 -0.55L2.8 0.35Q2.35 1.05 1.2 1.3L-0.9 1.4Q-2.05 1 -2.8 0L-2.95 -0.15L-3.3 -0.85L-3.3 -0.8L-3.05 -0.7L-2.15 -0.3L-0.5 0.15L-0.4 0.15L1.75 -0.05L2.9 -0.5L3.25 -0.7" />
<path style="fill:#FFFFFF;fill-opacity:1" d="M2.7,-0.85L2.15 -0.4L1.7 -0.25L-0.45 -0.05L-0.55 -0.05L-1.75 -0.25L-2.05 -0.6L-2.1 -0.75L-1.85 -0.7L-0.3 -0.5L0.35 -0.4L1.25 -0.6L2.65 -0.85L2.7 -0.85" />
<radialGradient
id="RadialGradID_2339" gradientUnits="userSpaceOnUse" gradientTransform="matrix(0.00151062, -6.10352e-005, 6.10352e-005, 0.00151062, 0.65, -1.05)" spreadMethod ="pad" cx="0" cy="0" r="819.2" fx="0" fy="0" >
<stop  offset="0"  style="stop-color:#FFFFFF;stop-opacity:0.4" />
<stop  offset="1"  style="stop-color:#FFFFFF;stop-opacity:0" />
</radialGradient>
<path style="fill:url(#RadialGradID_2339) " d="M2.15,-0.85L0.85 -0.65L0.15 -0.45L0.5 -0.8L2.15 -0.85" />
<radialGradient
id="RadialGradID_2340" gradientUnits="userSpaceOnUse" gradientTransform="matrix(-0.00254822, 0.000244141, 0.000442505, 0.00134277, 0.3, 0.6)" spreadMethod ="pad" cx="0" cy="0" r="819.2" fx="210524" fy="0" >
<stop  offset="0"  style="stop-color:#FFFFFF;stop-opacity:0.792157" />
<stop  offset="1"  style="stop-color:#FFFFFF;stop-opacity:0" />
</radialGradient>
<path style="fill:url(#RadialGradID_2340) " d="M0.9,0.9Q-0.75 1.2 -1.95 0.35L0.35 0.45L2.4 0.4Q2.6 0.6 0.9 0.9" />
</g>
</svg>
