<?xml version="1.0" encoding="utf-8"?>
<svg version="1.1" id="Layer_1"
xmlns="http://www.w3.org/2000/svg"
xmlns:xlink="http://www.w3.org/1999/xlink"
xmlns:author="http://www.sothink.com"
width="9px" height="5px"
xml:space="preserve">
<g id="240" transform="matrix(1, 0, 0, 1, -66, -38.9)">
<path style="fill:#C16A46;fill-opacity:1" d="M67.05,40.5L67 40.5L66.95 40.45L66.85 40.55L66.75 40.6L66.6 40.55L66.45 40.55L66.8 40.2L67.3 40.25L67.35 40.25L67.75 40.25L68 40.25L68.55 40.15L69.85 40.45L70.15 40.6L70.45 40.45L71.75 40.2L72.3 40.3L72.55 40.3L72.95 40.3L73 40.3Q73.1 39.9 73.5 40.3L73.85 40.65L73.7 40.65L73.55 40.7L73.45 40.65L73.35 40.55L73.3 40.6L73.25 40.6L73 40.6L72.7 40.6L72.55 40.6L72.3 40.65L72.05 40.65L71.9 40.7L71.85 40.7L71.4 40.7L70.7 40.85L70.1 41L68.95 40.7L68.45 40.65L68.3 40.65L68.25 40.6L68 40.6L67.75 40.55L67.65 40.55L67.6 40.55L67.05 40.5" />
<radialGradient
id="RadialGradID_2324" gradientUnits="userSpaceOnUse" gradientTransform="matrix(0.0039978, 0.000152588, -6.10352e-005, 0.00178528, 70.1, 40.85)" spreadMethod ="pad" cx="0" cy="0" r="819.2" fx="6" fy="0" >
<stop  offset="0.568627"  style="stop-color:#ED9B79;stop-opacity:1" />
<stop  offset="1"  style="stop-color:#FFCFBB;stop-opacity:0" />
</radialGradient>
<path style="fill:url(#RadialGradID_2324) " d="M72.55,40.3L72.3 40.3L71.75 40.2L70.45 40.45L70.15 40.6L69.85 40.45L68.55 40.15L68 40.25L67.75 40.25L67.35 40.25L67.35 40.2L68.5 39.9L69.35 39.6L69.75 39.8L70.1 40.05L70.2 40.05L70.65 39.8Q70.9 39.65 71.05 39.65L71.8 39.95L72.95 40.25L72.95 40.3L72.55 40.3" />
<radialGradient
id="RadialGradID_2325" gradientUnits="userSpaceOnUse" gradientTransform="matrix(0.00550842, 0.000259399, -7.62939e-005, 0.00169373, 70, 41.05)" spreadMethod ="pad" cx="0" cy="0" r="819.2" fx="0" fy="0" >
<stop  offset="0.0941176"  style="stop-color:#ED9B79;stop-opacity:1" />
<stop  offset="0.6"  style="stop-color:#F6C5B0;stop-opacity:1" />
<stop  offset="1"  style="stop-color:#FCD2B2;stop-opacity:0.411765" />
</radialGradient>
<path style="fill:url(#RadialGradID_2325) " d="M67.6,40.55L67.65 40.55L67.75 40.55L68 40.6L68.25 40.6L68.3 40.65L68.45 40.65L68.95 40.7L70.1 41L70.7 40.85L71.4 40.7L71.85 40.7L71.9 40.7L72.05 40.65L72.3 40.65L72.55 40.6L72.7 40.6L73 40.6L73.25 40.6L72.2 41.55Q71.75 42 70.15 42Q68.55 41.95 68.1 41.5L67.05 40.5L67.6 40.55" />
<radialGradient
id="RadialGradID_2326" gradientUnits="userSpaceOnUse" gradientTransform="matrix(0.00236511, 0.00012207, -3.05176e-005, 0.000717163, 70.25, 41.3)" spreadMethod ="pad" cx="0" cy="0" r="819.2" fx="0" fy="0" >
<stop  offset="0"  style="stop-color:#FFFFFF;stop-opacity:0.623529" />
<stop  offset="1"  style="stop-color:#FFFFFF;stop-opacity:0" />
</radialGradient>
<path style="fill:url(#RadialGradID_2326) " d="M72.1,41.15Q71.35 41.8 69.7 41.7Q68.1 41.3 68.7 40.8Q69.85 41.4 70.6 41.25L71.55 40.95Q72.15 41 72.1 41.15" />
<radialGradient
id="RadialGradID_2327" gradientUnits="userSpaceOnUse" gradientTransform="matrix(0.0017395, 9.15527e-005, -6.10352e-005, 0.00125122, 70.1, 39.5)" spreadMethod ="pad" cx="0" cy="0" r="819.2" fx="0" fy="0" >
<stop  offset="0"  style="stop-color:#FFF1DD;stop-opacity:1" />
<stop  offset="1"  style="stop-color:#FFF1DD;stop-opacity:0" />
</radialGradient>
<path style="fill:url(#RadialGradID_2327) " d="M71.15,39.55L71.65 39.85L71.35 39.75L71.1 39.7L70.5 39.85L70.15 40L69.9 39.9Q69.65 39.7 69.45 39.7L68.6 39.95L68.7 39.85L69.45 39.25L69.7 38.9Q69.6 39.35 69.75 39.4L70.15 39.75L70.5 39.55L70.95 39.35L71.15 39.55" />
<radialGradient
id="RadialGradID_2328" gradientUnits="userSpaceOnUse" gradientTransform="matrix(-0.000152588, -0.00146484, -0.00379944, 7.62939e-005, 70.05, 42.25)" spreadMethod ="pad" cx="0" cy="0" r="819.2" fx="0" fy="0" >
<stop  offset="0.0666667"  style="stop-color:#E37653;stop-opacity:0.662745" />
<stop  offset="1"  style="stop-color:#FFEFEA;stop-opacity:0" />
</radialGradient>
<path style="fill:url(#RadialGradID_2328) " d="M71.75,41.65Q72.45 41.85 72.5 42.2Q72.5 42.6 71.9 42.9L70.15 43.25L68.5 42.95Q67.75 42.75 67.7 42.35Q67.7 41.95 68.4 41.65L70 41.4L71.75 41.65" />
<radialGradient
id="RadialGradID_2329" gradientUnits="userSpaceOnUse" gradientTransform="matrix(-0.000228882, -0.0012207, -0.00140381, 0.000442505, 66.95, 40.35)" spreadMethod ="pad" cx="0" cy="0" r="819.2" fx="0" fy="0" >
<stop  offset="0"  style="stop-color:#D9521C;stop-opacity:0.552941" />
<stop  offset="1"  style="stop-color:#FFEFEA;stop-opacity:0" />
</radialGradient>
<path style="fill:url(#RadialGradID_2329) " d="M66.2,40L66.75 39.55L67.4 39.65L67.8 40.1L67.6 40.7L67.05 41.1L66.45 41.05Q66.1 40.95 66.1 40.6Q65.9 40.3 66.2 40" />
<radialGradient
id="RadialGradID_2330" gradientUnits="userSpaceOnUse" gradientTransform="matrix(0.000869751, -0.000778198, -0.00102234, -0.000991821, 73.4, 40.35)" spreadMethod ="pad" cx="0" cy="0" r="819.2" fx="0" fy="0" >
<stop  offset="0"  style="stop-color:#D9521C;stop-opacity:0.552941" />
<stop  offset="1"  style="stop-color:#FFEFEA;stop-opacity:0" />
</radialGradient>
<path style="fill:url(#RadialGradID_2330) " d="M73.35,39.6L73.9 39.9L74.25 40.45L74.05 40.95L73.45 41.15L72.8 40.8Q72.55 40.55 72.6 40.3Q72.5 39.95 72.75 39.7L73.35 39.6" />
<radialGradient
id="RadialGradID_2331" gradientUnits="userSpaceOnUse" gradientTransform="matrix(0.000732422, 3.05176e-005, -3.05176e-005, 0.000747681, 67, 40.55)" spreadMethod ="pad" cx="0" cy="0" r="819.2" fx="0" fy="0" >
<stop  offset="0"  style="stop-color:#FFF1DD;stop-opacity:1" />
<stop  offset="1"  style="stop-color:#FFF1DD;stop-opacity:0" />
</radialGradient>
<path style="fill:url(#RadialGradID_2331) " d="M67.1,40.8L67.15 41.15L67.15 41.25L67 41.3L66.7 41.1L66.6 40.9L66.75 40.7L66.95 40.6L67.1 40.8" />
<radialGradient
id="RadialGradID_2332" gradientUnits="userSpaceOnUse" gradientTransform="matrix(0.000610352, 3.05176e-005, -1.52588e-005, 0.000442505, 73.7, 40.55)" spreadMethod ="pad" cx="0" cy="0" r="819.2" fx="0" fy="0" >
<stop  offset="0"  style="stop-color:#FFF1DD;stop-opacity:1" />
<stop  offset="1"  style="stop-color:#FFF1DD;stop-opacity:0" />
</radialGradient>
<path style="fill:url(#RadialGradID_2332) " d="M73.7,40.55Q73.85 40.55 73.95 40.7L74.15 40.85L74 40.95L73.7 40.95L73.5 40.9L73.4 40.75L73.5 40.6L73.7 40.55" />
</g>
</svg>
