<?xml version="1.0" encoding="utf-8"?>
<svg version="1.1" id="Layer_1"
xmlns="http://www.w3.org/2000/svg"
xmlns:xlink="http://www.w3.org/1999/xlink"
xmlns:author="http://www.sothink.com"
width="10px" height="4px"
xml:space="preserve">
<g id="249" transform="matrix(1, 0, 0, 1, 4.85, 1.8)">
<radialGradient
id="RadialGradID_2408" gradientUnits="userSpaceOnUse" gradientTransform="matrix(-0.00108337, -0.000411987, 0.000930786, -0.00140381, -3.95, -0.85)" spreadMethod ="pad" cx="0" cy="0" r="819.2" fx="0" fy="0" >
<stop  offset="0.0941176"  style="stop-color:#D9521C;stop-opacity:0.552941" />
<stop  offset="1"  style="stop-color:#FFEFEA;stop-opacity:0" />
</radialGradient>
<path style="fill:url(#RadialGradID_2408) " d="M-3.35,-1.7L-2.95 -1.25Q-2.85 -0.95 -3.05 -0.55L-3.7 -0.05L-4.45 0.05Q-4.85 -0.1 -4.85 -0.45L-4.65 -1.2L-4.1 -1.65L-3.35 -1.7" />
<radialGradient
id="RadialGradID_2409" gradientUnits="userSpaceOnUse" gradientTransform="matrix(0.00119019, -0.000213623, -0.000518799, -0.00167847, 3.95, -0.65)" spreadMethod ="pad" cx="0" cy="0" r="819.2" fx="0" fy="0" >
<stop  offset="0.0941176"  style="stop-color:#D9521C;stop-opacity:0.552941" />
<stop  offset="1"  style="stop-color:#FFEFEA;stop-opacity:0" />
</radialGradient>
<path style="fill:url(#RadialGradID_2409) " d="M4.35,-1.55L4.85 -0.9L4.8 -0.1L4.3 0.4L3.6 0.15Q3.2 -0.1 3.05 -0.55Q2.95 -1 3.1 -1.3Q3.3 -1.7 3.7 -1.75L4.35 -1.55" />
<radialGradient
id="RadialGradID_2410" gradientUnits="userSpaceOnUse" gradientTransform="matrix(0.00404358, -7.62939e-005, 3.05176e-005, 0.00192261, -0.1, -0.95)" spreadMethod ="pad" cx="0" cy="0" r="819.2" fx="0" fy="0" >
<stop  offset="0.286275"  style="stop-color:#F0785B;stop-opacity:0.933333" />
<stop  offset="0.690196"  style="stop-color:#ED8257;stop-opacity:0.462745" />
<stop  offset="0.964706"  style="stop-color:#D9553E;stop-opacity:0.501961" />
</radialGradient>
<path style="fill:url(#RadialGradID_2410) " d="M2.8,-0.55L2.8 -0.5Q1.8 0.25 0.55 0.55L-1.7 0.35Q-2.45 0 -3.25 -0.65L-3.15 -0.6L-1.95 -0.55L-0.85 -0.45L-0.1 -0.3L0.7 -0.45L1.4 -0.55L1.9 -0.55L2.8 -0.55" />
<radialGradient
id="RadialGradID_2411" gradientUnits="userSpaceOnUse" gradientTransform="matrix(0.00587463, -0.000106812, 4.57764e-005, 0.00256348, -0.25, 1)" spreadMethod ="pad" cx="0" cy="0" r="819.2" fx="0" fy="0" >
<stop  offset="0.145098"  style="stop-color:#E37653;stop-opacity:0.662745" />
<stop  offset="1"  style="stop-color:#FFEFEA;stop-opacity:0" />
</radialGradient>
<path style="fill:url(#RadialGradID_2411) " d="M3.15,-0.2L2.1 0.95L1.8 1.7L1.55 1.85L1.4 1.85L1.15 1.75L0.4 1.6L-0.85 1.6L-2.05 1.8L-3.05 1.55L-2.35 1.15Q-2.35 0.7 -3.6 -0.45L-3.25 -0.35L-1.7 0.65L0.55 0.85L2.8 -0.1L2.85 -0.15L3.15 -0.2" />
<path style="fill:#8A403C;fill-opacity:1" d="M1.9,-0.55L1.4 -0.55L0.7 -0.45L-0.1 -0.3L-0.85 -0.45L-1.95 -0.55L-3.15 -0.6L-3.25 -0.65L-3.7 -0.6L-3.9 -0.7L-4 -0.85L-3.95 -0.9L-3.9 -1L-3.7 -0.9L-2.85 -0.7L-1.85 -0.65L-0.95 -0.65L-0.9 -0.65L-0.8 -0.65L-0.55 -0.55L-0.15 -0.45L0.5 -0.65L1.25 -0.75L2.25 -0.75L3.2 -0.7L3.9 -0.8L4.05 -0.85L4.05 -0.5Q4.05 -0.35 3.85 -0.4L3.6 -0.5L3.4 -0.55L2.85 -0.55L2.8 -0.55L1.9 -0.55" />
<radialGradient
id="RadialGradID_2412" gradientUnits="userSpaceOnUse" gradientTransform="matrix(0.00604248, -0.000106812, 4.57764e-005, 0.00231934, -0.25, -0.35)" spreadMethod ="pad" cx="0" cy="0" r="819.2" fx="0" fy="0" >
<stop  offset="0.0941176"  style="stop-color:#D96D54;stop-opacity:1" />
<stop  offset="0.713725"  style="stop-color:#F09C87;stop-opacity:1" />
<stop  offset="1"  style="stop-color:#FCD2B2;stop-opacity:0.713725" />
</radialGradient>
<path style="fill:url(#RadialGradID_2412) " d="M-3.7,-0.9L-3 -0.9L-1.95 -1L-0.9 -1.1Q-0.5 -1.15 -0.3 -0.75Q-0.05 -0.6 0.1 -0.75L0.35 -1L0.85 -1.2L1.85 -1L3.9 -0.8L3.2 -0.7L2.25 -0.75L1.25 -0.75L0.5 -0.65L-0.15 -0.45L-0.55 -0.55L-0.8 -0.65L-0.9 -0.65L-0.95 -0.65L-1.85 -0.65L-2.85 -0.7L-3.7 -0.9" />
<path style="fill:#F17E60;fill-opacity:1" d="M1.45,0.15L0.4 0.4L1.35 0.05L2.4 -0.4L1.45 0.15M-1.65,0.1L-0.5 0.4L-1.8 0.25L-2.8 -0.5Q-2.2 -0.1 -1.65 0.1" />
<radialGradient
id="RadialGradID_2413" gradientUnits="userSpaceOnUse" gradientTransform="matrix(0.00160217, -0.000228882, 9.15527e-005, 0.000610352, 0.85, -0.15)" spreadMethod ="pad" cx="0" cy="0" r="819.2" fx="210524" fy="0" >
<stop  offset="0"  style="stop-color:#FFFFFF;stop-opacity:0.792157" />
<stop  offset="1"  style="stop-color:#FFFFFF;stop-opacity:0" />
</radialGradient>
<path style="fill:url(#RadialGradID_2413) " d="M2.25,-0.35L0.55 0.25L-0.45 0.2L-0.3 -0.1L0.3 -0.25L1.55 -0.45L2.3 -0.45Q2.65 -0.45 2.15 -0.3L2.25 -0.35" />
<radialGradient
id="RadialGradID_2414" gradientUnits="userSpaceOnUse" gradientTransform="matrix(-0.00140381, -0.000167847, -0.000167847, 0.00140381, -1.05, -0.35)" spreadMethod ="pad" cx="0" cy="0" r="819.2" fx="0" fy="0" >
<stop  offset="0"  style="stop-color:#FFFFFF;stop-opacity:0.592157" />
<stop  offset="1"  style="stop-color:#FFFFFF;stop-opacity:0" />
</radialGradient>
<path style="fill:url(#RadialGradID_2414) " d="M-0.65,0.2L-2.45 -0.3L-0.85 -0.25Q-0.6 -0.1 -0.65 0.2" />
</g>
</svg>
