<?xml version="1.0" encoding="utf-8"?>
<svg version="1.1" id="Layer_1"
xmlns="http://www.w3.org/2000/svg"
xmlns:xlink="http://www.w3.org/1999/xlink"
xmlns:author="http://www.sothink.com"
width="10px" height="4px"
xml:space="preserve">
<g id="250" transform="matrix(1, 0, 0, 1, 4.55, 1.65)">
<radialGradient
id="RadialGradID_2415" gradientUnits="userSpaceOnUse" gradientTransform="matrix(0.00115967, 0.000671387, -0.000732422, 0.00128174, -3.45, -0.5)" spreadMethod ="pad" cx="0" cy="0" r="819.2" fx="0" fy="0" >
<stop  offset="0.219608"  style="stop-color:#D9521C;stop-opacity:0.552941" />
<stop  offset="1"  style="stop-color:#FFEFEA;stop-opacity:0" />
</radialGradient>
<path style="fill:url(#RadialGradID_2415) " d="M-2.35,-0.8Q-2.25 -0.35 -2.5 0.05Q-2.75 0.5 -3.2 0.6L-4 0.55L-4.5 -0.15L-4.35 -1L-3.7 -1.6L-2.85 -1.5Q-2.45 -1.3 -2.35 -0.8" />
<radialGradient
id="RadialGradID_2416" gradientUnits="userSpaceOnUse" gradientTransform="matrix(-0.000946045, 0.000823975, 0.000854492, 0.00115967, 3.6, -0.35)" spreadMethod ="pad" cx="0" cy="0" r="819.2" fx="0" fy="0" >
<stop  offset="0.219608"  style="stop-color:#D9521C;stop-opacity:0.552941" />
<stop  offset="1"  style="stop-color:#FFEFEA;stop-opacity:0" />
</radialGradient>
<path style="fill:url(#RadialGradID_2416) " d="M4.35,-1L4.6 -0.15L4.3 0.6L3.55 0.8Q3.1 0.7 2.85 0.3Q2.55 -0.05 2.55 -0.55L2.9 -1.25L3.65 -1.45Q4.1 -1.4 4.35 -1" />
<path style="fill:#833D3A;fill-opacity:1" d="M3.4,-0.05L2.35 -0.15L1.6 -0.3L1.1 -0.3L0.2 -0.2L-0.45 -0.3L-2.55 -0.2L-3.05 -0.1L-3.4 -0.05L-3.45 -0.05L-3.85 -0.3L-3.7 -0.65L-3.55 -0.65L-3.35 -0.7L-2.9 -0.6L-2.2 -0.45L-1.1 -0.45L0.1 -0.35L0.95 -0.5L2.35 -0.4L3.45 -0.55L3.6 -0.65L3.7 -0.65L3.85 -0.35L3.8 -0.15L3.65 -0.05L3.6 -0.05L3.4 -0.05" />
<radialGradient
id="RadialGradID_2417" gradientUnits="userSpaceOnUse" gradientTransform="matrix(0.00730896, 0, 0, 0.00341797, 0.1, -0.2)" spreadMethod ="pad" cx="0" cy="0" r="819.2" fx="0" fy="0" >
<stop  offset="0.0941176"  style="stop-color:#D96D54;stop-opacity:1" />
<stop  offset="0.462745"  style="stop-color:#F09C87;stop-opacity:1" />
<stop  offset="1"  style="stop-color:#FCD2B2;stop-opacity:0.713725" />
</radialGradient>
<path style="fill:url(#RadialGradID_2417) " d="M2.35,-0.4L0.95 -0.5L0.1 -0.35L-1.1 -0.45L-2.2 -0.45L-2.9 -0.6L-3.35 -0.7L-3.55 -0.65L-3.55 -0.7L-2.8 -0.95L-1.45 -1.3L-0.3 -1.35L0.1 -1.15L0.35 -1.05Q0.5 -1 0.85 -1.25L1.4 -1.4L1.8 -1.3L3.45 -0.55L2.35 -0.4" />
<radialGradient
id="RadialGradID_2418" gradientUnits="userSpaceOnUse" gradientTransform="matrix(0.00538635, 0, 0, 0.00187683, -0.2, -0.25)" spreadMethod ="pad" cx="0" cy="0" r="819.2" fx="0" fy="0" >
<stop  offset="0.192157"  style="stop-color:#F0785B;stop-opacity:0.933333" />
<stop  offset="0.67451"  style="stop-color:#E87555;stop-opacity:0.462745" />
<stop  offset="1"  style="stop-color:#D9553E;stop-opacity:0.501961" />
</radialGradient>
<path style="fill:url(#RadialGradID_2418) " d="M3.6,-0.05L2.85 0.15L2 0.35L0.65 0.55L-0.65 0.6L-2.25 0.35L-2.85 0.15L-3.4 -0.05L-3.05 -0.1L-2.55 -0.2L-0.45 -0.3L0.2 -0.2L1.1 -0.3L1.6 -0.3L2.35 -0.15L3.4 -0.05L3.6 -0.05" />
<radialGradient
id="RadialGradID_2419" gradientUnits="userSpaceOnUse" gradientTransform="matrix(0.00473022, 0, 0, 0.00140381, -0.05, 0.9)" spreadMethod ="pad" cx="0" cy="0" r="819.2" fx="0" fy="0" >
<stop  offset="0.145098"  style="stop-color:#E37653;stop-opacity:0.662745" />
<stop  offset="1"  style="stop-color:#FFEFEA;stop-opacity:0" />
</radialGradient>
<path style="fill:url(#RadialGradID_2419) " d="M2.85,0.15L1.95 0.65Q1.5 0.85 1.65 1.1L1.75 1.55L1.65 1.7L0.35 1.35L-1.7 1.65L-1.75 1.55L-1.65 1.1Q-1.55 0.85 -2 0.65L-2.55 0.35L-2.85 0.15L-2.25 0.35L-0.65 0.6L0.65 0.55L2 0.35L2.85 0.15" />
<radialGradient
id="RadialGradID_2420" gradientUnits="userSpaceOnUse" gradientTransform="matrix(0.00442505, 0, 0, 0.0012207, -0.85, -0.1)" spreadMethod ="pad" cx="0" cy="0" r="819.2" fx="0" fy="0" >
<stop  offset="0.192157"  style="stop-color:#FFE9E0;stop-opacity:0.933333" />
<stop  offset="0.67451"  style="stop-color:#FFD8BD;stop-opacity:0.231373" />
<stop  offset="1"  style="stop-color:#FFAC7D;stop-opacity:0" />
</radialGradient>
<path style="fill:url(#RadialGradID_2420) " d="M-0.65,0.45L-1.8 0.25L-2.3 -0.1L-0.5 -0.2L1.25 -0.2L1.85 -0.2L0.8 0.15L-0.65 0.45" />
<radialGradient
id="RadialGradID_2421" gradientUnits="userSpaceOnUse" gradientTransform="matrix(-0.00213623, 0, 0, 0.00213623, -0.35, -1.2)" spreadMethod ="pad" cx="0" cy="0" r="819.2" fx="0" fy="0" >
<stop  offset="0"  style="stop-color:#FFFFFF;stop-opacity:0.4" />
<stop  offset="1"  style="stop-color:#FFFFFF;stop-opacity:0" />
</radialGradient>
<path style="fill:url(#RadialGradID_2421) " d="M-0.7,-0.8L-2.5 -0.8L-0.4 -1.25L0.3 -0.8L-0.7 -0.8" />
</g>
</svg>
