<?xml version="1.0" encoding="utf-8"?>
<svg version="1.1" id="Layer_1"
xmlns="http://www.w3.org/2000/svg"
xmlns:xlink="http://www.w3.org/1999/xlink"
xmlns:author="http://www.sothink.com"
width="8px" height="5px"
xml:space="preserve">
<g id="259" transform="matrix(1, 0, 0, 1, 0, 0)">
<radialGradient
id="RadialGradID_2490" gradientUnits="userSpaceOnUse" gradientTransform="matrix(0.000869751, -0.000671387, -0.000930786, -0.000961304, 0.8, 1.35)" spreadMethod ="pad" cx="0" cy="0" r="819.2" fx="0" fy="0" >
<stop  offset="0"  style="stop-color:#D9521C;stop-opacity:0.552941" />
<stop  offset="1"  style="stop-color:#FFEFEA;stop-opacity:0" />
</radialGradient>
<path style="fill:url(#RadialGradID_2490) " d="M0.75,0.6L1.3 0.9L1.6 1.45L1.35 1.95L0.8 2.05L0.25 1.75L0 1.2Q-0.05 0.85 0.2 0.7L0.75 0.6" />
<radialGradient
id="RadialGradID_2491" gradientUnits="userSpaceOnUse" gradientTransform="matrix(-0.000823975, -0.000732422, 0.000991821, -0.000900269, 6.5, 1.3)" spreadMethod ="pad" cx="0" cy="0" r="819.2" fx="0" fy="0" >
<stop  offset="0"  style="stop-color:#D9521C;stop-opacity:0.552941" />
<stop  offset="1"  style="stop-color:#FFEFEA;stop-opacity:0" />
</radialGradient>
<path style="fill:url(#RadialGradID_2491) " d="M6.55,0.6Q6.25 0.6 6 0.85L5.7 1.4Q5.7 1.7 5.85 1.85L6.4 2.05L7 1.8L7.3 1.2L7.1 0.7L6.55 0.6" />
<radialGradient
id="RadialGradID_2492" gradientUnits="userSpaceOnUse" gradientTransform="matrix(0.000137329, -0.00196838, 0.00390625, 6.10352e-005, 3.7, 2.95)" spreadMethod ="pad" cx="0" cy="0" r="819.2" fx="0" fy="0" >
<stop  offset="0.0666667"  style="stop-color:#E37653;stop-opacity:0.662745" />
<stop  offset="1"  style="stop-color:#FFEFEA;stop-opacity:0" />
</radialGradient>
<path style="fill:url(#RadialGradID_2492) " d="M3.75,1.85Q2.8 1.8 2 2.2Q1.35 2.5 1.3 3.05Q1.3 3.5 1.9 3.9L3.65 4.25L5.3 4Q6.1 3.6 6.15 3.1Q6.15 2.55 5.45 2.2Q4.8 1.8 3.75 1.85" />
<path style="fill:#964A46;fill-opacity:1" d="M5.7,1.35L5.05 1.15L4.7 1.25L4.5 1.3L4.15 1.4L3.35 1.3L2.6 1.15L1.8 1.35L1.1 1.55L1.05 1.55L0.85 1.55L1.05 1.25L1.15 1.25L1.65 1.25L2.55 1.05L3.7 1.15L4.1 1.25L4.4 1.1L5.05 0.95L5.9 1.2L6.3 1.35L6.35 1.35L6.6 1.25L6.65 1.3L6.75 1.4L6.65 1.5L6.45 1.5L5.7 1.35" />
<path style="fill:#F19980;fill-opacity:1" d="M2.7,2.7L4.45 2.85Q5.3 2.8 5.75 2.45L5.1 2.9L3.75 3.05Q3.1 3 2.4 2.6L2.7 2.7" />
<radialGradient
id="RadialGradID_2493" gradientUnits="userSpaceOnUse" gradientTransform="matrix(0.00444031, -0.000335693, 0.000183105, 0.00250244, 4.2, 1.2)" spreadMethod ="pad" cx="0" cy="0" r="819.2" fx="0" fy="0" >
<stop  offset="0.227451"  style="stop-color:#E86E5A;stop-opacity:1" />
<stop  offset="0.788235"  style="stop-color:#FCAC97;stop-opacity:0.713725" />
<stop  offset="1"  style="stop-color:#E8795A;stop-opacity:0.8" />
</radialGradient>
<path style="fill:url(#RadialGradID_2493) " d="M2.4,2.6L2.2 2.5L1.1 1.55L1.8 1.35L2.6 1.15L3.35 1.3L4.15 1.4L4.5 1.3L4.7 1.25L5.05 1.15L5.7 1.35L6.45 1.5L6.15 2L5.75 2.45Q5.3 2.8 4.45 2.85L2.7 2.7L2.4 2.6" />
<radialGradient
id="RadialGradID_2494" gradientUnits="userSpaceOnUse" gradientTransform="matrix(0.00494385, -0.000366211, 0.000183105, 0.00238037, 3.8, 1.1)" spreadMethod ="pad" cx="0" cy="0" r="819.2" fx="25" fy="0" >
<stop  offset="0.207843"  style="stop-color:#ED846F;stop-opacity:1" />
<stop  offset="0.662745"  style="stop-color:#FAA18C;stop-opacity:0.592157" />
<stop  offset="1"  style="stop-color:#FCD2B2;stop-opacity:0.713725" />
</radialGradient>
<path style="fill:url(#RadialGradID_2494) " d="M5.9,1.2L5.05 0.95L4.4 1.1L4.1 1.25L3.7 1.15L2.55 1.05L1.65 1.25L1.15 1.25L1.3 1.1Q1.85 0.45 2.2 0.3L2.95 0L3.5 0.15L4.1 0.15L4.6 0L5.5 0.3L6.25 1.15L6.3 1.35L5.9 1.2" />
<radialGradient
id="RadialGradID_2495" gradientUnits="userSpaceOnUse" gradientTransform="matrix(0.00315857, 0.000259399, -9.15527e-005, 0.00105286, 3.9, 1.9)" spreadMethod ="pad" cx="0" cy="0" r="819.2" fx="0" fy="0" >
<stop  offset="0"  style="stop-color:#FFFFFF;stop-opacity:0.843137" />
<stop  offset="1"  style="stop-color:#FFFFFF;stop-opacity:0" />
</radialGradient>
<path style="fill:url(#RadialGradID_2495) " d="M4.7,2.4Q4.15 2.7 3.1 2.4Q1.95 2.1 1.65 1.8L4.25 1.6Q6.15 1.3 5.5 1.85L4.7 2.4" />
<path style="fill:#B3523A;fill-opacity:0.8" d="M3.95,1.15L4.45 1.05L4.95 0.9L5.6 1.05L6.3 1.3L6.35 1.35L5.9 1.25L5.05 1L4.4 1.15L4.1 1.3L3.7 1.15L2.5 1.05L1.65 1.25L1.15 1.3L1.3 1.15L2.05 1.05L2.95 0.9L3.55 1L3.95 1.15" />
</g>
</svg>
