<?xml version="1.0" encoding="utf-8"?>
<svg version="1.1" id="Layer_1"
xmlns="http://www.w3.org/2000/svg"
xmlns:xlink="http://www.w3.org/1999/xlink"
xmlns:author="http://www.sothink.com"
width="9px" height="4px"
xml:space="preserve">
<g id="257" transform="matrix(1, 0, 0, 1, 0, 0)">
<radialGradient
id="RadialGradID_2473" gradientUnits="userSpaceOnUse" gradientTransform="matrix(0.00392151, 6.10352e-005, -6.10352e-005, 0.00392151, 3.95, 0.25)" spreadMethod ="pad" cx="0" cy="0" r="819.2" fx="0" fy="0" >
<stop  offset="0.313725"  style="stop-color:#FFFFFF;stop-opacity:0.431373" />
<stop  offset="1"  style="stop-color:#FFFFFF;stop-opacity:0" />
</radialGradient>
<path style="fill:url(#RadialGradID_2473) " d="M4.6,0.05Q5.2 -0.2 6.25 0.5Q6.7 0.8 7.05 0.9L4.95 0.15L4.45 0.2L3.95 0.45L3.3 0.25L2.25 0.55L1.25 0.9L0.9 0.9L0.8 0.8L1.25 0.75L2.3 0.35Q2.9 -0.1 3.3 0L4.6 0.05" />
<radialGradient
id="RadialGradID_2474" gradientUnits="userSpaceOnUse" gradientTransform="matrix(0.00138855, 0.000106812, -0.000106812, 0.00138855, 0.45, 1)" spreadMethod ="pad" cx="0" cy="0" r="819.2" fx="0" fy="0" >
<stop  offset="0"  style="stop-color:#D9521C;stop-opacity:0.552941" />
<stop  offset="1"  style="stop-color:#FFEFEA;stop-opacity:0" />
</radialGradient>
<path style="fill:url(#RadialGradID_2474) " d="M0.2,0.6L0.7 0.5L1.15 0.7L1.35 1.1L1.1 1.55L0.6 1.65L0.15 1.45L0 1L0.2 0.6" />
<radialGradient
id="RadialGradID_2475" gradientUnits="userSpaceOnUse" gradientTransform="matrix(0.00131226, 0.000106812, -0.000106812, 0.00131226, 7.5, 0.9)" spreadMethod ="pad" cx="0" cy="0" r="819.2" fx="0" fy="0" >
<stop  offset="0"  style="stop-color:#D9521C;stop-opacity:0.552941" />
<stop  offset="1"  style="stop-color:#FFEFEA;stop-opacity:0" />
</radialGradient>
<path style="fill:url(#RadialGradID_2475) " d="M8.1,0.5L8.3 0.95L8.05 1.35Q7.9 1.55 7.65 1.55L7.2 1.3Q7 1.15 7.05 0.85L7.25 0.45Q7.45 0.25 7.75 0.3L8.1 0.5" />
<radialGradient
id="RadialGradID_2476" gradientUnits="userSpaceOnUse" gradientTransform="matrix(0.00375366, 0, 0, 0.00196838, 3.9, 2.9)" spreadMethod ="pad" cx="0" cy="0" r="819.2" fx="0" fy="0" >
<stop  offset="0"  style="stop-color:#D9521C;stop-opacity:0.552941" />
<stop  offset="1"  style="stop-color:#FFEFEA;stop-opacity:0" />
</radialGradient>
<path style="fill:url(#RadialGradID_2476) " d="M3.95,3.9L2.45 3.7Q1.8 3.45 1.85 3.15Q1.8 2.85 2.45 2.55L3.95 2.35L5.35 2.55L6 3.15L5.35 3.7L3.95 3.9" />
<radialGradient
id="RadialGradID_2477" gradientUnits="userSpaceOnUse" gradientTransform="matrix(0.0043335, 0, 0, 0.0043335, 4.05, 1.95)" spreadMethod ="pad" cx="0" cy="0" r="819.2" fx="6" fy="0" >
<stop  offset="0.0705882"  style="stop-color:#ED9B79;stop-opacity:1" />
<stop  offset="1"  style="stop-color:#FFCFBB;stop-opacity:0" />
</radialGradient>
<path style="fill:url(#RadialGradID_2477) " d="M7.3,1.4L6.05 2.25Q5.4 2.85 4.15 2.9Q2.85 2.95 2.2 2.5L1.35 1.85L0.8 1.55L0.75 1.5L0.9 1.5L2.05 1.45L3.05 1.4L3.6 1.55L4.35 1.55L5.05 1.4L5.6 1.35L6.45 1.35L7.15 1.4L7.2 1.4L7.3 1.4" />
<radialGradient
id="RadialGradID_2478" gradientUnits="userSpaceOnUse" gradientTransform="matrix(0.00776672, -4.57764e-005, 0, 0.00257874, 4, 1.5)" spreadMethod ="pad" cx="0" cy="0" r="819.2" fx="6" fy="0" >
<stop  offset="0.427451"  style="stop-color:#EB917A;stop-opacity:1" />
<stop  offset="1"  style="stop-color:#FFFFFF;stop-opacity:0.192157" />
</radialGradient>
<path style="fill:url(#RadialGradID_2478) " d="M6.85,0.85L6.45 1.1L5.7 1.15L5.25 1.15L4.6 1.25L4 1.35L2.95 1.1L1.8 1.2Q0.85 1.1 0.8 0.85L1.45 0.85L2.35 0.45Q2.95 0.05 3.25 0.1L4.05 0.5Q4.65 -0.1 5.1 0.2L5.95 0.7L6.85 0.85" />
<linearGradient
id="LinearGradID_2479" gradientUnits="userSpaceOnUse" gradientTransform="matrix(0.00440979, 0.00038147, -4.57764e-005, 0.000808716, 4.35, 1.1)" spreadMethod ="pad" x1="-819.2" y1="0" x2="819.2" y2="0" >
<stop  offset="0" style="stop-color:#3F0505;stop-opacity:1" />
<stop  offset="0.266667" style="stop-color:#871608;stop-opacity:1" />
<stop  offset="0.737255" style="stop-color:#801508;stop-opacity:1" />
<stop  offset="1" style="stop-color:#380703;stop-opacity:1" />
</linearGradient>
<path style="fill:url(#LinearGradID_2479) " d="M0.7,1.5L0.25 1.05L0.2 0.95L0.8 0.85Q0.85 1.1 1.8 1.2L2.95 1.1L4 1.35L4.6 1.25L5.25 1.15L5.7 1.15L6.45 1.1L6.85 0.85L7.4 0.8L7.55 1.05L7.2 1.4L7.15 1.4L6.45 1.35L5.6 1.35L5.05 1.4L4.35 1.55L3.6 1.55L3.05 1.4L2.05 1.45L0.9 1.5L0.75 1.5L0.7 1.5" />
<linearGradient
id="LinearGradID_2480" gradientUnits="userSpaceOnUse" gradientTransform="matrix(0.00177002, 0, 0, 0.00050354, 4.8, 2.25)" spreadMethod ="pad" x1="-819.2" y1="0" x2="819.2" y2="0" >
<stop  offset="0.313725" style="stop-color:#FFFFFF;stop-opacity:0.513725" />
<stop  offset="1" style="stop-color:#FFFFFF;stop-opacity:0" />
</linearGradient>
<path style="fill:url(#LinearGradID_2480) " d="M2,1.65L5.55 1.85L6.15 1.9L3.75 2.45Q2.85 2.4 2 1.65" />
<linearGradient
id="LinearGradID_2481" gradientUnits="userSpaceOnUse" gradientTransform="matrix(-0.000244141, -0.000549316, 0.000244141, -0.000106812, 5.15, 2.25)" spreadMethod ="pad" x1="-819.2" y1="0" x2="819.2" y2="0" >
<stop  offset="0.235294" style="stop-color:#D15A53;stop-opacity:0.533333" />
<stop  offset="1" style="stop-color:#FFB5B5;stop-opacity:0.372549" />
</linearGradient>
<path style="fill:url(#LinearGradID_2481) " d="M5.6,2.25L6.6 1.65L5.75 2.4L4.6 2.9L5.6 2.25" />
<linearGradient
id="LinearGradID_2482" gradientUnits="userSpaceOnUse" gradientTransform="matrix(0.000366211, -0.000564575, 0.000946045, 0.000610352, 2.1, 2.15)" spreadMethod ="pad" x1="-819.2" y1="0" x2="819.2" y2="0" >
<stop  offset="0.235294" style="stop-color:#D15A53;stop-opacity:0.533333" />
<stop  offset="1" style="stop-color:#FFB5B5;stop-opacity:0.372549" />
</linearGradient>
<path style="fill:url(#LinearGradID_2482) " d="M2.95,2.8Q2.45 2.75 1.35 1.85Q2.35 1.8 2.95 2.8" />
</g>
</svg>
