<?xml version="1.0" encoding="utf-8"?>
<svg version="1.1" id="Layer_1"
xmlns="http://www.w3.org/2000/svg"
xmlns:xlink="http://www.w3.org/1999/xlink"
xmlns:author="http://www.sothink.com"
width="9px" height="5px"
xml:space="preserve">
<g id="254" transform="matrix(1, 0, 0, 1, 0, 0)">
<radialGradient
id="RadialGradID_2449" gradientUnits="userSpaceOnUse" gradientTransform="matrix(-0.00012207, -0.00170898, -0.00534058, -3.05176e-005, 4.3, 3.1)" spreadMethod ="pad" cx="0" cy="0" r="819.2" fx="0" fy="0" >
<stop  offset="0.0666667"  style="stop-color:#E37653;stop-opacity:0.662745" />
<stop  offset="1"  style="stop-color:#FFEFEA;stop-opacity:0" />
</radialGradient>
<path style="fill:url(#RadialGradID_2449) " d="M4.3,2.15L6.7 2.45Q7.65 2.75 7.65 3.2Q7.65 3.6 6.8 4L4.45 4.25L2.05 4Q1.05 3.6 1 3.2Q1 2.7 2 2.45L4.3 2.15" />
<radialGradient
id="RadialGradID_2450" gradientUnits="userSpaceOnUse" gradientTransform="matrix(0.000564575, -0.00062561, -0.000823975, -0.00062561, 0.6, 0.6)" spreadMethod ="pad" cx="0" cy="0" r="819.2" fx="0" fy="0" >
<stop  offset="0"  style="stop-color:#D9521C;stop-opacity:0.552941" />
<stop  offset="1"  style="stop-color:#FFEFEA;stop-opacity:0" />
</radialGradient>
<path style="fill:url(#RadialGradID_2450) " d="M0.55,0.05L1 0.2L1.3 0.6L1.2 0.95L0.75 1.15L0.25 1L0 0.55L0.1 0.2Q0.3 0 0.55 0.05" />
<radialGradient
id="RadialGradID_2451" gradientUnits="userSpaceOnUse" gradientTransform="matrix(-0.000717163, -0.000442505, 0.000640869, -0.000793457, 7.85, 0.6)" spreadMethod ="pad" cx="0" cy="0" r="819.2" fx="0" fy="0" >
<stop  offset="0"  style="stop-color:#D9521C;stop-opacity:0.552941" />
<stop  offset="1"  style="stop-color:#FFEFEA;stop-opacity:0" />
</radialGradient>
<path style="fill:url(#RadialGradID_2451) " d="M8.25,0.05L8.45 0.45L8.3 0.85L7.9 1.15L7.45 1.1L7.3 0.75L7.4 0.3L7.8 0.05L8.25 0.05" />
<path style="fill:#8A403C;fill-opacity:1" d="M7.75,1.1L7.25 1.5L5.85 2.1L4.3 2.2L2.75 2.1Q1.75 1.8 1.4 1.5L0.85 1.1L0.75 0.95L0.75 0.9L0.7 0.85L0.65 0.85L0.6 0.75L0.7 0.7L0.75 0.7L0.95 0.8L3.05 1.1L3.5 1.15L4.3 1.2L5.2 1.15L5.55 1.1L7.65 0.8L7.9 0.7L8 0.7L8.05 0.75L8 0.85L7.9 0.9L7.9 0.95L7.75 1.1" />
<radialGradient
id="RadialGradID_2452" gradientUnits="userSpaceOnUse" gradientTransform="matrix(0.0062561, 0, 0, 0.0042572, 3.9, 1.3)" spreadMethod ="pad" cx="0" cy="0" r="819.2" fx="25" fy="0" >
<stop  offset="0.207843"  style="stop-color:#ED846F;stop-opacity:1" />
<stop  offset="0.662745"  style="stop-color:#FAA18C;stop-opacity:0.592157" />
<stop  offset="1"  style="stop-color:#FCD2B2;stop-opacity:0.713725" />
</radialGradient>
<path style="fill:url(#RadialGradID_2452) " d="M7.9,0.95Q7.25 2.25 6.35 2.8Q5.6 3.3 4.3 3.3Q3.05 3.3 2.25 2.8Q1.35 2.25 0.75 0.95L0.85 1.1L1.4 1.5Q1.75 1.8 2.75 2.1L4.3 2.2L5.85 2.1L7.25 1.5L7.75 1.1L7.9 0.95" />
<radialGradient
id="RadialGradID_2453" gradientUnits="userSpaceOnUse" gradientTransform="matrix(0.00642395, 0, 0, 0.00370789, 3.5, 1.65)" spreadMethod ="pad" cx="0" cy="0" r="819.2" fx="25" fy="0" >
<stop  offset="0.207843"  style="stop-color:#ED846F;stop-opacity:1" />
<stop  offset="0.662745"  style="stop-color:#FAA18C;stop-opacity:0.592157" />
<stop  offset="1"  style="stop-color:#FCD2B2;stop-opacity:0.713725" />
</radialGradient>
<path style="fill:url(#RadialGradID_2453) " d="M7.65,0.8L5.55 1.1L5.2 1.15L4.3 1.2L3.5 1.15L3.05 1.1L0.95 0.8L0.75 0.7L2.3 0.75L3.45 0.7L3.95 0.75L4.3 0.95L4.75 0.75L5.25 0.7L6.3 0.75L7.9 0.7L7.65 0.8" />
<path style="fill:#FFFFFF;fill-opacity:0.262745" d="M3,2.15L5.3 2.3L5.25 2.45L4 2.55L3.85 2.8L3.5 3L3.15 2.75L3 2.15" />
<path style="fill:#FFFFFF;fill-opacity:1" d="M7.05,1.05L6.75 1.5L6.55 1.7L6.35 1.75L6.25 1.8L6.2 1.8L5.2 2L4.3 2.05L3.45 2L2.45 1.8L2.35 1.75L2.1 1.7L1.95 1.5L1.65 1.05L1.75 1.1L2.15 1.15L3.1 1.2L4.15 1.3L4.35 1.3L4.55 1.3L5.55 1.2L6.5 1.15L6.9 1.1L7.05 1.05" />
<radialGradient
id="RadialGradID_2454" gradientUnits="userSpaceOnUse" gradientTransform="matrix(-0.00088501, 6.10352e-005, 3.05176e-005, 0.000396729, 4.85, 2.8)" spreadMethod ="pad" cx="0" cy="0" r="819.2" fx="0" fy="0" >
<stop  offset="0"  style="stop-color:#FFFFFF;stop-opacity:0.843137" />
<stop  offset="1"  style="stop-color:#FFFFFF;stop-opacity:0" />
</radialGradient>
<path style="fill:url(#RadialGradID_2454) " d="M5.45,2.9L4.95 3.05Q4.4 3.2 4.35 2.8L4.4 2.65L4.7 2.55Q5.2 2.4 5.5 2.75L5.45 2.9" />
<radialGradient
id="RadialGradID_2455" gradientUnits="userSpaceOnUse" gradientTransform="matrix(-0.001297, -6.10352e-005, 0.000183105, 0.000427246, 3.3, 2.65)" spreadMethod ="pad" cx="0" cy="0" r="819.2" fx="0" fy="0" >
<stop  offset="0"  style="stop-color:#FFFFFF;stop-opacity:0.862745" />
<stop  offset="1"  style="stop-color:#FFFFFF;stop-opacity:0" />
</radialGradient>
<path style="fill:url(#RadialGradID_2455) " d="M3.85,2.55L3.9 2.7L3.8 3L3.45 3L3.05 2.95L2.9 2.9L2.5 2.65L2.65 2.4L3.15 2.35L3.75 2.45L3.85 2.5L3.85 2.55" />
</g>
</svg>
