<?xml version="1.0" encoding="utf-8"?>
<svg version="1.1" id="Layer_1"
xmlns="http://www.w3.org/2000/svg"
xmlns:xlink="http://www.w3.org/1999/xlink"
xmlns:author="http://www.sothink.com"
width="10px" height="5px"
xml:space="preserve">
<g id="258" transform="matrix(1, 0, 0, 1, 0, 0)">
<radialGradient
id="RadialGradID_2483" gradientUnits="userSpaceOnUse" gradientTransform="matrix(0.0043335, 0, 0, 0.00268555, 4.75, 3.1)" spreadMethod ="pad" cx="0" cy="0" r="819.2" fx="0" fy="0" >
<stop  offset="0.145098"  style="stop-color:#E37653;stop-opacity:0.662745" />
<stop  offset="1"  style="stop-color:#FFEFEA;stop-opacity:0" />
</radialGradient>
<path style="fill:url(#RadialGradID_2483) " d="M3.55,4.85Q2.9 4.85 2.35 4.45Q1.75 4 1.35 3.05L5.4 3.3Q7.3 3.05 8.75 1.85L6.3 3.85Q4.65 4.85 3.55 4.85" />
<radialGradient
id="RadialGradID_2484" gradientUnits="userSpaceOnUse" gradientTransform="matrix(-0.000671387, -0.000762939, 0.001297, -0.000701904, 0.95, 1.35)" spreadMethod ="pad" cx="0" cy="0" r="819.2" fx="0" fy="0" >
<stop  offset="0.0941176"  style="stop-color:#D9521C;stop-opacity:0.552941" />
<stop  offset="1"  style="stop-color:#FFEFEA;stop-opacity:0" />
</radialGradient>
<path style="fill:url(#RadialGradID_2484) " d="M1.8,0.9L1.9 1.45L1.5 1.9L0.8 2.1L0.2 1.75Q-0.05 1.55 0.05 1.25Q0.15 0.95 0.5 0.8L1.15 0.65Q1.6 0.65 1.8 0.9" />
<radialGradient
id="RadialGradID_2485" gradientUnits="userSpaceOnUse" gradientTransform="matrix(0.000686646, -0.000808716, -0.00128174, -0.000839233, 8.9, 0.85)" spreadMethod ="pad" cx="0" cy="0" r="819.2" fx="0" fy="0" >
<stop  offset="0.0941176"  style="stop-color:#D9521C;stop-opacity:0.552941" />
<stop  offset="1"  style="stop-color:#FFEFEA;stop-opacity:0" />
</radialGradient>
<path style="fill:url(#RadialGradID_2485) " d="M8.7,0L9.4 0.2L9.85 0.75L9.7 1.35L9.1 1.6L8.35 1.45L8 0.9Q7.9 0.5 8.15 0.25Q8.35 -0.05 8.7 0" />
<path style="fill:#8A403C;fill-opacity:1" d="M8,1.65L7.9 1.65L6 2.25L4.3 2.35L2.9 2.2L1.95 2L1.55 1.8L1 1.6L0.7 1.25L0.8 1.3L1.45 1.35L2.5 1.15L3.6 1.05L4.2 1.15L4.25 1.2L4.65 1.25L4.85 1.25L4.9 1.25L5.05 1.2L5.3 1.15L6 1.05L7.05 1.05L8.1 1.15L9 0.95L9.1 0.9L9.05 1L8.6 1.35L8.5 1.4L8 1.65" />
<radialGradient
id="RadialGradID_2486" gradientUnits="userSpaceOnUse" gradientTransform="matrix(0.00636292, 0, 0, 0.0025177, 4.85, 2.1)" spreadMethod ="pad" cx="0" cy="0" r="819.2" fx="0" fy="0" >
<stop  offset="0.0941176"  style="stop-color:#D96D54;stop-opacity:1" />
<stop  offset="0.713725"  style="stop-color:#F09C87;stop-opacity:1" />
<stop  offset="1"  style="stop-color:#FCD2B2;stop-opacity:0.713725" />
</radialGradient>
<path style="fill:url(#RadialGradID_2486) " d="M9,0.95L8.1 1.15L7.05 1.05L6 1.05L5.3 1.15L5.05 1.2L4.9 1.25L4.85 1.25L4.65 1.25L4.25 1.2L4.2 1.15L3.6 1.05L2.5 1.15L1.45 1.35L0.8 1.3L2.25 0.95L3.6 0.6L4.35 0.7L5.05 0.8L5.6 0.6L6.05 0.55L6.9 0.7L8.1 0.95L9 0.95" />
<radialGradient
id="RadialGradID_2487" gradientUnits="userSpaceOnUse" gradientTransform="matrix(0.00454712, 0, 0, 0.0035553, 4.7, 1.3)" spreadMethod ="pad" cx="0" cy="0" r="819.2" fx="0" fy="0" >
<stop  offset="0.286275"  style="stop-color:#F0785B;stop-opacity:0.933333" />
<stop  offset="0.690196"  style="stop-color:#ED8257;stop-opacity:0.462745" />
<stop  offset="0.964706"  style="stop-color:#D9553E;stop-opacity:0.501961" />
</radialGradient>
<path style="fill:url(#RadialGradID_2487) " d="M1,1.6L1.55 1.8L1.95 2L2.9 2.2L4.3 2.35L6 2.25L7.9 1.65L8 1.65L8.5 1.4Q7.75 2.7 6.8 3L5 3.3L4.9 3.3L4.8 3.3L4.7 3.3L2.9 3.1Q1.9 2.85 1 1.6" />
<radialGradient
id="RadialGradID_2488" gradientUnits="userSpaceOnUse" gradientTransform="matrix(0.00315857, 0, 0, 0.00315857, 4.7, 2.25)" spreadMethod ="pad" cx="0" cy="0" r="819.2" fx="0" fy="0" >
<stop  offset="0"  style="stop-color:#8A403C;stop-opacity:1" />
<stop  offset="1"  style="stop-color:#4D2321;stop-opacity:1" />
</radialGradient>
<path style="fill:url(#RadialGradID_2488) " d="M8.2,1.3L8.85 1.05L8.45 1.35L7.05 1.85L3.35 2.05L1.3 1.65L0.95 1.4L1.35 1.5L1.65 1.45L1.8 1.45L2.35 1.35L3.45 1.25L4.2 1.3L4.25 1.35L4.65 1.4L4.85 1.4L4.9 1.4L5.05 1.35L5.45 1.3L6.05 1.25L7.1 1.25L7.7 1.25L8.2 1.3" />
<path style="fill:#FFFFFF;fill-opacity:1" d="M6.1,1.6L7.35 1.75L7.25 1.8L7.05 1.9L5.95 2.15L4.3 2.2L2.9 2.1L2.25 1.95L2.15 1.85L6.1 1.6" />
<path style="fill:#DED3CC;fill-opacity:1" d="M2.15,1.85L2.05 1.8L1.8 1.45L2.35 1.35L3.45 1.25L4.2 1.3L4.25 1.35L4.65 1.4L4.85 1.4L4.9 1.4L5.05 1.35L5.45 1.3L6.05 1.25L7.1 1.25L7.65 1.25L7.65 1.3L7.35 1.75L6.1 1.6L2.15 1.85" />
<radialGradient
id="RadialGradID_2489" gradientUnits="userSpaceOnUse" gradientTransform="matrix(0.00239563, 0.00012207, -3.05176e-005, 0.000717163, 4.8, 2.8)" spreadMethod ="pad" cx="0" cy="0" r="819.2" fx="210524" fy="0" >
<stop  offset="0"  style="stop-color:#FFFFFF;stop-opacity:0.792157" />
<stop  offset="0.870588"  style="stop-color:#FFFFFF;stop-opacity:0" />
</radialGradient>
<path style="fill:url(#RadialGradID_2489) " d="M6.8,2.75L4.15 3.05L2.9 2.8L3.1 2.6L3.75 2.5L5.95 2.5L7 2.6Q7.5 2.7 6.8 2.75" />
</g>
</svg>
