<?xml version="1.0" encoding="utf-8"?>
<svg version="1.1" id="Layer_1"
xmlns="http://www.w3.org/2000/svg"
xmlns:xlink="http://www.w3.org/1999/xlink"
xmlns:author="http://www.sothink.com"
width="9px" height="6px"
xml:space="preserve">
<g id="255" transform="matrix(1, 0, 0, 1, 0, 0)">
<radialGradient
id="RadialGradID_2456" gradientUnits="userSpaceOnUse" gradientTransform="matrix(-6.10352e-005, -0.00137329, -0.00132751, -0.000137329, 7.95, 2.5)" spreadMethod ="pad" cx="0" cy="0" r="819.2" fx="0" fy="0" >
<stop  offset="0"  style="stop-color:#F2571F;stop-opacity:0.6" />
<stop  offset="1"  style="stop-color:#FFEFEA;stop-opacity:0" />
</radialGradient>
<path style="fill:url(#RadialGradID_2456) " d="M8.55,2.05L8.8 2.65L8.55 3.25L7.95 3.45L7.35 3.2L7.25 2.85L7.1 2.45L7.25 2.1Q7.6 1.85 7.85 1.75L8.55 2.05" />
<radialGradient
id="RadialGradID_2457" gradientUnits="userSpaceOnUse" gradientTransform="matrix(0.000259399, -0.00154114, -0.00126648, -0.00050354, 0.85, 2.8)" spreadMethod ="pad" cx="0" cy="0" r="819.2" fx="0" fy="0" >
<stop  offset="0"  style="stop-color:#F2571F;stop-opacity:0.6" />
<stop  offset="1"  style="stop-color:#FFEFEA;stop-opacity:0" />
</radialGradient>
<path style="fill:url(#RadialGradID_2457) " d="M0.4,1.95L1 1.9L1.5 2.4L1.6 3.15L1.25 3.75L0.65 3.8L0.2 3.3L0.05 3.05L0.05 2.55Q0.05 2.2 0.4 1.95" />
<radialGradient
id="RadialGradID_2458" gradientUnits="userSpaceOnUse" gradientTransform="matrix(9.15527e-005, -0.00198364, -0.00521851, -6.10352e-005, 4.4, 4.5)" spreadMethod ="pad" cx="0" cy="0" r="819.2" fx="0" fy="0" >
<stop  offset="0"  style="stop-color:#DE501C;stop-opacity:0.423529" />
<stop  offset="1"  style="stop-color:#FFEFEA;stop-opacity:0" />
</radialGradient>
<path style="fill:url(#RadialGradID_2458) " d="M3.3,3.45Q5.4 3.1 7.2 3.9L7.45 4.2L7.65 4.55Q7.65 5.2 6.9 5.4L4.4 5.7L1.95 5.45Q1.25 5 1.15 4.5Q1.05 4 2.15 3.7L3.3 3.45" />
<path style="fill:#B16653;fill-opacity:1" d="M7.15,2.8L6.3 2.9L5.75 2.9L4.95 3.1L3.95 3.25L3.3 3.1L2.4 2.95L1.95 3L1.25 3L1 2.95L0.7 2.9L0.45 2.8L0.65 2.75L1 2.8L1.25 2.8L1.95 2.8L2.4 2.75L3.25 2.95L3.9 3.05L4.95 2.9L5.85 2.7L6.3 2.7L7 2.65L7.55 2.6L7.85 2.55L7.85 2.65L7.75 2.75L7.4 2.75L7.15 2.8" />
<radialGradient
id="RadialGradID_2459" gradientUnits="userSpaceOnUse" gradientTransform="matrix(0.0071106, 0, 0, 0.00270081, 4.2, 3.05)" spreadMethod ="pad" cx="0" cy="0" r="819.2" fx="0" fy="0" >
<stop  offset="0.0627451"  style="stop-color:#F08167;stop-opacity:1" />
<stop  offset="0.345098"  style="stop-color:#FCA394;stop-opacity:0.792157" />
<stop  offset="0.521569"  style="stop-color:#F0967D;stop-opacity:1" />
</radialGradient>
<path style="fill:url(#RadialGradID_2459) " d="M7.4,2.75L5.9 3.9L4 4.3Q2.8 4.3 2.05 3.75L1 2.95L1.25 3L1.95 3L2.4 2.95L3.3 3.1L3.95 3.25L4.95 3.1L5.75 2.9L6.3 2.9L7.15 2.8L7.4 2.75" />
<radialGradient
id="RadialGradID_2460" gradientUnits="userSpaceOnUse" gradientTransform="matrix(0.00648499, 0, 0, 0.00236511, 4.05, 3)" spreadMethod ="pad" cx="0" cy="0" r="819.2" fx="0" fy="0" >
<stop  offset="0.133333"  style="stop-color:#F08C70;stop-opacity:1" />
<stop  offset="1"  style="stop-color:#FCC9B2;stop-opacity:1" />
</radialGradient>
<path style="fill:url(#RadialGradID_2460) " d="M7,2.65L6.3 2.7L5.85 2.7L4.95 2.9L3.9 3.05L3.25 2.95L2.4 2.75L1.95 2.8L1.25 2.8L1 2.8L1.95 2.5L2.95 2.25L3.7 2.35L4.25 2.45L4.75 2.25L5.25 2.15L6.05 2.35L7.55 2.6L7 2.65" />
<radialGradient
id="RadialGradID_2461" gradientUnits="userSpaceOnUse" gradientTransform="matrix(0.00224304, 0.000228882, -0.000213623, 0.00323486, 4.8, 1.25)" spreadMethod ="pad" cx="0" cy="0" r="819.2" fx="210511" fy="0" >
<stop  offset="0.0862745"  style="stop-color:#DB7C5E;stop-opacity:0.501961" />
<stop  offset="1"  style="stop-color:#FFDEC2;stop-opacity:0" />
</radialGradient>
<path style="fill:url(#RadialGradID_2461) " d="M4.15,0.2L4.15 0.1L4.25 0.1L4.65 0L4.65 0.05L4.65 0.8L4.75 1.6L4.55 1.7L4.15 2.05L4.15 1.4L4.15 0.35L4.15 0.3L4.15 0.2" />
<radialGradient
id="RadialGradID_2462" gradientUnits="userSpaceOnUse" gradientTransform="matrix(0.00088501, 0, 0, 0.000640869, 3.85, 3.65)" spreadMethod ="pad" cx="0" cy="0" r="819.2" fx="0" fy="0" >
<stop  offset="0"  style="stop-color:#FFFFFF;stop-opacity:1" />
<stop  offset="0.819608"  style="stop-color:#FFFFFF;stop-opacity:0" />
</radialGradient>
<path style="fill:url(#RadialGradID_2462) " d="M3.85,3.25L4.3 3.35L4.45 3.65L4.3 3.95L3.85 4.1L3.45 3.95L3.3 3.65L3.45 3.35L3.85 3.25" />
<radialGradient
id="RadialGradID_2463" gradientUnits="userSpaceOnUse" gradientTransform="matrix(0.00102234, -0.000289917, 0.000152588, 0.000564575, 5.35, 3.45)" spreadMethod ="pad" cx="0" cy="0" r="819.2" fx="0" fy="0" >
<stop  offset="0"  style="stop-color:#FFFFFF;stop-opacity:0.752941" />
<stop  offset="1"  style="stop-color:#FFFFFF;stop-opacity:0" />
</radialGradient>
<path style="fill:url(#RadialGradID_2463) " d="M6.15,3.2L6 3.6L5.45 3.85L4.85 3.9L4.55 3.65L4.7 3.3L5.25 3L5.85 2.95L6.15 3.2" />
<path style="fill:#FBCBAD;fill-opacity:1" d="M1.5,3.25Q2.1 3.25 2.6 3.75Q3.1 4.25 4.9 4.15L2.3 3.8L1.5 3.25" />
</g>
</svg>
