<?xml version="1.0" encoding="utf-8"?>
<svg version="1.1" id="Layer_1"
xmlns="http://www.w3.org/2000/svg"
xmlns:xlink="http://www.w3.org/1999/xlink"
xmlns:author="http://www.sothink.com"
width="11px" height="4px"
xml:space="preserve">
<g id="256" transform="matrix(1, 0, 0, 1, 0, 0)">
<radialGradient
id="RadialGradID_2464" gradientUnits="userSpaceOnUse" gradientTransform="matrix(0.00112915, -0.00038147, -0.000900269, -0.00109863, 1.1, 1.6)" spreadMethod ="pad" cx="0" cy="0" r="819.2" fx="0" fy="0" >
<stop  offset="0"  style="stop-color:#D9521C;stop-opacity:0.552941" />
<stop  offset="1"  style="stop-color:#FFEFEA;stop-opacity:0" />
</radialGradient>
<path style="fill:url(#RadialGradID_2464) " d="M1.3,0.95L0.5 0.9Q0.2 1 0.05 1.35Q-0.05 1.55 0.2 1.9L0.85 2.25L1.6 2.25L2.1 1.9L1.85 1.3L1.3 0.95" />
<radialGradient
id="RadialGradID_2465" gradientUnits="userSpaceOnUse" gradientTransform="matrix(-0.000961304, -0.000961304, 0.00135803, -0.000915527, 9.1, 1.3)" spreadMethod ="pad" cx="0" cy="0" r="819.2" fx="0" fy="0" >
<stop  offset="0"  style="stop-color:#D9521C;stop-opacity:0.552941" />
<stop  offset="1"  style="stop-color:#FFEFEA;stop-opacity:0" />
</radialGradient>
<path style="fill:url(#RadialGradID_2465) " d="M10.15,1.5L9.6 2.1L8.8 2.3L8.2 1.85Q8 1.5 8.15 1.1L8.7 0.5Q9.05 0.25 9.45 0.35L10.15 0.8L10.15 1.5" />
<radialGradient
id="RadialGradID_2466" gradientUnits="userSpaceOnUse" gradientTransform="matrix(0.00593567, 0, 0, 0.00234985, 5.2, 2.05)" spreadMethod ="pad" cx="0" cy="0" r="819.2" fx="0" fy="0" >
<stop  offset="0.286275"  style="stop-color:#F0785B;stop-opacity:0.933333" />
<stop  offset="0.690196"  style="stop-color:#ED8257;stop-opacity:0.372549" />
<stop  offset="0.964706"  style="stop-color:#EB7044;stop-opacity:0.45098" />
</radialGradient>
<path style="fill:url(#RadialGradID_2466) " d="M2.4,2.4Q3 2.85 4.85 2.9Q6.2 2.85 7.15 2.35L8.05 1.95L8.65 1.7L8.7 1.7Q7.2 3.5 6.25 3.7L4.4 3.9L2.9 3.45L1.35 1.95L1.65 2L2.4 2.4" />
<radialGradient
id="RadialGradID_2467" gradientUnits="userSpaceOnUse" gradientTransform="matrix(0.00727844, 0, 0, 0.00196838, 4.9, 2.1)" spreadMethod ="pad" cx="0" cy="0" r="819.2" fx="0" fy="0" >
<stop  offset="0"  style="stop-color:#D97A54;stop-opacity:0.921569" />
<stop  offset="0.572549"  style="stop-color:#FA967A;stop-opacity:0.780392" />
<stop  offset="1"  style="stop-color:#FCD2B2;stop-opacity:0.713725" />
</radialGradient>
<path style="fill:url(#RadialGradID_2467) " d="M3.75,1.1L4.25 1.2L4.55 1.3L4.6 1.35L5.35 1.2L6.15 1L7 1.15L8.55 1.5L8.35 1.55L7.5 1.7L6.4 1.75L5.45 1.85L5 1.95L4.5 1.9L4.05 1.8L3.6 1.8L3.4 1.8L2.15 1.85L1.65 1.8L1.25 1.7L2.9 1.25L3.75 1.1" />
<radialGradient
id="RadialGradID_2468" gradientUnits="userSpaceOnUse" gradientTransform="matrix(0.00567627, 0, 0, 0.00497437, 5.05, 2.3)" spreadMethod ="pad" cx="0" cy="0" r="819.2" fx="0" fy="0" >
<stop  offset="0.768627"  style="stop-color:#8A403C;stop-opacity:1" />
<stop  offset="1"  style="stop-color:#8A403C;stop-opacity:0.482353" />
</radialGradient>
<path style="fill:url(#RadialGradID_2468) " d="M2.15,1.85L3.4 1.8L3.6 1.8L4.05 1.8L4.5 1.9L5 1.95L5.45 1.85L6.4 1.75L7.5 1.7L8.35 1.55L8.55 1.5L9 1.45L8.7 1.7L8.65 1.7L8.05 1.95L7.15 2.35Q6.2 2.85 4.85 2.9Q3 2.85 2.4 2.4L1.65 2L1.45 1.95L1.15 1.9L1 1.75L1.25 1.65L1.65 1.75L2.15 1.85" />
<radialGradient
id="RadialGradID_2469" gradientUnits="userSpaceOnUse" gradientTransform="matrix(0.00134277, -0.000305176, 0.000167847, 0.000656128, 5.65, 3.25)" spreadMethod ="pad" cx="0" cy="0" r="819.2" fx="0" fy="0" >
<stop  offset="0"  style="stop-color:#FFFFFF;stop-opacity:0.45098" />
<stop  offset="1"  style="stop-color:#FFFFFF;stop-opacity:0" />
</radialGradient>
<path style="fill:url(#RadialGradID_2469) " d="M5.1,3.15L6.7 2.75Q6.9 3.65 4.95 3.65L5.1 3.15" />
<radialGradient
id="RadialGradID_2470" gradientUnits="userSpaceOnUse" gradientTransform="matrix(-0.00141907, -0.000274658, -0.000106812, 0.000549316, 3.8, 3.3)" spreadMethod ="pad" cx="0" cy="0" r="819.2" fx="210524" fy="0" >
<stop  offset="0"  style="stop-color:#FFFFFF;stop-opacity:0.792157" />
<stop  offset="1"  style="stop-color:#FFFFFF;stop-opacity:0" />
</radialGradient>
<path style="fill:url(#RadialGradID_2470) " d="M2.65,3.25Q1.95 2.8 2.45 2.8L3.5 2.85L4.35 3.05L4.8 3.25L4.75 3.6L3.95 3.7L2.65 3.25" />
<radialGradient
id="RadialGradID_2471" gradientUnits="userSpaceOnUse" gradientTransform="matrix(0.00285339, 0, 0, 0.00193787, 5.05, 1.2)" spreadMethod ="pad" cx="0" cy="0" r="819.2" fx="210524" fy="0" >
<stop  offset="0"  style="stop-color:#FFFFFF;stop-opacity:0.533333" />
<stop  offset="1"  style="stop-color:#FFFFFF;stop-opacity:0" />
</radialGradient>
<path style="fill:url(#RadialGradID_2471) " d="M3.45,0.65L3.7 0.4Q3.85 0.4 4.3 0.75L5 1.1L5.3 1.1L5.3 0.2L5.3 0L5.85 0.4L6.15 0.8L6.1 1L5.55 1.2L4.85 1.4Q3.9 0.95 3.4 1Q3.35 0.85 3.45 0.65" />
<radialGradient
id="RadialGradID_2472" gradientUnits="userSpaceOnUse" gradientTransform="matrix(0.00520325, 0, 0, 0.00357056, 4.9, 2.95)" spreadMethod ="pad" cx="0" cy="0" r="819.2" fx="0" fy="0" >
<stop  offset="0"  style="stop-color:#8A403C;stop-opacity:1" />
<stop  offset="1"  style="stop-color:#47211F;stop-opacity:1" />
</radialGradient>
<path style="fill:url(#RadialGradID_2472) " d="M2.15,2.15L2.1 2.15L1.65 1.95L1.25 1.85L1.25 1.8L1.65 1.85L1.7 1.9L2.15 1.95L3.4 1.9L3.6 1.85L4.05 1.9L4.5 2L5 2.05L5.45 1.95L6.4 1.85L7.5 1.8L8.35 1.65L8.85 1.55L8.75 1.65L8.55 1.65L8.05 1.85L7 2.25L4.8 2.65L2.8 2.4L2.15 2.15" />
<path style="fill:#FFFFFF;fill-opacity:1" d="M6.35,2.5L6.05 2.6L5.55 2.7L5.45 2.7L4.85 2.75L4 2.7L3.75 2.7L3.7 2.7L3.45 2.65Q2.85 2.35 2.9 2L3.4 1.95L3.6 1.95L4.05 1.95L4.45 2L4.95 2.05L5.45 2L6.4 1.9L6.7 1.9L6.35 2.5" />
<path style="fill:#DFC9BC;fill-opacity:1" d="M3.45,2.65Q2.7 2.45 2.4 2.05L2.9 2Q2.85 2.35 3.45 2.65M6.7,1.9L7 1.9L7.25 1.9L7.25 2L7.15 2.1L6.35 2.5L6.7 1.9" />
</g>
</svg>
