<?xml version="1.0" encoding="utf-8"?>
<svg version="1.1" id="Layer_1"
xmlns="http://www.w3.org/2000/svg"
xmlns:xlink="http://www.w3.org/1999/xlink"
xmlns:author="http://www.sothink.com"
width="9px" height="5px"
xml:space="preserve">
<g id="253" transform="matrix(1, 0, 0, 1, 4.05, 2.45)">
<radialGradient
id="RadialGradID_2440" gradientUnits="userSpaceOnUse" gradientTransform="matrix(0.000946045, -0.000946045, 0.00112915, 0.00112915, 3.3, -0.05)" spreadMethod ="pad" cx="0" cy="0" r="819.2" fx="0" fy="0" >
<stop  offset="0"  style="stop-color:#D9521C;stop-opacity:0.552941" />
<stop  offset="1"  style="stop-color:#FFEFEA;stop-opacity:0" />
</radialGradient>
<path style="fill:url(#RadialGradID_2440) " d="M4.05,0.25L3.8 0.5L3.45 0.4L3.15 0.15Q2.45 -0.35 2.3 -0.6L3.15 -0.5L3.95 -0.15L4.05 0.25" />
<radialGradient
id="RadialGradID_2441" gradientUnits="userSpaceOnUse" gradientTransform="matrix(0.000869751, 0.000869751, -0.00112915, 0.00112915, -3.4, 0.05)" spreadMethod ="pad" cx="0" cy="0" r="819.2" fx="0" fy="0" >
<stop  offset="0"  style="stop-color:#D9521C;stop-opacity:0.552941" />
<stop  offset="1"  style="stop-color:#FFEFEA;stop-opacity:0" />
</radialGradient>
<path style="fill:url(#RadialGradID_2441) " d="M-3.95,-0.15L-3.1 -0.5L-2.3 -0.6L-3.1 0.15L-3.4 0.4L-3.8 0.5L-4.05 0.25L-3.95 -0.15" />
<radialGradient
id="RadialGradID_2442" gradientUnits="userSpaceOnUse" gradientTransform="matrix(0.00831604, 0, 0, 0.00465393, -0.7, -1.5)" spreadMethod ="pad" cx="0" cy="0" r="819.2" fx="25" fy="0" >
<stop  offset="0"  style="stop-color:#ED846F;stop-opacity:1" />
<stop  offset="0.662745"  style="stop-color:#FAA18C;stop-opacity:0.592157" />
<stop  offset="1"  style="stop-color:#FCD2B2;stop-opacity:0.713725" />
</radialGradient>
<path style="fill:url(#RadialGradID_2442) " d="M-0.95,-0.65L0.05 -0.45L0.95 -0.65L3.25 0.15L3.15 0.15L2.85 0.25L1.85 0.2L0.05 0.3L-2.3 0.25L-2.85 0.2L-3.15 0.15L-3.2 0.15L-0.95 -0.65" />
<radialGradient
id="RadialGradID_2443" gradientUnits="userSpaceOnUse" gradientTransform="matrix(0.0040741, 0, 0, 0.0040741, 0.05, 0.7)" spreadMethod ="pad" cx="0" cy="0" r="819.2" fx="0" fy="0" >
<stop  offset="0.380392"  style="stop-color:#B92944;stop-opacity:1" />
<stop  offset="1"  style="stop-color:#7B211E;stop-opacity:1" />
</radialGradient>
<path style="fill:url(#RadialGradID_2443) " d="M3.25,0.05L3.45 -0.05L3.65 0.05L3.2 0.35L1.75 0.5L0 0.55L-1.75 0.5L-3.2 0.35L-3.6 0.05Q-3.65 -0.15 -3.4 -0.05L-3.2 0.05L-2.95 0.15L-1.7 0.2L0 0.3L1.85 0.2L2.95 0.2L3.25 0.05" />
<radialGradient
id="RadialGradID_2444" gradientUnits="userSpaceOnUse" gradientTransform="matrix(0.00741577, 0, 0, 0.003479, -0.85, 0.1)" spreadMethod ="pad" cx="0" cy="0" r="819.2" fx="0" fy="0" >
<stop  offset="0"  style="stop-color:#EB8069;stop-opacity:1" />
<stop  offset="0.407843"  style="stop-color:#FFBDB2;stop-opacity:0.921569" />
<stop  offset="0.835294"  style="stop-color:#FFD1C7;stop-opacity:0.831373" />
</radialGradient>
<path style="fill:url(#RadialGradID_2444) " d="M3.3,0.35Q1.6 1.5 0.05 1.5Q-1.55 1.5 -3.25 0.35L-3.4 0.25L-3.2 0.3L-2.7 0.4L-1.7 0.5L0.05 0.55L1.75 0.5L2.75 0.4L3.25 0.3L3.5 0.2L3.3 0.35" />
<radialGradient
id="RadialGradID_2445" gradientUnits="userSpaceOnUse" gradientTransform="matrix(0.00273132, -0.000106812, -0.000595093, 0.000534058, 1.05, 0.6)" spreadMethod ="pad" cx="0" cy="0" r="819.2" fx="0" fy="0" >
<stop  offset="0"  style="stop-color:#FFFFFF;stop-opacity:1" />
<stop  offset="1"  style="stop-color:#FFFFFF;stop-opacity:0" />
</radialGradient>
<path style="fill:url(#RadialGradID_2445) " d="M-0.2,0.55L1.35 0.55L2.45 0.5Q2.7 0.45 2.4 0.65L1.65 0.9L1.1 0.95L1.05 1L0.2 1L-0.55 0.95L-0.6 0.95L-1.3 0.8Q-1.7 0.7 -1.3 0.6L-0.2 0.55" />
<radialGradient
id="RadialGradID_2446" gradientUnits="userSpaceOnUse" gradientTransform="matrix(0.00112915, 0, 0, 0.00112915, 0.3, -0.25)" spreadMethod ="pad" cx="0" cy="0" r="819.2" fx="0" fy="0" >
<stop  offset="0"  style="stop-color:#FFFFFF;stop-opacity:0.392157" />
<stop  offset="1"  style="stop-color:#FFFFFF;stop-opacity:0" />
</radialGradient>
<path style="fill:url(#RadialGradID_2446) " d="M0.8,-0.45L1.1 -0.3L0.6 -0.25L0.15 -0.05L-0.1 -0.15L-0.15 -0.4L0.2 -0.5L0.5 -0.55L0.8 -0.45" />
<radialGradient
id="RadialGradID_2447" gradientUnits="userSpaceOnUse" gradientTransform="matrix(0.0012207, 0, 0, 0.00183105, 0.2, -1)" spreadMethod ="pad" cx="0" cy="0" r="819.2" fx="0" fy="0" >
<stop  offset="0"  style="stop-color:#FFFFFF;stop-opacity:0.392157" />
<stop  offset="1"  style="stop-color:#FFFFFF;stop-opacity:0" />
</radialGradient>
<path style="fill:url(#RadialGradID_2447) " d="M-0.2,-0.85L-0.35 -0.95L0 -1.25Q0.4 -1.25 0.4 -1.45L0.4 -2.45L0.6 -1.8L0.55 -0.95L0.2 -0.8L-0.2 -0.85" />
<radialGradient
id="RadialGradID_2448" gradientUnits="userSpaceOnUse" gradientTransform="matrix(0.00482178, 0, 0, 0.00190735, -0.05, 1.55)" spreadMethod ="pad" cx="0" cy="0" r="819.2" fx="0" fy="0" >
<stop  offset="0.0666667"  style="stop-color:#E37653;stop-opacity:0.662745" />
<stop  offset="1"  style="stop-color:#FFEFEA;stop-opacity:0" />
</radialGradient>
<path style="fill:url(#RadialGradID_2448) " d="M2.85,0.9Q3.1 1.55 2.2 2.1L1.25 2.45L0.2 2.5L-0.85 2.5Q-1.4 2.5 -2.15 2.1Q-3 1.55 -2.8 0.9Q-1.55 1.65 0.05 1.6Q1.65 1.65 2.85 0.9" />
</g>
</svg>
