<?xml version="1.0" encoding="utf-8"?>
<svg version="1.1" id="Layer_1"
xmlns="http://www.w3.org/2000/svg"
xmlns:xlink="http://www.w3.org/1999/xlink"
xmlns:author="http://www.sothink.com"
width="9px" height="4px"
xml:space="preserve">
<g id="252" transform="matrix(1, 0, 0, 1, 4, 1.85)">
<radialGradient
id="RadialGradID_2432" gradientUnits="userSpaceOnUse" gradientTransform="matrix(0.000106812, -0.00187683, -0.00630188, -0.000152588, -0.05, 0.65)" spreadMethod ="pad" cx="0" cy="0" r="819.2" fx="0" fy="0" >
<stop  offset="0"  style="stop-color:#F15E1F;stop-opacity:0.423529" />
<stop  offset="1"  style="stop-color:#FFEFEA;stop-opacity:0" />
</radialGradient>
<path style="fill:url(#RadialGradID_2432) " d="M2.85,-0.05Q3.95 0.3 3.9 0.75Q3.85 1.25 2.7 1.55L-0.15 1.85L-2.85 1.5Q-4.05 1.1 -4 0.6Q-3.95 0.1 -2.7 -0.2L0.05 -0.5L2.85 -0.05" />
<radialGradient
id="RadialGradID_2433" gradientUnits="userSpaceOnUse" gradientTransform="matrix(0.00715637, -3.05176e-005, 3.05176e-005, 0.00715637, -0.1, -1.55)" spreadMethod ="pad" cx="0" cy="0" r="819.2" fx="0" fy="0" >
<stop  offset="0"  style="stop-color:#FFFFFF;stop-opacity:0.682353" />
<stop  offset="1"  style="stop-color:#FFEFEA;stop-opacity:0" />
</radialGradient>
<path style="fill:url(#RadialGradID_2433) " d="M3.65,-1.45L2.85 -1.35L1.75 -1.6L0.65 -1.5L0.1 -1.3L-0.5 -1.5L-1 -1.65L-1.95 -1.4L-2.9 -1.2L-3.25 -1.25L-3.35 -1.25L-3.75 -1.35L-3.25 -1.3L-2.4 -1.35L-1.6 -1.65L-0.95 -1.8L-0.45 -1.75L0.15 -1.6L0.6 -1.75L1.45 -1.75L1.85 -1.7L3.95 -1.55L3.65 -1.45" />
<linearGradient
id="LinearGradID_2434" gradientUnits="userSpaceOnUse" gradientTransform="matrix(-0.00172424, 0, 0, -0.000396729, -1.65, -1.3)" spreadMethod ="pad" x1="-819.2" y1="0" x2="819.2" y2="0" >
<stop  offset="0.0941176" style="stop-color:#DB8E6F;stop-opacity:1" />
<stop  offset="1" style="stop-color:#ED9A78;stop-opacity:0.243137" />
</linearGradient>
<path style="fill:url(#LinearGradID_2434) " d="M-3.25,-1.25L-2.9 -1.2L-1.95 -1.4L-1 -1.65L-0.5 -1.5L0.1 -1.3L0.15 -0.95L-1.4 -1.15L-2.55 -1.15L-3.25 -1.25" />
<linearGradient
id="LinearGradID_2435" gradientUnits="userSpaceOnUse" gradientTransform="matrix(0.00431824, -7.62939e-005, 1.52588e-005, 0.000473022, 0.2, -1.1)" spreadMethod ="pad" x1="-819.2" y1="0" x2="819.2" y2="0" >
<stop  offset="0.0941176" style="stop-color:#7A2913;stop-opacity:1" />
<stop  offset="0.478431" style="stop-color:#63110C;stop-opacity:1" />
<stop  offset="1" style="stop-color:#854A35;stop-opacity:1" />
</linearGradient>
<path style="fill:url(#LinearGradID_2435) " d="M-2.55,-1.15L-1.4 -1.15L0.15 -0.95L1.5 -1.2L3.1 -1.25L3.65 -1.45L3.95 -1.55L4 -1.55Q3.6 -1.15 2.65 -1.05L1.4 -0.95L0.95 -0.85L0.6 -0.75L0.1 -0.7L-0.7 -0.8L-1.75 -0.9L-2.6 -0.9L-3.4 -1.15L-3.9 -1.3L-3.9 -1.35L-3.75 -1.35L-3.35 -1.25L-3.25 -1.25L-2.55 -1.15" />
<radialGradient
id="RadialGradID_2436" gradientUnits="userSpaceOnUse" gradientTransform="matrix(0.00556946, -3.05176e-005, 1.52588e-005, 0.00297546, 0.15, -1.45)" spreadMethod ="pad" cx="0" cy="0" r="819.2" fx="0" fy="0" >
<stop  offset="0.196078"  style="stop-color:#B0674D;stop-opacity:1" />
<stop  offset="0.65098"  style="stop-color:#FAA287;stop-opacity:0.6" />
<stop  offset="0.964706"  style="stop-color:#B86445;stop-opacity:0.101961" />
</radialGradient>
<path style="fill:url(#RadialGradID_2436) " d="M4,-1.55L4.05 -1.3L3.65 -1.1L2.7 -0.4L1.7 0.3L0.85 0.55L-0.35 0.6L-1.5 0.35L-2.05 0L-2.6 -0.4L-3.4 -0.95L-3.9 -1.3L-3.4 -1.15L-2.6 -0.9L-1.75 -0.9L-0.7 -0.8L0.1 -0.7L0.6 -0.75L0.95 -0.85L1.4 -0.95L2.65 -1.05Q3.6 -1.15 4 -1.55" />
<linearGradient
id="LinearGradID_2437" gradientUnits="userSpaceOnUse" gradientTransform="matrix(-0.000198364, -0.000579834, 0.00201416, -0.000640869, 1.65, -1.95)" spreadMethod ="pad" x1="-819.2" y1="0" x2="819.2" y2="0" >
<stop  offset="0.0941176" style="stop-color:#DE9071;stop-opacity:1" />
<stop  offset="1" style="stop-color:#ED9A78;stop-opacity:0.243137" />
</linearGradient>
<path style="fill:url(#LinearGradID_2437) " d="M3.1,-1.25L1.5 -1.2L0.15 -0.95L0.1 -1.3L0.65 -1.5L1.75 -1.6L2.85 -1.35L3.65 -1.45L3.1 -1.25" />
<radialGradient
id="RadialGradID_2438" gradientUnits="userSpaceOnUse" gradientTransform="matrix(0.00393677, -1.52588e-005, 1.52588e-005, 0.00202942, 0.15, -1.05)" spreadMethod ="pad" cx="0" cy="0" r="819.2" fx="0" fy="0" >
<stop  offset="0.117647"  style="stop-color:#FFFFFF;stop-opacity:0.352941" />
<stop  offset="0.505882"  style="stop-color:#FFFFFF;stop-opacity:0.552941" />
<stop  offset="0.839216"  style="stop-color:#FFFFFF;stop-opacity:0" />
</radialGradient>
<path style="fill:url(#RadialGradID_2438) " d="M-1.35,-0.65L-1.15 -0.55L-0.95 -0.35L-0.75 -0.55L-0.5 -0.2L-0.25 -0.5L-0.1 -0.2L0.1 -0.4L0.25 -0.6L0.5 -0.25L0.7 -0.65L0.85 -0.1L0.9 -0.7L1.25 -0.3L1.25 -0.25L1.3 -0.7L2.4 -0.85Q1.75 0.25 0.55 0.35L-1.4 0.05Q-2.15 -0.35 -2 -0.6L-1.35 -0.65" />
<radialGradient
id="RadialGradID_2439" gradientUnits="userSpaceOnUse" gradientTransform="matrix(0.00141907, 0, 0, 0.00141907, -0.6, -0.25)" spreadMethod ="pad" cx="0" cy="0" r="819.2" fx="0" fy="0" >
<stop  offset="0"  style="stop-color:#FFFFFF;stop-opacity:0.6" />
<stop  offset="1"  style="stop-color:#FFEFEA;stop-opacity:0" />
</radialGradient>
<path style="fill:url(#RadialGradID_2439) " d="M0,-0.1L-0.6 -0.05L-1.25 -0.1L-1.5 -0.25L-1.25 -0.45L-0.6 -0.5L0 -0.45L0.25 -0.25L0 -0.1" />
</g>
</svg>
