<?xml version="1.0" encoding="utf-8"?>
<svg version="1.1" id="Layer_1"
xmlns="http://www.w3.org/2000/svg"
xmlns:xlink="http://www.w3.org/1999/xlink"
xmlns:author="http://www.sothink.com"
width="8px" height="4px"
xml:space="preserve">
<g id="261" transform="matrix(1, 0, 0, 1, 0, 0)">
<radialGradient
id="RadialGradID_2503" gradientUnits="userSpaceOnUse" gradientTransform="matrix(-0.000106812, -0.00201416, -0.00401306, -3.05176e-005, 3.95, 2.55)" spreadMethod ="pad" cx="0" cy="0" r="819.2" fx="0" fy="0" >
<stop  offset="0.0666667"  style="stop-color:#E37653;stop-opacity:0.662745" />
<stop  offset="1"  style="stop-color:#FFEFEA;stop-opacity:0" />
</radialGradient>
<path style="fill:url(#RadialGradID_2503) " d="M3.9,1.4L5.7 1.8Q6.35 2.1 6.4 2.7L5.75 3.55L4 3.95L2.25 3.6Q1.4 3.15 1.4 2.65Q1.4 2.1 2.1 1.75L3.9 1.4" />
<radialGradient
id="RadialGradID_2504" gradientUnits="userSpaceOnUse" gradientTransform="matrix(0.000762939, -0.000839233, -0.00111389, -0.000823975, 0.85, 0.9)" spreadMethod ="pad" cx="0" cy="0" r="819.2" fx="0" fy="0" >
<stop  offset="0"  style="stop-color:#D9521C;stop-opacity:0.552941" />
<stop  offset="1"  style="stop-color:#FFEFEA;stop-opacity:0" />
</radialGradient>
<path style="fill:url(#RadialGradID_2504) " d="M0.7,0.15L1.3 0.4L1.65 0.9L1.5 1.45L1 1.65L0.35 1.45Q0.05 1.2 0.05 0.95Q-0.05 0.6 0.15 0.35Q0.35 0.1 0.7 0.15" />
<radialGradient
id="RadialGradID_2505" gradientUnits="userSpaceOnUse" gradientTransform="matrix(-0.000946045, -0.000610352, 0.000854492, -0.00106812, 7.15, 0.8)" spreadMethod ="pad" cx="0" cy="0" r="819.2" fx="0" fy="0" >
<stop  offset="0"  style="stop-color:#D9521C;stop-opacity:0.552941" />
<stop  offset="1"  style="stop-color:#FFEFEA;stop-opacity:0" />
</radialGradient>
<path style="fill:url(#RadialGradID_2505) " d="M7.15,0.05L6.6 0.4L6.35 1L6.6 1.5L7.2 1.55L7.8 1.2L7.95 0.6L7.7 0.15L7.15 0.05" />
<radialGradient
id="RadialGradID_2506" gradientUnits="userSpaceOnUse" gradientTransform="matrix(0.00617981, 0, 0, 0.00344849, 4, 1)" spreadMethod ="pad" cx="0" cy="0" r="819.2" fx="6" fy="0" >
<stop  offset="0.337255"  style="stop-color:#ED8C78;stop-opacity:1" />
<stop  offset="1"  style="stop-color:#FFCFBB;stop-opacity:0" />
</radialGradient>
<path style="fill:url(#RadialGradID_2506) " d="M7,1L6.2 2.05Q5.5 2.65 4.35 2.7L2.45 2.5Q1.75 2.25 1.25 1.25L1.5 1.3L2.25 1.4L4.6 1.4L5.05 1.4L6.05 1.3L6.8 1.1L7 1" />
<radialGradient
id="RadialGradID_2507" gradientUnits="userSpaceOnUse" gradientTransform="matrix(0.00579834, 0, 0, 0.00579834, 3, 1.3)" spreadMethod ="pad" cx="0" cy="0" r="819.2" fx="210518" fy="0" >
<stop  offset="0.776471"  style="stop-color:#A6503B;stop-opacity:1" />
<stop  offset="1"  style="stop-color:#C16A46;stop-opacity:0.0235294" />
</radialGradient>
<path style="fill:url(#RadialGradID_2507) " d="M6.8,1.1L6.05 1.3L5.05 1.4L4.6 1.4L2.25 1.4L1.5 1.3L1.25 1.25L0.85 1.05L0.95 0.9L1 0.95L1.4 1.15L1.9 1.2L2.6 1.1L2.8 1.1L3.95 1.2L5.05 1.1L5.75 1L5.95 1L6.4 1L7.05 0.85L7.35 0.7L7.5 0.85L7.25 0.95L7 1L6.8 1.1" />
<radialGradient
id="RadialGradID_2508" gradientUnits="userSpaceOnUse" gradientTransform="matrix(0.00778198, 0, 0, 0.00367737, 3.85, -0.1)" spreadMethod ="pad" cx="0" cy="0" r="819.2" fx="6" fy="0" >
<stop  offset="0.368627"  style="stop-color:#ED8C78;stop-opacity:1" />
<stop  offset="1"  style="stop-color:#FFC8BA;stop-opacity:0" />
</radialGradient>
<path style="fill:url(#RadialGradID_2508) " d="M6.4,1L5.95 1L5.75 1L5.05 1.1L3.95 1.2L2.8 1.1L2.6 1.1L1.9 1.2L1.4 1.15L1 0.95L2.25 0.6L3.2 0.1L3.25 0.1L3.55 0.3L4.05 0.45L4.75 0.05L6.2 0.7L7.05 0.85L6.4 1" />
<radialGradient
id="RadialGradID_2509" gradientUnits="userSpaceOnUse" gradientTransform="matrix(0.00172424, 0, 0, 0.00172424, 4.8, 0.45)" spreadMethod ="pad" cx="0" cy="0" r="819.2" fx="0" fy="0" >
<stop  offset="0"  style="stop-color:#FFFFFF;stop-opacity:0.470588" />
<stop  offset="1"  style="stop-color:#FFFFFF;stop-opacity:0" />
</radialGradient>
<path style="fill:url(#RadialGradID_2509) " d="M4.8,0.45L5.35 0.6L6.05 0.9L4.85 0.9L3.95 0.8Q3.8 0.6 4.8 0.45" />
<radialGradient
id="RadialGradID_2510" gradientUnits="userSpaceOnUse" gradientTransform="matrix(0.00296021, 0, 0, 0.00241089, 4.3, 2.05)" spreadMethod ="pad" cx="0" cy="0" r="819.2" fx="0" fy="0" >
<stop  offset="0"  style="stop-color:#FFFFFF;stop-opacity:0.862745" />
<stop  offset="1"  style="stop-color:#FFFFFF;stop-opacity:0" />
</radialGradient>
<path style="fill:url(#RadialGradID_2510) " d="M4.2,1.75L4.3 1.75L4.35 1.8L4.4 2L4.65 2.2L4.6 1.9L4.7 1.75L5.25 1.6L6.25 1.65L5.6 2.15L4.65 2.45L4.2 2.3L4.2 1.85L4.2 1.75M3.7,1.85L3.65 2L3.65 2.2L3.55 2.55Q3.4 2.45 3.4 2.1L3.5 1.65L3.65 1.75L3.7 1.85M4,1.9L4 1.95L4 2.2L3.85 2.55L3.8 2.5L3.8 2.25L3.75 2L3.95 1.65L4 1.9M3.05,2.05L2.95 2.4L2.9 2.4L2.8 2.1L2.85 1.75L3.15 1.6L3.05 2.05" />
</g>
</svg>
