<?xml version="1.0" encoding="utf-8"?>
<svg version="1.1" id="Layer_1"
xmlns="http://www.w3.org/2000/svg"
xmlns:xlink="http://www.w3.org/1999/xlink"
xmlns:author="http://www.sothink.com"
width="67px" height="13px"
xml:space="preserve">
<g id="546" transform="matrix(1, 0, 0, 1, 0, 0)">
<path style="fill:#848484;fill-opacity:1" d="M56.9,11.25L54 11.4L51.9 11.55L51.05 11.55L48.95 11.55L43.95 11.25L43.65 11.25L41.55 10.75Q40.4 10.25 39.9 9.75Q38.15 7.2 38.3 3.95Q38.3 2.8 39.25 2.65Q38.95 2.8 38.95 3.15Q38.8 3.45 38.95 3.8Q38.8 6.85 40.55 9.45Q41.05 10.4 43.65 10.9L44.45 11.05L49.15 11.25L51.7 11.25L52.05 11.25L54.15 11.25L57.4 10.9L58.85 10.4L56.9 11.25M22.15,11.05L15 11.4L13.4 11.25L10.5 11.05Q10.3 10.9 10.15 11.05L9.35 10.9Q7.4 10.75 6.75 9.75Q4.85 6.7 5.3 3.3Q5.8 2.65 6.6 2.35Q6.1 2.5 5.8 3L5.8 3.15Q5.3 6.4 7.25 9.45Q7.9 10.4 9.85 10.6L10 10.6L15.5 11.05Q19.2 11.25 22.6 10.9L25.7 10.1Q24.55 10.75 22.15 11.05" />
<linearGradient
id="LinearGradID_4388" gradientUnits="userSpaceOnUse" gradientTransform="matrix(0, -0.0065155, 0.0202789, -4.57764e-005, 35.05, 3.65)" spreadMethod ="pad" x1="-819.2" y1="0" x2="819.2" y2="0" >
<stop  offset="0" style="stop-color:#000000;stop-opacity:1" />
<stop  offset="1" style="stop-color:#484848;stop-opacity:1" />
</linearGradient>
<path style="fill:url(#LinearGradID_4388) " d="M66.3,4.3L63.85 4.1L66.1 4.9L66.1 5.75L64.35 5.55L63.85 4.3L63.55 6.05L65.95 6.2L65.15 7.85L62.9 8Q61.9 10.1 60.45 11.55Q57.2 12.5 53 12.7L50.9 12.85L47.85 12.7L43.65 12.35L40.1 11.9Q37 10.1 35.7 5.75Q33.15 4.6 30.55 5.75Q29.1 9.95 26 11.9L10.8 12.35L5.8 11.25Q2.4 7 3.35 3.15Q4.35 1.55 7.4 1.2L9.35 0.9Q17.9 -0.25 29.55 2.15Q32.5 1.85 37.5 2.15L41.05 1.7L43.65 1.35L54 1.05L55.6 1.05L57.4 1.2L60.6 1.7L63.85 2.5L66.1 3.15L66.3 4.3M38.3,3.95Q38.15 7.2 39.9 9.75Q40.4 10.25 41.55 10.75L43.65 11.25L43.95 11.25L44.45 11.4L48.8 11.7L51.4 11.7Q51.55 11.55 51.9 11.7L53.8 11.55L57.2 11.25L58.85 10.9L59.8 10.25Q61.75 7.2 61.25 3.8Q60.8 2.8 59.8 2.65Q59.5 2.35 59 2.35L57.4 2.15L55.6 1.85L54 1.7L49.6 1.55L44.3 1.7L43.65 1.7L43.45 1.7L40.9 2.15L39.45 2.5L39.25 2.65Q38.3 2.8 38.3 3.95M5.3,3.3Q4.85 6.7 6.75 9.75Q7.4 10.75 9.35 10.9L10.15 11.05Q10.3 10.9 10.5 11.05L13.4 11.25L15 11.4L22.15 11.05L22.15 11.25Q22.3 11.05 22.45 11.25L25.55 10.4L26.5 9.6Q28.25 7 28.25 3.95Q28.45 2.65 27.3 2.5L27 2.35L27 2.5Q24.7 1.7 22.15 1.55L21.3 1.35L19.05 1.2L16.65 1.2L9.2 1.85L7.25 2.15L6.6 2.35Q5.8 2.65 5.3 3.3" />
<linearGradient
id="LinearGradID_4389" gradientUnits="userSpaceOnUse" gradientTransform="matrix(0.000930786, 0, 0, 0.0020752, 1.9, 4.1)" spreadMethod ="pad" x1="-819.2" y1="0" x2="819.2" y2="0" >
<stop  offset="0" style="stop-color:#000000;stop-opacity:1" />
<stop  offset="1" style="stop-color:#090909;stop-opacity:1" />
</linearGradient>
<path style="fill:url(#LinearGradID_4389) " d="M1.25,5.75L1.1 5.55L1.9 5.4L1.9 3.95Q1.9 2.65 2.4 2.35L2.55 2.35L2.4 3.8Q2.4 4.75 2.7 5.75L1.25 5.75" />
<linearGradient
id="LinearGradID_4390" gradientUnits="userSpaceOnUse" gradientTransform="matrix(0, -0.00192261, 0.000930786, 0, 1.75, 4.1)" spreadMethod ="pad" x1="-819.2" y1="0" x2="819.2" y2="0" >
<stop  offset="0" style="stop-color:#000000;stop-opacity:1" />
<stop  offset="1" style="stop-color:#484848;stop-opacity:1" />
</linearGradient>
<path style="fill:url(#LinearGradID_4390) " d="M1.1,5.55Q0.95 4.75 0.95 3.95L1.1 2.8Q1.75 2.5 2.4 2.35Q1.9 2.65 1.9 3.95L1.9 5.4L1.1 5.55" />
<linearGradient
id="LinearGradID_4391" gradientUnits="userSpaceOnUse" gradientTransform="matrix(0, -0.00123596, 0.00123596, 0, 2.25, 6.7)" spreadMethod ="pad" x1="-819.2" y1="0" x2="819.2" y2="0" >
<stop  offset="0" style="stop-color:#000000;stop-opacity:1" />
<stop  offset="1" style="stop-color:#484848;stop-opacity:1" />
</linearGradient>
<path style="fill:url(#LinearGradID_4391) " d="M1.75,7.5Q1.25 6.7 1.25 5.75L2.7 5.75L3.2 7.65L1.75 7.5" />
<linearGradient
id="LinearGradID_4392" gradientUnits="userSpaceOnUse" gradientTransform="matrix(0.00152588, 0, 0, 0.00123596, 64.65, 5.1)" spreadMethod ="pad" x1="-819.2" y1="0" x2="819.2" y2="0" >
<stop  offset="0" style="stop-color:#000000;stop-opacity:1" />
<stop  offset="1" style="stop-color:#090909;stop-opacity:1" />
</linearGradient>
<path style="fill:url(#LinearGradID_4392) " d="M65.95,6.2L63.55 6.05L63.85 4.3L64.35 5.55L66.1 5.75Q65.95 5.9 65.95 6.2" />
<path style="fill:#CCCCCC;fill-opacity:1" d="M1.1,2.8L0.95 3.95Q0.95 4.75 1.1 5.55L1.25 5.75Q1.25 6.7 1.75 7.5L1.1 7.5L0.3 5.75L0.15 5.55L0.15 5.4Q0 4.75 0 3.95Q0 3 0.3 2.15L2.7 1.35Q5.95 0.55 9.5 0.25Q18.55 -0.6 29.4 1.55Q33.45 1.2 37 1.7L41.2 1.05L43.65 0.7L44.1 0.55Q49.3 0.05 54.15 0.4L55.75 0.4L57.4 0.55L63.7 1.7L65.95 2.5L66.1 3.15L63.85 2.5L60.6 1.7L57.4 1.2L55.6 1.05L54 1.05L43.65 1.35L41.05 1.7L37.5 2.15Q32.5 1.85 29.55 2.15Q17.9 -0.25 9.35 0.9L7.4 1.2Q4.35 1.55 3.35 3.15Q2.4 7 5.8 11.25L5.65 11.25Q4.2 9.75 3.2 7.65L2.7 5.75Q2.4 4.75 2.4 3.8L2.55 2.35L2.4 2.35Q1.75 2.5 1.1 2.8M58.85,10.4L59.5 10.1Q61.25 7 60.95 3.65Q60.45 2.8 59.8 2.65Q60.8 2.8 61.25 3.8Q61.75 7.2 59.8 10.25L58.85 10.9L57.2 11.25L53.8 11.55L51.9 11.7Q51.55 11.55 51.4 11.7L48.8 11.7L44.45 11.4L43.95 11.25L48.95 11.55L51.05 11.55L51.9 11.55L54 11.4L56.9 11.25L58.85 10.4M66.1,4.9L63.85 4.1L66.3 4.3L66.1 4.9M25.7,10.1L26.15 9.6Q27.95 7 27.95 3.95Q27.95 2.65 27 2.5L27 2.35L27.3 2.5Q28.45 2.65 28.25 3.95Q28.25 7 26.5 9.6L25.55 10.4L22.45 11.25Q22.3 11.05 22.15 11.25L22.15 11.05Q24.55 10.75 25.7 10.1" />
<linearGradient
id="LinearGradID_4393" gradientUnits="userSpaceOnUse" gradientTransform="matrix(0.00627136, 0.00872803, -0.00492859, 0.00360107, 1.6, 1.2)" spreadMethod ="pad" x1="-819.2" y1="0" x2="819.2" y2="0" >
<stop  offset="0" style="stop-color:#FFFFFF;stop-opacity:1" />
<stop  offset="1" style="stop-color:#FFFFFF;stop-opacity:0" />
</linearGradient>
<path style="fill:url(#LinearGradID_4393) " d="M27.95,3.95Q27.95 7 26.15 9.6L25.7 10.1L22.6 10.9Q19.2 11.25 15.5 11.05L10 10.6L9.85 10.6Q7.9 10.4 7.25 9.45Q5.3 6.4 5.8 3.15L5.8 3Q6.1 2.5 6.6 2.35L7.25 2.15L9.2 1.85L16.65 1.2L19.05 1.2L21.3 1.35L22.15 1.55Q24.7 1.7 27 2.5Q27.95 2.65 27.95 3.95" />
<linearGradient
id="LinearGradID_4394" gradientUnits="userSpaceOnUse" gradientTransform="matrix(0.00918579, 0.00680542, -0.00350952, 0.00483704, 38, -0.9)" spreadMethod ="pad" x1="-819.2" y1="0" x2="819.2" y2="0" >
<stop  offset="0" style="stop-color:#FFFFFF;stop-opacity:1" />
<stop  offset="1" style="stop-color:#FFFFFF;stop-opacity:0" />
</linearGradient>
<path style="fill:url(#LinearGradID_4394) " d="M60.95,3.65Q61.25 7 59.5 10.1L58.85 10.4L57.4 10.9L54.15 11.25L52.05 11.25L51.7 11.25L49.15 11.25L44.45 11.05L43.65 10.9Q41.05 10.4 40.55 9.45Q38.8 6.85 38.95 3.8Q38.8 3.45 38.95 3.15Q38.95 2.8 39.25 2.65L39.45 2.5L40.9 2.15L43.45 1.7L43.65 1.7L44.3 1.7L49.6 1.55L54 1.7L55.6 1.85L57.4 2.15L59 2.35Q59.5 2.35 59.8 2.65Q60.45 2.8 60.95 3.65" />
</g>
</svg>
