<?xml version="1.0" encoding="utf-8"?>
<svg version="1.1" id="Layer_1"
xmlns="http://www.w3.org/2000/svg"
xmlns:xlink="http://www.w3.org/1999/xlink"
xmlns:author="http://www.sothink.com"
width="70px" height="50px"
xml:space="preserve">
<g id="547" transform="matrix(1, 0, 0, 1, 25.75, 24)">
<path style="fill:#FFFFFF;fill-opacity:0" d="M43.75,-3.05Q43.75 5.05 39.3 12.25Q31.05 25.6 10.85 25.6Q-11.15 25.6 -20.25 15Q-25.75 8.6 -25.75 -0.15Q-25.75 -1.2 -24.35 -7.05L-22.6 -13.5Q-20.35 -17.5 -13.65 -20.75Q-7.1 -24 -1.6 -24Q21.8 -24 34.25 -16.25Q43.75 -10.3 43.75 -3.05" />
<path style="fill:#333333;fill-opacity:1" d="M22.25,1.1Q21.55 3.5 20.55 5.05L14.05 5.45Q13.15 4.1 12.6 2.6L9.8 2.6Q9.05 4.8 8.3 5.45L2 5.1Q1.05 3.8 0.35 1.15L0.65 1.05Q1.1 3.15 2.05 4.65Q2.75 5.55 8.15 5.2Q8.85 4.25 9.05 3.25L9.15 2.45L9.1 2.15Q8.8 1.8 6.85 1.2Q4.85 0.5 3.05 0.55L0.2 0.85L0.05 0.9L0.1 0.55L7.1 0.75Q8.25 1.1 9.4 1.7L10.2 1.7L13.15 1.65L13.1 1.8Q16.2 0.7 18.3 0.35L22.6 0.45L22.55 0.8L21.05 0.5Q16.1 0.3 13.25 2.25L13.45 2.4L13.4 2.45Q13.4 3.9 14.35 5.15Q19.7 5.55 20.45 4.65Q21.35 3.15 21.9 1.1L22.25 1.1" />
<path style="fill:#000000;fill-opacity:1" d="M0.65,1.05L0.35 1.15Q1.05 3.8 2 5.1L8.3 5.45Q9.05 4.8 9.8 2.6L12.6 2.6Q13.15 4.1 14.05 5.45L20.55 5.05Q21.55 3.5 22.25 1.1L21.9 1.1L21.9 1.05L20.85 0.85Q16.45 0.6 13.45 2.4L13.25 2.25Q16.1 0.3 21.05 0.5L22.55 0.8L22.5 1.15L22.4 1.1Q21.8 3.65 20.6 5.35L13.85 5.7Q12.8 4.5 12.3 3L10.2 3Q9.65 4.55 8.6 5.75L1.95 5.3Q0.65 3.65 0.05 1.1L0.05 1.05L0.05 0.9L0.2 0.85L3.05 0.55Q4.85 0.5 6.85 1.2Q8.8 1.8 9.1 2.15L9.15 2.45Q6.1 0.65 1.65 0.8L0.65 0.95L0.65 1.05" />
<path style="fill:#999999;fill-opacity:1" d="M13.65,1.4Q17.3 -0.25 21.05 0.05L22.6 0.3L22.6 0.45L18.3 0.35Q16.2 0.7 13.1 1.8L13.15 1.65L13.65 1.4M7.1,0.75L0.1 0.55L0.15 0.2L1.5 0.05Q4.3 -0.15 7.1 0.75" />
</g>
</svg>
