<?xml version="1.0" encoding="utf-8"?>
<svg version="1.1" id="Layer_1"
xmlns="http://www.w3.org/2000/svg"
xmlns:xlink="http://www.w3.org/1999/xlink"
xmlns:author="http://www.sothink.com"
width="231px" height="49px"
xml:space="preserve">
<g id="554" transform="matrix(1, 0, 0, 1, 0, -0.05)">
<path style="fill:#FFFFFF;fill-opacity:1" d="M188.25,0.15L188.35 0.3L188.4 0.55L187.55 1.4L183.95 1.95Q182.45 1.95 182.15 1.3L183.9 0.6L184.1 0.55L185.15 0.25L187 0.2L187.1 0.2L188.25 0.15M169.4,1.3L170.3 1.6L170.5 1.75Q170.55 2.25 169.3 2.65L166.75 3.15L165 3.15L165 2.85Q165.55 2.55 167 1.95L167.05 1.95L167.4 1.8L168.4 1.4L169.4 1.3M108.75,16.7L108.75 16.75L108.7 16.7L108.75 16.7M68.25,2.4L67.55 2.6L65.2 2.4L57.9 2.6L37.6 0.45L37.6 0.1L37.75 0.05Q52.9 0.1 66.9 1.95L68.25 2.4M79.45,4.4L79 5.15Q78.55 5.55 78 5.6L77.85 5.6L77.25 5.5L77.2 5.45L76.35 5.15Q75.15 4.6 75.15 4.1L75.3 3.9L75.9 3.4L76.7 3.55L79.35 4.05L79.45 4.4" />
<path style="fill:#9F9B93;fill-opacity:1" d="M126.6,18.25L127.6 13L127.95 10.2L129.15 9.95L128.35 16.35L127.85 19.4L126.6 18.25M114.35,11.6L115.75 11.7L119.15 11.5L125 10.8Q124.2 13.6 123.75 15.7L123.25 16.35L122.15 16.4Q117.45 16.35 115.6 15.4Q113.5 14.3 113.35 11.6L114.35 11.6M100.5,9.7L100.9 9.85L101.65 10L109.05 11.25L109.05 13.6Q109.05 15.75 108.75 16.7L108.7 16.7Q109.05 14.6 108.7 13.8Q108.35 13.15 107.35 13L105.05 12.65Q103.55 12.3 102.35 11.35L102.15 11.2L101.9 11.25L102.3 13.3L103.65 18.05L102.85 18.7Q100.75 13.35 100.5 9.7" />
<path style="fill:#3C433B;fill-opacity:0.321569" d="M6.15,17.9L5.55 19.3Q5.2 19.75 4.55 19.75L2.35 19.4Q2.45 20.85 3.3 22.1L4.15 23.4L5.1 25.05Q5.55 26.15 5.85 29.15Q6 31.1 6.75 32.95L6.95 33.45L5.65 32.7L3.95 30.95L3.65 30.7Q1.1 21.1 1.15 20.35Q1.15 18.15 1.85 16.2L3.55 12.7L5.45 8.1L6.6 3L8.4 2.1L8.8 1.95Q8.65 3.75 8.1 5.3L7.8 6.1L8.5 5.45Q9.5 4.65 11.3 3.95Q8 6.7 7.35 14.45L6.15 17.9" />
<path style="fill:#111518;fill-opacity:0.321569" d="M7.35,14.45L7.25 15.6L7.25 18.1L7.25 20L7.25 33.5L6.95 33.45L6.75 32.95Q6 31.1 5.85 29.15Q5.55 26.15 5.1 25.05L4.15 23.4L3.3 22.1Q2.45 20.85 2.35 19.4L4.55 19.75Q5.2 19.75 5.55 19.3L6.15 17.9L7.35 14.45" />
<linearGradient
id="LinearGradID_4403" gradientUnits="userSpaceOnUse" gradientTransform="matrix(0, 0.0174713, -0.0624237, 0, 178.95, 26.6)" spreadMethod ="pad" x1="-819.2" y1="0" x2="819.2" y2="0" >
<stop  offset="0.00784314" style="stop-color:#1D1E19;stop-opacity:0.85098" />
<stop  offset="1" style="stop-color:#CAB9A8;stop-opacity:1" />
</linearGradient>
<path style="fill:url(#LinearGradID_4403) " d="M135.05,36.5Q133.6 36.5 131.95 31.95L130.9 28.3L130.5 25.7L130.5 25.6L130.35 25.6Q129.55 21.5 127.85 19.4L128.35 16.35L129.15 9.95L129.2 9.9Q147.55 3.7 168.4 1.4L167.4 1.8L167.05 1.95L167 1.95Q165.55 2.55 165 2.85L165 3.15L166.75 3.15L169.3 2.65Q170.55 2.25 170.5 1.75L170.3 1.6L169.4 1.3L185.15 0.25L184.1 0.55L183.9 0.6L182.15 1.3Q182.45 1.95 183.95 1.95L187.55 1.4L188.4 0.55L188.35 0.3L188.25 0.15L192.8 0.1L193.8 0.1L212.9 0.8Q219.75 1.3 221.7 2.2L227.5 5.1L228.9 5.1L230.1 28.35Q229 28.45 227.95 29.3L226.15 31.05L224.45 32.75L222.85 33.6L222.85 20.1L222.85 18.15L222.85 15.65Q222.1 3.6 215.6 2.55Q177.9 0.35 140.75 8.65Q130.75 10.05 131.4 14.4Q132.1 31.55 135.9 36.3L135.05 36.5M187.1,0.2L187 0.2L187.1 0.2" />
<linearGradient
id="LinearGradID_4404" gradientUnits="userSpaceOnUse" gradientTransform="matrix(0, 0.0135651, -0.0580139, 0, 55.35, 24.35)" spreadMethod ="pad" x1="-819.2" y1="0" x2="819.2" y2="0" >
<stop  offset="0.00784314" style="stop-color:#1D1E19;stop-opacity:0.85098" />
<stop  offset="1" style="stop-color:#CAB9A8;stop-opacity:1" />
</linearGradient>
<path style="fill:url(#LinearGradID_4404) " d="M124.05,17.2L106.05 17.1Q104.7 17.3 103.65 18.05L102.3 13.3L101.9 11.25L102.15 11.2L102.35 11.35Q103.55 12.3 105.05 12.65L107.35 13Q108.35 13.15 108.7 13.8Q109.05 14.6 108.7 16.7L108.7 16.85L108.75 16.75L108.75 16.7Q109.05 15.75 109.05 13.6L109.05 11.25L110.95 11.45L113.35 11.6Q113.5 14.3 115.6 15.4Q117.45 16.35 122.15 16.4L123.25 16.35L123.75 15.7Q124.2 13.6 125 10.8L127.95 10.2L127.6 13L126.6 18.25Q125.45 17.4 124.05 17.2M8.5,5.45L7.8 6.1L8.1 5.3Q8.65 3.75 8.8 1.95Q10.9 1.15 17.2 0.75L37.75 0.05L37.6 0.1L37.6 0.45L57.9 2.6L65.2 2.4L67.55 2.6L68.25 2.4L66.9 1.95L75.9 3.4L75.3 3.9L75.15 4.1Q75.15 4.6 76.35 5.15L77.2 5.45L77.25 5.5L77.85 5.6L78 5.6Q78.55 5.55 79 5.15L79.45 4.4L79.35 4.05Q90.3 6.25 100.5 9.7Q100.75 13.35 102.85 18.7Q100.65 20.8 99.75 25.5L99.6 25.5L99.6 25.6L99.2 28.2L98.15 31.85Q96.5 36.45 95.05 36.45L94.2 36.2Q98 31.45 98.7 14.35Q99.3 9.95 89.35 8.6L77.15 6.15Q46 0.65 14.5 2.5Q12.65 2.75 11.3 3.95Q9.5 4.65 8.5 5.45M3.65,30.7L2.15 29.2Q1.05 28.35 0 28.25L1.2 5L2.6 5L6.6 3L5.45 8.1L3.55 12.7L1.85 16.2Q1.15 18.15 1.15 20.35Q1.1 21.1 3.65 30.7" />
<linearGradient
id="LinearGradID_4405" gradientUnits="userSpaceOnUse" gradientTransform="matrix(0.0202484, 0.0202484, -0.036438, 0.036438, 179.6, 24.8)" spreadMethod ="pad" x1="-819.2" y1="0" x2="819.2" y2="0" >
<stop  offset="0.00784314" style="stop-color:#1D1E19;stop-opacity:0" />
<stop  offset="0.643137" style="stop-color:#666056;stop-opacity:0.164706" />
<stop  offset="1" style="stop-color:#CAB9A8;stop-opacity:0.392157" />
</linearGradient>
<path style="fill:url(#LinearGradID_4405) " d="M217.75,40.1L217.3 40.3Q183.5 52.2 148.3 47.25Q138.2 47.7 135.9 36.3Q132.1 31.55 131.4 14.4Q130.75 10.05 140.75 8.65Q177.9 0.35 215.6 2.55Q222.1 3.6 222.85 15.65L222.85 18.15L222.85 20.1Q222.45 37.5 217.75 40.1" />
<linearGradient
id="LinearGradID_4406" gradientUnits="userSpaceOnUse" gradientTransform="matrix(0.0193481, 0.0193481, -0.0348206, 0.0348206, 50.9, 24.15)" spreadMethod ="pad" x1="-819.2" y1="0" x2="819.2" y2="0" >
<stop  offset="0.00784314" style="stop-color:#1D1E19;stop-opacity:0" />
<stop  offset="0.643137" style="stop-color:#666056;stop-opacity:0.164706" />
<stop  offset="1" style="stop-color:#CAB9A8;stop-opacity:0.392157" />
</linearGradient>
<path style="fill:url(#LinearGradID_4406) " d="M7.25,18.1L7.25 15.6L7.35 14.45Q8 6.7 11.3 3.95Q12.65 2.75 14.5 2.5Q46 0.65 77.15 6.15L89.35 8.6Q99.3 9.95 98.7 14.35Q98 31.45 94.2 36.2Q91.85 47.65 81.8 47.15Q46.6 52.1 12.8 40.2L12.35 40Q10.95 39.25 9.95 37.25Q7.5 32.35 7.25 20L7.25 18.1" />
<linearGradient
id="LinearGradID_4407" gradientUnits="userSpaceOnUse" gradientTransform="matrix(-0.0205841, -0.0164642, 0.0147552, -0.0182648, 28.85, 13.4)" spreadMethod ="pad" x1="-819.2" y1="0" x2="819.2" y2="0" >
<stop  offset="0.00784314" style="stop-color:#FFFFFF;stop-opacity:0" />
<stop  offset="1" style="stop-color:#FFFFFF;stop-opacity:0.490196" />
</linearGradient>
<path style="fill:url(#LinearGradID_4407) " d="M67.15,17.4Q55.8 18.1 51.05 19.5Q40.95 27.85 34.4 32.8Q27.25 37.45 20.1 36.3Q8.2 34.6 10.15 21.6Q10.35 20.6 9.85 16.35Q8.2 2.9 29.45 3.65Q50.75 4.45 60.65 6Q70.5 7.4 74.5 13.4Q73.9 16.9 67.15 17.4" />
<linearGradient
id="LinearGradID_4408" gradientUnits="userSpaceOnUse" gradientTransform="matrix(-0.0226746, -0.0134125, 0.0120392, -0.0201569, 153.15, 17.7)" spreadMethod ="pad" x1="-819.2" y1="0" x2="819.2" y2="0" >
<stop  offset="0.00784314" style="stop-color:#FFFFFF;stop-opacity:0" />
<stop  offset="1" style="stop-color:#FFFFFF;stop-opacity:0.490196" />
</linearGradient>
<path style="fill:url(#LinearGradID_4408) " d="M191.6,16.3Q180.5 18.6 176 20.65L161.35 36.15Q154.95 41.75 147.7 41.6Q135.7 41.6 135.8 28.45Q135.85 27.4 134.75 23.3Q131.25 10.2 152.4 8Q173.6 5.8 183.6 5.95Q193.55 5.95 198.35 11.3Q198.25 14.85 191.6 16.3" />
</g>
</svg>
