<?xml version="1.0" encoding="utf-8"?>
<svg version="1.1" id="Layer_1"
xmlns="http://www.w3.org/2000/svg"
xmlns:xlink="http://www.w3.org/1999/xlink"
xmlns:author="http://www.sothink.com"
width="525px" height="118px"
xml:space="preserve">
<g id="551" transform="matrix(1, 0, 0, 1, 0, 0)">
<path style="fill:#CCCCCC;fill-opacity:1" d="M115.25,1Q99.65 2.15 87 4.5Q70.65 7.55 59.15 12.65Q38.7 21.7 32.5 31.95L30.65 30.3Q41.5 14.55 61.55 8.3Q73.1 4.7 86 2.65Q98.6 0.65 112.55 0.2Q124.75 -0.2 136.3 0.25L115.25 1M238.2,34.9L239.7 33.8Q247.2 26.25 259.95 24.75Q266.1 23.95 271.35 24.45Q276.5 24.85 280.75 26.5L270 26L269.45 26Q257.75 26.1 248.35 30.65Q240.85 35.3 239.75 35.3Q238.85 35.3 238.2 34.9" />
<linearGradient
id="LinearGradID_4395" gradientUnits="userSpaceOnUse" gradientTransform="matrix(0.0775909, 0.0775909, -0.070282, 0.070282, 436.8, 89.1)" spreadMethod ="pad" x1="-819.2" y1="0" x2="819.2" y2="0" >
<stop  offset="0.0235294" style="stop-color:#FFFFFF;stop-opacity:0.2" />
<stop  offset="1" style="stop-color:#7BB4EA;stop-opacity:0.443137" />
</linearGradient>
<path style="fill:url(#LinearGradID_4395) " d="M307.05,65.8L310.2 66.1Q312.2 66.1 313.7 64.95Q315.15 63.8 315.35 62.95Q315.55 62.1 315.2 59.25Q314.85 56.4 313.95 54.15L313.4 53.3Q311.2 50.05 308.4 47.5Q305.15 44.6 303.9 39.9Q317.4 23.85 339.1 16.2Q361.15 8.4 389 6.15Q402.35 5.1 418.15 5.55Q447.05 6.5 469.05 14.45Q474.25 16.35 479.3 18.65Q489.7 23.4 492.6 35.8Q494 41.6 491.5 48.65Q490.55 51.15 490.75 55.95L490.55 57.05Q482.85 79.1 466.55 92.4Q458.25 99.05 448.05 103.7Q427.45 112.9 398.1 113.5Q367.5 114.1 346.2 105.55Q327.45 98 316.35 82.7L306.75 66L307.05 65.8" />
<linearGradient
id="LinearGradID_4396" gradientUnits="userSpaceOnUse" gradientTransform="matrix(0.0598145, 0.0598145, -0.0683136, 0.0683136, 157.1, 76.7)" spreadMethod ="pad" x1="-819.2" y1="0" x2="819.2" y2="0" >
<stop  offset="0.0235294" style="stop-color:#FFFFFF;stop-opacity:0.2" />
<stop  offset="1" style="stop-color:#7BB4EA;stop-opacity:0.443137" />
</linearGradient>
<path style="fill:url(#LinearGradID_4396) " d="M218.35,26.35Q222.6 29.6 225.25 34.6L226.55 37.3L226.7 37.9L227.4 41.4Q227.4 44.2 226.1 45.5Q223.8 47.7 222.6 49.75Q221.7 52.05 220.7 55.35Q218.9 61.3 218.9 64.1Q218.9 66.65 219.6 68.05L220.95 69.95Q221.05 77.2 204.9 91.8Q187.8 104.6 162.65 109.1Q135.95 113.75 108.5 110.15Q82.3 106.7 64.5 94.9L63.35 94.05Q46.7 81.1 38.25 60L33.35 48.9L33.35 37.9L33.35 36.9Q37.4 25.95 46.8 20.55Q56.45 14.9 67.7 11.7L76.6 9.35L88.45 7.15Q108.1 4.1 130.55 4.55L140.6 4.9Q168.7 6.2 190.9 13.2Q202.7 16.85 212.2 22Q215 23.6 217.15 25.4L218.35 26.35" />
<linearGradient
id="LinearGradID_4397" gradientUnits="userSpaceOnUse" gradientTransform="matrix(1.52588e-005, -0.0886078, 0.0715485, 3.05176e-005, 317.85, 66.35)" spreadMethod ="pad" x1="-819.2" y1="0" x2="819.2" y2="0" >
<stop  offset="0" style="stop-color:#6F7B62;stop-opacity:0.85098" />
<stop  offset="1" style="stop-color:#000000;stop-opacity:1" />
</linearGradient>
<path style="fill:url(#LinearGradID_4397) " d="M306.65,65.9L306.75 66L316.35 82.7Q327.45 98 346.2 105.55Q367.5 114.1 398.1 113.5Q427.45 112.9 448.05 103.7Q458.25 99.05 466.55 92.4Q482.85 79.1 490.55 57.05L490.75 55.95Q490.55 51.15 491.5 48.65Q494 41.6 492.6 35.8Q489.7 23.4 479.3 18.65Q474.25 16.35 469.05 14.45Q447.05 6.5 418.15 5.55Q402.35 5.1 389 6.15Q361.15 8.4 339.1 16.2Q317.4 23.85 303.9 39.9Q305.15 44.6 308.4 47.5Q311.2 50.05 313.4 53.3L313.95 54.15Q314.85 56.4 315.2 59.25Q315.55 62.1 315.35 62.95Q315.15 63.8 313.7 64.95Q312.2 66.1 310.2 66.1L307.05 65.8L306.65 65.9M136.3,0.25L148.85 1.05Q158.95 1.9 168.5 3.5Q193.4 7.6 212.95 17.4Q223.95 22.9 230.7 32.65L232.5 35.4Q232.75 35.85 233.75 35.9Q236.45 35.85 238.2 34.9Q238.85 35.3 239.75 35.3Q240.85 35.3 248.35 30.65Q257.75 26.1 269.45 26L270 26L280.75 26.5L282.65 27.35Q290 30.75 295.9 35.95L297.05 36.7L297.9 36.9Q303.7 33.65 307.8 28.8Q314.65 20.6 325.6 16Q330.5 13.9 336.1 12.2Q358.8 5.1 385.15 2.4Q413.85 -0.45 441.2 3.05Q467.2 6.3 485.45 17.6Q494.45 23.1 497.3 34.9Q505.35 34.8 512.3 35Q519 35.2 522.9 37.65Q523.35 37.9 523.7 38.85Q523.85 39.4 524.35 39.9Q525 48.55 516.35 48L515.35 47.9Q510.8 47.35 508.1 48.45Q506.75 48.9 505.85 49.65L503.05 51.45L502.3 51.9Q503.65 47.9 498.3 48.9L498.3 50.9L498.3 51.9Q495.35 56 493.5 61.7Q486.2 83.45 469.7 96.6Q453.35 109.65 428.2 114.3Q402.3 119.2 373.05 116.2Q346.05 113.45 328.9 101.1Q311.7 88.7 302.9 67.95L302.7 67.1Q299.2 61.15 297.9 52.95Q297.65 51.05 297.05 50L296.4 48.75L296.2 48.15L296.2 48.05L296.2 48.1Q294.15 42.45 289.9 38.9Q286.2 33.55 279 31.5Q271.75 29.45 264.5 30.1Q259.7 30.5 254.9 32.15Q244.6 35.7 237.8 42.9L237.8 42.95Q237.05 43.2 234.7 48.9Q232.65 54.05 231.85 56.9L230.75 59.7L229.75 61.95L229.8 62.1Q227.8 67.05 226.95 69.35L225.6 72.45L215.5 85.85L213.5 88.4Q208.55 94.6 202.55 99Q196.55 103.4 188.95 106.7Q168.65 115.55 139.6 116.45Q108.7 117.3 86.4 110.15Q63.95 102.95 49.65 87.75Q35.35 72.5 29.35 48.9Q29.4 45.85 25.3 46.5Q17.4 47.75 10.4 46.5L9.4 46.5Q-1.65 48.3 0.3 37.9Q4.1 33.65 13.35 34.4L13.35 33.9L27.35 33.9L28.35 33.9L30.65 30.3L32.5 31.95Q38.7 21.7 59.15 12.65Q70.65 7.55 87 4.5Q99.65 2.15 115.25 1L136.3 0.25M217.15,25.4Q215 23.6 212.2 22Q202.7 16.85 190.9 13.2Q168.7 6.2 140.6 4.9L130.55 4.55Q108.1 4.1 88.45 7.15L76.6 9.35L67.7 11.7Q56.45 14.9 46.8 20.55Q37.4 25.95 33.35 36.9L33.35 37.9L33.35 48.9L38.25 60Q46.7 81.1 63.35 94.05L64.5 94.9Q82.3 106.7 108.5 110.15Q135.95 113.75 162.65 109.1Q187.8 104.6 204.9 91.8Q221.05 77.2 220.95 69.95L219.6 68.05Q218.9 66.65 218.9 64.1Q218.9 61.3 220.7 55.35Q221.7 52.05 222.6 49.75Q223.8 47.7 226.1 45.5Q227.4 44.2 227.4 41.4L226.7 37.9L226.55 37.3L225.25 34.6Q222.6 29.6 218.35 26.35L217.15 25.4" />
</g>
</svg>
