<?xml version="1.0" encoding="utf-8"?>
<svg version="1.1" id="Layer_1"
xmlns="http://www.w3.org/2000/svg"
xmlns:xlink="http://www.w3.org/1999/xlink"
xmlns:author="http://www.sothink.com"
width="26px" height="10px"
xml:space="preserve">
<g id="564" transform="matrix(1, 0, 0, 1, 0, 0)">
<path style="fill:#CCCCCC;fill-opacity:0" d="M25.5,9.85L0 9.85L0 0L25.5 0L25.5 9.85" />
<path style="fill:#999999;fill-opacity:1" d="M24.3,4.7L24.85 4.7L24.85 4.75L24.3 4.75L24.3 4.7M21.35,8.55L20.7 8.75Q17.8 9.35 15.6 7.7Q14.6 6.7 14.6 5.4L14.6 4.9Q14.5 4.35 13.7 4.2L12.5 4.1L12.7 4.05L13.9 4.1Q14.7 4.25 14.8 4.8L14.8 5.3Q14.8 6.65 15.85 7.6Q18.05 9.3 20.95 8.65L21.35 8.55M8.9,8.6L5.4 8.75Q2.7 8.15 2.05 4.75L1.25 4.75L1.25 3.55L1.45 3.55L1.45 4.7L2.3 4.7Q2.9 8.1 5.65 8.65Q7.4 9.05 8.9 8.6M2.05,3.5Q2.45 2.5 3.7 2.15Q2.6 2.55 2.25 3.5L2.05 3.5M4,2.05L4.65 1.9L5 1.9Q5.55 2 4.5 2.2L3.35 2.6Q3.1 2.5 3.45 2.35L4 2.05M14.65,3.3L15.55 2.85Q16.15 2.5 16.85 2.3L16.6 2.4L17 2.35L16.45 2.65Q15.9 2.9 15.65 3.25Q15.4 3.35 15.5 3.05L16.05 2.65L16.1 2.6L15.75 2.8L15.75 2.75L14.65 3.3M8.8,8.4L10.3 7.35Q11.4 6.35 11.3 4.8Q10.75 2.85 9.2 2.5L7.45 2.2L4.75 2.2L4.95 2.15Q5.55 2 7.7 2.15L9.4 2.4Q10.95 2.8 11.5 4.75Q11.65 6.3 10.5 7.3Q9.55 8.2 8.8 8.4M17.15,2.4L18.9 2.15Q20.95 2 21.6 2.15L23.05 2.65Q23.95 3 24.05 4.25Q24.1 5.45 23 7Q22.05 8.05 20.95 8.4L22.8 7.05Q23.9 5.5 23.85 4.3Q23.75 3.05 22.85 2.7L21.4 2.2L18.65 2.2L16.95 2.5L17.15 2.4M23,7.2L23.05 7.25L23.05 7.45Q22.8 7.6 22.6 7.8L21.75 8.3Q21.4 8.35 21.6 8.25L23 7.2M11.85,3.65L12.8 3.6L13.45 3.7L12.75 3.8L11.9 3.85L11.7 4.3L11.55 3.8L11.35 3.4L11.85 3.65M10.45,7.45Q10.75 7.25 10.65 7.45L10.5 7.7Q9.3 8.5 9 8.5Q8.6 8.5 8.95 8.4L9.85 7.9L10.45 7.45" />
<path style="fill:#000000;fill-opacity:1" d="M20.95,8.65Q18.05 9.3 15.85 7.6Q14.8 6.65 14.8 5.3L14.8 4.8Q14.7 4.25 13.9 4.1L12.7 4.05L12.5 4.1L12.4 4.15L11.75 4.85L11.75 4.8L11.75 5.3Q11.7 6.65 10.7 7.6L8.9 8.6Q7.4 9.05 5.65 8.65Q2.9 8.1 2.3 4.7L1.45 4.7L1.45 3.55L1.45 3.5L2.05 3.5L2.25 3.5Q2.6 2.55 3.7 2.15L4 2.05L3.45 2.35Q3.1 2.5 3.35 2.6L4.5 2.2Q5.55 2 5 1.9L4.65 1.9L6.8 1.8Q9.2 1.7 11.05 2.95L11.1 3Q11.2 3.3 12.5 3.4L14.05 3.4L14.65 3.3L15.75 2.75L15.75 2.8L16.1 2.6L16.05 2.65L15.5 3.05Q15.4 3.35 15.65 3.25Q15.9 2.9 16.45 2.65L17 2.35L16.6 2.4L16.85 2.3L17 2.2L19.75 1.8L22.4 2.05Q23.85 2.35 24.3 3.5L25.1 3.5L25.1 4.7L24.85 4.7L24.3 4.7L24.3 4.75Q23.65 7.85 21.35 8.55L20.95 8.65M10.5,7.3Q11.65 6.3 11.5 4.75Q10.95 2.8 9.4 2.4L7.7 2.15Q5.55 2 4.95 2.15L4.75 2.2L3.5 2.65Q2.6 3 2.5 4.25Q2.4 5.45 3.55 7Q4.75 8.4 6.25 8.55L8.6 8.45L8.8 8.4Q9.55 8.2 10.5 7.3M20.95,8.4Q22.05 8.05 23 7Q24.1 5.45 24.05 4.25Q23.95 3 23.05 2.65L21.6 2.15Q20.95 2 18.9 2.15L17.15 2.4L16.95 2.5L16.8 2.55Q15.5 3 15.05 4.75Q14.9 6.3 16.05 7.3Q17.15 8.3 18 8.45L20.3 8.55L20.95 8.4M21.6,8.25Q21.4 8.35 21.75 8.3L22.6 7.8Q22.8 7.6 23.05 7.45L23.05 7.25L23 7.2L21.6 8.25M11.35,3.4L11.55 3.8L11.7 4.3L11.9 3.85L12.75 3.8L13.45 3.7L12.8 3.6L11.85 3.65L11.35 3.4M9.85,7.9L8.95 8.4Q8.6 8.5 9 8.5Q9.3 8.5 10.5 7.7L10.65 7.45Q10.75 7.25 10.45 7.45L9.85 7.9" />
<path style="fill:#FFFFFF;fill-opacity:1" d="M2.7,4.05Q2.75 3.55 3.25 3.5Q3.75 3.55 3.8 4.05L3.25 4.6Q2.75 4.55 2.7 4.05M3.1,5.4Q2.9 5.4 2.85 5.2Q2.9 5 3.1 5L3.3 5.2L3.1 5.4M16.2,3.95Q16.7 4 16.75 4.5L16.2 5.05Q15.7 5 15.65 4.5Q15.7 4 16.2 3.95M15.85,5.65L16.05 5.45L16.3 5.65L16.05 5.85L15.85 5.65" />
<path style="fill:#FFFFFF;fill-opacity:1" d="M3.8,1.8L3.85 1.75L3.85 1.8L3.95 1.8L4 1.8L4 1.7L3.95 1.7L3.75 1.75L3.8 1.8M3.45,1.95L2.2 0.25L3.75 1.7L3.95 1.65L4.1 1.05L4.15 1.7L4.15 1.75L4.35 1.85L4.35 1.8L6.05 0.65L4.65 2.05L4.75 2.3L5.35 2.45L4.75 2.45L4.65 2.75L4.65 2.8L5.9 4.45L4.4 3L4.1 3.1L3.95 3.6L3.95 3.05L3.95 2.95L3.9 2.95L3.85 2.95L3.75 2.85L2.05 4L3.4 2.65L3.4 2.6L3.45 2.55L3.45 2.5L3.45 2.3L3.4 2.3L3.45 2.55L3.4 2.3L3.35 2.3L2.7 2.15L3.3 2.2L3.4 2.05L3.45 1.95L3.4 2.05L3.35 2.15L3.4 2.15L3.45 2.05L3.5 1.95L3.45 1.95M3.5,2.05L3.45 2.15L3.55 2.05L3.5 2L3.5 2.05M3.6,2.2L3.6 2.05L3.55 2.2L3.6 2.2M4.25,1.85L4.3 1.85L4.15 1.8L4.25 1.85M4.6,2.05L4.55 2.15L4.55 2.2L4.65 2.3L4.7 2.3L4.6 2.05M4.65,2.7L4.7 2.45L4.6 2.45L4.6 2.65L4.65 2.7M4.25,2.95L4.1 2.95L4.25 2.95M4.05,3.05L4.4 3L4.35 2.95L4.1 3L4.05 3.05M4.15,2.85L4.1 2.85L4.25 2.85L4.15 2.85" />
</g>
</svg>
