<?xml version="1.0" encoding="utf-8"?>
<svg version="1.1" id="Layer_1"
xmlns="http://www.w3.org/2000/svg"
xmlns:xlink="http://www.w3.org/1999/xlink"
xmlns:author="http://www.sothink.com"
width="27px" height="20px"
xml:space="preserve">
<g id="570" transform="matrix(1, 0, 0, 1, 3.35, 6.1)">
<path style="fill:#010101;fill-opacity:0" d="M23.4,13.4L-3.35 13.4L-3.35 -6.1L23.4 -6.1L23.4 13.4" />
<path style="fill:#56B1B1;fill-opacity:1" d="M18.65,1.9L18.75 3.1L18.5 4.6L18.2 5.2L15.85 5.65L13.7 5.6L12.1 5.25L11.5 4.3L11.25 3.3L11.25 2.4L12.15 2.1L13.15 1.85L14.15 1.65L15.55 1.6L17.6 1.65Q18.5 1.65 18.65 1.9M11.35,2.65Q11.25 4.15 12.25 5.25L12.3 5.25L18.05 5.05Q18.75 3.6 18.5 1.9Q14.55 1.35 11.35 2.6L11.35 2.65M6.7,1.85L7.7 2.1L8.55 2.4L8.6 3.3L8.3 4.3L7.75 5.25L6.15 5.6L4 5.65L1.6 5.2L1.35 4.6Q1.15 4 1.1 3.1Q1 2.1 1.15 1.9L2.25 1.65L4.25 1.6L5.7 1.65L6.7 1.85M8.5,2.6Q5.25 1.35 1.35 1.9Q1.05 3.6 1.8 5.05L7.55 5.25Q8.55 4.15 8.45 2.65L8.5 2.6" />
<path style="fill:#1E9D84;fill-opacity:1" d="M9.45,1.9L6.7 1.3L5.5 1.1Q2.65 0.75 0.15 1Q0.05 3.5 0.45 5.4L0.5 5.6L0.45 5.45Q-0.1 3.6 0.05 0.95Q4.7 0.45 9.45 1.7L10.4 1.7Q15.15 0.45 19.8 0.95Q19.95 3.6 19.4 5.45L19.35 5.6L19.4 5.4Q19.75 3.5 19.65 1Q17.15 0.75 14.3 1.1L13.1 1.3L10.35 1.9L9.9 1.85L9.45 1.9" />
<path style="fill:#23BA9B;fill-opacity:1" d="M11.75,6.05Q10.6 4.75 10.35 3.05Q10.7 4.6 11.8 6L19.3 5.65L11.75 6.05M8.1,6.05L0.5 5.65L8.05 6Q9.1 4.6 9.5 3.05Q9.2 4.75 8.1 6.05" />
<path style="fill:#B9DFDE;fill-opacity:1" d="M14.3,1.1Q17.15 0.75 19.65 1Q19.75 3.5 19.4 5.4Q19.7 3 19.45 1.15Q16.8 0.85 14.3 1.1M0.35,1.15Q0.1 3 0.45 5.4Q0.05 3.5 0.15 1Q2.65 0.75 5.5 1.1Q3 0.85 0.35 1.15" />
<linearGradient
id="LinearGradID_4560" gradientUnits="userSpaceOnUse" gradientTransform="matrix(-0.00413513, 0.00135803, 0.00135803, 0.00311279, 15.25, 3)" spreadMethod ="pad" x1="-819.2" y1="0" x2="819.2" y2="0" >
<stop  offset="0" style="stop-color:#73BFBF;stop-opacity:1" />
<stop  offset="1" style="stop-color:#74F1D5;stop-opacity:1" />
</linearGradient>
<path style="fill:url(#LinearGradID_4560) " d="M17.6,1.65L15.55 1.6L14.15 1.65L13.15 1.85L12.15 2.1L11.25 2.4L11.25 3.3L11.5 4.3L12.1 5.25L13.7 5.6L15.85 5.65L18.2 5.2L18.5 4.6L18.75 3.1L18.65 1.9Q18.5 1.65 17.6 1.65M19.45,1.15Q19.7 3 19.4 5.4L19.35 5.6L19.3 5.65L11.8 6Q10.7 4.6 10.35 3.05L9.9 3.05L9.9 1.85L10.35 1.9L13.1 1.3L14.3 1.1Q16.8 0.85 19.45 1.15" />
<linearGradient
id="LinearGradID_4561" gradientUnits="userSpaceOnUse" gradientTransform="matrix(0.00413513, 0.00135803, -0.00135803, 0.00311279, 4.55, 3)" spreadMethod ="pad" x1="-819.2" y1="0" x2="819.2" y2="0" >
<stop  offset="0" style="stop-color:#73BFBF;stop-opacity:1" />
<stop  offset="1" style="stop-color:#74F1D5;stop-opacity:1" />
</linearGradient>
<path style="fill:url(#LinearGradID_4561) " d="M5.5,1.1L6.7 1.3L9.45 1.9L9.9 1.85L9.9 3.05L9.5 3.05Q9.1 4.6 8.05 6L0.5 5.65L0.5 5.6L0.45 5.4Q0.1 3 0.35 1.15Q3 0.85 5.5 1.1M5.7,1.65L4.25 1.6L2.25 1.65L1.15 1.9Q1 2.1 1.1 3.1Q1.15 4 1.35 4.6L1.6 5.2L4 5.65L6.15 5.6L7.75 5.25L8.3 4.3L8.6 3.3L8.55 2.4L7.7 2.1L6.7 1.85L5.7 1.65" />
<linearGradient
id="LinearGradID_4562" gradientUnits="userSpaceOnUse" gradientTransform="matrix(-4.57764e-005, 0.000991821, -0.00265503, -0.000106812, 15, 3.3)" spreadMethod ="pad" x1="-819.2" y1="0" x2="819.2" y2="0" >
<stop  offset="0" style="stop-color:#FFFFFF;stop-opacity:0.521569" />
<stop  offset="1" style="stop-color:#FFFFFF;stop-opacity:0" />
<stop  offset="1" style="stop-color:#FFFFCC;stop-opacity:0" />
</linearGradient>
<path style="fill:url(#LinearGradID_4562) " d="M11.35,2.6Q14.55 1.35 18.5 1.9Q18.75 3.6 18.05 5.05L12.3 5.25L12.25 5.25Q11.25 4.15 11.35 2.65L11.35 2.6" />
<linearGradient
id="LinearGradID_4563" gradientUnits="userSpaceOnUse" gradientTransform="matrix(-7.62939e-005, 0.00238037, -0.00265503, -6.10352e-005, 5.2, 4)" spreadMethod ="pad" x1="-819.2" y1="0" x2="819.2" y2="0" >
<stop  offset="0" style="stop-color:#FFFFFF;stop-opacity:0.521569" />
<stop  offset="1" style="stop-color:#FFFFFF;stop-opacity:0" />
<stop  offset="1" style="stop-color:#FFFFCC;stop-opacity:0" />
</linearGradient>
<path style="fill:url(#LinearGradID_4563) " d="M8.45,2.65Q8.55 4.15 7.55 5.25L1.8 5.05Q1.05 3.6 1.35 1.9Q5.25 1.35 8.5 2.6L8.45 2.65" />
<linearGradient
id="LinearGradID_4564" gradientUnits="userSpaceOnUse" gradientTransform="matrix(6.10352e-005, -0.000823975, 0.00253296, 0.000183105, 4.75, 5.15)" spreadMethod ="pad" x1="-819.2" y1="0" x2="819.2" y2="0" >
<stop  offset="0" style="stop-color:#FFFFFF;stop-opacity:1" />
<stop  offset="1" style="stop-color:#FFFFCC;stop-opacity:0" />
</linearGradient>
<path style="fill:url(#LinearGradID_4564) " d="M1.35,1.85L1.55 3.2Q1.75 4.15 2.05 4.4Q2.65 4.9 3.35 5L4.65 5.25Q6.9 5.25 8.2 4.35L7.5 5.55L1.75 5.35Q1.05 3.65 1.35 1.7L1.35 1.85" />
<linearGradient
id="LinearGradID_4565" gradientUnits="userSpaceOnUse" gradientTransform="matrix(-0.000167847, -0.00152588, 0.00248718, -0.000259399, 16.6, 4.75)" spreadMethod ="pad" x1="-819.2" y1="0" x2="819.2" y2="0" >
<stop  offset="0" style="stop-color:#FFFFFF;stop-opacity:1" />
<stop  offset="1" style="stop-color:#FFFFCC;stop-opacity:0" />
</linearGradient>
<path style="fill:url(#LinearGradID_4565) " d="M12.25,5.55L11.6 4.35L12.35 4.8L13.5 5.15L14.55 5.2Q16.8 5.2 17.55 4.5Q18.3 3.8 18.45 1.75Q18.75 3.65 18.05 5.35L12.25 5.55" />
<linearGradient
id="LinearGradID_4566" gradientUnits="userSpaceOnUse" gradientTransform="matrix(0.000518799, 0.000701904, -0.0590363, 0.050705, -14.4, 21)" spreadMethod ="pad" x1="-819.2" y1="0" x2="819.2" y2="0" >
<stop  offset="0.00784314" style="stop-color:#FFFFFF;stop-opacity:0.4" />
<stop  offset="1" style="stop-color:#FFFFFF;stop-opacity:0" />
</linearGradient>
<path style="fill:url(#LinearGradID_4566) " d="M5.95,1.95L6.9 2.05L6.55 2.7L5.7 2.55L5.95 1.95M5.55,3.15L5.65 2.7L6.5 2.85L6.35 3.5L5.45 3.35L5.55 3.15M7.25,3.7L6.55 3.55L6.65 2.9L7.45 3.05L7.35 3.3L7.25 3.7M7.75,2.4L7.65 2.5L7.45 2.95L6.7 2.75Q6.75 2.25 6.95 2.2Q7.55 2.15 7.75 2.4" />
<linearGradient
id="LinearGradID_4567" gradientUnits="userSpaceOnUse" gradientTransform="matrix(0.000640869, 0.000595093, -0.0476685, 0.0614319, 0, 24.45)" spreadMethod ="pad" x1="-819.2" y1="0" x2="819.2" y2="0" >
<stop  offset="0.00784314" style="stop-color:#FFFFFF;stop-opacity:0.4" />
<stop  offset="1" style="stop-color:#FFFFFF;stop-opacity:0" />
</linearGradient>
<path style="fill:url(#LinearGradID_4567) " d="M16.15,1.7L17.1 1.65Q16.9 2 16.85 2.35L16 2.4L16.15 1.7M17.75,3.15L17 3.15Q16.95 2.85 17.05 2.5L17.8 2.5L17.75 2.8L17.75 3.15M15.95,3.2L15.95 2.95L15.95 2.5L16.85 2.55L16.85 3.15L15.95 3.2M17.95,1.75L17.9 1.9L17.8 2.4L17 2.4L17.1 1.75L17.95 1.75" />
</g>
</svg>
