<?xml version="1.0" encoding="utf-8"?>
<svg version="1.1" id="Layer_1"
xmlns="http://www.w3.org/2000/svg"
xmlns:xlink="http://www.w3.org/1999/xlink"
xmlns:author="http://www.sothink.com"
width="193px" height="53px"
xml:space="preserve">
<g id="582" transform="matrix(1, 0, 0, 1, 0, -0.05)">
<path style="fill:#006699;fill-opacity:0" d="M192.4,53.05L0 53.05L0 0.05L192.4 0.05L192.4 53.05" />
<radialGradient
id="RadialGradID_4677" gradientUnits="userSpaceOnUse" gradientTransform="matrix(-0.0168457, 0, 0, 0.0182953, 189.3, 15.85)" spreadMethod ="pad" cx="0" cy="0" r="819.2" fx="0" fy="0" >
<stop  offset="0.133333"  style="stop-color:#E1E1E1;stop-opacity:1" />
<stop  offset="0.666667"  style="stop-color:#8C8C8C;stop-opacity:1" />
</radialGradient>
<path style="fill:url(#RadialGradID_4677) " d="M180.85,27.65L189.4 26.75Q194 20.35 189.4 13.55L181.45 13.55L180.85 27.65" />
<path style="fill:none;stroke-width:1;stroke-linecap:round;stroke-linejoin:round;stroke-miterlimit:3;stroke:#FFFFFF;stroke-opacity:0.462745" d="M180.85,27.65L189.4 26.75Q194 20.35 189.4 13.55L181.45 13.55L180.85 27.65z" />
<path style="fill:none;stroke-width:1;stroke-linecap:round;stroke-linejoin:round;stroke-miterlimit:3;stroke:#FFFFFF;stroke-opacity:0.462745" d="M188.85,13.75L183.7 21.25" />
<path style="fill:#999999;fill-opacity:1" d="M187.65,26L187.95 26.95L189 26.95Q189 26.25 189.3 26L189.3 12.8L187.65 12.9L187.65 26" />
<radialGradient
id="RadialGradID_4678" gradientUnits="userSpaceOnUse" gradientTransform="matrix(-0.00900269, 0, 0, 0.0125122, 184.65, 23.2)" spreadMethod ="pad" cx="0" cy="0" r="819.2" fx="0" fy="0" >
<stop  offset="0.470588"  style="stop-color:#FFFFFF;stop-opacity:1" />
<stop  offset="0.807843"  style="stop-color:#DFDFDF;stop-opacity:1" />
</radialGradient>
<path style="fill:url(#RadialGradID_4678) " d="M179,16.65L179 28.7L187.65 28.7L187.65 16.65L179 16.65" />
<path style="fill:none;stroke-width:1;stroke-linecap:round;stroke-linejoin:round;stroke-miterlimit:3;stroke:#FFFFFF;stroke-opacity:0.462745" d="M179,16.65L179 28.7L187.65 28.7L187.65 16.65L179 16.65z" />
<radialGradient
id="RadialGradID_4679" gradientUnits="userSpaceOnUse" gradientTransform="matrix(0.0168457, 0, 0, 0.0182953, 6.65, 15.85)" spreadMethod ="pad" cx="0" cy="0" r="819.2" fx="0" fy="0" >
<stop  offset="0.133333"  style="stop-color:#E1E1E1;stop-opacity:1" />
<stop  offset="0.666667"  style="stop-color:#8C8C8C;stop-opacity:1" />
</radialGradient>
<path style="fill:url(#RadialGradID_4679) " d="M15.1,27.65L6.55 26.75Q1.95 20.35 6.55 13.55L14.5 13.55L15.1 27.65" />
<path style="fill:none;stroke-width:1;stroke-linecap:round;stroke-linejoin:round;stroke-miterlimit:3;stroke:#FFFFFF;stroke-opacity:0.462745" d="M15.1,27.65L6.55 26.75Q1.95 20.35 6.55 13.55L14.5 13.55L15.1 27.65z" />
<path style="fill:none;stroke-width:1;stroke-linecap:round;stroke-linejoin:round;stroke-miterlimit:3;stroke:#FFFFFF;stroke-opacity:0.462745" d="M7.1,13.75L12.25 21.25" />
<path style="fill:#999999;fill-opacity:1" d="M8.3,26L8 26.95L6.95 26.95Q6.95 26.25 6.65 26L6.65 12.8L8.3 12.9L8.3 26" />
<radialGradient
id="RadialGradID_4680" gradientUnits="userSpaceOnUse" gradientTransform="matrix(0.00900269, 0, 0, 0.0125122, 11.5, 23.2)" spreadMethod ="pad" cx="0" cy="0" r="819.2" fx="0" fy="0" >
<stop  offset="0.470588"  style="stop-color:#FFFFFF;stop-opacity:1" />
<stop  offset="0.807843"  style="stop-color:#DFDFDF;stop-opacity:1" />
</radialGradient>
<path style="fill:url(#RadialGradID_4680) " d="M17.15,16.65L17.15 28.7L8.5 28.7L8.5 16.65L17.15 16.65" />
<path style="fill:none;stroke-width:1;stroke-linecap:round;stroke-linejoin:round;stroke-miterlimit:3;stroke:#FFFFFF;stroke-opacity:0.462745" d="M17.15,16.65L17.15 28.7L8.5 28.7L8.5 16.65L17.15 16.65z" />
<path style="fill:#666666;fill-opacity:0.560784" d="M111.2,34.5Q98.5 18.2 83.65 34.5L83.65 22.25Q98.4 17.3 111.2 22.25L111.2 34.5" />
<path style="fill:none;stroke-width:1;stroke-linecap:round;stroke-linejoin:round;stroke-miterlimit:3;stroke:#FFFFFF;stroke-opacity:0.462745" d="M111.2,34.5Q98.5 18.2 83.65 34.5L83.65 22.25Q98.4 17.3 111.2 22.25L111.2 34.5z" />
<path style="fill:#666666;fill-opacity:0.560784" d="M18.65,11.2Q31.1 5.25 54.35 9.3Q62.9 10.75 70.65 13.2Q77.55 15.4 79.9 17Q88.25 22.7 85.8 27.4Q86.15 33.25 81.5 39.05Q76.85 44.85 73.9 46.75Q70.9 48.7 69.4 48.95L67.25 49.2Q62.35 49.2 59.2 49.35L18.55 48.75Q15.05 32.5 15.05 24.5Q15.1 15.7 18.65 11.2M65.55,15.85Q42.05 11.35 22.65 16Q16.95 25.3 21.65 45.95Q61.4 46.35 66.2 45.95Q72.85 45.4 78.2 37.05Q85.35 25.6 77.9 21.45Q70.4 17.3 65.55 15.85" />
<path style="fill:none;stroke-width:1;stroke-linecap:round;stroke-linejoin:round;stroke-miterlimit:3;stroke:#FFFFFF;stroke-opacity:0.462745" d="M15.05,24.5Q15.05 32.5 18.55 48.75L59.2 49.35Q62.35 49.2 67.25 49.2L69.4 48.95Q70.9 48.7 73.9 46.75Q76.85 44.85 81.5 39.05Q86.15 33.25 85.8 27.4Q88.25 22.7 79.9 17Q77.55 15.4 70.65 13.2Q62.9 10.75 54.35 9.3Q31.1 5.25 18.65 11.2Q15.1 15.7 15.05 24.5M77.9,21.45Q85.35 25.6 78.2 37.05Q72.85 45.4 66.2 45.95Q61.4 46.35 21.65 45.95Q16.95 25.3 22.65 16Q42.05 11.35 65.55 15.85Q70.4 17.3 77.9 21.45" />
<radialGradient
id="RadialGradID_4681" gradientUnits="userSpaceOnUse" gradientTransform="matrix(0.0466309, 0, 0, 0.0506439, 49.85, 27.75)" spreadMethod ="pad" cx="0" cy="0" r="819.2" fx="0" fy="0" >
<stop  offset="0.67451"  style="stop-color:#FFFFFF;stop-opacity:1" />
<stop  offset="1"  style="stop-color:#DDDDDD;stop-opacity:1" />
</radialGradient>
<path style="fill:url(#RadialGradID_4681) " d="M64.7,12.95Q41.2 8.45 21.8 13.1Q15.95 22.6 20.8 43.95Q60.55 44.4 65.35 43.95Q71.45 43.4 77.35 34.1Q84.5 22.65 77.05 18.5Q69.55 14.35 64.7 12.95M69.8,10.75Q78 13.35 79.05 14.05Q87.4 19.75 84.95 24.45Q85.3 30.3 80.5 38.15Q78.45 41.5 75.9 43.25L71.7 45.45Q69.7 46.5 58.35 47.15L17.7 46.55Q12.8 23.9 18.8 10.9Q33.2 6.15 53.5 7.5Q61.1 7.95 69.8 10.75" />
<radialGradient
id="RadialGradID_4682" gradientUnits="userSpaceOnUse" gradientTransform="matrix(0.0494995, 0, 0, 0.0537567, 47.75, 45.5)" spreadMethod ="pad" cx="0" cy="0" r="819.2" fx="0" fy="0" >
<stop  offset="0"  style="stop-color:#FFFFFF;stop-opacity:0.470588" />
<stop  offset="1"  style="stop-color:#FFFFFF;stop-opacity:0" />
</radialGradient>
<path style="fill:url(#RadialGradID_4682) " d="M77.05,18.5Q84.5 22.65 77.35 34.1Q71.45 43.4 65.35 43.95Q60.55 44.4 20.8 43.95Q15.95 22.6 21.8 13.1Q41.2 8.45 64.7 12.95Q69.55 14.35 77.05 18.5" />
<path style="fill:none;stroke-width:1;stroke-linecap:round;stroke-linejoin:round;stroke-miterlimit:3;stroke:#FFFFFF;stroke-opacity:0.462745" d="M77.05,18.5Q84.5 22.65 77.35 34.1Q71.45 43.4 65.35 43.95Q60.55 44.4 20.8 43.95Q15.95 22.6 21.8 13.1Q41.2 8.45 64.7 12.95Q69.55 14.35 77.05 18.5M53.5,7.5Q33.2 6.15 18.8 10.9Q12.8 23.9 17.7 46.55L58.35 47.15Q69.7 46.5 71.7 45.45L75.9 43.25Q78.45 41.5 80.5 38.15Q85.3 30.3 84.95 24.45Q87.4 19.75 79.05 14.05Q78 13.35 69.8 10.75Q61.1 7.95 53.5 7.5" />
<radialGradient
id="RadialGradID_4683" gradientUnits="userSpaceOnUse" gradientTransform="matrix(0.0372314, 0, 0, 0.0404358, 52.2, 18.25)" spreadMethod ="pad" cx="0" cy="0" r="819.2" fx="0" fy="0" >
<stop  offset="0"  style="stop-color:#777777;stop-opacity:0.470588" />
<stop  offset="1"  style="stop-color:#848484;stop-opacity:0" />
</radialGradient>
<path style="fill:url(#RadialGradID_4683) " d="M73,14.5Q81.5 18.3 81.5 23.65L81.4 26.3Q80.9 22.3 79.95 21.15Q79 19.95 73.8 16.4Q71.4 14.85 67.5 13.7Q60 11.5 47.45 11.5L31.95 11.95L24.7 12.95L23.1 13.35Q22.85 13.3 22.85 12.7Q22.85 10.15 46.4 10.15Q63.25 10.15 73 14.5" />
<path style="fill:#666666;fill-opacity:0.560784" d="M124.45,13.2Q132.2 10.75 140.75 9.3Q164 5.25 176.45 11.2Q182.85 19.35 176.55 48.75L135.9 49.35Q126.45 48.8 122.55 46.75L117.85 43.95Q114.8 41.35 112.45 37.05Q110.05 32.75 109.3 27.4Q106.85 22.7 115.2 17Q117.55 15.4 124.45 13.2M117.25,21.45Q109.75 25.6 116.95 37.05Q122.8 46.3 128.9 46.85Q133.7 47.25 173.45 46.85Q178.3 25.5 172.45 16Q153.05 11.35 129.55 15.85Q124.7 17.3 117.25 21.45" />
<path style="fill:none;stroke-width:1;stroke-linecap:round;stroke-linejoin:round;stroke-miterlimit:3;stroke:#FFFFFF;stroke-opacity:0.462745" d="M124.45,13.2Q132.2 10.75 140.75 9.3Q164 5.25 176.45 11.2Q182.85 19.35 176.55 48.75L135.9 49.35Q126.45 48.8 122.55 46.75L117.85 43.95Q114.8 41.35 112.45 37.05Q110.05 32.75 109.3 27.4Q106.85 22.7 115.2 17Q117.55 15.4 124.45 13.2M117.25,21.45Q109.75 25.6 116.95 37.05Q122.8 46.3 128.9 46.85Q133.7 47.25 173.45 46.85Q178.3 25.5 172.45 16Q153.05 11.35 129.55 15.85Q124.7 17.3 117.25 21.45" />
<radialGradient
id="RadialGradID_4684" gradientUnits="userSpaceOnUse" gradientTransform="matrix(-0.0466309, 0, 0, 0.0506439, 145.25, 27.75)" spreadMethod ="pad" cx="0" cy="0" r="819.2" fx="0" fy="0" >
<stop  offset="0.67451"  style="stop-color:#FFFFFF;stop-opacity:1" />
<stop  offset="1"  style="stop-color:#DDDDDD;stop-opacity:1" />
</radialGradient>
<path style="fill:url(#RadialGradID_4684) " d="M125.3,10.25Q134 7.5 141.6 7Q161.9 5.7 176.3 10.45Q182.2 23.2 177.7 45.6L177.4 47L136.75 47.6Q129.05 47.25 124.7 45.6L119.45 42.45Q115.7 40.05 112.75 35.2Q109.8 30.3 110.15 24.45Q107.7 19.75 116.05 14.05Q118.4 12.5 125.3 10.25M118.1,18.5Q110.6 22.65 117.8 34.1Q123.65 43.4 129.75 43.95Q134.55 44.4 174.3 43.95Q179.15 22.6 173.3 13.1Q153.9 8.45 130.4 12.95Q125.55 14.35 118.1 18.5" />
<radialGradient
id="RadialGradID_4685" gradientUnits="userSpaceOnUse" gradientTransform="matrix(-0.0494995, 0, 0, 0.0537567, 147.35, 45.5)" spreadMethod ="pad" cx="0" cy="0" r="819.2" fx="0" fy="0" >
<stop  offset="0"  style="stop-color:#FFFFFF;stop-opacity:0.470588" />
<stop  offset="1"  style="stop-color:#FFFFFF;stop-opacity:0" />
</radialGradient>
<path style="fill:url(#RadialGradID_4685) " d="M130.4,12.95Q153.9 8.45 173.3 13.1Q179.15 22.6 174.3 43.95Q134.55 44.4 129.75 43.95Q123.65 43.4 117.8 34.1Q110.6 22.65 118.1 18.5Q125.55 14.35 130.4 12.95" />
<path style="fill:none;stroke-width:1;stroke-linecap:round;stroke-linejoin:round;stroke-miterlimit:3;stroke:#FFFFFF;stroke-opacity:0.462745" d="M125.3,10.25Q134 7.5 141.6 7Q161.9 5.7 176.3 10.45Q182.2 23.2 177.7 45.6L177.4 47L136.75 47.6Q129.05 47.25 124.7 45.6L119.45 42.45Q115.7 40.05 112.75 35.2Q109.8 30.3 110.15 24.45Q107.7 19.75 116.05 14.05Q118.4 12.5 125.3 10.25M118.1,18.5Q110.6 22.65 117.8 34.1Q123.65 43.4 129.75 43.95Q134.55 44.4 174.3 43.95Q179.15 22.6 173.3 13.1Q153.9 8.45 130.4 12.95Q125.55 14.35 118.1 18.5" />
<radialGradient
id="RadialGradID_4686" gradientUnits="userSpaceOnUse" gradientTransform="matrix(-0.0372314, 0, 0, 0.0404358, 142.9, 18.25)" spreadMethod ="pad" cx="0" cy="0" r="819.2" fx="0" fy="0" >
<stop  offset="0"  style="stop-color:#777777;stop-opacity:0.470588" />
<stop  offset="1"  style="stop-color:#848484;stop-opacity:0" />
</radialGradient>
<path style="fill:url(#RadialGradID_4686) " d="M122.1,14.5Q113.6 18.3 113.6 23.65L113.7 26.3Q114.2 22.3 115.15 21.15Q116.1 19.95 121.3 16.4Q123.7 14.85 127.6 13.7Q135.1 11.5 147.65 11.5L163.15 11.95L170.4 12.95L172 13.35L172.25 12.7Q172.25 10.15 148.7 10.15Q131.85 10.15 122.1 14.5" />
<radialGradient
id="RadialGradID_4687" gradientUnits="userSpaceOnUse" gradientTransform="matrix(0.0206909, 0, 0, 0.0249176, 98.25, 20.7)" spreadMethod ="pad" cx="0" cy="0" r="819.2" fx="0" fy="0" >
<stop  offset="0.580392"  style="stop-color:#FFFFFF;stop-opacity:1" />
<stop  offset="0.760784"  style="stop-color:#DFDFDF;stop-opacity:1" />
</radialGradient>
<path style="fill:url(#RadialGradID_4687) " d="M111.2,18.75L111.2 31Q98.5 14.7 83.65 31L83.65 18.75Q98.4 13.8 111.2 18.75" />
<path style="fill:none;stroke-width:1;stroke-linecap:round;stroke-linejoin:round;stroke-miterlimit:3;stroke:#FFFFFF;stroke-opacity:0.462745" d="M111.2,18.75L111.2 31Q98.5 14.7 83.65 31L83.65 18.75Q98.4 13.8 111.2 18.75z" />
<radialGradient
id="RadialGradID_4688" gradientUnits="userSpaceOnUse" gradientTransform="matrix(0.026062, 0, 0, 0.0283051, 25.4, 28.5)" spreadMethod ="pad" cx="0" cy="0" r="819.2" fx="0" fy="0" >
<stop  offset="0"  style="stop-color:#FFFFFF;stop-opacity:1" />
<stop  offset="1"  style="stop-color:#FFFFFF;stop-opacity:0" />
</radialGradient>
<path style="fill:url(#RadialGradID_4688) " d="M17.65,19.65Q17 23.75 17 25Q17 27.65 18.75 38.15L20.6 48.95L20.6 49.2Q18.95 48.2 17.65 38.65Q16.55 30.6 16.55 25.05Q16.55 14.05 19.5 11.4Q21.9 9.25 33.8 7.75Q34.25 7.9 34.25 8.55Q34.25 9.9 27.95 10.75Q20.85 11.65 18.65 14.9Q18.35 15.35 17.65 19.65" />
<radialGradient
id="RadialGradID_4689" gradientUnits="userSpaceOnUse" gradientTransform="matrix(0.0253296, 0, 0, 0.0275116, 45.25, 45.8)" spreadMethod ="pad" cx="0" cy="0" r="819.2" fx="0" fy="0" >
<stop  offset="0"  style="stop-color:#FFFFFF;stop-opacity:1" />
<stop  offset="1"  style="stop-color:#FFFFFF;stop-opacity:0" />
</radialGradient>
<path style="fill:url(#RadialGradID_4689) " d="M63.75,45.05L65.75 45.75Q67.2 46.8 59.15 47.05L24.55 47.05L24.55 44.7L59.15 44.55L63.75 45.05" />
<radialGradient
id="RadialGradID_4690" gradientUnits="userSpaceOnUse" gradientTransform="matrix(0.027298, 0, 0, 0.0299377, 167.25, 29.05)" spreadMethod ="pad" cx="0" cy="0" r="819.2" fx="0" fy="0" >
<stop  offset="0"  style="stop-color:#FFFFFF;stop-opacity:1" />
<stop  offset="1"  style="stop-color:#FFFFFF;stop-opacity:0" />
</radialGradient>
<path style="fill:url(#RadialGradID_4690) " d="M155.65,8.15L159.3 7.75Q174.3 7.7 177.8 13.8Q178.95 15.8 178.95 18.55L178.6 21.95Q178.6 28.75 177.35 36.9Q175.55 48.65 172.1 50.4L171.85 50.3Q175.95 38.5 176.4 36.05L177.75 28.25Q178.05 26.3 178.05 21.85Q178.05 16.35 175.8 14.15Q171.05 9.55 155.65 9.4L155.65 8.15" />
</g>
</svg>
