<?xml version="1.0" encoding="utf-8"?>
<svg version="1.1" id="Layer_1"
xmlns="http://www.w3.org/2000/svg"
xmlns:xlink="http://www.w3.org/1999/xlink"
xmlns:author="http://www.sothink.com"
width="22px" height="5px"
xml:space="preserve">
<g id="588" transform="matrix(1, 0, 0, 1, 10.8, 2.4)">
<radialGradient
id="RadialGradID_4714" gradientUnits="userSpaceOnUse" gradientTransform="matrix(0.00550842, -4.57764e-005, 4.57764e-005, 0.00550842, 5.35, -0.9)" spreadMethod ="pad" cx="0" cy="0" r="819.2" fx="0" fy="0" >
<stop  offset="0.00784314"  style="stop-color:#FFFFFF;stop-opacity:0.101961" />
<stop  offset="1"  style="stop-color:#F4220B;stop-opacity:0.133333" />
</radialGradient>
<path style="fill:url(#RadialGradID_4714) " d="M4.9,-1.95L8.35 -1.95Q9.55 -1.6 9.4 -0.65L9.35 0.4L9.05 1.05L8.3 1.7L8.2 1.75L8.15 1.75L8 1.8L7.15 1.9L3.45 1.95L2.4 1.5L2 0.2Q1.65 -0.45 1.1 -0.75L1.25 0Q1.35 0.5 1.7 1Q1.35 0.65 1.15 0.1L1.1 -0.05L1.05 -0.3Q0.85 -1.2 1.2 -1.25Q2.65 -1.85 4.9 -1.95M8.5,-1.7L7.45 1.2L7.1 1.8L7.6 1.55L7.75 1.25L8.8 -1.4L8.5 -1.7M8,1.5L8.45 1.25Q9 0.25 9 -1.25L8.05 1.4L8 1.5M-9.5,0L-9.55 -0.9Q-9.45 -1.5 -8.65 -1.75L-8.55 -1.8L-5.05 -1.85L-2.4 -1.55L-3.5 1.35L-3.85 1.95L-4.05 2.05L-7.95 2.1L-8.1 2.1L-8.5 1.95L-9 1.6L-9.45 0.55L-9.5 0.3L-9.5 0.1L-9.5 0" />
<linearGradient
id="LinearGradID_4715" gradientUnits="userSpaceOnUse" gradientTransform="matrix(0.000961304, 0, 0, 0.000518799, -0.4, -1.1)" spreadMethod ="pad" x1="-819.2" y1="0" x2="819.2" y2="0" >
<stop  offset="0" style="stop-color:#FFFFFF;stop-opacity:1" />
<stop  offset="1" style="stop-color:#BA0101;stop-opacity:1" />
</linearGradient>
<path style="fill:url(#LinearGradID_4715) " d="M0.45,-0.6L0 -0.7L-0.6 -0.6L-0.75 -1.3L-0.7 -1.45L-0.05 -1.3L0.6 -1.45L0.6 -1.35L0.6 -1.3L0.45 -0.6" />
<path style="fill:#870101;fill-opacity:1" d="M1.7,-1.7L0.8 -1.3L1.05 -0.25L0.75 -1L0.55 -0.65L0.6 -1.3L0.6 -1.35L1.7 -1.7M-0.75,-1.45L-0.7 -1.45L-0.75 -1.3L-0.6 -0.6L-0.85 -0.9L-0.75 -1.45" />
<linearGradient
id="LinearGradID_4716" gradientUnits="userSpaceOnUse" gradientTransform="matrix(9.15527e-005, 0.00198364, -0.0130768, 0.000579834, 0.05, 0.2)" spreadMethod ="pad" x1="-819.2" y1="0" x2="819.2" y2="0" >
<stop  offset="0" style="stop-color:#BA0101;stop-opacity:1" />
<stop  offset="0.517647" style="stop-color:#E6A3A3;stop-opacity:1" />
<stop  offset="1" style="stop-color:#BA0101;stop-opacity:1" />
</linearGradient>
<path style="fill:url(#LinearGradID_4716) " d="M1.75,1.05L2.4 1.5L3.45 1.95L7.15 1.9L8 1.8L8.15 1.75L8.2 1.75L8.3 1.7L9.05 1.05L9.35 0.4L9.4 -0.65Q9.55 -1.6 8.35 -1.95L4.9 -1.95Q2.65 -1.85 1.2 -1.25Q0.85 -1.2 1.05 -0.3L1.1 -0.05L1.15 0.1Q1.35 0.65 1.7 1L1.75 1.05M7.35,2.15L5.55 2.3L3.15 2.15Q2.25 1.9 1.8 1.5L1.6 1.25L0.45 -0.6L0.6 -1.3L0.55 -0.65L0.75 -1L1.05 -0.25L0.8 -1.3L1.7 -1.7L0.6 -1.35L0.6 -1.45Q3.15 -2.2 6.65 -2.3L7 -2.35L9.1 -2.3L10.65 -2.3L10.65 -1.6L10.1 -1.2L9.95 -0.75L10.05 -1.3L10.35 -1.75L10.45 -1.85L10.45 -1.9L10.5 -2L10.5 -2.15L8.9 -2.3L6.95 -2.15L8.6 -2L9.05 -1.9L9.4 -1.65L9.6 -0.55L9.6 -0.45L9.55 -0.2Q9.4 0.75 8.7 1.75L7.35 2.15M-10.4,-1.6L-10.05 -1.5Q-10.1 -0.95 -9.6 0.3Q-9.9 -0.9 -9.5 -1.6L-8 -2L-10.6 -1.85L-10.4 -1.6M-9,1.8Q-9.65 0.9 -10.2 -1L-10.75 -1.4L-10.8 -2.1L-10.7 -2.1L-6.8 -2.2L-0.75 -1.45L-0.85 -0.9L-0.6 -0.6Q-0.85 0.4 -1.65 1.25L-3.2 2.2L-5.55 2.4L-7.45 2.3L-8.05 2.1L-8.1 2.1L-7.95 2.1L-4.05 2.05L-3.95 2.05L-3.55 2L-2.4 1.55Q-1.65 1.05 -1.4 0.3L-1.2 -0.75Q-1.2 -1.15 -1.35 -1.2L-2.4 -1.55L-5.05 -1.85L-8.55 -1.8L-8.65 -1.75Q-9.45 -1.5 -9.55 -0.9L-9.5 0Q-9.75 -1.2 -9.2 -1.5L-9.6 -1.15L-9.55 -0.1L-9.5 0.1L-9.5 0.3L-9.45 0.55L-9 1.6L-8.5 1.95L-9 1.8" />
<path style="fill:#DB7A7A;fill-opacity:1" d="M9.1,-2.3L7 -2.35L6.65 -2.3Q3.15 -2.2 0.6 -1.45Q3.15 -2.3 6.85 -2.4L9.1 -2.3" />
<linearGradient
id="LinearGradID_4717" gradientUnits="userSpaceOnUse" gradientTransform="matrix(-0.00105286, -0.00012207, 0.000289917, -0.00248718, 9.2, -0.25)" spreadMethod ="pad" x1="-819.2" y1="0" x2="819.2" y2="0" >
<stop  offset="0" style="stop-color:#E6A3A3;stop-opacity:1" />
<stop  offset="1" style="stop-color:#BA0101;stop-opacity:1" />
</linearGradient>
<path style="fill:url(#LinearGradID_4717) " d="M10.45,-2.05L10.05 -2L9.45 0.65L9.15 1.35L9 1.5L9 1.55L8.8 1.75L8.7 1.75Q9.4 0.75 9.55 -0.2L9.6 -0.45L9.6 -0.55L9.4 -1.65L9.05 -1.9L8.6 -2L6.95 -2.15L8.9 -2.3L10.5 -2.15L10.45 -2.05" />
<linearGradient
id="LinearGradID_4718" gradientUnits="userSpaceOnUse" gradientTransform="matrix(-0.00592041, -0.000854492, 0.000320435, -0.00221252, 4.7, -0.05)" spreadMethod ="pad" x1="-819.2" y1="0" x2="819.2" y2="0" >
<stop  offset="0" style="stop-color:#BA0101;stop-opacity:1" />
<stop  offset="0.517647" style="stop-color:#E59F9F;stop-opacity:1" />
<stop  offset="1" style="stop-color:#BA0101;stop-opacity:1" />
</linearGradient>
<path style="fill:url(#LinearGradID_4718) " d="M8.7,1.75L8.8 1.75L9 1.55L9 1.5L9.15 1.35L9.5 0.7L9.9 -0.65L9.95 -0.75L10.1 -1.2Q9.8 0.55 8.9 1.8L8.75 1.9L7.35 2.15L8.7 1.75" />
<path style="fill:#F0CACA;fill-opacity:1" d="M9.9,-0.65L9.5 0.7L9.15 1.35L9.45 0.65L10.05 -2L10.45 -2.05L10.5 -2.15L10.5 -2L10.45 -1.9L10.45 -1.85L10.35 -1.75L10.05 -1.3L9.95 -0.75L9.9 -0.65M-10.7,-2.1L-7.05 -2.3Q-3.25 -2.25 -0.75 -1.45L-6.8 -2.2L-10.7 -2.1" />
<path style="fill:#FFFFFF;fill-opacity:0.513725" d="M8.8,-1.4L7.75 1.25L7.6 1.55L7.1 1.8L7.45 1.2L8.5 -1.7L8.8 -1.4M8.05,1.4L9 -1.25Q9 0.25 8.45 1.25L8 1.5L8.05 1.4M-2.4,-1.55L-2.05 -1.25L-3.15 1.4L-3.35 1.7L-3.85 1.95L-3.5 1.35L-2.4 -1.55M-2.95,1.65L-2.9 1.55Q-2.25 0.35 -1.9 -1.1L-2 0.1L-2.1 0.4L-2.35 1.15L-2.35 1.2L-2.45 1.4L-2.95 1.65" />
<radialGradient
id="RadialGradID_4719" gradientUnits="userSpaceOnUse" gradientTransform="matrix(0.00682068, -6.10352e-005, 6.10352e-005, 0.00682068, -5.95, -0.1)" spreadMethod ="pad" cx="0" cy="0" r="819.2" fx="0" fy="0" >
<stop  offset="0.00784314"  style="stop-color:#FFFFFF;stop-opacity:0.101961" />
<stop  offset="1"  style="stop-color:#FB1D04;stop-opacity:0.152941" />
</radialGradient>
<path style="fill:url(#RadialGradID_4719) " d="M1.7,1Q1.35 0.5 1.25 0L1.1 -0.75Q1.65 -0.45 2 0.2L2.4 1.5L1.75 1.05L1.7 1" />
<linearGradient
id="LinearGradID_4720" gradientUnits="userSpaceOnUse" gradientTransform="matrix(-0.000595093, -0.000198364, 0.000534058, -0.00157166, -10.2, -1.3)" spreadMethod ="pad" x1="-819.2" y1="0" x2="819.2" y2="0" >
<stop  offset="0" style="stop-color:#BA0101;stop-opacity:1" />
<stop  offset="1" style="stop-color:#E6A2A2;stop-opacity:1" />
</linearGradient>
<path style="fill:url(#LinearGradID_4720) " d="M-10.6,-1.85L-8 -2L-9.5 -1.6Q-9.9 -0.9 -9.6 0.3Q-10.1 -0.95 -10.05 -1.5L-10.4 -1.6L-10.6 -1.85" />
<path style="fill:#DCE0ED;fill-opacity:1" d="M-9.5,0.1L-9.55 -0.1L-9.6 -1.15L-9.2 -1.5Q-9.75 -1.2 -9.5 0L-9.5 0.1" />
<radialGradient
id="RadialGradID_4721" gradientUnits="userSpaceOnUse" gradientTransform="matrix(0.00682068, -6.10352e-005, 6.10352e-005, 0.00682068, -5.95, -0.1)" spreadMethod ="pad" cx="0" cy="0" r="819.2" fx="0" fy="0" >
<stop  offset="0.00784314"  style="stop-color:#FFFFFF;stop-opacity:0.101961" />
<stop  offset="1"  style="stop-color:#FB1D04;stop-opacity:0.290196" />
</radialGradient>
<path style="fill:url(#RadialGradID_4721) " d="M-3.85,1.95L-3.35 1.7L-3.15 1.4L-2.05 -1.25L-2.4 -1.55L-1.35 -1.2Q-1.2 -1.15 -1.2 -0.75L-1.4 0.3Q-1.65 1.05 -2.4 1.55L-3.55 2L-3.95 2.05L-4.05 2.05L-3.85 1.95M-2.45,1.4L-2.35 1.2L-2.35 1.35Q-2.1 0.25 -1.3 -0.6L-2.1 0.4L-2 0.1L-1.9 -1.1Q-2.25 0.35 -2.9 1.55L-2.95 1.65L-2.45 1.4" />
<path style="fill:#BA3434;fill-opacity:1" d="M-3.2,2.2L-1.65 1.25L-1.85 1.5Q-2.35 1.95 -3.2 2.2" />
<path style="fill:#FFFFFF;fill-opacity:1" d="M-2.35,1.2L-2.35 1.15L-2.1 0.4L-1.3 -0.6Q-2.1 0.25 -2.35 1.35L-2.35 1.2" />
<linearGradient
id="LinearGradID_4722" gradientUnits="userSpaceOnUse" gradientTransform="matrix(0.0115967, -0.00268555, 0.000518799, 0.00227356, 0.25, -1.45)" spreadMethod ="pad" x1="-819.2" y1="0" x2="819.2" y2="0" >
<stop  offset="0" style="stop-color:#BA0101;stop-opacity:1" />
<stop  offset="0.517647" style="stop-color:#E19191;stop-opacity:1" />
<stop  offset="1" style="stop-color:#BA0101;stop-opacity:1" />
</linearGradient>
<path style="fill:url(#LinearGradID_4722) " d="M-10.2,-1Q-9.65 0.9 -9 1.8L-8.5 1.95L-8.1 2.1L-8.05 2.1L-7.45 2.3L-8.85 2.05L-9 1.95Q-9.95 0.75 -10.2 -1" />
<path style="fill:none;stroke-width:0.05;stroke-linecap:round;stroke-linejoin:round;stroke-miterlimit:3;stroke:#CA0202;stroke-opacity:1" d="M1.25,0L1.1 -0.75L1.1 -0.95L1.2 -1.25M1.1,-0.75Q1.65 -0.45 2 0.2L2.4 1.5L3.45 1.95L7.15 1.9L8 1.8L8.15 1.75L8.2 1.75L8.3 1.7L9.05 1.05L9.35 0.4L9.4 -0.65Q9.55 -1.6 8.35 -1.95L4.9 -1.95Q2.65 -1.85 1.2 -1.25M0.6,-1.45L-0.05 -1.3L-0.7 -1.45M-7.45,2.3L-5.55 2.4L-3.2 2.2L-1.65 1.25Q-0.85 0.4 -0.6 -0.6L0 -0.7L0.45 -0.6M0.6,-1.45Q3.15 -2.3 6.85 -2.4L9.1 -2.3L10.65 -2.3L10.65 -1.6L10.1 -1.2Q9.8 0.55 8.9 1.8L8.75 1.9L7.35 2.15L5.55 2.3L3.15 2.15Q2.25 1.9 1.8 1.5L1.6 1.25L0.45 -0.6M2.4,1.5L1.75 1.05L1.7 1M-7.45,2.3L-8.85 2.05L-9 1.95Q-9.95 0.75 -10.2 -1L-10.75 -1.4L-10.8 -2.1L-10.7 -2.1L-7.05 -2.3Q-3.25 -2.25 -0.75 -1.45M-9.5,0L-9.55 -0.9Q-9.45 -1.5 -8.65 -1.75L-8.55 -1.8L-5.05 -1.85L-2.4 -1.55M-1.2,-0.75L-1.4 0.3Q-1.65 1.05 -2.4 1.55M-1.2,-0.75L-2 0.1L-2.35 0.8L-2.45 1.4L-2.4 1.55M-1.65,1.25L-1.85 1.5Q-2.35 1.95 -3.2 2.2M-9.45,0.55L-9 1.6L-8.5 1.95L-8.1 2.1" />
<path style="fill:none;stroke-width:0.05;stroke-linecap:round;stroke-linejoin:round;stroke-miterlimit:3;stroke:#8F0101;stroke-opacity:1" d="M-2.4,-1.55L-1.35 -1.2Q-1.2 -1.15 -1.2 -0.75M-2.4,1.55L-3.55 2L-3.95 2.05L-4.05 2.05L-7.95 2.1L-8.05 2.1M-9.5,0.1L-9.5 0.3L-9.45 0.55M-9.5,0.1L-9.5 0" />
</g>
</svg>
