<?xml version="1.0" encoding="utf-8"?>
<svg version="1.1" id="Layer_1"
xmlns="http://www.w3.org/2000/svg"
xmlns:xlink="http://www.w3.org/1999/xlink"
xmlns:author="http://www.sothink.com"
width="23px" height="6px"
xml:space="preserve">
<g id="606" transform="matrix(1, 0, 0, 1, 0.9, 0.6)">
<path style="fill:#8B847F;fill-opacity:0" d="M21.7,-0.6L21.7 5.1L-0.9 5.1L-0.9 -0.6L21.7 -0.6" />
<path style="fill:#000000;fill-opacity:1" d="M10.35,0.95L10.65 1Q11.7 1.05 11.9 1.5L11.95 1.65L11.95 1.7L11.65 1.95Q11.15 1.5 10.35 1.5Q9.1 1.6 8.95 1.9L8.7 1.6L8.8 1.35Q9.05 0.95 10.15 0.95L10.2 0.95L10.35 0.95M8.95,1.3L8.95 1.55L9.85 1.3L11.3 1.35L11.35 1.3L10.2 0.95L8.95 1.3" />
<path style="fill:#3C3C3C;fill-opacity:1" d="M10.2,0.95L11.35 1.3L11.3 1.35L9.85 1.3L8.95 1.55L8.95 1.3L10.2 0.95" />
</g>
</svg>
