<?xml version="1.0" encoding="utf-8"?>
<svg version="1.1" id="Layer_1"
xmlns="http://www.w3.org/2000/svg"
xmlns:xlink="http://www.w3.org/1999/xlink"
xmlns:author="http://www.sothink.com"
width="22px" height="8px"
xml:space="preserve">
<g id="598" transform="matrix(1, 0, 0, 1, 9, 0)">
<path style="fill:#24292C;fill-opacity:1" d="M11.75,1.9L11.55 1.9L11.6 2.65L11.75 2.65L11.75 2.4L12.4 2.4L12.15 2.75L11.75 2.95L11.6 3.25L11.45 3.55L11.5 2.15L11.45 1.9L11.35 1.7L12.05 1.95Q12.4 2 12.45 2.2L12.2 2.2L11.75 2.2L11.75 1.9" />
<path style="fill:#222423;fill-opacity:1" d="M2.5,1.45L2.6 1.3L3.05 0.85Q3.35 0.6 4.8 0.4L7.85 0.2L6.1 0.15L5.25 0.2L4.85 0.25L2.75 0.5L8.4 0.05L8.45 0.05Q10.35 0.25 11.15 1.4L11.3 1.55L11.35 1.7L11.45 1.9L11.15 1.55L11.05 1.6L11.05 1.65L11.2 1.9L11.3 2.2L11.2 3.4L11.2 3.55L11.25 3.55L11.4 2.75L11.5 2.15L11.45 3.55L10.95 5Q10.1 6.45 8.85 6.9L8.75 7L7.3 7.2Q6.1 7.3 4.85 6.6Q3.55 5.9 2.85 4.75L2.65 4.4L2.5 4.2L2.05 3.25Q2.8 4.7 3.45 5.3L2.45 3.75L2.2 3.2L2.1 2.75L2.1 2.45L2.15 2.45L2.45 2.15L2.55 1.7L2.5 1.45L2.5 1.4L2.5 1.45M2.55,2.1L2.55 2.3Q2.55 3.6 3.2 4.75L3.85 5.55L4.25 5.85L4.35 5.95L4.65 6.15L5.3 6.6L6.15 6.9L6.65 7L6.75 7Q8.5 7 9.5 6.4L10.65 5.2L10.65 5.1L10.7 5L10.65 4.95L10.5 5.2L9.85 6Q9.25 6.55 8.65 6.6L8.55 6.65Q10.5 5.95 10.9 4Q11.2 2 10.5 1.3Q10.05 0.75 8.8 0.55L7.8 0.35L7.45 0.35L5.9 0.4L4.7 0.55Q2.75 0.85 2.75 1.7L2.75 1.85L2.75 1.9L2.7 2Q2.55 2 2.55 2.1" />
<path style="fill:#434748;fill-opacity:1" d="M-8.8,2.8L-8.65 3.05L-8.35 3.2L-8.15 3.45L-8.1 3.9L-8.15 3.8L-8.35 3.3L-8.75 3.1L-8.95 2.8L-8.8 2.8M-8.8,2.5L-8.85 2.65L-8.95 2.65L-8.9 2.35L-8.7 2.25L-8.8 2.5" />
<path style="fill:#171D19;fill-opacity:1" d="M-8.1,3.45L-8.05 3.95L-7.95 4.25L-8.1 3.9L-8.15 3.45L-8.35 3.2L-8.65 3.05L-8.8 2.8L-8.35 2.8L-8.35 3L-8.2 3L-8.2 2.3L-8.35 2.3L-8.35 2.6L-8.85 2.65L-8.8 2.5L-8.7 2.25L-8.65 2.25L-8.6 2.25L-8.5 2.2L-7.95 1.8L-7.9 1.7L-7.6 1.35L-7.9 1.85L-8.1 2.9L-8.1 3.45" />
<path style="fill:#101211;fill-opacity:1" d="M1.4,0.95L1.55 0.95L1.05 0.95Q0.45 1 0.25 1.45L0.2 1.1L0.1 0.85L0.1 0.8L0.15 0.7L0.3 0.7L0.95 0.8L1.4 0.95" />
<path style="fill:#4B4C4E;fill-opacity:1" d="M1.85,1.25L2.2 1.35L2.45 1.65L2.3 2.15L1.95 2.45Q2.6 1.85 2.2 1.45L1.55 1.2L1.85 1.25" />
<path style="fill:#959DA0;fill-opacity:1" d="M0.85,1.2L0.4 1.4L0.35 1.4L0.7 1.15L0.85 1.2" />
<path style="fill:#3E4240;fill-opacity:1" d="M-7.5,5.1L-6.5 6.6L-6.7 6.45Q-7.65 5.75 -7.95 4.25L-8.05 3.95L-8.1 3.45L-7.85 4.2L-7.8 4.3L-7.75 4.6L-7.55 5.05L-7.5 5.1" />
<path style="fill:#8D9394;fill-opacity:1" d="M-7.3,5.25L-6.7 6L-6.15 6.5Q-6.85 6.2 -7.25 5.45L-7.65 4.35L-7.55 4.6L-7.3 5.25" />
<radialGradient
id="RadialGradID_4759" gradientUnits="userSpaceOnUse" gradientTransform="matrix(0.00088501, 0, 0, 0.00111389, 12.2, 2.25)" spreadMethod ="pad" cx="0" cy="0" r="819.2" fx="0" fy="0" >
<stop  offset="0.0156863"  style="stop-color:#4A534E;stop-opacity:1" />
<stop  offset="1"  style="stop-color:#292D2C;stop-opacity:1" />
</radialGradient>
<path style="fill:url(#RadialGradID_4759) " d="M11.75,2.95L12.15 2.75L12.4 2.4L12.6 2.4L12.5 2.75L12.05 2.9L11.6 3.25L11.75 2.95M12.05,1.95L11.35 1.7L11.3 1.55Q11.5 1.75 11.85 1.8L12.35 1.9L12.55 2.05L12.6 2.2L12.45 2.2Q12.4 2 12.05 1.95" />
<linearGradient
id="LinearGradID_4760" gradientUnits="userSpaceOnUse" gradientTransform="matrix(0.000564575, 0, 0, 0.000152588, 12.25, 2.25)" spreadMethod ="pad" x1="-819.2" y1="0" x2="819.2" y2="0" >
<stop  offset="0.0156863" style="stop-color:#EFFBF9;stop-opacity:1" />
<stop  offset="0.486275" style="stop-color:#8E9492;stop-opacity:1" />
<stop  offset="1" style="stop-color:#DADAD2;stop-opacity:1" />
</linearGradient>
<path style="fill:url(#LinearGradID_4760) " d="M11.75,2.4L11.75 2.2L12.2 2.2L12.45 2.2L12.6 2.2L12.6 2.3L12.6 2.4L12.4 2.4L11.75 2.4" />
<linearGradient
id="LinearGradID_4761" gradientUnits="userSpaceOnUse" gradientTransform="matrix(-4.57764e-005, 0, -1.52588e-005, -0.000442505, -8.3, 2.6)" spreadMethod ="pad" x1="-819.2" y1="0" x2="819.2" y2="0" >
<stop  offset="0.0156863" style="stop-color:#FDFAE7;stop-opacity:1" />
<stop  offset="1" style="stop-color:#768580;stop-opacity:1" />
</linearGradient>
<path style="fill:url(#LinearGradID_4761) " d="M-8.35,2.6L-8.35 2.3L-8.2 2.3L-8.2 3L-8.35 3L-8.35 2.8L-8.35 2.6" />
<radialGradient
id="RadialGradID_4762" gradientUnits="userSpaceOnUse" gradientTransform="matrix(0.0111084, 0, 0, 0.0110016, -7.75, 3.1)" spreadMethod ="pad" cx="0" cy="0" r="819.2" fx="0" fy="0" >
<stop  offset="0.0156863"  style="stop-color:#404644;stop-opacity:1" />
<stop  offset="1"  style="stop-color:#0B0F0F;stop-opacity:1" />
</radialGradient>
<path style="fill:url(#RadialGradID_4762) " d="M-1.35,6.05L-0.05 4.5L0 4.55L-0.1 4.7Q-0.6 5.75 -1.7 6.55L-2 6.75Q-3.25 7.3 -4.3 7.3L-4.6 7.25Q-5.7 7.1 -6.5 6.6L-7.5 5.1L-7.55 4.9L-7.8 3.75L-7.85 3Q-7.9 1.85 -7.2 1.3L-7.15 1.3L-6.45 0.85L-5.45 0.55L-4.1 0.45L-5 0.4L-6.3 0.65L-7.35 1.25L-7.85 1.95L-7.95 2.55L-8 2.65L-8 2.7L-7.95 2.9L-7.95 3.15L-7.85 4.2L-8.1 3.45L-8.1 2.9L-7.9 1.85L-7.6 1.35L-7.55 1.3Q-7.15 0.8 -6.45 0.55L-4.9 0.3L-4.85 0.3L0 0.55L0.05 0.55L0.6 0.6L0.95 0.8L0.3 0.7L0.15 0.7L0.1 0.6L0.05 0.6L-0.15 0.55L-1.15 0.45L-2.35 0.4L-3.2 0.4L-3.25 0.4L-4.85 0.65L-4.9 0.7L-6.45 1.1L-6.85 1.3Q-7.9 2.05 -7.6 3.7L-7.55 3.8Q-7.35 5.45 -6.2 6.4L-6.15 6.4Q-4.3 7.4 -2.65 6.7L-2.25 6.5L-0.9 5.25L-1.25 5.75L-1.75 6.25L-2 6.55L-1.85 6.45L-1.45 6.1L-1.35 6.05M-2.2,6.55L-2.75 6.8L-4.1 7.1L-4.9 7.05L-4.15 7.15L-3.3 7.05L-2.75 6.9L-2.45 6.75L-2.15 6.6Q-2 6.45 -2.2 6.55M-7.55,4.6L-7.65 4.35L-7.25 5.45Q-6.85 6.2 -6.15 6.5L-6.7 6L-7.3 5.25L-7.55 4.6" />
<linearGradient
id="LinearGradID_4763" gradientUnits="userSpaceOnUse" gradientTransform="matrix(-0.00244141, 0.00215149, -0.00114441, -0.00126648, -6.65, 2.2)" spreadMethod ="pad" x1="-819.2" y1="0" x2="819.2" y2="0" >
<stop  offset="0" style="stop-color:#707678;stop-opacity:1" />
<stop  offset="0.227451" style="stop-color:#FFFFFF;stop-opacity:1" />
<stop  offset="0.603922" style="stop-color:#494F4F;stop-opacity:1" />
<stop  offset="1" style="stop-color:#909598;stop-opacity:1" />
</linearGradient>
<path style="fill:url(#LinearGradID_4763) " d="M-7.55,5.05L-7.75 4.6L-7.8 4.3L-7.85 4.2L-7.95 3.15L-7.95 2.9L-8 2.7L-8 2.65L-7.95 2.55L-7.85 1.95L-7.35 1.25L-6.3 0.65L-5 0.4L-4.1 0.45L-5.45 0.55L-6.45 0.85L-7.15 1.3L-7.2 1.3Q-7.9 1.85 -7.85 3L-7.8 3.75L-7.55 4.9L-7.5 5.1L-7.55 5.05" />
<linearGradient
id="LinearGradID_4764" gradientUnits="userSpaceOnUse" gradientTransform="matrix(0.000305176, -1.52588e-005, 1.52588e-005, 0.000106812, -8.7, 2.65)" spreadMethod ="pad" x1="-819.2" y1="0" x2="819.2" y2="0" >
<stop  offset="0.0156863" style="stop-color:#FDFAE7;stop-opacity:1" />
<stop  offset="1" style="stop-color:#768580;stop-opacity:1" />
</linearGradient>
<path style="fill:url(#LinearGradID_4764) " d="M-8.95,2.8L-8.95 2.65L-8.85 2.65L-8.35 2.6L-8.35 2.8L-8.8 2.8L-8.95 2.8" />
<linearGradient
id="LinearGradID_4765" gradientUnits="userSpaceOnUse" gradientTransform="matrix(-0.000961304, 0.000213623, -0.00012207, -0.000534058, 4.65, 0.95)" spreadMethod ="pad" x1="-819.2" y1="0" x2="819.2" y2="0" >
<stop  offset="0.0156863" style="stop-color:#585C5F;stop-opacity:1" />
<stop  offset="1" style="stop-color:#494F4F;stop-opacity:1" />
</linearGradient>
<path style="fill:url(#LinearGradID_4765) " d="M2.75,1.7Q2.75 0.85 4.7 0.55L5.9 0.4L7.45 0.35L7.8 0.35L8.8 0.55L7.2 0.45L7.15 0.45L4.6 0.7L4.55 0.7Q3.35 0.95 3.15 1.25L2.8 1.75L2.75 1.85L2.75 1.7" />
<radialGradient
id="RadialGradID_4766" gradientUnits="userSpaceOnUse" gradientTransform="matrix(0.000259399, 6.10352e-005, -0.000137329, 0.000610352, 2.5, 0.9)" spreadMethod ="pad" cx="0" cy="0" r="819.2" fx="0" fy="0" >
<stop  offset="0"  style="stop-color:#FFFFFF;stop-opacity:1" />
<stop  offset="1"  style="stop-color:#676968;stop-opacity:1" />
</radialGradient>
<path style="fill:url(#RadialGradID_4766) " d="M2.5,1.4L2.45 1.4L2.25 1.25L2.4 0.9L2.45 0.55L2.75 0.5L2.6 1.25L2.6 1.3L2.5 1.45L2.5 1.4" />
<radialGradient
id="RadialGradID_4767" gradientUnits="userSpaceOnUse" gradientTransform="matrix(0.00114441, 0, 0, 0.00164795, 1.55, 0.7)" spreadMethod ="pad" cx="0" cy="0" r="819.2" fx="0" fy="0" >
<stop  offset="0.0156863"  style="stop-color:#E4E6E7;stop-opacity:1" />
<stop  offset="1"  style="stop-color:#484848;stop-opacity:1" />
</radialGradient>
<path style="fill:url(#RadialGradID_4767) " d="M0.95,0.8L0.6 0.6L2.45 0.55L2.4 0.9L2.35 0.7L2.05 0.75L1.95 0.95L1.95 1.1L1.6 1L1.55 0.95L1.4 0.95L0.95 0.8" />
<radialGradient
id="RadialGradID_4768" gradientUnits="userSpaceOnUse" gradientTransform="matrix(0.000396729, 0, 0, 0.000427246, 2.2, 0.95)" spreadMethod ="pad" cx="0" cy="0" r="819.2" fx="0" fy="0" >
<stop  offset="0.0156863"  style="stop-color:#393A3C;stop-opacity:1" />
<stop  offset="1"  style="stop-color:#5D5E60;stop-opacity:1" />
</radialGradient>
<path style="fill:url(#RadialGradID_4768) " d="M2.25,1.25L1.95 1.1L1.95 0.95L2.05 0.75L2.35 0.7L2.4 0.9L2.25 1.25" />
<radialGradient
id="RadialGradID_4769" gradientUnits="userSpaceOnUse" gradientTransform="matrix(0.00135803, 0, 0, 0.00134277, 2.6, 1.2)" spreadMethod ="pad" cx="0" cy="0" r="819.2" fx="0" fy="0" >
<stop  offset="0.0156863"  style="stop-color:#4E4F51;stop-opacity:1" />
<stop  offset="1"  style="stop-color:#848484;stop-opacity:1" />
</radialGradient>
<path style="fill:url(#RadialGradID_4769) " d="M2.75,0.5L4.85 0.25L3.85 0.45L3.05 0.75L2.6 1.25L2.75 0.5" />
<radialGradient
id="RadialGradID_4770" gradientUnits="userSpaceOnUse" gradientTransform="matrix(0.00187683, 0, 0, 0.00186157, 3.8, 0.5)" spreadMethod ="pad" cx="0" cy="0" r="819.2" fx="0" fy="0" >
<stop  offset="0.0784314"  style="stop-color:#FFFFFF;stop-opacity:1" />
<stop  offset="1"  style="stop-color:#7E7E80;stop-opacity:1" />
</radialGradient>
<path style="fill:url(#RadialGradID_4770) " d="M5.25,0.2L6.1 0.15L7.85 0.2L4.8 0.4Q3.35 0.6 3.05 0.85L2.6 1.3L2.6 1.25L3.05 0.75L3.85 0.45L4.85 0.25L5.25 0.2" />
<radialGradient
id="RadialGradID_4771" gradientUnits="userSpaceOnUse" gradientTransform="matrix(0.00440979, 0, 0, 0.00436401, -0.4, 0.85)" spreadMethod ="pad" cx="0" cy="0" r="819.2" fx="0" fy="0" >
<stop  offset="0.0156863"  style="stop-color:#404040;stop-opacity:1" />
<stop  offset="1"  style="stop-color:#000000;stop-opacity:1" />
</radialGradient>
<path style="fill:url(#RadialGradID_4771) " d="M1.55,1.2L0.55 1.4Q0.1 1.85 0.75 2.55Q0.95 2.85 0.05 4.45L-0.05 4.5L-1.35 6.05L-1.35 6L-0.5 4.8Q-0.1 4.15 0.05 3.3L0.05 3.2L0.1 3L0.1 2.3L-0.1 1.45L-0.15 1.35Q-0.4 1.05 -0.95 0.85L-2.25 0.6Q-2.5 0.6 -2.15 0.7L-4.4 0.65L-4.85 0.65L-3.25 0.4L-3.2 0.4L-2.95 0.4L-1.4 0.65Q-0.4 0.85 0 1.45L0.45 2.3L0.5 2.95L0.55 2.9L0.6 2.65L0.45 2.2L0.25 1.55L0.25 1.45Q0.45 1 1.05 0.95L1.55 0.95L1.6 1L1.95 1.1L2.25 1.25L2.45 1.4L2.5 1.4L2.5 1.45L2.55 1.7L2.45 2.15L2.15 2.45L2.1 2.45L1.95 2.45L2.3 2.15L2.45 1.65L2.2 1.35L1.85 1.25L1.55 1.2M0.7,1.15L0.35 1.4L0.4 1.4L0.85 1.2L0.7 1.15" />
<radialGradient
id="RadialGradID_4772" gradientUnits="userSpaceOnUse" gradientTransform="matrix(0.000564575, -0.000930786, 0.0022583, 0.00135803, -0.55, 0.75)" spreadMethod ="pad" cx="0" cy="0" r="819.2" fx="0" fy="0" >
<stop  offset="0.360784"  style="stop-color:#F2F2F2;stop-opacity:1" />
<stop  offset="1"  style="stop-color:#4D4D4D;stop-opacity:1" />
</radialGradient>
<path style="fill:url(#RadialGradID_4772) " d="M0.1,0.8L0.1 0.85L0.2 1.1L0.25 1.45L0.25 1.55L0.45 2.2L0.6 2.65L0.55 2.9L0.5 2.95L0.45 2.3L0 1.45Q-0.4 0.85 -1.4 0.65L-2.95 0.4L-3.2 0.4L-2.35 0.4L-1.15 0.45L-0.15 0.55L0.05 0.6L0.1 0.6L0.15 0.7L0.1 0.8" />
<linearGradient
id="LinearGradID_4773" gradientUnits="userSpaceOnUse" gradientTransform="matrix(-0.000198364, 0.00308228, -0.0015564, -0.000106812, -1.2, 3.35)" spreadMethod ="pad" x1="-819.2" y1="0" x2="819.2" y2="0" >
<stop  offset="0.0156863" style="stop-color:#767A79;stop-opacity:1" />
<stop  offset="0.470588" style="stop-color:#494F4F;stop-opacity:1" />
<stop  offset="0.878431" style="stop-color:#909598;stop-opacity:1" />
<stop  offset="1" style="stop-color:#BDC0C1;stop-opacity:1" />
</linearGradient>
<path style="fill:url(#LinearGradID_4773) " d="M-1.45,6.1L-1.85 6.45L-2 6.55L-1.75 6.25L-1.25 5.75L-0.9 5.25Q-0.15 4.2 0 2.9L0 1.85Q-0.15 0.95 -2.15 0.7Q-2.5 0.6 -2.25 0.6L-0.95 0.85Q-0.4 1.05 -0.15 1.35L-0.1 1.45L0.1 2.3L0.1 3L0.05 3.2L0.05 3.3Q-0.1 4.15 -0.5 4.8L-1.35 6L-1.45 6.1" />
<linearGradient
id="LinearGradID_4774" gradientUnits="userSpaceOnUse" gradientTransform="matrix(0.000732422, 0.00160217, -0.000228882, 0.000106812, 2.55, 3.7)" spreadMethod ="pad" x1="-819.2" y1="0" x2="819.2" y2="0" >
<stop  offset="0.0156863" style="stop-color:#767A79;stop-opacity:1" />
<stop  offset="0.470588" style="stop-color:#494F4F;stop-opacity:1" />
<stop  offset="0.862745" style="stop-color:#DCDEDE;stop-opacity:1" />
<stop  offset="1" style="stop-color:#909598;stop-opacity:1" />
</linearGradient>
<path style="fill:url(#LinearGradID_4774) " d="M2.05,3.25L2.05 3.2Q1.85 2.7 1.95 2.45L2.1 2.45L2.1 2.75L2.2 3.2L2.45 3.75L3.45 5.3Q2.8 4.7 2.05 3.25" />
<linearGradient
id="LinearGradID_4775" gradientUnits="userSpaceOnUse" gradientTransform="matrix(-0.000793457, 0.000183105, -4.57764e-005, -0.000213623, -3.5, 6.9)" spreadMethod ="pad" x1="-819.2" y1="0" x2="819.2" y2="0" >
<stop  offset="0.0156863" style="stop-color:#767A79;stop-opacity:1" />
<stop  offset="1" style="stop-color:#494F4F;stop-opacity:1" />
</linearGradient>
<path style="fill:url(#LinearGradID_4775) " d="M-2.15,6.6L-2.45 6.75L-2.75 6.9L-3.3 7.05L-4.15 7.15L-4.9 7.05L-4.1 7.1L-2.75 6.8L-2.2 6.55Q-2 6.45 -2.15 6.6" />
<radialGradient
id="RadialGradID_4776" gradientUnits="userSpaceOnUse" gradientTransform="matrix(0.0112305, 0, 0, 0.0111237, -7.7, 3.75)" spreadMethod ="pad" cx="0" cy="0" r="819.2" fx="0" fy="0" >
<stop  offset="0.0156863"  style="stop-color:#404644;stop-opacity:1" />
<stop  offset="1"  style="stop-color:#263133;stop-opacity:1" />
</radialGradient>
<path style="fill:url(#RadialGradID_4776) " d="M-0.05,4.5L0 4.5L0 4.55L-0.05 4.5" />
<radialGradient
id="RadialGradID_4777" gradientUnits="userSpaceOnUse" gradientTransform="matrix(0.000167847, -1.52588e-005, 9.15527e-005, 0.00152588, 11.35, 2.35)" spreadMethod ="pad" cx="0" cy="0" r="819.2" fx="0" fy="0" >
<stop  offset="0.0156863"  style="stop-color:#F1FFFF;stop-opacity:1" />
<stop  offset="1"  style="stop-color:#768E8E;stop-opacity:1" />
</radialGradient>
<path style="fill:url(#RadialGradID_4777) " d="M11.5,2.15L11.4 2.75L11.25 3.55L11.2 3.55L11.2 3.4L11.3 2.2L11.2 1.9L11.05 1.65L11.05 1.6L11.15 1.55L11.45 1.9L11.5 2.15" />
<linearGradient
id="LinearGradID_4778" gradientUnits="userSpaceOnUse" gradientTransform="matrix(-4.57764e-005, 0, -1.52588e-005, -0.000442505, 11.65, 2.3)" spreadMethod ="pad" x1="-819.2" y1="0" x2="819.2" y2="0" >
<stop  offset="0.0156863" style="stop-color:#F8FFF6;stop-opacity:1" />
<stop  offset="1" style="stop-color:#BCC7A7;stop-opacity:1" />
</linearGradient>
<path style="fill:url(#LinearGradID_4778) " d="M11.75,2.2L11.75 2.4L11.75 2.65L11.6 2.65L11.55 1.9L11.75 1.9L11.75 2.2" />
<linearGradient
id="LinearGradID_4779" gradientUnits="userSpaceOnUse" gradientTransform="matrix(-0.00170898, 0.000869751, -0.00050354, -0.000976563, 8.6, 5.8)" spreadMethod ="pad" x1="-819.2" y1="0" x2="819.2" y2="0" >
<stop  offset="0.0156863" style="stop-color:#999A9C;stop-opacity:1" />
<stop  offset="0.219608" style="stop-color:#CFD1D1;stop-opacity:1" />
<stop  offset="1" style="stop-color:#494F4F;stop-opacity:1" />
</linearGradient>
<path style="fill:url(#LinearGradID_4779) " d="M5.3,6.6Q6.7 7.05 8.55 6.65L8.65 6.6Q9.25 6.55 9.85 6L10.5 5.2L10.65 4.95L10.7 5L10.65 5.1L10.65 5.2L9.5 6.4Q8.5 7 6.75 7L6.65 7L6.15 6.9L5.3 6.6" />
<linearGradient
id="LinearGradID_4780" gradientUnits="userSpaceOnUse" gradientTransform="matrix(0.000198364, 0.001297, -0.000732422, 0.000106812, 3.2, 3.1)" spreadMethod ="pad" x1="-819.2" y1="0" x2="819.2" y2="0" >
<stop  offset="0.0156863" style="stop-color:#797A7E;stop-opacity:1" />
<stop  offset="1" style="stop-color:#494F4F;stop-opacity:1" />
</linearGradient>
<path style="fill:url(#LinearGradID_4780) " d="M2.7,2L2.75 3.1L2.75 3.15Q3.05 4.8 4.25 5.85L3.85 5.55L3.2 4.75Q2.55 3.6 2.55 2.3L2.55 2.1Q2.55 2 2.7 2" />
<radialGradient
id="RadialGradID_4781" gradientUnits="userSpaceOnUse" gradientTransform="matrix(0.000350952, -0.000808716, 0.00456238, 0.00198364, 9.95, 0.4)" spreadMethod ="pad" cx="0" cy="0" r="819.2" fx="0" fy="0" >
<stop  offset="0"  style="stop-color:#FFFFFF;stop-opacity:0.721569" />
<stop  offset="1"  style="stop-color:#FFFFFF;stop-opacity:0" />
</radialGradient>
<path style="fill:url(#RadialGradID_4781) " d="M9.1,0.45L8.4 0.35L9.25 0.4L10.15 0.75L10.95 1.6L10 0.75L9.1 0.45" />
<radialGradient
id="RadialGradID_4782" gradientUnits="userSpaceOnUse" gradientTransform="matrix(0.000930786, -0.000854492, 0.00172424, 0.00186157, -0.25, 0.8)" spreadMethod ="pad" cx="0" cy="0" r="819.2" fx="0" fy="0" >
<stop  offset="0"  style="stop-color:#858585;stop-opacity:0.490196" />
<stop  offset="1"  style="stop-color:#FFFFFF;stop-opacity:0" />
</radialGradient>
<path style="fill:url(#RadialGradID_4782) " d="M-0.8,0.6L-0.25 0.7Q0 0.75 0.05 1.15L0.1 1.5L-0.3 0.95L-1.15 0.6L-0.8 0.6" />
</g>
</svg>
