<?xml version="1.0" encoding="utf-8"?>
<svg version="1.1" id="Layer_1"
xmlns="http://www.w3.org/2000/svg"
xmlns:xlink="http://www.w3.org/1999/xlink"
xmlns:author="http://www.sothink.com"
width="20px" height="5px"
xml:space="preserve">
<g id="609" transform="matrix(1, 0, 0, 1, 9, 1)">
<path style="fill:#000000;fill-opacity:0.2" d="M-8.9,0.1L-7.65 0.55L-7.6 0.6L-7.6 0.65L-7.5 0.9L-7.5 0.95L-7.15 1.75L-6.9 2Q-5.9 2.85 -3.35 3.1L-2.95 3.1L-2.5 3.15Q-1.8 3.1 -1.45 2.85L-0.8 2L-0.5 1.2L-0.5 1.15L-0.5 1.05L-0.5 0.9Q-0.25 1.3 -0.45 1.6L-1.1 2.75Q-1.5 3.3 -2.65 3.3L-3.9 3.2L-5.8 2.8L-6.1 2.65L-6.4 2.5L-6.55 2.4L-6.6 2.35L-6.75 2.25L-6.8 2.25L-7.3 1.85L-7.65 1.25L-7.7 1.1L-7.75 1.1L-8.35 0.65L-8.65 0.45L-8.75 0.35L-8.9 0.1M9.55,0.15L10.35 -0.05L10.9 -0.35L10.9 -0.15L10.85 -0.05L10.75 0.05L10.4 0.2L10.3 0.3L9.55 0.55L9.4 1.1L9.1 1.8Q8.6 2.45 7.4 2.85L5.25 3.25L5.1 3.25L4.85 3.3L4.4 3.3L3.45 3.05L3.35 3L2.7 2.15L2.4 1.35L2.4 1.3L2.4 1.2L2.7 2L3.35 2.85L3.45 2.9L4.4 3.1L4.85 3.1L5.1 3.1L5.25 3.05L6.75 2.85Q8.3 2.5 8.95 1.8L9.4 0.9L9.55 0.2L9.55 0.15" />
<path style="fill:#3C3C3C;fill-opacity:1" d="M0.6,0.65Q0 0.65 -0.5 1.35Q-0.15 0.65 -0.65 0.05L0.9 0.4L2.45 0.05Q2 0.65 2.35 1.35Q1.85 0.65 1.25 0.65L0.9 0.65L0.6 0.65" />
<path style="fill:#000000;fill-opacity:1" d="M2.55,1.5L2.7 1.9L2.15 1.25L2 1.1L0.9 0.85L0.05 1.05L-0.1 1.1L-0.3 1.25L-0.85 1.9L-0.8 1.75L-0.7 1.5L-0.55 1.1L-0.55 1.05Q-0.45 0.3 -1.1 -0.3L0.9 0.25L2.95 -0.3Q2.3 0.3 2.4 1.05L2.4 1.1L2.55 1.5M0.9,0.65L1.25 0.65Q1.85 0.65 2.35 1.35Q2 0.65 2.45 0.05L0.9 0.4L-0.65 0.05Q-0.15 0.65 -0.5 1.35Q0 0.65 0.6 0.65L0.9 0.65" />
<path style="fill:#000000;fill-opacity:0.2" d="M-0.3,1.25L-0.1 1.1L0.05 1.05L0.9 0.85L2 1.1L2.15 1.25L2.7 1.9L2.55 1.5L2.8 1.95L2.65 1.95L2.05 1.45Q1.5 1.05 1.2 1.05L0.9 1.05L0.7 1.05Q0.35 1.1 -0.05 1.3L-0.2 1.4L-0.55 1.75L-1.05 2.35L-1.05 2.3L-0.9 1.9L-0.85 1.9L-0.3 1.25" />
<linearGradient
id="LinearGradID_4836" gradientUnits="userSpaceOnUse" gradientTransform="matrix(0, -0.000274658, -0.000518799, 0, 9.8, -0.35)" spreadMethod ="pad" x1="-819.2" y1="0" x2="819.2" y2="0" >
<stop  offset="0" style="stop-color:#333333;stop-opacity:1" />
<stop  offset="1" style="stop-color:#999999;stop-opacity:1" />
</linearGradient>
<path style="fill:url(#LinearGradID_4836) " d="M9.9,-0.15L10.15 -0.35L10.2 -0.1L10.25 -0.55L10.05 -0.45L9.55 -0.45L9.4 -0.5L9.45 -0.25L9.9 -0.15" />
<path style="fill:#333333;fill-opacity:1" d="M10.85,-0.45L10.85 -0.85L10.25 -0.55L10.2 -0.1L10.85 -0.45" />
<path style="fill:#000000;fill-opacity:1" d="M10.2,-0.1L10.15 -0.35L9.9 -0.15L9.45 -0.25L9.45 0L9.45 0.3L9.55 0.2L10 0.1L10.85 -0.35L10.85 -0.45L10.2 -0.1" />
<linearGradient
id="LinearGradID_4837" gradientUnits="userSpaceOnUse" gradientTransform="matrix(0, -0.000274658, 0.000518799, 0, -7.95, -0.1)" spreadMethod ="pad" x1="-819.2" y1="0" x2="819.2" y2="0" >
<stop  offset="0" style="stop-color:#333333;stop-opacity:1" />
<stop  offset="1" style="stop-color:#999999;stop-opacity:1" />
</linearGradient>
<path style="fill:url(#LinearGradID_4837) " d="M-8.05,0.15L-8.3 -0.1L-8.35 0.15L-8.4 -0.3L-8.2 -0.2L-7.7 -0.2L-7.6 -0.25L-7.6 0.05L-8.05 0.15" />
<path style="fill:#000000;fill-opacity:1" d="M-8.35,0.15L-8.3 -0.1L-8.05 0.15L-7.6 0.05L-7.6 0.1L-7.55 0.55L-7.6 0.55L-7.7 0.45L-8.15 0.35L-9 -0.1L-9 -0.2L-8.35 0.15" />
<path style="fill:#333333;fill-opacity:1" d="M-9,-0.2L-9 -0.6L-8.4 -0.3L-8.35 0.15L-9 -0.2" />
<linearGradient
id="LinearGradID_4838" gradientUnits="userSpaceOnUse" gradientTransform="matrix(-0.00062561, 0.00317383, 0.00234985, 0.000457764, -4.05, 1.05)" spreadMethod ="pad" x1="-819.2" y1="0" x2="819.2" y2="0" >
<stop  offset="0" style="stop-color:#FFFFFF;stop-opacity:0.282353" />
<stop  offset="0.988235" style="stop-color:#FFFFFF;stop-opacity:0.0627451" />
</linearGradient>
<path style="fill:url(#LinearGradID_4838) " d="M-1.35,2.2Q-2 2.65 -3.05 2.75L-6.05 2.3Q-7.05 1.7 -7.4 0.45L-7.4 0.4L-7.45 0.25L-7.25 -0.3L-7.1 -0.5L-5.5 -0.8L-2.55 -0.55L-1.9 -0.4L-1.2 -0.2Q-0.7 0.1 -0.6 0.6L-0.6 0.95L-0.6 1.05Q-0.85 1.85 -1.35 2.2" />
<path style="fill:#000000;fill-opacity:1" d="M-7.4,0.75L-7.25 1.15L-7.25 1.2Q-6.95 2.8 -3.15 2.95L-2.85 2.95L-2.3 2.95L-1.35 2.6L-1.1 2.3L-1 2.15L-0.6 1.1L-0.6 1.05L-0.6 0.95L-0.6 0.6Q-0.7 0.1 -1.2 -0.2L-1.9 -0.4L-2.55 -0.55L-5.5 -0.8L-7.1 -0.5L-7.25 -0.3L-7.45 0.25L-7.4 0.4L-7.4 0.45L-7.4 0.75M-1.1,-0.3Q-0.55 0.1 -0.45 0.7L-0.45 0.85L-0.45 0.95L-0.45 1L-0.7 1.8L-1.25 2.7Q-1.6 3 -2.3 3.1L-2.75 3.05L-3.15 3.1Q-5.65 3.05 -6.75 2.25L-7 2L-7.4 1.25L-7.4 1.2L-7.55 0.95L-7.55 0.9L-7.6 0.5Q-7.7 -0.1 -7.35 -0.4Q-6.9 -0.95 -5.5 -0.95L-2.55 -0.7L-1.15 -0.35L-1.1 -0.3" />
<path style="fill:#FFFFFF;fill-opacity:0.341176" d="M-1,2.15L-1.1 2.25L-1.35 2.55L-1.35 2.6Q-1.65 2.85 -2.3 2.9L-2.85 2.95L-3.15 2.9Q-6.9 2.8 -7.25 1.2L-7.25 1.15L-7.4 0.75L-7.4 0.45Q-7.05 1.7 -6.05 2.3L-3.05 2.75Q-2 2.65 -1.35 2.2Q-0.85 1.85 -0.6 1.05L-0.6 1.1L-1 2.15" />
<path style="fill:#000000;fill-opacity:1" d="M2.95,2.2L3.05 2.35L3.25 2.65L3.3 2.7L4.25 2.95L4.8 2.95L4.95 2.95L5.05 2.95L6.4 2.8Q7.95 2.6 8.65 2Q9.15 1.65 9.25 1.1L9.4 0.35L9.4 0.2L9.2 -0.35L9 -0.5L8.35 -0.75L7.4 -0.8L7.35 -0.8L6.6 -0.8L5.15 -0.6L4.45 -0.5L3.8 -0.35L3.05 -0.15Q2.45 0.35 2.5 1.05L2.5 1.15Q2.55 1.65 2.95 2.2M8.35,-0.9Q9 -0.8 9.3 -0.5L9.55 0.4L9.55 0.45L9.35 1.15L8.85 2.05Q8.2 2.7 6.6 2.95L5.1 3.1L4.95 3.15L4.7 3.1L4.25 3.1L3.3 2.85L3.2 2.8L2.6 1.9L2.35 1.1L2.35 1.05L2.35 0.95Q2.35 0.25 2.95 -0.3L3 -0.3L3.5 -0.4L4.45 -0.65L5.15 -0.75L6.6 -0.95L7.35 -0.95L8.35 -0.9" />
<linearGradient
id="LinearGradID_4839" gradientUnits="userSpaceOnUse" gradientTransform="matrix(0.000671387, 0.00317383, -0.00233459, 0.00050354, 5.95, 1.1)" spreadMethod ="pad" x1="-819.2" y1="0" x2="819.2" y2="0" >
<stop  offset="0" style="stop-color:#FFFFFF;stop-opacity:0.282353" />
<stop  offset="0.988235" style="stop-color:#FFFFFF;stop-opacity:0.0627451" />
</linearGradient>
<path style="fill:url(#LinearGradID_4839) " d="M8.35,2L8 2.3L6.45 2.65L4.95 2.8Q3.9 2.7 3.35 2.3Q2.7 1.9 2.5 1.15L2.5 1.05Q2.45 0.35 3.05 -0.15L3.8 -0.35L4.45 -0.5L5.15 -0.6L6.6 -0.8L7.35 -0.8L7.4 -0.8L8.35 -0.75L9 -0.5L9.2 -0.35L9.4 0.2L9.4 0.35Q9.1 1.45 8.35 2" />
<path style="fill:#FFFFFF;fill-opacity:0.341176" d="M9.4,0.35L9.25 1.1Q9.15 1.65 8.65 2Q7.95 2.6 6.4 2.8L5.05 2.95L4.95 2.95L4.8 2.95L4.25 2.95L3.3 2.7L3.25 2.65L3.05 2.35L2.95 2.2Q2.55 1.65 2.5 1.15Q2.7 1.9 3.35 2.3Q3.9 2.7 4.95 2.8L6.45 2.65L8 2.3L8.35 2Q9.1 1.45 9.4 0.35" />
</g>
</svg>
