<?xml version="1.0" encoding="utf-8"?>
<svg version="1.1" id="Layer_1"
xmlns="http://www.w3.org/2000/svg"
xmlns:xlink="http://www.w3.org/1999/xlink"
xmlns:author="http://www.sothink.com"
width="20px" height="5px"
xml:space="preserve">
<g id="608" transform="matrix(1, 0, 0, 1, -60.45, -30.3)">
<path style="fill:#000000;fill-opacity:0.2" d="M60.55,31.4L61.8 31.85L61.85 31.9L61.85 31.95L61.95 32.2L61.95 32.25L62.3 33.05L62.55 33.3Q63.55 34.15 66.1 34.4L66.5 34.4L66.95 34.45L68 34.15L68.65 33.3L68.95 32.5L68.95 32.45L68.95 32.35L68.95 32.2L69 32.9L68.35 34.05Q67.95 34.6 66.8 34.6L65.55 34.5L63.65 34.1L63.35 33.95L63.05 33.8L62.9 33.7L62.85 33.65L62.7 33.55L62.65 33.55L62.15 33.15L61.8 32.55L61.75 32.4L61.7 32.4L61.1 31.95L60.8 31.75L60.7 31.65L60.55 31.4M79,31.45L79.8 31.25Q80.1 31 80.35 30.95L80.35 31.15L80.3 31.25L80.2 31.35L79.85 31.5L79.75 31.6L79 31.85L78.85 32.4L78.55 33.1Q78.05 33.75 76.85 34.15L74.7 34.55L74.55 34.55L74.3 34.6L73.85 34.6L72.9 34.35L72.8 34.3L72.15 33.45L71.85 32.65L71.85 32.6L71.85 32.5L72.15 33.3L72.8 34.15L72.9 34.2L73.85 34.4L74.3 34.4L74.55 34.4L74.7 34.35L76.2 34.15Q77.75 33.8 78.4 33.1L78.85 32.2L79 31.5L79 31.45" />
<path style="fill:#3C3C3C;fill-opacity:1" d="M70.05,31.95Q69.45 31.95 68.95 32.65Q69.3 31.95 68.8 31.35L70.35 31.7L71.9 31.35Q71.45 31.95 71.8 32.65Q71.3 31.95 70.7 31.95L70.35 31.95L70.05 31.95" />
<path style="fill:#000000;fill-opacity:1" d="M72,32.8L72.15 33.2L71.6 32.55L71.45 32.4Q70.9 32.1 70.35 32.15L69.5 32.35L69.35 32.4L69.15 32.55L68.6 33.2L68.65 33.05L68.75 32.8L68.9 32.4L68.9 32.35Q69 31.6 68.35 31L70.35 31.55L72.4 31Q71.75 31.6 71.85 32.35L71.85 32.4L72 32.8M70.35,31.95L70.7 31.95Q71.3 31.95 71.8 32.65Q71.45 31.95 71.9 31.35L70.35 31.7L68.8 31.35Q69.3 31.95 68.95 32.65Q69.45 31.95 70.05 31.95L70.35 31.95" />
<path style="fill:#000000;fill-opacity:0.2" d="M69.15,32.55L69.35 32.4L69.5 32.35L70.35 32.15Q70.9 32.1 71.45 32.4L71.6 32.55L72.15 33.2L72 32.8L72.25 33.25L72.1 33.25L71.5 32.75L70.65 32.35L70.35 32.35L70.15 32.35Q69.8 32.4 69.4 32.6L69.25 32.7L68.9 33.05L68.4 33.65L68.4 33.6L68.55 33.2L68.6 33.2L69.15 32.55" />
<linearGradient
id="LinearGradID_4832" gradientUnits="userSpaceOnUse" gradientTransform="matrix(0, -0.000274658, -0.000518799, 0, 79.25, 30.95)" spreadMethod ="pad" x1="-819.2" y1="0" x2="819.2" y2="0" >
<stop  offset="0" style="stop-color:#333333;stop-opacity:1" />
<stop  offset="1" style="stop-color:#999999;stop-opacity:1" />
</linearGradient>
<path style="fill:url(#LinearGradID_4832) " d="M79.35,31.15L79.6 30.95L79.65 31.2L79.7 30.75L79.5 30.85L79 30.85L78.85 30.8L78.9 31.05L79.35 31.15" />
<path style="fill:#333333;fill-opacity:1" d="M79.65,31.2Q79.8 31.15 80.3 30.85L80.3 30.45L79.7 30.75L79.65 31.2" />
<path style="fill:#000000;fill-opacity:1" d="M78.9,31.05L78.9 31.3L78.9 31.6L79 31.5L79.45 31.4L80.3 30.95L80.3 30.85Q79.8 31.15 79.65 31.2L79.6 30.95L79.35 31.15L78.9 31.05" />
<linearGradient
id="LinearGradID_4833" gradientUnits="userSpaceOnUse" gradientTransform="matrix(0, -0.000274658, 0.000518799, 0, 61.5, 31.2)" spreadMethod ="pad" x1="-819.2" y1="0" x2="819.2" y2="0" >
<stop  offset="0" style="stop-color:#333333;stop-opacity:1" />
<stop  offset="1" style="stop-color:#999999;stop-opacity:1" />
</linearGradient>
<path style="fill:url(#LinearGradID_4833) " d="M61.4,31.45L61.15 31.2L61.1 31.45L61.05 31L61.25 31.1L61.75 31.1L61.85 31.05L61.85 31.35L61.4 31.45" />
<path style="fill:#000000;fill-opacity:1" d="M61.1,31.45L61.15 31.2L61.4 31.45L61.85 31.35L61.85 31.4L61.9 31.85L61.85 31.85L61.75 31.75L61.3 31.65L60.45 31.2L60.45 31.1L61.1 31.45" />
<path style="fill:#333333;fill-opacity:1" d="M60.45,31.1L60.45 30.7L61.05 31L61.1 31.45L60.45 31.1" />
<linearGradient
id="LinearGradID_4834" gradientUnits="userSpaceOnUse" gradientTransform="matrix(-0.00062561, 0.00317383, 0.00234985, 0.000457764, 65.4, 32.35)" spreadMethod ="pad" x1="-819.2" y1="0" x2="819.2" y2="0" >
<stop  offset="0" style="stop-color:#FFFFFF;stop-opacity:0.282353" />
<stop  offset="0.988235" style="stop-color:#FFFFFF;stop-opacity:0.0627451" />
</linearGradient>
<path style="fill:url(#LinearGradID_4834) " d="M68.1,33.5Q67.45 33.95 66.4 34.05L63.4 33.6Q62.4 33 62.05 31.75L62.05 31.7L62 31.55L62.2 31L62.35 30.8L63.95 30.5L66.9 30.75L67.55 30.9L68.25 31.1Q68.75 31.4 68.85 31.9L68.85 32.25L68.85 32.35L68.1 33.5" />
<path style="fill:#000000;fill-opacity:1" d="M68.35,31L69 32L69 32.15L69 32.25L69 32.3L68.75 33.1L68.2 34L67.15 34.4L66.7 34.35L66.3 34.4Q63.8 34.35 62.7 33.55L62.45 33.3L62.05 32.55L62.05 32.5L61.9 32.25L61.9 32.2L61.85 31.8Q61.75 31.2 62.1 30.9Q62.55 30.35 63.95 30.35L66.9 30.6L68.3 30.95L68.35 31M62.05,32.05L62.2 32.45L62.2 32.5Q62.5 34.1 66.3 34.25L66.6 34.25L67.15 34.25L68.1 33.9L68.35 33.6L68.45 33.45L68.85 32.4L68.85 32.35L68.85 32.25L68.85 31.9Q68.75 31.4 68.25 31.1L67.55 30.9L66.9 30.75L63.95 30.5L62.35 30.8L62.2 31L62 31.55L62.05 31.7L62.05 31.75L62.05 32.05" />
<path style="fill:#FFFFFF;fill-opacity:0.341176" d="M68.45,33.45L68.35 33.55L68.1 33.85L68.1 33.9L67.15 34.2L66.6 34.25L66.3 34.2Q62.55 34.1 62.2 32.5L62.2 32.45L62.05 32.05L62.05 31.75Q62.4 33 63.4 33.6L66.4 34.05Q67.45 33.95 68.1 33.5L68.85 32.35L68.85 32.4L68.45 33.45" />
<path style="fill:#000000;fill-opacity:1" d="M77.8,30.4Q78.45 30.5 78.75 30.8Q79.1 31.1 79 31.7L79 31.75L78.8 32.45L78.3 33.35Q77.65 34 76.05 34.25L74.55 34.4L74.4 34.45L74.15 34.4L73.7 34.4L72.75 34.15L72.65 34.1L72.05 33.2L71.8 32.4L71.8 32.35L71.8 32.25Q71.8 31.55 72.4 31L72.45 31L72.95 30.9L73.9 30.65L74.6 30.55L76.05 30.35L76.8 30.35L77.8 30.4M72.4,33.5L72.5 33.65L72.7 33.95L72.75 34L73.7 34.25L74.25 34.25L74.4 34.25L74.5 34.25L75.85 34.1Q77.4 33.9 78.1 33.3Q78.6 32.95 78.7 32.4L78.85 31.65L78.85 31.5L78.65 30.95L78.45 30.8Q78.2 30.6 77.8 30.55L76.85 30.5L76.8 30.5L76.05 30.5L74.6 30.7L73.9 30.8L73.25 30.95L72.5 31.15Q71.9 31.65 71.95 32.35L71.95 32.45Q72 32.95 72.4 33.5" />
<linearGradient
id="LinearGradID_4835" gradientUnits="userSpaceOnUse" gradientTransform="matrix(0.000671387, 0.00317383, -0.00233459, 0.00050354, 75.4, 32.4)" spreadMethod ="pad" x1="-819.2" y1="0" x2="819.2" y2="0" >
<stop  offset="0" style="stop-color:#FFFFFF;stop-opacity:0.282353" />
<stop  offset="0.988235" style="stop-color:#FFFFFF;stop-opacity:0.0627451" />
</linearGradient>
<path style="fill:url(#LinearGradID_4835) " d="M77.8,33.3L77.45 33.6L75.9 33.95L74.4 34.1Q73.35 34 72.8 33.6Q72.15 33.2 71.95 32.45L71.95 32.35Q71.9 31.65 72.5 31.15L73.25 30.95L73.9 30.8L74.6 30.7L76.05 30.5L76.8 30.5L76.85 30.5L77.8 30.55Q78.2 30.6 78.45 30.8L78.65 30.95L78.85 31.5L78.85 31.65Q78.55 32.75 77.8 33.3" />
<path style="fill:#FFFFFF;fill-opacity:0.341176" d="M78.85,31.65L78.7 32.4Q78.6 32.95 78.1 33.3Q77.4 33.9 75.85 34.1L74.5 34.25L74.4 34.25L74.25 34.25L73.7 34.25L72.75 34L72.7 33.95L72.5 33.65L72.4 33.5Q72 32.95 71.95 32.45Q72.15 33.2 72.8 33.6Q73.35 34 74.4 34.1L75.9 33.95L77.45 33.6L77.8 33.3Q78.55 32.75 78.85 31.65" />
</g>
</svg>
