<?xml version="1.0" encoding="utf-8"?>
<svg version="1.1" id="Layer_1"
xmlns="http://www.w3.org/2000/svg"
xmlns:xlink="http://www.w3.org/1999/xlink"
xmlns:author="http://www.sothink.com"
width="474px" height="272px"
xml:space="preserve">
<g id="611" transform="matrix(1, 0, 0, 1, 273.3, 161.9)">
<path style="fill:#75862D;fill-opacity:1" d="M191.85,-10.85L197.2 -11.05Q198.85 -6.4 200.2 -0.8L197.3 4.25Q195.65 15.4 193.15 26.65L192.9 27.75Q191.4 35.8 189.45 43.35L189 45.65L188.05 48.55Q176.2 89.5 154.25 97.95L146.2 100.65Q135.85 103.65 124.55 105.1L119 105.7L118.95 105.3L118.95 105.7Q85.95 108.6 56.25 96.45Q50.6 92.95 42.5 81.05Q30.95 64.2 21.4 38.35Q17.25 27.7 13.95 15.65Q12.55 12.9 7.7 8.4Q4 7.05 0.65 7.35L0.65 7.55L0.25 7.45L-0.35 7.4L-0.85 7.35Q-4.15 7.05 -7.8 8.4Q-12.65 12.9 -14.05 15.65Q-17.35 27.7 -21.5 38.35Q-31.05 64.2 -42.6 81.05Q-50.7 92.95 -56.35 96.45Q-86.05 108.6 -119.05 105.7L-119.05 105.3L-119.1 105.7L-124.65 105.1Q-135.95 103.65 -146.3 100.65L-154.35 97.95Q-176.3 89.5 -188.15 48.55L-189.1 45.65L-189.55 43.35L-191 37.35L-193.75 26.65L-196.05 16.9L-196 16.3Q-193.85 -0.3 -191.9 -8.5L-191.4 -10.45L-181.5 -12.1L-181.45 -11.35L-184.95 4.25Q-184.95 21.1 -181.5 36.55L-181.45 36.8Q-178.35 50.6 -172.5 63.3L-172.15 63.15Q-163.05 81.75 -150.05 87L-150.2 87.45L-142.85 89.95L-142.8 89.95L-133.25 92.55L-133.15 92.1L-123.15 93.85Q-104.4 96.3 -86.75 93.25Q-73.75 90.95 -61.35 85.6Q-56.25 82.25 -48.9 70.9L-48.05 69.65L-47.2 68.45L-47.3 68.4Q-35.75 49.6 -26.45 19.95L-26.15 19L-25.95 18.95L-25.6 15.9Q-25.3 12.55 -25.45 9.4Q-25.45 1.8 -27.15 -3.15L-6.8 -4.5L21.45 -6.25L29.85 -5.35L27.45 -3.95L27.4 -4.05L27.35 -3.9Q25.35 1.25 25.35 9.4Q25.2 12.55 25.5 15.9L25.85 18.95L26.05 19L26.35 19.95Q35.65 49.6 47.2 68.4L47.1 68.45L47.95 69.65L48.8 70.9Q56.15 82.25 61.25 85.6Q73.65 90.95 86.65 93.25Q104.3 96.3 123.05 93.85L133.05 92.1L133.15 92.55L142.7 89.95L142.75 89.95L150.1 87.45L149.95 87Q162.95 81.75 172.05 63.15L172.4 63.3Q178.25 50.6 181.35 36.8L181.4 36.55Q184.85 21.1 184.85 4.25L181.6 -10.4L191.85 -10.85" />
<path style="fill:#C9E05C;fill-opacity:1" d="M-181.45,-11.35L-181.5 -12.1L-191.4 -10.45Q-201.5 -13.45 -184 -31.4Q-145.65 -42.8 -105.95 -38.65L-106 -38.05Q-82.8 -35.8 -49.05 -25.95Q-37.85 -22.65 -25.45 -18.55L-24.65 -18.35L-9.9 -14.4Q-6.8 -13.35 -2.65 -13.35L-0.85 -13.35L-0.55 -13.35L-0.35 -13.35L0.25 -13.35L0.45 -13.35L0.65 -13.35L2.55 -13.35Q6.7 -13.35 9.8 -14.4L25.35 -18.55Q75.05 -35.1 106.5 -38.4Q145.7 -42.5 183.6 -31.5L187.65 -27.95Q193.3 -21.95 197.2 -11.05L191.85 -10.85L181.6 -10.4L181.4 -11.35L181.35 -11.45L181.3 -11.55L178.4 -13.5L170.05 -18.1Q159.1 -23.5 146.8 -26.55L146.85 -26.65L138.55 -28.45L138.5 -28.45L136.15 -28.9L124.95 -30.2L124.95 -30.1Q78.55 -33.8 29.85 -5.35L21.45 -6.25L-6.8 -4.5L-27.15 -3.15L-27.45 -3.9L-27.5 -4.05L-27.55 -3.95Q-77.5 -33.9 -125.05 -30.1L-125.05 -30.2L-136.25 -28.9L-138.6 -28.45L-138.65 -28.45L-146.95 -26.65L-146.9 -26.55Q-159.2 -23.5 -170.15 -18.1Q-174.7 -15.85 -178.5 -13.5L-180.3 -12.3L-181.25 -11.65L-181.4 -11.55L-181.45 -11.45L-181.45 -11.35" />
<path style="fill:#A5C055;fill-opacity:1" d="M-181.3,70.85L-181.6 70.9Q-188.05 55.4 -192.55 43.3Q-195.85 34.35 -198.1 26.8L-199.55 7.95Q-199.55 -2.8 -196.8 -14.05Q-191.55 -22.85 -184.2 -27.7Q-145.95 -38.95 -106.4 -34.8Q-74.95 -31.5 -25.25 -14.95L-9.7 -10.8Q-7.25 -9.95 -4.1 -9.8L-2.45 -9.75L-2.35 -9.75L-0.55 -9.75L-0.25 -9.75L-0.15 -9.75L-0.05 -9.75L0.45 -9.75L0.55 -9.75L0.65 -9.75L0.75 -9.75L0.95 -9.75L2.85 -9.75Q7 -9.75 10.1 -10.8L25.65 -14.95Q75.35 -31.5 106.8 -34.8Q146.35 -38.95 184.6 -27.7Q191.95 -22.85 197.2 -14.05Q199.95 -2.8 199.95 7.95L198.5 26.8Q196.25 34.35 192.95 43.3Q188.45 55.4 182 70.9L181.7 70.85L179.2 76.15L179.1 76.3Q169 96 154.55 101.55L146.5 104.25Q136.15 107.25 124.85 108.7L119.3 109.3L119.25 108.9L119.25 109.3Q86.25 112.2 56.55 100.05Q50.9 96.55 42.8 84.65Q31.25 67.8 21.7 41.95Q17.55 31.3 14.25 19.25Q12.85 16.5 8 12Q4.3 10.65 0.95 10.95L0.95 11.15L0.6 11.05L0.55 11.05L0.25 11L0.2 11L-0.15 11.05L-0.55 11.15L-0.55 10.95L-1.15 10.9L-2.6 10.95L-4.1 11.1L-7.6 12Q-12.45 16.5 -13.85 19.25Q-17.15 31.3 -21.3 41.95Q-30.85 67.8 -42.4 84.65Q-50.5 96.55 -56.15 100.05Q-85.85 112.2 -118.85 109.3L-118.85 108.9L-118.9 109.3L-124.45 108.7Q-135.75 107.25 -146.1 104.25L-154.15 101.55Q-168.6 96 -178.7 76.3L-178.8 76.15L-181.3 70.85M185.15,7.85L181.7 -7.75L181.65 -7.85L181.6 -7.95L178.7 -9.9L170.35 -14.5Q159.4 -19.9 147.1 -22.95L147.15 -23.05L138.85 -24.85L138.8 -24.85L136.45 -25.3L125.25 -26.6L125.25 -26.5Q77.7 -30.3 27.75 -0.35L27.7 -0.45L27.65 -0.3Q25.65 4.85 25.65 13Q25.5 16.15 25.8 19.5L26.15 22.55L26.35 22.6L26.65 23.55Q35.95 53.2 47.5 72L47.4 72.05L48.25 73.25L49.1 74.5Q56.45 85.85 61.55 89.2Q73.95 94.55 86.95 96.85Q104.6 99.9 123.35 97.45L133.35 95.7L133.45 96.15L143 93.55L143.05 93.55L150.4 91.05L150.25 90.6Q163.25 85.35 172.35 66.75L172.7 66.9Q178.55 54.2 181.65 40.4L181.7 40.15Q185.15 24.7 185.15 7.85M-25.25,13Q-25.25 4.85 -27.25 -0.3L-27.3 -0.45L-27.35 -0.35Q-77.3 -30.3 -124.85 -26.5L-124.85 -26.6L-136.05 -25.3L-138.4 -24.85L-138.45 -24.85L-146.75 -23.05L-146.7 -22.95Q-159 -19.9 -169.95 -14.5Q-174.5 -12.25 -178.3 -9.9L-181.2 -7.95L-181.25 -7.85L-181.3 -7.75L-184.75 7.85Q-184.75 24.7 -181.3 40.15L-181.25 40.4Q-178.15 54.2 -172.3 66.9L-171.95 66.75Q-162.85 85.35 -149.85 90.6L-150 91.05Q-146.35 92.4 -142.65 93.55L-142.6 93.55L-133.05 96.15L-132.95 95.7L-122.95 97.45Q-104.2 99.9 -86.55 96.85Q-73.55 94.55 -61.15 89.2Q-56.05 85.85 -48.7 74.5L-47.85 73.25L-47 72.05L-47.1 72Q-35.55 53.2 -26.25 23.55L-25.95 22.6L-25.75 22.55L-25.4 19.5Q-25.1 16.15 -25.25 13" />
<path style="fill:none;stroke-width:0.05;stroke-linecap:round;stroke-linejoin:round;stroke-miterlimit:3;stroke:#FF0000;stroke-opacity:0" d="M-2.35,-9.75L-0.55 -9.75L-0.25 -9.75L-0.15 -9.75L-0.05 -9.75L0.45 -9.75L0.55 -9.75M0.95,-9.75L2.85 -9.75Q7 -9.75 10.1 -10.8L25.65 -14.95Q75.35 -31.5 106.8 -34.8Q146.35 -38.95 184.6 -27.7Q191.95 -22.85 197.2 -14.05Q199.95 -2.8 199.95 7.95L198.5 26.8Q196.25 34.35 192.95 43.3Q188.45 55.4 182 70.9L179.75 76.15L179.2 76.15L179.1 76.3Q169 96 154.55 101.55L146.5 104.25Q136.15 107.25 124.85 108.7L119.3 109.3L119.25 109.3Q86.25 112.2 56.55 100.05Q50.9 96.55 42.8 84.65Q31.25 67.8 21.7 41.95Q17.55 31.3 14.25 19.25Q12.85 16.5 8 12Q4.3 10.65 0.95 10.95L0.6 11.05L0.55 11.05L0.25 11L0.2 11L-0.15 11.05L-0.55 10.95L-1.15 10.9L-2.6 10.95L-4.1 11.1L-7.6 12Q-12.45 16.5 -13.85 19.25Q-17.15 31.3 -21.3 41.95Q-30.85 67.8 -42.4 84.65Q-50.5 96.55 -56.15 100.05Q-85.85 112.2 -118.85 109.3L-118.9 109.3L-124.45 108.7Q-135.75 107.25 -146.1 104.25L-154.15 101.55Q-168.6 96 -178.7 76.3L-178.8 76.15L-179.35 76.15L-181.6 70.9Q-188.05 55.4 -192.55 43.3Q-195.85 34.35 -198.1 26.8L-199.55 7.95Q-199.55 -2.8 -196.8 -14.05Q-191.55 -22.85 -184.2 -27.7Q-145.95 -38.95 -106.4 -34.8Q-74.95 -31.5 -25.25 -14.95L-9.7 -10.8Q-7.25 -9.95 -4.1 -9.8L-2.45 -9.75M0.25,11L0.45 11L0.65 11L0.95 10.95M0.65,11L0.55 11.05M25.8,19.5Q24.6 11.55 25.5 5.6L27.05 0.05L27.65 -0.3L27.75 -0.35Q77.7 -30.3 125.25 -26.5L138.8 -24.75L147.1 -22.95Q159.4 -19.9 170.35 -14.5L178.7 -9.9L181.6 -7.95L181.65 -7.85L181.7 -7.75Q186.6 5.2 185.45 22L185.35 22.55L185.2 23.55Q183.75 32.2 181.7 40.15L181.65 40.4Q177.7 55.85 172.35 66.75Q163.25 85.35 150.25 90.6L142.95 93.2L133.35 95.7L123.35 97.45Q104.6 99.9 86.95 96.85Q73.95 94.55 61.55 89.2Q56.45 85.85 49.1 74.5L48.25 73.25M47.5,72Q35.95 53.2 26.65 23.55L26.35 22.6M25.8,19.5L26.35 22.6M181.7,70.85L179.2 76.15M47.5,72L48.25 73.25M-181.25,40.4L-181.3 40.15Q-183.35 32.2 -184.8 23.55L-184.95 22.55L-185.05 22Q-186.2 5.2 -181.3 -7.75L-181.25 -7.85L-181.2 -7.95L-178.3 -9.9Q-174.5 -12.25 -169.95 -14.5Q-159 -19.9 -146.7 -22.95L-138.4 -24.75Q-131.65 -26 -124.85 -26.5Q-77.3 -30.3 -27.35 -0.35L-27.25 -0.3L-26.65 0.05L-25.1 5.6Q-24.2 11.55 -25.4 19.5L-25.95 22.6L-26.25 23.55Q-35.55 53.2 -47.1 72L-47.85 73.25L-48.7 74.5Q-56.05 85.85 -61.15 89.2Q-73.55 94.55 -86.55 96.85Q-104.2 99.9 -122.95 97.45L-132.95 95.7Q-137.85 94.65 -142.55 93.2L-149.85 90.6Q-162.85 85.35 -171.95 66.75Q-177.3 55.85 -181.25 40.4M-0.55,10.95L-0.5 10.95L-0.15 11.05M-178.8,76.15L-181.3 70.85" />
<linearGradient
id="LinearGradID_4851" gradientUnits="userSpaceOnUse" gradientTransform="matrix(0.0814056, -0.0372925, 0.040329, 0.0861359, -114.35, 19.3)" spreadMethod ="pad" x1="-819.2" y1="0" x2="819.2" y2="0" >
<stop  offset="0" style="stop-color:#000000;stop-opacity:0.180392" />
<stop  offset="0.501961" style="stop-color:#FFFFFF;stop-opacity:0.462745" />
<stop  offset="1" style="stop-color:#000000;stop-opacity:0.121569" />
</linearGradient>
<path style="fill:url(#LinearGradID_4851) " d="M-181.55,71L-181.6 70.9L-189.45 51.4L-190 49.55L-190.25 48.45L-190.5 48.5L-190.4 49L-192.15 44.3L-192.55 43.3L-192.15 43.3L-192.45 -20.2Q-188.95 -24.45 -184.7 -27.35Q-177.4 -29.55 -170 -31.25L-127 -35.9L-111.55 -35.3L-105.7 -34.8L-98.9 -33.85Q-91.05 -32.55 -82.25 -29.95L-82.1 -29.9L-77.5 -28.9L-72.75 -27.8Q-62.45 -25.35 -50.9 -22L-50.8 -21.95L-38.9 -18.4L-26.4 -14.35L-25.45 -14.1L-18.35 -12.25L-10.85 -10.2L-9.95 -9.9L-9.85 -9.9L-4.15 -9.15L-3.6 -9.15L-2.45 -9.15L-1.8 -9.15L-1.5 -9.15L-1.3 -9.15L-0.7 -9.15L-0.5 -9.15L-0.3 -9.15L1.6 -9.15L2.95 -9.15Q6.25 -9.3 8.85 -10.2L8.9 -10.2L10.15 -10.55L10.2 -10.55L14.05 -11.6L15.75 -12.05L15.8 -12.1L15.8 -12L15.55 -11.45L15.5 -11.4L15.5 -11.35L15.45 -11.3L12.8 -5.7Q11.75 -3.3 11.2 -1.5L10.7 1.15L10.65 1.5L9.85 1.35Q8.65 6.95 8.65 12.2L8.65 12.5L8.65 12.65L8.8 14.55L8.7 14.45L6.75 12.6Q3.05 11.25 -0.25 11.55L-0.3 11.55L-0.7 11.65L-1.3 11.6L-1.8 11.55Q-4.75 11.3 -7.95 12.35L-8.75 12.6Q-13.6 17.1 -15 19.85Q-18.3 31.9 -22.45 42.55Q-32 68.4 -43.55 85.25Q-51.25 96.6 -56.75 100.3Q-86.2 112.15 -118.85 109.3L-118.9 109.3L-124.45 108.7Q-135.75 107.25 -146.1 104.25L-154.15 101.55Q-168.6 96 -178.7 76.3L-178.8 76.15L-179.35 76.15L-181.55 71M-186.35,19.7L-186.2 22.6L-186.1 23.15L-185.95 24.15L-183.55 36.2L-182.45 40.75L-182.4 41Q-179.3 54.8 -173.45 67.5L-173.1 67.35Q-164 85.95 -151 91.2L-151.15 91.65L-143.8 94.15L-143.75 94.15L-134.2 96.75L-134.1 96.3L-124.1 98.05Q-105.35 100.5 -87.7 97.45Q-74.7 95.15 -62.3 89.8Q-57.2 86.45 -49.85 75.1L-49 73.85L-48.15 72.65L-48.25 72.6Q-36.7 53.8 -27.4 24.15L-27.1 23.2L-26.9 23.15L-26.55 20.1L-26.4 19.2Q-25.9 15.4 -25.85 12.05Q-25.85 8.9 -26.25 6.2L-27.8 0.65L-28.4 0.3L-28.45 0.15L-28.5 0.25Q-78.45 -29.7 -126 -25.9L-126 -26L-137.2 -24.7L-139.55 -24.25L-139.6 -24.25L-147.9 -22.45L-147.85 -22.35Q-160.15 -19.3 -171.1 -13.9Q-175.65 -11.65 -179.45 -9.3L-182.35 -7.35L-182.4 -7.25L-182.4 -7.15Q-185.5 1 -186.15 10.65L-186.35 19.7M-199.45,7.95L-199.35 8.45L-199.5 8.4L-199.55 7.95L-199.55 7.6L-199.45 7.95" />
<linearGradient
id="LinearGradID_4852" gradientUnits="userSpaceOnUse" gradientTransform="matrix(-0.0774231, 0.0453033, 0.045105, 0.0831604, 79.3, 21.1)" spreadMethod ="pad" x1="-819.2" y1="0" x2="819.2" y2="0" >
<stop  offset="0" style="stop-color:#000000;stop-opacity:0.25098" />
<stop  offset="0.501961" style="stop-color:#FFFFFF;stop-opacity:0.372549" />
<stop  offset="1" style="stop-color:#000000;stop-opacity:0.0823529" />
</linearGradient>
<path style="fill:url(#LinearGradID_4852) " d="M191.95,32.9L192.1 32.3L192.15 43.3L192.95 43.3L192.15 45.45L182 70.9L181.95 70.95L179.75 76.15L179.2 76.15L179.1 76.3Q169 96 154.55 101.55L146.5 104.25Q136.15 107.25 124.85 108.7L119.3 109.3L119.25 109.3Q86.25 112.2 56.55 100.05Q50.9 96.55 42.8 84.65Q31.25 67.8 21.7 41.95Q17.55 31.3 14.25 19.25Q12.95 16.7 8.65 12.65L8.65 12.5L8.65 12.2Q8.75 7.4 9.85 2.3L10.65 2.45L10.65 2.35L10.7 1.55L10.7 1.5L10.8 1.1L11.2 -0.55L11.45 -1.35L12.8 -4.75L15.8 -11.15L16 -11.2L24.4 -13.4Q74.1 -29.95 105.55 -33.25Q147.9 -37.7 188.75 -24.5L191.9 -21.35L192 5.7Q191.55 7.9 191.55 10.8Q191.55 11.6 192.05 13.85L192.1 32.1L191.95 32.9M24.9,24.1L25.1 24.15L25.4 25.1Q34.7 54.75 46.25 73.55L46.15 73.6L47 74.8L47.85 76.05Q55.2 87.4 60.3 90.75Q72.7 96.1 85.7 98.4Q103.35 101.45 122.1 99L132.1 97.25L132.2 97.7L141.75 95.1L141.8 95.1L149.15 92.6L149 92.15Q162 86.9 171.1 68.3L171.45 68.45Q177.3 55.75 180.4 41.95L180.45 41.7Q182.5 33.75 183.95 25.1L184.1 24.1L184.2 23.55Q185.35 6.75 180.45 -6.2L180.4 -6.3L180.35 -6.4L177.45 -8.35Q173.65 -10.7 169.1 -12.95Q158.15 -18.35 145.85 -21.4L145.9 -21.5L137.6 -23.3L137.55 -23.3L135.2 -23.75L124 -25.05L124 -24.95Q76.45 -28.75 26.5 1.2L26.45 1.1L26.4 1.25L25.8 1.6L24.25 7.15Q23.35 13.1 24.55 21.05L24.9 24.1M195.7,-16.4L194.75 -16.4L195.4 -16.85L195.7 -16.4M188.05,50.8L188.5 48.5L188 50.5L187.1 53.7L188.05 50.8" />
<path style="fill:#A5C055;fill-opacity:1" d="M-190.4,49L-190.5 48.5L-190.35 49.15L-190.2 49.6L-190 50.5L-189.7 51.45L-189.35 52.85L-189.1 53.7L-190.05 50.8L-190.4 49.05L-190.4 49M24.4,14.55Q24.25 17.7 24.55 21.05Q23.35 13.1 24.25 7.15L25.8 1.6L26.4 1.25Q24.4 6.4 24.4 14.55M180.45,-6.2Q185.35 6.75 184.2 23.55L184.1 24.1L183.95 25.1Q182.5 33.75 180.45 41.7Q183.9 26.25 183.9 9.4L180.45 -6.2M192.1,32.1L192.85 27.85L193 28.05L192.2 31.8L192.1 32.3L191.95 32.9L192.1 32.1M187.1,53.7L188 50.5L188.5 48.5L188.05 50.8L187.1 53.7M-186.15,10.65Q-185.35 1.55 -182.4 -6.2L-185.9 9.4Q-185.9 23.3 -183.55 36.2L-185.95 24.15L-186.1 23.15L-186.2 22.6L-186.35 19.7L-186.15 10.65M-26.4,19.2L-26.4 14.55Q-26.4 6.4 -28.4 1.25L-27.8 1.6L-26.25 7.15Q-25.9 9.45 -25.85 12.05Q-25.9 15.4 -26.4 19.2M-0.45,12.55L-0.3 12.5L-0.3 12.7L-0.7 12.6L-0.45 12.55" />
<linearGradient
id="LinearGradID_4853" gradientUnits="userSpaceOnUse" gradientTransform="matrix(0.00622559, -0.000366211, 0.00228882, 0.0393372, 197.05, 11.8)" spreadMethod ="pad" x1="-819.2" y1="0" x2="819.2" y2="0" >
<stop  offset="0" style="stop-color:#000000;stop-opacity:0.180392" />
<stop  offset="1" style="stop-color:#000000;stop-opacity:0.662745" />
</linearGradient>
<path style="fill:url(#LinearGradID_4853) " d="M197.2,-14.05Q199.35 -5.25 199.85 3.3L199.95 7.95L198.5 26.8L195 37.65L192.95 43.3L192.15 43.3L192.1 32.3L192.2 31.8L193 28.05L192.85 27.85L192.1 32.1L192.05 13.85Q191.55 11.6 191.55 10.8Q191.55 7.9 192 5.7L191.9 -21.35L194.75 -17.75L195.4 -16.85L194.75 -16.4L195.7 -16.4L195.75 -15.75L196.05 -15.9L197.2 -14.05" />
<linearGradient
id="LinearGradID_4854" gradientUnits="userSpaceOnUse" gradientTransform="matrix(-0.00572205, 0.000305176, -0.00100708, -0.0192261, 199.9, -6.55)" spreadMethod ="pad" x1="-819.2" y1="0" x2="819.2" y2="0" >
<stop  offset="0" style="stop-color:#000000;stop-opacity:0.392157" />
<stop  offset="1" style="stop-color:#000000;stop-opacity:0.160784" />
</linearGradient>
<path style="fill:url(#LinearGradID_4854) " d="M196.05,-15.9L195.75 -15.75L195.7 -16.4L196.05 -15.9" />
<linearGradient
id="LinearGradID_4855" gradientUnits="userSpaceOnUse" gradientTransform="matrix(0.00816345, -0.000289917, 0.00151062, 0.0386505, -196.7, 10.75)" spreadMethod ="pad" x1="-819.2" y1="0" x2="819.2" y2="0" >
<stop  offset="0" style="stop-color:#000000;stop-opacity:0.811765" />
<stop  offset="1" style="stop-color:#000000;stop-opacity:0.121569" />
</linearGradient>
<path style="fill:url(#LinearGradID_4855) " d="M-198.1,26.8L-199.5 8.45L-199.35 8.45L-199.45 7.95L-199.55 7.6Q-199.5 -3 -196.8 -14.05L-196.65 -14.05L-196.65 -14.3Q-194.7 -17.55 -192.45 -20.2L-192.15 43.3L-192.55 43.3Q-195.85 34.35 -198.1 26.8M-195.85,20.25L-195.7 21.2L-195.45 23.1L-194.9 23L-195.35 20.2L-195.85 20.25" />
<linearGradient
id="LinearGradID_4856" gradientUnits="userSpaceOnUse" gradientTransform="matrix(-0.00665283, 0.000640869, -0.00274658, -0.0281982, -200, -4.75)" spreadMethod ="pad" x1="-819.2" y1="0" x2="819.2" y2="0" >
<stop  offset="0" style="stop-color:#000000;stop-opacity:0.0431373" />
<stop  offset="1" style="stop-color:#000000;stop-opacity:0.380392" />
</linearGradient>
<path style="fill:url(#LinearGradID_4856) " d="M-196.65,-14.05L-196.8 -14.05L-196.65 -14.3L-196.65 -14.05M-195.35,20.2L-194.9 23L-195.45 23.1L-195.7 21.2L-195.85 20.25L-195.35 20.2" />
<linearGradient
id="LinearGradID_4857" gradientUnits="userSpaceOnUse" gradientTransform="matrix(0.00535583, -0.000335693, 0.00238037, 0.0386505, -194.9, 11.65)" spreadMethod ="pad" x1="-819.2" y1="0" x2="819.2" y2="0" >
<stop  offset="0" style="stop-color:#000000;stop-opacity:0.180392" />
<stop  offset="0.501961" style="stop-color:#FFFFFF;stop-opacity:0.462745" />
<stop  offset="1" style="stop-color:#000000;stop-opacity:0.121569" />
</linearGradient>
<path style="fill:url(#LinearGradID_4857) " d="M-199.5,8.45L-199.5 8.4L-199.35 8.45L-199.5 8.45" />
<path style="fill:none;stroke-width:0.05;stroke-linecap:round;stroke-linejoin:round;stroke-miterlimit:3;stroke:#FF0000;stroke-opacity:0" d="M-98.9,-33.85L-106.4 -34.8L-111.55 -35.3L-127 -35.9L-170 -31.25M-184.7,-27.35Q-188.95 -24.45 -192.45 -20.2M-199.5,8.45L-198.1 26.8Q-195.85 34.35 -192.55 43.3L-192.15 44.3L-190.4 49M-189.45,51.4L-181.6 70.9L-181.55 71L-178.8 76.15L-178.7 76.3Q-168.6 96 -154.15 101.55L-146.1 104.25Q-135.75 107.25 -124.45 108.7L-118.9 109.3L-118.85 109.3Q-86.2 112.15 -56.75 100.3M-7.95,12.35L-7.6 12L-4.1 11.1L-2.6 10.95L-1.15 10.9L-0.55 10.95L-0.5 10.95L-0.15 11.05L0.2 11L0.25 11L0.45 11L0.65 11L0.95 10.95Q4.3 10.65 8 12L8.65 12.65M188.75,-24.5Q186.75 -26.3 184.6 -27.7Q146.35 -38.95 106.8 -34.8Q75.35 -31.5 25.65 -14.95L15.75 -12.4L15.7 -12.35L10.1 -10.8L8.85 -10.4L8.8 -10.4L2.85 -9.75L0.95 -9.75M0.95,10.95L0.55 11.05L0.25 11M0.65,11L0.55 11.05M-7.95,12.35Q-12.5 16.6 -13.85 19.25Q-17.15 31.3 -21.3 41.95Q-30.85 67.8 -42.4 84.65Q-50.5 96.55 -56.15 100.05L-56.75 100.3M192.95,43.3L192.15 45.45L182 70.9L181.95 70.95L179.75 76.15L179.2 76.15L179.1 76.3Q169 96 154.55 101.55L146.5 104.25Q136.15 107.25 124.85 108.7L119.3 109.3L119.25 109.3Q86.25 112.2 56.55 100.05Q50.9 96.55 42.8 84.65Q31.25 67.8 21.7 41.95Q17.55 31.3 14.25 19.25Q12.95 16.7 8.65 12.65M192.95,43.3L195 37.65L198.5 26.8L199.95 7.95L199.85 3.3Q199.35 -5.25 197.2 -14.05L196.05 -15.9L195.7 -16.4L195.4 -16.85L194.75 -17.75L191.9 -21.35M188.75,-24.5L191.9 -21.35M181.95,70.95L179.2 76.15M-184.7,-27.35L-184.2 -27.7Q-177.15 -29.8 -170 -31.25M-196.65,-14.3Q-194.7 -17.55 -192.45 -20.2M-196.65,-14.3L-196.8 -14.05M-199.5,8.45L-199.5 8.4L-199.55 7.95L-199.55 7.6Q-199.5 -3 -196.8 -14.05M-98.9,-33.85Q-91 -32.75 -82 -30.85L-77.35 -29.8L-77.3 -29.8L-72.65 -28.7L-72.5 -28.7Q-62.2 -26.25 -50.65 -22.9L-50.6 -22.85L-50.55 -22.85L-38.65 -19.25L-25.25 -14.95L-18.1 -13.1L-10.6 -11.05L-10.55 -11.05L-9.7 -10.8Q-7.25 -9.95 -4.1 -9.8L-2.45 -9.75M-0.15,11.05L-0.55 10.95M-189.45,51.4L-190.35 49.15L-190.4 49.05L-190.4 49M-178.8,76.15L-179.35 76.15L-181.55 71" />
<path style="fill:#C9E05C;fill-opacity:1" d="M-273.3,-161.2L-273.25 -161.2Q-270.9 -160.15 -269.05 -160.95Q-268.15 -161.35 -267.75 -161.9L-267.7 -161.9Q-268.15 -161.3 -269.05 -160.9Q-270.85 -160.1 -273.25 -161.15L-273.3 -161.15L-273.3 -161.2M-262.7,-161.1L-262.65 -161.15Q-260.5 -160.15 -258.75 -160.8Q-257.9 -161.1 -257.45 -161.6Q-257.85 -161.1 -258.75 -160.7Q-260.5 -160.1 -262.65 -161.1L-262.7 -161.1M-257.35,-161.65L-257.4 -161.6L-257.45 -161.6L-257.4 -161.65L-257.35 -161.65" />
<radialGradient
id="RadialGradID_4858" gradientUnits="userSpaceOnUse" gradientTransform="matrix(0.0223236, 0.00730896, -0.00640869, 0.0256348, -0.95, 0.25)" spreadMethod ="pad" cx="0" cy="0" r="819.2" fx="0" fy="0" >
<stop  offset="0.0784314"  style="stop-color:#FFFFFF;stop-opacity:0.231373" />
<stop  offset="1"  style="stop-color:#FFFFFF;stop-opacity:0" />
</radialGradient>
<path style="fill:url(#RadialGradID_4858) " d="M12.1,10.15Q1.6 2.85 -7.05 7.1Q-11.3 9.5 -13.5 12.05Q-11.25 6.85 -14.3 -1.4Q-15.25 -4 -18.15 -7.4Q-9.6 -4.85 2.4 -5.9L18.05 -9.15Q12.05 -4.9 12.1 2.05L12.1 10.15" />
<radialGradient
id="RadialGradID_4859" gradientUnits="userSpaceOnUse" gradientTransform="matrix(0.00154114, 0.00050354, -0.000442505, 0.00177002, -30.6, -82.35)" spreadMethod ="pad" cx="0" cy="0" r="819.2" fx="0" fy="0" >
<stop  offset="0.0784314"  style="stop-color:#FFFFFF;stop-opacity:0.333333" />
<stop  offset="1"  style="stop-color:#FFFFFF;stop-opacity:0" />
</radialGradient>
<path style="fill:url(#RadialGradID_4859) " d="M-31.35,-82.45L-31.6 -82.8L-30.35 -82.7L-29.55 -82.85L-29.85 -82.3L-29.85 -81.9L-30.9 -82L-31.3 -81.7Q-31.15 -82 -31.35 -82.45" />
<path style="fill:#C9E05C;fill-opacity:1" d="M166.95,76.8L166.85 77.15Q159.65 87.25 150.6 90.9L143.3 93.5L143.25 93.5Q138.55 94.95 133.6 96L123.6 97.75Q104.75 100.2 87.05 97.15Q73.95 94.85 61.5 89.45L61.45 89.45L59.15 87.65L61.9 88.55Q74.25 93.85 87.2 96.15Q104.75 99.2 123.45 96.75L133.4 95L142.95 92.55L150.25 89.95Q162.6 82.95 166 78.15L166.95 76.8M-60.6,89.45L-60.7 89.45Q-73.15 94.85 -86.2 97.15Q-103.95 100.2 -122.75 97.75L-132.8 96L-142.45 93.5L-149.75 90.9Q-158.5 87.4 -165.45 77.95L-162.75 80.95Q-158.25 86.35 -149.4 89.95L-142.1 92.55L-142.15 92.55L-132.6 95L-122.6 96.75Q-103.95 99.2 -86.35 96.15Q-73.45 93.85 -61.1 88.55L-61.15 88.6Q-57.75 86.85 -55.3 84.5Q-58.2 87.85 -60.6 89.45" />
</g>
</svg>
