<?xml version="1.0" encoding="utf-8"?>
<svg version="1.1" id="Layer_1"
xmlns="http://www.w3.org/2000/svg"
xmlns:xlink="http://www.w3.org/1999/xlink"
xmlns:author="http://www.sothink.com"
width="23px" height="8px"
xml:space="preserve">
<g id="614" transform="matrix(1, 0, 0, 1, 11, 3)">
<path style="fill:#220902;fill-opacity:1" d="M0.55,-1L0.5 -0.95L0.5 -1L0.55 -1" />
<path style="fill:#3F2820;fill-opacity:1" d="M-0.05,-1.2L0.55 -1L0.6 -1L0.55 -1L0.5 -1M0.5,-1L-0.05 -1.05L-0.1 -1.05L-0.45 -1L-1.2 -0.8L-1.2 -0.55L-1.35 -0.35L-1.4 -0.4L-1.55 -0.4L-1.15 -1.05L-0.45 -1.2L-0.1 -1.2L-0.05 -1.2" />
<path style="fill:#3A211C;fill-opacity:1" d="M-8.85,0.75L-9.05 -0.25L-8.95 -0.2L-8.85 0.75M-7.35,3.4L-6.65 3.8L-5.75 4.1L-5.1 4.15L-5.75 4.15L-6.5 3.95L-6.9 3.8L-7.4 3.45L-7.95 2.7L-7.35 3.4M-1.5,0.6L-1.55 1.15L-1.7 1.6L-2.25 2.8L-2.3 2.85L-2.7 3.35L-2.75 3.4L-3.65 3.85L-2.6 2.8Q-1.9 2.1 -1.65 1.15L-1.4 -0.4L-1.35 -0.35L-1.5 0.6" />
<path style="fill:#9C7C6F;fill-opacity:1" d="M-1.95,-0.15L-2.15 0.6L-2.1 1.35L-2.35 0.55L-2.1 0L-2 -0.5L-1.95 -0.5L-1.95 -0.15M-2.95,2.8L-3.25 3.1L-3.75 3.45L-4 3.55L-4.8 3.75L-5.9 3.65L-6.6 3.45L-6.75 3.35L-6.85 3.3L-6.9 3.25L-6.95 3.25L-7 3.2L-7.1 3.15L-7.15 3.1L-7.35 2.95L-7.5 2.8L-7.7 2.55L-7.75 2.5L-7.95 2.15L-8.2 1.6L-8.5 0.35L-8.2 1.15Q-7.6 3.35 -5.7 3.55L-5.15 3.6L-4.2 3.4L-3.2 2.8L-2.8 2.5L-2.3 1.85L-2.95 2.8" />
<path style="fill:#AE9E9E;fill-opacity:1" d="M-8.85,-1.5Q-8.8 -1.35 -8.9 -1.35Q-9.45 -1.1 -9.6 -1.65L-8.9 -1.6L-8.85 -1.5" />
<path style="fill:#3B2117;fill-opacity:1" d="M-9,-0.55L-9.05 -0.25L-9.45 -0.6L-9.8 -0.8L-9.85 -1.1L-9 -0.55" />
<path style="fill:#080000;fill-opacity:1" d="M-3.75,-1.65L-3.35 -1.65L-2.9 -1.45L-2.65 -1.3L-2.3 -1L-3.75 -1.65M-8.55,-0.05L-8.4 -0.6Q-8.15 -1.2 -7.7 -1.45L-7.35 -1.65L-6.95 -1.65L-7.2 -1.55L-7.65 -1.3L-8.2 -0.6L-8.5 -0.05L-8.5 0.1L-8.55 -0.05" />
<path style="fill:#000000;fill-opacity:0.101961" d="M-1.2,-0.55L-1.2 -0.8L-0.45 -1L-0.1 -1.05L-0.05 -1.05L0.5 -1L0.5 -0.95L0.55 -0.65L-0.1 -0.6L-0.35 -0.6L-0.45 -0.55Q-1.25 0.15 -1.45 1.15L-1.65 2L-1.2 -0.55M-3.65,3.85L-2.75 3.4L-2.7 3.35L-2.3 2.85L-2.25 2.8L-1.95 2.55L-2.4 3.3L-2.45 3.4Q-2.85 4.1 -3.9 4.35L-5.8 4.4L-6.75 4.15L-8 3.15L-8.3 2.8L-8.65 2.1L-8.9 1.6L-9.45 0.2L-9.7 -0.6L-9.8 -0.8L-9.45 -0.6L-9.05 -0.25L-8.85 0.75L-8.85 0.8L-8.75 1.2L-7.95 2.7L-7.4 3.45L-6.9 3.8L-6.5 3.95L-5.75 4.15L-5.1 4.15L-3.65 3.85M-8.2,-0.6L-7.65 -1.3L-7.2 -1.55L-6.95 -1.65Q-5.5 -2 -3.75 -1.65L-2.3 -1L-2 -0.5L-2.55 -0.85L-3.05 -1.2L-3.55 -1.35L-6.85 -1.2L-7.45 -0.95L-7.9 -0.6L-8.5 -0.05L-8.2 -0.6" />
<linearGradient
id="LinearGradID_4862" gradientUnits="userSpaceOnUse" gradientTransform="matrix(0.00265503, -1.52588e-005, 1.52588e-005, 0.000747681, -0.3, -1.85)" spreadMethod ="pad" x1="-819.2" y1="0" x2="819.2" y2="0" >
<stop  offset="0.054902" style="stop-color:#251611;stop-opacity:1" />
<stop  offset="0.486275" style="stop-color:#745B54;stop-opacity:1" />
<stop  offset="0.956863" style="stop-color:#1F0D0B;stop-opacity:1" />
</linearGradient>
<path style="fill:url(#LinearGradID_4862) " d="M-9.7,-1.9L-8.45 -2L-7.8 -2.1L-8.45 -1.9L-9.4 -1.85L-9.7 -1.9M-7.35,-2.25L-3.2 -2.15L-1.35 -1.6L-0.45 -1.65L-0.1 -1.65L-0.05 -1.65L1 -1.5L0.9 -1.4L-0.05 -1.35L-0.1 -1.35L-0.45 -1.35L-1.5 -1.25L-2.3 -1.65L-7.35 -2.25" />
<linearGradient
id="LinearGradID_4863" gradientUnits="userSpaceOnUse" gradientTransform="matrix(-0.00436401, 0.000305176, -9.15527e-005, -0.00135803, -5.3, -1.3)" spreadMethod ="pad" x1="-819.2" y1="0" x2="819.2" y2="0" >
<stop  offset="0.054902" style="stop-color:#080000;stop-opacity:1" />
<stop  offset="0.501961" style="stop-color:#4C3024;stop-opacity:1" />
<stop  offset="0.972549" style="stop-color:#1D0600;stop-opacity:1" />
</linearGradient>
<path style="fill:url(#LinearGradID_4863) " d="M-8.95,-0.2L-9.05 -0.25L-9 -0.55L-8.95 -0.6L-8.75 -0.9L-8.2 -1.65L-7.6 -2.2L-7.6 -2.25L-7.35 -2.25L-2.3 -1.65L-1.5 -1.25L-0.45 -1.35L-0.1 -1.35L-0.05 -1.35L0.9 -1.4L0.55 -1L-0.05 -1.2L-0.1 -1.2L-0.45 -1.2L-1.15 -1.05L-1.55 -0.4L-1.95 -0.5L-2 -0.5L-2.3 -1L-2.65 -1.3L-2.9 -1.45L-3.35 -1.65L-3.75 -1.65Q-5.5 -2 -6.95 -1.65L-7.35 -1.65L-7.7 -1.45Q-8.15 -1.2 -8.4 -0.6L-8.55 -0.05L-8.95 -0.2M-2.25,2.8L-1.7 1.6L-1.55 1.15L-1.5 0.6L-1.35 -0.35L-1.2 -0.55L-1.65 2L-1.95 2.55L-2.25 2.8" />
<radialGradient
id="RadialGradID_4864" gradientUnits="userSpaceOnUse" gradientTransform="matrix(0.011322, -0.000610352, 0.000442505, 0.00828552, -4.95, -0.45)" spreadMethod ="pad" cx="0" cy="0" r="819.2" fx="0" fy="0" >
<stop  offset="0.0941176"  style="stop-color:#FFFFFF;stop-opacity:0" />
<stop  offset="0.941176"  style="stop-color:#FFFFFF;stop-opacity:0.431373" />
</radialGradient>
<path style="fill:url(#RadialGradID_4864) " d="M-2.3,1.85L-2.8 2.5L-3.2 2.8L-4.2 3.4L-5.15 3.6L-5.7 3.55Q-7.6 3.35 -8.2 1.15L-8.5 0.35L-8.5 0.1L-8.5 -0.05L-7.9 -0.6L-7.45 -0.95L-6.85 -1.2L-3.55 -1.35L-3.05 -1.2L-2.55 -0.85L-2 -0.5L-2.1 0L-2.35 0.55L-2.1 1.35L-2.3 1.85M-7.1,3.15L-7 3.2L-6.95 3.25L-7.1 3.15" />
<linearGradient
id="LinearGradID_4865" gradientUnits="userSpaceOnUse" gradientTransform="matrix(-0.00498962, 0.000686646, -0.000411987, -0.00297546, -5.85, 1.85)" spreadMethod ="pad" x1="-819.2" y1="0" x2="819.2" y2="0" >
<stop  offset="0.054902" style="stop-color:#3C251D;stop-opacity:1" />
<stop  offset="0.517647" style="stop-color:#8D7068;stop-opacity:1" />
<stop  offset="0.988235" style="stop-color:#6D493D;stop-opacity:1" />
</linearGradient>
<path style="fill:url(#LinearGradID_4865) " d="M-5.1,4.15L-5.75 4.1L-6.65 3.8L-7.35 3.4L-7.95 2.7L-8.75 1.2L-8.85 0.8L-8.85 0.75L-8.95 -0.2L-8.55 -0.05L-8.5 0.1L-8.5 0.35L-8.2 1.6L-7.95 2.15L-7.75 2.5L-7.7 2.55L-7.5 2.8L-7.35 2.95L-7.15 3.1L-7.1 3.15L-6.95 3.25L-6.9 3.25L-6.85 3.3L-6.75 3.35L-6.6 3.45L-5.9 3.65L-4.8 3.75L-4 3.55L-3.75 3.45L-3.25 3.1L-2.95 2.8L-2.3 1.85L-2.1 1.35L-2.15 0.6L-1.95 -0.15L-1.95 -0.5L-1.55 -0.4L-1.4 -0.4L-1.65 1.15Q-1.9 2.1 -2.6 2.8L-3.65 3.85L-5.1 4.15" />
<linearGradient
id="LinearGradID_4866" gradientUnits="userSpaceOnUse" gradientTransform="matrix(-0.000762939, 0.000869751, -0.000732422, -0.000671387, -9.15, -1.5)" spreadMethod ="pad" x1="-819.2" y1="0" x2="819.2" y2="0" >
<stop  offset="0.0627451" style="stop-color:#060000;stop-opacity:1" />
<stop  offset="0.956863" style="stop-color:#3C1B14;stop-opacity:1" />
</linearGradient>
<path style="fill:url(#LinearGradID_4866) " d="M-8.2,-1.65L-8.75 -0.9L-8.95 -0.6L-9 -0.55L-9.85 -1.1L-9.75 -1.85L-9.7 -1.9L-9.4 -1.85L-8.45 -1.9L-7.8 -2.1L-7.6 -2.2L-8.2 -1.65M-8.9,-1.6L-9.6 -1.65Q-9.45 -1.1 -8.9 -1.35Q-8.8 -1.35 -8.85 -1.5L-8.9 -1.6" />
<path style="fill:#B4ABA6;fill-opacity:1" d="M-10.35,-2Q-10.05 -1.85 -10.05 -1.55L-10.15 -1.35L-10.8 -2.15L-10.35 -2" />
<linearGradient
id="LinearGradID_4867" gradientUnits="userSpaceOnUse" gradientTransform="matrix(0.000747681, 0.000656128, -0.000442505, 0.000427246, -10.45, -1.9)" spreadMethod ="pad" x1="-819.2" y1="0" x2="819.2" y2="0" >
<stop  offset="0.0627451" style="stop-color:#3C3C3A;stop-opacity:1" />
<stop  offset="0.956863" style="stop-color:#7D726E;stop-opacity:1" />
</linearGradient>
<path style="fill:url(#LinearGradID_4867) " d="M-10.15,-1.95L-10 -1.9L-9.85 -1.9L-9.8 -0.85L-9.95 -0.85L-10.1 -0.9L-10.3 -1.1L-10.75 -1.8Q-11.05 -2.15 -10.95 -3L-10.15 -1.95M-10.8,-2.15L-10.15 -1.35L-10.05 -1.55Q-10.05 -1.85 -10.35 -2L-10.8 -2.15" />
<linearGradient
id="LinearGradID_4868" gradientUnits="userSpaceOnUse" gradientTransform="matrix(0.00265503, -1.52588e-005, 1.52588e-005, 0.000747681, -0.3, -1.85)" spreadMethod ="pad" x1="-819.2" y1="0" x2="819.2" y2="0" >
<stop  offset="0.054902" style="stop-color:#251611;stop-opacity:1" />
<stop  offset="0.486275" style="stop-color:#745B54;stop-opacity:1" />
<stop  offset="0.956863" style="stop-color:#1F0D0B;stop-opacity:1" />
</linearGradient>
<path style="fill:url(#LinearGradID_4868) " d="M7.6,-1.7L7.25 -1.7L4.35 -1.85L3.95 -1.8L2.2 -1.55L1.8 -1.5L1.15 -1.4L0.9 -1.4L1 -1.5L1.2 -1.55L1.5 -1.7L1.8 -1.8L2.2 -1.9L3.95 -2.15L4.35 -2.15L7.3 -2L7.35 -2L7.6 -1.7" />
<linearGradient
id="LinearGradID_4869" gradientUnits="userSpaceOnUse" gradientTransform="matrix(0.00418091, 7.62939e-005, -3.05176e-005, 0.001297, 4.55, -0.95)" spreadMethod ="pad" x1="-819.2" y1="0" x2="819.2" y2="0" >
<stop  offset="0.054902" style="stop-color:#080000;stop-opacity:1" />
<stop  offset="0.501961" style="stop-color:#4C3024;stop-opacity:1" />
<stop  offset="0.972549" style="stop-color:#1D0600;stop-opacity:1" />
</linearGradient>
<path style="fill:url(#LinearGradID_4869) " d="M1.15,-1.4L1.8 -1.5L2.2 -1.55L3.95 -1.8L4.35 -1.85L7.25 -1.7L7.6 -1.7L7.9 -1.1L8.15 -0.7L8.5 0L8.35 0.1L8.35 0.2L7.95 0.2L7.9 -0.15L7.55 -0.9L7.3 -1.05L7.25 -1.1L7.2 -1.2L7.1 -1.2Q5.95 -1.8 4.35 -1.65L3.95 -1.6L2.2 -1.15L1.95 -1.1L1.8 -1.05L1.55 -0.85L1.5 -0.8L1.25 -0.6L1.15 -0.55L1.05 -0.6L0.65 -0.85L1.15 -1.4" />
<path style="fill:#000000;fill-opacity:1" d="M7.95,0.2L7.55 -0.65L7.3 -1L7.25 -1.05L7.25 -1.1L7.3 -1.05L7.55 -0.9L7.9 -0.15L7.95 0.2M1.25,-0.6L1.5 -0.8L1.55 -0.85L1.8 -1.05L1.95 -1.1L2.2 -1.15L3.95 -1.6L4.35 -1.65Q5.95 -1.8 7.1 -1.2L4.35 -1.45L3.95 -1.4L2.45 -1.1L2.2 -1L1.8 -0.9L1.2 -0.5L1.25 -0.6" />
<linearGradient
id="LinearGradID_4870" gradientUnits="userSpaceOnUse" gradientTransform="matrix(0.00135803, 0.00038147, -0.000274658, 0.000976563, 8.9, -0.75)" spreadMethod ="pad" x1="-819.2" y1="0" x2="819.2" y2="0" >
<stop  offset="0.0627451" style="stop-color:#38050A;stop-opacity:1" />
<stop  offset="0.956863" style="stop-color:#522E1E;stop-opacity:1" />
</linearGradient>
<path style="fill:url(#LinearGradID_4870) " d="M8.15,-0.7L8.8 -0.85L9 -1L8.45 -1.25L7.9 -1.1L7.6 -1.7L7.35 -2L7.55 -1.95L8.5 -1.75L8.95 -1.45L9.4 -1.05L9.7 -0.65L8.5 0L8.15 -0.7" />
<linearGradient
id="LinearGradID_4871" gradientUnits="userSpaceOnUse" gradientTransform="matrix(0.000640869, -3.05176e-005, 1.52588e-005, 0.000320435, 8.45, -1.05)" spreadMethod ="pad" x1="-819.2" y1="0" x2="819.2" y2="0" >
<stop  offset="0.0627451" style="stop-color:#BAACA3;stop-opacity:1" />
<stop  offset="0.956863" style="stop-color:#522E1E;stop-opacity:1" />
</linearGradient>
<path style="fill:url(#LinearGradID_4871) " d="M7.9,-1.1L8.45 -1.25L9 -1L8.8 -0.85L8.15 -0.7L7.9 -1.1" />
<path style="fill:#220902;fill-opacity:1" d="M0.65,-0.85L1.05 -0.6L1.15 -0.55L1.25 -0.6L1.2 -0.5L1.2 -0.45L1.1 -0.35L1 -0.35L0.8 -0.25L0.7 -0.35L0.55 -0.65L0.5 -0.95L0.55 -1L0.6 -1L0.65 -0.85" />
<linearGradient
id="LinearGradID_4872" gradientUnits="userSpaceOnUse" gradientTransform="matrix(-0.00436401, 0.000305176, -9.15527e-005, -0.00135803, -5.3, -1.3)" spreadMethod ="pad" x1="-819.2" y1="0" x2="819.2" y2="0" >
<stop  offset="0.054902" style="stop-color:#080000;stop-opacity:1" />
<stop  offset="0.501961" style="stop-color:#4C3024;stop-opacity:1" />
<stop  offset="0.972549" style="stop-color:#1D0600;stop-opacity:1" />
</linearGradient>
<path style="fill:url(#LinearGradID_4872) " d="M0.65,-0.85L0.6 -1L0.55 -1L0.9 -1.4L1.15 -1.4L0.65 -0.85" />
<path style="fill:#000000;fill-opacity:0.101961" d="M1.1,-0.35L1.2 -0.45L1.2 -0.5L1.8 -0.9L2.2 -1L2.45 -1.1L3.95 -1.4L4.35 -1.45L7.1 -1.2L4.35 -1.2L3.95 -1.15L3.45 -1.1L2.2 -0.85L2.05 -0.8L1.8 -0.65L1.65 -0.45L1.5 -0.25Q1.3 0 1.25 0.3L1.15 0.3L1.1 0.2L1.05 0.1L0.95 -0.2L1.1 -0.35" />
<radialGradient
id="RadialGradID_4873" gradientUnits="userSpaceOnUse" gradientTransform="matrix(0.0108337, -0.000579834, 0.000579834, 0.0107574, 5.55, 6.95)" spreadMethod ="pad" cx="0" cy="0" r="819.2" fx="0" fy="0" >
<stop  offset="0.313725"  style="stop-color:#FFFFFF;stop-opacity:0.431373" />
<stop  offset="1"  style="stop-color:#FFFFFF;stop-opacity:0" />
</radialGradient>
<path style="fill:url(#RadialGradID_4873) " d="M1.1,-0.35L0.95 -0.2L1 -0.35L1.1 -0.35" />
<linearGradient
id="LinearGradID_4874" gradientUnits="userSpaceOnUse" gradientTransform="matrix(0.00160217, -0.000946045, 0.000488281, 0.000686646, 11.25, -1.8)" spreadMethod ="pad" x1="-819.2" y1="0" x2="819.2" y2="0" >
<stop  offset="0.0627451" style="stop-color:#8E6959;stop-opacity:1" />
<stop  offset="0.956863" style="stop-color:#5F4838;stop-opacity:1" />
</linearGradient>
<path style="fill:url(#LinearGradID_4874) " d="M10.05,-0.85L9.8 -0.75L9.6 -0.6L9.05 -1.35L9.65 -1.3L10.65 -1.95L11.65 -2.6Q11.95 -2.6 11.7 -1.3L11.5 -1.25L11.55 -1.65Q11.55 -2.15 11.25 -2.05L10.3 -0.9L10.05 -0.85" />
<linearGradient
id="LinearGradID_4875" gradientUnits="userSpaceOnUse" gradientTransform="matrix(-0.000595093, 0.000518799, -0.000320435, -0.000350952, 10.95, -1.35)" spreadMethod ="pad" x1="-819.2" y1="0" x2="819.2" y2="0" >
<stop  offset="0.0627451" style="stop-color:#603C22;stop-opacity:1" />
<stop  offset="0.956863" style="stop-color:#5F4838;stop-opacity:1" />
</linearGradient>
<path style="fill:url(#LinearGradID_4875) " d="M11.45,-1.2L10.3 -0.9L11.25 -2.05Q11.55 -2.15 11.55 -1.65L11.5 -1.25L11.45 -1.2" />
<path style="fill:#000000;fill-opacity:0.101961" d="M1.15,0.25L1.25 0.25L1.2 0.3L1.15 0.25M8.35,0.15L8.35 0.05L8.5 -0.05L9.7 -0.65L9.3 -0.2L8.7 0.5L8.4 1.2L8.2 1.7L7.6 2.9Q7 4 5.7 4.25L5 4.3L3.95 4.25L3.6 4.15L3.55 4.15L2.55 3.7L2.35 3.55L1.7 2.95L1.3 2.15L1 1.7L1.55 2.45L1.65 2.6L1.8 2.8L2.35 3.3L2.55 3.45L3.55 3.95L3.95 4.05L5 4.1L5.6 4Q6.8 3.65 7.5 2.7L7.65 2.55L7.75 2.35L7.9 2.05L8.05 1.7L8.2 1.2L8.35 0.15" />
<path style="fill:#B99C96;fill-opacity:1" d="M1.85,2.15L2.35 2.75L2.55 2.9L3.35 3.25L3.95 3.35L5 3.4L5.25 3.4Q6.15 3.3 6.9 2.65L7.5 1.95L7.15 2.45Q6.75 3.05 5.8 3.4L5 3.65L3.95 3.55L3.6 3.45L2.55 3L2.35 2.85L1.85 2.15" />
<path style="fill:#5A352D;fill-opacity:1" d="M8.2,1.2L8.25 0.15L8.35 0.15L8.2 1.2M1.65,2.6L2.35 3.1L2.55 3.25L3.2 3.6L3.55 3.85L3.95 3.95L5 3.95L6.3 3.55L7.65 2.55L7.5 2.7Q6.8 3.65 5.6 4L5 4.1L3.95 4.05L3.55 3.95L2.55 3.45L2.35 3.3L1.8 2.8L1.65 2.6" />
<linearGradient
id="LinearGradID_4876" gradientUnits="userSpaceOnUse" gradientTransform="matrix(0.0045166, 0.000488281, -0.000320435, 0.00262451, 4.6, 1.95)" spreadMethod ="pad" x1="-819.2" y1="0" x2="819.2" y2="0" >
<stop  offset="0.054902" style="stop-color:#3C251D;stop-opacity:1" />
<stop  offset="0.517647" style="stop-color:#8D7068;stop-opacity:1" />
<stop  offset="0.988235" style="stop-color:#6D493D;stop-opacity:1" />
</linearGradient>
<path style="fill:url(#LinearGradID_4876) " d="M2.35,2.85L2.55 3L3.6 3.45L3.95 3.55L5 3.65L5.8 3.4Q6.75 3.05 7.15 2.45L7.5 1.95L7.65 1.6L7.95 0.15L8.25 0.15L8.2 1.2L8.05 1.7L7.9 2.05L7.75 2.35L7.65 2.55L6.3 3.55L5 3.95L3.95 3.95L3.55 3.85L3.2 3.6L2.55 3.25L2.35 3.1L1.65 2.6L1.55 2.45L1.45 2.15L1.25 1.7L1.2 1.65L1.05 1.2L0.85 0.25L0.8 -0.3L1 -0.4L0.95 -0.25L1.05 0.05L1.1 0.15L1.15 0.25L1.2 0.3L1.4 0.45L1.55 1.3L1.85 2.15L2.35 2.85" />
<linearGradient
id="LinearGradID_4877" gradientUnits="userSpaceOnUse" gradientTransform="matrix(-0.00436401, 0.000289917, -9.15527e-005, -0.00128174, -5.3, -1.3)" spreadMethod ="pad" x1="-819.2" y1="0" x2="819.2" y2="0" >
<stop  offset="0.054902" style="stop-color:#080000;stop-opacity:1" />
<stop  offset="0.501961" style="stop-color:#4C3024;stop-opacity:1" />
<stop  offset="0.972549" style="stop-color:#1D0600;stop-opacity:1" />
</linearGradient>
<path style="fill:url(#LinearGradID_4877) " d="M1,1.7L0.8 0.25L0.75 0L0.7 -0.4L0.8 -0.3L0.85 0.25L1.05 1.2L1.2 1.65L1.25 1.7L1.45 2.15L1.55 2.45L1 1.7" />
<radialGradient
id="RadialGradID_4878" gradientUnits="userSpaceOnUse" gradientTransform="matrix(0.00230408, -0.00012207, 0.00012207, 0.00216675, 1.45, 1.9)" spreadMethod ="pad" cx="0" cy="0" r="819.2" fx="0" fy="0" >
<stop  offset="0.313725"  style="stop-color:#FFFFFF;stop-opacity:0.431373" />
<stop  offset="1"  style="stop-color:#FFFFFF;stop-opacity:0" />
</radialGradient>
<path style="fill:url(#RadialGradID_4878) " d="M2.05,2.9Q1.1 1.95 0.95 0.25L1.15 0.5L1.25 0.8L1.3 1.4L1.5 1.9L1.8 2.35L2.05 2.85L2.05 2.9" />
<radialGradient
id="RadialGradID_4879" gradientUnits="userSpaceOnUse" gradientTransform="matrix(0.0017395, -9.15527e-005, 9.15527e-005, 0.00164795, 7.8, 1.65)" spreadMethod ="pad" cx="0" cy="0" r="819.2" fx="0" fy="0" >
<stop  offset="0.313725"  style="stop-color:#FFFFFF;stop-opacity:0.431373" />
<stop  offset="1"  style="stop-color:#FFFFFF;stop-opacity:0" />
</radialGradient>
<path style="fill:url(#RadialGradID_4879) " d="M8.05,0.75L8.1 0.85Q8.2 2 7.2 2.85L7.75 1.75L8.05 0.75" />
<radialGradient
id="RadialGradID_4880" gradientUnits="userSpaceOnUse" gradientTransform="matrix(0.0136566, -0.000701904, 0.000579834, 0.0102234, 4.3, -1.7)" spreadMethod ="pad" cx="0" cy="0" r="819.2" fx="210534" fy="0" >
<stop  offset="0.0941176"  style="stop-color:#FFFFFF;stop-opacity:0" />
<stop  offset="0.941176"  style="stop-color:#FFFFFF;stop-opacity:0.431373" />
</radialGradient>
<path style="fill:url(#RadialGradID_4880) " d="M7.2,-1.2L7.25 -1.1L7.25 -1.05L7.55 -0.65L7.95 0.15L7.8 1.2L7.75 1.4L7.7 1.55L6.9 2.65Q6.15 3.3 5.25 3.4L3.35 3.25Q2.5 3.05 1.85 2.15L1.55 1.3L1.4 0.45L1.2 0.3Q1.35 -0.25 1.8 -0.65L2.05 -0.8L7.1 -1.2L7.2 -1.2" />
<radialGradient
id="RadialGradID_4881" gradientUnits="userSpaceOnUse" gradientTransform="matrix(0.00227356, -0.00012207, 0.00012207, 0.0022583, 4.6, -1.85)" spreadMethod ="pad" cx="0" cy="0" r="819.2" fx="0" fy="0" >
<stop  offset="0.313725"  style="stop-color:#FFFFFF;stop-opacity:0.431373" />
<stop  offset="1"  style="stop-color:#FFFFFF;stop-opacity:0" />
</radialGradient>
<path style="fill:url(#RadialGradID_4881) " d="M6.25,-1.75L5.85 -1.7L4.05 -1.75L3.2 -1.65L2.95 -1.65L4.85 -1.95L6.25 -1.8L6.25 -1.75" />
<radialGradient
id="RadialGradID_4882" gradientUnits="userSpaceOnUse" gradientTransform="matrix(0.00210571, -0.000106812, 0.000106812, 0.00209045, -4.45, -2.15)" spreadMethod ="pad" cx="0" cy="0" r="819.2" fx="0" fy="0" >
<stop  offset="0.313725"  style="stop-color:#FFFFFF;stop-opacity:0.431373" />
<stop  offset="1"  style="stop-color:#FFFFFF;stop-opacity:0" />
</radialGradient>
<path style="fill:url(#RadialGradID_4882) " d="M-3.15,-1.85L-6.1 -2.15L-5.4 -2.25L-4.05 -2.2L-3.15 -1.85" />
<radialGradient
id="RadialGradID_4883" gradientUnits="userSpaceOnUse" gradientTransform="matrix(0.00236511, -0.00012207, 0.00012207, 0.00234985, -1.9, 1.55)" spreadMethod ="pad" cx="0" cy="0" r="819.2" fx="0" fy="0" >
<stop  offset="0.313725"  style="stop-color:#FFFFFF;stop-opacity:0.431373" />
<stop  offset="1"  style="stop-color:#FFFFFF;stop-opacity:0" />
</radialGradient>
<path style="fill:url(#RadialGradID_4883) " d="M-1.85,1.4L-1.8 0.5L-1.55 -0.15L-1.55 0.1Q-1.45 2.1 -2.75 3.15L-2.3 2.35L-1.85 1.4" />
</g>
</svg>
