<?xml version="1.0" encoding="utf-8"?>
<svg version="1.1" id="Layer_1"
xmlns="http://www.w3.org/2000/svg"
xmlns:xlink="http://www.w3.org/1999/xlink"
xmlns:author="http://www.sothink.com"
width="21px" height="7px"
xml:space="preserve">
<g id="617" transform="matrix(1, 0, 0, 1, -59.85, -36.25)">
<path style="fill:#BEAE97;fill-opacity:1" d="M71.65,39.95L71.65 40L71.7 40.05L71.75 40.15L71.95 40.7L71.65 40.05L71.6 39.95L71.4 39.4L71.45 39.4L71.4 39.4L71.55 40.1L71.6 40.2L71.6 40.35L71.55 40.3L71.5 40.2L71.25 39.3L71.35 39.2L71.5 39.4L71.65 39.8L71.65 39.95" />
<path style="fill:#EFE5D9;fill-opacity:1" d="M72.15,39.8L72.05 39.7L71.85 39.75L72.15 39.6L72.25 39.75L72 40.05L72.15 39.8" />
<path style="fill:#E4CAAD;fill-opacity:1" d="M72,40.05L71.9 40.1L71.75 40.15L71.7 40.05L71.85 40L72.05 39.85L72.05 39.8L71.85 39.85L71.65 39.95L71.65 39.8L71.85 39.75L72.05 39.7L72.15 39.8L72 40.05" />
<path style="fill:#9B8C75;fill-opacity:1" d="M71.7,40.05L71.65 40L71.65 39.95L71.85 39.85L72.05 39.8L72.05 39.85L71.85 40L71.7 40.05" />
<path style="fill:#E5CBB2;fill-opacity:1" d="M71.95,40.85L71.8 40.6L71.7 40.2L71.65 40.45L71.7 40.65L71.55 40.45L71.5 40.5L71.55 40.7L71.45 40.55L71.3 40.35L71.2 39.6Q71.15 39.4 71.25 39.3L71.5 40.2L71.55 40.3L71.6 40.35L71.6 40.2L71.55 40.1L71.4 39.4L71.6 39.95L71.65 40.05L71.95 40.7L71.95 40.85" />
<path style="fill:#FAE8D6;fill-opacity:1" d="M71.8,40.6L71.95 40.85L71.7 40.9L71.65 40.85L71.55 40.7L71.5 40.5L71.55 40.45L71.7 40.65L71.65 40.45L71.7 40.2L71.8 40.6" />
<path style="fill:#BEAE97;fill-opacity:1" d="M71.55,39.95L71.7 39.65L71.7 39.6L71.7 39.55L71.75 39.5L71.8 39.25L71.85 39.2L71.9 39.25L71.8 39.65L71.75 39.75L71.75 39.65L71.75 39.6L71.85 39.25L71.75 39.55L71.7 39.6L71.55 39.95" />
<path style="fill:#EFE5D9;fill-opacity:1" d="M71.55,39.6L71.4 39.45L71.45 39.4L71.6 39.4L71.55 39.4L71.45 39.5L71.55 39.6" />
<path style="fill:#E4CAAD;fill-opacity:1" d="M71.7,39.6L71.7 39.65L71.6 39.6L71.55 39.6L71.45 39.5L71.55 39.4L71.6 39.4L71.65 39.45L71.75 39.5L71.7 39.55L71.6 39.5L71.5 39.45L71.55 39.5L71.6 39.55L71.7 39.6" />
<path style="fill:#9B8C75;fill-opacity:1" d="M71.6,39.55L71.55 39.5L71.5 39.45L71.6 39.5L71.7 39.55L71.7 39.6L71.6 39.55" />
<path style="fill:#E5CBB2;fill-opacity:1" d="M71.55,40L71.55 39.95L71.7 39.6L71.75 39.55L71.85 39.25L71.75 39.6L71.75 39.65L71.75 39.75L71.8 39.65L71.9 39.25L71.95 39.4L71.9 39.75L71.85 39.85L71.75 39.95L71.75 39.8L71.7 39.9L71.7 39.8L71.7 39.7L71.65 39.85L71.55 40" />
<path style="fill:#FAE8D6;fill-opacity:1" d="M71.65,39.85L71.7 39.7L71.7 39.8L71.7 39.9L71.75 39.8L71.75 39.95L71.7 40L71.55 40L71.65 39.85" />
<path style="fill:#BEAE97;fill-opacity:1" d="M68.9,39.95L68.9 40L68.85 40.05L68.8 40.15L68.6 40.7L68.9 40.05L68.95 39.95L69.15 39.4L69.1 39.4L69.15 39.4L69 40.1L68.95 40.2L68.95 40.35L69 40.3L69.05 40.2L69.3 39.3L69.2 39.2L69.05 39.4L68.9 39.8L68.9 39.95" />
<path style="fill:#EFE5D9;fill-opacity:1" d="M68.4,39.8L68.5 39.7L68.7 39.75L68.4 39.6Q68.3 39.6 68.3 39.75L68.55 40.05L68.4 39.8" />
<path style="fill:#E4CAAD;fill-opacity:1" d="M68.7,40L68.5 39.85L68.5 39.8L68.7 39.85L68.9 39.95L68.9 39.8L68.7 39.75L68.5 39.7L68.4 39.8L68.55 40.05L68.65 40.1L68.8 40.15L68.85 40.05L68.7 40" />
<path style="fill:#9B8C75;fill-opacity:1" d="M68.85,40.05L68.9 40L68.9 39.95L68.7 39.85L68.5 39.8L68.5 39.85L68.7 40L68.85 40.05" />
<path style="fill:#E5CBB2;fill-opacity:1" d="M68.6,40.85L68.75 40.6L68.85 40.2L68.9 40.45L68.85 40.65L69 40.45L69.05 40.5L69 40.7L69.1 40.55L69.25 40.35L69.35 39.6L69.3 39.3L69.05 40.2L69 40.3L68.95 40.35L68.95 40.2L69 40.1L69.15 39.4L68.95 39.95L68.9 40.05L68.6 40.7L68.6 40.85" />
<path style="fill:#FAE8D6;fill-opacity:1" d="M68.75,40.6L68.6 40.85L68.85 40.9L68.9 40.85L69 40.7L69.05 40.5L69 40.45L68.85 40.65L68.9 40.45L68.85 40.2L68.75 40.6" />
<path style="fill:#3F221E;fill-opacity:1" d="M70.65,38.6L71.55 39.3L71.55 39.4L71.6 39.6L71.4 39.55L70.7 38.95L70.5 38.9L69.95 38.8L69.95 38.85L70.4 39.05L70.55 39.1L70.85 39.45L70.6 39.45L70.4 39.45L70.15 39.45L69.9 39.5L69.65 39.5L69.55 39.55L69.5 39.55L69.35 39.2L69.3 38.6L70.15 38.4L70.7 38.45L70.9 38.5L71.15 38.65L71.4 38.7L71.55 38.5L71.55 38.45Q71.55 38.35 71 38.2L71.7 38.35L71.65 38.5L71.6 38.95L71.6 39.1L70.65 38.6M70.9,38.95L70.6 38.7L70.55 38.65L69.8 38.6Q69.4 38.65 69.5 39.3L69.5 39.4L69.55 39.4L70.05 39.35L70.55 39.4L70.35 39.2L69.7 38.95L69.95 38.75L70.55 38.8L70.9 39L70.9 38.95M70.6,38.6L70.55 38.55L70.55 38.6L70.6 38.6" />
<path style="fill:#150000;fill-opacity:1" d="M71.6,39.1L71.55 39.3L70.65 38.6L71.6 39.1M70.55,39.1L70.4 39.05L69.95 38.85L69.95 38.8L70.5 38.9L70.7 38.95L71.4 39.55L71.05 39.5L70.85 39.45L70.55 39.1M69.3,38.6L69.35 39.2L69.5 39.55L68.75 39.75L69.1 38.75L69.3 38.6" />
<path style="fill:#735E4F;fill-opacity:1" d="M69.1,38.75L69.1 38.4L69.95 38.25L70.65 38.2L70.55 38.25L70.75 38.45L70.9 38.5L70.7 38.45L70.15 38.4L69.3 38.6L69.1 38.75" />
<path style="fill:#C79F7F;fill-opacity:1" d="M71.15,38.35L71.2 38.4L71.45 38.45L71.4 38.5L71.3 38.6L71.15 38.55L70.85 38.35L70.95 38.3L71.15 38.35" />
<path style="fill:#997960;fill-opacity:1" d="M71.55,38.45L71.55 38.5L71.4 38.7L71.15 38.65L70.9 38.5L70.75 38.45L70.55 38.25L70.65 38.2L70.7 38.2L70.8 38.2L70.85 38.2L71 38.2Q71.55 38.35 71.55 38.45M70.95,38.3L70.85 38.35L71.15 38.55L71.3 38.6L71.4 38.5L71.45 38.45L71.2 38.4L71.15 38.35L70.95 38.3M70.9,39L70.55 38.8L69.95 38.75L69.7 38.95L70.35 39.2L70.55 39.4L70.05 39.35L69.55 39.4L69.5 39.4L69.5 39.3Q69.4 38.65 69.8 38.6L70.55 38.65L70.6 38.7L70.9 38.95L70.9 39M70.2,39.2L69.7 39.2L69.6 39.3L69.6 39.35L70.25 39.25L70.2 39.2" />
<path style="fill:#E3B691;fill-opacity:1" d="M70.25,39.25L69.6 39.35L69.6 39.3L69.7 39.2L70.2 39.2L70.25 39.25" />
<path style="fill:#2A1E10;fill-opacity:1" d="M60.65,39L60.55 39L59.9 38.35L59.85 38.25L59.85 38.2L59.95 38.2Q60.4 38.4 60.45 38.6L60.7 38.85L61.1 38.2L61.2 38.1L61.4 37.7L62.1 37.15L62.5 37L63.05 36.85L63.75 36.75L63.8 36.7L64.7 36.6L65.2 36.6L66.3 36.85L67 37.05L67.15 37.1Q67.8 37.3 68.1 37.55L68.4 37.95L68.45 38.1L68.45 38.2L68.5 38.5L68.45 38.6L68.45 38.65L68.4 38.75L68.4 38.65L68.4 38.45L68.4 38.35L68.25 37.85Q67.9 37.4 66.65 37.05L65.85 36.9L63.95 36.85L63.6 36.85L63.1 36.95L62.4 37.2Q61.8 37.5 61.45 38.05L61.35 38.15L61.1 38.65L61 38.8L60.9 38.9L60.8 39L60.65 39" />
<path style="fill:#330800;fill-opacity:1" d="M66.95,36.9L67 36.9L67.3 36.75L67.65 36.9L67.85 37L68.1 37.55Q67.8 37.3 67.15 37.1L67 37.05L66.3 36.85L65.2 36.6L64.7 36.6L63.8 36.7L63.75 36.75L63.05 36.85L62.5 37L62.1 37.15L61.4 37.7L61.95 37.15L62.15 37L62.5 36.9L63 36.75L63.2 36.6L63.25 36.6L63.45 36.5L64.05 36.45L65.05 36.45L65.15 36.4L65.4 36.4L66.95 36.9M68.65,39.55L68.7 39.2L69.1 38.7L69.1 38.75L69.15 39L69 39.2L68.8 39.7L68.8 39.75L68.75 39.75L68.6 39.8L68.65 39.55" />
<path style="fill:#995A1C;fill-opacity:1" d="M63.95,36.4L63.9 36.35L63.85 36.25L66.7 36.5L67.05 36.65L67.05 36.75L67 36.75L66.8 36.7L65.85 36.4L65.7 36.45L65.6 36.45L65.4 36.4L65.15 36.4L65.05 36.45L64.05 36.45L63.95 36.4M61.85,36.8L61.95 36.65L62.5 36.55L62.6 36.5L62.85 36.5L63 36.5L62.95 36.65L62.9 36.65L62.6 36.8L62.55 36.8Q62.05 36.9 61.85 37.05L61.8 36.95L61.8 36.85L61.85 36.8M62.8,36.55L62.6 36.6L62.3 36.7L62.3 36.75L62.1 36.75L62 36.8L61.9 36.95L62 36.95L62.2 36.8L62.3 36.75L62.3 36.8L62.55 36.75L62.8 36.6L62.8 36.55M68.65,37.7L68.6 37.85L68.75 38.05L68.9 38.15L69 37.9L69 38.05L68.9 38.2L68.7 38.4L68.55 37.85L68.5 37.8Q68.45 37.6 68.7 37.6L68.75 37.6L68.85 37.7L68.65 37.7" />
<path style="fill:#824B13;fill-opacity:1" d="M61.6,36.6L61.8 36.55L62.65 36.4L62.8 36.35L63.1 36.3L63.25 36.3L63.35 36.3L63.85 36.25L63.9 36.35L63 36.5L62.85 36.5L62.6 36.5L62.5 36.55L61.95 36.65L61.85 36.8L61.8 36.85L61.6 36.9L61.6 36.6" />
<path style="fill:#C98E47;fill-opacity:1" d="M67,36.8L66.95 36.8L66.9 36.8L66.75 36.8L66.35 36.65L65.7 36.45L65.85 36.4L66.8 36.7L67 36.75L67 36.8M62.8,36.6L62.55 36.75L62.3 36.8L62.3 36.75L62.2 36.8L62 36.95L61.9 36.95L62 36.8L62.1 36.75L62.3 36.75L62.3 36.7L62.6 36.6L62.8 36.55L62.8 36.6M68.85,37.7L68.95 37.85L69 37.9L68.9 38.15L68.75 38.05L68.6 37.85L68.65 37.7L68.85 37.7" />
<path style="fill:#542000;fill-opacity:1" d="M63.9,36.35L63.95 36.4L64.05 36.45L63.45 36.5L63.25 36.6L63.2 36.6L63 36.75L62.5 36.9L62.15 37L61.95 37.15L61.6 36.9L61.8 36.85L61.8 36.95L61.85 37.05Q62.05 36.9 62.55 36.8L62.6 36.8L62.9 36.65L62.95 36.65L63 36.5L63.9 36.35M68.6,39.8L68.55 39.8L68.45 39.8L68.55 38.85L68.55 38.6L68.5 38.6L68.5 38.5L68.45 38.2L68.45 38.1L68.4 37.95L68.1 37.55L67.85 37L68.2 37.15L68.75 37.6L68.7 37.6Q68.45 37.6 68.5 37.8L68.55 37.85L68.7 38.4L68.9 38.2L69 38.05L69.05 38.2L69.05 38.4L69.05 38.5L69.1 38.6L69.1 38.7L68.7 39.2L68.65 39.55L68.6 39.8" />
<path style="fill:#513B15;fill-opacity:1" d="M60.55,37.75L60.55 37.55L60.55 37.3L60.5 37.15L60.4 37.2L60.1 37.5L59.9 37.85L60 37.45L60.1 37.15L60.3 37.05L60.95 36.8Q61.35 36.8 61.4 37L61.15 37.5L61.05 37.6L61.1 37.15L61.05 37.1L60.7 37.45L60.55 37.75" />
<path style="fill:#A37844;fill-opacity:1" d="M61.3,37.35L61.45 37.3L61.45 37.4L61.05 37.95L61.05 38.05L60.65 38.6L60.5 38.4L60.6 37.75L60.7 37.45L61.05 37.1L61.1 37.15L61.05 37.6L61.15 37.5L61.3 37.35M60.85,37.4L60.7 37.8L60.65 37.9L60.75 37.85L60.9 37.5L60.9 37.4L60.85 37.4M61.2,37.7L60.9 37.85L60.9 37.9L60.8 38.25L60.8 38.4L61 38L61.2 37.7" />
<path style="fill:#FFEDC1;fill-opacity:1" d="M60.9,37.4L60.9 37.5L60.75 37.85L60.65 37.9L60.7 37.8L60.85 37.4L60.9 37.4" />
<path style="fill:#5E4C25;fill-opacity:1" d="M61.6,36.9L61.95 37.15L61.4 37.7L61.2 38.1L61.1 38.2L60.7 38.85L60.45 38.6Q60.4 38.4 59.95 38.2L59.85 38.2L59.85 38.1L59.95 38.05L60.45 38.2L60.5 38.4L60.65 38.6L61.05 38.05L61.05 37.95L61.45 37.4L61.45 37.3L61.3 37.35L61.15 37.5L61.4 37Q61.35 36.8 60.95 36.8L61.6 36.6L61.6 36.9" />
<path style="fill:#E3BD88;fill-opacity:1" d="M60.45,37.6L60.4 37.7L60.3 37.9L60.2 37.95L60.3 37.6L60.35 37.55L60.35 37.5L60.45 37.45L60.45 37.6" />
<path style="fill:#8A7149;fill-opacity:1" d="M59.9,37.85L60.1 37.5L60.4 37.2L60.5 37.15L60.55 37.3L60.55 37.55L60.55 37.75L60.7 37.45L60.6 37.75L60.5 38.4L60.45 38.2L59.95 38.05L59.85 38.1L59.9 37.85M60.45,37.45L60.35 37.5L60.35 37.55L60.3 37.6L60.2 37.95L60.3 37.9L60.4 37.7L60.45 37.6L60.45 37.45M60.55,37.75L60.55 37.85L60.55 37.75" />
<path style="fill:#473B2F;fill-opacity:1" d="M60.55,37.85L60.55 37.75L60.55 37.85" />
<path style="fill:#E3BC86;fill-opacity:1" d="M61,38L60.8 38.4L60.8 38.25L60.9 37.9L60.9 37.85L61.2 37.7L61 38" />
<path style="fill:#B3B098;fill-opacity:1" d="M60.8,39.1L60.8 39L60.9 38.9L60.9 38.95L60.85 39.15L60.8 39.1" />
<path style="fill:#292609;fill-opacity:1" d="M61,38.8L61.1 38.65Q60.95 39.3 61.1 40.4Q61.2 41.05 61.7 41.4L62.3 41.75L62.7 41.9L62.55 41.95L62.2 41.85L62.05 41.75L61.95 41.65L61.7 41.55L61.7 41.5L61.55 41.4Q61.2 41.1 61 40.3Q60.85 39.8 60.85 39.15L60.9 38.95L60.9 38.9L61 38.8M68.25,39.75L68.35 39.8L68.45 39.8L68.25 40.2L67.85 40.8L67.1 41.55L66.55 41.85L65.65 42.15L64.55 42.35L64.45 42.35L64.05 42.4L64.6 42.2L64.65 42.2L64.95 42.15L65.3 42.05L65.8 41.95L66.65 41.65L67.55 41L68.3 39.95L67.95 40.15L68.15 39.85L68.2 39.85L68.2 39.8L68.25 39.75" />
<path style="fill:#A8A28C;fill-opacity:1" d="M62.05,42L62.2 42.1L62.3 42.2L62.35 42.2L62.3 42.2L62.05 42.15L61.95 42.1L61.5 41.8L61.2 41.45L60.85 40.9L60.75 40.55L60.65 40.1L60.65 39.6L60.65 39L60.8 39L60.8 39.1L60.8 40.1L60.9 40.8L61.1 41.15L61.35 41.45L61.65 41.65L61.8 41.8L61.85 41.85L61.8 41.85L61.9 41.9L62.05 42" />
<path style="fill:#6B6750;fill-opacity:1" d="M63.05,41.95L63.1 41.95L63.65 42L64.6 41.95L66.6 41.45L67.95 40.15L66.65 41.5L65.3 41.95L64.6 42.05L64.55 42.05L63.1 42.05L62.95 42L62.55 41.95L62.7 41.9L63.05 41.95M62.35,42.05L62.7 42.1L63.65 42.25L64.6 42.2L64.65 42.2L64.6 42.2L64.05 42.4L63.6 42.4L63.05 42.35L62.9 42.35L62.75 42.3L62.7 42.3L62.35 42.2L62.3 42.2L62.2 42.1L62.05 42L61.9 41.9L62.3 42.05L62.35 42.05L62.3 42L62.35 42.05" />
<path style="fill:#E0DCC3;fill-opacity:1" d="M68.2,39.8L68.2 39.85L68.15 39.85L68.2 39.8" />
<path style="fill:#4A200A;fill-opacity:1" d="M68.7,37.6L68.75 37.6L68.7 37.6" />
<path style="fill:#784B2D;fill-opacity:1" d="M67.3,36.75L67 36.9L66.95 36.9L65.4 36.4L65.6 36.45L65.7 36.45L66.35 36.65L66.75 36.8L66.9 36.8L66.95 36.8L67 36.8L67 36.75L67.05 36.75L67.05 36.65L67.1 36.65L67.2 36.7L67.3 36.75" />
<path style="fill:#BF8E61;fill-opacity:1" d="M67,36.8L67 36.75L67 36.8" />
<path style="fill:#160400;fill-opacity:1" d="M69.15,39L69.15 39.4L69.15 39.45L69.1 39.55L68.85 39.7L68.8 39.7L69 39.2L69.15 39" />
<path style="fill:#927C65;fill-opacity:1" d="M68.35,39.45L68.4 38.75L68.45 38.65L68.45 38.6L68.5 38.5L68.5 38.6L68.55 38.6L68.55 38.85L68.45 39.8L68.35 39.8L68.25 39.75L68.35 39.45" />
<path style="fill:#FFEAD3;fill-opacity:1" d="M68.35,39.45L68.4 38.95L68.4 38.75L68.35 39.45" />
<path style="fill:#EDE9CE;fill-opacity:1" d="M62.3,42L62.25 41.95L62.25 41.9L62.15 41.85L62 41.75L62.05 41.75L62.2 41.85L62.55 41.95L62.95 42L63.1 42.05L64.55 42.05L64.6 42.05L65.3 41.95L66.65 41.5L67.95 40.15L68.3 39.95L67.55 41L66.65 41.65L65.8 41.95L65.3 42.05L64.95 42.15L64.65 42.2L64.6 42.2L63.65 42.25L62.7 42.1L62.35 42.05L62.3 42" />
<path style="fill:#FFEFE0;fill-opacity:1" d="M62,41.75L62.15 41.85L62.25 41.9L62.25 41.95L62.3 42L62.35 42.05L62.3 42.05L61.9 41.9L61.8 41.85L61.85 41.85L61.8 41.8L61.65 41.65L61.35 41.45L61.1 41.15L60.9 40.8L60.8 40.1L60.8 39.1L60.85 39.15Q60.85 39.8 61 40.3Q61.2 41.1 61.55 41.4L61.7 41.5L61.7 41.55L61.95 41.65L62.05 41.75L62 41.75" />
<radialGradient
id="RadialGradID_4899" gradientUnits="userSpaceOnUse" gradientTransform="matrix(0.00965881, 0, 0, 0.00965881, 60.25, 42.95)" spreadMethod ="pad" cx="0" cy="0" r="819.2" fx="0" fy="0" >
<stop  offset="0"  style="stop-color:#FFFFFF;stop-opacity:0.501961" />
<stop  offset="1"  style="stop-color:#FFFFFF;stop-opacity:0" />
</radialGradient>
<path style="fill:url(#RadialGradID_4899) " d="M65.5,41.8L62.8 41.95Q61.15 41.7 61.2 39.9Q61.15 38.05 61.55 39.05L62.4 40.55Q63.25 41.55 65.5 41.8" />
<radialGradient
id="RadialGradID_4900" gradientUnits="userSpaceOnUse" gradientTransform="matrix(-0.00241089, 0.00593567, 0.00952148, 0.00242615, 69.65, 37.5)" spreadMethod ="pad" cx="0" cy="0" r="819.2" fx="0" fy="0" >
<stop  offset="0"  style="stop-color:#FFFFFF;stop-opacity:0.501961" />
<stop  offset="1"  style="stop-color:#FFFFFF;stop-opacity:0" />
</radialGradient>
<path style="fill:url(#RadialGradID_4900) " d="M67.25,40.4Q67.55 38.95 66.8 38.2L65.55 37.3Q64.65 36.8 66.45 37.25Q68.2 37.75 68.05 38.75Q67.85 39.85 67.25 40.4" />
<path style="fill:#2A1E10;fill-opacity:1" d="M79.7,39L79.8 39L80.45 38.35L80.5 38.25L80.5 38.2L80.4 38.2L79.9 38.6L79.65 38.85L79.25 38.2L79.15 38.1L78.95 37.7L78.25 37.15L77.85 37L77.3 36.85L76.6 36.75L76.55 36.7L75.65 36.6L75.15 36.6L74.05 36.85L73.35 37.05L73.2 37.1L72.25 37.55L71.95 37.95L71.9 38.1L71.9 38.2L71.85 38.5L71.9 38.6L71.9 38.65L71.95 38.75L71.95 38.65L71.95 38.45L71.95 38.35L72.1 37.85Q72.45 37.4 73.7 37.05L74.5 36.9L76.4 36.85L76.75 36.85L77.25 36.95L77.95 37.2Q78.55 37.5 78.9 38.05L79 38.15L79.25 38.65L79.35 38.8L79.45 38.9L79.55 39L79.7 39" />
<path style="fill:#330800;fill-opacity:1" d="M73.4,36.9L73.35 36.9Q73.1 36.9 73.05 36.75L72.7 36.9L72.5 37L72.25 37.55L73.2 37.1L73.35 37.05L74.05 36.85L75.15 36.6L75.65 36.6L76.55 36.7L76.6 36.75L77.3 36.85L77.85 37L78.25 37.15L78.95 37.7L78.4 37.15L78.2 37L77.85 36.9L77.35 36.75L77.15 36.6L77.1 36.6L76.9 36.5L76.3 36.45L75.3 36.45L75.2 36.4L74.95 36.4L73.4 36.9M71.7,39.55L71.65 39.2L71.25 38.7L71.25 38.75L71.2 39L71.35 39.2L71.55 39.7L71.55 39.75L71.6 39.75L71.75 39.8L71.7 39.55" />
<path style="fill:#995A1C;fill-opacity:1" d="M76.4,36.4L76.45 36.35L76.5 36.25L73.65 36.5L73.3 36.65L73.3 36.75L73.35 36.75L73.55 36.7L74.5 36.4L74.65 36.45L74.75 36.45L74.95 36.4L75.2 36.4L75.3 36.45L76.3 36.45L76.4 36.4M78.5,36.8L78.4 36.65L77.85 36.55L77.75 36.5L77.5 36.5L77.35 36.5L77.4 36.65L77.45 36.65L77.75 36.8L77.8 36.8L78.5 37.05L78.55 36.95L78.55 36.85L78.5 36.8M77.55,36.55L77.75 36.6L78.05 36.7L78.05 36.75L78.25 36.75L78.35 36.8L78.45 36.95L78.35 36.95L78.15 36.8L78.05 36.75L78.05 36.8L77.8 36.75L77.55 36.6L77.55 36.55M71.5,37.7L71.7 37.7L71.75 37.85L71.6 38.05L71.45 38.15L71.35 37.9L71.35 38.05L71.45 38.2L71.65 38.4L71.8 37.85L71.85 37.8L71.65 37.6L71.6 37.6L71.5 37.7" />
<path style="fill:#824B13;fill-opacity:1" d="M78.75,36.6L78.55 36.55L77.7 36.4L77.55 36.35L77.25 36.3L77.1 36.3L77 36.3L76.5 36.25L76.45 36.35L77.35 36.5L77.5 36.5L77.75 36.5L77.85 36.55L78.4 36.65L78.5 36.8L78.55 36.85L78.75 36.9L78.75 36.6" />
<path style="fill:#C98E47;fill-opacity:1" d="M73.35,36.8L73.4 36.8L73.45 36.8L73.6 36.8L74 36.65L74.65 36.45L74.5 36.4L73.55 36.7L73.35 36.75L73.35 36.8M77.55,36.6L77.8 36.75L78.05 36.8L78.05 36.75L78.15 36.8L78.35 36.95L78.45 36.95L78.35 36.8L78.25 36.75L78.05 36.75L78.05 36.7L77.75 36.6L77.55 36.55L77.55 36.6M71.35,37.9L71.45 38.15L71.6 38.05L71.75 37.85L71.7 37.7L71.5 37.7L71.4 37.85L71.35 37.9" />
<path style="fill:#542000;fill-opacity:1" d="M76.45,36.35L76.4 36.4L76.3 36.45L76.9 36.5L77.1 36.6L77.15 36.6L77.35 36.75L77.85 36.9L78.2 37L78.4 37.15L78.75 36.9L78.55 36.85L78.55 36.95L78.5 37.05L77.8 36.8L77.75 36.8L77.45 36.65L77.4 36.65L77.35 36.5L76.45 36.35M71.75,39.8L71.8 39.8L71.9 39.8L71.8 38.85L71.8 38.6L71.85 38.6L71.85 38.5L71.9 38.2L71.9 38.1L71.95 37.95L72.25 37.55L72.5 37L72.15 37.15L71.6 37.6L71.65 37.6L71.85 37.8L71.8 37.85L71.65 38.4L71.45 38.2L71.35 38.05L71.3 38.2L71.3 38.4L71.3 38.5L71.25 38.6L71.25 38.7L71.65 39.2L71.7 39.55L71.75 39.8" />
<path style="fill:#513B15;fill-opacity:1" d="M79.8,37.75L79.8 37.55L79.8 37.3L79.85 37.15L79.95 37.2L80.25 37.5L80.45 37.85L80.35 37.45L80.25 37.15L80.05 37.05L79.4 36.8Q79 36.8 78.95 37L79.2 37.5L79.3 37.6L79.25 37.15L79.3 37.1L79.65 37.45L79.8 37.75" />
<path style="fill:#A37844;fill-opacity:1" d="M79.05,37.35L78.9 37.3L78.9 37.4L79.3 37.95L79.3 38.05L79.7 38.6L79.85 38.4L79.75 37.75L79.65 37.45L79.3 37.1L79.25 37.15L79.3 37.6L79.2 37.5L79.05 37.35M79.45,37.4L79.5 37.4L79.65 37.8L79.7 37.9L79.6 37.85L79.45 37.5L79.45 37.4M79.15,37.7L79.45 37.85L79.45 37.9L79.55 38.25L79.55 38.4L79.35 38L79.15 37.7" />
<path style="fill:#FFEDC1;fill-opacity:1" d="M79.45,37.5L79.6 37.85L79.7 37.9L79.65 37.8L79.5 37.4L79.45 37.4L79.45 37.5" />
<path style="fill:#5E4C25;fill-opacity:1" d="M78.75,36.6L78.75 36.9L78.4 37.15L78.95 37.7L79.15 38.1L79.25 38.2L79.65 38.85L79.9 38.6L80.4 38.2L80.5 38.2L80.5 38.1L80.4 38.05L79.9 38.2L79.85 38.4L79.7 38.6L79.3 38.05L79.3 37.95L78.9 37.4L78.9 37.3L79.05 37.35L79.2 37.5L78.95 37Q79 36.8 79.4 36.8L78.75 36.6" />
<path style="fill:#E3BD88;fill-opacity:1" d="M79.9,37.6L79.95 37.7L80.05 37.9L80.15 37.95L80.05 37.6L80 37.55L80 37.5L79.9 37.45L79.9 37.6" />
<path style="fill:#8A7149;fill-opacity:1" d="M80.45,37.85L80.25 37.5L79.95 37.2L79.85 37.15L79.8 37.3L79.8 37.55L79.8 37.75L79.65 37.45L79.75 37.75L79.85 38.4L79.9 38.2L80.4 38.05L80.5 38.1L80.45 37.85M79.9,37.45L80 37.5L80 37.55L80.05 37.6L80.15 37.95L80.05 37.9L79.95 37.7L79.9 37.6L79.9 37.45M79.8,37.75L79.8 37.85L79.8 37.75" />
<path style="fill:#473B2F;fill-opacity:1" d="M79.8,37.85L79.8 37.75L79.8 37.85" />
<path style="fill:#E3BC86;fill-opacity:1" d="M79.35,38L79.55 38.4L79.55 38.25L79.45 37.9L79.45 37.85L79.15 37.7L79.35 38" />
<path style="fill:#B3B098;fill-opacity:1" d="M79.55,39.1L79.55 39L79.45 38.9L79.45 38.95L79.5 39.15L79.55 39.1" />
<path style="fill:#292609;fill-opacity:1" d="M79.35,38.8L79.25 38.65L79.25 40.4Q79.15 41.05 78.65 41.4L78.05 41.75L77.65 41.9L77.8 41.95L78.15 41.85Q78.2 41.75 78.3 41.75L78.4 41.65L78.65 41.55L78.65 41.5L78.8 41.4L79.35 40.3L79.5 39.15L79.45 38.95L79.45 38.9L79.35 38.8M72.1,39.75L72 39.8L71.9 39.8L72.1 40.2L72.5 40.8L73.25 41.55L73.8 41.85L74.7 42.15L75.8 42.35L75.9 42.35L76.3 42.4L75.75 42.2L75.7 42.2L75.4 42.15L75.05 42.05L74.55 41.95L73.7 41.65L72.8 41L72.05 39.95L72.4 40.15L72.2 39.85L72.15 39.85L72.15 39.8L72.1 39.75" />
<path style="fill:#A8A28C;fill-opacity:1" d="M78.3,42L78.15 42.1L78.05 42.2L78 42.2L78.05 42.2L78.3 42.15L78.4 42.1L78.85 41.8L79.15 41.45L79.5 40.9L79.6 40.55L79.7 40.1L79.7 39.6L79.7 39L79.55 39L79.55 39.1L79.55 40.1L79.45 40.8L79.25 41.15L79 41.45L78.7 41.65L78.55 41.8L78.5 41.85L78.55 41.85L78.45 41.9L78.3 42" />
<path style="fill:#6B6750;fill-opacity:1" d="M77.3,41.95L77.25 41.95L76.7 42L75.75 41.95L73.75 41.45L72.4 40.15Q73 41.1 73.7 41.5L75.05 41.95L75.75 42.05L75.8 42.05L77.25 42.05L77.4 42L77.8 41.95L77.65 41.9L77.3 41.95M78.45,41.9L78.05 42.05L78 42.05L78.05 42L78 42.05L77.65 42.1L76.7 42.25L75.75 42.2L75.7 42.2L75.75 42.2L76.3 42.4L76.75 42.4L77.3 42.35L77.45 42.35L77.6 42.3L77.65 42.3L78 42.2L78.05 42.2L78.15 42.1L78.3 42L78.45 41.9" />
<path style="fill:#E0DCC3;fill-opacity:1" d="M72.15,39.8L72.15 39.85L72.2 39.85L72.15 39.8" />
<path style="fill:#4A200A;fill-opacity:1" d="M71.6,37.6L71.65 37.6L71.6 37.6" />
<path style="fill:#784B2D;fill-opacity:1" d="M73.35,36.75L73.3 36.75L73.3 36.65L73.25 36.65L73.15 36.7L73.05 36.75Q73.1 36.9 73.35 36.9L73.4 36.9L74.95 36.4L74.75 36.45L74.65 36.45L74 36.65L73.6 36.8L73.45 36.8L73.4 36.8L73.35 36.8L73.35 36.75" />
<path style="fill:#BF8E61;fill-opacity:1" d="M73.35,36.8L73.35 36.75L73.35 36.8" />
<path style="fill:#160400;fill-opacity:1" d="M71.2,39L71.2 39.4L71.2 39.45L71.25 39.55L71.5 39.7L71.55 39.7L71.35 39.2L71.2 39" />
<path style="fill:#927C65;fill-opacity:1" d="M72,39.45L71.95 38.75L71.9 38.65L71.9 38.6L71.85 38.5L71.85 38.6L71.8 38.6L71.8 38.85L71.9 39.8L72 39.8L72.1 39.75L72 39.45" />
<path style="fill:#FFEAD3;fill-opacity:1" d="M72,39.45L71.95 38.95L71.95 38.75L72 39.45" />
<path style="fill:#EDE9CE;fill-opacity:1" d="M77.4,42L77.25 42.05L75.8 42.05L75.75 42.05L75.05 41.95L73.7 41.5Q73 41.1 72.4 40.15L72.05 39.95L72.8 41L73.7 41.65L74.55 41.95L75.05 42.05L75.4 42.15L75.7 42.2L75.75 42.2L76.7 42.25L77.65 42.1L78 42.05L78.05 42L78.1 41.95L78.1 41.9L78.2 41.85L78.35 41.75L78.3 41.75Q78.2 41.75 78.15 41.85L77.8 41.95L77.4 42" />
<path style="fill:#FFEFE0;fill-opacity:1" d="M78.35,41.75L78.2 41.85L78.1 41.9L78.1 41.95L78.05 42L78 42.05L78.05 42.05L78.45 41.9L78.55 41.85L78.5 41.85L78.55 41.8L78.7 41.65L79 41.45L79.25 41.15L79.45 40.8L79.55 40.1L79.55 39.1L79.5 39.15L79.35 40.3L78.8 41.4L78.65 41.5L78.65 41.55L78.4 41.65L78.3 41.75L78.35 41.75" />
<radialGradient
id="RadialGradID_4901" gradientUnits="userSpaceOnUse" gradientTransform="matrix(-0.00965881, 0, 0, 0.00965881, 80.1, 42.95)" spreadMethod ="pad" cx="0" cy="0" r="819.2" fx="0" fy="0" >
<stop  offset="0"  style="stop-color:#FFFFFF;stop-opacity:0.501961" />
<stop  offset="1"  style="stop-color:#FFFFFF;stop-opacity:0" />
</radialGradient>
<path style="fill:url(#RadialGradID_4901) " d="M77.95,40.55Q77.1 41.55 74.85 41.8L77.55 41.95Q79.2 41.7 79.15 39.9Q79.2 38.05 78.8 39.05L77.95 40.55" />
<radialGradient
id="RadialGradID_4902" gradientUnits="userSpaceOnUse" gradientTransform="matrix(0.00241089, 0.00593567, -0.00952148, 0.00242615, 70.7, 37.5)" spreadMethod ="pad" cx="0" cy="0" r="819.2" fx="0" fy="0" >
<stop  offset="0"  style="stop-color:#FFFFFF;stop-opacity:0.501961" />
<stop  offset="1"  style="stop-color:#FFFFFF;stop-opacity:0" />
</radialGradient>
<path style="fill:url(#RadialGradID_4902) " d="M73.1,40.4Q72.8 38.95 73.55 38.2L74.8 37.3Q75.7 36.8 73.9 37.25Q72.15 37.75 72.3 38.75Q72.5 39.85 73.1 40.4" />
</g>
</svg>
