<?xml version="1.0" encoding="utf-8"?>
<svg version="1.1" id="Layer_1"
xmlns="http://www.w3.org/2000/svg"
xmlns:xlink="http://www.w3.org/1999/xlink"
xmlns:author="http://www.sothink.com"
width="22px" height="5px"
xml:space="preserve">
<g id="618" transform="matrix(1, 0, 0, 1, -59.6, -37.45)">
<path style="fill:#F4F4FE;fill-opacity:1" d="M68.45,39.35L68.05 40L68 40.05L68 39.75L68.05 39.5L68.45 39.3L68.45 39.35" />
<path style="fill:#E0DEE9;fill-opacity:1" d="M68.45,39.3L68.05 39.5L68 39.75L68 40.05L68.05 40L68.45 39.35L68.45 39.3M68.5,40.15L68.2 40.55Q68 40.45 67.95 40Q67.85 39.45 68.05 39.35L68.5 39.2L68.9 39.1L68.5 40.15" />
<path style="fill:#B5B5BF;fill-opacity:1" d="M68.9,39.1L68.95 39.1L69.1 39.1L69.1 39.2L68.7 40.2L68.6 40.35Q68.35 40.65 68.2 40.55L68.5 40.15L68.9 39.1" />
<path style="fill:#8C8D8F;fill-opacity:1" d="M60.65,39.75L60.55 39.6L60.15 39.6L59.8 39.55L59.6 39.55L59.6 39.35L59.6 39.3L59.8 39.35L60.25 39.35L60.45 39.2L60.5 38.85L60.65 39.75M69.2,38.65L69.25 38.6L69.4 38.5L70.35 38.25L70.5 38.3L70.55 38.45L70.4 38.45L70.1 38.45L70 38.5L69.9 38.5L69.8 38.5L69.65 38.55L69.5 38.65L69.4 38.7L69.2 38.85L68.85 38.9L68.95 38.8L69.2 38.65" />
<path style="fill:#A2A2A2;fill-opacity:1" d="M68.95,38.8L68.85 38.9L68.85 39.05L68.8 38.7L68.8 38.6L69 38.6L69.05 38.6L69.2 38.65L68.95 38.8" />
<path style="fill:#BABABA;fill-opacity:1" d="M59.7,38.9L59.75 39.2L59.9 39.2L60.45 39.2L60.25 39.35L59.8 39.35L59.6 39.3L59.6 39.25L59.6 39.2L59.6 39.05L59.6 38.9L59.7 38.9" />
<path style="fill:#D1D1D3;fill-opacity:1" d="M63.2,41.55L62.85 41.5L62.6 41.45L62.15 41.25L62.1 41.25L61.75 41L61.35 40.55L61.3 40.55L61.35 40.5L61.25 40.4L61.15 40.2L61.05 40L61.05 39.95L61 39.9L60.7 39L60.85 38.5L60.85 38.7L61.05 39.45L61.15 39.7L61.25 39.95L61.3 40.1L61.6 40.5L61.95 40.9L62.1 41L62.6 41.35L63.2 41.55" />
<path style="fill:#828385;fill-opacity:1" d="M67.2,41.15L66.9 41.3L66.65 41.45L66.25 41.65L65.85 41.8L65.4 41.9L64.6 41.95L62.95 41.8L62.85 41.75L62.75 41.7L62.35 41.55L62.25 41.45L62.1 41.4L62.05 41.4L62 41.35L61.95 41.35L61.85 41.25L61.5 40.95L61.35 40.85L61 40.4L62.1 41.25L62.15 41.25L62.6 41.45L62.85 41.5L63.2 41.55L63.55 41.55L65.05 41.65Q66.35 41.6 67.2 40.8L68.25 39.5L68.25 39.45L68.25 39.3L68.25 39.2L68.3 38.9L68.3 38.85L68.25 38.75L68 38.4L67.95 38.4L67.95 38.35L67.85 38.35L67.75 38.35L67.7 38.35L67.45 38.3L65.65 38.15L65.6 38.15L65.3 38.15L65.1 38.15L64.25 38.15L64.15 38.15L63.65 38.15L62.7 38.25L62.45 38.25L61.2 38.5L61.15 38.7L61.1 38.75L61.1 39.4L61.1 39.45L61.15 39.7L61.05 39.45L60.85 38.7L60.85 38.5Q61.25 37.9 62.8 37.9L63.75 37.9L64.75 37.85Q68.15 37.8 68.55 38.85L68.6 39.05Q68.6 39.8 67.2 41.15" />
<path style="fill:#F2F2F2;fill-opacity:1" d="M59.9,39.2L59.75 39.2L59.7 38.9L59.95 38.85L60.5 38.85L60.45 39.2L59.9 39.2M70.35,38.25L69.4 38.5L69.25 38.6L69.2 38.65L69.05 38.6L69 38.6L69.1 38.5L69.15 38.5L69.45 38.25L69.55 38.2L70.3 38.1L70.5 38.1L70.5 38.3L70.35 38.25" />
<path style="fill:#ABABAB;fill-opacity:1" d="M62.6,41.35L62.1 41L61.95 40.9L61.6 40.5L61.3 40.1L61.25 39.95L61.15 39.7L61.1 39.45L61.1 39.4L61.1 38.75L61.1 39.1L61.15 39.3L61.35 39.9L61.45 40.05L61.6 40.35L61.7 40.45L61.95 40.75L62 40.8L62.15 40.9L62.35 41.05L62.5 41.1L62.65 41.15L62.7 41.2L62.95 41.3L63.05 41.35L64.65 41.5L65.25 41.5L65.45 41.45L65.75 41.35L65.9 41.3L66.15 41.2L66.3 41.05L66.45 40.95L67.15 40.55L67.2 40.55L67.35 40.45L67.5 40.3L67.9 39.85L67.95 39.8L68.15 39.5L68.25 39.3L68.25 39.45L68.25 39.5L67.2 40.8Q66.35 41.6 65.05 41.65L63.55 41.55L63.2 41.55L62.6 41.35" />
<path style="fill:#A6A6A6;fill-opacity:1" d="M68.85,39.05L68.85 39.1L68.5 39.85L68.3 40.1L68.2 40.25L67.9 40.55L67.85 40.6L67.8 40.65L67.2 41.15Q68.6 39.8 68.6 39.05L68.55 38.85Q68.15 37.8 64.75 37.85L63.75 37.9L62.8 37.9Q61.25 37.9 60.85 38.5L60.7 39L61 39.9L61.05 39.95L61.05 40L61.15 40.2L61.25 40.4L61.35 40.5L61.3 40.55L61.35 40.55L61.75 41L62.1 41.25L61 40.4L60.9 40.25L60.85 40.15L60.75 40.05L60.75 40L60.65 39.85L60.65 39.75L60.5 38.85L60.5 38.8L60.55 38.75Q60.6 38.2 60.95 38.05L61.75 37.8L64 37.65L64.5 37.65L65.15 37.7L65.3 37.7L65.65 37.7L67.95 37.85L68.4 38.1L68.6 38.3L68.8 38.55L68.8 38.6L68.8 38.7L68.85 39.05" />
<radialGradient
id="RadialGradID_4903" gradientUnits="userSpaceOnUse" gradientTransform="matrix(-0.0072937, 0.00012207, 0.00012207, 0.00715637, 67.5, 36.9)" spreadMethod ="pad" cx="0" cy="0" r="819.2" fx="0" fy="0" >
<stop  offset="0"  style="stop-color:#FFFFFF;stop-opacity:1" />
<stop  offset="0.517647"  style="stop-color:#F5F6FA;stop-opacity:1" />
<stop  offset="1"  style="stop-color:#D9D9D9;stop-opacity:1" />
</radialGradient>
<path style="fill:url(#RadialGradID_4903) " d="M63.6,37.9L62.65 37.95L63.65 37.85L63.85 37.75L64.1 37.75L64.8 37.8L65.3 37.8L66.3 37.75L68.1 38.05L68.65 38.5L68.65 39.2L67.65 40.65Q68.55 39.6 68.5 39.05Q68.5 38.55 68 38.25L66.55 38L65.3 38L64.7 37.95L64.1 37.95L64.05 37.95L63.7 37.9L63.6 37.9" />
<radialGradient
id="RadialGradID_4904" gradientUnits="userSpaceOnUse" gradientTransform="matrix(-0.0083313, 0.000152588, 0.000152588, 0.0083313, 59, 37.45)" spreadMethod ="pad" cx="0" cy="0" r="819.2" fx="0" fy="0" >
<stop  offset="0"  style="stop-color:#FFFFFF;stop-opacity:1" />
<stop  offset="0.517647"  style="stop-color:#F5F6FA;stop-opacity:1" />
<stop  offset="1"  style="stop-color:#D9D9D9;stop-opacity:1" />
</radialGradient>
<path style="fill:url(#RadialGradID_4904) " d="M63.65,37.85L62.65 37.95L63.6 37.9L61.5 38.15L61.3 38.25Q60.8 38.5 60.9 38.9L61 39.65L61.8 41.05L60.75 39.55L60.65 38.75Q60.6 38.45 60.85 38.25Q61.1 38 61.75 37.95L62.45 37.85L63.85 37.75L63.65 37.85" />
<radialGradient
id="RadialGradID_4905" gradientUnits="userSpaceOnUse" gradientTransform="matrix(-0.00247192, -0.00288391, -0.0037384, 0.00318909, 64.7, 40.3)" spreadMethod ="pad" cx="0" cy="0" r="819.2" fx="0" fy="0" >
<stop  offset="0"  style="stop-color:#FFFFFF;stop-opacity:1" />
<stop  offset="0.517647"  style="stop-color:#F5F6FA;stop-opacity:1" />
<stop  offset="1"  style="stop-color:#D9D9D9;stop-opacity:1" />
</radialGradient>
<path style="fill:url(#RadialGradID_4905) " d="M64.85,41.6L65.4 41.55L66.2 41.3L67.3 40.65L66.45 41.35L65.4 41.75L64.65 41.8L63.5 41.6L62.35 41.25L64.3 41.55L64.85 41.6" />
<path style="fill:#F4F4FE;fill-opacity:1" d="M72.5,39.65L72.5 39.95L72.45 39.95L72.45 39.9L71.95 39.25L72 39.2L72.45 39.4L72.5 39.65" />
<path style="fill:#E0DEE9;fill-opacity:1" d="M71.9,40.05L71.5 39.1L71.95 39.1L72.4 39.25L72.55 39.9L72.3 40.45L71.9 40.05M72.45,39.4L72 39.2L71.95 39.25L72.45 39.9L72.45 39.95L72.5 39.95L72.5 39.65L72.45 39.4" />
<path style="fill:#B5B5BF;fill-opacity:1" d="M71.5,39.1L71.9 40.05L72.3 40.45L72.25 40.45Q72.05 40.55 71.85 40.25L71.7 40.15L71.35 39.2L71.4 39.1L71.45 39.1L71.5 39.1" />
<path style="fill:#8C8D8F;fill-opacity:1" d="M79.75,39.45L79.85 39.2L80.25 39.2L80.6 39.15L80.8 39.15L80.8 38.95L80.8 38.9L80.6 38.95L80.15 38.95L79.95 38.8L79.9 38.45L79.75 39.45M71.2,38.65L71.15 38.6L71 38.5L69.95 38.25L69.8 38.3L69.85 38.45L70 38.45L70.3 38.45L70.4 38.5L70.5 38.5L70.6 38.5L70.75 38.55L70.9 38.65L71 38.7L71.2 38.85L71.55 38.8L71.45 38.7L71.2 38.65" />
<path style="fill:#A2A2A2;fill-opacity:1" d="M71.45,38.7L71.55 38.8L71.55 38.95L71.6 38.6L71.6 38.5L71.4 38.5L71.35 38.5L71.2 38.65L71.45 38.7" />
<path style="fill:#BABABA;fill-opacity:1" d="M80.7,38.5L80.65 38.8L80.5 38.8L79.95 38.8L80.15 38.95L80.6 38.95L80.8 38.9L80.8 38.85L80.8 38.8L80.8 38.65L80.8 38.5L80.7 38.5" />
<path style="fill:#D1D1D3;fill-opacity:1" d="M78.3,40.95L78.65 40.7L79.05 40.25L79.1 40.25L79.05 40.2L79.15 40.1L79.25 39.9L79.35 39.7L79.35 39.65L79.4 39.6L79.7 38.7L79.45 38.2L79.55 38.4L79.35 39.15L79.25 39.4L79.15 39.65L79.1 39.8L78.8 40.2L78.45 40.6L78.3 40.7L77.8 41.05L77.3 41.25L77.65 41.2L77.9 41.15L78.25 40.95L78.3 40.95" />
<path style="fill:#828385;fill-opacity:1" d="M78.3,40.95L78.25 40.95L77.9 41.15L77.65 41.2L77.3 41.25L76.95 41.35L75.45 41.45Q74.15 41.5 73.2 40.7Q72.35 39.95 72.15 39.4L72.15 39.35L72.15 39.2L72.15 39.1L72.1 38.8L72.1 38.75L72.15 38.65L72.3 38.3L72.35 38.3L72.35 38.25L72.45 38.25L72.55 38.25L72.6 38.25L72.85 38.2L74.65 37.95L74.7 37.95L75 37.95L75.2 37.95L76.05 37.95L76.15 37.95L76.65 37.95L77.6 37.95L77.85 37.95L79.1 38.2L79.25 38.4L79.3 38.45L79.3 39.1L79.3 39.15L79.25 39.4L79.35 39.15L79.55 38.4L79.45 38.2Q79.05 37.6 77.5 37.6L76.55 37.7L75.55 37.65Q72.15 37.7 71.85 38.75L71.8 38.95Q71.8 39.7 73.2 41.05L73.5 41.2L73.85 41.35L74.25 41.45L74.65 41.6L75.1 41.7L75.9 41.75L77.55 41.5L77.65 41.45L77.75 41.4L78.15 41.25L78.25 41.15L78.3 41.1L78.35 41.1L78.4 41.05L78.45 41.05L78.55 40.95L78.9 40.65L79.05 40.55L79.4 40.1L78.3 40.95" />
<path style="fill:#F2F2F2;fill-opacity:1" d="M80.5,38.8L80.65 38.8L80.7 38.5L80.45 38.45L79.9 38.45L79.95 38.8L80.5 38.8M69.95,38.25L71 38.5L71.15 38.6L71.2 38.65L71.35 38.5L71.4 38.5L71.3 38.5L71.25 38.5L70.85 38.25L70.75 38.2L70 38.1L69.8 38.1L69.8 38.3L69.95 38.25" />
<path style="fill:#ABABAB;fill-opacity:1" d="M72.15,39.35L72.15 39.4Q72.35 39.95 73.2 40.7Q74.15 41.5 75.45 41.45L76.95 41.35L77.3 41.25L77.8 41.05L78.3 40.7L78.45 40.6L78.8 40.2L79.1 39.8L79.15 39.65L79.25 39.4L79.3 39.15L79.3 39.1L79.3 38.45L79.3 38.8L79.25 39L79.05 39.6L78.95 39.75L78.8 40.05L78.7 40.15L78.45 40.45L78.4 40.5L78.25 40.6L78.05 40.75L77.9 40.8L77.75 40.85L77.7 40.9L77.45 41L77.35 41.05L75.85 41.3L75.25 41.3L75.05 41.25L74.65 41.15L74.5 41.1L74.25 41L74.1 40.95L73.95 40.85L73.25 40.45L73.2 40.45L73.05 40.35L72.9 40.2L72.5 39.75L72.45 39.7L72.25 39.4L72.15 39.2L72.15 39.35" />
<path style="fill:#A6A6A6;fill-opacity:1" d="M71.55,38.95L71.55 39L71.9 39.75L72.1 40L72.2 40.15L72.5 40.45L72.55 40.5L72.6 40.55L73.2 41.05Q71.8 39.7 71.8 38.95L71.85 38.75Q72.15 37.7 75.55 37.65L76.55 37.7L77.5 37.6Q79.05 37.6 79.45 38.2L79.7 38.7L79.4 39.6L79.35 39.65L79.35 39.7L79.25 39.9L79.15 40.1L79.05 40.2L79.1 40.25L79.05 40.25L78.65 40.7L78.3 40.95L79.4 40.1L79.5 39.95L79.55 39.85L79.65 39.75L79.65 39.7L79.75 39.55L79.75 39.45L79.9 38.45L79.9 38.4L79.85 38.35Q79.7 37.9 79.35 37.75L78.55 37.5L76.3 37.45L75.8 37.45L75.15 37.5L75 37.5L74.65 37.5L72.35 37.75L71.9 38L71.7 38.2L71.6 38.45L71.6 38.5L71.6 38.6L71.55 38.95" />
<radialGradient
id="RadialGradID_4906" gradientUnits="userSpaceOnUse" gradientTransform="matrix(0.0072937, -0.00012207, 0.00012207, 0.00715637, 72.8, 36.8)" spreadMethod ="pad" cx="0" cy="0" r="819.2" fx="0" fy="0" >
<stop  offset="0"  style="stop-color:#FFFFFF;stop-opacity:1" />
<stop  offset="0.517647"  style="stop-color:#F5F6FA;stop-opacity:1" />
<stop  offset="1"  style="stop-color:#D9D9D9;stop-opacity:1" />
</radialGradient>
<path style="fill:url(#RadialGradID_4906) " d="M76.7,37.7L77.65 37.65L76.65 37.65L76.45 37.55L76.2 37.55L75.5 37.6L75 37.6L74 37.65L72.2 37.95Q71.8 38.2 71.75 38.4L71.75 39.1Q71.8 39.65 72.75 40.55Q71.85 39.5 71.9 38.95Q71.9 38.45 72.3 38.15L73.75 37.9L75 37.8L75.6 37.75L76.2 37.75L76.25 37.75L76.6 37.7L76.7 37.7" />
<radialGradient
id="RadialGradID_4907" gradientUnits="userSpaceOnUse" gradientTransform="matrix(0.0083313, -0.000152588, 0.000152588, 0.0083313, 81.3, 37.05)" spreadMethod ="pad" cx="0" cy="0" r="819.2" fx="0" fy="0" >
<stop  offset="0"  style="stop-color:#FFFFFF;stop-opacity:1" />
<stop  offset="0.517647"  style="stop-color:#F5F6FA;stop-opacity:1" />
<stop  offset="1"  style="stop-color:#D9D9D9;stop-opacity:1" />
</radialGradient>
<path style="fill:url(#RadialGradID_4907) " d="M76.65,37.65L77.65 37.65L76.7 37.7L78.8 37.85L79 37.95Q79.5 38.2 79.5 38.6L79.4 39.35L78.6 40.75L79.65 39.25L79.75 38.45L79.45 37.95L78.55 37.65L77.85 37.55L76.45 37.55L76.65 37.65" />
<radialGradient
id="RadialGradID_4908" gradientUnits="userSpaceOnUse" gradientTransform="matrix(0.00238037, -0.00297546, 0.00386047, 0.00306702, 75.7, 40.1)" spreadMethod ="pad" cx="0" cy="0" r="819.2" fx="0" fy="0" >
<stop  offset="0"  style="stop-color:#FFFFFF;stop-opacity:1" />
<stop  offset="0.517647"  style="stop-color:#F5F6FA;stop-opacity:1" />
<stop  offset="1"  style="stop-color:#D9D9D9;stop-opacity:1" />
</radialGradient>
<path style="fill:url(#RadialGradID_4908) " d="M75.65,41.4L75.1 41.35L74.2 41.1L73.1 40.55L74.05 41.25L75.1 41.55L75.85 41.6L77 41.4L78.05 40.95L76.2 41.35L75.65 41.4" />
</g>
</svg>
