<?xml version="1.0" encoding="utf-8"?>
<svg version="1.1" id="Layer_1"
xmlns="http://www.w3.org/2000/svg"
xmlns:xlink="http://www.w3.org/1999/xlink"
xmlns:author="http://www.sothink.com"
width="21px" height="6px"
xml:space="preserve">
<g id="623" transform="matrix(1, 0, 0, 1, -60, -29.7)">
<path style="fill:#BEAE97;fill-opacity:1" d="M71.65,33.25L71.7 33.3L71.7 33.35L71.7 33.4L71.7 33.45L71.9 34.05L71.65 33.4L71.65 33.35L71.6 33.3L71.4 32.7L71.5 33.45L71.55 33.55L71.6 33.7L71.5 33.6L71.45 33.55L71.25 32.65L71.3 32.55L71.5 32.75L71.6 33.15L71.65 33.25" />
<path style="fill:#EFE5D9;fill-opacity:1" d="M72.1,33.15L72 33.05L71.85 33.05L72.15 32.95L72.2 33.1L72 33.4L72.1 33.15" />
<path style="fill:#E4CAAD;fill-opacity:1" d="M72,33.4L71.9 33.4L71.7 33.45L71.7 33.4L71.7 33.35L71.9 33.35L72 33.2L72 33.15L71.85 33.15L71.65 33.25L71.6 33.15L71.8 33.05L71.85 33.05L72 33.05L72.1 33.15L72 33.4" />
<path style="fill:#9B8C75;fill-opacity:1" d="M71.7,33.35L71.7 33.3L71.65 33.25L71.85 33.15L72 33.15L72 33.2L71.9 33.35L71.7 33.35" />
<path style="fill:#E5CBB2;fill-opacity:1" d="M71.95,34.15L71.95 34.2L71.75 33.9L71.65 33.55L71.7 33.8L71.65 33.95L71.55 33.8L71.55 34.05L71.4 33.9L71.3 33.65Q71.15 33.35 71.15 32.95L71.25 32.65L71.45 33.55L71.5 33.6L71.6 33.7L71.55 33.55L71.5 33.45L71.4 32.7L71.6 33.3L71.65 33.35L71.65 33.4L71.9 34.05L71.95 34.15" />
<path style="fill:#FAE8D6;fill-opacity:1" d="M71.75,33.9L71.95 34.2L71.7 34.2L71.65 34.15L71.55 34.05L71.55 33.8L71.65 33.95L71.7 33.8L71.65 33.55L71.75 33.9" />
<path style="fill:#BEAE97;fill-opacity:1" d="M71.5,33.3L71.65 33L71.65 32.95L71.65 32.9L71.7 32.85L71.75 32.65L71.8 32.55L71.85 32.6L71.75 33.05L71.7 33.1L71.7 33.05L71.7 33L71.8 32.65L71.7 32.9L71.65 32.95L71.5 33.3" />
<path style="fill:#EFE5D9;fill-opacity:1" d="M71.5,32.95L71.35 32.85L71.4 32.75L71.55 32.8L71.5 32.8L71.4 32.85L71.5 32.95" />
<path style="fill:#E4CAAD;fill-opacity:1" d="M71.65,32.95L71.65 33L71.55 33L71.5 32.95L71.4 32.85L71.5 32.8L71.55 32.8L71.6 32.8L71.7 32.85L71.65 32.9L71.55 32.85L71.45 32.85L71.5 32.85L71.55 32.95L71.65 32.95" />
<path style="fill:#9B8C75;fill-opacity:1" d="M71.55,32.95L71.5 32.85L71.45 32.85L71.55 32.85L71.65 32.9L71.65 32.95L71.55 32.95" />
<path style="fill:#E5CBB2;fill-opacity:1" d="M71.5,33.35L71.5 33.3L71.65 32.95L71.7 32.9L71.8 32.65L71.7 33L71.7 33.05L71.7 33.1L71.75 33.05L71.85 32.6L71.9 32.75L71.85 33.1L71.8 33.2L71.7 33.3L71.7 33.15L71.65 33.25L71.65 33.15L71.65 33.05L71.6 33.2L71.5 33.35" />
<path style="fill:#FAE8D6;fill-opacity:1" d="M71.6,33.2L71.65 33.05L71.65 33.15L71.65 33.25L71.7 33.15L71.7 33.3L71.65 33.35L71.5 33.35L71.6 33.2" />
<path style="fill:#BEAE97;fill-opacity:1" d="M68.9,33.25L68.85 33.3L68.85 33.35L68.85 33.4L68.85 33.45L68.65 34.05L68.9 33.4L68.9 33.35L68.95 33.3L69.15 32.7L69.05 33.45L69 33.55L68.95 33.7L69.05 33.6L69.1 33.55L69.3 32.65L69.25 32.55L69.05 32.75L68.95 33.15L68.9 33.25" />
<path style="fill:#EFE5D9;fill-opacity:1" d="M68.45,33.15L68.55 33.05L68.7 33.05L68.4 32.95Q68.3 32.95 68.35 33.1L68.55 33.4L68.45 33.15" />
<path style="fill:#E4CAAD;fill-opacity:1" d="M68.65,33.35L68.55 33.2L68.55 33.15L68.7 33.15L68.9 33.25L68.95 33.15L68.75 33.05L68.7 33.05L68.55 33.05L68.45 33.15L68.55 33.4L68.65 33.4L68.85 33.45L68.85 33.4L68.85 33.35L68.65 33.35" />
<path style="fill:#9B8C75;fill-opacity:1" d="M68.85,33.35L68.85 33.3L68.9 33.25L68.7 33.15L68.55 33.15L68.55 33.2L68.65 33.35L68.85 33.35" />
<path style="fill:#E5CBB2;fill-opacity:1" d="M68.6,34.15L68.6 34.2L68.8 33.9L68.9 33.55L68.85 33.8L68.9 33.95L69 33.8L69 34.05L69.15 33.9L69.25 33.65L69.4 32.95L69.3 32.65L69.1 33.55L69.05 33.6L68.95 33.7L69 33.55L69.05 33.45L69.15 32.7L68.95 33.3L68.9 33.35L68.9 33.4L68.65 34.05L68.6 34.15" />
<path style="fill:#FAE8D6;fill-opacity:1" d="M68.8,33.9L68.6 34.2L68.85 34.2L68.9 34.15L69 34.05L69 33.8L68.9 33.95L68.85 33.8L68.9 33.55L68.8 33.9" />
<path style="fill:#3F221E;fill-opacity:1" d="M70.55,31.95Q71.05 32.25 71.45 32.65L71.45 32.75L71.5 32.95L71.3 32.9L70.6 32.3L70.4 32.25L69.85 32.15L69.85 32.2L70.3 32.4L70.45 32.45L70.8 32.8L70.5 32.8L70.3 32.8L70.05 32.8L69.8 32.85L69.55 32.85L69.45 32.9L69.4 32.9L69.25 32.55L69.2 31.95L70.05 31.75L70.6 31.8L70.85 31.85L71.1 32L71.3 32.05L71.45 31.85L71.45 31.8L70.95 31.55L71.6 31.7L71.55 31.85L71.5 32.3L71.5 32.45L70.55 31.95M70.85,32.3L70.5 32.05L70.45 32L69.7 31.95Q69.3 32 69.4 32.65L69.4 32.75L69.45 32.75L69.95 32.7L70.45 32.75L70.25 32.55Q70 32.35 69.6 32.3Q69.6 32.1 69.85 32.1L70.45 32.15L70.85 32.35L70.85 32.3M70.5,31.95L70.45 31.9L70.45 31.95L70.5 31.95" />
<path style="fill:#150000;fill-opacity:1" d="M71.5,32.45L71.45 32.65Q71.05 32.25 70.55 31.95L71.5 32.45M70.45,32.45L70.3 32.4L69.85 32.2L69.85 32.15L70.4 32.25L70.6 32.3L71.3 32.9L71 32.85L70.8 32.8L70.45 32.45M69.2,31.95L69.25 32.55L69.4 32.9L68.65 33.1L69 32.1L69.2 31.95" />
<path style="fill:#735E4F;fill-opacity:1" d="M69,32.1L69 31.75L69.85 31.6L70.55 31.55L70.45 31.6L70.7 31.8L70.85 31.85L70.6 31.8L70.05 31.75L69.2 31.95L69 32.1" />
<path style="fill:#C79F7F;fill-opacity:1" d="M71.1,31.7L71.15 31.75L71.35 31.8L71.3 31.85L71.2 31.95L71.1 31.9L70.8 31.7L70.9 31.65L71.1 31.7" />
<path style="fill:#997960;fill-opacity:1" d="M71.45,31.8L71.45 31.85L71.3 32.05L71.1 32L70.85 31.85L70.7 31.8L70.45 31.6L70.55 31.55L70.6 31.55L70.75 31.55L70.8 31.55L70.95 31.55L71.45 31.8M70.9,31.65L70.8 31.7L71.1 31.9L71.2 31.95L71.3 31.85L71.35 31.8L71.15 31.75L71.1 31.7L70.9 31.65M70.85,32.35L70.45 32.15L69.85 32.1Q69.6 32.1 69.6 32.3Q70 32.35 70.25 32.55L70.45 32.75L69.95 32.7L69.45 32.75L69.4 32.75L69.4 32.65Q69.3 32 69.7 31.95L70.45 32L70.5 32.05L70.85 32.3L70.85 32.35M70.1,32.55L69.6 32.55L69.5 32.65L69.5 32.7L70.15 32.6L70.1 32.55" />
<path style="fill:#E3B691;fill-opacity:1" d="M70.15,32.6L69.5 32.7L69.5 32.65L69.6 32.55L70.1 32.55L70.15 32.6" />
<path style="fill:#2A1E10;fill-opacity:1" d="M60.8,32.4L60.7 32.4L60.05 31.75L60 31.65L60 31.6L60.1 31.6L60.6 32L60.85 32.25L61.25 31.6L61.3 31.5L61.55 31.15Q61.8 30.8 62.25 30.6L62.6 30.45L63.15 30.3L63.8 30.15L63.9 30.15L64.8 30.05L65.25 30.05L66.35 30.3L67.05 30.45L67.2 30.5L68.15 30.95L68.45 31.35L68.45 31.5L68.5 31.6L68.5 31.9L68.5 32L68.5 32.05L68.45 32.15L68.4 32.15L68.4 32.05L68.4 31.85L68.4 31.75L68.3 31.25Q67.95 30.85 66.7 30.5L65.95 30.35L64 30.25L63.7 30.3L63.2 30.4L62.5 30.65Q61.95 30.95 61.55 31.45L61.5 31.55L61.25 32.05L61.15 32.2L61.05 32.3L60.95 32.4L60.8 32.4" />
<path style="fill:#330800;fill-opacity:1" d="M67,30.3L67.05 30.3L67.35 30.2L67.7 30.3L67.9 30.4L68.15 30.95L67.2 30.5L67.05 30.45L66.35 30.3L65.25 30.05L64.8 30.05L63.9 30.15L63.8 30.15L63.15 30.3L62.6 30.45L62.25 30.6Q61.8 30.8 61.55 31.15L62.05 30.55L62.25 30.45L62.3 30.45L62.6 30.35L63.1 30.15L63.3 30.05L63.35 30.05L63.55 29.95L64.1 29.9L65.1 29.9L65.2 29.85L65.5 29.85L67 30.3M68.65,32.9L68.7 32.6L69.1 32.1L69.1 32.15L69.15 32.4L69 32.6L68.8 33.1L68.75 33.15L68.65 33.15L68.65 32.9" />
<path style="fill:#995A1C;fill-opacity:1" d="M64,29.85L64 29.8L63.9 29.7L66.75 29.95L67.1 30.1L67.1 30.15L67.05 30.2L66.85 30.15L65.95 29.85L65.75 29.9L65.65 29.9L65.5 29.85L65.2 29.85L65.1 29.9L64.1 29.9L64 29.85M61.95,30.2L62.05 30.1L62.6 30L62.7 29.95L62.95 29.95L63.1 29.95L63.05 30.1L63 30.1L62.7 30.25L62.65 30.25L62 30.45L61.9 30.35L61.95 30.25L61.95 30.2M62.9,30L62.7 30.05L62.45 30.15L62.4 30.15L62.25 30.15L62.1 30.2L62 30.4L62.1 30.35L62.35 30.25L62.4 30.2L62.45 30.2L62.65 30.2L62.9 30.05L62.9 30M68.85,31.1L68.65 31.15L68.65 31.3L68.8 31.45L68.9 31.55L69 31.35L69 31.45L68.9 31.6L68.75 31.8L68.55 31.3L68.5 31.2L68.75 31L68.85 31.1" />
<path style="fill:#824B13;fill-opacity:1" d="M61.75,30.05L61.9 30L62.75 29.85L62.9 29.8L63.2 29.75L63.35 29.75L63.45 29.75L63.9 29.7L64 29.8L63.1 29.95L62.95 29.95L62.7 29.95L62.6 30L62.05 30.1L61.95 30.2L61.95 30.25L61.7 30.3L61.75 30.05" />
<path style="fill:#C98E47;fill-opacity:1" d="M67,30.25L66.95 30.25L66.8 30.2L66.4 30.1L65.75 29.9L65.95 29.85L66.85 30.15L67.05 30.2L67 30.25M62.9,30.05L62.65 30.2L62.45 30.2L62.4 30.2L62.35 30.25L62.1 30.35L62 30.4L62.1 30.2L62.25 30.15L62.4 30.15L62.45 30.15L62.7 30.05L62.9 30L62.9 30.05M69,31.35L68.9 31.55L68.8 31.45L68.65 31.3L68.65 31.15L68.85 31.1L68.95 31.25L69 31.35" />
<path style="fill:#542000;fill-opacity:1" d="M64,29.8L64 29.85L64.1 29.9L63.55 29.95L63.35 30.05L63.3 30.05L63.1 30.15L62.6 30.35L62.3 30.45L62.25 30.45L62.05 30.55Q61.75 30.6 61.7 30.3L61.95 30.25L61.9 30.35L62 30.45L62.65 30.25L62.7 30.25L63 30.1L63.05 30.1L63.1 29.95L64 29.8M68.65,33.15L68.6 33.2L68.5 33.15L68.6 32.25L68.55 32L68.5 32L68.5 31.9L68.5 31.6L68.45 31.5L68.45 31.35L68.15 30.95L67.9 30.4L68.2 30.6L68.75 31L68.5 31.2L68.55 31.3L68.75 31.8L68.9 31.6L69 31.45L69.05 31.6L69.05 31.8L69.05 31.9L69.1 32L69.1 32.1L68.7 32.6L68.65 32.9L68.65 33.15" />
<path style="fill:#513B15;fill-opacity:1" d="M60.7,31.15L60.7 30.95L60.7 30.75L60.65 30.6L60.55 30.6L60.25 30.95L60.05 31.25L60.15 30.9L60.25 30.6L60.45 30.45L61.1 30.25Q61.45 30.2 61.5 30.4L61.3 30.9L61.2 31.05L61.2 31L61.25 30.6L61.2 30.5L60.85 30.85L60.7 31.15" />
<path style="fill:#A37844;fill-opacity:1" d="M61.45,30.75L61.55 30.75L61.55 30.8L61.2 31.35L61.2 31.45L60.8 32L60.65 31.8L60.75 31.2L60.85 30.85L61.2 30.5L61.25 30.6L61.2 31L61.2 31.05L61.3 30.9L61.45 30.75M61.05,30.8L61 30.8L61 30.85L60.85 31.25L60.8 31.3L60.9 31.25L61.05 30.9L61.05 30.8M61.3,31.15L61.3 31.1L61.3 31.15L61.05 31.25L61.05 31.35L60.95 31.65L60.95 31.8L61.15 31.4L61.3 31.15" />
<path style="fill:#FFEDC1;fill-opacity:1" d="M61.05,30.9L60.9 31.25L60.8 31.3L60.85 31.25L61 30.85L61 30.8L61.05 30.8L61.05 30.9" />
<path style="fill:#5E4C25;fill-opacity:1" d="M61.7,30.3Q61.75 30.6 62.05 30.55L61.55 31.15L61.3 31.5L61.25 31.6L60.85 32.25L60.6 32L60.1 31.6L60 31.6L60 31.5L60.1 31.45L60.6 31.6L60.65 31.8L60.8 32L61.2 31.45L61.2 31.35L61.55 30.8L61.55 30.75L61.45 30.75L61.3 30.9L61.5 30.4Q61.45 30.2 61.1 30.25L61.75 30.05L61.7 30.3" />
<path style="fill:#E3BD88;fill-opacity:1" d="M60.6,31L60.55 31.1L60.45 31.35L60.35 31.35L60.45 31.05L60.5 30.95L60.6 30.9L60.6 31" />
<path style="fill:#8A7149;fill-opacity:1" d="M60.05,31.25L60.25 30.95L60.55 30.6L60.65 30.6L60.7 30.75L60.7 30.95L60.7 31.15L60.85 30.85L60.75 31.2L60.65 31.8L60.6 31.6L60.1 31.45L60 31.5L60.05 31.25M60.6,30.9L60.5 30.95L60.45 31.05L60.35 31.35L60.45 31.35L60.55 31.1L60.6 31L60.6 30.9M60.7,31.15L60.7 31.25L60.7 31.15" />
<path style="fill:#473B2F;fill-opacity:1" d="M60.7,31.25L60.7 31.15L60.7 31.25" />
<path style="fill:#D9BCA0;fill-opacity:1" d="M61.3,31.1L61.3 31.15L61.3 31.1" />
<path style="fill:#E3BC86;fill-opacity:1" d="M61.15,31.4L60.95 31.8L60.95 31.65L61.05 31.35L61.05 31.25L61.3 31.15L61.15 31.4" />
<path style="fill:#B3B098;fill-opacity:1" d="M60.95,32.5L60.95 32.4L61.05 32.3L61.05 32.35L61 32.55L60.95 32.5" />
<path style="fill:#292609;fill-opacity:1" d="M61.15,32.2L61.25 32.05Q61.1 32.65 61.25 33.8Q61.35 34.4 61.8 34.75L62.45 35.1L62.8 35.2L62.65 35.25L62.35 35.15L62.2 35.1L62.05 35L61.8 34.9L61.8 34.85L61.7 34.75Q61.3 34.45 61.15 33.7L61 32.55L61.05 32.35L61.05 32.3L61.15 32.2M68.5,33.15L68.5 33.2L68.25 33.6L67.9 34.15L67.15 34.9L66.6 35.2L65.7 35.5L64.65 35.65L64.55 35.7L64.1 35.7L64.65 35.55L64.7 35.5L65.05 35.45L65.4 35.4L65.9 35.3L66.7 35L67.6 34.35L68.3 33.3L68 33.55L68.2 33.2L68.3 33.15L68.3 33.1L68.35 33.15L68.5 33.15M68.2,33.25L68.2 33.2L68.2 33.25" />
<path style="fill:#A8A28C;fill-opacity:1" d="M62.2,35.35L62.35 35.45L62.45 35.5L62.5 35.55L62.45 35.55L62.2 35.45L62.1 35.4L61.65 35.15L61.35 34.8L61 34.25L60.9 33.9L60.8 33.5L60.8 32.95L60.8 32.4L60.95 32.4L60.95 32.5L60.95 33.5L61.05 34.15L61.25 34.5L61.45 34.8L61.75 35L61.9 35.15L61.95 35.15L62 35.2L62.2 35.35" />
<path style="fill:#6B6750;fill-opacity:1" d="M63.15,35.25L63.2 35.25L63.75 35.3L64.7 35.3L66.65 34.8L68 33.55L66.7 34.85L65.35 35.25L64.7 35.35L64.65 35.35L63.2 35.35L63.05 35.35L62.65 35.25L62.8 35.2L63.15 35.25M62,35.2L62.4 35.4L62.45 35.4L62.45 35.35L62.5 35.35L62.8 35.45L63.75 35.55L64.65 35.5L64.7 35.5L64.65 35.55L64.1 35.7L63.7 35.7L63.15 35.7L63 35.65L62.85 35.65L62.8 35.6L62.5 35.55L62.45 35.5L62.35 35.45L62.2 35.35L62 35.2" />
<path style="fill:#E0DCC3;fill-opacity:1" d="M68.2,33.2L68.2 33.25L68.2 33.2" />
<path style="fill:#784B2D;fill-opacity:1" d="M67.35,30.2L67.05 30.3L67 30.3L65.5 29.85L65.65 29.9L65.75 29.9L66.4 30.1L66.8 30.2L66.95 30.25L67 30.25L67.05 30.2L67.1 30.15L67.1 30.1L67.15 30.1L67.25 30.15L67.35 30.2" />
<path style="fill:#160400;fill-opacity:1" d="M69.15,32.4L69.15 32.75L69.15 32.85L69.1 32.9L68.85 33.1L68.8 33.1L69 32.6L69.15 32.4" />
<path style="fill:#927C65;fill-opacity:1" d="M68.45,32.15L68.5 32.05L68.5 32L68.5 31.9L68.5 32L68.55 32L68.6 32.25L68.5 33.15L68.35 33.15L68.3 33.1L68.35 32.8L68.45 32.15" />
<path style="fill:#FFEAD3;fill-opacity:1" d="M68.35,32.8L68.4 32.35L68.4 32.15L68.45 32.15L68.35 32.8" />
<path style="fill:#EDE9CE;fill-opacity:1" d="M62.45,35.35L62.4 35.3L62.35 35.25L62.25 35.15L62.15 35.1L62.2 35.1L62.35 35.15L62.65 35.25L63.05 35.35L63.2 35.35L64.65 35.35L64.7 35.35L65.35 35.25L66.7 34.85L68 33.55L68.3 33.3L67.6 34.35L66.7 35L65.9 35.3L65.4 35.4L65.05 35.45L64.7 35.5L64.65 35.5L63.75 35.55L62.8 35.45L62.5 35.35L62.45 35.35" />
<path style="fill:#FFEFE0;fill-opacity:1" d="M62.15,35.1L62.25 35.15L62.35 35.25L62.4 35.3L62.45 35.35L62.45 35.4L62.4 35.4L62 35.2L61.95 35.15L61.9 35.15L61.75 35L61.45 34.8L61.25 34.5L61.05 34.15L60.95 33.5L60.95 32.5L61 32.55L61.15 33.7Q61.3 34.45 61.7 34.75L61.8 34.85L61.8 34.9L62.05 35L62.2 35.1L62.15 35.1" />
<radialGradient
id="RadialGradID_4946" gradientUnits="userSpaceOnUse" gradientTransform="matrix(0.00949097, 0, 0, 0.00946045, 60.35, 36.2)" spreadMethod ="pad" cx="0" cy="0" r="819.2" fx="0" fy="0" >
<stop  offset="0"  style="stop-color:#FFFFFF;stop-opacity:0.501961" />
<stop  offset="1"  style="stop-color:#FFFFFF;stop-opacity:0" />
</radialGradient>
<path style="fill:url(#RadialGradID_4946) " d="M61.3,33.25Q61.25 31.4 61.65 32.4Q62.1 33.45 62.5 33.9Q63.35 34.85 65.5 35.1L62.9 35.25Q61.25 35 61.3 33.25" />
<radialGradient
id="RadialGradID_4947" gradientUnits="userSpaceOnUse" gradientTransform="matrix(-0.00236511, 0.00582886, 0.0093689, 0.00238037, 69.6, 30.85)" spreadMethod ="pad" cx="0" cy="0" r="819.2" fx="0" fy="0" >
<stop  offset="0"  style="stop-color:#FFFFFF;stop-opacity:0.501961" />
<stop  offset="1"  style="stop-color:#FFFFFF;stop-opacity:0" />
</radialGradient>
<path style="fill:url(#RadialGradID_4947) " d="M67.25,33.75Q67.55 32.3 66.85 31.55Q66.45 31.15 65.55 30.7Q64.7 30.2 66.5 30.65Q68.2 31.1 68.05 32.1Q67.85 33.2 67.25 33.75" />
<path style="fill:#2A1E10;fill-opacity:1" d="M79.55,32.4L79.65 32.4L80.3 31.75L80.35 31.65L80.35 31.6L80.25 31.6Q79.8 31.8 79.75 32L79.5 32.25L79.1 31.6L79.05 31.5L78.8 31.15L78.1 30.6L77.75 30.45L77.2 30.3L76.55 30.15L76.45 30.15L75.55 30.05L75.1 30.05L74 30.3L73.3 30.45L73.15 30.5L72.2 30.95L71.9 31.35L71.9 31.5L71.85 31.6L71.85 31.9L71.85 32L71.85 32.05L71.9 32.15L71.95 32.15L71.95 32.05L71.95 31.85L71.95 31.75L72.05 31.25Q72.4 30.85 73.65 30.5L74.4 30.35L76.35 30.25L76.65 30.3L77.15 30.4L77.85 30.65L78.8 31.45L78.85 31.55L79.1 32.05L79.2 32.2L79.3 32.3L79.4 32.4L79.55 32.4" />
<path style="fill:#330800;fill-opacity:1" d="M73.35,30.3L73.3 30.3L73 30.2L72.65 30.3L72.45 30.4L72.2 30.95L73.15 30.5L73.3 30.45L74 30.3L75.1 30.05L75.55 30.05L76.45 30.15L76.55 30.15L77.2 30.3L77.75 30.45L78.1 30.6L78.8 31.15L78.3 30.55L78.1 30.45L78.05 30.45L77.75 30.35L77.25 30.15L77.05 30.05L77 30.05L76.8 29.95L76.25 29.9L75.25 29.9L75.15 29.85L74.85 29.85L73.35 30.3M71.7,32.9L71.65 32.6L71.25 32.1L71.25 32.15L71.2 32.4L71.35 32.6L71.55 33.1L71.6 33.15L71.7 33.15L71.7 32.9" />
<path style="fill:#995A1C;fill-opacity:1" d="M76.35,29.85L76.35 29.8L76.45 29.7L73.6 29.95L73.25 30.1L73.25 30.15L73.3 30.2L73.5 30.15L74.4 29.85L74.6 29.9L74.7 29.9L74.85 29.85L75.15 29.85L75.25 29.9L76.25 29.9L76.35 29.85M78.4,30.2L78.3 30.1L77.75 30L77.65 29.95L77.4 29.95L77.25 29.95L77.3 30.1L77.35 30.1L77.65 30.25L77.7 30.25L78.35 30.45L78.45 30.35L78.4 30.25L78.4 30.2M77.45,30L77.65 30.05L77.9 30.15L77.95 30.15L78.1 30.15L78.25 30.2L78.35 30.4L78.25 30.35L78 30.25L77.95 30.2L77.9 30.2L77.7 30.2L77.45 30.05L77.45 30M71.5,31.1L71.7 31.15L71.7 31.3L71.55 31.45L71.45 31.55L71.35 31.35L71.35 31.45L71.45 31.6L71.6 31.8L71.8 31.3L71.85 31.2L71.6 31L71.5 31.1" />
<path style="fill:#824B13;fill-opacity:1" d="M78.6,30.05L78.45 30L77.6 29.85L77.45 29.8L77.15 29.75L77 29.75L76.9 29.75L76.45 29.7L76.35 29.8L77.25 29.95L77.4 29.95L77.65 29.95L77.75 30L78.3 30.1L78.4 30.2L78.4 30.25L78.65 30.3L78.6 30.05" />
<path style="fill:#C98E47;fill-opacity:1" d="M73.35,30.25L73.4 30.25L73.55 30.2L73.95 30.1L74.6 29.9L74.4 29.85L73.5 30.15L73.3 30.2L73.35 30.25M77.45,30.05L77.7 30.2L77.9 30.2L77.95 30.2L78 30.25L78.25 30.35L78.35 30.4L78.25 30.2L78.1 30.15L77.95 30.15L77.9 30.15L77.65 30.05L77.45 30L77.45 30.05M71.35,31.35L71.45 31.55L71.55 31.45L71.7 31.3L71.7 31.15L71.5 31.1L71.4 31.25L71.35 31.35" />
<path style="fill:#542000;fill-opacity:1" d="M76.35,29.8L76.35 29.85L76.25 29.9L76.8 29.95L77 30.05L77.05 30.05L77.25 30.15L77.75 30.35L78.05 30.45L78.1 30.45L78.3 30.55L78.65 30.3L78.4 30.25L78.45 30.35L78.35 30.45L77.7 30.25L77.65 30.25L77.35 30.1L77.3 30.1L77.25 29.95L76.35 29.8M71.7,33.15L71.75 33.2L71.85 33.15L71.75 32.25L71.8 32L71.85 32L71.85 31.9L71.85 31.6L71.9 31.5L71.9 31.35L72.2 30.95L72.45 30.4L72.15 30.6L71.6 31L71.85 31.2L71.8 31.3L71.6 31.8L71.45 31.6L71.35 31.45L71.3 31.6L71.3 31.8L71.3 31.9L71.25 32L71.25 32.1L71.65 32.6L71.7 32.9L71.7 33.15" />
<path style="fill:#513B15;fill-opacity:1" d="M79.65,31.15L79.65 30.95L79.65 30.75L79.7 30.6L79.8 30.6L80.1 30.95L80.3 31.25L80.2 30.9L80.1 30.6L79.9 30.45L79.25 30.25Q78.9 30.2 78.85 30.4L79.05 30.9L79.15 31.05L79.15 31L79.1 30.6L79.15 30.5L79.5 30.85L79.65 31.15" />
<path style="fill:#A37844;fill-opacity:1" d="M78.9,30.75L78.8 30.75L78.8 30.8L79.15 31.35L79.15 31.45L79.55 32L79.7 31.8L79.6 31.2L79.5 30.85L79.15 30.5L79.1 30.6L79.15 31L79.15 31.05L79.05 30.9L78.9 30.75M79.35,30.8L79.35 30.85L79.5 31.25L79.55 31.3L79.45 31.25L79.3 30.9L79.3 30.8L79.35 30.8M79.05,31.15L79.05 31.1L79.05 31.15L79.3 31.25L79.3 31.35L79.4 31.65L79.4 31.8L79.2 31.4L79.05 31.15" />
<path style="fill:#FFEDC1;fill-opacity:1" d="M79.3,30.8L79.3 30.9L79.45 31.25L79.55 31.3L79.5 31.25L79.35 30.85L79.35 30.8L79.3 30.8" />
<path style="fill:#5E4C25;fill-opacity:1" d="M78.6,30.05L78.65 30.3L78.3 30.55L78.8 31.15L79.05 31.5L79.1 31.6L79.5 32.25L79.75 32Q79.8 31.8 80.25 31.6L80.35 31.6L80.35 31.5L80.25 31.45Q79.9 31.4 79.75 31.6L79.7 31.8L79.55 32L79.15 31.45L79.15 31.35L78.8 30.8L78.8 30.75L78.9 30.75L79.05 30.9L78.85 30.4Q78.9 30.2 79.25 30.25L78.6 30.05" />
<path style="fill:#E3BD88;fill-opacity:1" d="M79.75,31L79.8 31.1L79.9 31.35L80 31.35L79.9 31.05L79.85 30.95L79.75 30.9L79.75 31" />
<path style="fill:#8A7149;fill-opacity:1" d="M80.3,31.25L80.1 30.95L79.8 30.6L79.7 30.6L79.65 30.75L79.65 30.95L79.65 31.15L79.5 30.85L79.6 31.2L79.7 31.8L79.75 31.6Q79.9 31.4 80.25 31.45L80.35 31.5L80.3 31.25M79.75,30.9L79.85 30.95L79.9 31.05L80 31.35L79.9 31.35L79.8 31.1L79.75 31L79.75 30.9M79.65,31.15L79.65 31.25L79.65 31.15" />
<path style="fill:#473B2F;fill-opacity:1" d="M79.65,31.25L79.65 31.15L79.65 31.25" />
<path style="fill:#D9BCA0;fill-opacity:1" d="M79.05,31.1L79.05 31.15L79.05 31.1" />
<path style="fill:#E3BC86;fill-opacity:1" d="M79.2,31.4L79.4 31.8L79.4 31.65L79.3 31.35L79.3 31.25L79.05 31.15L79.2 31.4" />
<path style="fill:#B3B098;fill-opacity:1" d="M79.4,32.5L79.4 32.4L79.3 32.3L79.3 32.35L79.35 32.55L79.4 32.5" />
<path style="fill:#292609;fill-opacity:1" d="M79.2,32.2L79.1 32.05L79.1 33.8L78.55 34.75L77.9 35.1L77.55 35.2L77.7 35.25L78 35.15L78.15 35.1L78.3 35L78.55 34.9Q78.4 34.95 78.55 34.85L78.65 34.75L79.2 33.7L79.35 32.55L79.3 32.35L79.3 32.3L79.2 32.2M71.85,33.15L71.85 33.2L72.1 33.6L72.45 34.15L73.2 34.9L73.75 35.2L74.65 35.5L75.7 35.65L75.8 35.7L76.25 35.7L75.7 35.55L75.65 35.5L75.3 35.45L74.95 35.4L74.45 35.3L73.65 35L72.75 34.35L72.05 33.3L72.35 33.55L72.15 33.2L72.05 33.15L72.05 33.1L72 33.15L71.85 33.15M72.15,33.25L72.15 33.2L72.15 33.25" />
<path style="fill:#A8A28C;fill-opacity:1" d="M78.15,35.35L78 35.45L77.9 35.5L77.85 35.55L77.9 35.55L78.15 35.45L78.25 35.4L78.7 35.15L79 34.8L79.35 34.25L79.45 33.9L79.55 33.5L79.55 32.95L79.55 32.4L79.4 32.4L79.4 32.5L79.4 33.5L79.3 34.15L79.1 34.5L78.9 34.8L78.6 35L78.45 35.15L78.4 35.15L78.35 35.2L78.15 35.35" />
<path style="fill:#6B6750;fill-opacity:1" d="M77.2,35.25L77.15 35.25L76.6 35.3L75.65 35.3L73.7 34.8L72.35 33.55Q72.95 34.45 73.65 34.85L75 35.25L75.65 35.35L75.7 35.35L77.15 35.35L77.3 35.35L77.7 35.25L77.55 35.2L77.2 35.25M77.85,35.35L77.55 35.45L76.6 35.55L75.7 35.5L75.65 35.5L75.7 35.55L76.25 35.7L76.65 35.7L77.2 35.7L77.35 35.65L77.5 35.65L77.55 35.6L77.85 35.55L77.9 35.5L78 35.45L78.15 35.35L78.35 35.2L77.95 35.4L77.9 35.4L77.9 35.35L77.85 35.35" />
<path style="fill:#E0DCC3;fill-opacity:1" d="M72.15,33.2L72.15 33.25L72.15 33.2" />
<path style="fill:#784B2D;fill-opacity:1" d="M73,30.2L73.3 30.3L73.35 30.3L74.85 29.85L74.7 29.9L74.6 29.9L73.95 30.1L73.55 30.2L73.4 30.25L73.35 30.25L73.3 30.2L73.25 30.15L73.25 30.1L73.2 30.1L73.1 30.15L73 30.2" />
<path style="fill:#160400;fill-opacity:1" d="M71.2,32.4L71.2 32.75L71.2 32.85L71.25 32.9L71.5 33.1L71.55 33.1L71.35 32.6L71.2 32.4" />
<path style="fill:#927C65;fill-opacity:1" d="M71.9,32.15L71.85 32.05L71.85 32L71.85 31.9L71.85 32L71.8 32L71.75 32.25L71.85 33.15L72 33.15L72.05 33.1L72 32.8L71.9 32.15" />
<path style="fill:#FFEAD3;fill-opacity:1" d="M72,32.8L71.95 32.35L71.95 32.15L71.9 32.15L72 32.8" />
<path style="fill:#EDE9CE;fill-opacity:1" d="M72.05,33.3L72.75 34.35L73.65 35L74.45 35.3L74.95 35.4L75.3 35.45L75.65 35.5L75.7 35.5L76.6 35.55L77.55 35.45L77.85 35.35L77.9 35.35L77.95 35.3L78 35.25L78.1 35.15L78.2 35.1L78.15 35.1L78 35.15L77.7 35.25L77.3 35.35L77.15 35.35L75.7 35.35L75.65 35.35L75 35.25L73.65 34.85Q72.95 34.45 72.35 33.55L72.05 33.3" />
<path style="fill:#FFEFE0;fill-opacity:1" d="M78.2,35.1L78.1 35.15L78 35.25L77.95 35.3L77.9 35.35L77.9 35.4L77.95 35.4L78.35 35.2L78.4 35.15L78.45 35.15L78.6 35L78.9 34.8L79.1 34.5L79.3 34.15L79.4 33.5L79.4 32.5L79.35 32.55L79.2 33.7L78.65 34.75L78.55 34.85Q78.4 34.95 78.55 34.9L78.3 35L78.15 35.1L78.2 35.1" />
<radialGradient
id="RadialGradID_4948" gradientUnits="userSpaceOnUse" gradientTransform="matrix(-0.00949097, 0, 0, 0.00946045, 79.95, 36.2)" spreadMethod ="pad" cx="0" cy="0" r="819.2" fx="0" fy="0" >
<stop  offset="0"  style="stop-color:#FFFFFF;stop-opacity:0.501961" />
<stop  offset="1"  style="stop-color:#FFFFFF;stop-opacity:0" />
</radialGradient>
<path style="fill:url(#RadialGradID_4948) " d="M77.4,35.25Q79.05 35 79 33.25Q79.05 31.4 78.65 32.4L77.8 33.9Q76.95 34.85 74.8 35.1L77.4 35.25" />
<radialGradient
id="RadialGradID_4949" gradientUnits="userSpaceOnUse" gradientTransform="matrix(0.00236511, 0.00582886, -0.0093689, 0.00238037, 70.7, 30.85)" spreadMethod ="pad" cx="0" cy="0" r="819.2" fx="0" fy="0" >
<stop  offset="0"  style="stop-color:#FFFFFF;stop-opacity:0.501961" />
<stop  offset="1"  style="stop-color:#FFFFFF;stop-opacity:0" />
</radialGradient>
<path style="fill:url(#RadialGradID_4949) " d="M73.05,33.75Q72.75 32.3 73.45 31.55Q73.85 31.15 74.75 30.7Q75.6 30.2 73.8 30.65Q72.1 31.1 72.25 32.1Q72.45 33.2 73.05 33.75" />
</g>
</svg>
