<?xml version="1.0" encoding="utf-8"?>
<svg version="1.1" id="Layer_1"
xmlns="http://www.w3.org/2000/svg"
xmlns:xlink="http://www.w3.org/1999/xlink"
xmlns:author="http://www.sothink.com"
width="22px" height="8px"
xml:space="preserve">
<g id="626" transform="matrix(1, 0, 0, 1, -59.65, -29.85)">
<path style="fill:#000000;fill-opacity:0.101961" d="M69.65,31.1L70.15 31.05L70.2 31.05L70.2 31.55L70.15 31.55L69.65 31.55L69.65 31.1M68.5,35.3L69 34.5L68.8 35L68.8 35.05Q68.3 36.1 67.3 36.8Q66.35 37.55 64.35 37.5Q62.45 37.3 61.65 35.75Q60.8 34.1 60.75 33.35L60.4 32.1L60.8 32.55L60.9 33.1Q61.15 34.9 62.1 36.05Q63.35 37.3 65.4 37.15Q67.3 36.9 68.3 35.6L68.5 35.3M62.1,30.9L63.1 30.6L65.6 30.45L67.85 31L68.7 31.55L69 32.3L68.85 32.55Q68.7 31.55 67.85 31.2Q66.45 30.6 65.25 30.6L63.2 30.8L62.1 30.9" />
<path style="fill:#000000;fill-opacity:1" d="M61.45,31.8L61.3 32.4Q61.3 32.05 61.45 31.75L61.75 31.15L62.25 30.7L64 30.35L66.05 30.4L67.5 30.65L68.5 31.2L68.5 31.25L68.6 31.35L68.65 31.45L68.8 31.6L68.85 31.8L68.7 31.55L67.85 31L65.6 30.45L63.1 30.6L62.1 30.9L61.65 31.45L61.45 31.8" />
<path style="fill:#5A352D;fill-opacity:1" d="M68.3,35.6Q67.3 36.9 65.4 37.15Q63.35 37.3 62.1 36.05Q61.15 34.9 60.9 33.1L60.9 32.5L60.95 32.5L61 33.4L61 33.55Q61.3 35 62.1 35.95Q63.35 37.2 65.4 37Q67.15 36.85 68.05 35.7L68.5 35.1L69.1 33.85L68.3 35.6" />
<path style="fill:#B99C96;fill-opacity:1" d="M67.35,35.9L67.3 35.95L67.25 35.95L66.9 36.25L67.05 36.2L66.95 36.25L66.3 36.5L64.95 36.75L63.7 36.6L62.55 35.8Q61.85 35.2 61.55 34.2L61.55 34.1L61.85 34.75L62.55 35.75L63.7 36.5L64.95 36.6L66.3 36.4L67.25 35.95L67.5 35.7L67.35 35.9M68.7,34.05L68.65 34.05L68.7 33.95L68.7 34.05" />
<path style="fill:#3F2820;fill-opacity:1" d="M69.55,31.15L69.65 31.05Q69.85 30.9 70.15 30.9L70.2 30.9L70.2 31.05L70.15 31.05L69.65 31.1L69.55 31.15" />
<linearGradient
id="LinearGradID_4966" gradientUnits="userSpaceOnUse" gradientTransform="matrix(-0.00152588, 0.000427246, 0.000320435, 0.00108337, 60.3, 31.45)" spreadMethod ="pad" x1="-819.2" y1="0" x2="819.2" y2="0" >
<stop  offset="0.0627451" style="stop-color:#38050A;stop-opacity:1" />
<stop  offset="0.956863" style="stop-color:#522E1E;stop-opacity:1" />
</linearGradient>
<path style="fill:url(#LinearGradID_4966) " d="M61.75,30.35L61.3 31.05Q61.15 30.8 60.75 30.8Q60.2 30.8 60.15 31.1Q60.2 31.4 61.05 31.45L60.7 32.25L60.35 32.05L59.7 31.7L59.65 31.6Q59.55 30.95 59.95 30.7L60 30.7L59.95 30.75L61.4 30.1L61.9 30L61.75 30.35" />
<linearGradient
id="LinearGradID_4967" gradientUnits="userSpaceOnUse" gradientTransform="matrix(-0.000717163, -3.05176e-005, -1.52588e-005, 0.000366211, 60.25, 31.15)" spreadMethod ="pad" x1="-819.2" y1="0" x2="819.2" y2="0" >
<stop  offset="0.0627451" style="stop-color:#BAACA3;stop-opacity:1" />
<stop  offset="0.956863" style="stop-color:#522E1E;stop-opacity:1" />
</linearGradient>
<path style="fill:url(#LinearGradID_4967) " d="M61.15,31.15L61.05 31.4L61.05 31.45Q60.2 31.4 60.15 31.1Q60.2 30.8 60.75 30.8Q61.15 30.8 61.3 31.05L61.15 31.15" />
<linearGradient
id="LinearGradID_4968" gradientUnits="userSpaceOnUse" gradientTransform="matrix(-0.00297546, -1.52588e-005, -1.52588e-005, 0.000839233, 70.6, 30.2)" spreadMethod ="pad" x1="-819.2" y1="0" x2="819.2" y2="0" >
<stop  offset="0.054902" style="stop-color:#251611;stop-opacity:1" />
<stop  offset="0.486275" style="stop-color:#745B54;stop-opacity:1" />
<stop  offset="0.956863" style="stop-color:#1F0D0B;stop-opacity:1" />
</linearGradient>
<path style="fill:url(#LinearGradID_4968) " d="M68.8,30.65L67.85 30.45L65.2 30.05L61.75 30.35L61.9 30L63.75 29.85L66.75 30Q68.5 30.1 69.05 30.6L69.55 30.45L70.15 30.4L70.2 30.4L70.2 30.75L70.15 30.75L69.65 30.8L69.35 30.8L68.95 30.75L68.8 30.65" />
<radialGradient
id="RadialGradID_4969" gradientUnits="userSpaceOnUse" gradientTransform="matrix(-0.015274, -0.000808716, -0.000656128, 0.0121307, 65.4, 30.3)" spreadMethod ="pad" cx="0" cy="0" r="819.2" fx="210534" fy="0" >
<stop  offset="0.0941176"  style="stop-color:#FFFFFF;stop-opacity:0" />
<stop  offset="0.941176"  style="stop-color:#FFFFFF;stop-opacity:0.431373" />
</radialGradient>
<path style="fill:url(#RadialGradID_4969) " d="M67.5,35.7L67.25 35.95L66.3 36.4L64.95 36.6L63.7 36.5L62.55 35.75L61.85 34.75L61.7 34.3Q61.4 33.3 61.4 32.35L61.45 31.8L61.65 31.45L62.1 30.9L63.2 30.8L65.25 30.6Q66.45 30.6 67.85 31.2Q68.7 31.55 68.85 32.55L68.75 32.65L68.5 32.9L68.65 33.8L68.2 34.85L68.05 35.1L67.8 35.5L67.65 35.65L67.35 35.9L67.5 35.7M64.35,32.25L64.6 32.2L64.45 31.5L64.15 31.45L63.2 31.4L63.25 31.45L63.5 32.45L63.9 32.35L64.35 32.25M63.15,32.6L62.8 31.4Q62.1 31.5 61.55 31.85L62 33.15L62.35 32.95L63.15 32.6" />
<linearGradient
id="LinearGradID_4970" gradientUnits="userSpaceOnUse" gradientTransform="matrix(-0.00469971, 0.000106812, 3.05176e-005, 0.00144958, 65.1, 31.2)" spreadMethod ="pad" x1="-819.2" y1="0" x2="819.2" y2="0" >
<stop  offset="0.054902" style="stop-color:#080000;stop-opacity:1" />
<stop  offset="0.501961" style="stop-color:#4C3024;stop-opacity:1" />
<stop  offset="0.972549" style="stop-color:#1D0600;stop-opacity:1" />
</linearGradient>
<path style="fill:url(#LinearGradID_4970) " d="M69.65,31.1L69.65 31.55L69.45 32.9L69.2 33.9L69.4 32.65L69.4 32.6L69.4 32.3L69.25 31.95L69.25 31.9L69.05 31.9L69.1 32.05L69.1 32.25L69.05 32.4L68.95 32.7L68.85 32.7L68.8 32.75Q68.6 32.8 68.65 33L68.7 33.55L68.7 33.95L68.65 34.05L68.7 34.05L68.2 35.05L67.8 35.6L67.25 36.15L67.35 36L67.15 36.15L67.1 36.15L67.05 36.2L66.9 36.25L67.25 35.95L67.3 35.95L67.35 35.9L67.65 35.65L67.8 35.5L68.05 35.1L68.2 34.85L68.65 33.8L68.5 32.9L68.75 32.65L68.85 32.55L69 32.3L68.7 31.55L68.85 31.8L68.8 31.6L68.65 31.45L68.6 31.35L68.5 31.25L68.5 31.2L67.5 30.65L66.05 30.4L64 30.35L62.25 30.7L61.75 31.15L61.45 31.75Q61.3 32.05 61.3 32.4L61.45 31.8L61.4 32.35Q61.4 33.3 61.7 34.3L61.85 34.75L61.55 34.1L61.25 32.55L61.3 32.6L61.3 32.55L61.25 32.55L60.95 32.5L60.9 32.5L60.9 33.1L60.8 32.55L60.4 32.1L60.35 32.05L60.7 32.25L61.05 31.45L61.05 31.4L61.15 31.15L61.3 31.05L61.75 30.35L65.2 30.05L67.85 30.45L68.8 30.65L68.95 30.75L69.45 31.25L69.55 31.15L69.65 31.1" />
<linearGradient
id="LinearGradID_4971" gradientUnits="userSpaceOnUse" gradientTransform="matrix(-0.00505066, 0.000579834, 0.000366211, 0.00309753, 65.1, 34.55)" spreadMethod ="pad" x1="-819.2" y1="0" x2="819.2" y2="0" >
<stop  offset="0.054902" style="stop-color:#3C251D;stop-opacity:1" />
<stop  offset="0.517647" style="stop-color:#8D7068;stop-opacity:1" />
<stop  offset="0.988235" style="stop-color:#6D493D;stop-opacity:1" />
</linearGradient>
<path style="fill:url(#LinearGradID_4971) " d="M68.7,33.95L68.7 33.55L68.65 33Q68.6 32.8 68.8 32.75L68.85 32.7L68.95 32.7L69.05 32.4L69.1 32.25L69.1 32.05L69.05 31.9L69.25 31.9L69.25 31.95L69.3 32.4L69.25 32.8L69.2 33.4L69.1 33.85L68.5 35.1L68.05 35.7Q67.15 36.85 65.4 37Q63.35 37.2 62.1 35.95Q61.3 35 61 33.55L61 33.4L60.95 32.5L61.25 32.55L61.3 32.55L61.3 32.6L61.25 32.55L61.55 34.1L61.55 34.2Q61.85 35.2 62.55 35.8L63.7 36.6L64.95 36.75L66.3 36.5L66.95 36.25L67.05 36.2L67.1 36.15L67.15 36.15L67.35 36L67.25 36.15L67.8 35.6L68.2 35.05L68.7 34.05L68.7 33.95" />
<linearGradient
id="LinearGradID_4972" gradientUnits="userSpaceOnUse" gradientTransform="matrix(0.00488281, 0.000335693, 0.000106812, -0.0015564, 76.05, 30.8)" spreadMethod ="pad" x1="-819.2" y1="0" x2="819.2" y2="0" >
<stop  offset="0.054902" style="stop-color:#080000;stop-opacity:1" />
<stop  offset="0.501961" style="stop-color:#4C3024;stop-opacity:1" />
<stop  offset="0.972549" style="stop-color:#1D0600;stop-opacity:1" />
</linearGradient>
<path style="fill:url(#LinearGradID_4972) " d="M70.15,30.9Q69.85 30.9 69.65 31.05L69.55 31.15L69.45 31.25L68.95 30.75L69.35 30.8L69.65 30.8L70.15 30.75L70.2 30.75L70.2 30.9L70.15 30.9M69.1,33.85L69.2 33.4L69.25 32.8L69.3 32.4L69.25 31.95L69.4 32.3L69.4 32.6L69.4 32.65L69.2 33.9L69 34.45L69 34.5L68.5 35.3L68.3 35.6L69.1 33.85" />
<linearGradient
id="LinearGradID_4973" gradientUnits="userSpaceOnUse" gradientTransform="matrix(0.000579834, 0.00088501, 0.000839233, -0.000534058, 62.6, 32.65)" spreadMethod ="pad" x1="-819.2" y1="0" x2="819.2" y2="0" >
<stop  offset="0.109804" style="stop-color:#FFFFFF;stop-opacity:0.643137" />
<stop  offset="0.941176" style="stop-color:#FFFFFF;stop-opacity:0.431373" />
</linearGradient>
<path style="fill:url(#LinearGradID_4973) " d="M62.35,32.95L62 33.15L61.55 31.85Q62.1 31.5 62.8 31.4L63.15 32.6L62.35 32.95" />
<linearGradient
id="LinearGradID_4974" gradientUnits="userSpaceOnUse" gradientTransform="matrix(0.000213623, 0.000747681, 0.000717163, -0.000213623, 64.05, 32.45)" spreadMethod ="pad" x1="-819.2" y1="0" x2="819.2" y2="0" >
<stop  offset="0.109804" style="stop-color:#FFFFFF;stop-opacity:0.643137" />
<stop  offset="0.941176" style="stop-color:#FFFFFF;stop-opacity:0.431373" />
</linearGradient>
<path style="fill:url(#LinearGradID_4974) " d="M63.9,32.35L63.5 32.45L63.25 31.45L63.2 31.4L64.15 31.45L64.45 31.5L64.6 32.2L64.35 32.25L63.9 32.35" />
<radialGradient
id="RadialGradID_4975" gradientUnits="userSpaceOnUse" gradientTransform="matrix(-0.00254822, -0.000137329, -0.000137329, 0.00254822, 65.1, 30.1)" spreadMethod ="pad" cx="0" cy="0" r="819.2" fx="0" fy="0" >
<stop  offset="0.313725"  style="stop-color:#FFFFFF;stop-opacity:0.690196" />
<stop  offset="1"  style="stop-color:#FFFFFF;stop-opacity:0" />
</radialGradient>
<path style="fill:url(#RadialGradID_4975) " d="M63.2,30.2L63.65 30.25L65.75 30.2L66.65 30.3L67 30.3L64.85 30L63.25 30.15L63.2 30.2" />
<radialGradient
id="RadialGradID_4976" gradientUnits="userSpaceOnUse" gradientTransform="matrix(-0.00195313, -0.000106812, -0.000106812, 0.00195313, 61.5, 34.15)" spreadMethod ="pad" cx="0" cy="0" r="819.2" fx="0" fy="0" >
<stop  offset="0.313725"  style="stop-color:#FFFFFF;stop-opacity:0.631373" />
<stop  offset="1"  style="stop-color:#FFFFFF;stop-opacity:0" />
</radialGradient>
<path style="fill:url(#RadialGradID_4976) " d="M61.2,33.2Q61.1 34.65 62.25 35.6L61.55 34.3L61.25 33.1L61.2 33.2" />
<radialGradient
id="RadialGradID_4977" gradientUnits="userSpaceOnUse" gradientTransform="matrix(-0.00257874, -0.000137329, -0.000137329, 0.00257874, 68.65, 34.45)" spreadMethod ="pad" cx="0" cy="0" r="819.2" fx="0" fy="0" >
<stop  offset="0.329412"  style="stop-color:#FFFFFF;stop-opacity:0.862745" />
<stop  offset="1"  style="stop-color:#FFFFFF;stop-opacity:0" />
</radialGradient>
<path style="fill:url(#RadialGradID_4977) " d="M68.9,33.2L68.85 33.9L68.6 34.5L68.3 35.05L68 35.65L68 35.7Q69 34.55 69.2 32.6L69 32.85L68.9 33.2" />
<path style="fill:#000000;fill-opacity:0.101961" d="M77.2,30.8L75.15 30.6Q73.95 30.6 72.55 31.2Q71.7 31.55 71.55 32.55L71.4 32.3L71.7 31.55Q72 31.25 72.55 31Q73.45 30.6 74.8 30.45L77.3 30.6L78.3 30.9L77.2 30.8M75,37.15Q77.05 37.3 78.3 36.05Q79.25 34.9 79.5 33.1L79.6 32.55L80.05 32.05L80.75 31.65L80.8 31.65L80.95 31.55L80.8 31.7L80.05 32.4Q79.7 32.6 79.7 33.15Q79.6 34.1 78.75 35.75Q77.95 37.3 76.05 37.5Q74.05 37.55 73.1 36.8Q72.1 36.1 71.6 35.05L71.6 35L71.45 34.6L71.9 35.3L72.1 35.6Q73.1 36.9 75 37.15M70.75,31.1L70.75 31.55L70.25 31.55L70.2 31.55L70.2 31.05L70.25 31.05L70.75 31.1" />
<path style="fill:#000000;fill-opacity:1" d="M78.75,31.45L78.3 30.9L77.3 30.6L74.8 30.45Q73.45 30.6 72.55 31Q72 31.25 71.7 31.55L71.55 31.8L71.6 31.6L71.75 31.45L71.8 31.35L71.9 31.25L71.9 31.2Q72.3 30.8 72.9 30.65L74.35 30.4L76.4 30.35L78.15 30.7L78.65 31.15L78.95 31.75L79.1 32.4L78.95 31.8L78.75 31.45" />
<path style="fill:#5A352D;fill-opacity:1" d="M72.1,35.6L71.3 33.85L71.9 35.1L72.35 35.7Q73.25 36.85 75 37Q77.05 37.2 78.3 35.95Q79.1 35 79.4 33.55L79.4 33.4L79.45 32.5L79.5 32.5L79.5 33.1Q79.25 34.9 78.3 36.05Q77.05 37.3 75 37.15Q73.1 36.9 72.1 35.6" />
<path style="fill:#B99C96;fill-opacity:1" d="M73.45,36.25L73.5 36.25L73.15 35.95L73.1 35.95L73.05 35.9L72.9 35.7L73.15 35.95L74.1 36.4L75.45 36.6L76.7 36.5L77.85 35.75L78.55 34.75L78.85 34.1L78.85 34.2Q78.55 35.2 77.85 35.8L76.7 36.6L75.45 36.75L74.1 36.5L73.45 36.25M71.7,33.95L71.75 34.05L71.7 34.05L71.7 33.95" />
<path style="fill:#3F2820;fill-opacity:1" d="M70.2,30.9L70.25 30.9L70.75 31.05L70.85 31.15L70.75 31.1L70.25 31.05L70.2 31.05L70.2 30.9" />
<linearGradient
id="LinearGradID_4978" gradientUnits="userSpaceOnUse" gradientTransform="matrix(0.00152588, 0.000427246, -0.000320435, 0.00108337, 80.1, 31.45)" spreadMethod ="pad" x1="-819.2" y1="0" x2="819.2" y2="0" >
<stop  offset="0.0627451" style="stop-color:#38050A;stop-opacity:1" />
<stop  offset="0.956863" style="stop-color:#522E1E;stop-opacity:1" />
</linearGradient>
<path style="fill:url(#LinearGradID_4978) " d="M80.25,31.1Q80.2 30.8 79.65 30.8Q79.25 30.8 79.1 31.05L78.65 30.35L78.5 30L79 30.1Q79.7 30.3 80.45 30.75L80.4 30.7L80.45 30.7Q80.9 31 80.75 31.65L80.05 32.05L79.7 32.25L79.35 31.45Q80.2 31.4 80.25 31.1" />
<linearGradient
id="LinearGradID_4979" gradientUnits="userSpaceOnUse" gradientTransform="matrix(0.000717163, -3.05176e-005, 1.52588e-005, 0.000366211, 80.15, 31.15)" spreadMethod ="pad" x1="-819.2" y1="0" x2="819.2" y2="0" >
<stop  offset="0.0627451" style="stop-color:#BAACA3;stop-opacity:1" />
<stop  offset="0.956863" style="stop-color:#522E1E;stop-opacity:1" />
</linearGradient>
<path style="fill:url(#LinearGradID_4979) " d="M79.35,31.45L79.35 31.4L79.25 31.15L79.1 31.05Q79.25 30.8 79.65 30.8Q80.2 30.8 80.25 31.1Q80.2 31.4 79.35 31.45" />
<linearGradient
id="LinearGradID_4980" gradientUnits="userSpaceOnUse" gradientTransform="matrix(0.00469971, 0.000106812, -3.05176e-005, 0.00144958, 75.3, 31.2)" spreadMethod ="pad" x1="-819.2" y1="0" x2="819.2" y2="0" >
<stop  offset="0.054902" style="stop-color:#080000;stop-opacity:1" />
<stop  offset="0.501961" style="stop-color:#4C3024;stop-opacity:1" />
<stop  offset="0.972549" style="stop-color:#1D0600;stop-opacity:1" />
</linearGradient>
<path style="fill:url(#LinearGradID_4980) " d="M71.4,32.3L71.55 32.55L71.65 32.65L71.9 32.9L71.75 33.8L72.2 34.85L72.35 35.1L72.6 35.5L72.75 35.65L73.05 35.9L73.1 35.95L73.15 35.95L73.5 36.25L73.45 36.25L73.35 36.2L73.3 36.15L73.25 36.15L73.05 36L73.15 36.15L72.6 35.6L72.2 35.05Q71.7 34.35 71.7 34.05L71.75 34.05L71.7 33.95L71.7 33.55L71.75 33L71.6 32.75L71.55 32.7L71.45 32.7L71.35 32.4L71.3 32.25L71.3 32.05L71.35 31.9L71.15 31.9L71.15 31.95L71 32.3L71 32.6L71 32.65L71.2 33.9L70.95 32.9L70.75 31.55L70.75 31.1L70.85 31.15L70.95 31.25L71.45 30.75L71.6 30.65L72.55 30.45L75.2 30.05L78.65 30.35L79.1 31.05L79.25 31.15L79.35 31.4L79.35 31.45L79.7 32.25L80.05 32.05L79.6 32.55L79.5 33.1L79.5 32.5L79.45 32.5L79.15 32.55L79.1 32.55L79.1 32.6L79.15 32.55L78.85 34.1L78.55 34.75L78.7 34.3L79 32.35L78.95 31.8L79.1 32.4L78.95 31.75L78.65 31.15L78.15 30.7L76.4 30.35L74.35 30.4L72.9 30.65Q72.3 30.8 71.9 31.2L71.9 31.25L71.8 31.35L71.75 31.45L71.6 31.6L71.55 31.8L71.7 31.55L71.4 32.3" />
<linearGradient
id="LinearGradID_4981" gradientUnits="userSpaceOnUse" gradientTransform="matrix(0.00297546, -1.52588e-005, 1.52588e-005, 0.000839233, 69.8, 30.2)" spreadMethod ="pad" x1="-819.2" y1="0" x2="819.2" y2="0" >
<stop  offset="0.054902" style="stop-color:#251611;stop-opacity:1" />
<stop  offset="0.486275" style="stop-color:#745B54;stop-opacity:1" />
<stop  offset="0.956863" style="stop-color:#1F0D0B;stop-opacity:1" />
</linearGradient>
<path style="fill:url(#LinearGradID_4981) " d="M71.05,30.8L70.75 30.8L70.25 30.75L70.2 30.75L70.2 30.4L70.25 30.4L70.85 30.45L71.35 30.6Q71.9 30.1 73.65 30L76.65 29.85L78.5 30L78.65 30.35L75.2 30.05L72.55 30.45L71.6 30.65L71.45 30.75L71.05 30.8" />
<linearGradient
id="LinearGradID_4982" gradientUnits="userSpaceOnUse" gradientTransform="matrix(-0.00488281, 0.000335693, -0.000106812, -0.0015564, 64.35, 30.8)" spreadMethod ="pad" x1="-819.2" y1="0" x2="819.2" y2="0" >
<stop  offset="0.054902" style="stop-color:#080000;stop-opacity:1" />
<stop  offset="0.501961" style="stop-color:#4C3024;stop-opacity:1" />
<stop  offset="0.972549" style="stop-color:#1D0600;stop-opacity:1" />
</linearGradient>
<path style="fill:url(#LinearGradID_4982) " d="M70.75,31.05L70.25 30.9L70.2 30.9L70.2 30.75L70.25 30.75L70.75 30.8L71.05 30.8L71.45 30.75L70.95 31.25L70.85 31.15L70.75 31.05M71.4,34.5L71.4 34.45L71.2 33.9L71 32.65L71 32.6L71 32.3L71.15 31.95L71.1 32.4L71.15 32.8L71.2 33.4L71.3 33.85L72.1 35.6L71.9 35.3L71.45 34.6L71.4 34.5" />
<radialGradient
id="RadialGradID_4983" gradientUnits="userSpaceOnUse" gradientTransform="matrix(0.015274, -0.000808716, 0.000656128, 0.0121307, 75, 30.3)" spreadMethod ="pad" cx="0" cy="0" r="819.2" fx="210534" fy="0" >
<stop  offset="0.0941176"  style="stop-color:#FFFFFF;stop-opacity:0" />
<stop  offset="0.941176"  style="stop-color:#FFFFFF;stop-opacity:0.431373" />
</radialGradient>
<path style="fill:url(#RadialGradID_4983) " d="M77.85,35.75L76.7 36.5L75.45 36.6L74.1 36.4L73.15 35.95L72.9 35.7L73.05 35.9L72.75 35.65L72.6 35.5L72.35 35.1L72.2 34.85L71.75 33.8L71.9 32.9L71.65 32.65L71.55 32.55Q71.7 31.55 72.55 31.2Q73.95 30.6 75.15 30.6L77.2 30.8L78.3 30.9L78.75 31.45L78.95 31.8L79 32.35L78.7 34.3L78.55 34.75L77.85 35.75M76.9,32.45L77.15 31.45L77.2 31.4L76.25 31.45L75.95 31.5L75.8 32.2L76.05 32.25L76.5 32.35L76.9 32.45M78.05,32.95L78.4 33.15L78.85 31.85Q78.3 31.5 77.6 31.4L77.25 32.6L78.05 32.95" />
<linearGradient
id="LinearGradID_4984" gradientUnits="userSpaceOnUse" gradientTransform="matrix(-0.000213623, 0.000747681, -0.000717163, -0.000213623, 76.35, 32.45)" spreadMethod ="pad" x1="-819.2" y1="0" x2="819.2" y2="0" >
<stop  offset="0.109804" style="stop-color:#FFFFFF;stop-opacity:0.643137" />
<stop  offset="0.941176" style="stop-color:#FFFFFF;stop-opacity:0.431373" />
</linearGradient>
<path style="fill:url(#LinearGradID_4984) " d="M76.5,32.35L76.05 32.25L75.8 32.2L75.95 31.5L76.25 31.45L77.2 31.4L77.15 31.45L76.9 32.45L76.5 32.35" />
<linearGradient
id="LinearGradID_4985" gradientUnits="userSpaceOnUse" gradientTransform="matrix(-0.000579834, 0.00088501, -0.000839233, -0.000534058, 77.8, 32.65)" spreadMethod ="pad" x1="-819.2" y1="0" x2="819.2" y2="0" >
<stop  offset="0.109804" style="stop-color:#FFFFFF;stop-opacity:0.643137" />
<stop  offset="0.941176" style="stop-color:#FFFFFF;stop-opacity:0.431373" />
</linearGradient>
<path style="fill:url(#LinearGradID_4985) " d="M77.25,32.6L77.6 31.4Q78.3 31.5 78.85 31.85L78.4 33.15L78.05 32.95L77.25 32.6" />
<linearGradient
id="LinearGradID_4986" gradientUnits="userSpaceOnUse" gradientTransform="matrix(0.00505066, 0.000579834, -0.000366211, 0.00309753, 75.3, 34.55)" spreadMethod ="pad" x1="-819.2" y1="0" x2="819.2" y2="0" >
<stop  offset="0.054902" style="stop-color:#3C251D;stop-opacity:1" />
<stop  offset="0.517647" style="stop-color:#8D7068;stop-opacity:1" />
<stop  offset="0.988235" style="stop-color:#6D493D;stop-opacity:1" />
</linearGradient>
<path style="fill:url(#LinearGradID_4986) " d="M71.7,34.05Q71.7 34.35 72.2 35.05L72.6 35.6L73.15 36.15L73.05 36L73.25 36.15L73.3 36.15L73.35 36.2L73.45 36.25L74.1 36.5L75.45 36.75L76.7 36.6L77.85 35.8Q78.55 35.2 78.85 34.2L78.85 34.1L79.15 32.55L79.1 32.6L79.1 32.55L79.15 32.55L79.45 32.5L79.4 33.4L79.4 33.55Q79.1 35 78.3 35.95Q77.05 37.2 75 37Q73.25 36.85 72.35 35.7L71.9 35.1L71.3 33.85L71.2 33.4L71.15 32.8L71.1 32.4L71.15 31.95L71.15 31.9L71.35 31.9L71.3 32.05L71.3 32.25L71.35 32.4L71.45 32.7L71.55 32.7L71.6 32.75L71.75 33L71.7 33.55L71.7 33.95L71.7 34.05" />
<radialGradient
id="RadialGradID_4987" gradientUnits="userSpaceOnUse" gradientTransform="matrix(0.00254822, -0.000137329, 0.000137329, 0.00254822, 75.3, 30.1)" spreadMethod ="pad" cx="0" cy="0" r="819.2" fx="0" fy="0" >
<stop  offset="0.313725"  style="stop-color:#FFFFFF;stop-opacity:0.690196" />
<stop  offset="1"  style="stop-color:#FFFFFF;stop-opacity:0" />
</radialGradient>
<path style="fill:url(#RadialGradID_4987) " d="M77.2,30.2L76.75 30.25L74.65 30.2L73.75 30.3L73.4 30.3L75.55 30L77.15 30.15L77.2 30.2" />
<radialGradient
id="RadialGradID_4988" gradientUnits="userSpaceOnUse" gradientTransform="matrix(0.00195313, -0.000106812, 0.000106812, 0.00195313, 78.9, 34.15)" spreadMethod ="pad" cx="0" cy="0" r="819.2" fx="0" fy="0" >
<stop  offset="0.313725"  style="stop-color:#FFFFFF;stop-opacity:0.631373" />
<stop  offset="1"  style="stop-color:#FFFFFF;stop-opacity:0" />
</radialGradient>
<path style="fill:url(#RadialGradID_4988) " d="M79.2,33.2Q79.3 34.65 78.15 35.6L78.85 34.3L79.15 33.1L79.2 33.2" />
<radialGradient
id="RadialGradID_4989" gradientUnits="userSpaceOnUse" gradientTransform="matrix(0.00257874, -0.000137329, 0.000137329, 0.00257874, 71.75, 34.45)" spreadMethod ="pad" cx="0" cy="0" r="819.2" fx="0" fy="0" >
<stop  offset="0.329412"  style="stop-color:#FFFFFF;stop-opacity:0.862745" />
<stop  offset="1"  style="stop-color:#FFFFFF;stop-opacity:0" />
</radialGradient>
<path style="fill:url(#RadialGradID_4989) " d="M71.5,33.2L71.55 33.9L71.8 34.5L72.1 35.05L72.4 35.65L72.4 35.7Q71.4 34.55 71.2 32.6L71.4 32.85L71.5 33.2" />
</g>
</svg>
