<?xml version="1.0" encoding="utf-8"?>
<svg version="1.1" id="Layer_1"
xmlns="http://www.w3.org/2000/svg"
xmlns:xlink="http://www.w3.org/1999/xlink"
xmlns:author="http://www.sothink.com"
width="21px" height="5px"
xml:space="preserve">
<g id="616" transform="matrix(1, 0, 0, 1, -59.75, -37.1)">
<path style="fill:#766F5D;fill-opacity:1" d="M69.2,38.6L69 38.8L69.2 38.8L69.35 38.75L69.55 38.7L69.6 38.7L69.7 38.7L69.9 38.65L69.8 38.55L70.95 38.8L71.3 38.7L71.3 38.85L71.05 38.9L70.75 38.85L70.7 38.85L70.45 38.8L70.25 38.75L69.8 38.75L68.95 38.9L68.75 39.05L68.75 38.95L68.75 38.85Q69 38.65 69.2 38.6" />
<path style="fill:#77624F;fill-opacity:1" d="M70.95,38.95L71.3 39L71.3 39.1L71.15 39.05L71.1 39.05L70.95 38.95" />
<path style="fill:#392818;fill-opacity:1" d="M70.95,38.95L70.9 38.9L70.7 38.85L70.75 38.85L71.05 38.9L71.3 38.85L71.3 39L70.95 38.95M69.8,38.55L69.9 38.65L69.7 38.7L69.6 38.7L69.55 38.7L69.35 38.75L69.2 38.8L69 38.8L69.2 38.6L69.6 38.55L69.7 38.55L69.8 38.55" />
<path style="fill:#F0D9BA;fill-opacity:1" d="M68.95,38.9L69.8 38.75L70.25 38.75L70.45 38.8L70.7 38.85L70.9 38.9L70.95 38.95L71.1 39.05L70.05 38.85L69.5 38.85L68.75 39.15L68.75 39.05L68.95 38.9" />
<radialGradient
id="RadialGradID_4888" gradientUnits="userSpaceOnUse" gradientTransform="matrix(0.0020752, 0, 0, 0.0020752, 70.15, 38.25)" spreadMethod ="pad" cx="0" cy="0" r="819.2" fx="0" fy="0" >
<stop  offset="0"  style="stop-color:#FFFDED;stop-opacity:1" />
<stop  offset="0.329412"  style="stop-color:#FFF0D9;stop-opacity:1" />
<stop  offset="0.647059"  style="stop-color:#EBD1AE;stop-opacity:1" />
<stop  offset="1"  style="stop-color:#AE9881;stop-opacity:1" />
</radialGradient>
<path style="fill:url(#RadialGradID_4888) " d="M69.7,38.55L69.6 38.55L69.2 38.6Q69 38.65 68.75 38.85L68.8 38.75Q69 38.55 69.35 38.5L69.6 38.45L70.1 38.45L71.05 38.6L71.3 38.7L70.95 38.8L69.8 38.55L69.7 38.55" />
<path style="fill:#9D888C;fill-opacity:1" d="M60.85,38.75L60.85 38.4L60.95 38.4L60.95 38.7L60.95 39.1L60.85 39.05L60.85 38.75" />
<path style="fill:#FFFAF6;fill-opacity:1" d="M59.85,38.35L60.4 38.3L60.85 38.35L60.95 38.35L60.95 38.4L60.85 38.4L60.7 38.35L60.6 38.35L60.35 38.35L60.05 38.35L60 38.35L59.9 38.35L59.85 38.35" />
<path style="fill:#D9D2D9;fill-opacity:1" d="M59.9,38.35L59.85 38.65L59.9 39.05L59.8 39.1L59.75 38.65L59.75 38.6L59.8 38.4L59.85 38.35L59.9 38.35" />
<path style="fill:#A1978B;fill-opacity:1" d="M60.4,38.95L60.55 38.7L60.55 38.65L60.6 38.35L60.7 38.35L60.6 38.7L60.45 39.05L60.35 39.05L60.4 38.95" />
<path style="fill:#787161;fill-opacity:1" d="M60.6,38.7L60.7 38.35L60.85 38.4L60.85 38.75L60.85 39.05L60.45 39.05L60.6 38.7M60.75,38.7L60.7 38.5L60.55 38.95L60.65 38.95L60.75 38.75L60.75 38.7" />
<path style="fill:#C4B9C1;fill-opacity:1" d="M60.4,38.95L60.35 39.05L60.3 39.05L60 39.05L60 38.7L60 38.65L60.05 38.35L60.35 38.35L60.35 38.45L60.35 38.65L60.25 38.95L60.35 38.95L60.4 38.95M60.25,38.5L60.2 38.4L60.15 38.45L60.15 38.65L60.1 38.85L60.25 38.65L60.25 38.5" />
<path style="fill:#ECE7ED;fill-opacity:1" d="M59.85,38.65L59.9 38.35L60 38.35L60.05 38.35L60 38.65L60 38.7L60 39.05L59.9 39.05L59.85 38.65" />
<path style="fill:#969195;fill-opacity:1" d="M60.25,38.65L60.1 38.85L60.15 38.65L60.15 38.45L60.2 38.4L60.25 38.5L60.25 38.65" />
<path style="fill:#E2E2E2;fill-opacity:1" d="M60.35,38.95L60.25 38.95L60.35 38.65L60.35 38.45L60.35 38.35L60.6 38.35L60.55 38.65L60.55 38.7L60.4 38.95L60.35 38.95M60.4,38.65L60.35 38.85L60.45 38.65L60.5 38.65L60.55 38.45Q60.4 38.45 60.4 38.65" />
<path style="fill:#F6F2F1;fill-opacity:1" d="M60.55,38.45L60.5 38.65L60.45 38.65L60.35 38.85L60.4 38.65Q60.4 38.45 60.55 38.45" />
<path style="fill:#39322C;fill-opacity:1" d="M60.75,38.75L60.65 38.95L60.55 38.95L60.7 38.5L60.75 38.7L60.75 38.75" />
<path style="fill:#BEAE97;fill-opacity:1" d="M68.3,41.05L68.55 40.5L68.55 40.45L68.55 40.4L68.6 40.35L68.6 40.3L68.65 40.2L68.75 39.7L68.9 39.55L69 39.65L68.75 40.55L68.7 40.65L68.65 40.7L68.7 40.55L68.7 40.45L68.85 39.7L68.65 40.3L68.6 40.4L68.3 41.05" />
<path style="fill:#EFE5D9;fill-opacity:1" d="M68.3,40.4L68 40.15L68.1 39.95L68.4 40.05L68.25 40.05Q68.1 40.05 68.1 40.2L68.3 40.4" />
<path style="fill:#E4CAAD;fill-opacity:1" d="M68.55,40.4L68.55 40.45L68.55 40.5L68.35 40.45L68.3 40.4L68.1 40.2Q68.1 40.05 68.25 40.05L68.4 40.05L68.45 40.1L68.65 40.2L68.6 40.3L68.4 40.2L68.2 40.15L68.25 40.2L68.4 40.35L68.55 40.4" />
<path style="fill:#9B8C75;fill-opacity:1" d="M68.4,40.35L68.25 40.2L68.2 40.15L68.4 40.2L68.6 40.3L68.6 40.35L68.55 40.4L68.4 40.35" />
<path style="fill:#E5CBB2;fill-opacity:1" d="M68.3,41.2L68.3 41.15L68.3 41.05L68.6 40.4L68.65 40.3L68.85 39.7L68.7 40.45L68.7 40.55L68.65 40.7L68.7 40.65L68.75 40.55L69 39.65L69.1 39.95L68.95 40.7L68.85 40.9L68.7 41.05L68.7 40.8L68.55 41L68.55 40.8L68.6 40.6L68.45 40.9L68.3 41.2" />
<path style="fill:#FAE8D6;fill-opacity:1" d="M68.45,40.9L68.6 40.6L68.55 40.8L68.55 41L68.7 40.8L68.7 41.05L68.6 41.2L68.55 41.2L68.3 41.2L68.45 40.9" />
<radialGradient
id="RadialGradID_4889" gradientUnits="userSpaceOnUse" gradientTransform="matrix(0.00575256, 0, 0, 0.00575256, 61.05, 37.65)" spreadMethod ="pad" cx="0" cy="0" r="819.2" fx="3" fy="0" >
<stop  offset="0"  style="stop-color:#FFFFFF;stop-opacity:0.501961" />
<stop  offset="1"  style="stop-color:#FFFFFF;stop-opacity:0" />
</radialGradient>
<path style="fill:url(#RadialGradID_4889) " d="M61.45,38.2L61.3 39.05L61.5 40.45L61.75 39.6Q61.8 38.9 62 38.6Q62.2 38.25 63.1 38L64.15 37.7L64.15 37.6L63.6 37.6L62.1 37.8Q61.75 37.9 61.55 38.05L61.45 38.2" />
<radialGradient
id="RadialGradID_4890" gradientUnits="userSpaceOnUse" gradientTransform="matrix(0.00431824, 0, 0, 0.00431824, 67.95, 41.25)" spreadMethod ="pad" cx="0" cy="0" r="819.2" fx="0" fy="0" >
<stop  offset="0"  style="stop-color:#FFFFFF;stop-opacity:0.501961" />
<stop  offset="1"  style="stop-color:#FFFFFF;stop-opacity:0" />
</radialGradient>
<path style="fill:url(#RadialGradID_4890) " d="M68.25,39.15L68.2 38.85L67.95 39.1L67.85 39.3Q67 41.1 64.8 41.5L66.2 41.45L67.45 41.1L68 40.1L68.25 39.15" />
<path style="fill:#B6A184;fill-opacity:1" d="M68.3,38.25L68.25 38.25L68.2 38.2L68.35 38.25L68.6 38.4L68.6 38.5L68.45 39.4Q68.3 40.6 67.7 41.1L66.25 41.65L63.85 41.8L62.05 41.45L61.5 40.95L61.3 40.05L61.35 39.95L61.45 40.45L61.45 40.5L61.55 40.75L61.55 40.8L61.7 41.05L61.8 41.15L61.85 41.15L61.9 41.25L62.05 41.3L62.1 41.3L62.2 41.35L63.65 41.5L65.7 41.5L66.8 41.35L67.35 41.05L68.15 39.7L68.35 38.55L68.3 38.3L68.3 38.25M67.4,37.55L67.35 37.55L64.6 37.25L61.7 37.65Q61.25 37.75 61.1 38.35Q60.95 39 61.05 39.95Q61.1 40.8 61.45 41.55L61.4 41.5L61.35 41.45L61.1 41L60.95 40.65L60.95 40.6L60.8 39.4Q60.75 38.8 60.85 38.3L60.9 38.25L60.9 38.1L60.95 37.9L60.95 37.85L61 37.85L61.1 37.75Q61.35 37.45 62.35 37.3L64.15 37.1L66.65 37.3L67.4 37.45L68.65 37.85L68.65 37.9L68.75 37.95L68.8 38.2L68.9 38.55Q68.55 37.75 67.4 37.55" />
<path style="fill:#5D3C19;fill-opacity:1" d="M61.3,40.05L61.5 40.95L62.05 41.45L63.85 41.8L66.25 41.65L67.7 41.1Q68.3 40.6 68.45 39.4L68.6 38.5L68.6 38.4L68.35 38.25L68.2 38.2L68.1 38.2L67.25 37.85L66.45 37.65L64.25 37.5L62.65 37.65L62.6 37.65L62.25 37.75L62.2 37.75L62.15 37.7L62.15 37.75L62.1 37.75L61.9 37.8L61.75 37.85L61.7 37.85L61.7 37.9L61.5 38.05L61.3 38.45L61.3 39.4L61.3 39.7L61.35 39.95L61.3 40.05M61.45,41.55Q61.1 40.8 61.05 39.95Q60.95 39 61.1 38.35Q61.25 37.75 61.7 37.65L64.6 37.25L67.35 37.55L67.4 37.55Q68.55 37.75 68.9 38.55L68.75 39.3L68.6 39.8Q68.25 41 67.65 41.5Q67.35 41.75 67 41.8L64.75 42L64.4 42L64.15 42L61.55 41.7L61.5 41.65L61.45 41.55" />
<path style="fill:#2E221E;fill-opacity:1" d="M68.3,38.3L68.3 38.25L68.3 38.3" />
<radialGradient
id="RadialGradID_4891" gradientUnits="userSpaceOnUse" gradientTransform="matrix(-0.00628662, 0, 0, -0.00628662, 67.05, 41.95)" spreadMethod ="pad" cx="0" cy="0" r="819.2" fx="0" fy="0" >
<stop  offset="0"  style="stop-color:#FFF0D9;stop-opacity:1" />
<stop  offset="0.647059"  style="stop-color:#EBD1AE;stop-opacity:1" />
<stop  offset="1"  style="stop-color:#AE9881;stop-opacity:1" />
</radialGradient>
<path style="fill:url(#RadialGradID_4891) " d="M61.85,41.55L61.85 41.65L61.8 41.55L61.85 41.55" />
<radialGradient
id="RadialGradID_4892" gradientUnits="userSpaceOnUse" gradientTransform="matrix(0.00746155, 0, 0, 0.00746155, 63.85, 37.15)" spreadMethod ="pad" cx="0" cy="0" r="819.2" fx="0" fy="0" >
<stop  offset="0"  style="stop-color:#FFFDED;stop-opacity:1" />
<stop  offset="0.329412"  style="stop-color:#FFF0D9;stop-opacity:1" />
<stop  offset="0.647059"  style="stop-color:#EBD1AE;stop-opacity:1" />
<stop  offset="1"  style="stop-color:#AE9881;stop-opacity:1" />
</radialGradient>
<path style="fill:url(#RadialGradID_4892) " d="M65.85,37.3L65.9 37.3L67.2 37.5L68.25 37.85L68.7 38.3L68.05 37.9L65.85 37.4L65.35 37.4L63.5 37.4Q61.95 37.45 61.55 37.85Q61.15 38.25 61.15 38.8L61 39.8L60.95 38.8L61.1 38.05L61.55 37.6L63.2 37.25L65.7 37.3L65.85 37.3" />
<radialGradient
id="RadialGradID_4893" gradientUnits="userSpaceOnUse" gradientTransform="matrix(-0.00157166, -0.00616455, 0.010437, -0.00263977, 66.85, 42)" spreadMethod ="pad" cx="0" cy="0" r="819.2" fx="0" fy="0" >
<stop  offset="0"  style="stop-color:#FFFDED;stop-opacity:1" />
<stop  offset="0.329412"  style="stop-color:#FFF0D9;stop-opacity:1" />
<stop  offset="0.647059"  style="stop-color:#EBD1AE;stop-opacity:1" />
<stop  offset="1"  style="stop-color:#AE9881;stop-opacity:1" />
</radialGradient>
<path style="fill:url(#RadialGradID_4893) " d="M62.35,41.5L62.5 41.5L65.2 41.65L65.7 41.65L67.55 41.15L68.1 40.2L68.6 38.45L68.3 40.3L67.95 41L67.9 41.05L67.55 41.4L65.2 41.8L64.95 41.8L62.35 41.75L61.9 41.65L61.9 41.55L61.85 41.55Q61.3 41.1 61.25 39.4Q61.5 41.4 62.3 41.5L62.35 41.5" />
<path style="fill:#9D888C;fill-opacity:1" d="M79.15,38.75L79.15 38.4L79.05 38.4L79.05 38.7L79.05 39.1L79.15 39.05L79.15 38.75" />
<path style="fill:#FFFAF6;fill-opacity:1" d="M79.15,38.4L79.3 38.35L79.4 38.35L79.65 38.35L79.95 38.35L80 38.35L80.1 38.35L80.15 38.35L79.6 38.3L79.15 38.35L79.05 38.35L79.05 38.4L79.15 38.4" />
<path style="fill:#D9D2D9;fill-opacity:1" d="M80.1,39.05L80.2 39.1L80.25 38.65L80.25 38.6L80.2 38.4L80.15 38.35L80.1 38.35L80.15 38.65L80.1 39.05" />
<path style="fill:#A1978B;fill-opacity:1" d="M79.6,38.95L79.45 38.7L79.45 38.65L79.4 38.35L79.3 38.35L79.4 38.7L79.55 39.05L79.65 39.05L79.6 38.95" />
<path style="fill:#787161;fill-opacity:1" d="M79.4,38.7L79.3 38.35L79.15 38.4L79.15 38.75L79.15 39.05L79.55 39.05L79.4 38.7M79.25,38.7L79.3 38.5L79.45 38.95L79.35 38.95L79.25 38.75L79.25 38.7" />
<path style="fill:#C4B9C1;fill-opacity:1" d="M79.65,39.05L79.7 39.05L80 39.05L80 38.7L80 38.65L79.95 38.35L79.65 38.35L79.65 38.45L79.65 38.65L79.75 38.95L79.65 38.95L79.6 38.95L79.65 39.05M79.75,38.5L79.8 38.4L79.85 38.45L79.85 38.65L79.9 38.85L79.75 38.65L79.75 38.5" />
<path style="fill:#ECE7ED;fill-opacity:1" d="M80.15,38.65L80.1 38.35L80 38.35L79.95 38.35L80 38.65L80 38.7L80 39.05L80.1 39.05L80.15 38.65" />
<path style="fill:#969195;fill-opacity:1" d="M79.75,38.65L79.9 38.85L79.85 38.65L79.85 38.45L79.8 38.4L79.75 38.5L79.75 38.65" />
<path style="fill:#E2E2E2;fill-opacity:1" d="M79.45,38.65L79.45 38.7L79.6 38.95L79.65 38.95L79.75 38.95L79.65 38.65L79.65 38.45L79.65 38.35L79.4 38.35L79.45 38.65M79.6,38.65L79.65 38.85L79.55 38.65L79.5 38.65L79.45 38.45L79.6 38.65" />
<path style="fill:#F6F2F1;fill-opacity:1" d="M79.45,38.45L79.5 38.65L79.55 38.65L79.65 38.85L79.6 38.65L79.45 38.45" />
<path style="fill:#39322C;fill-opacity:1" d="M79.25,38.75L79.35 38.95L79.45 38.95L79.3 38.5L79.25 38.7L79.25 38.75" />
<path style="fill:#BEAE97;fill-opacity:1" d="M71.7,41.05L71.45 40.5L71.45 40.45L71.45 40.4L71.4 40.35L71.4 40.3L71.35 40.2L71.25 39.7L71.1 39.55L71 39.65L71.25 40.55L71.3 40.65L71.35 40.7L71.3 40.55L71.3 40.45L71.15 39.7L71.35 40.3L71.4 40.4L71.7 41.05" />
<path style="fill:#EFE5D9;fill-opacity:1" d="M71.7,40.4L72 40.15L71.9 39.95L71.6 40.05L71.75 40.05L71.9 40.2L71.7 40.4" />
<path style="fill:#E4CAAD;fill-opacity:1" d="M71.45,40.4L71.45 40.45L71.45 40.5L71.65 40.45L71.7 40.4L71.9 40.2L71.75 40.05L71.6 40.05L71.55 40.1L71.35 40.2L71.4 40.3L71.6 40.2L71.8 40.15L71.75 40.2L71.6 40.35L71.45 40.4" />
<path style="fill:#9B8C75;fill-opacity:1" d="M71.6,40.35L71.75 40.2L71.8 40.15L71.6 40.2L71.4 40.3L71.4 40.35L71.45 40.4L71.6 40.35" />
<path style="fill:#E5CBB2;fill-opacity:1" d="M71.7,41.2L71.7 41.15L71.7 41.05L71.4 40.4L71.35 40.3L71.15 39.7L71.3 40.45L71.3 40.55L71.35 40.7L71.3 40.65L71.25 40.55L71 39.65L70.9 39.95L71.05 40.7L71.15 40.9L71.3 41.05L71.3 40.8L71.45 41L71.45 40.8L71.4 40.6L71.55 40.9L71.7 41.2" />
<path style="fill:#FAE8D6;fill-opacity:1" d="M71.55,40.9L71.4 40.6L71.45 40.8L71.45 41L71.3 40.8L71.3 41.05L71.4 41.2L71.45 41.2L71.7 41.2L71.55 40.9" />
<radialGradient
id="RadialGradID_4894" gradientUnits="userSpaceOnUse" gradientTransform="matrix(-0.00575256, 0, 0, 0.00575256, 78.95, 37.65)" spreadMethod ="pad" cx="0" cy="0" r="819.2" fx="3" fy="0" >
<stop  offset="0"  style="stop-color:#FFFFFF;stop-opacity:0.501961" />
<stop  offset="1"  style="stop-color:#FFFFFF;stop-opacity:0" />
</radialGradient>
<path style="fill:url(#RadialGradID_4894) " d="M78.55,38.2L78.7 39.05L78.5 40.45Q78.25 40.3 78.25 39.6L78 38.6Q77.8 38.25 76.9 38L75.85 37.7L75.85 37.6L76.4 37.6L77.9 37.8L78.45 38.05L78.55 38.2" />
<radialGradient
id="RadialGradID_4895" gradientUnits="userSpaceOnUse" gradientTransform="matrix(-0.00431824, 0, 0, 0.00431824, 72.05, 41.25)" spreadMethod ="pad" cx="0" cy="0" r="819.2" fx="0" fy="0" >
<stop  offset="0"  style="stop-color:#FFFFFF;stop-opacity:0.501961" />
<stop  offset="1"  style="stop-color:#FFFFFF;stop-opacity:0" />
</radialGradient>
<path style="fill:url(#RadialGradID_4895) " d="M71.75,39.15L71.8 38.85L72.05 39.1L72.15 39.3Q73 41.1 75.2 41.5L73.8 41.45L72.55 41.1L72 40.1L71.75 39.15" />
<path style="fill:#B6A184;fill-opacity:1" d="M71.75,38.3L71.7 38.55Q71.65 38.9 71.9 39.7Q72.2 40.65 72.7 41.05Q72.95 41.3 73.25 41.35L74.35 41.5L74.95 41.5L76.35 41.5L77.85 41.35L78 41.3L78.05 41.3L78.1 41.25L78.2 41.15L78.3 41.05L78.45 40.8L78.5 40.75L78.6 40.5L78.6 40.45L78.7 39.95L78.75 40.05L78.55 40.95L78.05 41.45L76.25 41.8L73.75 41.65L72.35 41.1Q71.7 40.6 71.55 39.4L71.45 38.5L71.45 38.4L71.65 38.25L71.8 38.2L71.75 38.25L71.7 38.3L71.75 38.3M79,39.95L78.9 38.35Q78.75 37.75 78.3 37.65L75.4 37.25L72.7 37.55Q71.45 37.75 71.15 38.55L71.2 38.2Q71.2 38 71.3 37.95L71.35 37.9L71.4 37.85L72.65 37.45L73.4 37.3L75.95 37.1L77.75 37.3Q78.65 37.45 78.95 37.75L79.05 37.85L79.05 37.9L79.1 38.1L79.2 38.25L79.2 38.3L79.3 39.4L79.1 40.6L79.1 40.65L78.95 41L78.65 41.45L78.65 41.5L78.6 41.55L79 39.95M75.4,41.55L76.15 41.55L74.95 41.5L75.4 41.55" />
<path style="fill:#5D3C19;fill-opacity:1" d="M71.65,38.25L71.45 38.4L71.45 38.5L71.55 39.4Q71.7 40.6 72.35 41.1L73.75 41.65L76.25 41.8L78.05 41.45L78.55 40.95L78.75 40.05L78.7 39.95L78.7 39.7L78.75 39.4L78.7 38.45L78.5 38.05L78.35 37.9L78.3 37.85L78.25 37.85L78.1 37.8L78 37.75L77.95 37.75L77.95 37.7L77.9 37.75L77.85 37.75L77.4 37.65L75.85 37.5L73.6 37.65L72.8 37.85L71.9 38.2L71.85 38.2L71.8 38.2L71.65 38.25M78,37.7L78.05 37.7L78 37.7M71.15,38.55Q71.45 37.75 72.7 37.55L75.4 37.25L78.3 37.65Q78.75 37.75 78.9 38.35L79 39.95L78.6 41.55L78.5 41.65L78.5 41.7L75.95 42L75.6 42L75.3 42L73 41.8L72.4 41.5Q71.75 41 71.4 39.8L71.3 39.3L71.15 38.55" />
<path style="fill:#2E221E;fill-opacity:1" d="M71.7,38.3L71.75 38.25L71.75 38.3L71.7 38.3" />
<radialGradient
id="RadialGradID_4896" gradientUnits="userSpaceOnUse" gradientTransform="matrix(0.00628662, 0, 0, -0.00628662, 72.95, 41.95)" spreadMethod ="pad" cx="0" cy="0" r="819.2" fx="0" fy="0" >
<stop  offset="0"  style="stop-color:#FFF0D9;stop-opacity:1" />
<stop  offset="0.647059"  style="stop-color:#EBD1AE;stop-opacity:1" />
<stop  offset="1"  style="stop-color:#AE9881;stop-opacity:1" />
</radialGradient>
<path style="fill:url(#RadialGradID_4896) " d="M78.15,41.55L78.15 41.65L78.2 41.55L78.15 41.55" />
<radialGradient
id="RadialGradID_4897" gradientUnits="userSpaceOnUse" gradientTransform="matrix(-0.00746155, 0, 0, 0.00746155, 76.15, 37.15)" spreadMethod ="pad" cx="0" cy="0" r="819.2" fx="0" fy="0" >
<stop  offset="0"  style="stop-color:#FFFDED;stop-opacity:1" />
<stop  offset="0.329412"  style="stop-color:#FFF0D9;stop-opacity:1" />
<stop  offset="0.647059"  style="stop-color:#EBD1AE;stop-opacity:1" />
<stop  offset="1"  style="stop-color:#AE9881;stop-opacity:1" />
</radialGradient>
<path style="fill:url(#RadialGradID_4897) " d="M74.15,37.3L74.1 37.3L72.8 37.5L71.75 37.85Q71.35 38 71.3 38.3L71.95 37.9L74.15 37.4L74.65 37.4L76.5 37.4Q78.05 37.45 78.45 37.85Q78.85 38.25 78.85 38.8L79 39.8L79.05 38.8L78.9 38.05L78.45 37.6L76.8 37.25L74.3 37.3L74.15 37.3" />
<radialGradient
id="RadialGradID_4898" gradientUnits="userSpaceOnUse" gradientTransform="matrix(0.00157166, -0.00616455, -0.010437, -0.00263977, 73.15, 42)" spreadMethod ="pad" cx="0" cy="0" r="819.2" fx="0" fy="0" >
<stop  offset="0"  style="stop-color:#FFFDED;stop-opacity:1" />
<stop  offset="0.329412"  style="stop-color:#FFF0D9;stop-opacity:1" />
<stop  offset="0.647059"  style="stop-color:#EBD1AE;stop-opacity:1" />
<stop  offset="1"  style="stop-color:#AE9881;stop-opacity:1" />
</radialGradient>
<path style="fill:url(#RadialGradID_4898) " d="M77.65,41.5L77.5 41.5L74.8 41.65L74.3 41.65L72.45 41.15L71.9 40.2L71.4 38.45L71.7 40.3L72.05 41L72.1 41.05L72.45 41.4L74.8 41.8L75.05 41.8L77.65 41.75L78.1 41.65L78.1 41.55L78.15 41.55Q78.7 41.1 78.75 39.4Q78.5 41.4 77.7 41.5L77.65 41.5" />
</g>
</svg>
