<?xml version="1.0" encoding="utf-8"?>
<svg version="1.1" id="Layer_1"
xmlns="http://www.w3.org/2000/svg"
xmlns:xlink="http://www.w3.org/1999/xlink"
xmlns:author="http://www.sothink.com"
width="21px" height="5px"
xml:space="preserve">
<g id="622" transform="matrix(1, 0, 0, 1, -60.05, -30.3)">
<path style="fill:#5D2C0E;fill-opacity:0.952941" d="M80.4,30.8L80.25 30.75L80.65 30.85L80.65 30.9L80.4 30.8" />
<path style="fill:#888A74;fill-opacity:0.901961" d="M80.25,30.75L80 30.7L79.95 30.6L80 30.6L80.65 30.85L80.25 30.75" />
<path style="fill:#061208;fill-opacity:0.952941" d="M80.4,31.95L80.65 31.95L80.6 32.5L80.2 32.3L80.4 32.2L80.4 31.95M80.4,30.8L80 30.75L80 30.7L80.25 30.75L80.4 30.8M80.3,31.35L80.25 31.3L80.55 31.3L80.6 31.45L80.35 31.4L80.3 31.35" />
<path style="fill:#4C460A;fill-opacity:0.952941" d="M80.65,31.45L80.55 31.1L80.2 31.15L80.6 31L80.7 31L80.65 31.4L80.65 31.45" />
<path style="fill:#574A13;fill-opacity:0.952941" d="M80.6,31L80.2 30.9L80.15 31.15L80.25 31.3L80.3 31.35L80.25 31.35L79.9 31.35L80.05 31.3L80.1 31.3L80.05 31.25L80.1 31.15L80.15 30.85L80.15 30.8L80.7 30.95L80.7 31L80.6 31" />
<path style="fill:#CFC7B4;fill-opacity:0.901961" d="M80.65,30.9L80.7 30.95L80.15 30.8L80 30.8L79.95 30.75L80 30.75L80.4 30.8L80.65 30.9" />
<path style="fill:#44370D;fill-opacity:0.952941" d="M80.2,31.15L80.55 31.1L80.65 31.45L80.6 31.45L80.55 31.3L80.25 31.3L80.15 31.15L80.2 31.15" />
<path style="fill:#8C0300;fill-opacity:0.901961" d="M79.85,30.65L79.65 30.65L79.65 30.7L79.55 30.65L79.5 30.65L79.45 30.6L79.5 30.55L79.55 30.55L79.8 30.6L79.85 30.65" />
<path style="fill:#DC8945;fill-opacity:0.901961" d="M79.95,30.75L79.85 30.75L79.85 30.65L79.8 30.6L79.95 30.6L80 30.7L80 30.75L79.95 30.75" />
<path style="fill:#061107;fill-opacity:0.952941" d="M79.85,30.75L79.65 30.7L79.65 30.65L79.85 30.65L79.85 30.75" />
<path style="fill:#E1D59B;fill-opacity:0.85098" d="M79.5,30.65L79.55 30.65L79.65 30.7L79.85 30.75L79.95 30.75L80 30.8L79.85 30.85L79.55 30.75L79.5 30.75L79.25 30.7L79.15 30.7L78.95 30.55L79.3 30.65L79.35 30.65L79.5 30.65" />
<path style="fill:#925304;fill-opacity:0.85098" d="M79.85,30.85L80 30.8L80.15 30.8L80.15 30.85L80 30.85L79.85 30.85" />
<path style="fill:#E0CA64;fill-opacity:0.85098" d="M79.95,31.15L79.9 31.15L80 30.85L80.15 30.85L80.1 31.15L79.95 31.15" />
<path style="fill:#C46225;fill-opacity:0.85098" d="M79.9,31.05L79.8 31.1L79.85 30.95L79.9 31.05" />
<path style="fill:#FFDB91;fill-opacity:0.85098" d="M78.85,30.75L78.8 30.7L78.75 30.7L78.7 30.7L79 30.7L79.15 30.7L79.25 30.7L79.5 30.75L79.55 30.75L79.85 30.85L79.65 30.9L79.55 30.85L79.45 30.85L79.4 30.85L79.35 30.85L79 30.75L78.85 30.75" />
<path style="fill:#E8D763;fill-opacity:0.85098" d="M79.7,31.2L79.9 31.15L79.95 31.15L79.85 31.2L79.7 31.25L79.9 31.2L79.85 31.25L79.7 31.3L79.6 31.3L79.55 31.15L79.5 31.1L79.7 31.2" />
<path style="fill:#694F02;fill-opacity:0.85098" d="M79.9,31.2L79.7 31.25L79.85 31.2L79.9 31.2" />
<path style="fill:#AA971F;fill-opacity:0.85098" d="M79.9,31.2L79.85 31.2L79.95 31.15L80.1 31.15L79.9 31.2" />
<path style="fill:#825204;fill-opacity:0.85098" d="M79.9,31.3L79.85 31.25L79.9 31.2L80.1 31.15L80.05 31.25L79.9 31.3" />
<path style="fill:#A75718;fill-opacity:0.85098" d="M79.7,30.95L79.85 30.95L79.8 31.1L79.7 30.95" />
<path style="fill:#30310F;fill-opacity:0.952941" d="M80.2,31.15L80.15 31.15L80.2 30.9L80.6 31L80.2 31.15" />
<path style="fill:#703509;fill-opacity:0.952941" d="M80.6,31.9L80.45 31.55L80.65 31.45L80.65 31.9L80.6 31.9" />
<path style="fill:#5C2306;fill-opacity:0.952941" d="M80.65,31.4L80.65 31.45L80.45 31.55L80.4 31.6L80.35 31.4L80.6 31.45L80.65 31.45L80.65 31.4" />
<path style="fill:#72320C;fill-opacity:0.952941" d="M80.25,31.35L80.3 31.55L80.3 31.9L80.3 31.95L80.25 32.05L80.25 31.85L80.25 31.75L80.25 31.5L80.25 31.45L80.25 31.4L80.25 31.35" />
<path style="fill:#85A469;fill-opacity:0.952941" d="M80,31.75L80.2 31.45L80.25 31.45L80.25 31.5L80 31.75" />
<path style="fill:#66732B;fill-opacity:0.952941" d="M80.2,31.45L80.25 31.4L80.25 31.45L80.2 31.45M79.85,31.4L79.8 31.4L79.85 31.4" />
<path style="fill:#98B178;fill-opacity:0.952941" d="M80,31.75L80.25 31.5L80.25 31.75L80 31.75" />
<path style="fill:#933C0F;fill-opacity:0.952941" d="M80.3,31.55L80.25 31.35L80.3 31.35L80.35 31.4L80.4 31.6L80.45 31.55L80.6 31.9L80.45 31.9L80.3 31.55" />
<path style="fill:#ECB773;fill-opacity:0.85098" d="M80.05,31.25L80.05 31.3L79.9 31.35L79.85 31.4L79.9 31.3L80.05 31.25M79.8,31.75L79.7 31.75L79.7 31.55L79.8 31.4L79.8 31.75" />
<path style="fill:#644002;fill-opacity:0.85098" d="M79.7,31.3L79.85 31.25L79.9 31.3L79.85 31.4L79.8 31.4L79.7 31.55L79.7 31.3" />
<path style="fill:#855517;fill-opacity:0.952941" d="M79.85,31.75L79.8 31.85L79.85 32.05L79.85 32.1L79.8 32.05L79.75 31.95L79.8 31.8L79.8 31.75L79.8 31.4L79.85 31.4L79.8 31.4L79.85 31.4L79.9 31.35L80.25 31.35L80.25 31.4L80.2 31.45L80.15 31.45L79.85 31.45L79.85 31.5L79.85 31.75" />
<path style="fill:#8F9E5D;fill-opacity:0.952941" d="M79.85,31.75L79.85 31.5L79.85 31.45L79.9 31.75L79.85 31.75" />
<path style="fill:#B8B159;fill-opacity:0.952941" d="M79.85,31.75L79.85 31.5L79.85 31.75" />
<path style="fill:#689445;fill-opacity:0.952941" d="M80,31.75L79.9 31.75L79.85 31.45L80.15 31.45L80.2 31.45L80 31.75" />
<path style="fill:#2F400C;fill-opacity:0.952941" d="M80.15,31.85L80.1 31.85L80 31.85L80 31.8L80.1 31.8L80.15 31.85" />
<path style="fill:#9C783E;fill-opacity:0.952941" d="M79.9,31.8L80 31.8L80 31.85L79.9 31.85L79.9 31.8" />
<path style="fill:#41692A;fill-opacity:0.952941" d="M80.25,31.75L80.1 31.8L80 31.8L80 31.75L80.25 31.75M80,31.85L80.1 31.85L80.25 31.85L80.15 31.9L80 31.9L80 31.85" />
<path style="fill:#7D7137;fill-opacity:0.952941" d="M79.9,31.8L79.9 31.75L80 31.75L80 31.8L79.9 31.8" />
<path style="fill:#785213;fill-opacity:0.952941" d="M79.85,31.75L79.9 31.75L79.9 31.8L79.85 31.75M79.8,31.85L79.9 31.85L79.85 31.85L79.8 31.85" />
<path style="fill:#512F00;fill-opacity:0.952941" d="M79.9,31.8L79.9 31.85L79.8 31.85L79.85 31.75L79.9 31.8" />
<path style="fill:#B49248;fill-opacity:0.952941" d="M79.85,32.05L79.8 31.85L79.85 31.85L79.85 32.05" />
<path style="fill:#798A43;fill-opacity:0.952941" d="M79.9,32.1L79.85 32.1L79.85 32.05L79.85 31.85L79.9 31.85L80 31.9L80.15 31.9L80.05 31.9L79.9 32.1" />
<path style="fill:#508D63;fill-opacity:0.952941" d="M80.05,31.9L80.1 32.1L79.9 32.1L80.05 31.9" />
<path style="fill:#886E24;fill-opacity:0.952941" d="M80,31.9L79.9 31.85L80 31.85L80 31.9" />
<path style="fill:#7A3500;fill-opacity:0.952941" d="M80.45,31.9L80.3 31.9L80.3 31.55L80.45 31.9" />
<path style="fill:#7E4B16;fill-opacity:0.952941" d="M80.1,31.85L80.15 31.85L80.1 31.8L80.25 31.75L80.25 31.85L80.1 31.85" />
<path style="fill:#6A2B0A;fill-opacity:0.952941" d="M80.4,31.95L80.3 31.95L80.3 31.9L80.45 31.9L80.6 31.9L80.65 31.9L80.4 31.95" />
<path style="fill:#341900;fill-opacity:0.952941" d="M80.25,32.55L80.05 32.3L80.05 32.2L79.85 32.1L79.9 32.1L80.1 32.1L80.05 31.9L80.15 31.9L80.25 31.85L80.25 32.05L80.3 31.95L80.4 31.95L80.65 31.9L80.65 31.95L80.4 31.95L80.4 32.2L80.2 32.3L80.6 32.5L80.6 32.55L80.5 32.6L80.25 32.55" />
<path style="fill:#B3283F;fill-opacity:0.85098" d="M77.9,30.6L78.2 30.6L78.3 30.6L78.25 30.65L78.2 30.65L78.1 30.65L77.95 30.65L77.9 30.65L77.9 30.6" />
<path style="fill:#DB9D92;fill-opacity:0.85098" d="M78.1,30.65L78.2 30.65L78.25 30.65L78.3 30.6L78.2 30.6L77.9 30.6L77.95 30.55L78 30.55L78.15 30.6L78.25 30.6L78.45 30.6L78.2 30.65L78.15 30.65L77.95 30.65L78.1 30.65" />
<path style="fill:#B4C692;fill-opacity:0.85098" d="M78.6,30.7L78.7 30.7L78.75 30.7L78.8 30.7L78.85 30.75L79.2 30.85L78.3 30.7L78.05 30.7L77.65 30.7L77 30.7L76.45 30.7L75.8 30.7L75.4 30.75L74.9 30.75L74.45 30.8L73.75 30.85L72.55 31L72.95 30.95L74.6 30.7L74.65 30.7L74.95 30.7L75 30.7L76.45 30.65L76.6 30.65L77.5 30.65L77.55 30.65L77.95 30.65L78.15 30.65L78.2 30.65L78.3 30.7L78.35 30.7L78.6 30.7" />
<path style="fill:#CFA984;fill-opacity:0.85098" d="M78.45,30.6L78.25 30.6L78.9 30.65L78.35 30.7L78.3 30.7L78.2 30.65L78.45 30.6" />
<path style="fill:#E7EDD3;fill-opacity:0.85098" d="M78.9,30.65L78.25 30.6L78.15 30.6L78 30.55L77.95 30.55L77.3 30.55L77.2 30.55L77 30.55L76.4 30.6L76.3 30.6L75.5 30.6L76.25 30.5L76.7 30.5L77.45 30.5L77.55 30.5L78.3 30.5L78.85 30.55L78.95 30.55L79.15 30.7L78.9 30.65" />
<path style="fill:#ECF7E6;fill-opacity:0.85098" d="M77.55,30.6L77.6 30.6L77.85 30.6L77.9 30.6L77.9 30.65L77.95 30.65L77.55 30.65L77.55 30.6" />
<path style="fill:#F5FEFF;fill-opacity:0.85098" d="M79.3,30.9L79.35 30.95L79.4 31L79.25 31.05L78.4 30.85L77.7 30.75L77.35 30.75L77.3 30.75L76.45 30.75L75.8 30.7L76.45 30.7L77 30.7L77.65 30.7L78.05 30.7L78.3 30.7L79.2 30.85L79.3 30.9" />
<path style="fill:#999981;fill-opacity:0.85098" d="M77.3,30.55L77.95 30.55L77.9 30.6L77.85 30.6L77.6 30.6L77.55 30.6L77.55 30.65L77.5 30.65L77.3 30.55" />
<path style="fill:#C0B295;fill-opacity:0.85098" d="M76.85,30.45L76.4 30.4L77.1 30.4L78.9 30.5L78.3 30.5L77.55 30.5L77.45 30.5L76.85 30.45" />
<path style="fill:#E7C7B2;fill-opacity:0.901961" d="M75.4,30.75L75.8 30.7L76.45 30.75L77.3 30.75L77.35 30.75L77.7 30.75L78.4 30.85L79.25 31.05L79.15 31.05L79 31L77.15 30.8L75.45 30.75L75.1 30.8L75.4 30.75" />
<path style="fill:#A1AE69;fill-opacity:0.85098" d="M77.5,30.65L76.6 30.65L76.4 30.6L77 30.55L77.2 30.55L77.3 30.55L77.5 30.65" />
<path style="fill:#E3A710;fill-opacity:0.901961" d="M79.5,30.65L79.35 30.65L79.35 30.6L79.4 30.55L79.5 30.55L79.45 30.6L79.5 30.65" />
<path style="fill:#F7FDD9;fill-opacity:0.85098" d="M79.95,30.6L79.8 30.6L79.55 30.55L79.5 30.55L79.4 30.55L79.25 30.5L79.15 30.5L78.9 30.5L77.1 30.4L76.4 30.4L76.35 30.4L76.3 30.4L75.95 30.4L74.9 30.45L73.65 30.55L72.75 30.65L71.75 30.85L71.7 30.85L71.9 30.75L72 30.75L73.8 30.45L77.05 30.35L79.45 30.5L79.55 30.5L80 30.6L79.95 30.6" />
<path style="fill:#965702;fill-opacity:0.901961" d="M79.15,30.5L79.25 30.5L79.4 30.55L79.35 30.6L79.35 30.65L79.3 30.65L79.15 30.5" />
<path style="fill:#EFBD9A;fill-opacity:0.85098" d="M78.7,30.7L78.6 30.7L78.35 30.7L78.9 30.65L79.15 30.7L79 30.7L78.7 30.7" />
<path style="fill:#F4E66C;fill-opacity:0.85098" d="M78.9,30.5L79.15 30.5L79.3 30.65L78.95 30.55L78.85 30.55L78.3 30.5L78.9 30.5" />
<path style="fill:#CB8F2F;fill-opacity:0.85098" d="M79.5,31.1L79.45 31.05L79.4 31L79.35 30.95L79.45 31L79.45 30.95L79.55 31L79.6 31L79.65 30.9L79.85 30.85L80 30.85L79.9 31.15L79.7 31.2L79.5 31.1M79.85,30.95L79.7 30.95L79.8 31.1L79.9 31.05L79.85 30.95" />
<path style="fill:#D1C451;fill-opacity:0.85098" d="M79.35,30.95L79.3 30.9L79.2 30.85L78.85 30.75L79 30.75L79.35 30.85L79.4 30.85L79.45 30.95L79.45 31L79.35 30.95" />
<path style="fill:#C76121;fill-opacity:0.85098" d="M79.45,30.95L79.4 30.85L79.45 30.85L79.55 30.85L79.65 30.9L79.6 31L79.55 31L79.45 30.95" />
<path style="fill:#E4D7A2;fill-opacity:0.701961" d="M79.4,31.1L79.15 31.05L79.25 31.05L79.4 31L79.45 31.05L79.4 31.15L79.45 31.2L79.55 31.25L79.6 31.5L79.55 32.2L79.5 32.25L79.45 32.55L79.3 33.4L79.15 33.75L79.25 33.35L79.3 33.15L79.3 33.05L79.35 33L79.5 32.2L79.55 31.8L79.55 31.4L79.5 31.3L79.45 31.25L79.4 31.1" />
<path style="fill:#D9B79B;fill-opacity:0.701961" d="M79.35,32L79.4 31.7L79.4 31.25L79.3 31.1L79.15 31.05L79.4 31.1L79.45 31.25L79.5 31.3L79.5 31.55L79.4 31.85L79.35 32" />
<path style="fill:#948C43;fill-opacity:0.85098" d="M79.5,31.1L79.55 31.15L79.6 31.3L79.6 31.5L79.55 31.25L79.45 31.2L79.4 31.15L79.45 31.05L79.5 31.1" />
<path style="fill:#716211;fill-opacity:0.85098" d="M79.7,31.55L79.7 31.75L79.65 31.8L79.55 32.25L79.5 32.25L79.55 32.2L79.6 31.5L79.6 31.3L79.7 31.3L79.7 31.55" />
<path style="fill:#A76036;fill-opacity:0.85098" d="M79.5,32.1L79.45 32.1L79.4 32.15L79.45 32L79.5 31.55L79.5 31.3L79.55 31.4L79.55 31.8L79.5 32.2L79.5 32.1" />
<path style="fill:#97A17C;fill-opacity:0.701961" d="M79.35,32.55L79.3 32.65L79.3 32.7L79.25 32.85L79.25 32.9L79.1 33.4L79.15 33.15L79.2 32.9L79.35 32L79.4 31.85L79.5 31.55L79.45 32L79.4 32.15L79.35 32.55" />
<path style="fill:#6B1216;fill-opacity:0.85098" d="M79.5,32.8L79.55 32.75L80.15 32.65L79.55 32.95L79.5 32.95L79.45 33.1L79.4 33.2L79.3 33.4L79.45 32.55L79.5 32.25L79.55 32.25L79.65 31.8L79.65 32L79.65 32.05L79.65 32.1L79.6 32.25L79.55 32.6L79.5 32.65L79.5 32.8" />
<path style="fill:#9E6E30;fill-opacity:0.85098" d="M79.65,31.8L79.7 31.75L79.8 31.75L79.8 31.8L79.65 31.8M79.65,32.05L79.65 32L79.75 31.95L79.8 32.05L79.65 32.05" />
<path style="fill:#E3C28C;fill-opacity:0.85098" d="M79.65,32L79.65 31.8L79.8 31.8L79.75 31.95L79.65 32" />
<path style="fill:#982717;fill-opacity:0.85098" d="M79.8,32.05L79.85 32.1L80.05 32.2L79.65 32.1L79.65 32.05L79.8 32.05" />
<path style="fill:#C66157;fill-opacity:0.85098" d="M80.05,32.3L80 32.3L79.6 32.25L79.65 32.1L80.05 32.2L80.05 32.3" />
<path style="fill:#DD3C4E;fill-opacity:0.85098" d="M79.4,32.15L79.45 32.1L79.5 32.1L79.5 32.2L79.35 33L79.3 33.05L79.35 32.75L79.35 32.55L79.4 32.15" />
<path style="fill:#CC1220;fill-opacity:1" d="M79.75,32.4L80 32.55L79.6 32.65L79.65 32.4L80 32.35L79.75 32.4" />
<path style="fill:#BA1823;fill-opacity:1" d="M80.15,32.55L79.55 32.7L79.5 32.65L79.55 32.6L79.6 32.25L80 32.3L80.15 32.55M80,32.35L79.65 32.4L79.6 32.65L80 32.55L79.75 32.4L80 32.35" />
<path style="fill:#EE5875;fill-opacity:0.85098" d="M79.3,33.05L79.3 33.15L79.25 33.2L79.25 33.25L79.2 33.25L79.1 33.4L79.25 32.9L79.25 32.85L79.3 32.7L79.3 32.65L79.35 32.55L79.35 32.75L79.3 33.05" />
<path style="fill:#9E0C0C;fill-opacity:0.952941" d="M80.2,32.7Q79.85 32.9 79.55 33.05L79.45 33.15L79.45 33.1L79.5 32.95L79.55 32.95L80.15 32.65L79.55 32.75L79.5 32.8L79.5 32.65L79.55 32.7L80.15 32.55L80.25 32.6L80.25 32.55L80.5 32.6L79.7 33.05L80.2 32.7" />
<path style="fill:#FFFDF4;fill-opacity:0.701961" d="M72.3,33.85L72.3 33.8L72.25 33.8L72.15 33.55L71.85 32.9L71.65 32.3L71.65 32.25L71.65 32.2L71.65 32.1L71.6 32.1L71.6 32.05L71.6 32L71.6 31.9L71.65 31.65L71.75 31.5L71.8 31.4L71.7 31.6L71.65 31.9L71.65 31.95L71.85 32.7L72.4 33.9L72.3 33.85M73.05,34.35L73.1 34.35L73.35 34.4L74.8 34.55L74.85 34.55L77.5 34.4L78.65 34L78.7 34L78.85 33.85L79.05 33.6L79.1 33.5L79.1 33.45L79.2 33.4L79.2 33.45L79.15 33.6L79 33.9L78.55 34.2L76 34.65L75.95 34.65L72.9 34.45L72.85 34.4L72.75 34.4L72.5 34.25L73.05 34.35" />
<path style="fill:#CED0A1;fill-opacity:0.85098" d="M79.1,33.4L79.1 33.45L79.1 33.5L79.05 33.6L78.85 33.85L78.7 34L78.65 34L78.4 34.1L78.2 34.15L78.85 33.8L79.1 33.35L79.2 32.9L79.15 33.15L79.1 33.4" />
<path style="fill:#72100F;fill-opacity:1" d="M80.25,32.85L79.7 33.15L80.05 32.95L79.85 33.1L79.7 33.2L79.65 33.15L79.7 33.05L80.5 32.6L80.6 32.55L80.6 32.6L80.55 32.6L80.25 32.85M80.15,32.9L80.2 32.9L79.8 33.25L79.75 33.25L79.85 33.15L80.15 32.9" />
<path style="fill:#8C1E12;fill-opacity:0.952941" d="M79.65,33.3L79.55 33.45L79.5 33.55L79.45 33.55L79.5 33.4L79.5 33.35L79.55 33.35L79.55 33.25L79.5 33.2L79.55 33.15L79.7 33.05L79.65 33.15L79.7 33.2L79.65 33.3" />
<path style="fill:#B4141E;fill-opacity:0.952941" d="M79.5,33.4L79.45 33.3L79.45 33.2L79.4 33.25L79.45 33.15L79.55 33.05Q79.85 32.9 80.2 32.7L79.7 33.05L79.55 33.15L79.5 33.2L79.55 33.25L79.55 33.35L79.5 33.35L79.5 33.4" />
<path style="fill:#9E1F0E;fill-opacity:0.901961" d="M79.45,33.55L79.5 33.55L79.45 33.55" />
<path style="fill:#F52F3E;fill-opacity:0.85098" d="M79.85,33.15L79.75 33.25L79.7 33.35L79.65 33.3L79.7 33.2L79.85 33.1L79.85 33.15" />
<path style="fill:#0D0D0B;fill-opacity:0.8" d="M80.05,32.95L79.7 33.15L80.25 32.85L80.55 32.6L80.2 32.9L80.15 32.9L80.25 32.85L80.05 32.95" />
<path style="fill:#C98642;fill-opacity:0.85098" d="M79.7,33.35L79.55 33.6L79.4 33.85L79.4 33.9L79.25 34.2L79.25 34.25L79.35 33.95L79.2 34.1L79.3 33.9L79.45 33.6L79.45 33.55L79.5 33.55L79.55 33.45L79.65 33.3L79.7 33.35" />
<path style="fill:#F0E9B5;fill-opacity:0.85098" d="M78.75,34.3L78.75 34.35L78.6 34.35L78.7 34.3L79 34.1L79.05 34.05L79.3 33.55L79.35 33.45L79.4 33.4L79.4 33.55L79.3 33.75L79.25 33.85L79.25 33.9L79.2 33.95L79.15 34.05L78.95 34.2L78.95 34.25L78.75 34.3M79.15,33.6L79.2 33.45L79.2 33.4L79.1 33.45L79.1 33.4L79.2 33.25L79.25 33.25L79.25 33.2L79.3 33.15L79.25 33.35L79.15 33.6" />
<path style="fill:#EFC99C;fill-opacity:0.85098" d="M79.4,33.25L79.45 33.2L79.45 33.3L79.5 33.4L79.4 33.55L79.4 33.4L79.35 33.45L79.4 33.25" />
<path style="fill:#946014;fill-opacity:0.701961" d="M79,34.1L79 34L79.05 34L79.1 33.95L79.1 33.85L79.15 33.75L79.3 33.4L79.4 33.2L79.45 33.1L79.45 33.15L79.4 33.25L79.35 33.45L79.3 33.55L79.05 34.05L79 34.1" />
<path style="fill:#B78F49;fill-opacity:0.85098" d="M79.5,33.4L79.5 33.35L79.5 33.4" />
<path style="fill:#E4EBC5;fill-opacity:0.701961" d="M78.55,34.25L78.35 34.35L78.25 34.35L76.5 34.7L76.15 34.75L74.1 34.7L74 34.7L72.9 34.45L75.95 34.65L76 34.65L78.55 34.2L79 33.9L79.15 33.6L79.25 33.35L79.15 33.75L79.1 33.85L79.1 33.95L79.05 34L79 34L78.55 34.25" />
<path style="fill:#590D09;fill-opacity:0.8" d="M79.7,33.35L79.75 33.25L79.8 33.25L79.55 33.7L79.45 33.9L79.25 34.2L79.4 33.9L79.4 33.85L79.55 33.6L79.7 33.35" />
<path style="fill:#BDC0A3;fill-opacity:0.85098" d="M72.95,34.25L75.25 34.5L78.1 34.15L78.2 34.15L78.4 34.1L78.65 34L77.5 34.4L74.85 34.55L74.8 34.55L73.35 34.4L73.1 34.35L73.05 34.35L72.95 34.25" />
<path style="fill:#EEEAAA;fill-opacity:0.85098" d="M78.25,34.45L78.5 34.35L78.65 34.3L78.7 34.3L78.6 34.35L78.75 34.35L78.5 34.45L77.9 34.55L77.95 34.55L78.2 34.45L78.25 34.45" />
<path style="fill:#C8C461;fill-opacity:0.752941" d="M78.7,34.4L78.3 34.55L78.15 34.6L77.55 34.7L77.15 34.7L77.4 34.65L77.9 34.55L78.5 34.45L78.75 34.35L78.75 34.3L78.95 34.25L78.75 34.4L78.7 34.4" />
<path style="fill:#AB8018;fill-opacity:0.752941" d="M77.4,34.65L77.15 34.7L77.35 34.6L77.5 34.6L78 34.45L77.95 34.55L77.9 34.55L77.4 34.65" />
<path style="fill:#BDBB68;fill-opacity:0.752941" d="M76.5,34.7L78.25 34.35L78.1 34.45L78.2 34.45L77.95 34.55L78 34.45L77.5 34.6L77.35 34.6L76.5 34.7" />
<path style="fill:#7B7610;fill-opacity:0.701961" d="M78.55,34.25L78.75 34.25L78.65 34.3L78.5 34.35L78.25 34.45L78.2 34.45L78.1 34.45L78.25 34.35L78.35 34.35L78.55 34.25" />
<path style="fill:#F7EFAF;fill-opacity:0.8" d="M76.75,34.85L76.15 34.9L76.6 34.85L77.55 34.7L78.15 34.6L76.75 34.85" />
<path style="fill:#AA9A45;fill-opacity:0.752941" d="M78.15,34.6L78.3 34.55L78.7 34.4L78.75 34.4L79 34.3L78.55 34.55L78.2 34.65L78.1 34.65L77.85 34.7L76.5 34.9L76.75 34.85L78.15 34.6" />
<path style="fill:#C9D283;fill-opacity:0.752941" d="M77.15,34.7L77.4 34.65L77.15 34.7L77.55 34.7L76.6 34.85L74.05 34.8L73.9 34.75L74.6 34.8L74.85 34.8L75.3 34.85L76.15 34.8L76.45 34.8L77.15 34.7" />
<path style="fill:#A8B55D;fill-opacity:0.752941" d="M76.5,34.7L77.35 34.6L77.15 34.7L76.45 34.8L76.15 34.75L76.5 34.7" />
<path style="fill:#F6E387;fill-opacity:0.85098" d="M77.8,34.8L76.5 34.95L76.4 34.95L76.2 34.95L76.35 34.9L76.5 34.9L77.85 34.7L78.1 34.65L77.8 34.8" />
<path style="fill:#E4DF61;fill-opacity:0.85098" d="M78.1,34.65L78.2 34.65L78.55 34.55L79 34.3L78.9 34.4L79 34.4L77.8 34.8L78.1 34.65" />
<path style="fill:#8F5D12;fill-opacity:0.8" d="M79.15,34.05L79.2 33.95L79.25 33.9L79.25 33.85L79.3 33.75L79.4 33.55L79.5 33.4L79.45 33.55L79.45 33.6L79.3 33.9L79.2 34.1L79.05 34.2L79.15 34.05" />
<path style="fill:#C6A53A;fill-opacity:0.85098" d="M79.2,34.1L79.15 34.15L79.2 34.1" />
<path style="fill:#E5E285;fill-opacity:0.85098" d="M79.2,34.2L79.1 34.2L79.1 34.25L79.05 34.3L79 34.3L78.75 34.4L78.95 34.25L78.95 34.2L79.15 34.05L79.05 34.2L79.2 34.1L79.15 34.15L79.2 34.1L79.35 33.95L79.25 34.25L79.2 34.3L79.15 34.35L79.2 34.2" />
<path style="fill:#FFFFB5;fill-opacity:0.85098" d="M78.9,34.4L79 34.3L79.05 34.3L79.1 34.25L79.1 34.2L79.2 34.2L79.15 34.35L79.1 34.35L79.05 34.4L79 34.4L78.9 34.4" />
<path style="fill:#C1C87B;fill-opacity:0.701961" d="M79,34L79 34.1L79.05 34.05L79 34.1L78.7 34.3L78.65 34.3L78.75 34.25L78.55 34.25L79 34" />
<path style="fill:#D61024;fill-opacity:1" d="M80.25,32.6L80.15 32.55L80 32.3L80.05 32.3L80.25 32.55L80.25 32.6" />
<path style="fill:#AA1727;fill-opacity:0.85098" d="M79.85,33.15L79.85 33.1L80.05 32.95L80.25 32.85L80.15 32.9L79.85 33.15" />
<path style="fill:#E3E9CD;fill-opacity:0.85098" d="M71.75,31.4L71.75 31.3L71.8 31.25L72.4 31.05L72.55 31L73.75 30.85L74.45 30.8L74.9 30.75L75.4 30.75L75.1 30.8L74.9 30.8L73.8 30.9L72.3 31.15L71.9 31.35L71.8 31.4L71.75 31.4" />
<path style="fill:#9A9D50;fill-opacity:0.85098" d="M76.6,30.65L76.45 30.65L75 30.7L74.95 30.7L74.65 30.7L74.6 30.7L74.5 30.7L74.65 30.65L74.8 30.65L75.5 30.6L76.3 30.6L76.4 30.6L76.6 30.65" />
<path style="fill:#CDD29A;fill-opacity:0.85098" d="M73.55,30.75L73.8 30.75L74.65 30.65L74.5 30.7L74.6 30.7L72.95 30.95L73.55 30.75" />
<path style="fill:#F2F6C3;fill-opacity:0.85098" d="M73.45,30.75L73.3 30.8L72.25 30.95L72.15 31L72.05 31L71.85 31.05L72.05 30.9L72.1 30.9L72.2 30.9L72.25 30.9L72.75 30.75L73.85 30.6L76.1 30.5L76.7 30.5L76.25 30.5L75.5 30.6L74.8 30.65L74.65 30.65L73.8 30.75L73.55 30.75L73.45 30.75" />
<path style="fill:#DDD396;fill-opacity:0.85098" d="M72.45,30.8L71.75 30.85L72.75 30.65L73.65 30.55L74.9 30.45L75.95 30.4L76.3 30.4L76.35 30.4L76.4 30.4L76.85 30.45L77.45 30.5L76.7 30.5L76.1 30.5L73.85 30.6L72.75 30.75L72.25 30.9L72.45 30.8" />
<path style="fill:#F0F7C4;fill-opacity:0.85098" d="M71.8,31.25L71.85 31.25Q72.1 31.05 72.55 30.95L72.65 30.95L73.3 30.8L73.45 30.75L73.55 30.75L72.95 30.95L72.55 31L72.4 31.05L71.8 31.25" />
<path style="fill:#FBF49C;fill-opacity:0.85098" d="M72.25,30.9L72.2 30.9L72.1 30.9L72.05 30.9L71.7 31L71.8 30.9L71.65 30.95L71.6 30.95L71.65 30.9L71.7 30.85L71.75 30.85L72.45 30.8L72.25 30.9" />
<path style="fill:#D2D38F;fill-opacity:0.85098" d="M72.05,31L72.15 31L72.25 30.95L73.3 30.8L72.65 30.95L72.55 30.95Q72.1 31.05 71.85 31.25L71.8 31.25L71.75 31.3L72.05 31" />
<path style="fill:#B6A320;fill-opacity:1" d="M71.25,30.9L71.35 30.9L71.3 30.9L71.35 30.9L71.45 30.9L71.5 30.9L71.6 30.8L71.65 30.8L71.7 30.8L71.75 30.8L71.8 30.8L71.9 30.75L71.7 30.85L71.65 30.9L71.6 30.95L71.65 30.95L71.8 30.9L71.7 31L71.7 30.95L71.55 31L71.55 30.95L71.45 30.95L71.35 30.95L71.25 30.9" />
<path style="fill:#F8FCC1;fill-opacity:0.85098" d="M70.6,31.25L70.75 31.25L71.35 31.15L71.35 31.1L71.45 31.1L71.55 31.05L71.65 31.05L71.7 31L72.05 30.9L71.85 31.05L71.75 31.1L71.45 31.15L71.35 31.2L70.5 31.35L70.25 31.4L70.25 31.25L70.6 31.25" />
<path style="fill:#F7EFB1;fill-opacity:0.85098" d="M71.75,31.3L71.6 31.35L71.45 31.4L71.35 31.45L70.25 31.55L70.25 31.4L70.5 31.35L71.35 31.2L71.45 31.15L71.75 31.1L71.85 31.05L72.05 31L71.75 31.3" />
<path style="fill:#D6DFB4;fill-opacity:0.85098" d="M71.45,31.6L71.35 31.65L71.1 31.75L70.9 31.8L70.25 31.8L70.25 31.7L71.35 31.55L71.45 31.5L71.6 31.35L71.75 31.3L71.55 31.5L71.5 31.55L71.5 31.6L71.45 31.6" />
<path style="fill:#C1BF75;fill-opacity:0.701961" d="M71.6,31.55L71.5 31.6L71.5 31.55L71.55 31.5L71.75 31.3L71.75 31.4L71.8 31.4L71.75 31.5L71.65 31.65L71.6 31.55" />
<path style="fill:#898228;fill-opacity:0.701961" d="M71.6,31.85L71.55 31.85L71.5 31.95L71.5 31.9L71.5 31.65L71.5 31.6L71.6 31.55L71.65 31.65L71.6 31.9L71.6 31.85" />
<path style="fill:#E6E676;fill-opacity:0.701961" d="M71.5,32L71.5 31.95L71.55 31.85L71.6 31.85L71.55 31.95L71.5 32.05L71.5 32" />
<path style="fill:#C8BB8E;fill-opacity:0.701961" d="M71.5,32.05L71.55 31.95L71.6 31.85L71.6 31.9L71.6 32L71.6 32.05L71.55 32.15L71.5 32.05" />
<path style="fill:#E8E6AD;fill-opacity:0.701961" d="M71.65,32.2L71.6 32.3L71.6 32.4L71.55 32.25L71.55 32.15L71.6 32.05L71.6 32.1L71.65 32.2" />
<path style="fill:#AF7061;fill-opacity:0.701961" d="M71.65,32.2L71.6 32.1L71.65 32.1L71.65 32.2L71.65 32.25L71.65 32.3L71.85 32.9L71.85 32.95L71.95 33.25L71.9 33.25L71.9 33.2L71.85 33.15L71.85 33.1L71.75 32.9L71.8 32.9L71.65 32.2" />
<path style="fill:#D5B493;fill-opacity:0.85098" d="M71.5,32.2L71.55 32.25L71.6 32.4L71.5 32.3L71.45 32.2L71.5 32.15L71.5 32.2" />
<path style="fill:#8F461B;fill-opacity:0.85098" d="M71.5,32.15L71.45 32.15L71.35 32L71.3 31.95L71.35 32L71.45 32.05L71.35 31.85L71.35 31.8L71.4 31.8L71.5 31.9L71.5 31.95L71.5 32L71.5 32.05L71.55 32.15L71.55 32.25L71.5 32.2L71.5 32.15" />
<path style="fill:#74371B;fill-opacity:0.85098" d="M71.5,32.3L71.6 32.4L71.6 32.45L71.35 32.3L71.35 32.5L71.35 32.45L71.3 32.4Q71.2 32.2 71.15 32.35L71.15 32.2L71.3 32.2L71.25 32L71.45 32.2L71.5 32.3" />
<path style="fill:#B7835B;fill-opacity:0.85098" d="M71.3,32.6L71.25 32.5L71.15 32.35Q71.2 32.2 71.3 32.4L71.35 32.45L71.35 32.5L71.35 32.3L71.6 32.45L71.5 32.45L71.3 32.55L71.3 32.6" />
<path style="fill:#6B1D19;fill-opacity:0.85098" d="M71.65,32.5L71.75 32.9L71.85 33.1L71.85 33.15L71.65 32.95L71.75 33.15L71.7 33.15L71.5 33L71.45 32.95L71.45 32.9L71.45 32.85L71.6 32.9L71.6 32.85L71.55 32.55L71.55 32.5L71.6 32.45L71.65 32.5" />
<path style="fill:#D6D2AF;fill-opacity:0.701961" d="M71.8,32.9L71.75 32.9L71.65 32.5L71.6 32.45L71.6 32.4L71.6 32.3L71.65 32.2L71.8 32.9" />
<path style="fill:#B22633;fill-opacity:0.85098" d="M71.35,32.65L71.3 32.55L71.5 32.45L71.6 32.45L71.55 32.5L71.55 32.55L71.6 32.85L71.6 32.9L71.45 32.85L71.45 32.9L71.35 32.65" />
<path style="fill:#F9E1BD;fill-opacity:0.701961" d="M72.2,33.75L72.2 33.8L72.25 33.95L72.05 33.4L71.85 32.95L71.85 32.9L71.65 32.3L71.85 32.9L72.15 33.55L72.25 33.8L72.2 33.75" />
<path style="fill:#DCB991;fill-opacity:0.701961" d="M72,33.5L71.95 33.45L71.95 33.4L71.85 33.15L71.9 33.2L71.9 33.25L71.95 33.25L71.85 32.95L72.05 33.4L72.25 33.95L72.2 33.85L72.1 33.7L72.05 33.6L72 33.5" />
<path style="fill:#BD2031;fill-opacity:0.85098" d="M71.95,33.4L71.6 33.2L71.6 33.25L71.55 33.1L71.5 33.05L71.5 33L71.7 33.15L71.75 33.15L71.65 32.95L71.85 33.15L71.95 33.4" />
<path style="fill:#F91F42;fill-opacity:0.85098" d="M71.95,33.45L72 33.5L71.9 33.45L71.85 33.35L71.8 33.4L71.65 33.3L71.65 33.4L71.6 33.3L71.6 33.25L71.6 33.2L71.95 33.4L71.95 33.45" />
<path style="fill:#931926;fill-opacity:0.85098" d="M71.65,33.55L71.6 33.45L71.5 33.2L71.3 32.7L71.25 32.5L71.3 32.6L71.35 32.6L71.35 32.65L71.45 32.9L71.45 32.95L71.5 33L71.5 33.05L71.55 33.1L71.6 33.25L71.6 33.3L71.65 33.4L71.7 33.45L71.65 33.55" />
<path style="fill:#FFF4D2;fill-opacity:0.752941" d="M71.85,33.7L71.85 33.75L72 34.05L72.05 34.2L71.85 33.85L71.75 33.5L71.8 33.55L71.85 33.7" />
<path style="fill:#FFE0C7;fill-opacity:0.752941" d="M72.1,34.2L72.15 34.3L72.35 34.55L72.25 34.5L72 34.2L72 34.15L71.85 33.95L71.85 33.9L71.7 33.45L71.7 33.4L71.8 33.45L71.8 33.5L71.8 33.55L71.75 33.5L71.85 33.85L72.05 34.2L72.1 34.2" />
<path style="fill:#FB838C;fill-opacity:0.85098" d="M71.9,33.5L71.85 33.5L71.8 33.5L71.8 33.45L71.7 33.4L71.7 33.45L71.65 33.4L71.65 33.3L71.8 33.4L71.85 33.35L71.9 33.45L71.9 33.5M71.95,33.55L71.9 33.45L71.95 33.55" />
<path style="fill:#FFE4B2;fill-opacity:0.752941" d="M71.85,33.7L71.8 33.55L71.8 33.5L71.85 33.5L71.9 33.5L71.9 33.45L71.95 33.55L72 33.6L72.05 33.7L72.05 33.75L71.95 33.65L71.9 33.6L71.9 33.65L71.85 33.7" />
<path style="fill:#8A6C21;fill-opacity:0.752941" d="M72,34L72 34.05L71.85 33.75L71.85 33.7L71.9 33.65L71.95 33.8L71.95 33.85L72 33.95L72 34" />
<path style="fill:#D5B084;fill-opacity:0.752941" d="M71.85,34.05L71.65 33.55L71.7 33.45L71.85 33.9L71.85 33.95L71.85 34.05" />
<path style="fill:#BC955C;fill-opacity:0.85098" d="M72.05,33.6L72.1 33.7L72.2 33.85L72.25 33.95L72.25 34L72.35 34.1L72.15 33.85L72.1 33.75L72.05 33.75L72.05 33.7L72 33.6L71.95 33.55L71.9 33.45L72 33.5L72.05 33.6" />
<path style="fill:#DBAD6F;fill-opacity:0.752941" d="M72,33.95L71.95 33.85L71.95 33.8L71.9 33.65L71.9 33.6L71.95 33.65L72.05 33.75L72.1 33.75L72.05 33.8L71.95 33.75L72.05 33.95L72.05 34L72 33.95" />
<path style="fill:#FFD9BE;fill-opacity:0.701961" d="M72.5,34.25L72.45 34.2L72.4 34.15L72.35 34.1L72.25 34L72.25 33.95L72.2 33.8L72.2 33.75L72.25 33.8L72.3 33.8L72.3 33.85L72.5 34.1L72.55 34.15L73.05 34.35L72.5 34.25" />
<path style="fill:#EFCAB0;fill-opacity:0.85098" d="M73.05,34.35L72.55 34.15L72.5 34.1L72.3 33.85L72.4 33.9L72.45 34.05L72.95 34.25L73.05 34.35" />
<path style="fill:#F3F4BB;fill-opacity:0.752941" d="M72.35,34.1L72.4 34.15L72.4 34.2L72.6 34.35L72.8 34.45L72.95 34.55L73.15 34.6L73.1 34.6L72.7 34.5L72.55 34.4L72.5 34.35L72.4 34.25L72.4 34.2L72.35 34.2M72.35,34.2L72.35 34.1" />
<path style="fill:#F3C0AB;fill-opacity:0.752941" d="M72.05,33.9L72.1 33.85L72.15 33.85L72.35 34.1L72.35 34.2L72.2 34L72.3 34.3L72.05 33.9" />
<path style="fill:#DCEBAA;fill-opacity:0.752941" d="M73.4,34.65L73.2 34.65L72.9 34.65L72.85 34.65L73.45 34.75L73.2 34.75L72.75 34.65L72.55 34.55L72.5 34.5L72.35 34.4L72.3 34.35L72.4 34.4L72.45 34.4L72.45 34.35L72.4 34.3L72.35 34.2L72.4 34.2L72.4 34.25L72.5 34.35L72.55 34.4L72.7 34.5L73.1 34.6L73.15 34.6L72.95 34.55L72.8 34.45L72.6 34.35L72.4 34.2L72.45 34.2L72.5 34.25L72.75 34.4L73.1 34.55L73.25 34.6L73.3 34.6L73.4 34.65" />
<path style="fill:#E8BD9B;fill-opacity:0.752941" d="M72.25,34.35L72.25 34.3L72.15 34.2L72.05 34L72.05 33.9L72.3 34.3L72.2 34L72.35 34.2L72.4 34.2L72.35 34.2L72.4 34.3L72.45 34.35L72.45 34.4L72.4 34.4L72.3 34.35L72.25 34.35" />
<path style="fill:#FFFDFA;fill-opacity:0.752941" d="M72.35,34.55L72.3 34.45L72.25 34.35L72.3 34.35L72.35 34.4L72.5 34.5L72.55 34.55L72.55 34.6L72.4 34.6L72.35 34.55" />
<path style="fill:#FFEBC2;fill-opacity:0.752941" d="M72.15,34.2L72.25 34.3L72.25 34.35L72.3 34.45L72.05 34.05L72.05 34L72.15 34.2" />
<path style="fill:#F2975E;fill-opacity:0.752941" d="M72.35,34.55L72.15 34.3L72.1 34.2L72.05 34.2L72 34.05L72 34L72 33.95L72.05 34L72.05 34.05L72.3 34.45L72.35 34.55" />
<path style="fill:#D2D9A6;fill-opacity:0.752941" d="M73.35,34.9L73.3 34.9L73.2 34.9L72.2 34.5L72.25 34.5L72.35 34.55L72.4 34.6L72.7 34.7L73.35 34.9" />
<path style="fill:#F3B6A3;fill-opacity:0.752941" d="M72,34.2L72.25 34.5L72.2 34.5L72.05 34.35L72 34.3L72 34.2" />
<path style="fill:#FFFCBE;fill-opacity:0.752941" d="M72.7,34.7L72.4 34.6L72.55 34.6L72.55 34.55L72.75 34.65L73.2 34.75L73.1 34.75L72.7 34.7" />
<path style="fill:#BABB6B;fill-opacity:0.752941" d="M72.85,34.4L72.9 34.45L74 34.7L73.7 34.65L73.3 34.6L73.25 34.6L73.1 34.55L72.75 34.4L72.85 34.4" />
<path style="fill:#946D26;fill-opacity:0.752941" d="M72.1,33.85L72.05 33.9L72.05 34L72.05 33.95L71.95 33.75L72.05 33.8L72.1 33.75L72.15 33.85L72.1 33.85" />
<path style="fill:#EBD5BD;fill-opacity:0.752941" d="M72,34.3L71.9 34.1L71.85 34.1L71.85 34.05L71.85 33.95L72 34.15L72 34.2L72 34.3" />
<path style="fill:#CFB26E;fill-opacity:0.752941" d="M73.8,34.75L73.9 34.75L74.05 34.8L73.9 34.8L73.7 34.75L73.5 34.75L73.45 34.75L72.85 34.65L72.9 34.65L73.2 34.65L73.8 34.75" />
<path style="fill:#B07E1B;fill-opacity:0.752941" d="M73.2,34.65L73.4 34.65L73.3 34.6L73.7 34.65L74 34.7L73.8 34.75L73.2 34.65" />
<path style="fill:#C5AA67;fill-opacity:0.752941" d="M74.3,34.95L74 34.95L73.35 34.9L73.25 34.8L73.3 34.8L73.35 34.8L73.65 34.85L74.3 34.95" />
<path style="fill:#A5B68A;fill-opacity:0.752941" d="M76.4,34.95L75.05 35L73.3 34.9L73.35 34.9L74 34.95L74.3 34.95L76 34.95L76.2 34.95L76.4 34.95" />
<path style="fill:#D1DAA3;fill-opacity:0.752941" d="M72.7,34.7L73.1 34.75L73.3 34.8L73.25 34.8L73.35 34.9L72.7 34.7" />
<path style="fill:#89913E;fill-opacity:0.752941" d="M73.8,34.75L74 34.7L74.1 34.7L76.15 34.75L76.45 34.8L76.15 34.8L75.3 34.85L74.85 34.8L74.6 34.8L73.9 34.75L73.8 34.75" />
<path style="fill:#C1C78B;fill-opacity:0.752941" d="M73.2,34.75L73.45 34.75L73.5 34.75L73.7 34.75L73.9 34.8L74.05 34.8L76.6 34.85L76.15 34.9L76.75 34.85L76.5 34.9L76.35 34.9L76.2 34.95L76 34.95L74.2 34.85L74.15 34.85L73.65 34.85L73.35 34.8L73.3 34.8L73.1 34.75L73.2 34.75" />
<path style="fill:#EEF5AF;fill-opacity:0.752941" d="M74.3,34.95L73.65 34.85L74.15 34.85L74.2 34.85L76 34.95L74.3 34.95" />
<path style="fill:#A68649;fill-opacity:1" d="M70.75,31.25L71 31.1L71.1 31.15L71.55 31.05L71.45 31.1L71.35 31.1L71.35 31.15L70.75 31.25" />
<path style="fill:#801E03;fill-opacity:1" d="M71.1,31.15L71 31.1L70.75 31.25L70.6 31.25L70.65 31.05L71.35 31L71.45 31L71.35 30.95L71.2 30.95L71.25 30.9L71.35 30.95L71.45 30.95L71.55 30.95L71.55 31L71.7 30.95L71.7 31L71.65 31.05L71.55 31.05L71.1 31.15" />
<path style="fill:#F2E45F;fill-opacity:1" d="M71.5,30.9L71.45 30.9L71.35 30.9L71.3 30.9L71.35 30.9L71.35 30.85L71.45 30.85L71.5 30.85L71.6 30.8L71.5 30.9" />
<path style="fill:#1E0C02;fill-opacity:1" d="M71.2,30.95L71.35 30.95L71.45 31L71.35 31L70.65 31.05L70.6 31.05L71.2 30.95" />
<path style="fill:#6F694F;fill-opacity:1" d="M70.6,31.05L70.65 31.05L71.25 30.9L71.2 30.95L70.6 31.05" />
<path style="fill:#813C00;fill-opacity:1" d="M70.5,31.15L70.25 31.25L70.25 31.15L70.5 31.15" />
<path style="fill:#C4851E;fill-opacity:1" d="M70.25,31.25L70.5 31.15L70.25 31.15L70.65 31.05L70.6 31.25L70.25 31.25M70.6,31.05L70.65 31.05L70.6 31.05" />
<path style="fill:#545121;fill-opacity:0.901961" d="M70.4,31.85L70.45 31.95L70.3 32L70.25 31.85L70.4 31.85" />
<path style="fill:#7F8930;fill-opacity:0.901961" d="M70.25,32.1L70.3 32L70.45 31.95L70.4 31.85L70.45 31.85L70.5 31.9L70.55 31.95L70.6 32.05L70.65 32.1L70.25 32.1" />
<path style="fill:#ADA167;fill-opacity:0.85098" d="M70.25,31.85L70.25 31.8L70.9 31.8L71 31.85L70.95 31.85L70.9 31.85L70.8 31.85L70.65 31.85L70.5 31.85L70.45 31.85L70.4 31.85L70.25 31.85" />
<path style="fill:#FFCE7F;fill-opacity:0.901961" d="M70.5,31.85L70.65 31.85L70.55 31.95L70.5 31.9L70.5 31.85" />
<path style="fill:#D8A339;fill-opacity:0.901961" d="M70.65,31.85L70.8 31.85L70.75 32L70.9 31.85L70.95 31.85L70.9 31.9L70.85 32L70.75 32.05L70.6 32.05L70.55 31.95L70.65 31.85M70.5,31.85L70.5 31.9L70.45 31.85L70.5 31.85" />
<path style="fill:#986218;fill-opacity:0.85098" d="M70.75,32.05L71 32.1L71 32.15L70.95 32.15L70.65 32.1L70.6 32.05L70.75 32.05" />
<path style="fill:#AD6519;fill-opacity:0.901961" d="M70.8,31.85L70.9 31.85L70.75 32L70.8 31.85" />
<path style="fill:#E5D7A8;fill-opacity:0.85098" d="M70.25,31.7L70.25 31.55L71.35 31.45L71.45 31.4L71.6 31.35L71.45 31.5L71.35 31.55L70.25 31.7" />
<path style="fill:#8C6522;fill-opacity:0.85098" d="M71.1,31.75L71.35 31.65L71.45 31.6L71.5 31.6L71.5 31.65L71.45 31.65L71.45 31.7L71.4 31.7L71.35 31.7L71.35 31.75L71.2 31.85L71.1 31.75" />
<path style="fill:#EAC787;fill-opacity:0.85098" d="M71.2,31.85L71.15 31.9L71 31.85L70.9 31.8L71.1 31.75L71.2 31.85" />
<path style="fill:#DE9B57;fill-opacity:0.85098" d="M71.05,32.1L70.85 32L70.9 31.9L71 31.95L71.15 31.9L71.2 31.95L71.05 32.1" />
<path style="fill:#FDE6A0;fill-opacity:0.85098" d="M70.85,32L71.05 32.1L71 32.1L70.75 32.05L70.85 32" />
<path style="fill:#A5541D;fill-opacity:0.85098" d="M71.15,31.9L71 31.95L70.9 31.9L70.95 31.85L71 31.85L71.15 31.9" />
<path style="fill:#D08657;fill-opacity:0.85098" d="M71.35,32L71.45 32.15L71.5 32.15L71.45 32.2L71.25 32L71.2 31.95L71.15 31.9L71.2 31.85L71.3 31.95L71.35 32" />
<path style="fill:#A36220;fill-opacity:0.85098" d="M71.4,31.8L71.35 31.8L71.35 31.85L71.45 32.05L71.35 32L71.3 31.95L71.2 31.85L71.35 31.75L71.35 31.7L71.4 31.7L71.45 31.7L71.45 31.65L71.5 31.65L71.5 31.9L71.4 31.8" />
<path style="fill:#AD6C34;fill-opacity:0.85098" d="M71.2,31.95L71.25 32L71.3 32.2L71.15 32.2L71.05 32.1L71.2 31.95" />
<path style="fill:#A9844F;fill-opacity:0.85098" d="M70.95,32.15L71 32.15L71 32.1L71.05 32.1L71.15 32.2L71.15 32.35L71.25 32.5L71.3 32.7L71.1 32.35L70.95 32.15" />
<path style="fill:#FFE1A8;fill-opacity:0.901961" d="M70.65,32.1L70.95 32.15L71.1 32.35L70.25 32.1L70.65 32.1" />
<path style="fill:#B22532;fill-opacity:0.85098" d="M71.3,32.6L71.3 32.55L71.35 32.65L71.35 32.6L71.3 32.6" />
<path style="fill:none;stroke-width:0.05;stroke-linecap:round;stroke-linejoin:round;stroke-miterlimit:3;stroke:#FFCC00;stroke-opacity:1" d="M79.8,31.1L79.85 30.95" />
<radialGradient
id="RadialGradID_4942" gradientUnits="userSpaceOnUse" gradientTransform="matrix(0.0119476, 0, 0, 0.0120697, 82, 27.4)" spreadMethod ="pad" cx="0" cy="0" r="819.2" fx="0" fy="0" >
<stop  offset="0"  style="stop-color:#FFFFFF;stop-opacity:0.8" />
<stop  offset="1"  style="stop-color:#FFFFFF;stop-opacity:0" />
</radialGradient>
<path style="fill:url(#RadialGradID_4942) " d="M78.45,30.95Q79.25 30.95 79.25 31.75L78.8 33.45L78.05 33.8Q77.85 33.95 78.05 33.3L78.25 32.2Q78.25 31.7 77.7 31.55L76.3 31.3L75.2 31.15L74.6 30.95Q74.3 30.8 74.85 30.8L77.7 30.85L78.45 30.95" />
<radialGradient
id="RadialGradID_4943" gradientUnits="userSpaceOnUse" gradientTransform="matrix(0.00682068, 0, 0, 0.00689697, 70.75, 35.6)" spreadMethod ="pad" cx="0" cy="0" r="819.2" fx="0" fy="0" >
<stop  offset="0"  style="stop-color:#FFFFFF;stop-opacity:0.8" />
<stop  offset="1"  style="stop-color:#FFFFFF;stop-opacity:0" />
</radialGradient>
<path style="fill:url(#RadialGradID_4943) " d="M72.2,32.5L72.15 32.35L72.25 31.9L72.35 31.95Q72.8 33.9 75.3 34.2L73.3 34.25Q72.45 34.1 72.3 33.35L72.2 32.5" />
<path style="fill:#5D2C0E;fill-opacity:0.952941" d="M60.5,30.75L60.1 30.85L60.1 30.9L60.35 30.8L60.5 30.75" />
<path style="fill:#888A74;fill-opacity:0.901961" d="M60.1,30.85L60.5 30.75L60.75 30.7L60.8 30.6L60.75 30.6L60.1 30.85" />
<path style="fill:#061208;fill-opacity:0.952941" d="M60.75,30.75L60.75 30.7L60.5 30.75L60.35 30.8L60.75 30.75M60.1,31.95L60.15 32.5L60.6 32.3L60.4 32.2L60.35 31.95L60.1 31.95M60.15,31.45L60.4 31.4L60.45 31.35L60.5 31.3L60.2 31.3L60.15 31.45" />
<path style="fill:#4C460A;fill-opacity:0.952941" d="M60.1,31.45L60.2 31.1L60.55 31.15L60.15 31L60.05 31L60.1 31.4L60.1 31.45" />
<path style="fill:#574A13;fill-opacity:0.952941" d="M60.05,30.95L60.05 31L60.15 31L60.55 30.9L60.6 31.15L60.5 31.3L60.45 31.35L60.5 31.35L60.85 31.35L60.7 31.3L60.65 31.3L60.7 31.25L60.65 31.15L60.6 30.85L60.6 30.8L60.05 30.95" />
<path style="fill:#CFC7B4;fill-opacity:0.901961" d="M60.35,30.8L60.1 30.9L60.05 30.95L60.6 30.8L60.75 30.8L60.8 30.75L60.75 30.75L60.35 30.8" />
<path style="fill:#44370D;fill-opacity:0.952941" d="M60.2,31.3L60.5 31.3L60.6 31.15L60.55 31.15L60.2 31.1L60.1 31.45L60.15 31.45L60.2 31.3" />
<path style="fill:#8C0300;fill-opacity:0.901961" d="M60.9,30.65L61.15 30.65L61.1 30.7L61.25 30.65L61.3 30.6L61.25 30.55L60.95 30.6L60.9 30.65" />
<path style="fill:#DC8945;fill-opacity:0.901961" d="M60.9,30.65L60.95 30.6L60.8 30.6L60.75 30.7L60.75 30.75L60.8 30.75L60.9 30.75L60.9 30.65" />
<path style="fill:#061107;fill-opacity:0.952941" d="M60.9,30.75L61.1 30.7L61.15 30.65L60.9 30.65L60.9 30.75" />
<path style="fill:#E1D59B;fill-opacity:0.85098" d="M61.25,30.65L61.1 30.7L60.9 30.75L60.8 30.75L60.75 30.8L60.9 30.85L61.25 30.75L61.5 30.7L61.6 30.7L61.8 30.55L61.45 30.65L61.4 30.65L61.25 30.65" />
<path style="fill:#925304;fill-opacity:0.85098" d="M60.9,30.85L60.75 30.8L60.6 30.8L60.6 30.85L60.75 30.85L60.9 30.85" />
<path style="fill:#E0CA64;fill-opacity:0.85098" d="M60.8,31.15L60.85 31.15L60.75 30.85L60.6 30.85L60.65 31.15L60.8 31.15" />
<path style="fill:#C46225;fill-opacity:0.85098" d="M60.85,31.05L60.95 31.1L60.9 30.95L60.85 31.05" />
<path style="fill:#FFDB91;fill-opacity:0.85098" d="M61.9,30.75L61.95 30.7L62 30.7L62.05 30.7L61.75 30.7L61.6 30.7L61.5 30.7L61.25 30.75L60.9 30.85L61.1 30.9L61.25 30.85L61.3 30.85L61.35 30.85L61.4 30.85L61.75 30.75L61.9 30.75" />
<path style="fill:#E8D763;fill-opacity:0.85098" d="M61.05,31.2L60.85 31.15L60.8 31.15L60.9 31.2L61.05 31.25L60.85 31.2L60.9 31.25L61.05 31.3L61.15 31.3L61.25 31.15L61.25 31.1L61.05 31.2" />
<path style="fill:#694F02;fill-opacity:0.85098" d="M60.85,31.2L61.05 31.25L60.9 31.2L60.85 31.2" />
<path style="fill:#AA971F;fill-opacity:0.85098" d="M60.85,31.2L60.9 31.2L60.8 31.15L60.65 31.15L60.85 31.2" />
<path style="fill:#825204;fill-opacity:0.85098" d="M60.85,31.3L60.9 31.25L60.85 31.2L60.65 31.15L60.7 31.25L60.85 31.3" />
<path style="fill:#A75718;fill-opacity:0.85098" d="M61.05,30.95L60.9 30.95L60.95 31.1L61.05 30.95" />
<path style="fill:#30310F;fill-opacity:0.952941" d="M60.55,31.15L60.6 31.15L60.55 30.9L60.15 31L60.55 31.15" />
<path style="fill:#703509;fill-opacity:0.952941" d="M60.1,31.45L60.1 31.9L60.15 31.9L60.35 31.55L60.1 31.45" />
<path style="fill:#5C2306;fill-opacity:0.952941" d="M60.1,31.4L60.1 31.45L60.1 31.4M60.35,31.55L60.35 31.6L60.4 31.4L60.15 31.45L60.1 31.45L60.35 31.55" />
<path style="fill:#72320C;fill-opacity:0.952941" d="M60.5,31.5L60.5 31.45L60.5 31.4L60.5 31.35L60.45 31.55L60.45 31.9L60.45 31.95L60.5 32.05L60.5 31.85L60.5 31.75L60.5 31.5" />
<path style="fill:#85A469;fill-opacity:0.952941" d="M60.5,31.5L60.75 31.75L60.55 31.45L60.5 31.45L60.5 31.5" />
<path style="fill:#66732B;fill-opacity:0.952941" d="M60.5,31.45L60.55 31.45L60.5 31.4L60.5 31.45M60.9,31.4L60.95 31.4L60.9 31.4" />
<path style="fill:#98B178;fill-opacity:0.952941" d="M60.5,31.75L60.75 31.75L60.5 31.5L60.5 31.75" />
<path style="fill:#933C0F;fill-opacity:0.952941" d="M60.4,31.4L60.35 31.6L60.35 31.55L60.15 31.9L60.3 31.9L60.45 31.55L60.5 31.35L60.45 31.35L60.4 31.4" />
<path style="fill:#ECB773;fill-opacity:0.85098" d="M60.7,31.25L60.7 31.3L60.85 31.35L60.95 31.4L60.85 31.3L60.7 31.25M60.95,31.75L61.05 31.75L61.05 31.55L60.95 31.4L60.95 31.75" />
<path style="fill:#644002;fill-opacity:0.85098" d="M61.05,31.3L60.9 31.25L60.85 31.3L60.95 31.4L61.05 31.55L61.05 31.3" />
<path style="fill:#855517;fill-opacity:0.952941" d="M60.9,31.75L60.95 31.85L60.9 32.05L60.9 32.1L60.95 32.1L60.95 32.05L61 31.95L60.95 31.8L60.95 31.75L60.95 31.4L60.9 31.4L60.95 31.4L60.85 31.35L60.5 31.35L60.5 31.4L60.55 31.45L60.6 31.45L60.9 31.45L60.9 31.5L60.9 31.75" />
<path style="fill:#8F9E5D;fill-opacity:0.952941" d="M60.9,31.75L60.9 31.5L60.9 31.45L60.85 31.75L60.9 31.75" />
<path style="fill:#B8B159;fill-opacity:0.952941" d="M60.9,31.75L60.9 31.5L60.9 31.75" />
<path style="fill:#689445;fill-opacity:0.952941" d="M60.85,31.75L60.9 31.45L60.6 31.45L60.55 31.45L60.75 31.75L60.85 31.75" />
<path style="fill:#2F400C;fill-opacity:0.952941" d="M60.6,31.85L60.65 31.85L60.75 31.85L60.75 31.8L60.65 31.8L60.6 31.85" />
<path style="fill:#9C783E;fill-opacity:0.952941" d="M60.85,31.85L60.85 31.8L60.75 31.8L60.75 31.85L60.85 31.85" />
<path style="fill:#41692A;fill-opacity:0.952941" d="M60.5,31.75L60.65 31.8L60.75 31.8L60.75 31.75L60.5 31.75M60.5,31.85L60.6 31.9L60.75 31.9L60.75 31.85L60.65 31.85L60.5 31.85" />
<path style="fill:#7D7137;fill-opacity:0.952941" d="M60.85,31.8L60.85 31.75L60.75 31.75L60.75 31.8L60.85 31.8" />
<path style="fill:#785213;fill-opacity:0.952941" d="M60.9,31.75L60.85 31.75L60.85 31.8L60.9 31.75M60.95,31.85L60.85 31.85L60.9 31.85L60.95 31.85" />
<path style="fill:#512F00;fill-opacity:0.952941" d="M60.85,31.8L60.85 31.85L60.95 31.85L60.9 31.75L60.85 31.8" />
<path style="fill:#B49248;fill-opacity:0.952941" d="M60.9,32.05L60.95 31.85L60.9 31.85L60.9 32.05" />
<path style="fill:#798A43;fill-opacity:0.952941" d="M60.75,31.9L60.6 31.9L60.7 31.9L60.85 32.1L60.9 32.1L60.9 32.05L60.9 31.85L60.85 31.85L60.75 31.9" />
<path style="fill:#508D63;fill-opacity:0.952941" d="M60.7,31.9L60.65 32.1L60.85 32.1L60.7 31.9" />
<path style="fill:#886E24;fill-opacity:0.952941" d="M60.85,31.85L60.75 31.85L60.75 31.9L60.85 31.85" />
<path style="fill:#7A3500;fill-opacity:0.952941" d="M60.45,31.9L60.45 31.55L60.3 31.9L60.45 31.9" />
<path style="fill:#7E4B16;fill-opacity:0.952941" d="M60.5,31.85L60.65 31.85L60.6 31.85L60.65 31.8L60.5 31.75L60.5 31.85" />
<path style="fill:#6A2B0A;fill-opacity:0.952941" d="M60.35,31.95L60.45 31.95L60.45 31.9L60.3 31.9L60.15 31.9L60.1 31.9L60.35 31.95" />
<path style="fill:#341900;fill-opacity:0.952941" d="M60.1,31.9L60.1 31.95L60.35 31.95L60.1 31.9M60.7,31.9L60.6 31.9L60.5 31.85L60.5 32.05L60.45 31.95L60.35 31.95L60.4 32.2L60.6 32.3L60.15 32.5L60.15 32.55L60.25 32.6L60.5 32.55L60.7 32.3L60.7 32.2L60.95 32.1L60.9 32.1L60.85 32.1L60.65 32.1L60.7 31.9" />
<path style="fill:#B3283F;fill-opacity:0.85098" d="M62.85,30.65L62.85 30.6L62.55 30.6L62.45 30.6L62.5 30.65L62.55 30.65L62.65 30.65L62.8 30.65L62.85 30.65" />
<path style="fill:#DB9D92;fill-opacity:0.85098" d="M62.8,30.55L62.75 30.55L62.6 30.6L62.5 30.6L62.3 30.6L62.55 30.65L62.6 30.65L62.8 30.65L62.65 30.65L62.55 30.65L62.5 30.65L62.45 30.6L62.55 30.6L62.85 30.6L62.8 30.55" />
<path style="fill:#B4C692;fill-opacity:0.85098" d="M62.45,30.7L62.4 30.7L62.15 30.7L62.05 30.7L62 30.7L61.95 30.7L61.9 30.75L61.55 30.85L62.45 30.7L62.7 30.7L63.1 30.7L63.75 30.7L64.3 30.7L64.95 30.7L65.35 30.75L65.85 30.75L66.3 30.8L67 30.85L68.2 31L67.8 30.95L66.15 30.7L66.1 30.7L65.8 30.7L65.75 30.7L64.3 30.65L64.15 30.65L63.25 30.65L63.2 30.65L62.8 30.65L62.6 30.65L62.55 30.65L62.45 30.7" />
<path style="fill:#CFA984;fill-opacity:0.85098" d="M62.4,30.7L62.45 30.7L62.55 30.65L62.3 30.6L62.5 30.6L61.85 30.65L62.4 30.7" />
<path style="fill:#E7EDD3;fill-opacity:0.85098" d="M62.5,30.6L62.6 30.6L62.75 30.55L62.8 30.55L63.45 30.55L63.55 30.55L63.75 30.55L64.35 30.6L64.45 30.6L65.25 30.6L64.5 30.5L64.05 30.5L63.3 30.5L63.2 30.5L62.45 30.5L61.9 30.55L61.8 30.55L61.6 30.7L61.85 30.65L62.5 30.6" />
<path style="fill:#ECF7E6;fill-opacity:0.85098" d="M62.85,30.6L62.85 30.65L62.8 30.65L63.2 30.65L63.2 30.6L63.15 30.6L62.9 30.6L62.85 30.6" />
<path style="fill:#F5FEFF;fill-opacity:0.85098" d="M61.45,30.9L61.4 30.95L61.35 31L61.5 31.05L62.35 30.85L63.05 30.75L63.4 30.75L63.45 30.75L64.3 30.75L64.95 30.7L64.3 30.7L63.75 30.7L63.1 30.7L62.7 30.7L62.45 30.7L61.55 30.85L61.45 30.9" />
<path style="fill:#999981;fill-opacity:0.85098" d="M63.45,30.55L62.8 30.55L62.85 30.6L62.9 30.6L63.15 30.6L63.2 30.6L63.2 30.65L63.25 30.65L63.45 30.55" />
<path style="fill:#C0B295;fill-opacity:0.85098" d="M63.9,30.45L64.35 30.4L63.65 30.4L61.85 30.5L62.45 30.5L63.2 30.5L63.3 30.5L63.9 30.45" />
<path style="fill:#E7C7B2;fill-opacity:0.901961" d="M65.35,30.75L64.95 30.7L64.3 30.75L63.45 30.75L63.4 30.75L63.05 30.75L62.35 30.85L61.5 31.05L61.6 31.05L61.75 31L63.6 30.8L65.3 30.75L65.65 30.8L65.35 30.75" />
<path style="fill:#A1AE69;fill-opacity:0.85098" d="M63.25,30.65L64.15 30.65L64.35 30.6L63.75 30.55L63.55 30.55L63.45 30.55L63.25 30.65" />
<path style="fill:#E3A710;fill-opacity:0.901961" d="M61.25,30.65L61.4 30.65L61.4 30.6L61.35 30.55L61.25 30.55L61.3 30.6L61.25 30.65" />
<path style="fill:#F7FDD9;fill-opacity:0.85098" d="M60.8,30.6L60.95 30.6L61.25 30.55L61.35 30.55L61.5 30.5L61.6 30.5L61.85 30.5L63.65 30.4L64.35 30.4L64.4 30.4L64.45 30.4L64.8 30.4L65.85 30.45L67.1 30.55L68 30.65L69 30.85L69.05 30.85L68.85 30.75L68.75 30.75L66.95 30.45L63.7 30.35L61.3 30.5L61.25 30.5L60.75 30.6L60.8 30.6" />
<path style="fill:#965702;fill-opacity:0.901961" d="M61.6,30.5L61.5 30.5L61.35 30.55L61.4 30.6L61.4 30.65L61.45 30.65L61.6 30.5" />
<path style="fill:#EFBD9A;fill-opacity:0.85098" d="M61.85,30.65L61.6 30.7L61.75 30.7L62.05 30.7L62.15 30.7L62.4 30.7L61.85 30.65" />
<path style="fill:#F4E66C;fill-opacity:0.85098" d="M61.85,30.5L61.6 30.5L61.45 30.65L61.8 30.55L61.9 30.55L62.45 30.5L61.85 30.5" />
<path style="fill:#CB8F2F;fill-opacity:0.85098" d="M61.25,31.1L61.3 31.05L61.35 31L61.4 30.95L61.3 31L61.3 30.95L61.25 31L61.15 31L61.1 30.9L60.9 30.85L60.75 30.85L60.85 31.15L61.05 31.2L61.25 31.1M60.9,30.95L61.05 30.95L60.95 31.1L60.85 31.05L60.9 30.95" />
<path style="fill:#D1C451;fill-opacity:0.85098" d="M61.4,30.95L61.45 30.9L61.55 30.85L61.9 30.75L61.75 30.75L61.4 30.85L61.35 30.85L61.3 30.95L61.3 31L61.4 30.95" />
<path style="fill:#C76121;fill-opacity:0.85098" d="M61.3,30.95L61.35 30.85L61.3 30.85L61.25 30.85L61.1 30.9L61.15 31L61.25 31L61.3 30.95" />
<path style="fill:#E4D7A2;fill-opacity:0.701961" d="M61.6,33.75L61.5 33.35L61.45 33.15L61.45 33.05L61.4 33L61.25 32.2L61.25 31.8L61.25 31.4L61.25 31.3L61.3 31.25L61.35 31.1L61.6 31.05L61.5 31.05L61.35 31L61.3 31.05L61.35 31.15L61.3 31.2L61.25 31.25L61.15 31.5L61.25 32.2L61.25 32.25L61.3 32.55L61.45 33.4L61.6 33.75" />
<path style="fill:#D9B79B;fill-opacity:0.701961" d="M61.4,32L61.35 31.7L61.35 31.25L61.45 31.1L61.6 31.05L61.35 31.1L61.3 31.25L61.25 31.3L61.25 31.55L61.35 31.85L61.4 32" />
<path style="fill:#948C43;fill-opacity:0.85098" d="M61.25,31.1L61.25 31.15L61.15 31.3L61.15 31.5L61.25 31.25L61.3 31.2L61.35 31.15L61.3 31.05L61.25 31.1" />
<path style="fill:#716211;fill-opacity:0.85098" d="M61.15,31.5L61.15 31.3L61.05 31.3L61.05 31.55L61.05 31.75L61.1 31.8L61.25 32.25L61.25 32.2L61.15 31.5" />
<path style="fill:#A76036;fill-opacity:0.85098" d="M61.25,32.1L61.3 32.1L61.35 32.15L61.3 32L61.25 31.55L61.25 31.3L61.25 31.4L61.25 31.8L61.25 32.2L61.25 32.1" />
<path style="fill:#97A17C;fill-opacity:0.701961" d="M61.4,32.55L61.45 32.65L61.45 32.7L61.5 32.85L61.5 32.9L61.65 33.4L61.6 33.15L61.55 32.9L61.4 32L61.35 31.85L61.25 31.55L61.3 32L61.35 32.15L61.4 32.55" />
<path style="fill:#6B1216;fill-opacity:0.85098" d="M61.15,32.25L61.25 32.6L61.25 32.65L61.25 32.8L61.25 32.75L60.65 32.65L61.25 32.95L61.3 33.1L61.4 33.2L61.45 33.4L61.3 32.55L61.25 32.25L61.1 31.8L61.1 32L61.1 32.05L61.1 32.1L61.15 32.25" />
<path style="fill:#9E6E30;fill-opacity:0.85098" d="M61.1,31.8L61.05 31.75L60.95 31.75L60.95 31.8L61.1 31.8M61,31.95L60.95 32.05L61.1 32.05L61.1 32L61 31.95" />
<path style="fill:#E3C28C;fill-opacity:0.85098" d="M61.1,32L61.1 31.8L60.95 31.8L61 31.95L61.1 32" />
<path style="fill:#982717;fill-opacity:0.85098" d="M60.95,32.05L60.95 32.1L60.7 32.2L61.1 32.1L61.1 32.05L60.95 32.05" />
<path style="fill:#C66157;fill-opacity:0.85098" d="M60.75,32.3L61.15 32.25L61.1 32.1L60.7 32.2L60.7 32.3L60.75 32.3" />
<path style="fill:#DD3C4E;fill-opacity:0.85098" d="M61.35,32.15L61.3 32.1L61.25 32.1L61.25 32.2L61.4 33L61.45 33.05L61.4 32.75L61.4 32.55L61.35 32.15" />
<path style="fill:#CC1220;fill-opacity:1" d="M60.75,32.55L61.15 32.65L61.15 32.4L60.75 32.35L61 32.4L60.75 32.55" />
<path style="fill:#BA1823;fill-opacity:1" d="M61.25,32.65L61.25 32.6L61.15 32.25L60.75 32.3L60.6 32.55L61.25 32.7L61.25 32.65M61,32.4L60.75 32.35L61.15 32.4L61.15 32.65L60.75 32.55L61 32.4" />
<path style="fill:#EE5875;fill-opacity:0.85098" d="M61.5,33.2L61.5 33.25L61.55 33.25L61.65 33.4L61.5 32.9L61.5 32.85L61.45 32.7L61.45 32.65L61.4 32.55L61.4 32.75L61.45 33.05L61.45 33.15L61.5 33.2" />
<path style="fill:#9E0C0C;fill-opacity:0.952941" d="M61.05,33.05L60.6 32.7L61.25 33.05L61.35 33.15L61.3 33.1L61.25 32.95L60.65 32.65L61.25 32.75L61.25 32.8L61.25 32.65L61.25 32.7L60.6 32.55L60.55 32.6L60.5 32.55L60.25 32.6L61.05 33.05" />
<path style="fill:#FFFDF4;fill-opacity:0.701961" d="M68.45,33.85L68.45 33.8L68.5 33.8L68.6 33.55L68.9 32.9L69.1 32.3L69.1 32.25L69.1 32.2L69.1 32.1L69.15 32.1L69.15 32.05L69.15 32L69.15 31.9L69.1 31.65L69 31.5L68.95 31.4L69.05 31.6L69.1 31.9L69.1 31.95L68.9 32.7L68.35 33.9L68.45 33.85M67.7,34.35L67.65 34.35L67.4 34.4L65.95 34.55L65.9 34.55L63.25 34.4L62.1 34L62.05 34L61.9 33.85L61.7 33.6L61.65 33.5L61.65 33.45L61.55 33.4L61.55 33.45L61.6 33.6L61.75 33.9L62.2 34.2L64.75 34.65L64.8 34.65L67.85 34.45L67.9 34.4L68 34.4L68.25 34.25L67.7 34.35" />
<path style="fill:#CED0A1;fill-opacity:0.85098" d="M61.65,33.4L61.65 33.45L61.65 33.5L61.7 33.6L61.9 33.85L62.05 34L62.1 34L62.35 34.1L62.55 34.15L61.9 33.8L61.65 33.35L61.55 32.9L61.6 33.15L61.65 33.4" />
<path style="fill:#72100F;fill-opacity:1" d="M60.25,32.6L60.15 32.55L60.15 32.6L60.2 32.6L60.55 32.85L61.05 33.15L60.7 32.95L60.9 33.1L61.05 33.2L61.15 33.15L61.05 33.05L60.25 32.6M61,33.25L60.9 33.15L60.6 32.9L60.55 32.9L60.95 33.25L61 33.25" />
<path style="fill:#8C1E12;fill-opacity:0.952941" d="M61.15,33.3L61.25 33.45L61.3 33.55L61.25 33.4L61.25 33.35L61.25 33.25L61.25 33.2L61.25 33.15L61.05 33.05L61.15 33.15L61.05 33.2L61.15 33.3" />
<path style="fill:#B4141E;fill-opacity:0.952941" d="M61.25,33.4L61.3 33.3L61.3 33.2L61.35 33.25L61.35 33.15L61.25 33.05L60.6 32.7L61.05 33.05L61.25 33.15L61.25 33.2L61.25 33.25L61.25 33.35L61.25 33.4" />
<path style="fill:#F52F3E;fill-opacity:0.85098" d="M61.15,33.3L61.05 33.2L60.9 33.1L60.9 33.15L61 33.25L61.05 33.35L61.15 33.3" />
<path style="fill:#0D0D0B;fill-opacity:0.8" d="M60.6,32.9L60.55 32.85L60.2 32.6L60.55 32.9L60.6 32.9M61.05,33.15L60.55 32.85L60.7 32.95L61.05 33.15" />
<path style="fill:#C98642;fill-opacity:0.85098" d="M61.4,33.95L61.55 34.1L61.45 33.9L61.3 33.6L61.3 33.55L61.25 33.45L61.15 33.3L61.05 33.35L61.25 33.6L61.35 33.85L61.35 33.9L61.5 34.2L61.5 34.25L61.4 33.95" />
<path style="fill:#F0E9B5;fill-opacity:0.85098" d="M62,34.3L62 34.35L62.15 34.35L62.05 34.3L61.75 34.1L61.7 34.05L61.45 33.55L61.4 33.45L61.35 33.4L61.35 33.55L61.45 33.75L61.5 33.85L61.5 33.9L61.55 33.95L61.6 34.05L61.8 34.2L61.8 34.25L62 34.3M61.65,33.4L61.55 33.25L61.5 33.25L61.5 33.2L61.45 33.15L61.5 33.35L61.6 33.6L61.55 33.45L61.55 33.4L61.65 33.45L61.65 33.4" />
<path style="fill:#EFC99C;fill-opacity:0.85098" d="M61.35,33.25L61.3 33.2L61.3 33.3L61.25 33.4L61.35 33.55L61.35 33.4L61.4 33.45L61.35 33.25" />
<path style="fill:#946014;fill-opacity:0.701961" d="M61.75,34.1L61.75 34L61.7 34L61.65 33.95L61.65 33.85L61.6 33.75L61.45 33.4L61.4 33.2L61.3 33.1L61.35 33.15L61.35 33.25L61.4 33.45L61.45 33.55L61.7 34.05L61.75 34.1" />
<path style="fill:#B78F49;fill-opacity:0.85098" d="M61.25,33.4L61.25 33.35L61.25 33.4" />
<path style="fill:#E4EBC5;fill-opacity:0.701961" d="M61.5,33.35L61.6 33.75L61.65 33.85L61.65 33.95L61.7 34L61.75 34L62.2 34.25L62.4 34.35L62.5 34.35L64.25 34.7L64.6 34.75L66.65 34.7L66.75 34.7L67.85 34.45L64.8 34.65L64.75 34.65L62.2 34.2L61.75 33.9L61.6 33.6L61.5 33.35" />
<path style="fill:#590D09;fill-opacity:0.8" d="M61.05,33.35L61 33.25L60.95 33.25L61.25 33.7L61.3 33.9L61.5 34.2L61.35 33.9L61.35 33.85L61.25 33.6L61.05 33.35" />
<path style="fill:#BDC0A3;fill-opacity:0.85098" d="M67.8,34.25L65.5 34.5L62.65 34.15L62.55 34.15L62.35 34.1L62.1 34L63.25 34.4L65.9 34.55L65.95 34.55L67.4 34.4L67.65 34.35L67.7 34.35L67.8 34.25" />
<path style="fill:#EEEAAA;fill-opacity:0.85098" d="M62.55,34.45L62.5 34.45L62.25 34.35L62.1 34.3L62.05 34.3L62.15 34.35L62 34.35L62.25 34.45L62.85 34.55L62.8 34.55L62.55 34.45" />
<path style="fill:#C8C461;fill-opacity:0.752941" d="M61.8,34.25L62 34.4L62.05 34.4L62.45 34.55L62.6 34.6L63.2 34.7L63.6 34.7L63.35 34.65L62.85 34.55L62.25 34.45L62 34.35L62 34.3L61.8 34.25" />
<path style="fill:#AB8018;fill-opacity:0.752941" d="M63.35,34.65L63.6 34.7L63.4 34.6L63.25 34.6L62.75 34.45L62.8 34.55L62.85 34.55L63.35 34.65" />
<path style="fill:#BDBB68;fill-opacity:0.752941" d="M62.65,34.45L62.55 34.45L62.8 34.55L62.75 34.45L63.25 34.6L63.4 34.6L64.25 34.7L62.5 34.35L62.65 34.45" />
<path style="fill:#7B7610;fill-opacity:0.701961" d="M62.5,34.35L62.4 34.35L62.2 34.25L62 34.25L62.1 34.3L62.25 34.35L62.5 34.45L62.55 34.45L62.65 34.45L62.5 34.35" />
<path style="fill:#F7EFAF;fill-opacity:0.8" d="M64,34.85L64.6 34.9L64.15 34.85L63.2 34.7L62.6 34.6L64 34.85" />
<path style="fill:#AA9A45;fill-opacity:0.752941" d="M62.6,34.6L62.45 34.55L62.05 34.4L62 34.4L61.75 34.3L62.2 34.55L62.55 34.65L62.65 34.65L62.9 34.7L64.25 34.9L64 34.85L62.6 34.6" />
<path style="fill:#C9D283;fill-opacity:0.752941" d="M63.6,34.7L63.35 34.65L63.6 34.7L63.2 34.7L64.15 34.85L66.7 34.8L66.85 34.75L66.15 34.8L65.9 34.8L65.45 34.85L64.6 34.8L64.3 34.8L63.6 34.7" />
<path style="fill:#A8B55D;fill-opacity:0.752941" d="M63.4,34.6L63.6 34.7L64.3 34.8L64.6 34.75L64.25 34.7L63.4 34.6" />
<path style="fill:#F6E387;fill-opacity:0.85098" d="M62.95,34.8L64.25 34.95L64.35 34.95L64.55 34.95L64.4 34.9L64.25 34.9L62.9 34.7L62.65 34.65L62.95 34.8" />
<path style="fill:#E4DF61;fill-opacity:0.85098" d="M61.75,34.4L62.95 34.8L62.65 34.65L62.55 34.65L62.2 34.55L61.75 34.3L61.85 34.4L61.75 34.4" />
<path style="fill:#8F5D12;fill-opacity:0.8" d="M61.6,34.05L61.55 33.95L61.5 33.9L61.5 33.85L61.45 33.75L61.35 33.55L61.25 33.4L61.3 33.55L61.3 33.6L61.45 33.9L61.55 34.1L61.7 34.2L61.6 34.05" />
<path style="fill:#C6A53A;fill-opacity:0.85098" d="M61.55,34.1L61.6 34.15L61.55 34.1" />
<path style="fill:#E5E285;fill-opacity:0.85098" d="M61.55,34.2L61.65 34.2L61.65 34.25L61.7 34.3L61.75 34.3L62 34.4L61.8 34.25L61.8 34.2L61.6 34.05L61.7 34.2L61.55 34.1L61.6 34.15L61.55 34.1L61.4 33.95L61.5 34.25L61.55 34.3L61.6 34.35L61.55 34.2" />
<path style="fill:#FFFFB5;fill-opacity:0.85098" d="M61.85,34.4L61.75 34.3L61.7 34.3L61.65 34.25L61.65 34.2L61.55 34.2L61.6 34.35L61.65 34.35L61.7 34.4L61.75 34.4L61.85 34.4" />
<path style="fill:#C1C87B;fill-opacity:0.701961" d="M62,34.25L62.2 34.25L61.75 34L61.75 34.1L61.7 34.05L61.75 34.1L62.05 34.3L62.1 34.3L62 34.25" />
<path style="fill:#D61024;fill-opacity:1" d="M60.55,32.6L60.6 32.55L60.75 32.3L60.7 32.3L60.5 32.55L60.55 32.6" />
<path style="fill:#AA1727;fill-opacity:0.85098" d="M60.6,32.9L60.9 33.15L60.9 33.1L60.7 32.95L60.55 32.85L60.6 32.9" />
<path style="fill:#E3E9CD;fill-opacity:0.85098" d="M69,31.4L69 31.3L68.95 31.25L68.35 31.05L68.2 31L67 30.85L66.3 30.8L65.85 30.75L65.35 30.75L65.65 30.8L65.85 30.8L66.95 30.9L68.45 31.15L68.85 31.35L68.95 31.4L69 31.4" />
<path style="fill:#9A9D50;fill-opacity:0.85098" d="M64.15,30.65L64.3 30.65L65.75 30.7L65.8 30.7L66.1 30.7L66.15 30.7L66.25 30.7L66.1 30.65L65.95 30.65L65.25 30.6L64.45 30.6L64.35 30.6L64.15 30.65" />
<path style="fill:#CDD29A;fill-opacity:0.85098" d="M67.2,30.75L66.95 30.75L66.1 30.65L66.25 30.7L66.15 30.7L67.8 30.95L67.2 30.75" />
<path style="fill:#F2F6C3;fill-opacity:0.85098" d="M67.3,30.75L67.45 30.8L68.5 30.95L68.6 31L68.7 31L68.9 31.05L68.7 30.9L68.65 30.9L68.55 30.9L68.5 30.9L68 30.75L66.9 30.6L64.65 30.5L64.05 30.5L64.5 30.5L65.25 30.6L65.95 30.65L66.1 30.65L66.95 30.75L67.2 30.75L67.3 30.75" />
<path style="fill:#DDD396;fill-opacity:0.85098" d="M68.3,30.8L69 30.85L68 30.65L67.1 30.55L65.85 30.45L64.8 30.4L64.45 30.4L64.4 30.4L64.35 30.4L63.9 30.45L63.3 30.5L64.05 30.5L64.65 30.5L66.9 30.6L68 30.75L68.5 30.9L68.3 30.8" />
<path style="fill:#F0F7C4;fill-opacity:0.85098" d="M68.95,31.25L68.9 31.25L68.2 30.95L68.1 30.95L67.45 30.8L67.3 30.75L67.2 30.75L67.8 30.95L68.2 31L68.35 31.05L68.95 31.25" />
<path style="fill:#FBF49C;fill-opacity:0.85098" d="M68.5,30.9L68.55 30.9L68.65 30.9L68.7 30.9L69.05 31L68.95 30.9L69.1 30.95L69.15 30.95L69.1 30.9L69.05 30.85L69 30.85L68.3 30.8L68.5 30.9" />
<path style="fill:#D2D38F;fill-opacity:0.85098" d="M68.7,31L68.6 31L68.5 30.95L67.45 30.8L68.1 30.95L68.2 30.95L68.9 31.25L68.95 31.25L69 31.3L68.7 31" />
<path style="fill:#B6A320;fill-opacity:1" d="M69.5,30.9L69.45 30.9L69.4 30.9L69.45 30.9L69.4 30.9L69.3 30.9L69.25 30.9L69.15 30.8L69.1 30.8L69.05 30.8L69 30.8L68.95 30.8L68.85 30.75L69.05 30.85L69.1 30.9L69.15 30.95L69.1 30.95L68.95 30.9L69.05 31L69.05 30.95L69.2 31L69.2 30.95L69.3 30.95L69.4 30.95L69.45 30.95L69.5 30.9" />
<path style="fill:#F8FCC1;fill-opacity:0.85098" d="M69,31.1L69.3 31.15L69.45 31.2L70.25 31.35L70.5 31.4L70.5 31.25L70.15 31.25L70 31.25L69.45 31.15L69.4 31.1L69.3 31.1L69.2 31.05L69.1 31.05L69.05 31L68.7 30.9L68.9 31.05L69 31.1" />
<path style="fill:#F7EFB1;fill-opacity:0.85098" d="M69,31.3L69.15 31.35L69.3 31.4L69.45 31.45L70.5 31.55L70.5 31.4L70.25 31.35L69.45 31.2L69.3 31.15L69 31.1L68.9 31.05L68.7 31L69 31.3" />
<path style="fill:#D6DFB4;fill-opacity:0.85098" d="M69.3,31.6L69.45 31.65L69.65 31.75L69.85 31.8L70.5 31.8L70.5 31.7L69.45 31.55L69.3 31.5L69.15 31.35L69 31.3L69.2 31.5L69.25 31.55L69.25 31.6L69.3 31.6" />
<path style="fill:#C1BF75;fill-opacity:0.701961" d="M69.15,31.55L69.25 31.6L69.25 31.55L69.2 31.5L69 31.3L69 31.4L68.95 31.4L69 31.5L69.1 31.65L69.15 31.55" />
<path style="fill:#898228;fill-opacity:0.701961" d="M69.15,31.85L69.2 31.85L69.25 31.95L69.25 31.9L69.25 31.65L69.25 31.6L69.15 31.55L69.1 31.65L69.15 31.9L69.15 31.85" />
<path style="fill:#E6E676;fill-opacity:0.701961" d="M69.2,31.95L69.25 32.05L69.25 32L69.25 31.95L69.2 31.85L69.15 31.85L69.2 31.95" />
<path style="fill:#C8BB8E;fill-opacity:0.701961" d="M69.25,32.05L69.2 31.95L69.15 31.85L69.15 31.9L69.15 32L69.15 32.05L69.2 32.15L69.25 32.05" />
<path style="fill:#E8E6AD;fill-opacity:0.701961" d="M69.15,32.3L69.15 32.4L69.2 32.25L69.2 32.15L69.15 32.05L69.15 32.1L69.1 32.2L69.15 32.3" />
<path style="fill:#AF7061;fill-opacity:0.701961" d="M68.8,33.25L68.85 33.25L68.85 33.2L68.9 33.15L68.9 33.1L69 32.9L68.95 32.9L69.1 32.2L69.15 32.1L69.1 32.1L69.1 32.2L69.1 32.25L69.1 32.3L68.9 32.9L68.9 32.95L68.8 33.25" />
<path style="fill:#D5B493;fill-opacity:0.85098" d="M69.25,32.2L69.2 32.25L69.15 32.4L69.25 32.3L69.3 32.2L69.25 32.15L69.25 32.2" />
<path style="fill:#8F461B;fill-opacity:0.85098" d="M69.2,32.15L69.2 32.25L69.25 32.2L69.25 32.15L69.3 32.15L69.45 32L69.45 31.95L69.45 32L69.3 32.05L69.4 31.85L69.4 31.8L69.35 31.8L69.25 31.9L69.25 31.95L69.25 32L69.25 32.05L69.2 32.15" />
<path style="fill:#74371B;fill-opacity:0.85098" d="M69.25,32.3L69.15 32.4L69.15 32.45L69.4 32.3L69.4 32.5L69.45 32.45L69.45 32.4Q69.55 32.2 69.6 32.35L69.6 32.2L69.5 32.2L69.5 32L69.3 32.2L69.25 32.3" />
<path style="fill:#B7835B;fill-opacity:0.85098" d="M69.45,32.6L69.5 32.5L69.6 32.35Q69.55 32.2 69.45 32.4L69.45 32.45L69.4 32.5L69.4 32.3L69.15 32.45L69.25 32.45L69.45 32.55L69.45 32.6" />
<path style="fill:#6B1D19;fill-opacity:0.85098" d="M68.9,33.1L68.9 33.15L69.1 32.95L69 33.15L69.05 33.15L69.25 33L69.3 32.95L69.3 32.9L69.3 32.85L69.15 32.9L69.15 32.85L69.2 32.55L69.2 32.5L69.15 32.45L69.1 32.5L69 32.9L68.9 33.1" />
<path style="fill:#D6D2AF;fill-opacity:0.701961" d="M68.95,32.9L69 32.9L69.1 32.5L69.15 32.45L69.15 32.4L69.15 32.3L69.1 32.2L68.95 32.9" />
<path style="fill:#B22633;fill-opacity:0.85098" d="M69.2,32.5L69.2 32.55L69.15 32.85L69.15 32.9L69.3 32.85L69.3 32.9L69.4 32.65L69.45 32.55L69.25 32.45L69.15 32.45L69.2 32.5" />
<path style="fill:#F9E1BD;fill-opacity:0.701961" d="M68.55,33.75L68.55 33.8L68.5 33.95L68.7 33.4L68.9 32.95L68.9 32.9L69.1 32.3L68.9 32.9L68.6 33.55L68.5 33.8L68.55 33.75" />
<path style="fill:#DCB991;fill-opacity:0.701961" d="M68.75,33.5L68.8 33.45L68.8 33.4L68.9 33.15L68.85 33.2L68.85 33.25L68.8 33.25L68.9 32.95L68.7 33.4L68.5 33.95L68.55 33.85L68.65 33.7L68.7 33.6L68.75 33.5" />
<path style="fill:#BD2031;fill-opacity:0.85098" d="M68.8,33.4L69.15 33.2L69.15 33.25L69.2 33.1L69.25 33.05L69.25 33L69.05 33.15L69 33.15L69.1 32.95L68.9 33.15L68.8 33.4" />
<path style="fill:#F91F42;fill-opacity:0.85098" d="M68.8,33.45L68.75 33.5L68.85 33.45L68.9 33.35L68.95 33.4L69.1 33.3L69.1 33.4L69.15 33.3L69.15 33.25L69.15 33.2L68.8 33.4L68.8 33.45" />
<path style="fill:#931926;fill-opacity:0.85098" d="M69.1,33.55L69.15 33.45L69.25 33.2L69.45 32.7L69.5 32.5L69.45 32.6L69.4 32.65L69.3 32.9L69.3 32.95L69.25 33L69.25 33.05L69.2 33.1L69.15 33.25L69.15 33.3L69.1 33.4L69.05 33.45L69.1 33.55" />
<path style="fill:#FFF4D2;fill-opacity:0.752941" d="M68.7,34.2L68.9 33.85L69 33.5L68.95 33.55L68.9 33.7L68.9 33.75L68.75 34.05L68.7 34.2" />
<path style="fill:#FFE0C7;fill-opacity:0.752941" d="M68.95,33.55L69 33.5L68.9 33.85L68.7 34.2L68.65 34.2L68.6 34.3L68.4 34.55L68.5 34.5L68.75 34.2L68.75 34.15L68.9 33.95L68.9 33.9L69.05 33.45L69.05 33.4L68.95 33.45L68.95 33.5L68.95 33.55" />
<path style="fill:#FB838C;fill-opacity:0.85098" d="M68.85,33.5L68.9 33.5L68.95 33.5L68.95 33.45L69.05 33.4L69.05 33.45L69.1 33.4L69.1 33.3L68.95 33.4L68.9 33.35L68.85 33.45L68.85 33.5M68.8,33.55L68.85 33.45L68.8 33.55" />
<path style="fill:#FFE4B2;fill-opacity:0.752941" d="M68.9,33.7L68.95 33.55L68.95 33.5L68.9 33.5L68.85 33.5L68.85 33.45L68.8 33.55L68.75 33.6L68.7 33.7L68.7 33.75L68.8 33.65L68.85 33.6L68.85 33.65L68.9 33.7" />
<path style="fill:#8A6C21;fill-opacity:0.752941" d="M68.75,34L68.75 34.05L68.9 33.75L68.9 33.7L68.85 33.65L68.8 33.8L68.8 33.85L68.75 33.95L68.75 34" />
<path style="fill:#D5B084;fill-opacity:0.752941" d="M68.9,34.05L69.1 33.55L69.05 33.45L68.9 33.9L68.9 33.95L68.9 34.05" />
<path style="fill:#BC955C;fill-opacity:0.85098" d="M68.7,33.6L68.65 33.7L68.55 33.85L68.5 33.95L68.5 34L68.4 34.1L68.6 33.85L68.65 33.75L68.7 33.75L68.7 33.7L68.75 33.6L68.8 33.55L68.85 33.45L68.75 33.5L68.7 33.6" />
<path style="fill:#DBAD6F;fill-opacity:0.752941" d="M68.7,33.8L68.8 33.75L68.7 33.95L68.7 34L68.75 33.95L68.8 33.85L68.8 33.8L68.85 33.65L68.85 33.6L68.8 33.65L68.7 33.75L68.65 33.75L68.7 33.8" />
<path style="fill:#FFD9BE;fill-opacity:0.701961" d="M68.25,34.25L68.3 34.2L68.35 34.15L68.4 34.1L68.5 34L68.5 33.95L68.55 33.8L68.55 33.75L68.5 33.8L68.45 33.8L68.45 33.85L68.25 34.1L68.2 34.15L67.7 34.35L68.25 34.25" />
<path style="fill:#EFCAB0;fill-opacity:0.85098" d="M67.7,34.35L68.2 34.15L68.25 34.1L68.45 33.85L68.35 33.9L68.3 34.05L67.8 34.25L67.7 34.35" />
<path style="fill:#F3F4BB;fill-opacity:0.752941" d="M68.4,34.1L68.35 34.15L68.35 34.2L68.15 34.35L67.95 34.45L67.8 34.55L67.6 34.6L67.65 34.6L68.05 34.5L68.2 34.4L68.25 34.35L68.35 34.25L68.35 34.2L68.4 34.2M68.4,34.2L68.4 34.1" />
<path style="fill:#F3C0AB;fill-opacity:0.752941" d="M68.7,33.9L68.65 33.85L68.6 33.85L68.4 34.1L68.4 34.2L68.55 34L68.45 34.3L68.7 33.9" />
<path style="fill:#DCEBAA;fill-opacity:0.752941" d="M67.35,34.65L67.55 34.65L67.85 34.65L67.9 34.65L67.3 34.75L67.55 34.75L68 34.65L68.2 34.55L68.25 34.5L68.4 34.4L68.45 34.35L68.35 34.4L68.3 34.4L68.3 34.35L68.35 34.3L68.4 34.2L68.35 34.2L68.35 34.25L68.25 34.35L68.2 34.4L68.05 34.5L67.65 34.6L67.6 34.6L67.8 34.55L67.95 34.45L68.15 34.35L68.35 34.2L68.3 34.2L68.25 34.25L68 34.4L67.65 34.55L67.5 34.6L67.45 34.6L67.35 34.65" />
<path style="fill:#E8BD9B;fill-opacity:0.752941" d="M68.5,34.35L68.5 34.3L68.6 34.2L68.7 34L68.7 33.9L68.45 34.3L68.55 34L68.4 34.2L68.35 34.2L68.4 34.2L68.35 34.3L68.3 34.35L68.3 34.4L68.35 34.4L68.45 34.35L68.5 34.35" />
<path style="fill:#FFFDFA;fill-opacity:0.752941" d="M68.4,34.55L68.45 34.45L68.5 34.35L68.45 34.35L68.4 34.4L68.25 34.5L68.2 34.55L68.2 34.6L68.35 34.6L68.4 34.55" />
<path style="fill:#FFEBC2;fill-opacity:0.752941" d="M68.45,34.45L68.7 34.05L68.7 34L68.6 34.2L68.5 34.3L68.5 34.35L68.45 34.45" />
<path style="fill:#F2975E;fill-opacity:0.752941" d="M68.4,34.55L68.6 34.3L68.65 34.2L68.7 34.2L68.75 34.05L68.75 34L68.75 33.95L68.7 34L68.7 34.05L68.45 34.45L68.4 34.55" />
<path style="fill:#D2D9A6;fill-opacity:0.752941" d="M68.5,34.5L68.4 34.55L68.35 34.6L68.05 34.7L67.4 34.9L67.45 34.9L67.55 34.9L68.55 34.5L68.5 34.5" />
<path style="fill:#F3B6A3;fill-opacity:0.752941" d="M68.75,34.2L68.5 34.5L68.55 34.5L68.7 34.35L68.75 34.3L68.75 34.2" />
<path style="fill:#FFFCBE;fill-opacity:0.752941" d="M68.35,34.6L68.2 34.6L68.2 34.55L68 34.65L67.55 34.75L67.65 34.75L68.05 34.7L68.35 34.6" />
<path style="fill:#BABB6B;fill-opacity:0.752941" d="M67.9,34.4L67.85 34.45L66.75 34.7L67.05 34.65L67.45 34.6L67.5 34.6L67.65 34.55L68 34.4L67.9 34.4" />
<path style="fill:#946D26;fill-opacity:0.752941" d="M68.7,34L68.7 33.95L68.8 33.75L68.7 33.8L68.65 33.75L68.6 33.85L68.65 33.85L68.7 33.9L68.7 34" />
<path style="fill:#EBD5BD;fill-opacity:0.752941" d="M68.75,34.3L68.85 34.1L68.9 34.1L68.9 34.05L68.9 33.95L68.75 34.15L68.75 34.2L68.75 34.3" />
<path style="fill:#CFB26E;fill-opacity:0.752941" d="M66.95,34.75L66.85 34.75L66.7 34.8L66.85 34.8L67.05 34.75L67.25 34.75L67.3 34.75L67.9 34.65L67.85 34.65L67.55 34.65L66.95 34.75" />
<path style="fill:#B07E1B;fill-opacity:0.752941" d="M67.55,34.65L67.35 34.65L67.45 34.6L67.05 34.65L66.75 34.7L66.95 34.75L67.55 34.65" />
<path style="fill:#C5AA67;fill-opacity:0.752941" d="M67.4,34.8L67.1 34.85L66.45 34.95L66.75 34.95L67.4 34.9L67.5 34.8L67.45 34.8L67.4 34.8" />
<path style="fill:#A5B68A;fill-opacity:0.752941" d="M64.35,34.95L65.7 35L67.45 34.9L67.4 34.9L66.75 34.95L66.45 34.95L64.75 34.95L64.55 34.95L64.35 34.95" />
<path style="fill:#D1DAA3;fill-opacity:0.752941" d="M68.05,34.7L67.65 34.75L67.45 34.8L67.5 34.8L67.4 34.9L68.05 34.7" />
<path style="fill:#89913E;fill-opacity:0.752941" d="M66.95,34.75L66.75 34.7L66.65 34.7L64.6 34.75L64.3 34.8L64.6 34.8L65.45 34.85L65.9 34.8L66.15 34.8L66.85 34.75L66.95 34.75" />
<path style="fill:#C1C78B;fill-opacity:0.752941" d="M64.6,34.9L64 34.85L64.25 34.9L64.4 34.9L64.55 34.95L64.75 34.95L66.55 34.85L66.6 34.85L67.1 34.85L67.4 34.8L67.45 34.8L67.65 34.75L67.55 34.75L67.3 34.75L67.25 34.75L67.05 34.75L66.85 34.8L66.7 34.8L64.15 34.85L64.6 34.9" />
<path style="fill:#EEF5AF;fill-opacity:0.752941" d="M66.6,34.85L66.55 34.85L64.75 34.95L66.45 34.95L67.1 34.85L66.6 34.85" />
<path style="fill:#A68649;fill-opacity:1" d="M69.75,31.1L69.65 31.15L69.2 31.05L69.3 31.1L69.4 31.1L69.45 31.15L70 31.25L69.75 31.1" />
<path style="fill:#801E03;fill-opacity:1" d="M70.1,31.05L69.45 31L69.4 31L69.3 31L69.4 30.95L69.45 30.95L69.55 30.95L69.5 30.9L69.45 30.95L69.4 30.95L69.3 30.95L69.2 30.95L69.2 31L69.05 30.95L69.05 31L69.1 31.05L69.2 31.05L69.65 31.15L69.75 31.1L70 31.25L70.15 31.25L70.1 31.05" />
<path style="fill:#F2E45F;fill-opacity:1" d="M69.25,30.9L69.3 30.9L69.4 30.9L69.45 30.9L69.4 30.9L69.4 30.85L69.3 30.85L69.25 30.85L69.15 30.8L69.25 30.9" />
<path style="fill:#1E0C02;fill-opacity:1" d="M69.55,30.95L69.45 30.95L69.4 30.95L69.3 31L69.4 31L69.45 31L70.1 31.05L70.15 31.05L69.55 30.95" />
<path style="fill:#6F694F;fill-opacity:1" d="M70.15,31.05L70.1 31.05L69.5 30.9L69.55 30.95L70.15 31.05" />
<path style="fill:#813C00;fill-opacity:1" d="M70.3,31.15L70.5 31.25L70.5 31.15L70.3 31.15" />
<path style="fill:#C4851E;fill-opacity:1" d="M70.5,31.15L70.1 31.05L70.15 31.25L70.5 31.25L70.3 31.15L70.5 31.15M70.1,31.05L70.15 31.05L70.1 31.05" />
<path style="fill:#545121;fill-opacity:0.901961" d="M70.35,31.85L70.3 31.95L70.45 32L70.5 31.85L70.35 31.85" />
<path style="fill:#7F8930;fill-opacity:0.901961" d="M70.5,32.1L70.45 32L70.3 31.95L70.35 31.85L70.3 31.85L70.25 31.9L70.25 31.95L70.15 32.05L70.1 32.1L70.5 32.1" />
<path style="fill:#ADA167;fill-opacity:0.85098" d="M70.3,31.85L70.35 31.85L70.5 31.85L70.5 31.8L69.85 31.8L69.75 31.85L69.8 31.85L69.85 31.85L69.95 31.85L70.1 31.85L70.25 31.85L70.3 31.85" />
<path style="fill:#FFCE7F;fill-opacity:0.901961" d="M70.25,31.85L70.1 31.85L70.25 31.95L70.25 31.9L70.25 31.85" />
<path style="fill:#D8A339;fill-opacity:0.901961" d="M70.1,31.85L69.95 31.85L70 32L69.85 31.85L69.8 31.85L69.85 31.9L69.9 32L70 32.05L70.15 32.05L70.25 31.95L70.1 31.85M70.25,31.85L70.25 31.9L70.3 31.85L70.25 31.85" />
<path style="fill:#986218;fill-opacity:0.85098" d="M69.75,32.1L69.8 32.15L70.1 32.1L70.15 32.05L70 32.05L69.75 32.1" />
<path style="fill:#AD6519;fill-opacity:0.901961" d="M69.95,31.85L69.85 31.85L70 32L69.95 31.85" />
<path style="fill:#E5D7A8;fill-opacity:0.85098" d="M69.45,31.45L69.3 31.4L69.15 31.35L69.3 31.5L69.45 31.55L70.5 31.7L70.5 31.55L69.45 31.45" />
<path style="fill:#8C6522;fill-opacity:0.85098" d="M69.65,31.75L69.45 31.65L69.3 31.6L69.25 31.6L69.25 31.65L69.3 31.65L69.3 31.7L69.35 31.7L69.4 31.7L69.45 31.75L69.55 31.85L69.65 31.75" />
<path style="fill:#EAC787;fill-opacity:0.85098" d="M69.55,31.85L69.6 31.9L69.75 31.85L69.85 31.8L69.65 31.75L69.55 31.85" />
<path style="fill:#DE9B57;fill-opacity:0.85098" d="M69.7,32.1L69.9 32L69.85 31.9L69.8 31.95L69.6 31.9L69.55 31.95L69.7 32.1" />
<path style="fill:#FDE6A0;fill-opacity:0.85098" d="M69.75,32.1L70 32.05L69.9 32L69.7 32.1L69.75 32.1" />
<path style="fill:#A5541D;fill-opacity:0.85098" d="M69.6,31.9L69.8 31.95L69.85 31.9L69.8 31.85L69.75 31.85L69.6 31.9" />
<path style="fill:#D08657;fill-opacity:0.85098" d="M69.45,32L69.3 32.15L69.25 32.15L69.3 32.2L69.5 32L69.55 31.95L69.6 31.9L69.55 31.85L69.45 31.95L69.45 32" />
<path style="fill:#A36220;fill-opacity:0.85098" d="M69.35,31.8L69.4 31.8L69.4 31.85L69.3 32.05L69.45 32L69.45 31.95L69.55 31.85L69.45 31.75L69.4 31.7L69.35 31.7L69.3 31.7L69.3 31.65L69.25 31.65L69.25 31.9L69.35 31.8" />
<path style="fill:#AD6C34;fill-opacity:0.85098" d="M69.55,31.95L69.5 32L69.5 32.2L69.6 32.2L69.7 32.1L69.55 31.95" />
<path style="fill:#A9844F;fill-opacity:0.85098" d="M69.8,32.15L69.75 32.1L69.7 32.1L69.6 32.2L69.6 32.35L69.5 32.5L69.45 32.7L69.65 32.35L69.8 32.15" />
<path style="fill:#FFE1A8;fill-opacity:0.901961" d="M70.1,32.1L69.8 32.15L69.65 32.35L70.5 32.1L70.1 32.1" />
<path style="fill:#B22532;fill-opacity:0.85098" d="M69.45,32.6L69.45 32.55L69.4 32.65L69.45 32.6" />
<path style="fill:none;stroke-width:0.05;stroke-linecap:round;stroke-linejoin:round;stroke-miterlimit:3;stroke:#FFCC00;stroke-opacity:1" d="M60.95,31.1L60.9 30.95" />
<radialGradient
id="RadialGradID_4944" gradientUnits="userSpaceOnUse" gradientTransform="matrix(-0.0119476, 0, 0, 0.0120697, 58.75, 27.4)" spreadMethod ="pad" cx="0" cy="0" r="819.2" fx="0" fy="0" >
<stop  offset="0"  style="stop-color:#FFFFFF;stop-opacity:0.8" />
<stop  offset="1"  style="stop-color:#FFFFFF;stop-opacity:0" />
</radialGradient>
<path style="fill:url(#RadialGradID_4944) " d="M62.3,30.95Q61.5 30.95 61.5 31.75Q61.5 32.5 61.95 33.45L62.7 33.8Q62.9 33.95 62.7 33.3L62.5 32.2Q62.5 31.7 63.05 31.55L64.45 31.3L65.55 31.15L66.15 30.95Q66.45 30.8 65.9 30.8L63.05 30.85L62.3 30.95" />
<radialGradient
id="RadialGradID_4945" gradientUnits="userSpaceOnUse" gradientTransform="matrix(-0.00682068, 0, 0, 0.00689697, 70, 35.6)" spreadMethod ="pad" cx="0" cy="0" r="819.2" fx="0" fy="0" >
<stop  offset="0"  style="stop-color:#FFFFFF;stop-opacity:0.8" />
<stop  offset="1"  style="stop-color:#FFFFFF;stop-opacity:0" />
</radialGradient>
<path style="fill:url(#RadialGradID_4945) " d="M68.55,32.5L68.6 32.35L68.5 31.9L68.4 31.95Q67.95 33.9 65.45 34.2L67.45 34.25Q68.3 34.1 68.45 33.35L68.55 32.5" />
</g>
</svg>
