<?xml version="1.0" encoding="utf-8"?>
<svg version="1.1" id="Layer_1"
xmlns="http://www.w3.org/2000/svg"
xmlns:xlink="http://www.w3.org/1999/xlink"
xmlns:author="http://www.sothink.com"
width="21px" height="5px"
xml:space="preserve">
<g id="647" transform="matrix(1, 0, 0, 1, -59.95, -37.25)">
<path style="fill:#000000;fill-opacity:1" d="M60.15,38.15Q60.25 37.9 60.9 37.65L62.6 37.3L64.3 37.3L65.55 37.35L65.8 37.35L65.85 37.35L66 37.4Q67.7 37.55 68.55 38.3L68.7 38.4L69.1 38.65L70.45 38.7L70.45 39.55L69.6 39.55L69.05 39.55Q68.85 39.6 68.8 39.8L68.5 40.45Q67.85 41.9 66.2 42.05L65.1 42.05L64.35 42.05L63.7 42L63.15 41.95L62.35 41.8L62.25 41.8L62.05 41.75L61.2 41.15L60.65 40.25L60.35 39.65L60.1 39.55L59.95 39.3L59.95 39L60 38.65L60.05 38.5L60.15 38.15M66.3,37.8L65.85 37.75L63.35 37.65L61.5 38Q61.1 38.25 61.05 38.55L61 38.95Q60.95 39.8 61.25 40.4Q61.65 41.25 63.35 41.55L64.05 41.65L64.35 41.7L64.6 41.7L66.15 41.55Q67.15 41.35 67.6 40.95L67.65 40.9L67.9 40.55L68.35 39.15Q68.3 38.3 67 37.95L66.3 37.8" />
<radialGradient
id="RadialGradID_5236" gradientUnits="userSpaceOnUse" gradientTransform="matrix(-0.00283813, 0, 0, 0.00283813, 69.8, 37.5)" spreadMethod ="pad" cx="0" cy="0" r="819.2" fx="0" fy="0" >
<stop  offset="0"  style="stop-color:#FFFFFF;stop-opacity:0.972549" />
<stop  offset="1"  style="stop-color:#FFFFFF;stop-opacity:0" />
</radialGradient>
<path style="fill:url(#RadialGradID_5236) " d="M69.95,38.95L68.95 38.9L68.85 38.8L68.9 38.75L69.95 38.8L69.95 38.95" />
<radialGradient
id="RadialGradID_5237" gradientUnits="userSpaceOnUse" gradientTransform="matrix(0.00332642, 0, 0, 0.00332642, 62, 40.7)" spreadMethod ="pad" cx="0" cy="0" r="819.2" fx="0" fy="0" >
<stop  offset="0"  style="stop-color:#FFFFFF;stop-opacity:0.972549" />
<stop  offset="1"  style="stop-color:#FFFFFF;stop-opacity:0" />
</radialGradient>
<path style="fill:url(#RadialGradID_5237) " d="M60.75,38.7L60.75 39.4L60.85 40.3L61.05 40.8L61.3 41.15Q61.75 41.65 63.2 41.7L63.25 41.7L62.5 41.5L61.4 40.8Q61 40.35 60.8 38.6L60.75 38.7" />
<radialGradient
id="RadialGradID_5238" gradientUnits="userSpaceOnUse" gradientTransform="matrix(0.00610352, 0, 0, 0.00610352, 61.9, 37.15)" spreadMethod ="pad" cx="0" cy="0" r="819.2" fx="0" fy="0" >
<stop  offset="0"  style="stop-color:#FFFFFF;stop-opacity:0.972549" />
<stop  offset="1"  style="stop-color:#FFFFFF;stop-opacity:0" />
</radialGradient>
<path style="fill:url(#RadialGradID_5238) " d="M64.5,37.4L63.65 37.4L62.55 37.45L61.65 37.55L61.2 37.65L60.8 37.85L60.5 38.1L60.45 38.25L61.2 37.9L61.2 37.85L61.4 37.8L61.6 37.75L62.3 37.6L63.05 37.5L64.4 37.5L64.45 37.5L64.5 37.4" />
<radialGradient
id="RadialGradID_5239" gradientUnits="userSpaceOnUse" gradientTransform="matrix(0.00669861, 0, 0, 0.00669861, 67.05, 37.4)" spreadMethod ="pad" cx="0" cy="0" r="819.2" fx="0" fy="0" >
<stop  offset="0"  style="stop-color:#FFFFFF;stop-opacity:0.972549" />
<stop  offset="1"  style="stop-color:#FFFFFF;stop-opacity:0" />
</radialGradient>
<path style="fill:url(#RadialGradID_5239) " d="M64.45,37.5L65.3 37.55L65.4 37.55L67.15 37.85Q68.05 38.05 68.4 38.75L68.45 38.65L68.25 38.25L68.15 38.15L67.8 37.95L67.05 37.7L66.35 37.55L65.9 37.5L65.8 37.5L65.75 37.5L65.55 37.5L65.2 37.45L64.6 37.4L64.5 37.4L64.45 37.5" />
<radialGradient
id="RadialGradID_5240" gradientUnits="userSpaceOnUse" gradientTransform="matrix(0.000732422, 0.00257874, -0.00257874, 0.000732422, 67.2, 41.35)" spreadMethod ="pad" cx="0" cy="0" r="819.2" fx="0" fy="0" >
<stop  offset="0"  style="stop-color:#FFFFFF;stop-opacity:0.972549" />
<stop  offset="1"  style="stop-color:#FFFFFF;stop-opacity:0" />
</radialGradient>
<path style="fill:url(#RadialGradID_5240) " d="M67.55,41.4L67.75 41.2L67.8 41.1L67.8 41.15Q68.35 40.6 68.55 39.65L68.15 40.35L68 40.7L67.8 40.9L67.6 41.1L67.3 41.35L66.8 41.55L66.25 41.7L65.45 41.8L65.6 41.8L65.35 41.8L66.4 41.85L67.3 41.6L67.55 41.4" />
<path style="fill:#000000;fill-opacity:1" d="M79.2,37.7L79.9 38.3L80 38.5L80.05 38.65L80.05 39L80.05 39.3L79.9 39.55L79.65 39.65Q79.55 39.7 79.4 40.25L78.9 41.2L78.2 41.7L77.75 41.8L77.7 41.8L76.9 41.95L76.35 42L75.65 42.05L74.95 42.05L73.85 42.05Q72.15 41.9 71.55 40.45L71.25 39.8L70.95 39.55L70.45 39.55L69.55 39.55L69.55 38.7L70.95 38.65L71.3 38.4L71.45 38.3Q72.35 37.5 74.2 37.35L75.5 37.35L75.65 37.35L76.95 37.35L79.2 37.7M76.65,37.65L74.2 37.75L73.7 37.8L73 37.95Q71.7 38.3 71.7 39.15Q71.65 39.9 72.1 40.55L72.35 40.9L72.45 40.95Q72.85 41.35 73.9 41.55L75.45 41.7L75.7 41.7L75.95 41.65L76.7 41.55Q78.35 41.25 78.8 40.4L79 38.95L79 38.55L78.5 38L76.65 37.65" />
<radialGradient
id="RadialGradID_5241" gradientUnits="userSpaceOnUse" gradientTransform="matrix(-0.00332642, 0, 0, 0.00332642, 78, 40.7)" spreadMethod ="pad" cx="0" cy="0" r="819.2" fx="0" fy="0" >
<stop  offset="0"  style="stop-color:#FFFFFF;stop-opacity:0.972549" />
<stop  offset="1"  style="stop-color:#FFFFFF;stop-opacity:0" />
</radialGradient>
<path style="fill:url(#RadialGradID_5241) " d="M79.25,38.7L79.3 39.4L79.15 40.3L79 40.8L78.7 41.15Q78.25 41.65 76.85 41.7L76.8 41.7L77.5 41.5Q78.25 41.25 78.65 40.8Q79.05 40.35 79.2 38.6L79.25 38.7" />
<radialGradient
id="RadialGradID_5242" gradientUnits="userSpaceOnUse" gradientTransform="matrix(-0.00610352, 0, 0, 0.00610352, 78.1, 37.15)" spreadMethod ="pad" cx="0" cy="0" r="819.2" fx="0" fy="0" >
<stop  offset="0"  style="stop-color:#FFFFFF;stop-opacity:0.972549" />
<stop  offset="1"  style="stop-color:#FFFFFF;stop-opacity:0" />
</radialGradient>
<path style="fill:url(#RadialGradID_5242) " d="M75.55,37.4L76.4 37.4L77.5 37.45L78.35 37.55L78.85 37.65L79.25 37.85L79.55 38.1L79.55 38.25L78.85 37.9L78.8 37.85L78.6 37.8L78.4 37.75L77.7 37.6L76.95 37.5L75.65 37.5L75.6 37.5L75.55 37.4" />
<radialGradient
id="RadialGradID_5243" gradientUnits="userSpaceOnUse" gradientTransform="matrix(-0.00669861, 0, 0, 0.00669861, 72.95, 37.4)" spreadMethod ="pad" cx="0" cy="0" r="819.2" fx="0" fy="0" >
<stop  offset="0"  style="stop-color:#FFFFFF;stop-opacity:0.972549" />
<stop  offset="1"  style="stop-color:#FFFFFF;stop-opacity:0" />
</radialGradient>
<path style="fill:url(#RadialGradID_5243) " d="M75.6,37.5L74.7 37.55L74.6 37.55L72.9 37.85Q72 38.05 71.6 38.75L71.6 38.65L71.75 38.25L71.85 38.15L72.2 37.95L73 37.7L73.7 37.55L74.1 37.5L74.25 37.5L74.3 37.5L74.45 37.5L74.85 37.45L75.45 37.4L75.55 37.4L75.6 37.5" />
<radialGradient
id="RadialGradID_5244" gradientUnits="userSpaceOnUse" gradientTransform="matrix(-0.000732422, 0.00257874, 0.00257874, 0.000732422, 72.85, 41.35)" spreadMethod ="pad" cx="0" cy="0" r="819.2" fx="0" fy="0" >
<stop  offset="0"  style="stop-color:#FFFFFF;stop-opacity:0.972549" />
<stop  offset="1"  style="stop-color:#FFFFFF;stop-opacity:0" />
</radialGradient>
<path style="fill:url(#RadialGradID_5244) " d="M72.45,41.4L72.25 41.2L72.2 41.1L72.25 41.15Q71.7 40.6 71.5 39.65L71.85 40.35L72.05 40.7L72.2 40.9L72.4 41.1L72.75 41.35L73.2 41.55L73.75 41.7L74.55 41.8L74.4 41.8L74.7 41.8L73.65 41.85L72.75 41.6L72.45 41.4" />
<radialGradient
id="RadialGradID_5245" gradientUnits="userSpaceOnUse" gradientTransform="matrix(0.00320435, 0, 0, 0.00283813, 70.1, 37.5)" spreadMethod ="pad" cx="0" cy="0" r="819.2" fx="0" fy="0" >
<stop  offset="0"  style="stop-color:#FFFFFF;stop-opacity:0.972549" />
<stop  offset="1"  style="stop-color:#FFFFFF;stop-opacity:0" />
</radialGradient>
<path style="fill:url(#RadialGradID_5245) " d="M71.2,38.8L71.05 38.9L69.55 38.95L69.55 38.8L71.15 38.75L71.2 38.8" />
<radialGradient
id="RadialGradID_5246" gradientUnits="userSpaceOnUse" gradientTransform="matrix(0.00733948, 0, 0, 0.00733948, 79.15, 35.9)" spreadMethod ="pad" cx="0" cy="0" r="819.2" fx="0" fy="0" >
<stop  offset="0"  style="stop-color:#FFFFFF;stop-opacity:1" />
<stop  offset="1"  style="stop-color:#FFFFFF;stop-opacity:0" />
</radialGradient>
<path style="fill:url(#RadialGradID_5246) " d="M77.15,40.05L74.35 39L74.1 37.9L76.55 37.7L78.25 37.95Q78.85 38.25 78.8 39L78.7 40.25Q78.6 40.8 78.25 40.6L77.15 40.05" />
<radialGradient
id="RadialGradID_5247" gradientUnits="userSpaceOnUse" gradientTransform="matrix(-0.00733948, 0, 0, 0.00733948, 60.75, 35.9)" spreadMethod ="pad" cx="0" cy="0" r="819.2" fx="0" fy="0" >
<stop  offset="0"  style="stop-color:#FFFFFF;stop-opacity:1" />
<stop  offset="1"  style="stop-color:#FFFFFF;stop-opacity:0" />
</radialGradient>
<path style="fill:url(#RadialGradID_5247) " d="M62.75,40.05Q63.5 39.7 65.55 39L65.8 37.9L63.35 37.7L61.65 37.95Q61.05 38.25 61.1 39L61.2 40.25Q61.3 40.8 61.65 40.6L62.75 40.05" />
</g>
</svg>
