<?xml version="1.0" encoding="utf-8"?>
<svg version="1.1" id="Layer_1"
xmlns="http://www.w3.org/2000/svg"
xmlns:xlink="http://www.w3.org/1999/xlink"
xmlns:author="http://www.sothink.com"
width="21px" height="7px"
xml:space="preserve">
<g id="645" transform="matrix(1, 0, 0, 1, -59.9, -36.7)">
<path style="fill:#D5C8D2;fill-opacity:0.901961" d="M77.3,37.35L77.45 37.4L77.65 37.45L78.2 37.65L78.3 37.7L78.55 38.15L78.1 37.7L77.65 37.55L75.7 37.4L75.15 37.4L75.65 37.35L76.1 37.3L76.55 37.3L77.3 37.35" />
<path style="fill:#363438;fill-opacity:0.901961" d="M78.55,37.15L78.65 37.5L78.65 37.55L78.6 37.45L78.55 37.25L78.35 37.25L78 37.2L78.25 37.15L78.55 37.15" />
<path style="fill:#4A3538;fill-opacity:0.901961" d="M78.55,37.55L78.65 37.65L78.65 37.7L78.7 37.8L78.75 38L78.75 38.05L78.7 37.95L78.65 37.85L78.5 37.55L78.55 37.55" />
<path style="fill:#79867F;fill-opacity:0.901961" d="M80.1,37.2L78.75 37L78.3 36.95L77.95 36.9L78.4 36.9L79.45 37L80.05 37.15L80.1 37.2" />
<path style="fill:#6F6F6F;fill-opacity:1" d="M79.05,37.4L79.15 37.3L79.2 37.3L79.2 37.35L79.15 37.4L79.05 37.4M79.15,37.4L79.2 37.35L79.15 37.3L79.1 37.35L79.15 37.4" />
<path style="fill:#3D3938;fill-opacity:1" d="M79.3,37.35L79.35 37.3L79.3 37.3L79.25 37.3L79.35 37.25L79.4 37.3L79.35 37.35L79.3 37.35" />
<path style="fill:#817F80;fill-opacity:1" d="M79.3,37.3L79.35 37.3L79.3 37.35L79.25 37.35L79.25 37.3L79.3 37.3" />
<path style="fill:#A7A5A8;fill-opacity:1" d="M79.1,37.35L79.15 37.3L79.2 37.35L79.15 37.4L79.1 37.35" />
<path style="fill:#303539;fill-opacity:1" d="M79.15,37.4L79.2 37.45L79.25 37.5L79.25 37.45L79.3 37.45L79.35 37.45L79.45 37.5L79.4 37.5L79.3 37.55L79.1 37.55L79 37.5L79.1 37.45L79.15 37.45L79.15 37.4M79.2,37.5L79.2 37.45L79.15 37.45L79.1 37.5L79.05 37.55L79.15 37.55L79.3 37.5L79.3 37.45L79.25 37.5L79.2 37.5M79.4,37.45L79.35 37.45L79.35 37.5L79.4 37.5L79.4 37.45" />
<path style="fill:#4F575A;fill-opacity:1" d="M79.25,37.5L79.3 37.45L79.3 37.5L79.15 37.55L79.05 37.55L79.1 37.5L79.15 37.45L79.2 37.45L79.2 37.5L79.25 37.5" />
<path style="fill:#3B4346;fill-opacity:1" d="M79.4,37.5L79.35 37.5L79.35 37.45L79.4 37.45L79.4 37.5" />
<path style="fill:#595357;fill-opacity:1" d="M79.35,37.6L79.45 37.6L79.45 37.65L79.4 37.65L79.35 37.65L79.3 37.65L79.35 37.6" />
<path style="fill:#E1E9EC;fill-opacity:1" d="M79.2,37.95L79.5 37.9L79.6 37.9L79.75 37.85L79.75 37.7L79.6 37.75L79.55 37.75L79.15 37.9L79.2 37.95M79.15,38L79.1 37.95L79.1 37.9L79.15 37.9L79.6 37.75L79.75 37.7L79.8 37.7L79.85 37.9L79.15 38" />
<path style="fill:#F9FFFF;fill-opacity:1" d="M79.15,37.9L79.55 37.75L79.6 37.75L79.75 37.7L79.75 37.85L79.6 37.9L79.5 37.9L79.2 37.95L79.15 37.9M79.6,37.8L79.5 37.85L79.6 37.8L79.7 37.8L79.7 37.75L79.6 37.8" />
<path style="fill:#BAB7B2;fill-opacity:0.901961" d="M76,36.85L76.35 36.85L76.4 36.85L77.7 36.9L77.85 36.9L77.95 36.9L78.3 36.95L77.5 36.95L76.35 36.9L76.05 36.9L75.8 36.85L75.45 36.8L75.5 36.8L75.6 36.8L75.65 36.8L76 36.85" />
<path style="fill:#9D7F81;fill-opacity:0.901961" d="M75.4,36.8L75 36.85L74.95 36.9L74.4 36.95L75.4 36.8" />
<path style="fill:#B29494;fill-opacity:0.8" d="M78.8,39.4L78.8 39.35L78.75 38.75L78.7 38.5L78.55 38.1L78.55 38.15L78.3 37.7L78.7 38.1L78.9 38.75L78.95 39.1L79 39.35L79 39.5L78.8 39.55L78.75 39.7L78.8 39.4M75.65,37.35L75.15 37.4L73.85 37.55L73.45 37.55L72.5 37.75L73.05 37.55L73.2 37.55L73.35 37.5L73.8 37.45L74.3 37.4L74.6 37.35L75.4 37.3L75.95 37.3L76.1 37.3L75.65 37.35" />
<path style="fill:#7A3142;fill-opacity:0.8" d="M72.05,38L71.85 38.15L71.65 38.4L71.55 38.6L71.5 38.9L71.4 38.85Q71.45 38.6 71.65 38.3L72.05 37.85L73.65 37.4L74.5 37.3L75.5 37.25L75.95 37.3L75.4 37.3L74.6 37.35L74.3 37.4L73.8 37.45L73.35 37.5L73.2 37.55L73.05 37.55L72.5 37.75Q72.25 37.85 72.05 38" />
<path style="fill:#C78469;fill-opacity:1" d="M79.7,38L79.4 38.05L79.85 37.95L79.85 38L79.7 38" />
<path style="fill:#AE5C46;fill-opacity:1" d="M79.6,38.05L79.2 38.1L79.15 38.05L79.6 37.95L79.85 37.95L79.4 38.05L79.7 38L79.85 38L79.85 38.05L79.6 38.05" />
<path style="fill:#311009;fill-opacity:1" d="M79.6,37.95L79.15 38.05L79.15 38L79.85 37.9L79.85 37.95L79.6 37.95" />
<path style="fill:#D6DFDC;fill-opacity:1" d="M79.5,37.85L79.6 37.8L79.5 37.85M79.7,37.75L79.7 37.8L79.6 37.8L79.7 37.75" />
<path style="fill:#91452E;fill-opacity:1" d="M79.85,38.05L79.8 38.15L79.6 38.2L79.55 38.2L79.2 38.1L79.6 38.05L79.85 38.05M79.6,38.1L79.5 38.1L79.75 38.15L79.8 38.15L79.8 38.1L79.6 38.1" />
<path style="fill:#D29173;fill-opacity:1" d="M79.7,38.1L79.8 38.1L79.8 38.15L79.75 38.15L79.7 38.1" />
<path style="fill:#C6805C;fill-opacity:1" d="M79.8,38.1L79.7 38.1L79.75 38.15L79.5 38.1L79.6 38.1L79.8 38.1" />
<path style="fill:#905D66;fill-opacity:0.901961" d="M80.1,38.7L80.2 38.6L80.2 38.65Q79.55 39.5 78.95 41.05L78.85 41.3L78.65 41.65L78.5 41.75L78.75 41.3L78.85 41.15L79.5 39.65L79.55 39.6L79.9 39L79.9 38.95L80.1 38.7" />
<path style="fill:#E3F2ED;fill-opacity:1" d="M79.85,38.95L79.85 39L79.6 39.3L79.6 39.25L79.65 39.1L79.85 38.9L79.85 38.95" />
<path style="fill:#6B2C27;fill-opacity:0.8" d="M78.5,40.05L78.55 39.15L78.5 38.35L78.3 37.9L78.55 38.3L78.6 39L78.6 39.5L78.55 39.8L78.55 39.85L78.5 40.05" />
<path style="fill:#6B3437;fill-opacity:0.8" d="M78.75,39.2L78.7 39.2L78.7 39.5L78.65 39.6L78.65 39.4L78.7 39.2L78.75 38.75L78.8 39.35L78.8 39.4L78.75 39.7L78.7 40L78.7 39.8L78.7 39.7L78.75 39.2" />
<path style="fill:#B1605F;fill-opacity:0.8" d="M78.7,39.7L78.65 40.05L78.55 40.5L78.5 40.5L78.3 41L78.15 41.15L78.45 40.45L78.6 40L78.65 39.75L78.65 39.6L78.7 39.5L78.7 39.2L78.75 39.2L78.7 39.7" />
<path style="fill:#BBA6AF;fill-opacity:0.8" d="M78.2,41.35L78.3 41.2L78.45 40.9L78.6 40.3L78.7 40L78.75 39.7L78.8 39.55L79 39.5L78.7 40.35L78.5 41L78.4 41.15L78.4 41.2L78.1 41.65L78.15 41.5L78.05 41.6L78.2 41.35" />
<path style="fill:#EBEBEB;fill-opacity:0.901961" d="M74.1,42.6L74.2 42.65L74.1 42.6L73.85 42.55L73.6 42.5L73.55 42.5L73.5 42.45L73.45 42.45L72.9 42.15L72.85 42.1L72.35 41.75L72.3 41.75L72.15 41.55L72 41.35L71.95 41.25L72 41.3L72.3 41.6L72.5 41.75L72.8 42L72.85 42.05L72.95 42.1L73 42.1L73.15 42.2L73.55 42.35L74.05 42.45L75.1 42.55L76.6 42.4L76.45 42.45L76.45 42.5L76.6 42.45L76.65 42.4L77.3 42.15L78 41.75L78.1 41.65L78.4 41.2L78.4 41.15L78.5 41L78.7 40.35L79 39.5L79 39.75L78.95 39.9Q78.8 41 78.25 41.6L78.15 41.7Q77.7 42.2 76.65 42.5L76.6 42.5L75.8 42.65L74.85 42.65L74.25 42.65L74.25 42.6L74.15 42.6L74.1 42.6" />
<path style="fill:#883831;fill-opacity:0.8" d="M78.55,39.85L78.55 39.8L78.65 39.4L78.65 39.6L78.65 39.75L78.6 40L78.45 40.45L78.15 41.15L78 41.35L78.05 41.3L78.15 41.15L78.2 40.95L78.35 40.5L78.5 39.95L78.5 40.05L78.55 39.85" />
<path style="fill:#8A3F46;fill-opacity:0.8" d="M78.3,41L78.5 40.5L78.55 40.5L78.65 40.05L78.7 39.7L78.7 39.8L78.7 40L78.6 40.3L78.45 40.75L78.35 41L78.25 41.15L78.2 41.2L78 41.4L77.85 41.55L78 41.35L78.15 41.15L78.3 41" />
<path style="fill:#4F2429;fill-opacity:0.8" d="M72.7,41.65L73.4 42.05L74.75 42.3L76.05 42.25L77 42Q78 41.55 78.35 40.5L78.2 40.95L78.15 41.15L78.05 41.3L78 41.35L77.85 41.55L77.7 41.65L77.45 41.85L77.15 42L76.15 42.3L75.5 42.35L75.45 42.35L75 42.35L73.6 42.15L73.1 41.95L72.8 41.85L72.8 41.8L72.75 41.8L72.6 41.6L72.7 41.65" />
<path style="fill:#9A6A76;fill-opacity:0.8" d="M78.05,41.6L77.7 41.9L77.8 41.7L77.95 41.6L78.25 41.15L78.35 41L78.45 40.75L78.6 40.3L78.45 40.9L78.3 41.2L78.2 41.35L78.05 41.6" />
<path style="fill:#C1C4CD;fill-opacity:0.8" d="M77.85,41.55L77.75 41.65L77.7 41.7L77.7 41.65L77.85 41.55" />
<path style="fill:#E2DCE6;fill-opacity:0.901961" d="M70.45,37.8L70.1 37.75L70.95 37.65L71.05 37.6L71.95 37.4L73.1 37.05L73.5 37L73.15 37.2L72.8 37.3L72.4 37.4L71.45 37.65L70.65 37.8L70.45 37.8" />
<path style="fill:#5E171B;fill-opacity:0.901961" d="M70.5,37.85L70.65 37.8L71.45 37.65L72.4 37.4L72.8 37.3L73.15 37.2L73.5 37.1L74.4 36.95L74.95 36.9L75 36.85L75.5 36.85L75.65 36.85L75.75 36.85L75.85 36.9L75.7 36.9L75.3 36.9L72.6 37.4L71.2 37.75L70.75 37.85L70.5 37.9L70.45 37.9L70.2 37.9L70.5 37.85" />
<path style="fill:#8B6067;fill-opacity:0.901961" d="M73.55,36.95L75.4 36.8L75.45 36.8L75.8 36.85L75.95 36.9L75.9 36.9L75.85 36.9L75.75 36.85L75.65 36.85L75.5 36.85L75 36.85L75.4 36.8L74.4 36.95L73.5 37.1L73.85 36.95L73.7 36.95L73.55 36.95" />
<path style="fill:#9F7581;fill-opacity:0.901961" d="M73.7,36.95L73.85 36.95L73.5 37.1L73.15 37.2L73.5 37L73.1 37.05L73.35 37L73.45 36.95L73.55 36.95L73.7 36.95" />
<path style="fill:#1B151F;fill-opacity:1" d="M70.05,37.75L70.05 37.7L71.3 37.5L73.1 37L73.35 37L73.1 37.05L71.95 37.4L71.05 37.6L70.95 37.65L70.1 37.75L70.05 37.75" />
<path style="fill:#F0FFFF;fill-opacity:1" d="M71.6,38.65L71.65 38.4L71.85 38.15L72.05 38Q72.25 37.85 72.5 37.75L73.45 37.55L73.85 37.55L73.3 37.65L72.5 37.9L72.15 38.05L71.95 38.2L71.65 38.65L71.6 38.65" />
<path style="fill:#A06265;fill-opacity:0.8" d="M71.5,39.05L71.5 38.9L71.55 38.6L71.65 38.4L71.6 38.65L71.65 38.65L71.6 38.7L71.55 39.1L71.55 39.2L71.5 39.2Q71.6 40.2 72 40.9L72.3 41.3L72.5 41.5L72.6 41.6L72.75 41.8L72.55 41.65L72.4 41.5L72.05 41.1L71.6 40.25L71.5 39.45L71.45 39.2L71.45 39.15L71.5 39.05" />
<path style="fill:#7D3737;fill-opacity:0.8" d="M70.05,38.9L70.05 38.8L70.55 38.8L70.85 38.85L70.95 38.95L71 39.1L70.8 38.95L70.6 38.9L70.4 38.9L70.2 38.9L70.05 38.9" />
<path style="fill:#6B3030;fill-opacity:0.0431373" d="M72.6,41.6L72.5 41.5L72.3 41.15L71.95 40.2L71.55 39.2L71.85 39.8L72.15 40.65L72.4 41.3L72.65 41.65L72.7 41.65L72.6 41.6" />
<path style="fill:#4A2125;fill-opacity:0.901961" d="M71.85,40.95L71.7 40.8L71.6 40.65L71.6 40.6L71.5 40.3L71.4 39.95L71.35 40.05L71.35 40.1L71.35 40.5L71.15 40.1L70.95 39.45L70.95 39.55L71.1 40.3L70.8 39.45L70.85 39.35L70.85 39.25L71 39.35L71.3 39.5L71.4 39.3L71.45 39.15L71.45 39.2L71.4 39.45L71.3 39.5L71.05 39.45L70.95 39.35L70.9 39.35L71 39.5L71.1 39.55L71.1 39.7L71.2 40.05L71.25 40.2L71.3 40L71.4 39.8L71.5 40.1L71.6 40.4L71.75 40.8L71.85 40.95" />
<path style="fill:#6C3133;fill-opacity:0.901961" d="M71.65,40.45L71.7 40.55L71.7 40.6L71.75 40.8L71.6 40.4L71.5 40.1L71.4 39.8L71.3 40L71.25 40.2L71.2 40.05L71.1 39.7L71.1 39.55L71 39.5L70.9 39.35L70.95 39.35L71.05 39.45L71.3 39.5L71.4 39.45L71.45 39.2L71.5 39.45L71.6 40.25L71.65 40.45M71.4,39.55L71.15 39.55L71.25 39.85L71.35 39.7L71.4 39.55" />
<path style="fill:#973834;fill-opacity:0.901961" d="M70.1,37.75L70.45 37.8L70.65 37.8L70.5 37.85L70.2 37.9L70.05 37.9L70.05 37.75L70.1 37.75" />
<path style="fill:#727A87;fill-opacity:1" d="M70.45,39.05L70.3 39.05L70.2 39.05L70.1 39.05L70.15 39.1L70.05 39.05L70.1 39.05L70.15 39L70.25 39L70.35 39L70.45 39L70.5 39.05L70.4 39.1L70.45 39.05" />
<path style="fill:#BBCACF;fill-opacity:1" d="M70.4,39.05L70.15 39.05L70.2 39.1L70.15 39.1L70.1 39.05L70.2 39.05L70.3 39.05L70.45 39.05L70.4 39.1L70.4 39.05" />
<path style="fill:#734246;fill-opacity:0.8" d="M71.1,40.55L70.95 40.15L70.75 39.7L70.6 39.35L70.3 39.25L70.05 39.2L70.05 39.15Q70.45 39.15 70.6 39.35L70.65 39.4L70.65 39.45L70.85 39.8L71.05 40.4L71.1 40.55" />
<path style="fill:#F3FEFF;fill-opacity:1" d="M70.4,39.1L70.35 39.15L70.25 39.1L70.2 39.1L70.15 39.05L70.4 39.05L70.4 39.1" />
<path style="fill:#C5C3B6;fill-opacity:1" d="M70.8,39.2L70.8 39.25L70.7 39.35L70.7 39.25L70.75 39.2L70.8 39.2M70.8,39.25L70.75 39.25L70.7 39.3L70.75 39.3L70.8 39.25" />
<path style="fill:#ECEFE6;fill-opacity:1" d="M70.75,39.3L70.7 39.3L70.75 39.25L70.8 39.25L70.75 39.3" />
<path style="fill:#261E29;fill-opacity:0.901961" d="M71.3,40.9L71.2 40.7L71.05 40.4L70.85 39.8L70.65 39.45L70.8 39.45L71.1 40.3L70.95 39.55L70.95 39.45L71.15 40.1L71.35 40.5L71.35 40.1L71.4 40.05L71.4 40.2L71.45 40.5L71.5 40.95L71.5 41L71.25 40.65L71.35 40.9L71.45 41.05L71.55 41.3L71.3 40.9" />
<path style="fill:#BA9994;fill-opacity:0.4" d="M71.5,39.2L71.55 39.2L71.95 40.2L72.3 41.15L72.5 41.5L72.3 41.3L72 40.7L71.7 39.8L71.8 40.35L72 40.9Q71.6 40.2 71.5 39.2" />
<path style="fill:#F0FFFF;fill-opacity:0.4" d="M72,40.9L71.8 40.35L71.7 39.8L72 40.7L72.3 41.3L72 40.9" />
<path style="fill:#723F3C;fill-opacity:0.901961" d="M71.35,39.7L71.25 39.85L71.15 39.55L71.4 39.55L71.35 39.7" />
<path style="fill:#3E2633;fill-opacity:0.901961" d="M71.5,40.5L71.5 40.6L71.55 40.8L71.65 41.05L71.6 41.15L71.6 41.2L71.6 41.3L71.6 41.35L71.55 41.3L71.45 41.05L71.35 40.9L71.25 40.65L71.5 41L71.5 40.95L71.45 40.5L71.4 40.2L71.4 40.05L71.35 40.1L71.35 40.05L71.4 39.95L71.5 40.3L71.6 40.6L71.6 40.65L71.5 40.5" />
<path style="fill:#42404E;fill-opacity:0.901961" d="M71.95,41.25L71.85 41.1L71.75 40.95L71.7 41L71.6 41.15L71.65 41.05L71.55 40.8L71.5 40.6L71.5 40.5L71.6 40.65L71.7 40.8L71.85 40.95L71.85 41L71.95 41.2L71.95 41.25" />
<path style="fill:#796872;fill-opacity:0.8" d="M71.95,42L71.8 41.8L71.25 40.95L71.1 40.55L71.05 40.4L71.2 40.7L71.3 40.9L71.55 41.4L71.8 41.7L71.95 42" />
<path style="fill:#4C647C;fill-opacity:0.901961" d="M71.7,41L71.75 40.95L71.85 41.1L71.95 41.25L72 41.35L71.9 41.25L71.75 41.15L71.65 41.2L71.6 41.35L71.6 41.3L71.6 41.2L71.6 41.15L71.7 41" />
<path style="fill:#D1D6D2;fill-opacity:0.8" d="M72.55,41.7L72.2 41.45L71.9 41.05L71.7 40.6L71.7 40.55L71.65 40.45L71.6 40.25L72.05 41.1L72.4 41.5L72.55 41.65L72.75 41.8L72.55 41.7" />
<path style="fill:#BA9994;fill-opacity:0.8" d="M72.8,41.85L72.9 41.95L72.85 41.95L72.35 41.6L72.3 41.55L72.3 41.6L72 41.3L71.95 41.2L71.85 41L71.85 40.95L71.75 40.8L71.7 40.6L71.9 41.05L72.2 41.45L72.55 41.7L72.75 41.8L72.8 41.8L72.8 41.85L73.1 41.95L72.8 41.85" />
<path style="fill:#CCDEE8;fill-opacity:0.901961" d="M72.15,41.55L72.3 41.8L72.65 42.15L72.7 42.2L72.8 42.3L73.1 42.5L73.15 42.5L73.2 42.5L73.3 42.55L73.25 42.55L72.95 42.45L72.9 42.45L72.8 42.4L72.5 42.2L72.4 42.15L72.05 41.85L71.55 41.4L71.3 40.9L71.55 41.3L71.6 41.35L71.65 41.2L71.75 41.15L71.9 41.25L72 41.35L72.15 41.55M71.7,41.45L71.65 41.45L71.85 41.65L72.05 41.8L72.15 41.9L72.3 42.05L72.2 41.8L72.1 41.6L71.8 41.35L71.85 41.5L71.8 41.5L71.7 41.45" />
<path style="fill:#582A2C;fill-opacity:0.901961" d="M72.5,42.2L72.8 42.4L72.9 42.45L72.95 42.45L73.25 42.55L73.3 42.55L73.2 42.5L73.15 42.5L73.1 42.5L72.8 42.3L72.7 42.2L72.65 42.15L72.95 42.3L73 42.3L73.6 42.6L73.45 42.6L73.2 42.55L72.9 42.45L72.8 42.4L72.65 42.35L72.4 42.2L72.5 42.2M74.15,42.6L74.2 42.65L74.1 42.6L74.15 42.6M72.85,42.3L72.8 42.25L72.8 42.3L72.85 42.3" />
<path style="fill:#CCD4D6;fill-opacity:0.8" d="M76.45,42.45L76.6 42.45L76.45 42.5L76.45 42.45M74.15,42.6L74.25 42.6L74.25 42.65L74.15 42.6" />
<path style="fill:#875558;fill-opacity:0.8" d="M75.1,42.55L74.05 42.45L73.55 42.35L73.15 42.2L73 42.1L72.95 42.1L72.95 42.05L72.95 42.1L72.85 41.95L72.9 41.95L73.4 42.2L73.55 42.25L75.35 42.45L75.65 42.4L76.25 42.35L76.9 42.15L77.15 42.1L77.3 42.05L77.8 41.7L77.7 41.9L77.65 41.95L77.5 42.05L77 42.3L76.65 42.35L76.6 42.4L75.1 42.55" />
<path style="fill:#94575C;fill-opacity:0.901961" d="M72.65,42.15L72.3 41.8L72.15 41.55L72.3 41.75L72.35 41.75L72.85 42.1L72.9 42.15L73.45 42.45L73.5 42.45L73.55 42.5L73.4 42.45L73.25 42.4L73.2 42.35L73.2 42.4L73 42.3L72.95 42.3L72.65 42.15M72.8,42.3L72.8 42.25L72.85 42.3L72.8 42.3" />
<path style="fill:#CCD9E6;fill-opacity:0.8" d="M77.95,41.6L77.8 41.7L77.3 42.05L77.15 42.1L77 42.1L77.45 41.85L77.7 41.65L77.7 41.7L77.75 41.65L77.85 41.55L78 41.4L78.2 41.2L78.25 41.15L77.95 41.6M73.1,41.95L73.6 42.15L75 42.35L75.45 42.35L75.5 42.35L75.75 42.4L75.65 42.4L75.35 42.45L73.55 42.25L73.4 42.2L72.9 41.95L72.8 41.85L73.1 41.95" />
<path style="fill:#95676A;fill-opacity:0.8" d="M72.95,42.1L72.85 42.05L72.8 42L72.5 41.75L72.3 41.6L72.35 41.6L72.85 41.95L72.95 42.1L72.95 42.05L72.95 42.1L73 42.1L72.95 42.1" />
<path style="fill:#7EA09F;fill-opacity:0.901961" d="M72.4,42.2L72 41.85L72 41.95L71.9 41.85L71.8 41.7L71.55 41.4L72.05 41.85L72.4 42.15L72.5 42.2L72.4 42.2" />
<path style="fill:#D2D4E0;fill-opacity:0.901961" d="M73.6,42.85L73.55 42.85L72.75 42.6L71.95 42L71.8 41.7L71.9 41.85L72 41.95L72.8 42.5L72.95 42.55L73.25 42.7L73.6 42.85" />
<path style="fill:#896978;fill-opacity:0.901961" d="M73.25,42.7L73.85 42.85L75.45 42.95L77 42.75L76.8 42.85L75.2 43L73.55 42.85L73.6 42.85L73.25 42.7" />
<path style="fill:#FCFEFD;fill-opacity:1" d="M71.8,41.5L71.85 41.5L71.8 41.35L72.1 41.6L72.2 41.8L72.3 42.05L72.15 41.9L72.05 41.8L71.85 41.65L71.65 41.45L71.7 41.45L71.8 41.5" />
<path style="fill:#E8E2EC;fill-opacity:0.8" d="M76.45,42.45L76.6 42.4L76.65 42.35L77 42.3L77.5 42.05L77.65 41.95L77.7 41.9L78.05 41.6L78.15 41.5L78.1 41.65L78 41.75L77.3 42.15L76.65 42.4L76.6 42.45L76.45 42.45" />
<path style="fill:#733F49;fill-opacity:0.8" d="M73,42.3L73.2 42.4L73.2 42.35L73.25 42.4L73.4 42.45L73.55 42.5L73.5 42.45L73.55 42.5L73.6 42.5L73.85 42.55L74.1 42.6L74.2 42.65L74.15 42.6L74.25 42.65L74.85 42.65L75.8 42.65L76.6 42.5L76.65 42.5Q77.7 42.2 78.15 41.7Q78.35 41.55 78.4 41.55L78.1 41.95L77.7 42.25L77.65 42.25L77.65 42.3L76.8 42.6L76.7 42.65L76.65 42.65L75.35 42.8L73.8 42.65L73.6 42.6L73 42.3" />
<path style="fill:#A7A4AD;fill-opacity:0.8" d="M77.45,41.85L77 42.1L77.15 42.1L76.9 42.15L76.25 42.35L75.65 42.4L75.75 42.4L75.5 42.35L76.15 42.3L77.15 42L77.45 41.85" />
<path style="fill:#F0FFFA;fill-opacity:1" d="M77.85,36.9L77.7 36.9L78.35 36.8L79.5 36.85L80 36.95L80.05 37.15L79.45 37L78.4 36.9L77.95 36.9L77.85 36.9" />
<path style="fill:#EAEBF2;fill-opacity:1" d="M75.65,36.8L75.7 36.8L75.9 36.8L76.1 36.8L76.35 36.8L76.7 36.75L78.1 36.75L78.35 36.8L77.7 36.9L76.4 36.85L76.35 36.85L76 36.85L75.65 36.8" />
<path style="fill:#4A2124;fill-opacity:0.823529" d="M71.15,39.2L71.05 39.05L70.95 38.9Q70.95 38.8 71.1 38.8L71.35 38.85L71.4 38.85L71.5 38.9L71.5 39.05L71.25 38.9L71.15 38.95L71.25 39.15L71.2 39.2L71.15 39.2" />
<linearGradient
id="LinearGradID_5214" gradientUnits="userSpaceOnUse" gradientTransform="matrix(0.00650024, -0.000442505, 0.000106812, 0.0015564, 75.8, 38.05)" spreadMethod ="pad" x1="-819.2" y1="0" x2="819.2" y2="0" >
<stop  offset="0" style="stop-color:#662323;stop-opacity:0.701961" />
<stop  offset="1" style="stop-color:#401D1C;stop-opacity:0.8" />
</linearGradient>
<path style="fill:url(#LinearGradID_5214) " d="M70.2,38.9L70.4 38.9L70.6 38.9L70.8 38.95L71 39.1L70.95 38.95L70.85 38.85L70.55 38.8L70.05 38.8L70.05 37.9L70.2 37.9L70.45 37.9L70.5 37.9L70.75 37.85L71.2 37.75L72.6 37.4L75.3 36.9L75.7 36.9L75.85 36.9L75.9 36.9L75.95 36.9L75.8 36.85L76.05 36.9L76.35 36.9L77.5 36.95L78.3 36.95L78.75 37L80.1 37.2L80.1 37.35L79.55 37.2L78.9 37.1L78.65 37.05L76.25 37L75.85 37L74.75 37.15L75.5 37.1L77.2 37.2L77.8 37.3L78.05 37.4L78.15 37.55L77.65 37.35L77.35 37.35L77.3 37.35L76.55 37.3L76.1 37.3L75.95 37.3L75.5 37.25L74.5 37.3L73.65 37.4L72.05 37.85L71.65 38.3Q71.45 38.6 71.4 38.85L71.35 38.85L71.1 38.8Q70.95 38.8 70.95 38.9L71.05 39.05L71.15 39.2L71.1 39.2L70.85 39.05L70.65 38.95L70.05 39L70.05 38.9L70.2 38.9" />
<linearGradient
id="LinearGradID_5215" gradientUnits="userSpaceOnUse" gradientTransform="matrix(-0.00282288, -0.000289917, 0.000518799, -0.00480652, 78.45, 40.25)" spreadMethod ="pad" x1="-819.2" y1="0" x2="819.2" y2="0" >
<stop  offset="0" style="stop-color:#000000;stop-opacity:0.8" />
<stop  offset="1" style="stop-color:#401D1C;stop-opacity:0.8" />
</linearGradient>
<path style="fill:url(#LinearGradID_5215) " d="M80.15,37.55L80.2 38.3L80.2 38.6L80.1 38.7L79.95 38.6L79.75 38.8L79.65 38.55L79.6 38.4L79.3 38.5L78.95 38.7L78.95 39.1L78.9 38.75L78.7 38.1L78.3 37.7L78.2 37.65L77.65 37.45L77.45 37.4L77.3 37.35L77.35 37.35L77.65 37.35L78.15 37.55L78.05 37.4L77.8 37.3L77.2 37.2L75.5 37.1L74.75 37.15L75.85 37L76.25 37L78.65 37.05L78.9 37.1L79.55 37.2L80.1 37.35L80.15 37.55M78.25,37.15L78 37.2L78.35 37.25L78.55 37.25L78.6 37.45L78.65 37.55L78.65 37.5L78.55 37.15L78.25 37.15M79.35,37.35L79.4 37.3L79.35 37.25L79.25 37.3L79.25 37.35L79.3 37.35L79.35 37.35M79.15,37.45L79.1 37.45L79 37.5L79.1 37.55L79.3 37.55L79.4 37.5L79.45 37.5L79.35 37.45L79.3 37.45L79.25 37.45L79.25 37.5L79.2 37.45L79.15 37.4L79.2 37.35L79.2 37.3L79.15 37.3L79.05 37.4L79.15 37.4L79.15 37.45M79.3,37.65L79.35 37.65L79.4 37.65L79.45 37.65L79.45 37.6L79.35 37.6L79.3 37.65M79.15,38.05L79.2 38.1L79.55 38.2L79.6 38.2L79.8 38.15L79.85 38.05L79.85 38L79.85 37.95L79.85 37.9L79.8 37.7L79.75 37.7L79.6 37.75L79.15 37.9L79.1 37.9L79.1 37.95L79.15 38L79.15 38.05M78.5,37.55L78.65 37.85L78.7 37.95L78.75 38.05L78.75 38L78.7 37.8L78.65 37.7L78.65 37.65L78.55 37.55L78.5 37.55M79.85,38.9L79.65 39.1L79.6 39.25L79.6 39.3L79.85 39L79.85 38.95L79.85 38.9M77.55,42.55L77.5 42.55L77 42.75L75.45 42.95L73.85 42.85L73.25 42.7L72.95 42.55L72.8 42.5L72 41.95L72 41.85L72.4 42.2L72.65 42.35L72.8 42.4L72.9 42.45L73.2 42.55L73.45 42.6L73.6 42.6L73.8 42.65L75.35 42.8L76.65 42.65L76.7 42.65L76.8 42.6L77.65 42.3L77.65 42.25L77.7 42.25L78.1 41.95L78.4 41.55Q78.35 41.55 78.15 41.7L78.25 41.6Q78.8 41 78.95 39.9L78.95 40.05L78.95 40.55L79.3 39.75L79.5 39.25L79.5 39.2L79.2 39.75L79 40.2L79 40.15L79.25 39.5L79.4 39.2L79.65 38.95L79.9 38.8L79.9 38.95L79.9 39L79.55 39.6L79.5 39.65L78.85 41.15L78.75 41.3L78.5 41.75L77.55 42.55" />
<linearGradient
id="LinearGradID_5216" gradientUnits="userSpaceOnUse" gradientTransform="matrix(1.52588e-005, 0.000778198, -0.00132751, 3.05176e-005, 78.45, 38.6)" spreadMethod ="pad" x1="-819.2" y1="0" x2="819.2" y2="0" >
<stop  offset="0" style="stop-color:#2F0D0B;stop-opacity:0.8" />
<stop  offset="1" style="stop-color:#5A1A1A;stop-opacity:0.8" />
</linearGradient>
<path style="fill:url(#LinearGradID_5216) " d="M78.1,37.7L78.55 38.15L78.55 38.1L78.7 38.5L78.75 38.75L78.7 39.2L78.65 39.4L78.55 39.8L78.6 39.5L78.6 39L78.55 38.3L78.3 37.9L78.1 37.7L77.65 37.55L78.1 37.7" />
<linearGradient
id="LinearGradID_5217" gradientUnits="userSpaceOnUse" gradientTransform="matrix(0.000808716, 0.00012207, -0.000167847, 0.00111389, 79.7, 39.3)" spreadMethod ="pad" x1="-819.2" y1="0" x2="819.2" y2="0" >
<stop  offset="0" style="stop-color:#2F0D0B;stop-opacity:0.8" />
<stop  offset="1" style="stop-color:#5A1A1A;stop-opacity:0.8" />
</linearGradient>
<path style="fill:url(#LinearGradID_5217) " d="M79.9,38.95L79.9 38.8L79.65 38.95L79.4 39.2L79.25 39.5L79 40.15L79 40.2L79.2 39.75L79.5 39.2L79.5 39.25L79.3 39.75L78.95 40.55L78.95 40.05L78.95 39.9L79 39.75L79 39.5L79 39.35L78.95 39.1L78.95 38.7L79.3 38.5L79.6 38.4L79.65 38.55L79.75 38.8L79.95 38.6L80.1 38.7L79.9 38.95" />
<linearGradient
id="LinearGradID_5218" gradientUnits="userSpaceOnUse" gradientTransform="matrix(0.00112915, 0, 0, 0.000732422, 77.75, 42.25)" spreadMethod ="pad" x1="-819.2" y1="0" x2="819.2" y2="0" >
<stop  offset="0" style="stop-color:#000000;stop-opacity:0.8" />
<stop  offset="1" style="stop-color:#401D1C;stop-opacity:0.8" />
</linearGradient>
<path style="fill:url(#LinearGradID_5218) " d="M77,42.75L77.5 42.55L77.55 42.55L78.5 41.75L78.65 41.65Q78.1 42.5 76.8 42.85L77 42.75" />
<linearGradient
id="LinearGradID_5219" gradientUnits="userSpaceOnUse" gradientTransform="matrix(-0.00088501, 9.15527e-005, -4.57764e-005, -0.000427246, 70.85, 39.3)" spreadMethod ="pad" x1="-819.2" y1="0" x2="819.2" y2="0" >
<stop  offset="0" style="stop-color:#000000;stop-opacity:0.8" />
<stop  offset="1" style="stop-color:#401D1C;stop-opacity:0.8" />
</linearGradient>
<path style="fill:url(#LinearGradID_5219) " d="M70.65,39.45L70.65 39.4L70.6 39.35Q70.45 39.15 70.05 39.15L70.05 39.05L70.05 39L70.65 38.95L70.85 39.05L71.1 39.2L71.15 39.2L71.2 39.2L71.25 39.15L71.15 38.95L71.25 38.9L71.5 39.05L71.45 39.15L71.4 39.3L71.3 39.5L71 39.35L70.85 39.25L70.85 39.35L70.8 39.45L70.65 39.45M70.75,39.2L70.7 39.25L70.7 39.35L70.8 39.25L70.8 39.2L70.75 39.2M70.2,39.1L70.25 39.1L70.35 39.15L70.4 39.1L70.5 39.05L70.45 39L70.35 39L70.25 39L70.15 39L70.1 39.05L70.05 39.05L70.15 39.1L70.2 39.1" />
<path style="fill:#D5C8D2;fill-opacity:0.901961" d="M64,37.3L63.55 37.3L62.8 37.35L62.65 37.4L62.45 37.45L61.9 37.65L61.8 37.7L61.55 38.15L62 37.7L62.45 37.55L64.4 37.4L64.95 37.4L64.45 37.35L64 37.3" />
<path style="fill:#363438;fill-opacity:0.901961" d="M61.55,37.15L61.45 37.5L61.45 37.55L61.5 37.45L61.55 37.25L61.75 37.25L62.1 37.2L61.85 37.15L61.55 37.15" />
<path style="fill:#4A3538;fill-opacity:0.901961" d="M61.55,37.55L61.45 37.65L61.45 37.7L61.4 37.8L61.35 38L61.35 38.05L61.4 37.95L61.45 37.85L61.6 37.55L61.55 37.55" />
<path style="fill:#79867F;fill-opacity:0.901961" d="M62.15,36.9L61.7 36.9L60.65 37L60.05 37.15L60 37.2L61.35 37L61.8 36.95L62.15 36.9" />
<path style="fill:#6F6F6F;fill-opacity:1" d="M60.9,37.35L60.95 37.4L60.9 37.35L60.95 37.3L61 37.35L60.95 37.4L61.05 37.4M61.05,37.4L60.95 37.3L60.9 37.3L60.9 37.35" />
<path style="fill:#3D3938;fill-opacity:1" d="M60.75,37.3L60.8 37.3L60.85 37.3L60.75 37.25L60.7 37.3L60.75 37.35L60.8 37.35L60.75 37.3" />
<path style="fill:#817F80;fill-opacity:1" d="M60.85,37.3L60.8 37.3L60.75 37.3L60.8 37.35L60.85 37.35L60.85 37.3" />
<path style="fill:#A7A5A8;fill-opacity:1" d="M61,37.35L60.95 37.3L60.9 37.35L60.95 37.4L61 37.35" />
<path style="fill:#303539;fill-opacity:1" d="M60.9,37.5L60.9 37.45L60.95 37.45L61 37.5L61.05 37.55L60.95 37.55L60.8 37.5L60.8 37.45L60.85 37.5L60.9 37.5M60.85,37.45L60.8 37.45L60.75 37.45L60.65 37.5L60.7 37.5L60.7 37.45L60.75 37.45L60.75 37.5L60.7 37.5L60.8 37.55L61 37.55L61.1 37.5L61 37.45L60.95 37.45L60.95 37.4L60.9 37.45L60.85 37.5L60.85 37.45" />
<path style="fill:#4F575A;fill-opacity:1" d="M60.85,37.5L60.8 37.45L60.8 37.5L60.95 37.55L61.05 37.55L61 37.5L60.95 37.45L60.9 37.45L60.9 37.5L60.85 37.5" />
<path style="fill:#3B4346;fill-opacity:1" d="M60.7,37.5L60.75 37.5L60.75 37.45L60.7 37.45L60.7 37.5" />
<path style="fill:#595357;fill-opacity:1" d="M60.75,37.6L60.65 37.6L60.65 37.65L60.7 37.65L60.75 37.65L60.8 37.65L60.75 37.6" />
<path style="fill:#E1E9EC;fill-opacity:1" d="M60.95,38L61 37.95L61 37.9L60.95 37.9L60.5 37.75L60.35 37.7L60.3 37.7L60.25 37.9L60.95 38M60.9,37.95L60.6 37.9L60.5 37.9L60.35 37.85L60.35 37.7L60.5 37.75L60.55 37.75L60.95 37.9L60.9 37.95" />
<path style="fill:#F9FFFF;fill-opacity:1" d="M60.95,37.9L60.55 37.75L60.5 37.75L60.35 37.7L60.35 37.85L60.5 37.9L60.6 37.9L60.9 37.95L60.95 37.9M60.5,37.8L60.6 37.85L60.5 37.8L60.4 37.8L60.4 37.75L60.5 37.8" />
<path style="fill:#BAB7B2;fill-opacity:0.901961" d="M64.1,36.85L63.75 36.85L63.7 36.85L62.4 36.9L62.25 36.9L62.15 36.9L61.8 36.95L62.6 36.95L63.75 36.9L64.05 36.9L64.3 36.85L64.65 36.8L64.6 36.8L64.5 36.8L64.45 36.8L64.1 36.85" />
<path style="fill:#9D7F81;fill-opacity:0.901961" d="M64.7,36.8L65.1 36.85L65.15 36.9L65.7 36.95L64.7 36.8" />
<path style="fill:#B29494;fill-opacity:0.8" d="M61.3,39.4L61.3 39.35L61.35 38.75L61.4 38.5L61.55 38.1L61.55 38.15L61.8 37.7L61.4 38.1L61.2 38.75L61.15 39.1L61.1 39.35L61.1 39.5L61.3 39.55L61.35 39.7L61.3 39.4M66.65,37.55L67.6 37.75L67.05 37.55L66.9 37.55L66.75 37.5L66.3 37.45L65.8 37.4L65.5 37.35L64.7 37.3L64.15 37.3L64 37.3L64.45 37.35L64.95 37.4L66.25 37.55L66.65 37.55" />
<path style="fill:#7A3142;fill-opacity:0.8" d="M64.7,37.3L65.5 37.35L65.8 37.4L66.3 37.45L66.75 37.5L66.9 37.55L67.05 37.55L67.6 37.75L68.05 38L68.25 38.15L68.45 38.4L68.55 38.6L68.6 38.9L68.7 38.85L68.45 38.3L68.05 37.85Q67.45 37.55 66.45 37.4L65.6 37.3L64.6 37.25L64.15 37.3L64.7 37.3" />
<path style="fill:#C78469;fill-opacity:1" d="M60.4,38L60.7 38.05L60.25 37.95L60.25 38L60.4 38" />
<path style="fill:#AE5C46;fill-opacity:1" d="M60.5,38.05L60.9 38.1L60.95 38.05L60.5 37.95L60.25 37.95L60.7 38.05L60.4 38L60.25 38L60.25 38.05L60.5 38.05" />
<path style="fill:#311009;fill-opacity:1" d="M60.5,37.95L60.95 38.05L60.95 38L60.25 37.9L60.25 37.95L60.5 37.95" />
<path style="fill:#D6DFDC;fill-opacity:1" d="M60.6,37.85L60.5 37.8L60.6 37.85M60.4,37.75L60.4 37.8L60.5 37.8L60.4 37.75" />
<path style="fill:#91452E;fill-opacity:1" d="M60.25,38.05L60.3 38.15L60.5 38.2L60.55 38.2L60.9 38.1L60.5 38.05L60.25 38.05M60.5,38.1L60.6 38.1L60.35 38.15L60.3 38.15L60.3 38.1L60.5 38.1" />
<path style="fill:#D29173;fill-opacity:1" d="M60.4,38.1L60.3 38.1L60.3 38.15L60.35 38.15L60.4 38.1" />
<path style="fill:#C6805C;fill-opacity:1" d="M60.3,38.1L60.4 38.1L60.35 38.15L60.6 38.1L60.5 38.1L60.3 38.1" />
<path style="fill:#905D66;fill-opacity:0.901961" d="M60,38.7L59.9 38.6L59.9 38.65L61.15 41.05L61.25 41.3L61.45 41.65L61.6 41.75L61.35 41.3L61.25 41.15L60.6 39.65L60.55 39.6L60.2 39L60.2 38.95L60 38.7" />
<path style="fill:#E3F2ED;fill-opacity:1" d="M60.25,38.95L60.25 39L60.5 39.3L60.5 39.25L60.45 39.1L60.25 38.9L60.25 38.95" />
<path style="fill:#6B2C27;fill-opacity:0.8" d="M61.6,40.05L61.55 39.15L61.6 38.35L61.8 37.9L61.55 38.3Q61.45 38.6 61.5 39L61.5 39.5L61.55 39.8L61.55 39.85L61.6 40.05" />
<path style="fill:#6B3437;fill-opacity:0.8" d="M61.35,39.2L61.4 39.2L61.4 39.5L61.45 39.6L61.45 39.4L61.4 39.2L61.35 38.75L61.3 39.35L61.3 39.4L61.35 39.7L61.4 40L61.4 39.8L61.4 39.7L61.35 39.2" />
<path style="fill:#B1605F;fill-opacity:0.8" d="M61.4,39.7L61.45 40.05L61.55 40.5L61.6 40.5L61.8 41L61.95 41.15L61.65 40.45L61.5 40L61.45 39.75L61.45 39.6L61.4 39.5L61.4 39.2L61.35 39.2L61.4 39.7" />
<path style="fill:#BBA6AF;fill-opacity:0.8" d="M61.9,41.35L61.8 41.2L61.65 40.9L61.5 40.3L61.4 40L61.35 39.7L61.3 39.55L61.1 39.5L61.4 40.35L61.6 41L61.7 41.15L61.7 41.2L62 41.65L61.95 41.5L62.05 41.6L61.9 41.35" />
<path style="fill:#EBEBEB;fill-opacity:0.901961" d="M66,42.6L65.9 42.65L66 42.6L66.25 42.55L66.5 42.5L66.55 42.5L66.6 42.45L66.65 42.45L67.2 42.15L67.25 42.1L67.75 41.75L67.8 41.75L67.95 41.55L68.1 41.35L68.15 41.25L68.1 41.3L67.8 41.6Q67.75 41.6 67.6 41.75L67.3 42L67.25 42.05L67.15 42.1L67.1 42.1L66.95 42.2L66.55 42.35L66.05 42.45L65 42.55L63.5 42.4L63.65 42.45L63.65 42.5L63.5 42.45L63.45 42.4L62.8 42.15L62.1 41.75L62 41.65L61.7 41.2L61.7 41.15L61.6 41L61.4 40.35L61.1 39.5L61.1 39.75L61.15 39.9Q61.3 41 61.85 41.6L61.95 41.7L63.45 42.5L63.5 42.5L64.3 42.65L65.25 42.65L65.85 42.65L65.85 42.6L65.95 42.6L66 42.6" />
<path style="fill:#883831;fill-opacity:0.8" d="M61.55,39.85L61.55 39.8L61.45 39.4L61.45 39.6L61.45 39.75L61.5 40L61.65 40.45L61.95 41.15L62.1 41.35L62.05 41.3L61.95 41.15L61.9 40.95L61.75 40.5L61.6 39.95L61.6 40.05L61.55 39.85" />
<path style="fill:#8A3F46;fill-opacity:0.8" d="M61.8,41L61.6 40.5L61.55 40.5L61.45 40.05L61.4 39.7L61.4 39.8L61.4 40L61.5 40.3L61.65 40.75L61.75 41L61.85 41.15L61.9 41.2L62.1 41.4L62.25 41.55L62.1 41.35L61.95 41.15L61.8 41" />
<path style="fill:#4F2429;fill-opacity:0.8" d="M67.4,41.65L66.7 42.05L65.35 42.3L64.05 42.25L63.1 42Q62.1 41.55 61.75 40.5L61.9 40.95L61.95 41.15L62.05 41.3L62.1 41.35L62.25 41.55L62.4 41.65L62.65 41.85L62.95 42L63.95 42.3L64.6 42.35L64.65 42.35L65.1 42.35L66.5 42.15L67 41.95L67.3 41.85L67.3 41.8L67.35 41.8L67.5 41.6L67.4 41.65" />
<path style="fill:#9A6A76;fill-opacity:0.8" d="M62.05,41.6L62.4 41.9L62.3 41.7L62.15 41.6L61.85 41.15L61.75 41L61.65 40.75L61.5 40.3L61.65 40.9L61.8 41.2L61.9 41.35L62.05 41.6" />
<path style="fill:#C1C4CD;fill-opacity:0.8" d="M62.25,41.55L62.35 41.65L62.4 41.7L62.4 41.65L62.25 41.55" />
<path style="fill:#E2DCE6;fill-opacity:0.901961" d="M69.65,37.8L70 37.75L69.15 37.65L69.05 37.6L68.15 37.4L67 37.05L66.6 37L66.95 37.2L67.3 37.3L67.7 37.4L68.65 37.65L69.45 37.8L69.65 37.8" />
<path style="fill:#5E171B;fill-opacity:0.901961" d="M64.4,36.9L64.8 36.9L67.5 37.4L68.9 37.75L69.35 37.85L69.6 37.9L69.65 37.9L69.9 37.9L69.6 37.85L69.45 37.8L68.65 37.65L67.7 37.4L67.3 37.3L66.95 37.2L66.6 37.1L65.7 36.95L65.15 36.9L65.1 36.85L64.6 36.85L64.45 36.85L64.35 36.85L64.25 36.9L64.4 36.9" />
<path style="fill:#8B6067;fill-opacity:0.901961" d="M66.55,36.95L64.7 36.8L64.65 36.8L64.3 36.85L64.15 36.9L64.2 36.9L64.25 36.9L64.35 36.85L64.45 36.85L64.6 36.85L65.1 36.85L64.7 36.8L65.7 36.95L66.6 37.1L66.25 36.95L66.4 36.95L66.55 36.95" />
<path style="fill:#9F7581;fill-opacity:0.901961" d="M66.4,36.95L66.25 36.95L66.6 37.1L66.95 37.2L66.6 37L67 37.05L66.75 37L66.65 36.95L66.55 36.95L66.4 36.95" />
<path style="fill:#1B151F;fill-opacity:1" d="M70.05,37.75L70.05 37.7L68.8 37.5L67 37L66.75 37L67 37.05L68.15 37.4L69.05 37.6L69.15 37.65L70 37.75L70.05 37.75" />
<path style="fill:#F0FFFF;fill-opacity:1" d="M68.5,38.65L68.45 38.4L68.25 38.15L68.05 38L67.6 37.75L66.65 37.55L66.25 37.55L66.8 37.65L67.6 37.9L67.95 38.05L68.15 38.2L68.45 38.65L68.5 38.65" />
<path style="fill:#A06265;fill-opacity:0.8" d="M68.6,39.05L68.6 38.9L68.55 38.6L68.45 38.4L68.5 38.65L68.45 38.65L68.5 38.7L68.55 39.1L68.55 39.2L68.6 39.2L68.1 40.9L67.8 41.3L67.6 41.5L67.5 41.6L67.35 41.8L67.55 41.65L67.7 41.5L68.05 41.1L68.5 40.25L68.6 39.45L68.65 39.2L68.65 39.15L68.6 39.05" />
<path style="fill:#7D3737;fill-opacity:0.8" d="M70.05,38.9L70.05 38.8L69.55 38.8L69.25 38.85L69.15 38.95L69.1 39.1L69.3 38.95L69.5 38.9L69.7 38.9L69.9 38.9L70.05 38.9" />
<path style="fill:#6B3030;fill-opacity:0.0431373" d="M67.5,41.6L67.6 41.5L67.8 41.15L68.15 40.2L68.55 39.2L68.25 39.8L67.95 40.65L67.7 41.3L67.45 41.65L67.4 41.65L67.5 41.6" />
<path style="fill:#4A2125;fill-opacity:0.901961" d="M68.25,40.95L68.4 40.8L68.5 40.65L68.5 40.6L68.6 40.3L68.7 39.95L68.75 40.05L68.75 40.1L68.75 40.5L68.95 40.1L69.15 39.45L69.15 39.55L69 40.3L69.3 39.45L69.25 39.35L69.25 39.25L69.1 39.35L68.8 39.5L68.7 39.3L68.65 39.15L68.65 39.2L68.7 39.45L68.8 39.5L69.05 39.45L69.15 39.35L69.2 39.35L69.1 39.5L69 39.55L69 39.7L68.9 40.05L68.85 40.2L68.8 40L68.7 39.8L68.6 40.1L68.5 40.4L68.35 40.8L68.25 40.95" />
<path style="fill:#6C3133;fill-opacity:0.901961" d="M68.45,40.45L68.4 40.55L68.4 40.6L68.35 40.8L68.5 40.4L68.6 40.1L68.7 39.8L68.8 40L68.85 40.2L68.9 40.05L69 39.7L69 39.55L69.1 39.5L69.2 39.35L69.15 39.35L69.05 39.45L68.8 39.5L68.7 39.45L68.65 39.2L68.6 39.45L68.5 40.25L68.45 40.45M68.7,39.55L68.95 39.55L68.85 39.85L68.75 39.7L68.7 39.55" />
<path style="fill:#973834;fill-opacity:0.901961" d="M70.05,37.9L70.05 37.75L70 37.75L69.65 37.8L69.45 37.8L69.6 37.85L69.9 37.9L70.05 37.9" />
<path style="fill:#727A87;fill-opacity:1" d="M70.05,39.05L70 39.05L69.95 39L69.85 39L69.75 39L69.65 39L69.6 39.05L69.7 39.1L69.65 39.05L69.8 39.05L69.9 39.05L70 39.05L69.95 39.1L70.05 39.05" />
<path style="fill:#BBCACF;fill-opacity:1" d="M69.7,39.05L69.95 39.05L69.9 39.1L69.95 39.1L70 39.05L69.9 39.05L69.8 39.05L69.65 39.05L69.7 39.1L69.7 39.05" />
<path style="fill:#734246;fill-opacity:0.8" d="M69,40.55L69.15 40.15L69.35 39.7L69.5 39.35L69.8 39.25L70.05 39.2L70.05 39.15L69.5 39.35L69.45 39.4L69.45 39.45L69.25 39.8L69.05 40.4L69 40.55" />
<path style="fill:#F3FEFF;fill-opacity:1" d="M69.9,39.1L69.95 39.05L69.7 39.05L69.7 39.1L69.75 39.15L69.85 39.1L69.9 39.1" />
<path style="fill:#C5C3B6;fill-opacity:1" d="M69.3,39.2L69.3 39.25L69.4 39.35L69.4 39.25L69.35 39.2L69.3 39.2M69.3,39.25L69.35 39.25L69.4 39.3L69.35 39.3L69.3 39.25" />
<path style="fill:#ECEFE6;fill-opacity:1" d="M69.35,39.3L69.4 39.3L69.35 39.25L69.3 39.25L69.35 39.3" />
<path style="fill:#261E29;fill-opacity:0.901961" d="M68.8,40.9L68.9 40.7L69.05 40.4L69.25 39.8L69.45 39.45L69.3 39.45L69 40.3L69.15 39.55L69.15 39.45L68.95 40.1L68.75 40.5L68.75 40.1L68.7 40.05L68.7 40.2L68.65 40.5L68.6 40.95L68.6 41L68.85 40.65L68.75 40.9L68.65 41.05L68.55 41.3L68.8 40.9" />
<path style="fill:#BA9994;fill-opacity:0.4" d="M68.6,39.2L68.55 39.2L68.15 40.2L67.8 41.15L67.6 41.5L67.8 41.3L68.1 40.7L68.4 39.8L68.3 40.35L68.1 40.9L68.6 39.2" />
<path style="fill:#F0FFFF;fill-opacity:0.4" d="M68.1,40.9L68.3 40.35L68.4 39.8L68.1 40.7L67.8 41.3L68.1 40.9" />
<path style="fill:#723F3C;fill-opacity:0.901961" d="M68.75,39.7L68.85 39.85L68.95 39.55L68.7 39.55L68.75 39.7" />
<path style="fill:#3E2633;fill-opacity:0.901961" d="M68.6,40.5L68.6 40.6L68.55 40.8L68.45 41.05L68.5 41.15L68.5 41.2L68.5 41.3L68.5 41.35L68.55 41.3L68.65 41.05L68.75 40.9L68.85 40.65L68.6 41L68.6 40.95L68.65 40.5L68.7 40.2L68.7 40.05L68.75 40.1L68.75 40.05L68.7 39.95L68.6 40.3L68.5 40.6L68.5 40.65L68.6 40.5" />
<path style="fill:#42404E;fill-opacity:0.901961" d="M68.15,41.25L68.25 41.1L68.35 40.95L68.4 41L68.5 41.15L68.45 41.05L68.55 40.8L68.6 40.6L68.6 40.5L68.5 40.65L68.4 40.8L68.25 40.95L68.25 41L68.15 41.2L68.15 41.25" />
<path style="fill:#796872;fill-opacity:0.8" d="M68.15,42L68.3 41.8L68.85 40.95L69 40.55L69.05 40.4L68.9 40.7L68.8 40.9L68.55 41.4L68.3 41.7L68.15 42" />
<path style="fill:#4C647C;fill-opacity:0.901961" d="M68.4,41L68.35 40.95L68.25 41.1L68.15 41.25L68.1 41.35L68.2 41.25L68.35 41.15L68.45 41.2L68.5 41.35L68.5 41.3L68.5 41.2L68.5 41.15L68.4 41" />
<path style="fill:#D1D6D2;fill-opacity:0.8" d="M67.55,41.7L67.9 41.45L68.2 41.05L68.4 40.6L68.4 40.55L68.45 40.45L68.5 40.25L68.05 41.1L67.7 41.5L67.55 41.65L67.35 41.8L67.55 41.7" />
<path style="fill:#BA9994;fill-opacity:0.8" d="M67.3,41.85L67.2 41.95L67.25 41.95L67.75 41.6L67.8 41.55L67.8 41.6L68.1 41.3L68.15 41.2L68.25 41L68.25 40.95L68.35 40.8L68.4 40.6L68.2 41.05L67.9 41.45L67.55 41.7L67.35 41.8L67.3 41.8L67.3 41.85L67 41.95L67.3 41.85" />
<path style="fill:#CCDEE8;fill-opacity:0.901961" d="M67.95,41.55L67.8 41.8L67.45 42.15L67.4 42.2L67.3 42.3L67 42.5L66.95 42.5L66.9 42.5L66.8 42.55L66.85 42.55L67.15 42.45L67.2 42.45L67.3 42.4L67.6 42.2L67.7 42.15L68.05 41.85L68.55 41.4L68.8 40.9L68.55 41.3L68.5 41.35L68.45 41.2L68.35 41.15L68.2 41.25L68.1 41.35L67.95 41.55M68.4,41.45L68.45 41.45L68.25 41.65L68.05 41.8L67.95 41.9L67.8 42.05L67.9 41.8L68 41.6Q68.1 41.35 68.3 41.35L68.25 41.5L68.3 41.5L68.4 41.45" />
<path style="fill:#582A2C;fill-opacity:0.901961" d="M67.6,42.2L67.3 42.4L67.2 42.45L67.15 42.45L66.85 42.55L66.8 42.55L66.9 42.5L66.95 42.5L67 42.5L67.3 42.3L67.4 42.2L67.45 42.15L67.15 42.3L67.1 42.3L66.5 42.6L66.65 42.6L66.9 42.55L67.2 42.45L67.3 42.4L67.45 42.35L67.7 42.2L67.6 42.2M65.95,42.6L65.9 42.65L66 42.6L65.95 42.6M67.25,42.3L67.3 42.25L67.3 42.3L67.25 42.3" />
<path style="fill:#CCD4D6;fill-opacity:0.8" d="M63.65,42.45L63.5 42.45L63.65 42.5L63.65 42.45M65.95,42.6L65.85 42.6L65.85 42.65L65.95 42.6" />
<path style="fill:#875558;fill-opacity:0.8" d="M65,42.55L66.05 42.45L66.55 42.35L66.95 42.2L67.1 42.1L67.15 42.1L67.15 42.05L67.15 42.1L67.25 41.95L67.2 41.95L66.7 42.2L66.55 42.25L64.75 42.45L64.45 42.4L63.85 42.35L63.2 42.15L62.95 42.1L62.8 42.05L62.3 41.7L62.4 41.9L62.45 41.95L62.6 42.05L63.1 42.3L63.45 42.35L63.5 42.4L65 42.55" />
<path style="fill:#94575C;fill-opacity:0.901961" d="M67.45,42.15L67.8 41.8L67.95 41.55L67.8 41.75L67.75 41.75L67.25 42.1L67.2 42.15L66.65 42.45L66.6 42.45L66.55 42.5L66.7 42.45L66.85 42.4L66.9 42.35L66.9 42.4L67.1 42.3L67.15 42.3L67.45 42.15M67.3,42.3L67.3 42.25L67.25 42.3L67.3 42.3" />
<path style="fill:#CCD9E6;fill-opacity:0.8" d="M62.15,41.6L62.3 41.7L62.8 42.05L62.95 42.1L63.1 42.1L62.65 41.85L62.4 41.65L62.4 41.7L62.35 41.65L62.25 41.55L62.1 41.4L61.9 41.2L61.85 41.15L62.15 41.6M67,41.95L66.5 42.15L65.1 42.35L64.65 42.35L64.6 42.35L64.35 42.4L64.45 42.4L64.75 42.45L66.55 42.25L66.7 42.2L67.2 41.95L67.3 41.85L67 41.95" />
<path style="fill:#95676A;fill-opacity:0.8" d="M67.15,42.1L67.25 42.05L67.3 42L67.6 41.75Q67.75 41.6 67.8 41.6L67.75 41.6L67.25 41.95L67.15 42.1L67.15 42.05L67.15 42.1L67.1 42.1L67.15 42.1" />
<path style="fill:#7EA09F;fill-opacity:0.901961" d="M67.7,42.2L68.1 41.85L68.1 41.95L68.2 41.85L68.3 41.7L68.55 41.4L68.05 41.85L67.7 42.15L67.6 42.2L67.7 42.2" />
<path style="fill:#D2D4E0;fill-opacity:0.901961" d="M66.5,42.85L66.55 42.85L67.35 42.6L68.15 42L68.3 41.7L68.2 41.85L68.1 41.95L67.3 42.5L67.15 42.55L66.85 42.7L66.5 42.85" />
<path style="fill:#896978;fill-opacity:0.901961" d="M66.85,42.7L66.25 42.85L64.65 42.95L63.1 42.75L63.3 42.85L64.9 43L66.55 42.85L66.5 42.85L66.85 42.7" />
<path style="fill:#FCFEFD;fill-opacity:1" d="M68.3,41.5L68.25 41.5L68.3 41.35Q68.1 41.35 68 41.6L67.9 41.8L67.8 42.05L67.95 41.9L68.05 41.8L68.25 41.65L68.45 41.45L68.4 41.45L68.3 41.5" />
<path style="fill:#E8E2EC;fill-opacity:0.8" d="M63.65,42.45L63.5 42.4L63.45 42.35L63.1 42.3L62.6 42.05L62.45 41.95L62.4 41.9L62.05 41.6L61.95 41.5L62 41.65L62.1 41.75L62.8 42.15L63.45 42.4L63.5 42.45L63.65 42.45" />
<path style="fill:#733F49;fill-opacity:0.8" d="M67.1,42.3L66.9 42.4L66.9 42.35L66.85 42.4L66.7 42.45L66.55 42.5L66.6 42.45L66.55 42.5L66.5 42.5L66.25 42.55L66 42.6L65.9 42.65L65.95 42.6L65.85 42.65L65.25 42.65L64.3 42.65L63.5 42.5L63.45 42.5L61.95 41.7L61.7 41.55L62 41.95L62.4 42.25L62.45 42.25L62.45 42.3L63.3 42.6L63.4 42.65L63.45 42.65L64.75 42.8L66.3 42.65L66.5 42.6L67.1 42.3" />
<path style="fill:#A7A4AD;fill-opacity:0.8" d="M62.65,41.85L63.1 42.1L62.95 42.1L63.2 42.15L63.85 42.35L64.45 42.4L64.35 42.4L64.6 42.35L63.95 42.3L62.95 42L62.65 41.85" />
<path style="fill:#F0FFFA;fill-opacity:1" d="M60.65,37L61.7 36.9L62.15 36.9L62.25 36.9L62.4 36.9L61.75 36.8L60.6 36.85L60.1 36.95L60.05 37.15L60.65 37" />
<path style="fill:#EAEBF2;fill-opacity:1" d="M64.45,36.8L64.4 36.8L64.2 36.8L64 36.8L63.75 36.8L63.4 36.75L62 36.75L61.75 36.8L62.4 36.9L63.7 36.85L63.75 36.85L64.1 36.85L64.45 36.8" />
<path style="fill:#4A2124;fill-opacity:0.823529" d="M68.95,39.2L69.05 39.05L69.15 38.9Q69.15 38.8 69 38.8L68.75 38.85L68.7 38.85L68.6 38.9L68.6 39.05Q68.7 38.9 68.85 38.9L68.95 38.95L68.85 39.15L68.9 39.2L68.95 39.2" />
<linearGradient
id="LinearGradID_5220" gradientUnits="userSpaceOnUse" gradientTransform="matrix(-0.00650024, -0.000442505, -0.000106812, 0.0015564, 64.3, 38.05)" spreadMethod ="pad" x1="-819.2" y1="0" x2="819.2" y2="0" >
<stop  offset="0" style="stop-color:#662323;stop-opacity:0.701961" />
<stop  offset="1" style="stop-color:#401D1C;stop-opacity:0.8" />
</linearGradient>
<path style="fill:url(#LinearGradID_5220) " d="M69.9,37.9L69.65 37.9L69.6 37.9L69.35 37.85L68.9 37.75L67.5 37.4L64.8 36.9L64.4 36.9L64.25 36.9L64.2 36.9L64.15 36.9L64.3 36.85L64.05 36.9L63.75 36.9L62.6 36.95L61.8 36.95L61.35 37L60 37.2L60 37.35L60.55 37.2L61.2 37.1L61.45 37.05L63.85 37L64.25 37L65.35 37.15L64.6 37.1L62.9 37.2L62.3 37.3L62.05 37.4L61.95 37.55L62.45 37.35L62.75 37.35L62.8 37.35L63.55 37.3L64 37.3L64.15 37.3L64.6 37.25L65.6 37.3L66.45 37.4Q67.45 37.55 68.05 37.85L68.45 38.3L68.7 38.85L68.75 38.85L69 38.8Q69.15 38.8 69.15 38.9L69.05 39.05L68.95 39.2L69 39.2L69.25 39.05L69.45 38.95L70.05 39L70.05 38.9L69.9 38.9L69.7 38.9L69.5 38.9L69.3 38.95L69.1 39.1L69.15 38.95L69.25 38.85L69.55 38.8L70.05 38.8L70.05 37.9L69.9 37.9" />
<linearGradient
id="LinearGradID_5221" gradientUnits="userSpaceOnUse" gradientTransform="matrix(0.00282288, -0.000289917, -0.000518799, -0.00480652, 61.65, 40.25)" spreadMethod ="pad" x1="-819.2" y1="0" x2="819.2" y2="0" >
<stop  offset="0" style="stop-color:#000000;stop-opacity:0.8" />
<stop  offset="1" style="stop-color:#401D1C;stop-opacity:0.8" />
</linearGradient>
<path style="fill:url(#LinearGradID_5221) " d="M60,38.7L60.15 38.6L60.35 38.8L60.45 38.55L60.5 38.4L60.8 38.5L61.15 38.7L61.15 39.1L61.2 38.75L61.4 38.1L61.8 37.7L61.9 37.65L62.45 37.45L62.65 37.4L62.8 37.35L62.75 37.35L62.45 37.35L61.95 37.55L62.05 37.4L62.3 37.3L62.9 37.2L64.6 37.1L65.35 37.15L64.25 37L63.85 37L61.45 37.05L61.2 37.1L60.55 37.2L60 37.35L59.95 37.55L59.9 38.3L59.9 38.6L60 38.7M61.85,37.15L62.1 37.2L61.75 37.25L61.55 37.25L61.5 37.45L61.45 37.55L61.45 37.5L61.55 37.15L61.85 37.15M60.85,37.35L60.8 37.35L60.75 37.35L60.7 37.3L60.75 37.25L60.85 37.3L60.85 37.35M60.9,37.35L60.9 37.3L60.95 37.3L61.05 37.4L60.95 37.4L60.9 37.35M60.85,37.5L60.9 37.45L60.95 37.4L60.95 37.45L61 37.45L61.1 37.5L61 37.55L60.8 37.55L60.7 37.5L60.65 37.5L60.75 37.45L60.8 37.45L60.85 37.45L60.85 37.5M60.8,37.65L60.75 37.65L60.7 37.65L60.65 37.65L60.65 37.6L60.75 37.6L60.8 37.65M60.95,38.05L60.9 38.1L60.55 38.2L60.5 38.2L60.3 38.15L60.25 38.05L60.25 38L60.25 37.95L60.25 37.9L60.3 37.7L60.35 37.7L60.5 37.75L60.95 37.9L61 37.9L61 37.95L60.95 38L60.95 38.05M61.6,37.55L61.45 37.85L61.4 37.95L61.35 38.05L61.35 38L61.4 37.8L61.45 37.7L61.45 37.65L61.55 37.55L61.6 37.55M62.55,42.55L62.6 42.55L63.1 42.75L64.65 42.95L66.25 42.85L66.85 42.7L67.15 42.55L67.3 42.5L68.1 41.95L68.1 41.85L67.7 42.2L67.45 42.35L67.3 42.4L67.2 42.45L66.9 42.55L66.65 42.6L66.5 42.6L66.3 42.65L64.75 42.8L63.45 42.65L63.4 42.65L63.3 42.6L62.45 42.3L62.45 42.25L62.4 42.25L62 41.95L61.7 41.55L61.95 41.7L61.85 41.6Q61.3 41 61.15 39.9L61.15 40.05L61.15 40.55L60.8 39.75L60.6 39.25L60.6 39.2L60.9 39.75L61.1 40.2L61.1 40.15L60.85 39.5L60.7 39.2L60.45 38.95L60.2 38.8L60.2 38.95L60.2 39L60.55 39.6L60.6 39.65L61.25 41.15L61.35 41.3L61.6 41.75L62.55 42.55M60.25,38.9L60.45 39.1L60.5 39.25L60.5 39.3L60.25 39L60.25 38.95L60.25 38.9" />
<linearGradient
id="LinearGradID_5222" gradientUnits="userSpaceOnUse" gradientTransform="matrix(-1.52588e-005, 0.000778198, 0.00132751, 3.05176e-005, 61.65, 38.6)" spreadMethod ="pad" x1="-819.2" y1="0" x2="819.2" y2="0" >
<stop  offset="0" style="stop-color:#2F0D0B;stop-opacity:0.8" />
<stop  offset="1" style="stop-color:#5A1A1A;stop-opacity:0.8" />
</linearGradient>
<path style="fill:url(#LinearGradID_5222) " d="M62,37.7L61.55 38.15L61.55 38.1L61.4 38.5L61.35 38.75L61.4 39.2L61.45 39.4L61.55 39.8L61.5 39.5L61.5 39Q61.45 38.6 61.55 38.3L61.8 37.9L62 37.7L62.45 37.55L62 37.7" />
<linearGradient
id="LinearGradID_5223" gradientUnits="userSpaceOnUse" gradientTransform="matrix(-0.000808716, 0.00012207, 0.000167847, 0.00111389, 60.4, 39.3)" spreadMethod ="pad" x1="-819.2" y1="0" x2="819.2" y2="0" >
<stop  offset="0" style="stop-color:#2F0D0B;stop-opacity:0.8" />
<stop  offset="1" style="stop-color:#5A1A1A;stop-opacity:0.8" />
</linearGradient>
<path style="fill:url(#LinearGradID_5223) " d="M60.2,38.95L60.2 38.8L60.45 38.95L60.7 39.2L60.85 39.5L61.1 40.15L61.1 40.2L60.9 39.75L60.6 39.2L60.6 39.25L60.8 39.75L61.15 40.55L61.15 40.05L61.15 39.9L61.1 39.75L61.1 39.5L61.1 39.35L61.15 39.1L61.15 38.7L60.8 38.5L60.5 38.4L60.45 38.55L60.35 38.8L60.15 38.6L60 38.7L60.2 38.95" />
<linearGradient
id="LinearGradID_5224" gradientUnits="userSpaceOnUse" gradientTransform="matrix(-0.00112915, 0, 0, 0.000732422, 62.35, 42.25)" spreadMethod ="pad" x1="-819.2" y1="0" x2="819.2" y2="0" >
<stop  offset="0" style="stop-color:#000000;stop-opacity:0.8" />
<stop  offset="1" style="stop-color:#401D1C;stop-opacity:0.8" />
</linearGradient>
<path style="fill:url(#LinearGradID_5224) " d="M63.1,42.75L62.6 42.55L62.55 42.55L61.6 41.75L61.45 41.65Q62 42.5 63.3 42.85L63.1 42.75" />
<linearGradient
id="LinearGradID_5225" gradientUnits="userSpaceOnUse" gradientTransform="matrix(0.00088501, 9.15527e-005, 4.57764e-005, -0.000427246, 69.25, 39.3)" spreadMethod ="pad" x1="-819.2" y1="0" x2="819.2" y2="0" >
<stop  offset="0" style="stop-color:#000000;stop-opacity:0.8" />
<stop  offset="1" style="stop-color:#401D1C;stop-opacity:0.8" />
</linearGradient>
<path style="fill:url(#LinearGradID_5225) " d="M69.45,39.45L69.45 39.4L69.5 39.35L70.05 39.15L70.05 39.05L70.05 39L69.45 38.95L69.25 39.05L69 39.2L68.95 39.2L68.9 39.2L68.85 39.15L68.95 38.95L68.85 38.9Q68.7 38.9 68.6 39.05L68.65 39.15L68.7 39.3L68.8 39.5L69.1 39.35L69.25 39.25L69.25 39.35L69.3 39.45L69.45 39.45M69.35,39.2L69.4 39.25L69.4 39.35L69.3 39.25L69.3 39.2L69.35 39.2M69.95,39.1L69.9 39.1L69.85 39.1L69.75 39.15L69.7 39.1L69.6 39.05L69.65 39L69.75 39L69.85 39L69.95 39L70 39.05L70.05 39.05L69.95 39.1" />
<radialGradient
id="RadialGradID_5226" gradientUnits="userSpaceOnUse" gradientTransform="matrix(0.00749207, 0, 0, 0.00749207, 78.85, 35.7)" spreadMethod ="pad" cx="0" cy="0" r="819.2" fx="0" fy="0" >
<stop  offset="0"  style="stop-color:#FFFFFF;stop-opacity:1" />
<stop  offset="1"  style="stop-color:#FFFFFF;stop-opacity:0" />
</radialGradient>
<path style="fill:url(#RadialGradID_5226) " d="M76.8,39.9L73.95 38.85L73.7 37.7L76.2 37.5L77.9 37.75Q78.5 38.05 78.45 38.85L78.35 40.1Q78.25 40.65 77.9 40.45L76.8 39.9" />
<radialGradient
id="RadialGradID_5227" gradientUnits="userSpaceOnUse" gradientTransform="matrix(-0.00749207, 0, 0, 0.00749207, 61.25, 35.7)" spreadMethod ="pad" cx="0" cy="0" r="819.2" fx="0" fy="0" >
<stop  offset="0"  style="stop-color:#FFFFFF;stop-opacity:1" />
<stop  offset="1"  style="stop-color:#FFFFFF;stop-opacity:0" />
</radialGradient>
<path style="fill:url(#RadialGradID_5227) " d="M61.8,40.3L61.7 39.05Q61.6 38.1 62.15 37.85Q62.65 37.55 63.9 37.5L66.4 37.7L66.15 38.85L63.25 39.9L62.15 40.45Q61.8 40.65 61.8 40.3" />
</g>
</svg>
