<?xml version="1.0" encoding="utf-8"?>
<svg version="1.1" id="Layer_1"
xmlns="http://www.w3.org/2000/svg"
xmlns:xlink="http://www.w3.org/1999/xlink"
xmlns:author="http://www.sothink.com"
width="21px" height="7px"
xml:space="preserve">
<g id="641" transform="matrix(1, 0, 0, 1, -60, -36.45)">
<path style="fill:#B0B2AF;fill-opacity:1" d="M72.15,40.65L72 40.3L71.75 39.7L71.95 40.5L71.95 40.6L72.05 40.75L71.95 40.7L71.9 40.55L71.5 39.6L71.6 39.5Q71.75 39.45 71.85 39.65L72 40.15L72.05 40.25L72.1 40.4L72.2 40.65L72.15 40.55L72.2 40.6L72.45 41.15L72.15 40.65" />
<path style="fill:#D8D9DB;fill-opacity:1" d="M72.3,41L72.1 40.6L72.15 40.9L72.15 41.1L72.05 40.9L72 40.85L71.8 40.55Q71.65 40.4 71.75 40.65L71.95 41.15L71.85 41L71.7 40.8L71.5 39.95L71.5 39.6L71.9 40.55L71.95 40.7L72.05 40.75L71.95 40.6L71.95 40.5L71.75 39.7L72 40.3L72.15 40.65L72.45 41.15L72.5 41.25L72.45 41.3L72.3 41" />
<path style="fill:#FAFAFA;fill-opacity:1" d="M72.45,41.3L72.15 41.35L72.1 41.3L72 41.15L71.95 41.15L71.75 40.65Q71.65 40.4 71.8 40.55L72 40.85L72.05 40.9L72.15 41.1L72.15 40.9L72.1 40.6L72.3 41L72.45 41.3" />
<path style="fill:#000000;fill-opacity:1" d="M69.45,38.1L69.75 38.05L70.8 38.1L71.4 38.2L71.55 38.05L71.65 38.05L71.6 38.2L71.55 38.4L70.8 38.25L70.65 38.25L69.65 38.2L68.65 38.45L68.55 38.4L68.45 38.3L68.45 38.2L68.55 38.1L69.45 37.85L69.45 38.1M79.65,39.35L79.65 39.2Q79.85 38.9 79.65 38.65L79.25 38.2L79.1 38.05L79.15 38.05L79.35 38.15L79.8 38.55L79.8 38.65L79.85 39L79.8 39.3L79.65 39.5L79.65 39.35" />
<path style="fill:#4B4A4F;fill-opacity:1" d="M69.45,37.85L69.65 37.85L70.7 37.85L70.9 37.9L71.55 38.05L71.4 38.2L70.8 38.1L69.75 38.05L69.45 38.1L69.45 37.85M71.4,38.05L70.85 37.95L70.05 37.9L69.55 38L70.8 38L71.2 38.1L71.4 38.05" />
<path style="fill:#A1A0A5;fill-opacity:1" d="M79.65,39.75Q80 39.4 80 38.85L79.9 38.45L79.4 38.05L78.9 37.8L78.65 37.55L78.9 37.65L79.65 38.05L80.1 38.75L80 39.5L79.65 39.9L79.65 39.75M79.65,39.85L79.65 39.9L79.65 39.85M71.2,38.1L70.8 38L69.55 38L70.05 37.9L70.85 37.95L71.4 38.05L71.2 38.1" />
<path style="fill:#676767;fill-opacity:1" d="M79.65,39.95L79.65 39.9L79.65 39.85L79.65 39.9L79.65 39.95M71.85,38.4L71.9 38.25L71.9 38.2L71.85 38.4M79.55,40.2L79.5 40.3L79.5 40.2L79.55 40.2" />
<path style="fill:#343338;fill-opacity:1" d="M72.7,40.95L72.45 40.6L72.1 40.05L71.95 39.55L71.85 39.2L71.85 38.8L71.85 38.45L71.85 38.4L71.9 38.2L71.95 38.15L71.95 38.1L72 37.95L72.15 37.55L72.4 37.4Q73.35 36.65 75.35 36.65L77.05 36.95L78 37.35L78.7 37.8L79.1 38.25L79.15 38.35L79.2 38.4L79.3 38.65L79.3 39L79.3 39.15L79.3 39.2L79.3 39.3L79.3 39.4L79.3 39.85L79.1 40.45L78.6 41.25L77.9 41.8L77.85 41.8L76.55 42.3L76.55 42.1L77.1 41.95L77.5 41.75L78.35 41.15L78.95 40.3L79.05 39.4L78.85 38.65L78.45 38.1Q76.5 36.4 73.4 37.2L73 37.4L72.7 37.6L72.4 37.95Q71.85 38.85 72.3 40L72.95 40.95L72.7 40.95" />
<path style="fill:#45444A;fill-opacity:1" d="M78.9,37.8L79.4 38.05L79.9 38.45L80 38.85Q80 39.4 79.65 39.75L79.65 39.7L79.65 39.5L79.8 39.3L79.85 39L79.8 38.65L79.8 38.55L79.35 38.15L79.15 38.05L79.1 38.05L78.9 37.85L78.95 37.85L78.9 37.8" />
<radialGradient
id="RadialGradID_5163" gradientUnits="userSpaceOnUse" gradientTransform="matrix(0.00764465, 0, 0, 0.00769043, 75.55, 36.95)" spreadMethod ="pad" cx="0" cy="0" r="819.2" fx="0" fy="0" >
<stop  offset="0"  style="stop-color:#6D6D6D;stop-opacity:1" />
<stop  offset="0.470588"  style="stop-color:#383838;stop-opacity:1" />
<stop  offset="1"  style="stop-color:#000000;stop-opacity:1" />
</radialGradient>
<path style="fill:url(#RadialGradID_5163) " d="M79.65,39.5L79.65 39.7L79.65 39.75L79.65 39.9L79.65 39.95L79.55 40.4L79.15 41.3L79.05 41.4Q78.3 42.2 77.25 42.55Q75.5 42.95 74.05 42.5Q72.9 42.05 72.3 41.05L72.2 40.95L71.7 40.05L71.7 40L71.55 39.1L71.55 38.4L71.6 38.2L71.65 38.05L71.7 37.95L72.15 37.4L72.75 36.9L73.65 36.6L74.95 36.45L76.45 36.55L77.5 36.85L78.6 37.55L78.65 37.55L78.9 37.8L78.95 37.85L78.9 37.85L79.1 38.05L79.25 38.2L79.3 38.25L79.55 38.75L79.6 38.85L79.65 39.2L79.65 39.35L79.65 39.5M71.9,38.25L71.85 38.4L71.85 38.45L71.85 38.8L71.85 39.2L71.95 39.55L72.1 40.05L72.45 40.6L72.7 40.95L73.15 41.45L73.35 41.65Q73.95 42.2 75.25 42.35L75.35 42.35L76.55 42.3L77.85 41.8L77.9 41.8L78.6 41.25L79.1 40.45L79.3 39.85L79.3 39.4L79.3 39.3L79.3 39.2L79.3 39.15L79.3 39L79.3 38.65L79.2 38.4L79.15 38.35L79.1 38.25L78.7 37.8L78 37.35L77.05 36.95L75.35 36.65Q73.35 36.65 72.4 37.4L72.15 37.55L72 37.95L71.95 38.1L71.95 38.15L71.9 38.2L71.9 38.25M79.65,39.9L79.65 39.95L79.65 39.9M79.5,40.2L79.5 40.3L79.55 40.2L79.5 40.2" />
<radialGradient
id="RadialGradID_5164" gradientUnits="userSpaceOnUse" gradientTransform="matrix(0.00262451, 0, 0, 0.00263977, 74.65, 41.7)" spreadMethod ="pad" cx="0" cy="0" r="819.2" fx="0" fy="0" >
<stop  offset="0"  style="stop-color:#6D6D6D;stop-opacity:1" />
<stop  offset="0.470588"  style="stop-color:#383838;stop-opacity:1" />
<stop  offset="1"  style="stop-color:#000000;stop-opacity:1" />
</radialGradient>
<path style="fill:url(#RadialGradID_5164) " d="M72.95,40.95L73.7 41.7Q74.75 42.3 76.4 42.1L76.55 42.1L76.55 42.3L75.35 42.35L75.25 42.35Q73.95 42.2 73.35 41.65L73.15 41.45L72.7 40.95L72.95 40.95" />
<path style="fill:#D8D7DE;fill-opacity:1" d="M80,39L79.65 38.4L78.95 37.75L79.6 38.05Q80.05 38.35 80 39" />
<radialGradient
id="RadialGradID_5165" gradientUnits="userSpaceOnUse" gradientTransform="matrix(0.00346375, 0, 0, 0.003479, 79.45, 38.05)" spreadMethod ="pad" cx="0" cy="0" r="819.2" fx="0" fy="0" >
<stop  offset="0"  style="stop-color:#FFFFFF;stop-opacity:1" />
<stop  offset="1"  style="stop-color:#FFFFFF;stop-opacity:0" />
</radialGradient>
<path style="fill:url(#RadialGradID_5165) " d="M76.9,36.85L77.35 36.95L77.65 37.1L78.05 37.3L78.45 37.55L78.75 37.8L79 38.1L79.25 38.4L79.4 38.75L79.45 39L79.5 39.25L79.5 39.55L79.4 40L79.35 40.15L79.35 40.25L79.25 40.5L79.1 40.7L78.9 40.95L79.15 40.35L79.2 40.15L79.25 40L79.25 39.6L79.25 39.3L79.15 38.95L79.1 38.7L78.8 38.25L78.35 37.8L78.3 37.75L78.1 37.6L77.95 37.5L77.8 37.4L77.7 37.3L77.25 37.1L76.85 36.85L76.9 36.85" />
<radialGradient
id="RadialGradID_5166" gradientUnits="userSpaceOnUse" gradientTransform="matrix(0.00354004, 0, 0, 0.0035553, 72.8, 37.4)" spreadMethod ="pad" cx="0" cy="0" r="819.2" fx="0" fy="0" >
<stop  offset="0"  style="stop-color:#FFFFFF;stop-opacity:1" />
<stop  offset="1"  style="stop-color:#FFFFFF;stop-opacity:0" />
</radialGradient>
<path style="fill:url(#RadialGradID_5166) " d="M72.8,37.3L72.5 37.55L72.3 37.8L72.1 38.1L72 38.4L71.9 38.8L71.9 39.3L72 39.8L72.05 40.05L71.95 39.85L71.85 39.5L71.8 39.35L71.75 38.75L71.75 38.3L71.9 37.9L72.05 37.65L72.2 37.5L72.5 37.25L72.8 37.05L73.4 36.85L74.1 36.7L74.65 36.65L75.35 36.7L74.8 36.75L74.3 36.8L74.05 36.85L73.65 36.95L73.2 37.1L72.8 37.3" />
<radialGradient
id="RadialGradID_5167" gradientUnits="userSpaceOnUse" gradientTransform="matrix(0.00640869, 0, 0, 0.00643921, 76.45, 43.1)" spreadMethod ="pad" cx="0" cy="0" r="819.2" fx="0" fy="0" >
<stop  offset="0"  style="stop-color:#FFFFFF;stop-opacity:1" />
<stop  offset="1"  style="stop-color:#FFFFFF;stop-opacity:0" />
</radialGradient>
<path style="fill:url(#RadialGradID_5167) " d="M74.85,42.35L74.45 42.3L74.1 42.15L73.8 42L73.45 41.7Q73.2 41.5 73.55 41.7L74.3 42.05L75.1 42.15L75.6 42.2L75.85 42.15L76.15 42.15L76.6 42.05L76.6 42.1L76.65 42.1L77 41.95L77.35 41.8L77.65 41.65L77.9 41.5L78.5 40.9L78.3 41.35L77.95 41.7L77.65 41.9L77.25 42.1L76.8 42.25L76.65 42.3L76.6 42.3L76.4 42.35L75.9 42.4L75.5 42.4L75.2 42.4L74.85 42.35" />
<path style="fill:#B0B2AF;fill-opacity:1" d="M68,40.65L68.15 40.3L68.4 39.7L68.2 40.5L68.2 40.6L68.1 40.75L68.2 40.7L68.25 40.55L68.65 39.6L68.55 39.5Q68.4 39.45 68.3 39.65L68.15 40.15L68.1 40.25L68.05 40.4L67.95 40.65L68 40.55L67.95 40.6L67.7 41.15L68 40.65" />
<path style="fill:#D8D9DB;fill-opacity:1" d="M67.85,41L68.05 40.6L68 40.9L68 41.1L68.1 40.9L68.15 40.85L68.35 40.55L68.4 40.65L68.2 41.15L68.3 41L68.45 40.8L68.65 39.95L68.65 39.6L68.25 40.55L68.2 40.7L68.1 40.75L68.2 40.6L68.2 40.5L68.4 39.7L68.15 40.3L68 40.65L67.7 41.15L67.65 41.25L67.7 41.3L67.85 41" />
<path style="fill:#FAFAFA;fill-opacity:1" d="M67.7,41.3L68 41.35L68.05 41.3L68.15 41.15L68.2 41.15L68.4 40.65L68.35 40.55L68.15 40.85L68.1 40.9L68 41.1L68 40.9L68.05 40.6L67.85 41L67.7 41.3" />
<path style="fill:#000000;fill-opacity:1" d="M60.35,39.3L60.25 39L60.3 38.65L60.35 38.55L60.8 38.15L60.95 38.05L61.05 38.05L60.9 38.2L60.45 38.65Q60.25 38.9 60.45 39.2L60.45 39.35L60.45 39.5L60.35 39.3M68.6,38.05L68.7 38.2L69.3 38.1L70.4 38.05L70.7 38.1L70.7 37.85L71.55 38.1L71.7 38.2L71.7 38.3L71.6 38.4L71.45 38.45L70.45 38.2L69.45 38.25L69.3 38.25L68.6 38.4L68.55 38.4L68.55 38.2L68.5 38.05L68.6 38.05" />
<path style="fill:#4B4A4F;fill-opacity:1" d="M69.2,37.9L69.4 37.85L70.5 37.85L70.7 37.85L70.7 38.1L70.4 38.05L69.3 38.1L68.7 38.2L68.6 38.05L69.2 37.9M70,37.9L69.3 37.95L68.7 38.05L68.9 38.1L69.35 38L70.55 38L70 37.9" />
<path style="fill:#A1A0A5;fill-opacity:1" d="M60.75,38.05L60.25 38.45L60.15 38.85Q60.1 39.4 60.45 39.75L60.5 39.9L60.45 39.85L60.45 39.9L60.15 39.5L60 38.75Q60.05 38.3 60.45 38.05Q60.75 37.8 61.2 37.65L61.5 37.55L61.25 37.8L60.75 38.05M70.55,38L69.35 38L68.9 38.1L68.7 38.05L69.3 37.95L70 37.9L70.55 38" />
<path style="fill:#676767;fill-opacity:1" d="M60.45,39.9L60.45 39.85L60.5 39.9L60.5 39.95L60.45 39.9M60.6,40.2L60.65 40.3L60.6 40.2M68.25,38.4L68.2 38.2L68.25 38.25L68.25 38.4" />
<path style="fill:#343338;fill-opacity:1" d="M68.25,38.4L68.25 38.45L68.3 38.8L68.25 39.2L68.2 39.55L68 40.05L67.7 40.6L67.4 40.95L67.15 40.95L67.8 40Q68.25 38.85 67.75 37.95L67.45 37.6L67.1 37.4L66.7 37.2Q63.6 36.4 61.7 38.1L61.25 38.65Q61.1 38.9 61.1 39.4L61.2 40.3L61.8 41.15L62.6 41.75L63 41.95L63.55 42.1L63.55 42.3L62.25 41.8L61.5 41.25L61.05 40.45L60.85 39.85L60.8 39.4L60.8 39.3L60.8 39.2L60.8 39.15L60.8 39L60.8 38.65L60.95 38.4L60.95 38.35L61.05 38.25L61.45 37.8Q61.7 37.55 62.1 37.35L63.05 36.95L64.75 36.65Q66.75 36.65 67.75 37.4L67.95 37.55L68.15 37.95L68.2 38.1L68.2 38.15L68.2 38.2L68.25 38.4" />
<path style="fill:#45444A;fill-opacity:1" d="M60.45,39.5L60.45 39.7L60.45 39.75Q60.1 39.4 60.15 38.85L60.25 38.45L60.75 38.05L61.25 37.8L61.2 37.85L61.05 38.05L60.95 38.05L60.8 38.15L60.35 38.55L60.3 38.65L60.25 39L60.35 39.3L60.45 39.5" />
<radialGradient
id="RadialGradID_5168" gradientUnits="userSpaceOnUse" gradientTransform="matrix(-0.00764465, 0, 0, 0.00769043, 64.55, 36.95)" spreadMethod ="pad" cx="0" cy="0" r="819.2" fx="0" fy="0" >
<stop  offset="0"  style="stop-color:#6D6D6D;stop-opacity:1" />
<stop  offset="0.470588"  style="stop-color:#383838;stop-opacity:1" />
<stop  offset="1"  style="stop-color:#000000;stop-opacity:1" />
</radialGradient>
<path style="fill:url(#RadialGradID_5168) " d="M61.05,38.05L61.2 37.85L61.25 37.8L61.5 37.55Q62.15 37 62.65 36.85L63.7 36.55L65.2 36.45L66.45 36.6L67.35 36.9L68 37.4L68.45 37.95L68.5 38.05L68.55 38.2L68.55 38.4L68.6 39.1L68.4 40L68.4 40.05L67.9 40.95L67.85 41.05Q67.2 42.05 66.1 42.5Q64.6 42.95 62.9 42.55Q61.8 42.2 61.05 41.4L60.95 41.3L60.55 40.4L60.5 39.95L60.5 39.9L60.45 39.75L60.45 39.7L60.45 39.5L60.45 39.35L60.45 39.2L60.55 38.85L60.55 38.75L60.85 38.25L60.9 38.2L61.05 38.05M60.5,39.95L60.45 39.9L60.5 39.95M60.65,40.3L60.6 40.2L60.65 40.3M67.4,40.95L67.7 40.6L68 40.05L68.2 39.55L68.25 39.2L68.3 38.8L68.25 38.45L68.25 38.4L68.25 38.25L68.2 38.2L68.2 38.15L68.2 38.1L68.15 37.95L67.95 37.55L67.75 37.4Q66.75 36.65 64.75 36.65L63.05 36.95L62.1 37.35Q61.7 37.55 61.45 37.8L61.05 38.25L60.95 38.35L60.95 38.4L60.8 38.65L60.8 39L60.8 39.15L60.8 39.2L60.8 39.3L60.8 39.4L60.85 39.85L61.05 40.45L61.5 41.25L62.25 41.8L63.55 42.3L64.75 42.35L64.85 42.35Q66.15 42.2 66.8 41.65L67 41.45L67.4 40.95" />
<radialGradient
id="RadialGradID_5169" gradientUnits="userSpaceOnUse" gradientTransform="matrix(-0.00262451, 0, 0, 0.00263977, 65.45, 41.7)" spreadMethod ="pad" cx="0" cy="0" r="819.2" fx="0" fy="0" >
<stop  offset="0"  style="stop-color:#6D6D6D;stop-opacity:1" />
<stop  offset="0.470588"  style="stop-color:#383838;stop-opacity:1" />
<stop  offset="1"  style="stop-color:#000000;stop-opacity:1" />
</radialGradient>
<path style="fill:url(#RadialGradID_5169) " d="M67,41.45L66.8 41.65Q66.15 42.2 64.85 42.35L64.75 42.35L63.55 42.3L63.55 42.1L63.7 42.1Q65.35 42.3 66.4 41.7L67.15 40.95L67.4 40.95L67 41.45" />
<path style="fill:#D8D7DE;fill-opacity:1" d="M60.1,39L60.45 38.4L61.15 37.75L60.5 38.05Q60.05 38.35 60.1 39" />
<radialGradient
id="RadialGradID_5170" gradientUnits="userSpaceOnUse" gradientTransform="matrix(-0.00346375, 0, 0, 0.003479, 60.65, 38.05)" spreadMethod ="pad" cx="0" cy="0" r="819.2" fx="0" fy="0" >
<stop  offset="0"  style="stop-color:#FFFFFF;stop-opacity:1" />
<stop  offset="1"  style="stop-color:#FFFFFF;stop-opacity:0" />
</radialGradient>
<path style="fill:url(#RadialGradID_5170) " d="M63.2,36.85L62.75 36.95L62.45 37.1L62.05 37.3L61.65 37.55L61.35 37.8L61.1 38.1L60.85 38.4L60.7 38.75L60.65 39L60.6 39.25L60.6 39.55L60.7 40L60.75 40.15L60.75 40.25L60.85 40.5L61 40.7L61.2 40.95L60.95 40.35L60.9 40.15L60.85 40L60.85 39.6L60.85 39.3L60.95 38.95L61 38.7L61.3 38.25L61.75 37.8L61.8 37.75L62 37.6Q62.1 37.5 62.15 37.5L62.3 37.4L62.4 37.3L62.85 37.1L63.25 36.85L63.2 36.85" />
<radialGradient
id="RadialGradID_5171" gradientUnits="userSpaceOnUse" gradientTransform="matrix(-0.00354004, 0, 0, 0.0035553, 67.3, 37.4)" spreadMethod ="pad" cx="0" cy="0" r="819.2" fx="0" fy="0" >
<stop  offset="0"  style="stop-color:#FFFFFF;stop-opacity:1" />
<stop  offset="1"  style="stop-color:#FFFFFF;stop-opacity:0" />
</radialGradient>
<path style="fill:url(#RadialGradID_5171) " d="M67.3,37.3L67.6 37.55L67.8 37.8L68 38.1L68.1 38.4L68.2 38.8L68.2 39.3L68.1 39.8L68.05 40.05L68.15 39.85L68.25 39.5L68.3 39.35L68.35 38.75L68.35 38.3L68.2 37.9L68.05 37.65L67.9 37.5L67.6 37.25L67.3 37.05L66.7 36.85L66 36.7L65.45 36.65L64.75 36.7L65.3 36.75L65.8 36.8L66.05 36.85L66.45 36.95L66.9 37.1L67.3 37.3" />
<radialGradient
id="RadialGradID_5172" gradientUnits="userSpaceOnUse" gradientTransform="matrix(-0.00640869, 0, 0, 0.00643921, 63.65, 43.1)" spreadMethod ="pad" cx="0" cy="0" r="819.2" fx="0" fy="0" >
<stop  offset="0"  style="stop-color:#FFFFFF;stop-opacity:1" />
<stop  offset="1"  style="stop-color:#FFFFFF;stop-opacity:0" />
</radialGradient>
<path style="fill:url(#RadialGradID_5172) " d="M65.25,42.35L65.65 42.3L66 42.15L66.3 42L66.65 41.7Q66.9 41.5 66.55 41.7L65.8 42.05L65 42.15L64.5 42.2L64.25 42.15L63.95 42.15L63.5 42.05L63.5 42.1L63.45 42.1L63.1 41.95L62.75 41.8L62.45 41.65L62.2 41.5L61.6 40.9L61.8 41.35L62.15 41.7L62.45 41.9L62.85 42.1L63.3 42.25L63.45 42.3L63.5 42.3L63.7 42.35L64.2 42.4L64.6 42.4L64.9 42.4L65.25 42.35" />
</g>
</svg>
