<?xml version="1.0" encoding="utf-8"?>
<svg version="1.1" id="Layer_1"
xmlns="http://www.w3.org/2000/svg"
xmlns:xlink="http://www.w3.org/1999/xlink"
xmlns:author="http://www.sothink.com"
width="22px" height="5px"
xml:space="preserve">
<g id="646" transform="matrix(1, 0, 0, 1, -59.3, -37.05)">
<path style="fill:#F0F1F5;fill-opacity:1" d="M70.95,37.6L70.85 37.55L69.9 37.5L69.7 37.5L69.7 37.4L70.6 37.4L71 37.5L71.35 37.65L71.5 37.85L71.45 38L70.95 37.6" />
<path style="fill:#8E9486;fill-opacity:1" d="M69.7,37.5L69.9 37.5L70.85 37.55L70.95 37.6L71.45 38L71.45 38.1Q71.25 37.85 70.9 37.75L70.2 37.6L69.7 37.6L69.7 37.5" />
<path style="fill:#595C53;fill-opacity:1" d="M71.45,38.15L71.4 38.15L71.4 38.2L71.35 38.4L71.1 38L70.85 37.9L70.55 37.85L69.7 37.85L69.7 37.6L70.2 37.6L70.9 37.75Q71.25 37.85 71.45 38.1L71.45 38.15" />
<path style="fill:#8A9199;fill-opacity:1" d="M71.45,38L71.5 37.85L71.55 37.85L71.65 37.65Q71.95 37.25 72.85 37.15L75.8 37.05L78.6 37.35Q79.45 37.6 79.6 38.1L79.75 38.65L79.8 38.85L79.8 39.05L79.8 39.25L79.8 39.5L79.75 39.7L79.75 39.5L79.75 39.25L79.75 39.1L79.7 38.75L79.55 38.25L78.9 37.6L76.1 37.25L72.8 37.35Q71.85 37.5 71.5 38.05L71.45 38.05L71.45 38.1L71.45 38" />
<path style="fill:#363638;fill-opacity:1" d="M72.15,37.75L72.15 37.8L72.05 37.8L71.75 38L71.55 38.5L71.55 38.65L71.55 38.75L71.55 39.05L71.65 39.45L71.7 39.65L71.9 40.25L72.6 41L73.8 41.4L75.1 41.55L76.15 41.55L78.2 41.3Q79.2 41.1 79.45 40.35L79.6 39.7L79.6 39.65L79.6 39.55L79.6 39.5L79.6 39.05L79.55 38.85L79.2 38.15L79.25 38.25L79.35 38.45L79.4 38.8L79.4 39.25L79.4 39.35L79.4 39.5L79.4 39.6L79.3 39.85L79.25 39.95L79.3 38.9L79.3 38.55L78.8 37.9L78.75 37.85L78.7 37.85L78.5 37.75L75.8 37.45L72.95 37.55L72.25 37.75L72.15 37.75M79.7,40.05L79.6 40.5L79.45 40.8L79 41.2L77.35 41.6L75.95 41.7L75.75 41.7L74.75 41.7Q73.05 41.6 72.4 40.95Q71.4 40.1 71.35 39.1L71.35 38.45L71.35 38.4L71.4 38.2L71.4 38.15L71.45 38.15L71.45 38.1L71.45 38.05L71.5 38.05Q71.85 37.5 72.8 37.35L76.1 37.25L78.9 37.6L79.55 38.25L79.7 38.75L79.75 39.1L79.75 39.25L79.75 39.5L79.75 39.7L79.7 40.05" />
<path style="fill:#586063;fill-opacity:1" d="M79.4,39.45L79.4 39.5L79.4 39.35L79.4 39.25L79.4 38.8L79.35 38.45L79.25 38.25L79.2 38.15L79.55 38.85L79.6 39.05L79.6 39.15L79.55 39.15L79.5 39.5Q79.45 39.35 79.4 39.45M71.7,38.4L71.75 38.3L71.75 38.25L71.65 38.55L71.6 38.85L71.65 39.45L71.55 39.05L71.55 38.75L71.55 38.65L71.55 38.5L71.75 38L72.05 37.8L72.15 37.8L72.05 37.85L72 37.85L71.9 37.95L71.75 38.4L71.75 38.45L71.75 38.6L71.7 38.4" />
<path style="fill:#848D8A;fill-opacity:1" d="M75.95,41.35L75.45 41.35L74.05 41.25Q72.95 41.15 72.5 40.7L71.85 39.75L71.7 39.1L71.7 38.9L71.7 38.6L71.7 38.5L71.7 38.4L71.75 38.6L71.75 38.9L71.8 39.25L72.15 40L72.95 40.85L74.35 41.15L75.95 41.2L76.95 41.15L77.85 41.05L78.65 40.75Q79.15 40.45 79.3 38.9L79.25 39.95L79.3 39.85L79.4 39.6L79.4 39.5L79.4 39.45Q79.45 39.35 79.5 39.5L79.4 39.85L79.15 40.45L78.55 41L77.25 41.3L75.95 41.35M72.15,37.8L72.15 37.75L72.25 37.75L72.15 37.8" />
<path style="fill:#F4FCF1;fill-opacity:1" d="M80.8,38.7L80.85 38.85L80.25 38.8L79.8 38.85L79.75 38.65L80.8 38.7" />
<path style="fill:#57604F;fill-opacity:1" d="M80.2,39L80.45 39L80.85 39L80.8 39.2L80.65 39.2L80.65 39.45L80.55 39.5L80.35 39.5L80.25 39.25L80.1 39.2L79.8 39.25L79.8 39.05L80.2 39" />
<path style="fill:#A0AA8F;fill-opacity:1" d="M79.8,39.5L79.8 39.25L80.1 39.2L80.25 39.25L80.35 39.5L79.8 39.5" />
<path style="fill:#A7AFA0;fill-opacity:1" d="M80.85,39L80.45 39L80.2 39L79.8 39.05L79.8 38.85L80.25 38.8L80.85 38.85L80.85 39" />
<linearGradient
id="LinearGradID_5228" gradientUnits="userSpaceOnUse" gradientTransform="matrix(-0.00166321, 0.00314331, -0.00123596, -0.000671387, 77.55, 40.05)" spreadMethod ="pad" x1="-819.2" y1="0" x2="819.2" y2="0" >
<stop  offset="0" style="stop-color:#95A0A6;stop-opacity:1" />
<stop  offset="0.470588" style="stop-color:#F2FDFF;stop-opacity:1" />
<stop  offset="1" style="stop-color:#7D878C;stop-opacity:1" />
</linearGradient>
<path style="fill:url(#LinearGradID_5228) " d="M75.95,41.35L77.25 41.3L78.55 41L79.15 40.45L79.4 39.85L79.5 39.5L79.55 39.15L79.6 39.15L79.6 39.05L79.6 39.5L79.6 39.55L79.6 39.65L79.6 39.7L79.45 40.35Q79.2 41.1 78.2 41.3L76.15 41.55L75.95 41.35" />
<linearGradient
id="LinearGradID_5229" gradientUnits="userSpaceOnUse" gradientTransform="matrix(0.003479, 0.00112915, -0.000595093, 0.00186157, 74, 39.85)" spreadMethod ="pad" x1="-819.2" y1="0" x2="819.2" y2="0" >
<stop  offset="0" style="stop-color:#7D878C;stop-opacity:1" />
<stop  offset="0.321569" style="stop-color:#F2FDFF;stop-opacity:1" />
<stop  offset="1" style="stop-color:#95A0A6;stop-opacity:1" />
</linearGradient>
<path style="fill:url(#LinearGradID_5229) " d="M76.15,41.55L75.1 41.55L73.8 41.4L72.6 41L71.9 40.25L71.7 39.65L71.65 39.45L71.6 38.85L71.65 38.55L71.75 38.25L71.75 38.3L71.7 38.4L71.7 38.5L71.7 38.6L71.7 38.9L71.7 39.1L71.85 39.75L72.5 40.7Q72.95 41.15 74.05 41.25L75.45 41.35L75.95 41.35L76.15 41.55" />
<radialGradient
id="RadialGradID_5230" gradientUnits="userSpaceOnUse" gradientTransform="matrix(0.00692749, 0, 0, 0.00700378, 75.75, 37.25)" spreadMethod ="pad" cx="0" cy="0" r="819.2" fx="0" fy="0" >
<stop  offset="0"  style="stop-color:#EAF5F7;stop-opacity:1" />
<stop  offset="1"  style="stop-color:#95A0A6;stop-opacity:1" />
</radialGradient>
<path style="fill:url(#RadialGradID_5230) " d="M72.65,37.35L75.2 37.2L77.75 37.3L78.75 37.6Q79.25 37.8 78.85 37.7L77.65 37.5L75.4 37.35L74 37.35L72.7 37.45Q72.1 37.55 72.65 37.35" />
<path style="fill:#F0F1F5;fill-opacity:1" d="M70.45,37.4L69.55 37.4L69.15 37.5L68.8 37.65L68.65 37.85L68.7 38Q68.9 37.65 69.2 37.6L69.3 37.55L70.25 37.5L70.45 37.5L70.45 37.4" />
<path style="fill:#8E9486;fill-opacity:1" d="M70.45,37.5L70.25 37.5L69.3 37.55L69.2 37.6Q68.9 37.65 68.7 38L68.7 38.1Q68.9 37.85 69.25 37.75L69.95 37.6L70.45 37.6L70.45 37.5" />
<path style="fill:#595C53;fill-opacity:1" d="M68.7,38.15L68.75 38.15L68.75 38.2L68.8 38.4L69.05 38L69.3 37.9L69.6 37.85L70.45 37.85L70.45 37.6L69.95 37.6L69.25 37.75Q68.9 37.85 68.7 38.1L68.7 38.15" />
<path style="fill:#8A9199;fill-opacity:1" d="M68.7,38L68.65 37.85L68.6 37.85L68.5 37.65Q68.2 37.25 67.3 37.15L64.35 37.05L61.55 37.35Q60.7 37.6 60.55 38.1L60.4 38.65L60.35 38.85L60.35 39.05L60.35 39.25L60.35 39.5L60.4 39.7L60.4 39.5L60.4 39.25L60.4 39.1L60.45 38.75L60.6 38.25Q60.75 37.95 61.25 37.6L64.05 37.25L67.35 37.35Q68.3 37.5 68.65 38.05L68.7 38.05L68.7 38.1L68.7 38" />
<path style="fill:#363638;fill-opacity:1" d="M60.45,40.05L60.55 40.5L60.7 40.8L61.15 41.2L62.8 41.6L64.2 41.7L64.4 41.7L65.4 41.7Q67.1 41.6 67.75 40.95Q68.75 40.1 68.8 39.1L68.8 38.45L68.8 38.4L68.75 38.2L68.75 38.15L68.7 38.15L68.7 38.1L68.7 38.05L68.65 38.05Q68.3 37.5 67.35 37.35L64.05 37.25L61.25 37.6Q60.75 37.95 60.6 38.25L60.45 38.75L60.4 39.1L60.4 39.25L60.4 39.5L60.4 39.7L60.45 40.05M68,37.75L68 37.8L68.1 37.8L68.4 38L68.6 38.5L68.6 38.65L68.6 38.75L68.6 39.05L68.5 39.45L68.45 39.65L68.25 40.25L67.55 41L66.35 41.4L65.05 41.55L64 41.55L61.95 41.3Q60.95 41.1 60.7 40.35L60.55 39.7L60.55 39.65L60.55 39.55L60.55 39.5L60.55 39.05L60.6 38.85L60.95 38.15L60.9 38.25L60.8 38.45L60.75 38.8L60.75 39.25L60.75 39.35L60.75 39.5L60.75 39.6L60.85 39.85L60.9 39.95Q60.8 39.55 60.85 38.9L60.85 38.55L61.35 37.9L61.4 37.85L61.45 37.85L61.65 37.75L64.35 37.45L67.2 37.55L67.9 37.75L68 37.75" />
<path style="fill:#586063;fill-opacity:1" d="M60.75,39.45L60.75 39.5L60.75 39.35L60.75 39.25L60.75 38.8L60.8 38.45L60.9 38.25L60.95 38.15L60.6 38.85L60.55 39.05L60.55 39.15L60.6 39.15L60.65 39.5L60.75 39.45M68.45,38.4L68.4 38.3L68.4 38.25L68.5 38.55L68.55 38.85L68.5 39.45L68.6 39.05L68.6 38.75L68.6 38.65L68.6 38.5L68.4 38L68.1 37.8L68 37.8L68.1 37.85L68.15 37.85L68.25 37.95L68.4 38.4L68.4 38.45L68.4 38.6L68.45 38.4" />
<path style="fill:#848D8A;fill-opacity:1" d="M64.2,41.35L64.7 41.35L66.1 41.25Q67.2 41.15 67.65 40.7L68.3 39.75L68.45 39.1L68.45 38.9L68.45 38.6L68.45 38.5L68.45 38.4L68.4 38.6L68.4 38.9L68.35 39.25L68 40L67.2 40.85L65.8 41.15L64.2 41.2L63.2 41.15L62.3 41.05L61.5 40.75Q61 40.45 60.85 38.9Q60.8 39.55 60.9 39.95L60.85 39.85L60.75 39.6L60.75 39.5L60.75 39.45L60.65 39.5L60.75 39.85L61 40.45L61.6 41L62.9 41.3L64.2 41.35M68,37.8L68 37.75L67.9 37.75L68 37.8" />
<path style="fill:#F4FCF1;fill-opacity:1" d="M59.35,38.7L59.3 38.85L59.9 38.8L60.35 38.85L60.4 38.65L59.35 38.7" />
<path style="fill:#57604F;fill-opacity:1" d="M59.95,39L59.7 39L59.3 39L59.35 39.2L59.5 39.2L59.5 39.45L59.6 39.5L59.8 39.5L59.9 39.25L60.05 39.2L60.35 39.25L60.35 39.05L59.95 39" />
<path style="fill:#A0AA8F;fill-opacity:1" d="M60.35,39.5L60.35 39.25L60.05 39.2L59.9 39.25L59.8 39.5L60.35 39.5" />
<path style="fill:#A7AFA0;fill-opacity:1" d="M59.3,39L59.7 39L59.95 39L60.35 39.05L60.35 38.85L59.9 38.8L59.3 38.85L59.3 39" />
<linearGradient
id="LinearGradID_5231" gradientUnits="userSpaceOnUse" gradientTransform="matrix(0.00166321, 0.00314331, 0.00123596, -0.000671387, 62.6, 40.05)" spreadMethod ="pad" x1="-819.2" y1="0" x2="819.2" y2="0" >
<stop  offset="0" style="stop-color:#95A0A6;stop-opacity:1" />
<stop  offset="0.470588" style="stop-color:#F2FDFF;stop-opacity:1" />
<stop  offset="1" style="stop-color:#7D878C;stop-opacity:1" />
</linearGradient>
<path style="fill:url(#LinearGradID_5231) " d="M64.2,41.35L62.9 41.3L61.6 41L61 40.45L60.75 39.85L60.65 39.5L60.6 39.15L60.55 39.15L60.55 39.05L60.55 39.5L60.55 39.55L60.55 39.65L60.55 39.7L60.7 40.35Q60.95 41.1 61.95 41.3L64 41.55L64.2 41.35" />
<linearGradient
id="LinearGradID_5232" gradientUnits="userSpaceOnUse" gradientTransform="matrix(-0.003479, 0.00112915, 0.000595093, 0.00186157, 66.15, 39.85)" spreadMethod ="pad" x1="-819.2" y1="0" x2="819.2" y2="0" >
<stop  offset="0" style="stop-color:#7D878C;stop-opacity:1" />
<stop  offset="0.321569" style="stop-color:#F2FDFF;stop-opacity:1" />
<stop  offset="1" style="stop-color:#95A0A6;stop-opacity:1" />
</linearGradient>
<path style="fill:url(#LinearGradID_5232) " d="M64,41.55L65.05 41.55L66.35 41.4L67.55 41L68.25 40.25L68.45 39.65L68.5 39.45L68.55 38.85L68.5 38.55L68.4 38.25L68.4 38.3L68.45 38.4L68.45 38.5L68.45 38.6L68.45 38.9L68.45 39.1L68.3 39.75L67.65 40.7Q67.2 41.15 66.1 41.25L64.7 41.35L64.2 41.35L64 41.55" />
<radialGradient
id="RadialGradID_5233" gradientUnits="userSpaceOnUse" gradientTransform="matrix(-0.00692749, 0, 0, 0.00700378, 64.4, 37.25)" spreadMethod ="pad" cx="0" cy="0" r="819.2" fx="0" fy="0" >
<stop  offset="0"  style="stop-color:#EAF5F7;stop-opacity:1" />
<stop  offset="1"  style="stop-color:#95A0A6;stop-opacity:1" />
</radialGradient>
<path style="fill:url(#RadialGradID_5233) " d="M67.5,37.35L64.95 37.2L62.4 37.3L61.4 37.6Q60.9 37.8 61.3 37.7L62.5 37.5L64.75 37.35L66.15 37.35L67.45 37.45Q68.05 37.55 67.5 37.35" />
<radialGradient
id="RadialGradID_5234" gradientUnits="userSpaceOnUse" gradientTransform="matrix(0.0075531, 0, 0, 0.00764465, 79.45, 35.65)" spreadMethod ="pad" cx="0" cy="0" r="819.2" fx="0" fy="0" >
<stop  offset="0"  style="stop-color:#FFFFFF;stop-opacity:1" />
<stop  offset="1"  style="stop-color:#FFFFFF;stop-opacity:0" />
</radialGradient>
<path style="fill:url(#RadialGradID_5234) " d="M77.4,39.95L74.55 38.9L74.25 37.75L76.8 37.5L78.55 37.8Q79.15 38.1 79.1 38.9L79 40.2Q78.9 40.75 78.55 40.55L77.4 39.95" />
<radialGradient
id="RadialGradID_5235" gradientUnits="userSpaceOnUse" gradientTransform="matrix(-0.0075531, 0, 0, 0.00764465, 60.75, 35.65)" spreadMethod ="pad" cx="0" cy="0" r="819.2" fx="0" fy="0" >
<stop  offset="0"  style="stop-color:#FFFFFF;stop-opacity:1" />
<stop  offset="1"  style="stop-color:#FFFFFF;stop-opacity:0" />
</radialGradient>
<path style="fill:url(#RadialGradID_5235) " d="M62.8,39.95L65.65 38.9L65.95 37.75L63.4 37.5L61.65 37.8Q61.05 38.1 61.1 38.9L61.2 40.2Q61.3 40.75 61.65 40.55L62.8 39.95" />
</g>
</svg>
