<?xml version="1.0" encoding="utf-8"?>
<svg version="1.1" id="Layer_1"
xmlns="http://www.w3.org/2000/svg"
xmlns:xlink="http://www.w3.org/1999/xlink"
xmlns:author="http://www.sothink.com"
width="21px" height="5px"
xml:space="preserve">
<g id="649" transform="matrix(1, 0, 0, 1, -59.65, -37.25)">
<path style="fill:#1B2126;fill-opacity:1" d="M78.85,37.55L78.75 37.5L79.05 37.6L79.1 37.65L79.45 37.9L79.65 38.35L79.6 38.35L79.65 38.7L79.65 38.8L79.65 39Q79.5 40.15 78.4 41.1Q77.35 41.9 76.3 42.1L75.2 42.15Q74.25 42.15 73.6 41.7L72.8 41.15L72.55 40.9L72.15 40.25Q71.8 39.7 71.8 39.25L71.8 38.6L71.1 38.3L69.9 38.1L69.8 38.05L69.75 37.95L69.75 37.9L70.05 37.95L71.25 38.15L71.6 38.4L71.85 38.4L71.95 38.3L71.95 38.2L71.95 38.15L72.05 38.05Q72.2 38 72.3 37.9L72.5 37.9L72.3 38.05L72.2 38.15Q71.95 38.4 71.95 38.7Q71.95 39.45 72.4 40.1L73.3 41.15Q73.7 41.55 74.15 41.7L75.25 41.95L76.2 41.9L76.65 41.8L77.1 41.65L77.45 41.5L77.85 41.25L78.55 40.65L79.25 39.85L79.5 39L79.5 38.95L79.4 38.3L78.85 37.8L79.1 37.85L78.95 37.75L79.05 37.75L79.25 37.85L79.05 37.7L79.05 37.65L79 37.65L79.05 37.7L79 37.7L78.85 37.55" />
<path style="fill:#2F3437;fill-opacity:1" d="M79,37.65L79.05 37.65L79.05 37.7L79 37.65M73.8,37.5L74.65 37.45L75.05 37.4L75.95 37.4L77.6 37.45L78.85 37.55L79 37.7L79.05 37.7L79.25 37.85L79.05 37.75L78.95 37.75L79.1 37.85L78.85 37.8L77.4 37.55L75.65 37.5L75.1 37.5L73.55 37.65Q72.7 37.8 72.3 38.05L72.5 37.9L72.3 37.9Q72.95 37.55 73.8 37.5" />
<path style="fill:#B6BABD;fill-opacity:1" d="M79.8,38.4L80.15 38.4L80.45 38.5L80.45 38.55L80.4 38.55L79.7 38.5L79.8 38.4" />
<path style="fill:#4F4F4F;fill-opacity:1" d="M80.45,38.75L79.65 38.8L79.65 38.7L79.6 38.35L79.65 38.35L79.85 38.35L80.5 38.45L80.45 38.75M79.7,38.5L80.4 38.55L80.45 38.55L80.45 38.5L80.15 38.4L79.8 38.4L79.7 38.5" />
<path style="fill:#63686B;fill-opacity:1" d="M73.55,37.65L75.1 37.5L75.65 37.5L77.4 37.55L78.85 37.8L79.4 38.3L79.5 38.95L79.5 39L79.25 39.85L78.55 40.65L77.85 41.25L77.45 41.5L77.1 41.65L76.65 41.8L76.2 41.9L75.25 41.95L74.15 41.7Q73.7 41.55 73.3 41.15L72.4 40.1Q71.95 39.45 71.95 38.7Q71.95 38.4 72.2 38.15L72.3 38.05Q72.7 37.8 73.55 37.65M72.3,37.9Q72.2 38 72.05 38.05L72.2 37.9L72.3 37.8L74.05 37.45L75.65 37.35L77.2 37.35L78.85 37.55L77.6 37.45L75.95 37.4L75.05 37.4L74.65 37.45L73.8 37.5Q72.95 37.55 72.3 37.9M78.75,38L78.7 37.95L76.6 37.65L75.2 37.65L73.45 37.8Q71.85 38.15 72.4 39.6L72.5 39.8L73.2 40.75Q73.7 41.3 74.8 41.65Q77.1 41.9 78.65 40.25Q79.7 38.65 78.85 38.05L78.75 38" />
<path style="fill:#292E34;fill-opacity:1" d="M80.5,38.45L80.6 38.5L80.55 38.95L79.65 39L79.65 38.8L80.45 38.75L80.5 38.45" />
<path style="fill:#5D5D5D;fill-opacity:1" d="M71.95,38.2L71.95 38.3L71.85 38.4L71.6 38.4L71.25 38.15L70.05 37.95L69.75 37.9L69.8 37.8L69.9 37.75L70.75 37.8Q71.2 37.85 71.4 38.05L71.9 38.3L71.9 38.25L71.95 38.2M70.95,37.9L70.95 37.85L70.9 37.85L70.35 37.8L69.9 37.85L70 37.85L70.25 37.85L70.95 37.9" />
<path style="fill:#BDBDBD;fill-opacity:1" d="M70.25,37.85L70 37.85L69.9 37.85L70.35 37.8L70.9 37.85L70.95 37.9L70.25 37.85" />
<path style="fill:#A6A6A6;fill-opacity:1" d="M79,37.7L79.05 37.7L79 37.7M72.3,37.8L72.4 37.7L72.45 37.7L72.9 37.5L75.3 37.25L77.1 37.3L78.55 37.45L78.75 37.5L78.85 37.55L77.2 37.35L75.65 37.35L74.05 37.45L72.3 37.8" />
<radialGradient
id="RadialGradID_5258" gradientUnits="userSpaceOnUse" gradientTransform="matrix(0.00537109, 0, 0, 0.00411987, 75.55, 37.25)" spreadMethod ="pad" cx="0" cy="0" r="819.2" fx="0" fy="0" >
<stop  offset="0"  style="stop-color:#FFFFFF;stop-opacity:0.972549" />
<stop  offset="1"  style="stop-color:#FFFFFF;stop-opacity:0" />
</radialGradient>
<path style="fill:url(#RadialGradID_5258) " d="M78.7,37.65L78.9 37.75L79.25 37.95L78.1 37.65L77.55 37.55L76.8 37.5L74 37.55L73 37.7L73.8 37.45L75.7 37.35L76.05 37.35L78.1 37.5L78.65 37.65L78.7 37.65" />
<radialGradient
id="RadialGradID_5259" gradientUnits="userSpaceOnUse" gradientTransform="matrix(0.00456238, 0, 0, 0.00460815, 77.8, 40.45)" spreadMethod ="pad" cx="0" cy="0" r="819.2" fx="0" fy="0" >
<stop  offset="0"  style="stop-color:#FFFFFF;stop-opacity:0.972549" />
<stop  offset="1"  style="stop-color:#FFFFFF;stop-opacity:0" />
</radialGradient>
<path style="fill:url(#RadialGradID_5259) " d="M79.6,38.8L79.6 39L79.3 39.95L78.4 41L76.95 41.8L75.75 42L75.45 42L75.05 41.85L75.2 41.9Q77 41.95 78.25 40.9Q79.5 39.75 79.55 38.8L79.6 38.8" />
<radialGradient
id="RadialGradID_5260" gradientUnits="userSpaceOnUse" gradientTransform="matrix(0.00305176, 0, 0, 0.00308228, 71.95, 39.95)" spreadMethod ="pad" cx="0" cy="0" r="819.2" fx="0" fy="0" >
<stop  offset="0"  style="stop-color:#FFFFFF;stop-opacity:0.972549" />
<stop  offset="1"  style="stop-color:#FFFFFF;stop-opacity:0" />
</radialGradient>
<path style="fill:url(#RadialGradID_5260) " d="M74.05,41.65L73.9 41.6Q72.85 41.05 72.35 40.25Q71.85 39.4 71.9 38.95L72.2 38.2L72.3 38.1L72.3 38.05L72.3 38.1L72.8 37.9L72.85 37.9L72.25 38.4L72.25 38.35L72.25 38.4Q72.05 38.8 72.2 39.3L72.8 40.45L73.35 41.1L74.05 41.65" />
<path style="fill:#1B2126;fill-opacity:1" d="M68.35,38.25L68.4 38.3L68.4 38.35L68.45 38.45L68.7 38.45L69.05 38.2L70.2 38L70.2 38.15Q69.4 38.1 69.2 38.35L68.55 38.65L68.55 39.3L68.25 40.3L67.8 40.95L67.55 41.2L66.75 41.8L65.2 42.2L64.05 42.15Q62.95 42 61.95 41.15Q60.8 40.25 60.7 39.1L60.65 38.9L60.65 38.75L60.7 38.4L60.65 38.4L60.9 37.95L61.2 37.7L61.25 37.7L61.6 37.6L61.45 37.65L61.3 37.75L61.3 37.7L61.25 37.75L61.05 37.9L61.25 37.85L61.35 37.85L61.2 37.95L61.45 37.85L60.95 38.35Q60.8 38.55 60.8 39.05L60.8 39.1L61.1 39.9L61.8 40.75L62.5 41.3L62.85 41.6L63.25 41.75L63.65 41.9L64.1 42L65.1 42.05L66.15 41.8L67.05 41.2L67.95 40.2L68.4 38.75L68.15 38.2L68.05 38.1L67.8 37.95L68.05 38L68.3 38.1L68.35 38.25" />
<path style="fill:#2F3437;fill-opacity:1" d="M61.45,37.65L62.7 37.55L64.35 37.45L65.3 37.45L65.7 37.55L66.55 37.6L68.05 38L67.8 37.95L68.05 38.1Q67.6 37.85 66.8 37.75L65.25 37.6L64.65 37.6L62.9 37.65L61.45 37.85L61.2 37.95L61.35 37.85L61.25 37.85L61.05 37.9L61.25 37.75L61.3 37.7L61.3 37.75L61.45 37.65" />
<path style="fill:#B6BABD;fill-opacity:1" d="M59.85,38.6L59.85 38.55L60.2 38.45L60.5 38.45L60.6 38.55L59.9 38.6L59.85 38.6" />
<path style="fill:#4F4F4F;fill-opacity:1" d="M60.5,38.4L60.65 38.4L60.7 38.4L60.65 38.75L60.65 38.9L59.85 38.85Q59.75 38.75 59.8 38.5L60.5 38.4M59.9,38.6L60.6 38.55L60.5 38.45L60.2 38.45L59.85 38.55L59.85 38.6L59.9 38.6" />
<path style="fill:#63686B;fill-opacity:1" d="M63.1,37.4L64.65 37.4L66.25 37.55L68.05 37.9L68.15 37.95L68.3 38.1L68.05 38L66.55 37.6L65.7 37.55L65.3 37.45L64.35 37.45L62.7 37.55L61.45 37.65L63.1 37.4M61.45,37.85L62.9 37.65L64.65 37.6L65.25 37.6L66.8 37.75Q67.6 37.85 68.05 38.1L68.15 38.2L68.4 38.75L67.95 40.2L67.05 41.2L66.15 41.8L65.1 42.05L64.1 42L63.65 41.9L63.25 41.75L62.85 41.6L62.5 41.3L61.8 40.75L61.1 39.9L60.8 39.1L60.8 39.05Q60.8 38.55 60.95 38.35L61.45 37.85M61.45,38.1Q60.6 38.7 61.7 40.3Q63.25 42 65.55 41.75Q66.65 41.35 67.15 40.8L67.8 39.85L67.95 39.65Q68.45 38.2 66.85 37.85L65.15 37.75L63.7 37.7Q62.3 37.7 61.65 38.05L61.45 38.1" />
<path style="fill:#292E34;fill-opacity:1" d="M60.7,39.1L59.75 39.05Q59.6 38.95 59.7 38.55L59.8 38.5Q59.75 38.75 59.85 38.85L60.65 38.9L60.7 39.1" />
<path style="fill:#5D5D5D;fill-opacity:1" d="M70.2,38L69.05 38.2L68.7 38.45L68.45 38.45L68.4 38.35L68.4 38.3L68.4 38.35L68.95 38.1Q69.1 37.9 69.6 37.85L70.2 37.85L70.2 37.9L69.95 37.9L69.4 37.95L69.35 37.95L69.35 38L70.05 37.95L70.2 37.95L70.2 38" />
<path style="fill:#BDBDBD;fill-opacity:1" d="M69.4,37.95L69.95 37.9L70.2 37.9L70.2 37.95L70.05 37.95L69.35 38L69.35 37.95L69.4 37.95" />
<path style="fill:#A6A6A6;fill-opacity:1" d="M61.8,37.55L63.25 37.35L65.05 37.3L67.45 37.6L67.85 37.8L67.95 37.8L68.05 37.9L66.25 37.55L64.65 37.4L63.1 37.4L61.45 37.65L61.6 37.6L61.8 37.55" />
<radialGradient
id="RadialGradID_5261" gradientUnits="userSpaceOnUse" gradientTransform="matrix(-0.00537109, 0, 0, 0.00411987, 64.8, 37.25)" spreadMethod ="pad" cx="0" cy="0" r="819.2" fx="0" fy="0" >
<stop  offset="0"  style="stop-color:#FFFFFF;stop-opacity:0.972549" />
<stop  offset="1"  style="stop-color:#FFFFFF;stop-opacity:0" />
</radialGradient>
<path style="fill:url(#RadialGradID_5261) " d="M61.65,37.65L61.45 37.75Q61.15 37.8 61.1 37.95L62.25 37.65L62.85 37.55L63.55 37.5L66.35 37.55L67.35 37.7L66.55 37.45L64.65 37.35L64.3 37.35L62.25 37.5L61.7 37.65L61.65 37.65" />
<radialGradient
id="RadialGradID_5262" gradientUnits="userSpaceOnUse" gradientTransform="matrix(-0.00456238, 0, 0, 0.00460815, 62.55, 40.45)" spreadMethod ="pad" cx="0" cy="0" r="819.2" fx="0" fy="0" >
<stop  offset="0"  style="stop-color:#FFFFFF;stop-opacity:0.972549" />
<stop  offset="1"  style="stop-color:#FFFFFF;stop-opacity:0" />
</radialGradient>
<path style="fill:url(#RadialGradID_5262) " d="M60.75,38.8L60.75 39L61.05 39.95L61.95 41Q62.6 41.55 63.4 41.8L64.6 42L64.9 42L65.3 41.85L65.15 41.9Q63.35 41.95 62.1 40.9Q60.85 39.75 60.8 38.8L60.75 38.8" />
<radialGradient
id="RadialGradID_5263" gradientUnits="userSpaceOnUse" gradientTransform="matrix(-0.00305176, 0, 0, 0.00308228, 68.4, 39.95)" spreadMethod ="pad" cx="0" cy="0" r="819.2" fx="0" fy="0" >
<stop  offset="0"  style="stop-color:#FFFFFF;stop-opacity:0.972549" />
<stop  offset="1"  style="stop-color:#FFFFFF;stop-opacity:0" />
</radialGradient>
<path style="fill:url(#RadialGradID_5263) " d="M66.3,41.65L66.45 41.6Q67.5 41.05 68 40.25Q68.5 39.4 68.45 38.95L68.15 38.2L68.05 38.1L68.05 38.05L68.05 38.1L67.6 37.9L67.5 37.9Q68 38.1 68.1 38.4L68.1 38.35L68.1 38.4Q68.3 38.8 68.15 39.3Q68.05 39.85 67.55 40.45L67 41.1L66.3 41.65" />
<radialGradient
id="RadialGradID_5264" gradientUnits="userSpaceOnUse" gradientTransform="matrix(0.00758362, 0, 0, 0.00762939, 79.3, 35.9)" spreadMethod ="pad" cx="0" cy="0" r="819.2" fx="0" fy="0" >
<stop  offset="0"  style="stop-color:#FFFFFF;stop-opacity:1" />
<stop  offset="1"  style="stop-color:#FFFFFF;stop-opacity:0" />
</radialGradient>
<path style="fill:url(#RadialGradID_5264) " d="M78.5,38.1Q79.15 38.35 79.05 39.1L79.05 39.15L78.7 39.85Q78.45 40.45 78 40.6L77.2 40.25Q76.45 39.85 74.35 39.15L74.05 38L76.6 37.8L78.5 38.1" />
<radialGradient
id="RadialGradID_5265" gradientUnits="userSpaceOnUse" gradientTransform="matrix(-0.00758362, 0, 0, 0.00762939, 60.85, 35.85)" spreadMethod ="pad" cx="0" cy="0" r="819.2" fx="0" fy="0" >
<stop  offset="0"  style="stop-color:#FFFFFF;stop-opacity:1" />
<stop  offset="1"  style="stop-color:#FFFFFF;stop-opacity:0" />
</radialGradient>
<path style="fill:url(#RadialGradID_5265) " d="M63.55,37.75L66.05 37.95L65.8 39.1Q63.7 39.8 62.9 40.2L62.2 40.55L61.4 39.8L61.15 39.1L61.15 39.05Q61 38.3 61.7 38.05L63.55 37.75" />
</g>
</svg>
