<?xml version="1.0" encoding="utf-8"?>
<svg version="1.1" id="Layer_1"
xmlns="http://www.w3.org/2000/svg"
xmlns:xlink="http://www.w3.org/1999/xlink"
xmlns:author="http://www.sothink.com"
width="21px" height="7px"
xml:space="preserve">
<g id="627" transform="matrix(1, 0, 0, 1, -60.05, -29.65)">
<path style="fill:#B0B2AF;fill-opacity:1" d="M72.15,33.85L72 33.55L71.75 32.9L71.95 33.7L72 33.8L72.05 34L71.95 33.9L71.9 33.8L71.5 32.8L71.65 32.7L71.85 32.85L72 33.4L72.05 33.45L72.1 33.55L72.15 33.55L72.2 33.8L72.2 33.7L72.2 33.8L72.45 34.35L72.15 33.85" />
<path style="fill:#D8D9DB;fill-opacity:1" d="M72.3,34.2L72.1 33.85L72.2 34.05L72.2 34.3L72.05 34.15L72 34.1L71.8 33.75Q71.65 33.6 71.75 33.8L72 34.35L71.85 34.2L71.7 33.95L71.5 33.15L71.5 32.8L71.9 33.8L71.95 33.9L72.05 34L72 33.8L71.95 33.7L71.75 32.9L72 33.55L72.15 33.85L72.45 34.35L72.5 34.45L72.45 34.5L72.3 34.2" />
<path style="fill:#FAFAFA;fill-opacity:1" d="M72.45,34.5L72.2 34.5L72.1 34.55L72 34.4L72 34.35L71.75 33.8Q71.65 33.6 71.8 33.75L72 34.1L72.05 34.15L72.2 34.3L72.2 34.05L72.1 33.85L72.3 34.2L72.45 34.5" />
<path style="fill:#000000;fill-opacity:1" d="M69.5,31.3L69.8 31.25L70.8 31.3L71.4 31.4L71.55 31.25L71.65 31.25L71.6 31.4L71.55 31.6L70.8 31.45L70.65 31.45L69.7 31.4L68.7 31.65L68.6 31.6L68.5 31.5L68.5 31.4L68.6 31.3L69.5 31.05L69.5 31.3M79.65,32.55L79.65 32.4Q79.85 32.1 79.65 31.85L79.25 31.4L79.1 31.25L79.15 31.25L79.35 31.35L79.8 31.75L79.8 31.85L79.85 32.2L79.8 32.5L79.65 32.7L79.65 32.55" />
<path style="fill:#4B4A4F;fill-opacity:1" d="M69.5,31.05L69.7 31.05L70.7 31.05L70.9 31.1L71.55 31.25L71.4 31.4L70.8 31.3L69.8 31.25L69.5 31.3L69.5 31.05M71.4,31.25L70.85 31.15L70.1 31.1L69.6 31.2L70.8 31.2L71.2 31.3L71.4 31.25" />
<path style="fill:#A1A0A5;fill-opacity:1" d="M79.65,32.95Q80 32.6 80 32.05L79.9 31.65L79.4 31.25L78.9 31L78.65 30.75L78.9 30.85L79.65 31.25L80.1 31.95L80 32.7L79.65 33.1L79.65 32.95M79.65,33.05L79.65 33.1L79.65 33.05M71.2,31.3L70.8 31.2L69.6 31.2L70.1 31.1L70.85 31.15L71.4 31.25L71.2 31.3" />
<path style="fill:#676767;fill-opacity:1" d="M79.65,33.15L79.65 33.1L79.65 33.05L79.65 33.1L79.65 33.15M71.85,31.6L71.9 31.45L71.9 31.4L71.85 31.6M79.55,33.4L79.5 33.5L79.5 33.4L79.55 33.4" />
<path style="fill:#343338;fill-opacity:1" d="M72.7,34.15L72.45 33.8L72.1 33.25L71.95 32.75L71.85 32.4L71.85 32L71.85 31.65L71.85 31.6L71.9 31.4L71.95 31.35L71.95 31.3L72 31.15L72.15 30.75L72.4 30.6Q73.35 29.85 75.35 29.85L77.05 30.15L78 30.55L78.7 31L79.1 31.45L79.15 31.55L79.2 31.6L79.3 31.85L79.3 32.2L79.3 32.35L79.3 32.4L79.3 32.5L79.3 32.6L79.3 33.05L79.1 33.65L78.6 34.4L77.9 34.95L77.85 34.95L76.55 35.45L76.55 35.25L77.1 35.1L77.5 34.9L78.35 34.35L78.95 33.5L79.05 32.6L78.85 31.85L78.45 31.3Q76.5 29.6 73.4 30.4L73 30.6L72.7 30.8L72.4 31.15Q71.85 32.05 72.3 33.2L72.95 34.15L72.7 34.15" />
<path style="fill:#45444A;fill-opacity:1" d="M78.9,31L79.4 31.25L79.9 31.65L80 32.05Q80 32.6 79.65 32.95L79.65 32.9L79.65 32.7L79.8 32.5L79.85 32.2L79.8 31.85L79.8 31.75L79.35 31.35L79.15 31.25L79.1 31.25L78.9 31.05L78.95 31.05L78.9 31" />
<radialGradient
id="RadialGradID_4990" gradientUnits="userSpaceOnUse" gradientTransform="matrix(0.00762939, 0, 0, 0.00762939, 75.55, 30.15)" spreadMethod ="pad" cx="0" cy="0" r="819.2" fx="0" fy="0" >
<stop  offset="0"  style="stop-color:#6D6D6D;stop-opacity:1" />
<stop  offset="0.470588"  style="stop-color:#383838;stop-opacity:1" />
<stop  offset="1"  style="stop-color:#000000;stop-opacity:1" />
</radialGradient>
<path style="fill:url(#RadialGradID_4990) " d="M79.65,32.7L79.65 32.9L79.65 32.95L79.65 33.1L79.65 33.15L79.55 33.6L79.15 34.45L79.05 34.55Q78.3 35.35 77.25 35.7Q75.5 36.1 74.05 35.65Q72.9 35.2 72.3 34.25L72.2 34.15L71.7 33.25L71.7 33.2L71.55 32.3L71.55 31.6L71.6 31.4L71.65 31.25L71.7 31.15L72.15 30.6L72.75 30.1L73.65 29.8L74.95 29.65L76.45 29.75L77.5 30.05L78.6 30.75L78.65 30.75L78.9 31L78.95 31.05L78.9 31.05L79.1 31.25L79.25 31.4L79.3 31.45L79.55 31.95L79.6 32.05L79.65 32.4L79.65 32.55L79.65 32.7M71.9,31.45L71.85 31.6L71.85 31.65L71.85 32L71.85 32.4L71.95 32.75L72.1 33.25L72.45 33.8L72.7 34.15L73.15 34.6L73.35 34.8Q73.95 35.35 75.25 35.5L75.35 35.5L76.55 35.45L77.85 34.95L77.9 34.95L78.6 34.4L79.1 33.65L79.3 33.05L79.3 32.6L79.3 32.5L79.3 32.4L79.3 32.35L79.3 32.2L79.3 31.85L79.2 31.6L79.15 31.55L79.1 31.45L78.7 31L78 30.55L77.05 30.15L75.35 29.85Q73.35 29.85 72.4 30.6L72.15 30.75L72 31.15L71.95 31.3L71.95 31.35L71.9 31.4L71.9 31.45M79.65,33.1L79.65 33.15L79.65 33.1M79.5,33.4L79.5 33.5L79.55 33.4L79.5 33.4" />
<radialGradient
id="RadialGradID_4991" gradientUnits="userSpaceOnUse" gradientTransform="matrix(0.00262451, 0, 0, 0.00262451, 74.65, 34.85)" spreadMethod ="pad" cx="0" cy="0" r="819.2" fx="0" fy="0" >
<stop  offset="0"  style="stop-color:#6D6D6D;stop-opacity:1" />
<stop  offset="0.470588"  style="stop-color:#383838;stop-opacity:1" />
<stop  offset="1"  style="stop-color:#000000;stop-opacity:1" />
</radialGradient>
<path style="fill:url(#RadialGradID_4991) " d="M72.95,34.15L73.7 34.85Q74.75 35.45 76.4 35.25L76.55 35.25L76.55 35.45L75.35 35.5L75.25 35.5Q73.95 35.35 73.35 34.8L73.15 34.6L72.7 34.15L72.95 34.15" />
<path style="fill:#D8D7DE;fill-opacity:1" d="M80,32.2L79.65 31.6L78.95 30.95L79.6 31.25Q80.05 31.55 80 32.2" />
<radialGradient
id="RadialGradID_4992" gradientUnits="userSpaceOnUse" gradientTransform="matrix(0.00344849, 0, 0, 0.00344849, 79.45, 31.25)" spreadMethod ="pad" cx="0" cy="0" r="819.2" fx="0" fy="0" >
<stop  offset="0"  style="stop-color:#FFFFFF;stop-opacity:1" />
<stop  offset="1"  style="stop-color:#FFFFFF;stop-opacity:0" />
</radialGradient>
<path style="fill:url(#RadialGradID_4992) " d="M76.9,30.05L77.35 30.15L77.65 30.3L78.05 30.5L78.45 30.75L78.75 31L79 31.3L79.25 31.6L79.4 31.95L79.45 32.2L79.5 32.45L79.5 32.75L79.4 33.2L79.35 33.35L79.35 33.45L79.25 33.7L79.1 33.9L78.9 34.15L79.15 33.55L79.2 33.35L79.25 33.2L79.25 32.8L79.25 32.5L79.15 32.15L79.1 31.9L78.8 31.45L78.35 31L78.3 30.95L78.1 30.8L77.95 30.7L77.8 30.6L77.7 30.5L77.25 30.3L76.85 30.05L76.9 30.05" />
<radialGradient
id="RadialGradID_4993" gradientUnits="userSpaceOnUse" gradientTransform="matrix(0.00352478, 0, 0, 0.00352478, 72.8, 30.6)" spreadMethod ="pad" cx="0" cy="0" r="819.2" fx="0" fy="0" >
<stop  offset="0"  style="stop-color:#FFFFFF;stop-opacity:1" />
<stop  offset="1"  style="stop-color:#FFFFFF;stop-opacity:0" />
</radialGradient>
<path style="fill:url(#RadialGradID_4993) " d="M72.8,30.5L72.5 30.75L72.3 31L72.1 31.3L72 31.6L71.9 32L71.9 32.5L72 33L72.05 33.25L71.95 33.05L71.85 32.7L71.8 32.55L71.75 31.95L71.75 31.5L71.9 31.1L72.05 30.85L72.2 30.7L72.5 30.45L72.8 30.25L73.4 30.05L74.1 29.9L74.65 29.85L75.35 29.9L74.8 29.95L74.3 30L74.05 30.05L73.65 30.15L73.2 30.3L72.8 30.5" />
<radialGradient
id="RadialGradID_4994" gradientUnits="userSpaceOnUse" gradientTransform="matrix(0.00639343, 0, 0, 0.00639343, 76.45, 36.25)" spreadMethod ="pad" cx="0" cy="0" r="819.2" fx="0" fy="0" >
<stop  offset="0"  style="stop-color:#FFFFFF;stop-opacity:1" />
<stop  offset="1"  style="stop-color:#FFFFFF;stop-opacity:0" />
</radialGradient>
<path style="fill:url(#RadialGradID_4994) " d="M74.85,35.5L74.45 35.45L74.1 35.3L73.8 35.15L73.45 34.85Q73.2 34.65 73.55 34.85L74.3 35.2L75.1 35.3L75.6 35.35L75.85 35.3L76.15 35.3L76.6 35.2L76.6 35.25L76.65 35.25L77 35.1L77.35 34.95L77.65 34.8L77.9 34.65L78.5 34.1L78.3 34.5L77.95 34.85L77.65 35.05L77.25 35.25L76.8 35.4L76.65 35.45L76.6 35.45L76.4 35.5L75.9 35.55L75.5 35.55L75.2 35.55L74.85 35.5" />
<path style="fill:#B0B2AF;fill-opacity:1" d="M68,33.85L68.15 33.55L68.4 32.9L68.2 33.7L68.15 33.8L68.1 34L68.2 33.9L68.25 33.8L68.65 32.8L68.5 32.7L68.3 32.85L68.15 33.4L68.1 33.45L68.05 33.55L68 33.55L67.95 33.8L67.95 33.7L67.95 33.8L67.7 34.35L68 33.85" />
<path style="fill:#D8D9DB;fill-opacity:1" d="M67.85,34.2L68.05 33.85L67.95 34.05L67.95 34.3L68.1 34.15L68.15 34.1L68.35 33.75L68.4 33.8L68.15 34.35L68.3 34.2L68.45 33.95L68.65 33.15L68.65 32.8L68.25 33.8L68.2 33.9L68.1 34L68.15 33.8L68.2 33.7L68.4 32.9L68.15 33.55L68 33.85L67.7 34.35L67.65 34.45L67.7 34.5L67.85 34.2" />
<path style="fill:#FAFAFA;fill-opacity:1" d="M67.7,34.5L67.95 34.5L68.05 34.55L68.15 34.4L68.15 34.35L68.4 33.8L68.35 33.75L68.15 34.1L68.1 34.15L67.95 34.3L67.95 34.05L68.05 33.85L67.85 34.2L67.7 34.5" />
<path style="fill:#000000;fill-opacity:1" d="M60.4,32.5L60.3 32.2L60.35 31.85L60.4 31.75Q60.5 31.55 60.85 31.35L61 31.25L61.1 31.25L60.95 31.4L60.5 31.85Q60.3 32.1 60.5 32.4L60.5 32.55L60.5 32.7L60.4 32.5M68.65,31.25L68.75 31.4L69.35 31.3L70.4 31.25L70.7 31.3L70.7 31.05L71.55 31.3L71.7 31.4L71.7 31.5L71.6 31.6L71.45 31.65L70.45 31.4L69.5 31.45L69.35 31.45L68.65 31.6L68.6 31.6L68.6 31.4L68.55 31.25L68.65 31.25" />
<path style="fill:#4B4A4F;fill-opacity:1" d="M69.25,31.1L69.45 31.05L70.5 31.05L70.7 31.05L70.7 31.3L70.4 31.25L69.35 31.3L68.75 31.4L68.65 31.25L69.25 31.1M70.05,31.1L69.35 31.15L68.75 31.25L68.95 31.3L69.4 31.2L70.55 31.2L70.05 31.1" />
<path style="fill:#A1A0A5;fill-opacity:1" d="M60.8,31.25Q60.4 31.45 60.3 31.65L60.2 32.05Q60.15 32.6 60.5 32.95L60.55 33.1L60.5 33.05L60.5 33.1L60.2 32.7L60.05 31.95Q60.1 31.5 60.5 31.25Q60.8 31 61.25 30.85L61.55 30.75L61.3 31L60.8 31.25M70.55,31.2L69.4 31.2L68.95 31.3L68.75 31.25L69.35 31.15L70.05 31.1L70.55 31.2" />
<path style="fill:#676767;fill-opacity:1" d="M60.5,33.1L60.5 33.05L60.55 33.1L60.55 33.15L60.5 33.1M60.65,33.4L60.7 33.5L60.65 33.4M68.3,31.6L68.25 31.4L68.3 31.45L68.3 31.6" />
<path style="fill:#343338;fill-opacity:1" d="M68.3,31.6L68.3 31.65L68.35 32L68.3 32.4L68.25 32.75L68.05 33.25L67.75 33.8L67.45 34.15L67.2 34.15L67.85 33.2Q68.3 32.05 67.8 31.15L67.5 30.8L67.15 30.6L66.75 30.4Q63.65 29.6 61.75 31.3L61.3 31.85Q61.15 32.1 61.15 32.6L61.25 33.5L61.85 34.35L62.65 34.9L63.05 35.1L63.6 35.25L63.6 35.45L62.3 34.95L61.55 34.4L61.1 33.65L60.9 33.05L60.85 32.6L60.85 32.5L60.85 32.4L60.85 32.35L60.85 32.2L60.85 31.85L61 31.6L61 31.55L61.1 31.45L61.5 31L62.15 30.55L63.1 30.15L64.8 29.85Q66.8 29.85 67.8 30.6L68 30.75L68.2 31.15L68.25 31.3L68.25 31.35L68.25 31.4L68.3 31.6" />
<path style="fill:#45444A;fill-opacity:1" d="M60.5,32.7L60.5 32.9L60.5 32.95Q60.15 32.6 60.2 32.05L60.3 31.65Q60.4 31.45 60.8 31.25L61.3 31L61.25 31.05L61.1 31.25L61 31.25L60.85 31.35Q60.5 31.55 60.4 31.75L60.35 31.85L60.3 32.2L60.4 32.5L60.5 32.7" />
<radialGradient
id="RadialGradID_4995" gradientUnits="userSpaceOnUse" gradientTransform="matrix(-0.00762939, 0, 0, 0.00762939, 64.6, 30.15)" spreadMethod ="pad" cx="0" cy="0" r="819.2" fx="0" fy="0" >
<stop  offset="0"  style="stop-color:#6D6D6D;stop-opacity:1" />
<stop  offset="0.470588"  style="stop-color:#383838;stop-opacity:1" />
<stop  offset="1"  style="stop-color:#000000;stop-opacity:1" />
</radialGradient>
<path style="fill:url(#RadialGradID_4995) " d="M61.1,31.25L61.25 31.05L61.3 31L61.55 30.75Q62.2 30.2 62.7 30.05L63.75 29.75L65.25 29.65L66.5 29.8L67.4 30.1L68.05 30.6L68.5 31.15L68.55 31.25L68.6 31.4L68.6 31.6L68.65 32.3L68.45 33.2L68.45 33.25L67.95 34.15L67.9 34.25Q67.25 35.2 66.15 35.65Q64.65 36.1 62.95 35.7Q61.85 35.35 61.1 34.55L61 34.45L60.6 33.6L60.55 33.15L60.55 33.1L60.5 32.95L60.5 32.9L60.5 32.7L60.5 32.55L60.5 32.4L60.6 32.05L60.6 31.95L60.9 31.45L60.95 31.4L61.1 31.25M60.55,33.15L60.5 33.1L60.55 33.15M60.7,33.5L60.65 33.4L60.7 33.5M67.45,34.15L67.75 33.8L68.05 33.25L68.25 32.75L68.3 32.4L68.35 32L68.3 31.65L68.3 31.6L68.3 31.45L68.25 31.4L68.25 31.35L68.25 31.3L68.2 31.15L68 30.75L67.8 30.6Q66.8 29.85 64.8 29.85L63.1 30.15L62.15 30.55L61.5 31L61.1 31.45L61 31.55L61 31.6L60.85 31.85L60.85 32.2L60.85 32.35L60.85 32.4L60.85 32.5L60.85 32.6L60.9 33.05L61.1 33.65L61.55 34.4L62.3 34.95L63.6 35.45L64.8 35.5L64.9 35.5Q66.2 35.35 66.85 34.8L67.05 34.6L67.45 34.15" />
<radialGradient
id="RadialGradID_4996" gradientUnits="userSpaceOnUse" gradientTransform="matrix(-0.00262451, 0, 0, 0.00262451, 65.5, 34.85)" spreadMethod ="pad" cx="0" cy="0" r="819.2" fx="0" fy="0" >
<stop  offset="0"  style="stop-color:#6D6D6D;stop-opacity:1" />
<stop  offset="0.470588"  style="stop-color:#383838;stop-opacity:1" />
<stop  offset="1"  style="stop-color:#000000;stop-opacity:1" />
</radialGradient>
<path style="fill:url(#RadialGradID_4996) " d="M67.05,34.6L66.85 34.8Q66.2 35.35 64.9 35.5L64.8 35.5L63.6 35.45L63.6 35.25L63.75 35.25Q65.4 35.45 66.45 34.85L67.2 34.15L67.45 34.15L67.05 34.6" />
<path style="fill:#D8D7DE;fill-opacity:1" d="M60.15,32.2L60.5 31.6L61.2 30.95Q61.35 30.8 60.55 31.25Q60.1 31.55 60.15 32.2" />
<radialGradient
id="RadialGradID_4997" gradientUnits="userSpaceOnUse" gradientTransform="matrix(-0.00344849, 0, 0, 0.00344849, 60.7, 31.25)" spreadMethod ="pad" cx="0" cy="0" r="819.2" fx="0" fy="0" >
<stop  offset="0"  style="stop-color:#FFFFFF;stop-opacity:1" />
<stop  offset="1"  style="stop-color:#FFFFFF;stop-opacity:0" />
</radialGradient>
<path style="fill:url(#RadialGradID_4997) " d="M63.25,30.05L62.8 30.15L62.5 30.3L62.1 30.5L61.7 30.75L61.4 31L61.15 31.3L60.9 31.6L60.75 31.95L60.7 32.2L60.65 32.45L60.65 32.75L60.75 33.2L60.8 33.35L60.8 33.45L60.9 33.7L61.05 33.9L61.25 34.15L61 33.55L60.95 33.35L60.9 33.2L60.9 32.8L60.9 32.5L61 32.15L61.05 31.9L61.35 31.45L61.8 31L61.85 30.95L62.05 30.8L62.2 30.7L62.35 30.6L62.45 30.5L62.9 30.3L63.3 30.05L63.25 30.05" />
<radialGradient
id="RadialGradID_4998" gradientUnits="userSpaceOnUse" gradientTransform="matrix(-0.00352478, 0, 0, 0.00352478, 67.35, 30.6)" spreadMethod ="pad" cx="0" cy="0" r="819.2" fx="0" fy="0" >
<stop  offset="0"  style="stop-color:#FFFFFF;stop-opacity:1" />
<stop  offset="1"  style="stop-color:#FFFFFF;stop-opacity:0" />
</radialGradient>
<path style="fill:url(#RadialGradID_4998) " d="M67.35,30.5L67.65 30.75L67.85 31L68.05 31.3L68.15 31.6L68.25 32L68.25 32.5L68.15 33L68.1 33.25L68.2 33.05L68.3 32.7L68.35 32.55L68.4 31.95L68.4 31.5L68.25 31.1L68.1 30.85L67.95 30.7L67.65 30.45L67.35 30.25L66.75 30.05L66.05 29.9L65.5 29.85L64.8 29.9L65.35 29.95L65.85 30L66.1 30.05L66.5 30.15L66.95 30.3L67.35 30.5" />
<radialGradient
id="RadialGradID_4999" gradientUnits="userSpaceOnUse" gradientTransform="matrix(-0.00639343, 0, 0, 0.00639343, 63.7, 36.25)" spreadMethod ="pad" cx="0" cy="0" r="819.2" fx="0" fy="0" >
<stop  offset="0"  style="stop-color:#FFFFFF;stop-opacity:1" />
<stop  offset="1"  style="stop-color:#FFFFFF;stop-opacity:0" />
</radialGradient>
<path style="fill:url(#RadialGradID_4999) " d="M65.3,35.5L65.7 35.45L66.05 35.3L66.35 35.15L66.7 34.85Q66.95 34.65 66.6 34.85L65.85 35.2L65.05 35.3L64.55 35.35L64.3 35.3L64 35.3L63.55 35.2L63.55 35.25L63.5 35.25L63.15 35.1L62.8 34.95L62.5 34.8L62.25 34.65L61.65 34.1L61.85 34.5L62.2 34.85L62.5 35.05L62.9 35.25L63.35 35.4L63.5 35.45L63.55 35.45L63.75 35.5L64.25 35.55L64.65 35.55L64.95 35.55L65.3 35.5" />
</g>
</svg>
