<?xml version="1.0" encoding="utf-8"?>
<svg version="1.1" id="Layer_1"
xmlns="http://www.w3.org/2000/svg"
xmlns:xlink="http://www.w3.org/1999/xlink"
xmlns:author="http://www.sothink.com"
width="15px" height="8px"
xml:space="preserve">
<g id="287" transform="matrix(1, 0, 0, 1, -84.1, -57.55)">
<radialGradient
id="RadialGradID_2770" gradientUnits="userSpaceOnUse" gradientTransform="matrix(-0.000137329, -0.00346375, -0.00650024, 0.000366211, 91.4, 63.25)" spreadMethod ="pad" cx="0" cy="0" r="819.2" fx="0" fy="0" >
<stop  offset="0.0470588"  style="stop-color:#DA6969;stop-opacity:0.513725" />
<stop  offset="1"  style="stop-color:#FFEFEA;stop-opacity:0" />
</radialGradient>
<path style="fill:url(#RadialGradID_2770) " d="M93.6,61.4L94.3 61.65Q95.45 62.15 95.45 63.05L95.45 63.15Q95.45 64 94.4 64.7Q93.2 65.4 91.5 65.5L88.65 65.05Q87.4 64.45 87.35 63.55L87.45 63.05Q87.7 62.45 88.6 62Q89.65 61.25 91.3 61.15L91.35 61.15L93.6 61.4" />
<radialGradient
id="RadialGradID_2771" gradientUnits="userSpaceOnUse" gradientTransform="matrix(0.00186157, -9.15527e-005, 6.10352e-005, 0.00204468, 85.5, 59.35)" spreadMethod ="pad" cx="0" cy="0" r="819.2" fx="0" fy="0" >
<stop  offset="0.0470588"  style="stop-color:#C52929;stop-opacity:0.580392" />
<stop  offset="1"  style="stop-color:#FFEFEA;stop-opacity:0" />
</radialGradient>
<path style="fill:url(#RadialGradID_2771) " d="M85.55,60.95Q84.95 60.95 84.5 60.55Q84.1 60.1 84.1 59.45Q84.05 58.75 84.4 58.3Q84.85 57.75 85.45 57.75Q86.05 57.75 86.5 58.15Q86.95 58.65 87 59.3Q87 59.95 86.55 60.4Q86.15 60.95 85.55 60.95" />
<radialGradient
id="RadialGradID_2772" gradientUnits="userSpaceOnUse" gradientTransform="matrix(-0.00186157, -9.15527e-005, -6.10352e-005, 0.00204468, 97.1, 59.3)" spreadMethod ="pad" cx="0" cy="0" r="819.2" fx="0" fy="0" >
<stop  offset="0.0470588"  style="stop-color:#C52929;stop-opacity:0.580392" />
<stop  offset="1"  style="stop-color:#FFEFEA;stop-opacity:0" />
</radialGradient>
<path style="fill:url(#RadialGradID_2772) " d="M95.6,59.2Q95.7 58.55 96.1 58.1Q96.55 57.7 97.15 57.7Q97.75 57.7 98.2 58.25Q98.55 58.7 98.5 59.4Q98.5 60.05 98.1 60.5Q97.65 60.9 97.05 60.9Q96.5 60.9 96.1 60.4Q97.1 59.65 96.2 59.7L96.95 59.55L97 59.5L97.1 59.05L97.05 58.85L96.85 59L96.75 59.05L96.6 59.2L95.6 59.2M96.55,59.25L96.45 59.3L96.35 59.3L96.25 59.35L96.15 59.35L96.05 59.4L96 59.4L95.95 59.4L96.55 59.25" />
<path style="fill:#E9B386;fill-opacity:1" d="M91.2,58.05L91.65 57.55L91.7 58.1L91.5 58.4L91.3 58.45L91.2 58.45L90.9 58.25L91.15 58.05L91.2 58.05" />
<radialGradient
id="RadialGradID_2773" gradientUnits="userSpaceOnUse" gradientTransform="matrix(-0.00834656, -0.000427246, -0.000152588, 0.00764465, 90.85, 60.75)" spreadMethod ="pad" cx="0" cy="0" r="819.2" fx="0" fy="0" >
<stop  offset="0"  style="stop-color:#F84B80;stop-opacity:1" />
<stop  offset="1"  style="stop-color:#FDD0D0;stop-opacity:0.501961" />
</radialGradient>
<path style="fill:url(#RadialGradID_2773) " d="M96.6,59.2L96.65 59.2L96.55 59.25L95.95 59.4L96 59.4L95.35 59.6L95.2 59.6L94.65 59.7L94.3 59.7L93.3 59.85L92.9 59.85L92.6 59.75L91.3 60L91.3 59.5Q92.9 58.85 93.9 59.1L95.6 59.2L96.6 59.2" />
<radialGradient
id="RadialGradID_2774" gradientUnits="userSpaceOnUse" gradientTransform="matrix(-0.00827026, 1.52588e-005, 0, 0.0120087, 91.05, 59.4)" spreadMethod ="pad" cx="0" cy="0" r="819.2" fx="0" fy="0" >
<stop  offset="0.760784"  style="stop-color:#EB5858;stop-opacity:1" />
<stop  offset="1"  style="stop-color:#D24F4F;stop-opacity:1" />
</radialGradient>
<path style="fill:url(#RadialGradID_2774) " d="M92.95,60.25L92.9 60.2L91.3 60.15L91.3 60L92.6 59.75L92.9 59.85L93.3 59.85L94.3 59.7L94.65 59.7L95.2 59.6L95.35 59.6L96 59.4L96.05 59.4L96.15 59.35L96.25 59.35L96.35 59.3L96.45 59.3L96.55 59.25L96.65 59.2L96.6 59.2L96.75 59.05L96.85 59L97.05 58.85L97.1 59.05L97 59.5L96.95 59.55L96.2 59.7L96.05 59.7L95.9 59.75L95.8 59.85L95.6 59.85L95.5 59.9L95.25 59.9L94 60.05L93.9 60.05L93.6 60.1L93.35 60.1L93.2 60.15L93.1 60.2L93 60.2L93 60.25L92.95 60.25M94,60L93.6 60L93.6 60.1L94 60" />
<radialGradient
id="RadialGradID_2775" gradientUnits="userSpaceOnUse" gradientTransform="matrix(-0.00827026, -0.000488281, -0.000335693, 0.0120392, 91.05, 59.4)" spreadMethod ="pad" cx="0" cy="0" r="819.2" fx="0" fy="0" >
<stop  offset="0.760784"  style="stop-color:#A52727;stop-opacity:1" />
<stop  offset="1"  style="stop-color:#652323;stop-opacity:1" />
</radialGradient>
<path style="fill:url(#RadialGradID_2775) " d="M93.6,60.25L93.5 60.2L93.45 60.25L93 60.25L93 60.2L93.1 60.2L93.2 60.15L93.35 60.1L93.6 60.1L93.9 60.05L94 60.05L95.25 59.9L93.6 60.25M91.3,60.25L91.3 60.15L92.9 60.2L92.95 60.25L91.3 60.25" />
<radialGradient
id="RadialGradID_2776" gradientUnits="userSpaceOnUse" gradientTransform="matrix(-0.0101318, -0.000305176, -7.62939e-005, 0.00497437, 91.1, 60.05)" spreadMethod ="pad" cx="0" cy="0" r="819.2" fx="0" fy="0" >
<stop  offset="0"  style="stop-color:#F84B80;stop-opacity:1" />
<stop  offset="1"  style="stop-color:#FDD0D0;stop-opacity:0.501961" />
</radialGradient>
<path style="fill:url(#RadialGradID_2776) " d="M96.1,60.4L95.2 61Q92.95 62.35 91.9 62.2L91.3 62.2L91.3 61.1L91.75 61.45L91.9 61.5L92.2 61.15L92.2 61.45L92.8 61.4L93 60.95L93.25 61.2Q93.5 60.85 93.15 60.5L93.1 60.65L92.95 60.6L92.15 60.6L91.3 60.8L93.05 60.65L93 60.75L92.5 60.75Q92.3 60.7 92.2 60.9L91.3 61.05L91.3 60.8L91.3 60.25L92.95 60.25L93 60.25L93.45 60.25L93.5 60.2L93.6 60.25L95.25 59.9L95.5 59.9L95.6 59.85L95.8 59.85L95.9 59.75L96.05 59.7L96.2 59.7Q97.1 59.65 96.1 60.4" />
<radialGradient
id="RadialGradID_2777" gradientUnits="userSpaceOnUse" gradientTransform="matrix(-0.00758362, -0.000228882, -0.000259399, 0.0170898, 90.95, 68.25)" spreadMethod ="pad" cx="0" cy="0" r="819.2" fx="0" fy="0" >
<stop  offset="0"  style="stop-color:#F84B80;stop-opacity:1" />
<stop  offset="1"  style="stop-color:#FDD0D0;stop-opacity:0.501961" />
</radialGradient>
<path style="fill:url(#RadialGradID_2777) " d="M93.05,60.65L91.3 60.8L92.15 60.6L92.95 60.6L93.1 60.65L93.05 60.65" />
<radialGradient
id="RadialGradID_2778" gradientUnits="userSpaceOnUse" gradientTransform="matrix(-0.00242615, -0.000137329, -4.57764e-005, 0.00158691, 92.3, 61)" spreadMethod ="pad" cx="0" cy="0" r="819.2" fx="0" fy="0" >
<stop  offset="0"  style="stop-color:#FFFFFF;stop-opacity:1" />
<stop  offset="0.992157"  style="stop-color:#FA82A2;stop-opacity:0" />
</radialGradient>
<path style="fill:url(#RadialGradID_2778) " d="M93.1,60.65L93.15 60.5Q93.5 60.85 93.25 61.2L93 60.95L92.8 61.4L92.2 61.45L92.2 61.15L91.9 61.5L91.75 61.45L91.3 61.1L91.3 61.05L92.2 60.9Q92.3 60.7 92.5 60.75L93 60.75L93.05 60.65L93.1 60.65" />
<radialGradient
id="RadialGradID_2779" gradientUnits="userSpaceOnUse" gradientTransform="matrix(-0.000839233, -4.57764e-005, -3.05176e-005, 0.00111389, 92.35, 59.9)" spreadMethod ="pad" cx="0" cy="0" r="819.2" fx="0" fy="0" >
<stop  offset="0"  style="stop-color:#FFFFFF;stop-opacity:1" />
<stop  offset="0.992157"  style="stop-color:#FA82A2;stop-opacity:0" />
</radialGradient>
<path style="fill:url(#RadialGradID_2779) " d="M93.6,60.1L93.6 60L94 60L93.6 60.1" />
<path style="fill:#E9B386;fill-opacity:1" d="M91.3,58.5L91.1 58.45L90.9 58.15Q90.8 57.75 90.95 57.6L91.4 58.1L91.45 58.1L91.7 58.3L91.4 58.5L91.3 58.5" />
<radialGradient
id="RadialGradID_2780" gradientUnits="userSpaceOnUse" gradientTransform="matrix(0.00827026, 1.52588e-005, 0, 0.0120087, 91.55, 59.45)" spreadMethod ="pad" cx="0" cy="0" r="819.2" fx="0" fy="0" >
<stop  offset="0.760784"  style="stop-color:#EB5858;stop-opacity:1" />
<stop  offset="1"  style="stop-color:#D24F4F;stop-opacity:1" />
</radialGradient>
<path style="fill:url(#RadialGradID_2780) " d="M89.5,60.25L89.25 60.15L87.35 59.95L87.1 59.95L87 59.9L86.8 59.9L86.7 59.8L86.55 59.75L86.4 59.75L85.65 59.6L85.6 59.55L85.5 59.1L85.55 58.9L85.75 59.05L85.85 59.1L86.05 59.25L85.95 59.25L86.1 59.3L86.15 59.35L86.25 59.35L86.35 59.4L86.45 59.4L86.55 59.45L86.6 59.45L87.25 59.65L87.4 59.65L87.95 59.75L88.3 59.75L89.3 59.9L89.7 59.9L90 59.8L91.3 60.05L91.3 60.2L89.5 60.25" />
<radialGradient
id="RadialGradID_2781" gradientUnits="userSpaceOnUse" gradientTransform="matrix(0.00827026, -0.000488281, 0.000335693, 0.0120392, 91.55, 59.45)" spreadMethod ="pad" cx="0" cy="0" r="819.2" fx="0" fy="0" >
<stop  offset="0.760784"  style="stop-color:#A52727;stop-opacity:1" />
<stop  offset="1"  style="stop-color:#652323;stop-opacity:1" />
</radialGradient>
<path style="fill:url(#RadialGradID_2781) " d="M89.15,60.3L89.1 60.25L89 60.3L87.35 59.95L89.25 60.15L89.5 60.25L91.3 60.2L91.3 60.3L89.15 60.3" />
<radialGradient
id="RadialGradID_2782" gradientUnits="userSpaceOnUse" gradientTransform="matrix(0.00834656, -0.000427246, 0.000152588, 0.00764465, 91.75, 60.8)" spreadMethod ="pad" cx="0" cy="0" r="819.2" fx="0" fy="0" >
<stop  offset="0"  style="stop-color:#F84B80;stop-opacity:1" />
<stop  offset="1"  style="stop-color:#FDD0D0;stop-opacity:0.501961" />
</radialGradient>
<path style="fill:url(#RadialGradID_2782) " d="M90,59.8L89.7 59.9L89.3 59.9L88.3 59.75L87.95 59.75L87.4 59.65L87.25 59.65L86.6 59.45L86.65 59.45L86.1 59.3L85.95 59.25L86.05 59.25L88.7 59.15Q89.7 58.9 91.3 59.55L91.3 60.05L90 59.8" />
<radialGradient
id="RadialGradID_2783" gradientUnits="userSpaceOnUse" gradientTransform="matrix(0.00758362, -0.000228882, 0.000259399, 0.0170898, 91.65, 68.3)" spreadMethod ="pad" cx="0" cy="0" r="819.2" fx="0" fy="0" >
<stop  offset="0"  style="stop-color:#F84B80;stop-opacity:1" />
<stop  offset="1"  style="stop-color:#FDD0D0;stop-opacity:0.501961" />
</radialGradient>
<path style="fill:url(#RadialGradID_2783) " d="M91.3,60.85L89.4 60.7L89.65 60.65L90.45 60.65L91.3 60.85" />
<radialGradient
id="RadialGradID_2784" gradientUnits="userSpaceOnUse" gradientTransform="matrix(0.0101318, -0.000305176, 7.62939e-005, 0.00497437, 91.5, 60.1)" spreadMethod ="pad" cx="0" cy="0" r="819.2" fx="0" fy="0" >
<stop  offset="0"  style="stop-color:#F84B80;stop-opacity:1" />
<stop  offset="1"  style="stop-color:#FDD0D0;stop-opacity:0.501961" />
</radialGradient>
<path style="fill:url(#RadialGradID_2784) " d="M91.3,60.3L91.3 60.85L91.3 62.25L90.7 62.25Q89.65 62.4 87.45 61.05Q85.2 59.7 86.4 59.75L86.55 59.75L86.7 59.8L86.8 59.9L87 59.9L87.1 59.95L87.35 59.95L89 60.3L89.1 60.25L89.15 60.3L91.3 60.3M90.45,60.65L89.65 60.65L89.4 60.7L91.3 60.85L90.45 60.65" />
<radialGradient
id="RadialGradID_2785" gradientUnits="userSpaceOnUse" gradientTransform="matrix(0.00242615, -0.000137329, 4.57764e-005, 0.00158691, 90.3, 61.05)" spreadMethod ="pad" cx="0" cy="0" r="819.2" fx="0" fy="0" >
<stop  offset="0"  style="stop-color:#FFFFFF;stop-opacity:1" />
<stop  offset="0.992157"  style="stop-color:#FA82A2;stop-opacity:0" />
</radialGradient>
<path style="fill:url(#RadialGradID_2785) " d="M91.3,61.15L90.85 61.5L90.7 61.55L90.4 61.2L90.4 61.5L89.8 61.45L89.6 61L89.35 61.25Q89.1 60.9 89.45 60.55L89.6 60.8L90.1 60.8Q90.3 60.75 90.4 60.95L91.3 61.1L91.3 61.15" />
<radialGradient
id="RadialGradID_2786" gradientUnits="userSpaceOnUse" gradientTransform="matrix(0.000839233, -4.57764e-005, 3.05176e-005, 0.00111389, 90.25, 59.95)" spreadMethod ="pad" cx="0" cy="0" r="819.2" fx="0" fy="0" >
<stop  offset="0"  style="stop-color:#FFFFFF;stop-opacity:1" />
<stop  offset="0.992157"  style="stop-color:#FA82A2;stop-opacity:0" />
</radialGradient>
<path style="fill:url(#RadialGradID_2786) " d="M90.9,60L90.5 60Q90.05 59.9 89.65 60.3L89.6 60.3L89.6 60L89.9 59.9L90.9 60" />
</g>
</svg>
