<?xml version="1.0" encoding="utf-8"?>
<svg version="1.1" id="Layer_1"
xmlns="http://www.w3.org/2000/svg"
xmlns:xlink="http://www.w3.org/1999/xlink"
xmlns:author="http://www.sothink.com"
width="7px" height="10px"
xml:space="preserve">
<g id="280" transform="matrix(1, 0, 0, 1, -66.95, -39.95)">
<radialGradient
id="RadialGradID_2694" gradientUnits="userSpaceOnUse" gradientTransform="matrix(-4.57764e-005, -0.00169373, -0.00350952, 9.15527e-005, 70.3, 47.85)" spreadMethod ="pad" cx="0" cy="0" r="819.2" fx="0" fy="0" >
<stop  offset="0.0470588"  style="stop-color:#DA6969;stop-opacity:0.513725" />
<stop  offset="1"  style="stop-color:#FFEFEA;stop-opacity:0" />
</radialGradient>
<path style="fill:url(#RadialGradID_2694) " d="M70.25,46.85L71.85 47.1L72.5 47.8Q72.5 48.25 71.9 48.6L70.3 48.95L68.8 48.7Q68.1 48.35 68.1 47.9Q68.05 47.45 68.75 47.15L70.25 46.85" />
<radialGradient
id="RadialGradID_2695" gradientUnits="userSpaceOnUse" gradientTransform="matrix(0.000991821, -1.52588e-005, 1.52588e-005, 0.000991821, 72.9, 47.5)" spreadMethod ="pad" cx="0" cy="0" r="819.2" fx="0" fy="0" >
<stop  offset="0.0470588"  style="stop-color:#C52929;stop-opacity:0.580392" />
<stop  offset="1"  style="stop-color:#FFEFEA;stop-opacity:0" />
</radialGradient>
<path style="fill:url(#RadialGradID_2695) " d="M72.9,46.7L73.45 46.95L73.7 47.5L73.45 48.05L72.9 48.3L72.4 48.05L72.15 47.5L72.35 46.95Q72.55 46.7 72.9 46.7" />
<radialGradient
id="RadialGradID_2696" gradientUnits="userSpaceOnUse" gradientTransform="matrix(0.000991821, -1.52588e-005, 1.52588e-005, 0.000991821, 67.75, 47.25)" spreadMethod ="pad" cx="0" cy="0" r="819.2" fx="0" fy="0" >
<stop  offset="0.0470588"  style="stop-color:#C52929;stop-opacity:0.580392" />
<stop  offset="1"  style="stop-color:#FFEFEA;stop-opacity:0" />
</radialGradient>
<path style="fill:url(#RadialGradID_2696) " d="M68.55,47.25L68.35 47.8L67.75 48.05Q67.45 48.05 67.2 47.85L66.95 47.25L67.2 46.7Q67.4 46.45 67.75 46.45Q68.1 46.45 68.3 46.7L68.55 47.25" />
<radialGradient
id="RadialGradID_2697" gradientUnits="userSpaceOnUse" gradientTransform="matrix(0.000427246, 1.52588e-005, -4.57764e-005, 0.00175476, 69.85, 41.8)" spreadMethod ="pad" cx="0" cy="0" r="819.2" fx="0" fy="0" >
<stop  offset="0.313725"  style="stop-color:#FFFFFF;stop-opacity:0.670588" />
<stop  offset="1"  style="stop-color:#FFFFFF;stop-opacity:0" />
</radialGradient>
<path style="fill:url(#RadialGradID_2697) " d="M70.2,42.6L69.9 42.9L69.55 42.6L69.4 41.8L69.6 41L69.95 40.7L70.25 41L70.35 41.8L70.2 42.6" />
<path style="fill:#E9B386;fill-opacity:1" d="M70.5,46.1L70.4 46.25L70.05 46.15L70.2 46.1L70.45 45.9L70.5 46.1" />
<radialGradient
id="RadialGradID_2698" gradientUnits="userSpaceOnUse" gradientTransform="matrix(0.00389099, -6.10352e-005, 0, 0.00205994, 70.25, 47.2)" spreadMethod ="pad" cx="0" cy="0" r="819.2" fx="0" fy="0" >
<stop  offset="0"  style="stop-color:#F84B80;stop-opacity:1" />
<stop  offset="1"  style="stop-color:#FDD0D0;stop-opacity:0.501961" />
</radialGradient>
<path style="fill:url(#RadialGradID_2698) " d="M68.15,47.1L69.15 46.25L69.4 46.15L69.9 46.35L70.35 46.5L70.7 46.3L71.15 46.15L71.35 46.15L71.4 46.15L72.25 46.95L72.35 47.1L72.85 47.5L72.95 47.6L72.85 47.6L72.7 47.5L72.45 47.4L72.4 47.4L72.35 47.35L72.25 47.3L71.65 47L71.45 46.85L71 46.7L70.6 46.75L70.5 46.8L70.35 46.9L70.3 46.95L70.05 46.85L70 46.8L69.95 46.8L69.65 46.7L68.7 47.1L67.95 47.35L67.8 47.4L67.75 47.4L67.6 47.4L68.15 47.1" />
<radialGradient
id="RadialGradID_2699" gradientUnits="userSpaceOnUse" gradientTransform="matrix(0.00369263, -9.15527e-005, 6.10352e-005, 0.00485229, 70.35, 47.2)" spreadMethod ="pad" cx="0" cy="0" r="819.2" fx="0" fy="0" >
<stop  offset="0.760784"  style="stop-color:#EB5858;stop-opacity:1" />
<stop  offset="1"  style="stop-color:#D24F4F;stop-opacity:1" />
</radialGradient>
<path style="fill:url(#RadialGradID_2699) " d="M67.75,47.6L67.5 47.55L67.6 47.4L67.75 47.4L67.8 47.4L67.95 47.35L68.7 47.1L69.65 46.7L69.95 46.8L70 46.8L70.05 46.85L70.3 46.95L70.35 46.9L70.5 46.8L70.6 46.75L71 46.7L71.45 46.85L71.65 47L72.25 47.3L72.35 47.35L72.4 47.4L72.45 47.4L72.7 47.5L72.85 47.6L72.95 47.6L73.2 47.7L73 47.7L72.6 47.7L72.5 47.7L72.5 47.65L72.45 47.65L71.9 47.4L71.7 47.25L71.5 47.25L71.6 47.25L70.85 47L70.45 47.2L70.15 47.2L69.7 47.05L69.1 47.3L68.6 47.4L68.55 47.4L68.4 47.4L68.35 47.4L68.3 47.45L67.8 47.55L67.85 47.6L67.75 47.6" />
<radialGradient
id="RadialGradID_2700" gradientUnits="userSpaceOnUse" gradientTransform="matrix(0.0045166, 0, 0, 0.0015564, 70.25, 47.25)" spreadMethod ="pad" cx="0" cy="0" r="819.2" fx="0" fy="0" >
<stop  offset="0"  style="stop-color:#F84B80;stop-opacity:1" />
<stop  offset="1"  style="stop-color:#FDD0D0;stop-opacity:0.501961" />
</radialGradient>
<path style="fill:url(#RadialGradID_2700) " d="M71.1,47.9L69.45 47.9L67.85 47.6L67.8 47.55L68.3 47.45L68.35 47.4L68.4 47.4L68.55 47.4L68.6 47.4L69.1 47.3L69.7 47.05L70.15 47.2L70.45 47.2L70.85 47L71.6 47.25L71.5 47.25L71.7 47.25L71.9 47.4L72.45 47.65L72.5 47.65L72.5 47.7L71.1 47.9" />
<radialGradient
id="RadialGradID_2701" gradientUnits="userSpaceOnUse" gradientTransform="matrix(0.00106812, -3.05176e-005, 1.52588e-005, 0.000778198, 69.7, 47.4)" spreadMethod ="pad" cx="0" cy="0" r="819.2" fx="0" fy="0" >
<stop  offset="0"  style="stop-color:#FFFFFF;stop-opacity:1" />
<stop  offset="0.992157"  style="stop-color:#FA82A2;stop-opacity:0" />
</radialGradient>
<path style="fill:url(#RadialGradID_2701) " d="M69.75,47.6L69.5 47.55L69.4 47.3L69.3 47.45Q69.2 47.3 69.35 47.1L69.4 47.2L69.65 47.25L69.75 47.3L70.2 47.4L69.95 47.6L69.9 47.6L69.75 47.45L69.75 47.6" />
<radialGradient
id="RadialGradID_2702" gradientUnits="userSpaceOnUse" gradientTransform="matrix(0.000717163, -1.52588e-005, 1.52588e-005, 0.000946045, 70.8, 47.45)" spreadMethod ="pad" cx="0" cy="0" r="819.2" fx="0" fy="0" >
<stop  offset="0"  style="stop-color:#FFFFFF;stop-opacity:1" />
<stop  offset="0.992157"  style="stop-color:#FA82A2;stop-opacity:0" />
</radialGradient>
<path style="fill:url(#RadialGradID_2702) " d="M70.9,47.25L71.1 47.3L71 47.35L70.85 47.55L70.55 47.55L70.5 47.8L70.35 47.5L70.45 47.55L70.65 47.35L70.9 47.25" />
<radialGradient
id="RadialGradID_2703" gradientUnits="userSpaceOnUse" gradientTransform="matrix(0.000732422, -1.52588e-005, 1.52588e-005, 0.000961304, 70.8, 46.55)" spreadMethod ="pad" cx="0" cy="0" r="819.2" fx="0" fy="0" >
<stop  offset="0"  style="stop-color:#FFFFFF;stop-opacity:1" />
<stop  offset="0.992157"  style="stop-color:#FA82A2;stop-opacity:0" />
</radialGradient>
<path style="fill:url(#RadialGradID_2703) " d="M70.25,46.8L70.25 46.55L70.5 46.5L71.35 46.6L71 46.6Q70.6 46.5 70.25 46.85L70.25 46.8" />
<radialGradient
id="RadialGradID_2704" gradientUnits="userSpaceOnUse" gradientTransform="matrix(-4.57764e-005, -0.00187683, -0.00350952, 9.15527e-005, 70.3, 47.85)" spreadMethod ="pad" cx="0" cy="0" r="819.2" fx="0" fy="0" >
<stop  offset="0.0470588"  style="stop-color:#DA6969;stop-opacity:0.513725" />
<stop  offset="1"  style="stop-color:#FFEFEA;stop-opacity:0" />
</radialGradient>
<path style="fill:url(#RadialGradID_2704) " d="M70.25,46.75L71.85 47Q72.45 47.35 72.5 47.8Q72.5 48.3 71.9 48.7L70.3 49.1L68.8 48.8Q68.1 48.45 68.1 48Q68.05 47.5 68.75 47.1Q69.35 46.75 70.25 46.75" />
<radialGradient
id="RadialGradID_2705" gradientUnits="userSpaceOnUse" gradientTransform="matrix(0.000991821, -1.52588e-005, 1.52588e-005, 0.00109863, 72.9, 47.45)" spreadMethod ="pad" cx="0" cy="0" r="819.2" fx="0" fy="0" >
<stop  offset="0.0470588"  style="stop-color:#C52929;stop-opacity:0.580392" />
<stop  offset="1"  style="stop-color:#FFEFEA;stop-opacity:0" />
</radialGradient>
<path style="fill:url(#RadialGradID_2705) " d="M72.9,46.6L73.45 46.85L73.7 47.45L73.45 48.1L72.9 48.35L72.4 48.1L72.15 47.45L72.35 46.85Q72.55 46.6 72.9 46.6" />
<radialGradient
id="RadialGradID_2706" gradientUnits="userSpaceOnUse" gradientTransform="matrix(0.000991821, -1.52588e-005, 1.52588e-005, 0.00109863, 67.75, 47.2)" spreadMethod ="pad" cx="0" cy="0" r="819.2" fx="0" fy="0" >
<stop  offset="0.0470588"  style="stop-color:#C52929;stop-opacity:0.580392" />
<stop  offset="1"  style="stop-color:#FFEFEA;stop-opacity:0" />
</radialGradient>
<path style="fill:url(#RadialGradID_2706) " d="M68.55,47.2L68.35 47.8Q68.1 48.05 67.75 48.1L67.2 47.85L66.95 47.2Q66.95 46.85 67.2 46.6Q67.4 46.3 67.75 46.3Q68.1 46.3 68.3 46.55L68.55 47.2" />
<radialGradient
id="RadialGradID_2707" gradientUnits="userSpaceOnUse" gradientTransform="matrix(0.000427246, 1.52588e-005, -4.57764e-005, 0.00193787, 69.85, 41.15)" spreadMethod ="pad" cx="0" cy="0" r="819.2" fx="0" fy="0" >
<stop  offset="0.313725"  style="stop-color:#FFFFFF;stop-opacity:0.670588" />
<stop  offset="1"  style="stop-color:#FFFFFF;stop-opacity:0" />
</radialGradient>
<path style="fill:url(#RadialGradID_2707) " d="M70.2,42L69.9 42.35L69.55 42L69.4 41.15L69.6 40.3Q69.75 39.95 69.95 39.95L70.25 40.3L70.35 41.15L70.2 42" />
<path style="fill:#E9B386;fill-opacity:1" d="M70.5,46L70.4 46.1L70.05 46.05L70.2 46L70.45 45.75L70.5 46" />
<radialGradient
id="RadialGradID_2708" gradientUnits="userSpaceOnUse" gradientTransform="matrix(0.00389099, -6.10352e-005, 0, 0.00201416, 70.25, 47.05)" spreadMethod ="pad" cx="0" cy="0" r="819.2" fx="0" fy="0" >
<stop  offset="0"  style="stop-color:#F84B80;stop-opacity:1" />
<stop  offset="1"  style="stop-color:#FDD0D0;stop-opacity:0.501961" />
</radialGradient>
<path style="fill:url(#RadialGradID_2708) " d="M68.15,46.95L69.15 46.15L69.4 46.05Q69.65 46.05 69.9 46.2Q70.15 46.4 70.35 46.4L70.7 46.2L71.15 46L71.35 46L71.4 46.05L72.25 46.8L72.35 46.95L72.85 47.35L72.95 47.45L72.85 47.45L72.7 47.35L72.45 47.25L72.4 47.25L72.35 47.2L72.25 47.15L71.65 46.85L71.45 46.75L71 46.55L70.6 46.6L70.5 46.7L70.35 46.75L70.3 46.8L70.05 46.7L70 46.7L69.95 46.65L69.65 46.55L68.7 46.95L67.95 47.2L67.8 47.25L67.75 47.25L67.6 47.25L68.15 46.95" />
<radialGradient
id="RadialGradID_2709" gradientUnits="userSpaceOnUse" gradientTransform="matrix(0.00369263, -7.62939e-005, 6.10352e-005, 0.00473022, 70.35, 47.05)" spreadMethod ="pad" cx="0" cy="0" r="819.2" fx="0" fy="0" >
<stop  offset="0.760784"  style="stop-color:#EB5858;stop-opacity:1" />
<stop  offset="1"  style="stop-color:#D24F4F;stop-opacity:1" />
</radialGradient>
<path style="fill:url(#RadialGradID_2709) " d="M67.75,47.4L67.5 47.4L67.6 47.25L67.75 47.25L67.8 47.25L67.95 47.2L68.7 46.95L69.65 46.55L69.95 46.65L70 46.7L70.05 46.7L70.3 46.8L70.35 46.75L70.5 46.7L70.6 46.6L71 46.55L71.45 46.75L71.65 46.85L72.25 47.15L72.35 47.2L72.4 47.25L72.45 47.25L72.7 47.35L72.85 47.45L72.95 47.45L73.2 47.55L73 47.55L72.6 47.55L72.5 47.55L72.5 47.5L72.45 47.45L71.9 47.25L71.7 47.1L71.5 47.1L71.6 47.1L70.85 46.85L70.45 47.05L70.15 47.05L69.7 46.9L69.1 47.15L68.6 47.25L68.55 47.25L68.4 47.25L68.35 47.25L68.3 47.3L67.8 47.4L67.85 47.4L67.75 47.4" />
<radialGradient
id="RadialGradID_2710" gradientUnits="userSpaceOnUse" gradientTransform="matrix(0.0045166, 0, 0, 0.00152588, 70.25, 47.1)" spreadMethod ="pad" cx="0" cy="0" r="819.2" fx="0" fy="0" >
<stop  offset="0"  style="stop-color:#F84B80;stop-opacity:1" />
<stop  offset="1"  style="stop-color:#FDD0D0;stop-opacity:0.501961" />
</radialGradient>
<path style="fill:url(#RadialGradID_2710) " d="M71.1,47.7L69.45 47.75L67.85 47.4L67.8 47.4L68.3 47.3L68.35 47.25L68.4 47.25L68.55 47.25L68.6 47.25L69.1 47.15L69.7 46.9L70.15 47.05L70.45 47.05L70.85 46.85L71.6 47.1L71.5 47.1L71.7 47.1L71.9 47.25L72.45 47.45L72.5 47.5L72.5 47.55L71.1 47.7" />
<radialGradient
id="RadialGradID_2711" gradientUnits="userSpaceOnUse" gradientTransform="matrix(0.00106812, -3.05176e-005, 1.52588e-005, 0.000762939, 69.7, 47.15)" spreadMethod ="pad" cx="0" cy="0" r="819.2" fx="0" fy="0" >
<stop  offset="0"  style="stop-color:#FFFFFF;stop-opacity:1" />
<stop  offset="0.992157"  style="stop-color:#FA82A2;stop-opacity:0" />
</radialGradient>
<path style="fill:url(#RadialGradID_2711) " d="M69.75,47.35L69.5 47.35L69.4 47.1L69.3 47.25Q69.2 47.05 69.35 46.9L69.4 47L69.65 47.05L69.75 47.1L70.2 47.2L69.95 47.4L69.9 47.4L69.75 47.25L69.75 47.35" />
<radialGradient
id="RadialGradID_2712" gradientUnits="userSpaceOnUse" gradientTransform="matrix(0.000717163, -1.52588e-005, 1.52588e-005, 0.000930786, 70.8, 47.3)" spreadMethod ="pad" cx="0" cy="0" r="819.2" fx="0" fy="0" >
<stop  offset="0"  style="stop-color:#FFFFFF;stop-opacity:1" />
<stop  offset="0.992157"  style="stop-color:#FA82A2;stop-opacity:0" />
</radialGradient>
<path style="fill:url(#RadialGradID_2712) " d="M71,47.15Q70.8 47.2 70.85 47.4L70.55 47.4L70.5 47.6L70.35 47.3L70.45 47.4L70.65 47.2L70.9 47.1Q71 46.9 71.1 47.1L71 47.15" />
<radialGradient
id="RadialGradID_2713" gradientUnits="userSpaceOnUse" gradientTransform="matrix(0.000732422, -1.52588e-005, 1.52588e-005, 0.000930786, 70.8, 46.35)" spreadMethod ="pad" cx="0" cy="0" r="819.2" fx="0" fy="0" >
<stop  offset="0"  style="stop-color:#FFFFFF;stop-opacity:1" />
<stop  offset="0.992157"  style="stop-color:#FA82A2;stop-opacity:0" />
</radialGradient>
<path style="fill:url(#RadialGradID_2713) " d="M70.25,46.6L70.25 46.35L70.5 46.3L71.35 46.4L71 46.4Q70.6 46.3 70.25 46.65L70.25 46.6" />
</g>
</svg>
