<?xml version="1.0" encoding="utf-8"?>
<svg version="1.1" id="Layer_1"
xmlns="http://www.w3.org/2000/svg"
xmlns:xlink="http://www.w3.org/1999/xlink"
xmlns:author="http://www.sothink.com"
width="19px" height="9px"
xml:space="preserve">
<g id="284" transform="matrix(1, 0, 0, 1, -82, -57.8)">
<radialGradient
id="RadialGradID_2741" gradientUnits="userSpaceOnUse" gradientTransform="matrix(-0.00012207, -0.00325012, -0.0085144, 0.000167847, 91.35, 64.35)" spreadMethod ="pad" cx="0" cy="0" r="819.2" fx="0" fy="0" >
<stop  offset="0.0470588"  style="stop-color:#DA6969;stop-opacity:0.513725" />
<stop  offset="1"  style="stop-color:#FFEFEA;stop-opacity:0" />
</radialGradient>
<path style="fill:url(#RadialGradID_2741) " d="M91.3,62.4Q93.5 62.3 95.15 62.9Q96.65 63.45 96.7 64.3Q96.7 65.15 95.2 65.8L91.45 66.45L87.7 65.9Q86.05 65.35 86.05 64.5Q86 63.65 87.6 63Q89.1 62.4 91.3 62.4" />
<radialGradient
id="RadialGradID_2742" gradientUnits="userSpaceOnUse" gradientTransform="matrix(0.00242615, -1.52588e-005, 3.05176e-005, 0.00192261, 98.45, 59.3)" spreadMethod ="pad" cx="0" cy="0" r="819.2" fx="0" fy="0" >
<stop  offset="0.0470588"  style="stop-color:#C52929;stop-opacity:0.580392" />
<stop  offset="1"  style="stop-color:#FFEFEA;stop-opacity:0" />
</radialGradient>
<path style="fill:url(#RadialGradID_2742) " d="M98.45,57.8Q99.25 57.8 99.8 58.2Q100.4 58.65 100.4 59.3Q100.4 59.9 99.8 60.35L98.5 60.8Q97.7 60.8 97.15 60.35Q96.6 59.95 96.6 59.3Q96.55 58.7 97.15 58.25Q97.65 57.8 98.45 57.8" />
<radialGradient
id="RadialGradID_2743" gradientUnits="userSpaceOnUse" gradientTransform="matrix(0.00242615, -1.52588e-005, 3.05176e-005, 0.00192261, 83.9, 59.8)" spreadMethod ="pad" cx="0" cy="0" r="819.2" fx="0" fy="0" >
<stop  offset="0.0470588"  style="stop-color:#C52929;stop-opacity:0.580392" />
<stop  offset="1"  style="stop-color:#FFEFEA;stop-opacity:0" />
</radialGradient>
<path style="fill:url(#RadialGradID_2743) " d="M85.25,60.85Q84.75 61.3 83.95 61.3Q83.15 61.3 82.6 60.9Q82 60.45 82 59.85Q82 59.2 82.55 58.8Q83.1 58.35 83.9 58.35Q84.65 58.3 85.2 58.75Q85.8 59.2 85.85 59.8Q85.85 60.45 85.25 60.85" />
<path style="fill:#E9B386;fill-opacity:1" d="M90.55,58.5L90.5 58.5L90.85 58.4L91.55 58.05L91.6 58.4L91.35 58.55L90.55 58.5" />
<radialGradient
id="RadialGradID_2744" gradientUnits="userSpaceOnUse" gradientTransform="matrix(0.0100861, -9.15527e-005, 3.05176e-005, 0.00500488, 91.4, 61.05)" spreadMethod ="pad" cx="0" cy="0" r="819.2" fx="0" fy="0" >
<stop  offset="0"  style="stop-color:#F84B80;stop-opacity:1" />
<stop  offset="1"  style="stop-color:#FDD0D0;stop-opacity:0.501961" />
</radialGradient>
<path style="fill:url(#RadialGradID_2744) " d="M85.7,59.5L85.8 59.4L86.7 59Q87.9 58.35 89.15 58.4L89.35 58.4L89.5 58.45L89.9 58.5L91.05 58.75L92.05 58.5L93.3 58.25L93.65 58.3L94.25 58.3L95.75 58.75L97.35 59.4L97.75 59.35L97.85 59.35L97.75 59.35L97.65 59.45L97.6 59.5L97.2 59.7L94.9 60.3L94.3 60.4L90.8 60.7L87.3 60.35L85.35 60.05L85.35 60L85 60L84.6 59.9L84.45 59.8L85.7 59.5M96.6,60.25L97.35 60.1L98.2 59.95L98 60.15L98 60.2L97.75 60.45L97.7 60.55Q96.25 62.95 94.25 63.9L94.2 63.9L93.85 64.05Q92.9 64.6 91.05 64.6Q87.1 64.6 84.4 60.45L84.3 60.4L84.3 60.35L85.1 60.4L85.35 60.4L86.4 60.85L88.7 61.5L90.05 61.6L92 61.55L92.9 61.5L93.1 61.45L94.05 61.25L96.6 60.25" />
<radialGradient
id="RadialGradID_2745" gradientUnits="userSpaceOnUse" gradientTransform="matrix(0.00997925, -0.000152588, 0.000183105, 0.00788879, 91.15, 60.2)" spreadMethod ="pad" cx="0" cy="0" r="819.2" fx="0" fy="0" >
<stop  offset="0.760784"  style="stop-color:#EB5858;stop-opacity:1" />
<stop  offset="1"  style="stop-color:#D24F4F;stop-opacity:1" />
</radialGradient>
<path style="fill:url(#RadialGradID_2745) " d="M98.25,59.25L98.6 59.35L98.45 59.55L98.3 59.85L98.25 59.9L98.2 59.95L97.35 60.1L96.6 60.25L95.2 60.6L90.8 61.2L90.65 61.2L88.3 60.95L85.75 60.4L85.35 60.4L85.1 60.4L84.3 60.35L84.25 60.35L84.15 60.35L84.05 60.3L83.8 60.2L83.75 60.2L83.6 60.15L83.5 60Q83.6 59.8 84.05 59.8L84.2 59.8L84.4 59.8L84.45 59.8L84.6 59.9L85 60L85.35 60L85.35 60.05L87.3 60.35L90.8 60.7L94.3 60.4L94.9 60.3L97.2 59.7L97.6 59.5L97.65 59.45L97.75 59.35L98.25 59.25" />
<radialGradient
id="RadialGradID_2746" gradientUnits="userSpaceOnUse" gradientTransform="matrix(0.00997925, -0.000152588, 0.000183105, 0.00788879, 91.15, 60.2)" spreadMethod ="pad" cx="0" cy="0" r="819.2" fx="0" fy="0" >
<stop  offset="0.760784"  style="stop-color:#A52727;stop-opacity:1" />
<stop  offset="1"  style="stop-color:#652323;stop-opacity:1" />
</radialGradient>
<path style="fill:url(#RadialGradID_2746) " d="M94.05,61.25L93.1 61.45L92.9 61.5L92 61.55L90.05 61.6L88.7 61.5L86.4 60.85L85.35 60.4L85.75 60.4L88.3 60.95L90.65 61.2L90.8 61.2L95.2 60.6L96.6 60.25L94.05 61.25" />
<radialGradient
id="RadialGradID_2747" gradientUnits="userSpaceOnUse" gradientTransform="matrix(0.00370789, -6.10352e-005, 4.57764e-005, 0.00163269, 89.85, 62.1)" spreadMethod ="pad" cx="0" cy="0" r="819.2" fx="0" fy="0" >
<stop  offset="0"  style="stop-color:#FFFFFF;stop-opacity:1" />
<stop  offset="0.992157"  style="stop-color:#FA82A2;stop-opacity:0" />
</radialGradient>
<path style="fill:url(#RadialGradID_2747) " d="M90.05,62.5L89.15 62.45L88.8 61.95L88.45 62.2Q88.05 61.85 88.55 61.5L88.8 61.75L89.6 61.8L90.05 61.95L91.45 62.1L90.75 62.55L90.5 62.55L90.05 62.2L90.05 62.5" />
<radialGradient
id="RadialGradID_2748" gradientUnits="userSpaceOnUse" gradientTransform="matrix(0.00250244, -3.05176e-005, 4.57764e-005, 0.00198364, 93.5, 61.95)" spreadMethod ="pad" cx="0" cy="0" r="819.2" fx="0" fy="0" >
<stop  offset="0"  style="stop-color:#FFFFFF;stop-opacity:1" />
<stop  offset="0.992157"  style="stop-color:#FA82A2;stop-opacity:0" />
</radialGradient>
<path style="fill:url(#RadialGradID_2748) " d="M94.5,61.65L94.15 61.7Q93.5 61.75 93.7 62.15L92.6 62.15L92.35 62.65L91.9 62.05L92.25 62.15Q92.2 61.75 92.9 61.8L93.8 61.55Q94.1 61.2 94.5 61.65" />
<radialGradient
id="RadialGradID_2749" gradientUnits="userSpaceOnUse" gradientTransform="matrix(0.00195313, -3.05176e-005, 3.05176e-005, 0.00154114, 92.55, 58.95)" spreadMethod ="pad" cx="0" cy="0" r="819.2" fx="0" fy="0" >
<stop  offset="0"  style="stop-color:#FFFFFF;stop-opacity:1" />
<stop  offset="0.992157"  style="stop-color:#FA82A2;stop-opacity:0" />
</radialGradient>
<path style="fill:url(#RadialGradID_2749) " d="M91.05,59.4L91.15 59.05L91.85 58.9L94.15 59.05L93.2 59.05Q92.1 58.85 91.15 59.45L91.05 59.4" />
</g>
</svg>
