<?xml version="1.0" encoding="utf-8"?>
<svg version="1.1" id="Layer_1"
xmlns="http://www.w3.org/2000/svg"
xmlns:xlink="http://www.w3.org/1999/xlink"
xmlns:author="http://www.sothink.com"
width="63px" height="77px"
xml:space="preserve">
<g id="288" transform="matrix(1, 0, 0, 1, -86.4, -155.15)">
<radialGradient
id="RadialGradID_2787" gradientUnits="userSpaceOnUse" gradientTransform="matrix(-0.000366211, -0.0132294, -0.0273285, 0.000640869, 117.15, 222.7)" spreadMethod ="pad" cx="0" cy="0" r="819.2" fx="0" fy="0" >
<stop  offset="0.0470588"  style="stop-color:#DA6969;stop-opacity:0.513725" />
<stop  offset="1"  style="stop-color:#FFEFEA;stop-opacity:0" />
</radialGradient>
<path style="fill:url(#RadialGradID_2787) " d="M117,214.75Q124.05 214.55 129.4 217Q134.1 219.15 134.25 222.55Q134.3 225.95 129.6 228.65Q124.35 231.05 117.3 231.35Q110.25 231.45 105.5 229.25Q100.15 226.85 100.05 223.4Q99.95 219.95 105.25 217.45Q109.9 214.85 117 214.75" />
<radialGradient
id="RadialGradID_2788" gradientUnits="userSpaceOnUse" gradientTransform="matrix(0.00779724, -0.000106812, 0.000106812, 0.00779724, 142.5, 207.1)" spreadMethod ="pad" cx="0" cy="0" r="819.2" fx="0" fy="0" >
<stop  offset="0.0470588"  style="stop-color:#C52929;stop-opacity:0.580392" />
<stop  offset="1"  style="stop-color:#FFEFEA;stop-opacity:0" />
</radialGradient>
<path style="fill:url(#RadialGradID_2788) " d="M142.6,213.15Q140.05 213.2 138.2 211.4Q136.45 209.7 136.45 207.15Q136.4 204.6 138.1 202.8Q139.9 201 142.45 200.95Q145 200.95 146.75 202.7Q148.6 204.45 148.65 207Q148.65 209.5 146.9 211.3Q145.15 213.15 142.6 213.15" />
<radialGradient
id="RadialGradID_2789" gradientUnits="userSpaceOnUse" gradientTransform="matrix(0.00779724, -0.000106812, 0.000106812, 0.00779724, 92.45, 207.05)" spreadMethod ="pad" cx="0" cy="0" r="819.2" fx="0" fy="0" >
<stop  offset="0.0470588"  style="stop-color:#C52929;stop-opacity:0.580392" />
<stop  offset="1"  style="stop-color:#FFEFEA;stop-opacity:0" />
</radialGradient>
<path style="fill:url(#RadialGradID_2789) " d="M96.8,211.3Q95.1 213.15 92.55 213.15Q90 213.2 88.2 211.4Q86.4 209.65 86.4 207.15Q86.35 204.6 88.05 202.8Q89.85 201 92.4 200.95Q94.95 200.95 96.7 202.7Q98.55 204.45 98.6 207Q98.6 209.5 96.8 211.3" />
<radialGradient
id="RadialGradID_2790" gradientUnits="userSpaceOnUse" gradientTransform="matrix(0.00376892, 9.15527e-005, -0.00038147, 0.0154266, 114.1, 164.45)" spreadMethod ="pad" cx="0" cy="0" r="819.2" fx="0" fy="0" >
<stop  offset="0.313725"  style="stop-color:#FFFFFF;stop-opacity:0.670588" />
<stop  offset="1"  style="stop-color:#FFFFFF;stop-opacity:0" />
</radialGradient>
<path style="fill:url(#RadialGradID_2790) " d="M117,171.55Q115.65 174.15 114.3 174.1Q112.55 174.05 111.25 171.4Q110.05 168.4 110.15 164.35Q110.25 160.25 111.6 157.65Q113 155.1 114.75 155.15Q116.1 155.2 117.35 157.8Q118.2 160.45 118.5 164.55Q118 168.6 117 171.55" />
<path style="fill:#E9B386;fill-opacity:1" d="M118.65,201.4Q118.1 201.95 117.5 202.05L116.2 201.7L115.45 200.75Q115.1 199.6 115.6 198.95Q116.45 200.05 117.5 200.75L117.6 200.8L118.65 201.4" />
<radialGradient
id="RadialGradID_2791" gradientUnits="userSpaceOnUse" gradientTransform="matrix(0.0340424, -0.000534058, 0.000106812, 0.0256195, 118.5, 213.6)" spreadMethod ="pad" cx="0" cy="0" r="819.2" fx="0" fy="0" >
<stop  offset="0"  style="stop-color:#F84B80;stop-opacity:1" />
<stop  offset="1"  style="stop-color:#FDD0D0;stop-opacity:0.501961" />
</radialGradient>
<path style="fill:url(#RadialGradID_2791) " d="M97.15,208.05Q103.35 204.2 108.45 202.65Q111.6 201.65 113.8 201.65L115.55 202.55L117.4 203.7L117.5 203.75L117.5 203.85L117.7 203.85L117.9 203.9L117.9 204L118.35 203.85L118.45 203.8L120.25 202.65Q121.7 201.75 122 201.75Q124.2 201.75 127.35 202.75Q132.4 204.3 138.6 208.15L139.1 208.45L139.1 208.5L138.85 208.55L136.2 209.35L132.25 209.75L128.95 209.5L128.7 209.5L127.55 209.4L127.15 209.4L127.15 209.35L125.5 208.95L123.2 208.5L120.55 209.05L117.75 209.55L115.9 209.25L114.15 208.7L112.25 208.7L112.1 208.65L112 208.7L111.85 208.7L111.3 208.85L109.75 209.1L108.65 209.3L107.05 209.4L106.8 209.45L103.5 209.65L99.55 209.25L96.85 208.45L96.6 208.4L97.15 208.05M126.9,203.3L126.95 203.3L127 203.3L126.9 203.3M108.75,203.2L108.85 203.2L108.9 203.2L108.75 203.2" />
<radialGradient
id="RadialGradID_2792" gradientUnits="userSpaceOnUse" gradientTransform="matrix(0.0337524, 0.000900269, -0.000762939, 0.0402832, 117.9, 209.25)" spreadMethod ="pad" cx="0" cy="0" r="819.2" fx="0" fy="0" >
<stop  offset="0.760784"  style="stop-color:#EB5858;stop-opacity:1" />
<stop  offset="1"  style="stop-color:#D24F4F;stop-opacity:1" />
</radialGradient>
<path style="fill:url(#RadialGradID_2792) " d="M139.15,208.5L139.1 208.45L140.05 208.15L140.9 207.75L141.3 207.55L141.65 207.3Q142.25 206.8 142.5 206.8Q142.75 206.8 142.75 207.35L142.75 207.4Q142.75 208.25 142.35 208.8L142.2 209.05L141.4 209.2L141.25 209.2L138.55 209.65L138.4 209.7L137.95 209.8L137.9 209.85L137.85 209.85L137.45 210L136.95 210.1L136.8 210.15L136.7 210.15L136.15 210.3L134.8 210.55L130.9 211.25L130.3 211.3L129.4 211.4L128.7 211.4L128.2 211.4L126 211.1L125.35 210.95L124.65 210.85L124.2 210.8L124.25 210.75L121.7 210.8L117.95 211.2L116.5 211.2L114.55 210.75L112 210.75L111.95 210.8L111.75 210.75L109.85 211.1L106.45 211.4L105.55 211.3L101 210.55L99.7 210.25L99.15 210.15L99.05 210.15L98.9 210.1L98.4 210L98 209.85L97.95 209.85L97.3 209.65L94.6 209.2L94.45 209.2L93.65 209.05L93.5 208.8Q93.1 208.25 93.1 207.4Q93.1 206.8 93.4 206.8L94.2 207.25L94.55 207.5L95.8 208.15L96.25 208.3L96.6 208.4L96.85 208.45L99.55 209.25L103.5 209.65L106.8 209.45L107.05 209.4L108.65 209.3L109.75 209.1L111.3 208.85L111.85 208.7L112 208.7L112.1 208.65L112.25 208.7L114.15 208.7L115.9 209.25L117.75 209.55L120.55 209.05L123.2 208.5L125.5 208.95L127.15 209.35L127.15 209.4L127.55 209.4L128.7 209.5L128.95 209.5L132.25 209.75L136.2 209.35L138.85 208.55L139.1 208.5L139.15 208.5M117.85,210.15L117.8 210.15L117.25 210.1L117.8 210.15L117.85 210.15" />
<radialGradient
id="RadialGradID_2793" gradientUnits="userSpaceOnUse" gradientTransform="matrix(0.0337677, -0.000732422, 0.000610352, 0.0402985, 117.85, 209.25)" spreadMethod ="pad" cx="0" cy="0" r="819.2" fx="0" fy="0" >
<stop  offset="0.760784"  style="stop-color:#A52727;stop-opacity:1" />
<stop  offset="1"  style="stop-color:#652323;stop-opacity:1" />
</radialGradient>
<path style="fill:url(#RadialGradID_2793) " d="M136.7,210.2L134.05 211L131.2 211.65L131 211.7L130.55 211.75L130.2 211.7L127.2 211.55L123.55 211L121.75 211.35L121.5 211.4L118.05 211.75L115.3 211.45L113.85 211.3L111.75 211.25L111.6 211.25L110.5 211.3L109.45 211.4L106.5 211.6L103.05 211.35L99.7 210.25L101 210.55L105.55 211.3L106.45 211.4L109.85 211.1L111.75 210.75L111.95 210.8L112 210.75L114.55 210.75L116.5 211.2L117.95 211.2L121.7 210.8L124.25 210.75L124.2 210.8L124.65 210.85L125.35 210.95L126 211.1L128.2 211.4L128.7 211.4L129.4 211.4L130.3 211.3L130.9 211.25L134.8 210.55L136.15 210.3L136.7 210.15L136.7 210.2" />
<radialGradient
id="RadialGradID_2794" gradientUnits="userSpaceOnUse" gradientTransform="matrix(0.0309753, 0, 0, 0.0369568, 118.3, 228)" spreadMethod ="pad" cx="0" cy="0" r="819.2" fx="0" fy="0" >
<stop  offset="0"  style="stop-color:#F84B80;stop-opacity:1" />
<stop  offset="1"  style="stop-color:#FDD0D0;stop-opacity:0.501961" />
</radialGradient>
<path style="fill:url(#RadialGradID_2794) " d="M136.7,210.15L136.8 210.15L136.95 210.1L137.45 210L137.85 209.85L137.9 209.85L137.95 209.8L138.4 209.7Q138 210.1 137.55 211.05Q137 212.2 136.15 212.95L136.1 212.9L136 213.1L135.85 213.2Q127.75 222.25 118.05 222.25L114.6 221.8L114.2 221.75L111.6 221.3Q110.55 221 109.1 220.3Q107.35 219.75 105.75 218.65Q102.1 216.1 97.95 209.9L98 209.85L98.4 210L98.9 210.1L99.05 210.15L99.15 210.15L99.7 210.25L103.05 211.35L106.5 211.6L109.45 211.4L110.5 211.3L111.6 211.25L111.75 211.25L113.85 211.3L115.3 211.45L118.05 211.75L121.5 211.4L121.75 211.35L123.55 211L127.2 211.55L130.2 211.7L130.55 211.75L130.9 211.8L130.95 211.75L131 211.7L131.2 211.65L134.05 211L136.7 210.2L136.7 210.15" />
<radialGradient
id="RadialGradID_2795" gradientUnits="userSpaceOnUse" gradientTransform="matrix(-0.0339203, -0.000534058, -0.000106812, 0.0256195, 117.35, 213.7)" spreadMethod ="pad" cx="0" cy="0" r="819.2" fx="0" fy="0" >
<stop  offset="0"  style="stop-color:#F84B80;stop-opacity:1" />
<stop  offset="1"  style="stop-color:#FDD0D0;stop-opacity:0.501961" />
</radialGradient>
<path style="fill:url(#RadialGradID_2795) " d="M139.1,208.5L139.1 208.45L139.15 208.5L139.1 208.5" />
<path style="fill:none;stroke-width:0.05;stroke-linecap:round;stroke-linejoin:round;stroke-miterlimit:3;stroke:#FD9E66;stroke-opacity:1" d="M96.75,208.6L96.85 208.45" />
<radialGradient
id="RadialGradID_2796" gradientUnits="userSpaceOnUse" gradientTransform="matrix(0.0125122, -0.000274658, 0.00012207, 0.00834656, 111.8, 214.85)" spreadMethod ="pad" cx="0" cy="0" r="819.2" fx="0" fy="0" >
<stop  offset="0"  style="stop-color:#FFFFFF;stop-opacity:1" />
<stop  offset="0.992157"  style="stop-color:#FA82A2;stop-opacity:0" />
</radialGradient>
<path style="fill:url(#RadialGradID_2796) " d="M112.45,216.95L109.4 216.7L108.15 214.15L106.95 215.65Q105.75 213.85 107.5 212L108.15 213.1L110.9 213.4Q111.8 213.05 112.4 214.05L117.2 215.05L114.85 217.25L113.95 217.3L112.4 215.5L112.45 216.95" />
<radialGradient
id="RadialGradID_2797" gradientUnits="userSpaceOnUse" gradientTransform="matrix(0.00836182, 0.00161743, -0.00135803, 0.00996399, 125.15, 214.15)" spreadMethod ="pad" cx="0" cy="0" r="819.2" fx="0" fy="0" >
<stop  offset="0"  style="stop-color:#FFFFFF;stop-opacity:1" />
<stop  offset="0.992157"  style="stop-color:#FA82A2;stop-opacity:0" />
</radialGradient>
<path style="fill:url(#RadialGradID_2797) " d="M126.3,212.55Q127.75 211 128.65 213.4L127.4 213.5Q125.3 213.1 125.6 215.35L122.05 214.65Q121.3 215.65 120.85 216.95L119.75 213.5L120.85 214.4Q120.85 212.25 123.15 213.05Q124.65 213.35 126.3 212.55" />
<radialGradient
id="RadialGradID_2798" gradientUnits="userSpaceOnUse" gradientTransform="matrix(0.00663757, -0.000137329, 0.00012207, 0.00791931, 111.2, 206)" spreadMethod ="pad" cx="0" cy="0" r="819.2" fx="0" fy="0" >
<stop  offset="0"  style="stop-color:#FFFFFF;stop-opacity:1" />
<stop  offset="0.992157"  style="stop-color:#FA82A2;stop-opacity:0" />
</radialGradient>
<path style="fill:url(#RadialGradID_2798) " d="M113.15,206.45Q109.55 205.6 106.45 208.6L106.1 208.3L106.4 206.25L108.6 205.65Q113.3 203.9 116.45 206.4L113.15 206.45" />
</g>
</svg>
