<?xml version="1.0" encoding="utf-8"?>
<svg version="1.1" id="Layer_1"
xmlns="http://www.w3.org/2000/svg"
xmlns:xlink="http://www.w3.org/1999/xlink"
xmlns:author="http://www.sothink.com"
width="8px" height="5px"
xml:space="preserve">
<g id="291" transform="matrix(1, 0, 0, 1, 0, 0)">
<radialGradient
id="RadialGradID_2821" gradientUnits="userSpaceOnUse" gradientTransform="matrix(-4.57764e-005, -0.00189209, -0.00306702, 9.15527e-005, 3.55, 3.25)" spreadMethod ="pad" cx="0" cy="0" r="819.2" fx="0" fy="0" >
<stop  offset="0.0470588"  style="stop-color:#DA6969;stop-opacity:0.513725" />
<stop  offset="1"  style="stop-color:#FFEFEA;stop-opacity:0" />
</radialGradient>
<path style="fill:url(#RadialGradID_2821) " d="M4.95,4.1L3.6 4.5L2.25 4.2Q1.65 3.8 1.65 3.35Q1.65 2.85 2.25 2.5Q2.75 2.1 3.55 2.1Q4.35 2.05 4.95 2.4L5.5 3.2Q5.5 3.7 4.95 4.1" />
<radialGradient
id="RadialGradID_2822" gradientUnits="userSpaceOnUse" gradientTransform="matrix(0.000961304, -1.52588e-005, 1.52588e-005, 0.00123596, 0.75, 1.1)" spreadMethod ="pad" cx="0" cy="0" r="819.2" fx="0" fy="0" >
<stop  offset="0.0470588"  style="stop-color:#C52929;stop-opacity:0.580392" />
<stop  offset="1"  style="stop-color:#FFEFEA;stop-opacity:0" />
</radialGradient>
<path style="fill:url(#RadialGradID_2822) " d="M0.2,0.4Q0.45 0.1 0.75 0.1Q1.05 0.1 1.3 0.4L1.5 1.05L1.3 1.75L0.75 2.05L0.2 1.75L0 1.1L0.2 0.4" />
<radialGradient
id="RadialGradID_2823" gradientUnits="userSpaceOnUse" gradientTransform="matrix(0.000961304, -1.52588e-005, 1.52588e-005, 0.00123596, 6.4, 1.1)" spreadMethod ="pad" cx="0" cy="0" r="819.2" fx="0" fy="0" >
<stop  offset="0.0470588"  style="stop-color:#C52929;stop-opacity:0.580392" />
<stop  offset="1"  style="stop-color:#FFEFEA;stop-opacity:0" />
</radialGradient>
<path style="fill:url(#RadialGradID_2823) " d="M5.9,1.75Q5.65 1.5 5.65 1.1L5.85 0.4L6.4 0.1Q6.7 0.1 6.95 0.4L7.15 1.05L6.95 1.75L6.4 2.05Q6.1 2.05 5.9 1.75" />
<path style="fill:#FCF1F1;fill-opacity:1" d="M4.25,1.4L3.55 1.55L3.15 1.45L3.25 1.3L3.65 1.25L4.15 1.35L4.25 1.4" />
<path style="fill:#DA6161;fill-opacity:1" d="M0.9,1.6L0.65 1.5L0.55 1.25L0.65 1.05L0.8 1.15L0.8 1.2L0.85 1.3L0.95 1.35L1.1 1.4L1.65 1.4L1.7 1.4L1.7 1.45L1.75 1.4L1.7 1.45L1.45 1.5L1.1 1.6L1.05 1.6L1 1.6L0.9 1.6M4.1,1.65L3.75 2L3.5 1.85L3 1.55L2.3 1.35L2.9 1.3Q3.6 1.2 3.6 0.85Q3.8 1.2 4.5 1.3L4.7 1.3L5 1.3L5.15 1.35L5 1.35L4.1 1.65M5.8,1.4L5.7 1.35L5.5 1.35L5.85 1.4L5.7 1.35L5.85 1.35L6.2 1.4L6.5 1.25L6.6 1.15L6.65 1.05Q6.95 1.25 6.8 1.4L6.35 1.6L6.1 1.5L5.8 1.4M4.15,1.35L3.65 1.25L3.25 1.3L3.15 1.45L3.55 1.55L4.25 1.4L4.15 1.35" />
<radialGradient
id="RadialGradID_2824" gradientUnits="userSpaceOnUse" gradientTransform="matrix(0.00440979, -6.10352e-005, 1.52588e-005, 0.00244141, 3.65, 1.6)" spreadMethod ="pad" cx="0" cy="0" r="819.2" fx="0" fy="0" >
<stop  offset="0"  style="stop-color:#FB95A9;stop-opacity:1" />
<stop  offset="1"  style="stop-color:#F7D2C4;stop-opacity:0.501961" />
</radialGradient>
<path style="fill:url(#RadialGradID_2824) " d="M6.6,1.15L6.5 1.25L6.2 1.4L5.85 1.35L6 1.35L6 1.3L5.95 1.3L5.85 1.35L5.7 1.35L5.85 1.4L5.5 1.35L5.7 1.35L5.8 1.4L5.75 1.5L5.75 1.55L5.7 1.55L5.7 1.6L5.6 1.5L5.55 1.45L5.2 1.5L5.1 1.5L4.95 1.5L4.9 1.5L4.9 1.55L4.9 1.5L4.9 1.45L4.95 1.4L5 1.35L5.15 1.35L5 1.3L4.7 1.3L4.5 1.3Q3.8 1.2 3.6 0.85Q3.6 1.2 2.9 1.3L2.3 1.35L2.3 1.4L2.25 1.45L2.1 1.45L1.9 1.5L1.75 1.45L1.7 1.45L1.75 1.4L1.7 1.45L1.7 1.4L1.65 1.4L1.1 1.4L0.95 1.35L0.85 1.3L0.8 1.2L0.8 1.15L0.85 1.15L0.85 1.1L0.9 1.1L1.6 0.65Q2.3 0.25 2.75 0.2L3.3 0.4L3.85 0.35L4.35 0.15L5.3 0.35Q6 0.55 6.25 0.8L6.65 1.05L6.6 1.15M2.25,1.35L2.25 1.3L2.2 1.35L2.25 1.35M1.9,1.4L1.8 1.4L2 1.45L1.9 1.4M1.85,1.4L1.8 1.4L2.05 1.45L1.85 1.4" />
<radialGradient
id="RadialGradID_2825" gradientUnits="userSpaceOnUse" gradientTransform="matrix(0.00440979, -6.10352e-005, 1.52588e-005, 0.00247192, 3.65, 1.55)" spreadMethod ="pad" cx="0" cy="0" r="819.2" fx="0" fy="0" >
<stop  offset="0"  style="stop-color:#FC94A9;stop-opacity:1" />
<stop  offset="1"  style="stop-color:#F7B9B3;stop-opacity:0.501961" />
</radialGradient>
<path style="fill:url(#RadialGradID_2825) " d="M1,1.6L1.05 1.6L1.1 1.6L1.45 1.5L1.7 1.45L1.75 1.45L1.9 1.5L2.1 1.45L2.25 1.45L2.3 1.4L2.3 1.35L3 1.55L3.5 1.85L3.75 2L4.1 1.65L5 1.35L4.95 1.4L4.9 1.45L4.9 1.5L4.9 1.55L4.9 1.5L4.95 1.5L5.1 1.5L5.2 1.5L5.55 1.45L5.6 1.5L5.7 1.6L5.7 1.55L5.75 1.55L5.75 1.5L5.8 1.4L6.1 1.5L6.35 1.6L6.3 1.7L5.65 2.6L4.9 3L4.5 3.1L2.5 3.05L2.3 3Q1.5 2.8 0.9 1.7L0.9 1.65L0.9 1.6L1 1.6M5.85,1.35L5.95 1.3L6 1.3L6 1.35L5.85 1.35M2,1.45L1.8 1.4L1.9 1.4L2 1.45M2.05,1.45L1.8 1.4L1.85 1.4L2.05 1.45" />
<radialGradient
id="RadialGradID_2826" gradientUnits="userSpaceOnUse" gradientTransform="matrix(1.52588e-005, 0, 0, 1.52588e-005, 2.2, 1.35)" spreadMethod ="pad" cx="0" cy="0" r="819.2" fx="0" fy="0" >
<stop  offset="0"  style="stop-color:#FA7C96;stop-opacity:1" />
<stop  offset="1"  style="stop-color:#F1B79E;stop-opacity:0.501961" />
</radialGradient>
<path style="fill:url(#RadialGradID_2826) " d="M2.2,1.35L2.25 1.3L2.25 1.35L2.2 1.35" />
<radialGradient
id="RadialGradID_2827" gradientUnits="userSpaceOnUse" gradientTransform="matrix(0.00161743, -4.57764e-005, 1.52588e-005, 0.001297, 3.1, 2.25)" spreadMethod ="pad" cx="0" cy="0" r="819.2" fx="0" fy="0" >
<stop  offset="0"  style="stop-color:#FFFFFF;stop-opacity:1" />
<stop  offset="0.992157"  style="stop-color:#FA82A2;stop-opacity:0" />
</radialGradient>
<path style="fill:url(#RadialGradID_2827) " d="M3.75,2.3L3.45 2.65L3.35 2.65L3.15 2.35L3.15 2.55L2.75 2.5L2.6 2.15L2.45 2.4Q2.3 2.1 2.5 1.85L2.6 1.95L2.95 2.05L3.15 2.15L3.75 2.3" />
<radialGradient
id="RadialGradID_2828" gradientUnits="userSpaceOnUse" gradientTransform="matrix(0.00109863, -1.52588e-005, 1.52588e-005, 0.00117493, 4.45, 2.15)" spreadMethod ="pad" cx="0" cy="0" r="819.2" fx="0" fy="0" >
<stop  offset="0"  style="stop-color:#FFFFFF;stop-opacity:1" />
<stop  offset="0.992157"  style="stop-color:#FA82A2;stop-opacity:0" />
</radialGradient>
<path style="fill:url(#RadialGradID_2828) " d="M4.9,1.95L4.75 2Q4.5 2.05 4.55 2.25L4.05 2.25L4 2.55L3.75 2.2L3.95 2.25Q3.9 2 4.2 2.05L4.55 1.9L4.9 1.95" />
<radialGradient
id="RadialGradID_2829" gradientUnits="userSpaceOnUse" gradientTransform="matrix(0.00088501, -0.000152588, 9.15527e-005, 0.00050354, 4.2, 0.25)" spreadMethod ="pad" cx="0" cy="0" r="819.2" fx="0" fy="0" >
<stop  offset="0"  style="stop-color:#FFFFFF;stop-opacity:1" />
<stop  offset="0.992157"  style="stop-color:#FDD7E3;stop-opacity:0" />
</radialGradient>
<path style="fill:url(#RadialGradID_2829) " d="M4,0.1L4.95 0.2L4.6 0.5L3.55 0.7L3.5 0.4L4 0.1" />
</g>
</svg>
