<?xml version="1.0" encoding="utf-8"?>
<svg version="1.1" id="Layer_1"
xmlns="http://www.w3.org/2000/svg"
xmlns:xlink="http://www.w3.org/1999/xlink"
xmlns:author="http://www.sothink.com"
width="195px" height="170px"
xml:space="preserve">
<g id="297" transform="matrix(1, 0, 0, 1, -16.05, -66.75)">
<path style="fill:#F7D2BB;fill-opacity:1" d="M208.8,173.3Q207.55 174.35 206.5 174.75L207.35 174.05L210.55 170.85Q209.9 172.05 208.65 173.3L208.8 173.3" />
<path style="fill:#FED8B4;fill-opacity:1" d="M46.2,188.5L46.4 188.9L44.1 189.95L46.2 188.5" />
<path style="fill:#FFEDDB;fill-opacity:1" d="M73.9,228.7L75.75 230.3L73.85 228.75L71.7 226.95L71.85 226.95L73.9 228.7" />
<radialGradient
id="RadialGradID_2873" gradientUnits="userSpaceOnUse" gradientTransform="matrix(0.0484772, 0, 0, 0.0484772, 187.75, 191.35)" spreadMethod ="pad" cx="0" cy="0" r="819.2" fx="0" fy="0" >
<stop  offset="0"  style="stop-color:#FEBCBC;stop-opacity:1" />
<stop  offset="1"  style="stop-color:#FFEDDB;stop-opacity:1" />
</radialGradient>
<path style="fill:url(#RadialGradID_2873) " d="M163.7,226.65L167.75 222.65L168.45 223.35L164.4 227.05L163.7 226.65" />
<radialGradient
id="RadialGradID_2874" gradientUnits="userSpaceOnUse" gradientTransform="matrix(0.192627, 0, 0, 0.192627, 102.15, 83.8)" spreadMethod ="pad" cx="0" cy="0" r="819.2" fx="0" fy="0" >
<stop  offset="0.0196078"  style="stop-color:#F0C4B0;stop-opacity:1" />
<stop  offset="1"  style="stop-color:#FFEDDB;stop-opacity:1" />
</radialGradient>
<path style="fill:url(#RadialGradID_2874) " d="M16.05,72.45L16.15 68.4L17.35 66.75L16.05 72.45" />
<path style="fill:none;stroke-width:0.25;stroke-linecap:round;stroke-linejoin:round;stroke-miterlimit:3;stroke:#FD9E66;stroke-opacity:1" d="M25.15,182L25.35 182.15" />
<radialGradient
id="RadialGradID_2875" gradientUnits="userSpaceOnUse" gradientTransform="matrix(-0.000411987, -0.0149841, -0.0309296, 0.000732422, 116.7, 226.75)" spreadMethod ="pad" cx="0" cy="0" r="819.2" fx="0" fy="0" >
<stop  offset="0.0470588"  style="stop-color:#DA6969;stop-opacity:0.513725" />
<stop  offset="1"  style="stop-color:#FFEFEA;stop-opacity:0" />
</radialGradient>
<path style="fill:url(#RadialGradID_2875) " d="M116.55,217.75Q124.5 217.5 130.5 220.3Q135.9 222.7 136.05 226.55Q136.1 230.4 130.8 233.5Q124.85 236.2 116.85 236.5Q108.85 236.65 103.45 234.2Q97.45 231.4 97.35 227.5Q97.25 223.6 103.15 220.85Q108.5 217.85 116.55 217.75" />
<radialGradient
id="RadialGradID_2876" gradientUnits="userSpaceOnUse" gradientTransform="matrix(0.00881958, -0.00012207, 0.00012207, 0.00881958, 89.15, 208.3)" spreadMethod ="pad" cx="0" cy="0" r="819.2" fx="0" fy="0" >
<stop  offset="0.0470588"  style="stop-color:#C52929;stop-opacity:0.580392" />
<stop  offset="1"  style="stop-color:#FFEFEA;stop-opacity:0" />
</radialGradient>
<path style="fill:url(#RadialGradID_2876) " d="M94.1,213.1Q92.15 215.15 89.25 215.2Q86.4 215.25 84.3 213.25Q82.3 211.25 82.3 208.4Q82.25 205.5 84.2 203.45Q86.2 201.45 89.1 201.4Q91.95 201.35 93.95 203.35Q96.05 205.35 96.1 208.2Q96.1 211.1 94.1 213.1" />
<radialGradient
id="RadialGradID_2877" gradientUnits="userSpaceOnUse" gradientTransform="matrix(0.00881958, -0.00012207, 0.00012207, 0.00881958, 145.85, 209.25)" spreadMethod ="pad" cx="0" cy="0" r="819.2" fx="0" fy="0" >
<stop  offset="0.0470588"  style="stop-color:#C52929;stop-opacity:0.580392" />
<stop  offset="1"  style="stop-color:#FFEFEA;stop-opacity:0" />
</radialGradient>
<path style="fill:url(#RadialGradID_2877) " d="M145.8,202.3Q148.65 202.25 150.65 204.25Q152.75 206.25 152.8 209.1Q152.8 212 150.8 214Q148.85 216.05 146 216.1Q143.1 216.15 141 214.15Q139 212.2 139 209.3Q138.95 206.45 140.9 204.35Q142.9 202.35 145.8 202.3" />
<radialGradient
id="RadialGradID_2878" gradientUnits="userSpaceOnUse" gradientTransform="matrix(0.00376892, 9.15527e-005, -0.00038147, 0.0154266, 114.1, 163.95)" spreadMethod ="pad" cx="0" cy="0" r="819.2" fx="0" fy="0" >
<stop  offset="0.313725"  style="stop-color:#FFFFFF;stop-opacity:0.670588" />
<stop  offset="1"  style="stop-color:#FFFFFF;stop-opacity:0" />
</radialGradient>
<path style="fill:url(#RadialGradID_2878) " d="M117,171.05Q115.65 173.65 114.3 173.6Q112.55 173.55 111.25 170.9Q110.05 167.9 110.15 163.85Q110.25 159.75 111.6 157.15Q113 154.6 114.75 154.65Q116.1 154.7 117.35 157.3Q118.2 159.95 118.5 164.05Q118 168.1 117 171.05" />
<path style="fill:#FFFFFF;fill-opacity:1" d="M122.8,202.95L119.5 204.45Q117.2 204.7 114.45 201.15L114.4 201.15L117.2 202.4L120.05 202.6L120.5 202.5Q122.2 201.4 123.85 201L124.05 200.9L123.95 201L122.8 202.95" />
<path style="fill:#FF6666;fill-opacity:1" d="M119.25,209.85L120.1 210L120.45 210.2L128.9 211.4L128.05 211.65L131.05 211.9L127.6 211.7L128.1 211.75L127.5 211.7L119.65 211.3L107.8 210.75L119.05 210.05L119.55 210.95L119.65 211.3L119.6 210.95L119 209.85L119.25 209.85" />
<radialGradient
id="RadialGradID_2879" gradientUnits="userSpaceOnUse" gradientTransform="matrix(0.034668, 0.00012207, -9.15527e-005, 0.024292, 118.85, 212.5)" spreadMethod ="pad" cx="0" cy="0" r="819.2" fx="0" fy="0" >
<stop  offset="0"  style="stop-color:#F173F2;stop-opacity:1" />
<stop  offset="1"  style="stop-color:#EDBCBC;stop-opacity:0.772549" />
</radialGradient>
<path style="fill:url(#RadialGradID_2879) " d="M146.5,212.25L145.35 213.3L144.95 213.65L144.55 214.05L134.1 220Q118.75 224.45 109.5 221.45L104.85 220L97.1 215.55L94.5 214.65L94.3 214.65L93.95 214.45L93.65 214.4Q92.6 214.2 91.8 213.15Q90.85 212.3 91 211.6L91 211.55Q90.55 209.7 91.85 208.85Q92.85 208.2 94.8 208.15L95.9 208.35L98.2 208.75Q100.85 208.65 102.6 207.15L104.5 205.6Q105.3 204.9 106.8 204.25L110.85 202.6L115.1 203Q117.15 204.8 119.25 204.65L123.2 203.6L124 203.1L125.1 202.8L128.65 202.85L133.35 204.9L137.1 207.6L138.5 208.8L140.5 209.1L141.95 209.1L145.1 208.95L145.2 209Q147.45 209.55 146.5 212.25M91.5,210.45L91.5 210.65L91.55 210.85Q92.55 212.8 94.85 212.4L95.3 212.4L96.3 212.9L97.2 213.05L101.85 212.4L103.8 212.15L105.2 211.85L110.4 212Q114.8 213 119.55 216.15Q122.75 213.8 125.05 213.05Q127.35 212.35 127.5 211.7L128.1 211.75L127.6 211.7L131.05 211.9L128.05 211.65L128.9 211.4L128.85 211L129.45 211.5Q133.9 211.6 138.2 213.05L141.4 213.8Q144.1 213.85 146.05 211.85Q146.15 211.1 145.8 210.45Q144.7 208.65 142.55 209.4Q141.35 209.7 141.05 211L141.05 211.2L140.4 211.3L140.15 211.3L139.25 211.3L138.95 212.35L127.3 207.85L119.5 208.65L116.8 207.85Q112.5 206.2 108.1 208.1L101.9 210L99.1 210.4L96.55 210.15Q96 208.45 94.15 208.55L92.85 208.75Q91.75 209.2 91.5 210.4L91.5 210.45M120.5,205.05L120.05 205.1L119.3 204.95L114.5 204.1L114.45 204.05L115.65 205.05Q116.4 205.6 119.1 207.15L119.15 207.15L119.8 207.55Q119.65 207.5 119.65 207.75L119.85 207.6L122.8 205.35L123.05 205.05L123.95 203.95L124.05 203.9L123.85 203.95Q122.3 204.25 120.65 204.95Q120.55 204.95 120.5 205.05" />
<radialGradient
id="RadialGradID_2880" gradientUnits="userSpaceOnUse" gradientTransform="matrix(0.03302, 0.00012207, -0.00012207, 0.03302, 118.8, 210.6)" spreadMethod ="pad" cx="0" cy="0" r="819.2" fx="0" fy="0" >
<stop  offset="0.54902"  style="stop-color:#E62B2B;stop-opacity:1" />
<stop  offset="1"  style="stop-color:#802222;stop-opacity:1" />
</radialGradient>
<path style="fill:url(#RadialGradID_2880) " d="M143.7,208.35Q144.6 208.45 145.2 209L145.1 208.95L141.95 209.1Q142.6 208.45 143.7 208.35M95.9,208.35L94.8 208.15Q92.85 208.2 91.85 208.85Q92.4 207.75 93.7 207.45L94.05 207.4L94.15 207.4Q95.3 207.5 95.9 208.35M97.2,213.05L96.3 212.9L97.35 212.65L101.85 212.4L97.2 213.05M122.8,205.05L123.05 205.05L122.8 205.35L122.8 205.05M119.85,207.6L119.65 207.75Q119.65 207.5 119.8 207.55L119.85 207.6" />
<radialGradient
id="RadialGradID_2881" gradientUnits="userSpaceOnUse" gradientTransform="matrix(0.0343933, 0.00012207, -0.00012207, 0.0343933, 118.8, 211.6)" spreadMethod ="pad" cx="0" cy="0" r="819.2" fx="0" fy="0" >
<stop  offset="0"  style="stop-color:#7C10AB;stop-opacity:1" />
<stop  offset="1"  style="stop-color:#B73778;stop-opacity:0.772549" />
</radialGradient>
<path style="fill:url(#RadialGradID_2881) " d="M120.45,210.2L120.1 210L119.25 209.85L119.2 209.7Q117.95 209.45 119.05 210.05L107.8 210.75L119.65 211.3L127.5 211.7Q127.35 212.35 125.05 213.05Q122.75 213.8 119.55 216.15Q114.8 213 110.4 212L105.2 211.85L103.8 212.15L101.85 212.4L97.35 212.65L96.3 212.9L95.3 212.4L94.85 212.4Q92.55 212.8 91.55 210.85L91.5 210.4Q91.75 209.2 92.85 208.75L94.15 208.55Q96 208.45 96.55 210.15L99.1 210.4L101.9 210L108.1 208.1Q112.5 206.2 116.8 207.85L119.5 208.65L127.3 207.85L138.95 212.35L139.25 211.3L140.15 211.3L140.4 211.3L141.05 211.2L141.05 211Q141.35 209.7 142.55 209.4Q144.7 208.65 145.8 210.45Q146.15 211.1 146.05 211.85Q144.1 213.85 141.4 213.8L138.2 213.05Q133.9 211.6 129.45 211.5L128.85 211L128.9 211.4L120.45 210.2M117.3,204.95L119.3 204.95L120.05 205.1L120.5 205.05Q120.55 204.95 120.65 204.95L121.4 204.95L122.8 205.05L122.8 205.35L119.85 207.6L119.8 207.55L119.15 207.15L119.1 207.15Q116.4 205.6 115.65 205.05L117.3 204.95M119.1,205.95Q118.45 205.95 119.25 206.9Q119.5 205.95 119.1 205.95" />
<radialGradient
id="RadialGradID_2882" gradientUnits="userSpaceOnUse" gradientTransform="matrix(0.00186157, 0, 0, 0.00186157, 119.05, 206.45)" spreadMethod ="pad" cx="0" cy="0" r="819.2" fx="0" fy="0" >
<stop  offset="0"  style="stop-color:#7C10AB;stop-opacity:1" />
<stop  offset="1"  style="stop-color:#B73778;stop-opacity:0.772549" />
</radialGradient>
<path style="fill:url(#RadialGradID_2882) " d="M119.25,206.9Q118.45 205.95 119.1 205.95Q119.5 205.95 119.25 206.9" />
<radialGradient
id="RadialGradID_2883" gradientUnits="userSpaceOnUse" gradientTransform="matrix(0.034668, 0.00012207, -9.15527e-005, 0.024292, 118.85, 212.5)" spreadMethod ="pad" cx="0" cy="0" r="819.2" fx="0" fy="0" >
<stop  offset="0"  style="stop-color:#F86D93;stop-opacity:1" />
<stop  offset="1"  style="stop-color:#EDBCBC;stop-opacity:0.772549" />
</radialGradient>
<path style="fill:url(#RadialGradID_2883) " d="M119,209.85L119.6 210.95L119.65 211.3L119.55 210.95L119.05 210.05Q117.95 209.45 119.2 209.7L119.25 209.85L119 209.85" />
<path style="fill:#F357F4;fill-opacity:0.380392" d="M132.25,206.5L141.55 210.4Q141.45 209.95 142.55 210.15Q142 210.55 141.9 211.25L143 213.35L143.7 213.25L143.7 213.3L143.1 213.6L143.2 213.8L142.6 213.7L135.05 214.75L135.05 214.65L131.25 215.2L130.95 215.2L131 214.8L130.75 215.2L122.5 217.6L122.65 217.75L122.15 217.75L120.75 218.1L121.05 217.8L120.6 217.8L120.85 217.65L119.9 217.6L119.4 218.45L118.45 217.45Q115.1 216.85 108.9 215.1L96.75 214.2L95.2 214.2L94.9 214.1L92.7 212.95Q91.7 212.2 91.9 211.65L91.95 211.6L92.45 210.8Q92.75 212.1 94.85 212.4L95.75 212.3L96.2 212.3L95.95 212.55L98.1 212.85L103.45 212.2L106 211.45L111.45 211.3L116.8 212.1L119.95 214.25L121.1 213.25Q122.1 212.4 122.8 213.1L130.25 211.5L130.8 211.5L123.7 209.95L119.55 210.8Q112.75 207.55 107.15 210.7L99.15 210.85L97.6 210.6L97.45 210.75L97.5 210.65Q97.4 210 96.95 209.6L97.7 210L99.8 210L109.45 205.45L114.25 205.05L115.25 205.2Q118.05 207.3 120.35 207.2L119.35 208.25L124.8 205.15L127.7 205.1Q130.25 205.5 132.25 206.5M121.3,217.35L121.2 217.05Q120.95 216.4 120.25 217.2L121.2 217.4L121.3 217.35" />
<radialGradient
id="RadialGradID_2884" gradientUnits="userSpaceOnUse" gradientTransform="matrix(0.0146637, -0.000198364, 0.00012207, 0.00819397, 113.8, 216.25)" spreadMethod ="pad" cx="0" cy="0" r="819.2" fx="0" fy="0" >
<stop  offset="0"  style="stop-color:#FFFFFF;stop-opacity:1" />
<stop  offset="0.992157"  style="stop-color:#FA82A2;stop-opacity:0" />
</radialGradient>
<path style="fill:url(#RadialGradID_2884) " d="M109.45,214.4L112.6 214.9Q114 214.65 114.6 215.55L120.05 216.55L117.25 218.75L116.2 218.7L114.6 216.8L114.6 218.2L110.9 217.95L109.45 215.5L108.05 217.05Q106.8 215.2 108.9 213.55L109.45 214.4" />
<radialGradient
id="RadialGradID_2885" gradientUnits="userSpaceOnUse" gradientTransform="matrix(0.00993347, -0.000152588, 0.000152588, 0.00993347, 126.9, 215.25)" spreadMethod ="pad" cx="0" cy="0" r="819.2" fx="0" fy="0" >
<stop  offset="0"  style="stop-color:#FFFFFF;stop-opacity:1" />
<stop  offset="0.992157"  style="stop-color:#FA82A2;stop-opacity:0" />
</radialGradient>
<path style="fill:url(#RadialGradID_2885) " d="M130.6,213.9L129.2 214.25Q126.95 214.4 127.45 216.2L123.25 216.25L122.4 218.75L120.6 215.8L122 216.3Q121.7 214.15 124.45 214.5Q126.35 214.65 127.85 213.35Q129.4 211.9 130.6 213.9" />
<radialGradient
id="RadialGradID_2886" gradientUnits="userSpaceOnUse" gradientTransform="matrix(0.00776672, -0.00012207, 0.00012207, 0.00776672, 127.35, 205)" spreadMethod ="pad" cx="0" cy="0" r="819.2" fx="0" fy="0" >
<stop  offset="0"  style="stop-color:#FFFFFF;stop-opacity:1" />
<stop  offset="0.992157"  style="stop-color:#FA82A2;stop-opacity:0" />
</radialGradient>
<path style="fill:url(#RadialGradID_2886) " d="M121.35,207.25L121.65 205.3L124.3 204.7Q129.85 202.95 133.5 205.5L129.6 205.5Q125.4 204.65 121.7 207.6L121.35 207.25" />
</g>
</svg>
