<?xml version="1.0" encoding="utf-8"?>
<svg version="1.1" id="Layer_1"
xmlns="http://www.w3.org/2000/svg"
xmlns:xlink="http://www.w3.org/1999/xlink"
xmlns:author="http://www.sothink.com"
width="9px" height="5px"
xml:space="preserve">
<g id="307" transform="matrix(1, 0, 0, 1, 0, 0.55)">
<radialGradient
id="RadialGradID_2942" gradientUnits="userSpaceOnUse" gradientTransform="matrix(0, -0.00198364, -0.00352478, -7.62939e-005, 3.95, 2.8)" spreadMethod ="pad" cx="0" cy="0" r="819.2" fx="0" fy="0" >
<stop  offset="0.0470588"  style="stop-color:#DA6969;stop-opacity:0.513725" />
<stop  offset="1"  style="stop-color:#FFEFEA;stop-opacity:0" />
</radialGradient>
<path style="fill:url(#RadialGradID_2942) " d="M3.95,1.6Q4.85 1.65 5.5 2Q6.15 2.35 6.15 2.9Q6.15 3.4 5.5 3.75L3.9 4.1L2.4 3.7Q1.75 3.35 1.75 2.8Q1.75 2.3 2.4 1.95Q3 1.55 3.95 1.6" />
<radialGradient
id="RadialGradID_2943" gradientUnits="userSpaceOnUse" gradientTransform="matrix(0.00100708, 3.05176e-005, -1.52588e-005, 0.00102234, 7.25, 0.25)" spreadMethod ="pad" cx="0" cy="0" r="819.2" fx="0" fy="0" >
<stop  offset="0.0470588"  style="stop-color:#C52929;stop-opacity:0.580392" />
<stop  offset="1"  style="stop-color:#FFEFEA;stop-opacity:0" />
</radialGradient>
<path style="fill:url(#RadialGradID_2943) " d="M7.3,-0.55L7.85 -0.3L8.05 0.3L7.8 0.85L7.25 1.05Q6.9 1.05 6.7 0.8L6.45 0.25L6.75 -0.35L7.3 -0.55" />
<radialGradient
id="RadialGradID_2944" gradientUnits="userSpaceOnUse" gradientTransform="matrix(0.00100708, 3.05176e-005, -1.52588e-005, 0.00102234, 0.8, 0.3)" spreadMethod ="pad" cx="0" cy="0" r="819.2" fx="0" fy="0" >
<stop  offset="0.0470588"  style="stop-color:#C52929;stop-opacity:0.580392" />
<stop  offset="1"  style="stop-color:#FFEFEA;stop-opacity:0" />
</radialGradient>
<path style="fill:url(#RadialGradID_2944) " d="M1.35,0.9L0.8 1.1Q0.45 1.1 0.25 0.9L0 0.25L0.3 -0.25Q0.5 -0.5 0.85 -0.5L1.4 -0.25L1.6 0.3L1.35 0.9" />
<path style="fill:#FFFFFF;fill-opacity:1" d="M2.05,0.8L2.6 0.75L3.3 0.55L3.8 0.75L4.15 0.75L4.6 0.55L5.4 0.8L5.35 0.9L4.9 1.15L3.75 1.25L3.2 1.15L2.05 0.8" />
<path style="fill:#E9B386;fill-opacity:1" d="M3.9,-0.2L4.2 -0.4L4.2 -0.2L4.1 -0.15L3.75 -0.15L3.9 -0.2" />
<radialGradient
id="RadialGradID_2945" gradientUnits="userSpaceOnUse" gradientTransform="matrix(0.00411987, 0.00012207, -6.10352e-005, 0.00421143, 3.95, 0.7)" spreadMethod ="pad" cx="0" cy="0" r="819.2" fx="0" fy="0" >
<stop  offset="0.760784"  style="stop-color:#EB8458;stop-opacity:1" />
<stop  offset="1"  style="stop-color:#984D1B;stop-opacity:1" />
</radialGradient>
<path style="fill:url(#RadialGradID_2945) " d="M6.2,0.9L6 0.9L5.35 0.9L5.4 0.8L4.6 0.55L4.15 0.75L3.8 0.75L3.3 0.55L2.6 0.75L2.05 0.8L1.55 0.75L1.5 0.75L1.15 0.7Q0.6 0.6 0.55 0.45Q0.4 0.15 0.6 0.05Q0.9 -0.05 1 0.2L1.05 0.25L1 0.2L1.1 0.35Q1.15 0.45 1.6 0.55L2.15 0.55L3.2 0.3L3.7 0.4L3.95 0.5L4.05 0.45L4.2 0.4L4.75 0.35L5.4 0.55L6.05 0.65L6.7 0.45L6.75 0.45L6.7 0.45L6.75 0.45L7.05 0.1L7.25 0.2L7.3 0.25L7.3 0.3L6.9 0.75L6.2 0.9" />
<radialGradient
id="RadialGradID_2946" gradientUnits="userSpaceOnUse" gradientTransform="matrix(0.00416565, 0.000137329, -7.62939e-005, 0.00268555, 4.05, 1.15)" spreadMethod ="pad" cx="0" cy="0" r="819.2" fx="0" fy="0" >
<stop  offset="0"  style="stop-color:#F87E4B;stop-opacity:1" />
<stop  offset="1"  style="stop-color:#FDF8CE;stop-opacity:0.501961" />
</radialGradient>
<path style="fill:url(#RadialGradID_2946) " d="M6.7,0.45L6.75 0.45L6.7 0.45L6.05 0.65L5.4 0.55L4.75 0.35L4.2 0.4L4.05 0.45L3.95 0.5L3.7 0.4L3.2 0.3L2.15 0.55L1.6 0.55Q1.15 0.45 1.1 0.35L1 0.2L1.05 0.25L1 0.2L1.4 0.35L1.65 0.3L2.55 0.1L3.55 0L4.05 0.15L4.45 0L5.3 0.05L6.7 0.45M6,0.9L6.2 0.9L6.9 0.75L6.8 0.9L6.9 0.75L6.8 0.9Q6.1 2.2 5 2.75L4.75 2.8L3.05 2.8Q2.15 2.3 1.15 0.7L1.5 0.75L1.55 0.75Q1.75 0.8 2 1L2.95 1.4L3.5 1.5L4.65 1.5L5.2 1.35L5.55 1.1L6 0.9" />
<radialGradient
id="RadialGradID_2947" gradientUnits="userSpaceOnUse" gradientTransform="matrix(0.00411987, 0.00012207, -6.10352e-005, 0.00421143, 3.95, 0.7)" spreadMethod ="pad" cx="0" cy="0" r="819.2" fx="0" fy="0" >
<stop  offset="0.760784"  style="stop-color:#A52727;stop-opacity:1" />
<stop  offset="1"  style="stop-color:#652323;stop-opacity:1" />
</radialGradient>
<path style="fill:url(#RadialGradID_2947) " d="M3.2,1.15L3.75 1.25L4.9 1.15L5.35 0.9L6 0.9L5.55 1.1L5.2 1.35L4.65 1.5L3.5 1.5L2.95 1.4L2 1Q1.75 0.8 1.55 0.75L2.05 0.8L3.2 1.15" />
<radialGradient
id="RadialGradID_2948" gradientUnits="userSpaceOnUse" gradientTransform="matrix(0.00152588, 4.57764e-005, -1.52588e-005, 0.000869751, 3.45, 1.8)" spreadMethod ="pad" cx="0" cy="0" r="819.2" fx="0" fy="0" >
<stop  offset="0"  style="stop-color:#FFFFFF;stop-opacity:1" />
<stop  offset="0.992157"  style="stop-color:#FA82A2;stop-opacity:0" />
</radialGradient>
<path style="fill:url(#RadialGradID_2948) " d="M3.55,2.05L3.15 2L3 1.75L2.85 1.9Q2.7 1.7 2.95 1.5L3 1.6L3.35 1.65L3.55 1.75L4.1 1.9L3.8 2.05L3.7 2.05L3.55 1.9L3.55 2.05" />
<radialGradient
id="RadialGradID_2949" gradientUnits="userSpaceOnUse" gradientTransform="matrix(0.0010376, 3.05176e-005, -1.52588e-005, 0.00105286, 4.95, 1.8)" spreadMethod ="pad" cx="0" cy="0" r="819.2" fx="0" fy="0" >
<stop  offset="0"  style="stop-color:#FFFFFF;stop-opacity:1" />
<stop  offset="0.992157"  style="stop-color:#FA82A2;stop-opacity:0" />
</radialGradient>
<path style="fill:url(#RadialGradID_2949) " d="M5.2,1.7Q4.95 1.7 5.05 1.95L4.6 1.95L4.5 2.2L4.3 1.85L4.45 1.95Q4.4 1.7 4.7 1.75L5.1 1.65Q5.2 1.45 5.35 1.65L5.2 1.7" />
<radialGradient
id="RadialGradID_2950" gradientUnits="userSpaceOnUse" gradientTransform="matrix(0.000808716, 3.05176e-005, -1.52588e-005, 0.000823975, 4.55, 0.1)" spreadMethod ="pad" cx="0" cy="0" r="819.2" fx="0" fy="0" >
<stop  offset="0"  style="stop-color:#FFFFFF;stop-opacity:1" />
<stop  offset="0.992157"  style="stop-color:#FA82A2;stop-opacity:0" />
</radialGradient>
<path style="fill:url(#RadialGradID_2950) " d="M3.9,0.35L3.95 0.15L4.25 0.05Q4.8 -0.1 5.2 0.25L4.8 0.2L3.95 0.35L3.9 0.35" />
</g>
</svg>
