<?xml version="1.0" encoding="utf-8"?>
<svg version="1.1" id="Layer_1"
xmlns="http://www.w3.org/2000/svg"
xmlns:xlink="http://www.w3.org/1999/xlink"
xmlns:author="http://www.sothink.com"
width="9px" height="5px"
xml:space="preserve">
<g id="304" transform="matrix(1, 0, 0, 1, 0, 0)">
<radialGradient
id="RadialGradID_2921" gradientUnits="userSpaceOnUse" gradientTransform="matrix(-4.57764e-005, -0.00190735, -0.00358582, 9.15527e-005, 4.4, 3.7)" spreadMethod ="pad" cx="0" cy="0" r="819.2" fx="0" fy="0" >
<stop  offset="0.0470588"  style="stop-color:#DA6969;stop-opacity:0.513725" />
<stop  offset="1"  style="stop-color:#FFEFEA;stop-opacity:0" />
</radialGradient>
<path style="fill:url(#RadialGradID_2921) " d="M6,4.55L4.4 4.95L2.85 4.65Q2.15 4.3 2.15 3.8Q2.15 3.3 2.8 2.95L4.35 2.55Q5.3 2.55 6 2.9Q6.6 3.2 6.65 3.7L6 4.55" />
<radialGradient
id="RadialGradID_2922" gradientUnits="userSpaceOnUse" gradientTransform="matrix(0.00112915, -1.52588e-005, 1.52588e-005, 0.00123596, 8.05, 1)" spreadMethod ="pad" cx="0" cy="0" r="819.2" fx="0" fy="0" >
<stop  offset="0.0470588"  style="stop-color:#C52929;stop-opacity:0.580392" />
<stop  offset="1"  style="stop-color:#FFEFEA;stop-opacity:0" />
</radialGradient>
<path style="fill:url(#RadialGradID_2922) " d="M7.2,1.05Q7.15 0.65 7.4 0.35Q7.7 0.05 8.05 0.05L8.7 0.3L8.95 1L8.7 1.7Q8.45 2 8.05 2Q7.7 2 7.45 1.7L7.2 1.05" />
<radialGradient
id="RadialGradID_2923" gradientUnits="userSpaceOnUse" gradientTransform="matrix(0.00112915, -1.52588e-005, 1.52588e-005, 0.00123596, 0.9, 1)" spreadMethod ="pad" cx="0" cy="0" r="819.2" fx="0" fy="0" >
<stop  offset="0.0470588"  style="stop-color:#C52929;stop-opacity:0.580392" />
<stop  offset="1"  style="stop-color:#FFEFEA;stop-opacity:0" />
</radialGradient>
<path style="fill:url(#RadialGradID_2923) " d="M1.8,1L1.55 1.7L0.9 2L0.25 1.7L0 1.05Q0 0.6 0.25 0.35Q0.5 0.05 0.9 0.05L1.5 0.3L1.8 1" />
<path style="fill:#FCF1F1;fill-opacity:1" d="M3.85,1.4Q3.75 1.3 4 1.25L4.4 1.2L5.05 1.25L5.2 1.35L4.3 1.55L3.85 1.4" />
<radialGradient
id="RadialGradID_2924" gradientUnits="userSpaceOnUse" gradientTransform="matrix(0.00515747, -6.10352e-005, 1.52588e-005, 0.00244141, 4.45, 1.6)" spreadMethod ="pad" cx="0" cy="0" r="819.2" fx="0" fy="0" >
<stop  offset="0"  style="stop-color:#F84B80;stop-opacity:1" />
<stop  offset="1"  style="stop-color:#ED9A78;stop-opacity:0.501961" />
</radialGradient>
<path style="fill:url(#RadialGradID_2924) " d="M0.7,0.7L0.7 0.75L0.7 0.7" />
<radialGradient
id="RadialGradID_2925" gradientUnits="userSpaceOnUse" gradientTransform="matrix(0.00515747, -6.10352e-005, 1.52588e-005, 0.00250244, 4.45, 1.35)" spreadMethod ="pad" cx="0" cy="0" r="819.2" fx="0" fy="0" >
<stop  offset="0"  style="stop-color:#FC94A9;stop-opacity:1" />
<stop  offset="1"  style="stop-color:#F7B9B3;stop-opacity:0.501961" />
</radialGradient>
<path style="fill:url(#RadialGradID_2925) " d="M7.2,1.25L7.05 1.25L7.15 1.25L7.2 1.25" />
<radialGradient
id="RadialGradID_2926" gradientUnits="userSpaceOnUse" gradientTransform="matrix(0.00515747, -6.10352e-005, 1.52588e-005, 0.00248718, 4.3, 2)" spreadMethod ="pad" cx="0" cy="0" r="819.2" fx="0" fy="0" >
<stop  offset="0"  style="stop-color:#FF91DE;stop-opacity:1" />
<stop  offset="1"  style="stop-color:#F7B9B3;stop-opacity:0.501961" />
</radialGradient>
<path style="fill:url(#RadialGradID_2926) " d="M1.15,1.35L2.95 1.95L3.2 2.05L4.85 2.1L6.95 1.55L7.6 1.35L7.85 1.25Q7.9 2 7.25 2.65Q6.55 3.25 5.5 3.4L3.8 3.4L2.25 3Q1.35 2.45 1 1.35L1.15 1.35" />
<radialGradient
id="RadialGradID_2927" gradientUnits="userSpaceOnUse" gradientTransform="matrix(0.00189209, -4.57764e-005, 1.52588e-005, 0.001297, 3.4, 2.45)" spreadMethod ="pad" cx="0" cy="0" r="819.2" fx="0" fy="0" >
<stop  offset="0"  style="stop-color:#FFFFFF;stop-opacity:1" />
<stop  offset="0.992157"  style="stop-color:#FA82A2;stop-opacity:0" />
</radialGradient>
<path style="fill:url(#RadialGradID_2927) " d="M4.2,2.45L3.85 2.8L3.7 2.8L3.5 2.5L3.5 2.75L3 2.7L2.8 2.3L2.65 2.55Q2.45 2.25 2.75 2L2.8 2.15L3.25 2.2L3.5 2.3L4.2 2.45" />
<radialGradient
id="RadialGradID_2928" gradientUnits="userSpaceOnUse" gradientTransform="matrix(0.00128174, -1.52588e-005, 3.05176e-005, 0.00117493, 5.45, 2.5)" spreadMethod ="pad" cx="0" cy="0" r="819.2" fx="0" fy="0" >
<stop  offset="0"  style="stop-color:#FFFFFF;stop-opacity:1" />
<stop  offset="0.992157"  style="stop-color:#FA82A2;stop-opacity:0" />
</radialGradient>
<path style="fill:url(#RadialGradID_2928) " d="M5.9,2.3L5.75 2.35Q5.45 2.35 5.5 2.6L4.95 2.6L4.85 2.9L4.6 2.55L4.8 2.6Q4.75 2.35 5.1 2.4L5.55 2.25L5.9 2.3" />
<radialGradient
id="RadialGradID_2929" gradientUnits="userSpaceOnUse" gradientTransform="matrix(0.00515747, -6.10352e-005, 1.52588e-005, 0.00244141, 4.4, 1.6)" spreadMethod ="pad" cx="0" cy="0" r="819.2" fx="0" fy="0" >
<stop  offset="0"  style="stop-color:#FD93D2;stop-opacity:1" />
<stop  offset="1"  style="stop-color:#F7D2C4;stop-opacity:0.501961" />
</radialGradient>
<path style="fill:url(#RadialGradID_2929) " d="M2.3,1.4L2.15 1.4L2.1 1.4L1.55 1.5L1.1 1.5L1.2 1.35L1.1 1.25L1.1 1.2L1.1 1.15L1.1 1.1L1.2 1.1L2 0.6Q2.75 0.15 3.4 0.15L4.1 0.3L4.75 0.3L5.35 0.15L6.3 0.35L7.45 0.9L7.95 1.2L7.8 1.4L7.8 1.3L7.7 1.4Q7.4 1.35 7.45 1.5L7.25 1.4L6.95 1.35L6.6 1.3L6.9 1.35L6.9 1.4L6.85 1.4L6.85 1.5L5.95 1.3L6.15 1.3L6 1.25L5.65 1.25L4.2 1.2L3.8 1.2L3.55 1.25L2.95 1.35L2.4 1.4L2.3 1.4M2.7,1.25L2.7 1.3L2.7 1.25" />
<radialGradient
id="RadialGradID_2930" gradientUnits="userSpaceOnUse" gradientTransform="matrix(0.0010376, -0.000152588, 0.000106812, 0.00050354, 5.15, 0.25)" spreadMethod ="pad" cx="0" cy="0" r="819.2" fx="0" fy="0" >
<stop  offset="0"  style="stop-color:#FFFFFF;stop-opacity:1" />
<stop  offset="0.992157"  style="stop-color:#FDD7E3;stop-opacity:0" />
</radialGradient>
<path style="fill:url(#RadialGradID_2930) " d="M4.95,0.1L6.05 0.2L5.6 0.5L4.45 0.7L4.4 0.4L4.95 0.1" />
<path style="fill:#DA6161;fill-opacity:1" d="M4.8,1.15L5.25 1.1L6.1 1.25L6.35 1.25L7.6 1.3L7.95 1.1L8.1 1.1L8.15 1.35L7.75 1.5L7.35 1.55L7.15 1.65L6.4 1.9L5.25 2.2L4 2.25L2.7 2L1.85 1.65L1.6 1.6L1.25 1.6L0.85 1.45L0.75 1.2L0.85 1.05L1 1.1L1.1 1.25L1.55 1.45L1.6 1.45L2.7 1.3L3.3 1.1L3.8 1.1L4.8 1.15M5.75,1.4L5.15 1.3L4.2 1.4L3.5 1.3L2.8 1.45L2.75 1.45L2.35 1.5L2.8 1.8L4.25 2.1L5.6 1.95L6.6 1.5L5.9 1.4L5.75 1.4" />
<path style="fill:#F1FCFB;fill-opacity:1" d="M5.4,1.5L5.3 1.4L5.7 1.4L5.75 1.4L5.9 1.4L5.4 1.5M4.2,1.4L4.3 1.4Q3.95 1.4 4.6 1.45L5.25 1.5L3.45 1.45L2.8 1.45L3.5 1.3L4.2 1.4" />
<path style="fill:#FFFFFF;fill-opacity:1" d="M3.45,1.45L5.25 1.5L4.6 1.45Q3.95 1.4 4.3 1.4L4.2 1.4L5.15 1.3L5.75 1.4L5.7 1.4L5.3 1.4L5.4 1.5L5.1 1.55L4.65 1.6L4.25 1.6L3.2 1.5L2.8 1.45L3.45 1.45" />
<path style="fill:#E7988F;fill-opacity:1" d="M5.9,1.4L6.6 1.5L5.6 1.95L4.25 2.1L2.8 1.8L2.35 1.5L2.75 1.45L2.8 1.45L3.2 1.5L4.25 1.6L4.65 1.6L5.1 1.55L5.4 1.5L5.9 1.4" />
</g>
</svg>
