<?xml version="1.0" encoding="utf-8"?>
<svg version="1.1" id="Layer_1"
xmlns="http://www.w3.org/2000/svg"
xmlns:xlink="http://www.w3.org/1999/xlink"
xmlns:author="http://www.sothink.com"
width="8px" height="5px"
xml:space="preserve">
<g id="309" transform="matrix(1, 0, 0, 1, 0, 0)">
<radialGradient
id="RadialGradID_2961" gradientUnits="userSpaceOnUse" gradientTransform="matrix(-6.10352e-005, -0.00160217, -0.00386047, 7.62939e-005, 3.75, 3.05)" spreadMethod ="pad" cx="0" cy="0" r="819.2" fx="0" fy="0" >
<stop  offset="0.0470588"  style="stop-color:#DA6969;stop-opacity:0.513725" />
<stop  offset="1"  style="stop-color:#FFEFEA;stop-opacity:0" />
</radialGradient>
<path style="fill:url(#RadialGradID_2961) " d="M3.75,2.1L5.5 2.35Q6.15 2.6 6.2 3Q6.2 3.4 5.55 3.8L3.8 4.1L2.15 3.8Q1.35 3.5 1.35 3.1Q1.35 2.7 2.1 2.4L3.75 2.1" />
<radialGradient
id="RadialGradID_2962" gradientUnits="userSpaceOnUse" gradientTransform="matrix(0.00134277, -1.52588e-005, 1.52588e-005, 0.00128174, 1.1, 1.1)" spreadMethod ="pad" cx="0" cy="0" r="819.2" fx="0" fy="0" >
<stop  offset="0.0470588"  style="stop-color:#C52929;stop-opacity:0.580392" />
<stop  offset="1"  style="stop-color:#FFEFEA;stop-opacity:0" />
</radialGradient>
<path style="fill:url(#RadialGradID_2962) " d="M2.1,1.1L1.85 1.8L1.1 2.1L0.3 1.85Q0 1.6 0 1.15Q0 0.75 0.3 0.45Q0.6 0.1 1.05 0.1Q1.45 0.1 1.75 0.4Q2.1 0.7 2.1 1.1" />
<radialGradient
id="RadialGradID_2963" gradientUnits="userSpaceOnUse" gradientTransform="matrix(0.00134277, -1.52588e-005, 1.52588e-005, 0.00128174, 6.8, 0.95)" spreadMethod ="pad" cx="0" cy="0" r="819.2" fx="0" fy="0" >
<stop  offset="0.0470588"  style="stop-color:#C52929;stop-opacity:0.580392" />
<stop  offset="1"  style="stop-color:#FFEFEA;stop-opacity:0" />
</radialGradient>
<path style="fill:url(#RadialGradID_2963) " d="M6.8,2Q6.4 2 6.1 1.7Q5.75 1.4 5.75 1Q5.75 0.55 6.1 0.3Q6.35 0 6.8 0Q7.25 0 7.55 0.3Q7.85 0.5 7.85 1L7.55 1.7Q7.25 2 6.8 2" />
<radialGradient
id="RadialGradID_2964" gradientUnits="userSpaceOnUse" gradientTransform="matrix(0.00334167, 0, 0, 0.00326538, 3.9, 1.7)" spreadMethod ="pad" cx="0" cy="0" r="819.2" fx="0" fy="0" >
<stop  offset="0"  style="stop-color:#FF6C8E;stop-opacity:1" />
<stop  offset="0.513725"  style="stop-color:#FFA4B1;stop-opacity:1" />
<stop  offset="1"  style="stop-color:#FEE1E1;stop-opacity:1" />
</radialGradient>
<path style="fill:url(#RadialGradID_2964) " d="M6.45,1.1Q6.4 1.8 5.8 2.45Q4.9 3.35 3.55 3.25Q2.5 3.3 2.15 2.8L1.4 1.3Q2.4 0.5 3.45 0.55Q4.8 0.55 6.45 1.1" />
<path style="fill:#FFFFFF;fill-opacity:1" d="M3.45,1.35L4.55 1.45L2.85 1.5L3.45 1.35" />
<radialGradient
id="RadialGradID_2965" gradientUnits="userSpaceOnUse" gradientTransform="matrix(0.00392151, 0, 0, 0.0038147, 3.95, 1.2)" spreadMethod ="pad" cx="0" cy="0" r="819.2" fx="0" fy="0" >
<stop  offset="0"  style="stop-color:#B5204D;stop-opacity:0.513725" />
<stop  offset="1"  style="stop-color:#B5204D;stop-opacity:0.941176" />
</radialGradient>
<path style="fill:url(#RadialGradID_2965) " d="M5.4,1.55L2.3 1.65L1.7 1.7Q1.1 1.6 1 1.25L1 1.15Q0.95 0.9 1.1 0.95Q1.4 1.4 2.45 1.3L3.25 1.15L5.25 1.3Q6.15 1.45 6.9 0.75Q7.15 0.95 6.7 1.35Q6.3 1.75 5.4 1.55M2.85,1.5L4.55 1.45L3.45 1.35L2.85 1.5" />
<path style="fill:#E21246;fill-opacity:0.380392" d="M3.3,3.55Q2.65 3.4 2.25 2.9Q4.05 3.75 5.65 2.6L4.95 3.35L3.3 3.55" />
<radialGradient
id="RadialGradID_2966" gradientUnits="userSpaceOnUse" gradientTransform="matrix(0.00117493, 0.000213623, -0.000289917, 0.000854492, 4.65, 1)" spreadMethod ="pad" cx="0" cy="0" r="819.2" fx="0" fy="0" >
<stop  offset="0"  style="stop-color:#FFFFFF;stop-opacity:1" />
<stop  offset="0.992157"  style="stop-color:#FA82A2;stop-opacity:0" />
</radialGradient>
<path style="fill:url(#RadialGradID_2966) " d="M3.65,1.1L3.8 0.9L4.2 0.9Q5.1 0.85 5.6 1.25L4.95 1.15L3.7 1.1L3.65 1.1" />
<radialGradient
id="RadialGradID_2967" gradientUnits="userSpaceOnUse" gradientTransform="matrix(0.00219727, 0.000198364, -7.62939e-005, 0.000900269, 3.1, 2.2)" spreadMethod ="pad" cx="0" cy="0" r="819.2" fx="0" fy="0" >
<stop  offset="0"  style="stop-color:#FFFFFF;stop-opacity:1" />
<stop  offset="0.992157"  style="stop-color:#FA82A2;stop-opacity:0" />
</radialGradient>
<path style="fill:url(#RadialGradID_2967) " d="M3.15,2.45L2.65 2.35L2.45 2.05L2.2 2.25Q2.05 2 2.35 1.85L2.45 1.95L2.95 2.05L3.2 2.1L4 2.35L3.6 2.5L3.4 2.5L3.15 2.3L3.15 2.45" />
<radialGradient
id="RadialGradID_2968" gradientUnits="userSpaceOnUse" gradientTransform="matrix(0.00123596, -1.52588e-005, 3.05176e-005, 0.000900269, 5.15, 2.1)" spreadMethod ="pad" cx="0" cy="0" r="819.2" fx="0" fy="0" >
<stop  offset="0"  style="stop-color:#FFFFFF;stop-opacity:1" />
<stop  offset="0.992157"  style="stop-color:#FA82A2;stop-opacity:0" />
</radialGradient>
<path style="fill:url(#RadialGradID_2968) " d="M5.5,2Q5.15 2 5.25 2.2L4.75 2.2L4.6 2.4L4.4 2.2L4.55 2.2Q4.5 2 4.85 2.05L5.3 1.95Q5.5 1.75 5.65 1.95L5.5 2" />
<path style="fill:#FFFFFF;fill-opacity:0.8" d="M2.55,1L2.55 1.05L2.55 1.1L2.5 1.15L2.45 1.1L2.45 1.05L2.45 1L2.5 1L2.55 1M2,2L2.05 1.95L2.1 2L2.1 2.05L2.05 2.1L2 2.05L2 2M2.45,1.75L2.5 1.7L2.55 1.75L2.55 1.8L2.55 1.85L2.5 1.85L2.45 1.85L2.45 1.8L2.45 1.75M3.6,0.75L3.6 0.7L3.65 0.7L3.7 0.7L3.7 0.75L3.7 0.8L3.65 0.85L3.6 0.8L3.6 0.75M3.2,1.1L3.1 1.05L3.1 1L3.1 0.95L3.2 0.95L3.25 0.95L3.25 1L3.25 1.05L3.2 1.1M3.25,2L3.3 2L3.35 2L3.4 2.05L3.35 2.15L3.3 2.15L3.25 2.15L3.25 2.05L3.25 2M4,2L4.05 2L4.05 2.05L4.05 2.1L4 2.1L3.95 2.1L3.95 2.05L3.95 2L4 2M4.75,0.95L4.7 0.95L4.7 0.9L4.7 0.85L4.75 0.85L4.8 0.85L4.85 0.9L4.8 0.95L4.75 0.95M4.6,2L4.55 1.95L4.55 1.9L4.55 1.85L4.6 1.85L4.65 1.85L4.65 1.9L4.65 1.95L4.6 2M5.6,1.15L5.55 1.15L5.55 1.1L5.55 1.05L5.6 1.05L5.65 1.05L5.65 1.1L5.65 1.15L5.6 1.15M5.65,2.15L5.65 2.2L5.6 2.2L5.55 2.2L5.55 2.15L5.55 2.1L5.6 2.1L5.65 2.1L5.65 2.15M5.35,2.6L5.3 2.65L5.2 2.6L5.2 2.55L5.2 2.5L5.3 2.5L5.35 2.5L5.35 2.55L5.35 2.6M4.8,2.5Q5.05 2.55 4.95 2.85L4.8 2.9L4.55 2.7L4.7 2.5L4.8 2.5M4.3,2.65L4.3 2.7L4.3 2.75L4.25 2.75L4.15 2.75L4.15 2.7L4.15 2.65L4.25 2.65L4.3 2.65M4.3,3.1L4.3 3.05L4.3 3L4.35 3L4.4 3L4.4 3.05L4.4 3.1L4.35 3.15L4.3 3.1M3.4,2.65L3.5 2.65L3.55 2.65L3.55 2.7L3.55 2.75L3.5 2.75L3.4 2.75L3.4 2.7L3.4 2.65M3.95,2.7L3.9 2.7L3.85 2.7L3.85 2.65L3.85 2.6L3.9 2.6L3.95 2.6L3.95 2.65L3.95 2.7M2.75,2.45L2.75 2.5L2.75 2.55L2.7 2.55L2.65 2.55L2.65 2.5L2.65 2.45L2.7 2.4L2.75 2.45M3.2,3.05L3.15 3.05L3.1 3.1L3.05 3.05L3.05 3L3.1 2.95L3.15 3L3.2 3.05M2.35,2.5L2.35 2.55L2.35 2.6L2.3 2.6L2.25 2.6L2.25 2.55L2.25 2.5L2.3 2.5L2.35 2.5M2.7,2.8L2.7 2.9L2.65 2.9L2.6 2.9L2.55 2.8L2.6 2.75L2.65 2.75L2.7 2.75L2.7 2.8" />
</g>
</svg>
