<?xml version="1.0" encoding="utf-8"?>
<svg version="1.1" id="Layer_1"
xmlns="http://www.w3.org/2000/svg"
xmlns:xlink="http://www.w3.org/1999/xlink"
xmlns:author="http://www.sothink.com"
width="9px" height="6px"
xml:space="preserve">
<g id="298" transform="matrix(1, 0, 0, 1, 0, 0)">
<radialGradient
id="RadialGradID_2887" gradientUnits="userSpaceOnUse" gradientTransform="matrix(-4.57764e-005, -0.00228882, -0.00331116, 0.000106812, 3.95, 4.3)" spreadMethod ="pad" cx="0" cy="0" r="819.2" fx="0" fy="0" >
<stop  offset="0.0470588"  style="stop-color:#DA6969;stop-opacity:0.513725" />
<stop  offset="1"  style="stop-color:#FFEFEA;stop-opacity:0" />
</radialGradient>
<path style="fill:url(#RadialGradID_2887) " d="M5.45,5.3Q4.85 5.75 4 5.8L2.55 5.45Q1.9 5 1.9 4.4Q1.9 3.8 2.5 3.4Q3.1 2.95 3.95 2.9Q4.8 2.9 5.45 3.3Q6 3.65 6.05 4.25Q6.05 4.85 5.45 5.3" />
<radialGradient
id="RadialGradID_2888" gradientUnits="userSpaceOnUse" gradientTransform="matrix(0.00105286, -1.52588e-005, 1.52588e-005, 0.0014801, 7.45, 1.2)" spreadMethod ="pad" cx="0" cy="0" r="819.2" fx="0" fy="0" >
<stop  offset="0.0470588"  style="stop-color:#C52929;stop-opacity:0.580392" />
<stop  offset="1"  style="stop-color:#FFEFEA;stop-opacity:0" />
</radialGradient>
<path style="fill:url(#RadialGradID_2888) " d="M6.65,1.2Q6.6 0.7 6.85 0.35Q7.1 0 7.45 0Q7.75 0 8 0.35L8.25 1.15L8.05 2L7.45 2.35Q7.1 2.35 6.85 2L6.65 1.2" />
<radialGradient
id="RadialGradID_2889" gradientUnits="userSpaceOnUse" gradientTransform="matrix(0.00105286, -1.52588e-005, 1.52588e-005, 0.0014801, 0.85, 1.2)" spreadMethod ="pad" cx="0" cy="0" r="819.2" fx="0" fy="0" >
<stop  offset="0.0470588"  style="stop-color:#C52929;stop-opacity:0.580392" />
<stop  offset="1"  style="stop-color:#FFEFEA;stop-opacity:0" />
</radialGradient>
<path style="fill:url(#RadialGradID_2889) " d="M1.65,1.15L1.4 2L0.85 2.35Q0.5 2.35 0.25 2Q0 1.7 0 1.2Q0 0.7 0.25 0.35Q0.45 0 0.8 0Q1.15 0 1.4 0.35L1.65 1.15" />
<path style="fill:#FCF1F1;fill-opacity:1" d="M3.6,1.4L4 1.35L4.55 1.45L4.7 1.5Q4.3 1.8 3.95 1.7L3.5 1.6L3.6 1.4" />
<radialGradient
id="RadialGradID_2890" gradientUnits="userSpaceOnUse" gradientTransform="matrix(0.004776, -7.62939e-005, 1.52588e-005, 0.00299072, 4.05, 1.6)" spreadMethod ="pad" cx="0" cy="0" r="819.2" fx="0" fy="0" >
<stop  offset="0"  style="stop-color:#FC94A9;stop-opacity:1" />
<stop  offset="1"  style="stop-color:#F7B9B3;stop-opacity:0.501961" />
</radialGradient>
<path style="fill:url(#RadialGradID_2890) " d="M6.55,1.45L6.6 1.45L6.45 1.45L6.55 1.4L6.55 1.45" />
<radialGradient
id="RadialGradID_2891" gradientUnits="userSpaceOnUse" gradientTransform="matrix(0.00479126, -7.62939e-005, 0.00012207, 0.00299072, 3.95, 2.25)" spreadMethod ="pad" cx="0" cy="0" r="819.2" fx="0" fy="0" >
<stop  offset="0"  style="stop-color:#FC94A9;stop-opacity:1" />
<stop  offset="1"  style="stop-color:#F7B9B3;stop-opacity:0.501961" />
</radialGradient>
<path style="fill:url(#RadialGradID_2891) " d="M1.05,1.5L2.6 2.2L2.9 2.3L4.45 2.35L6.35 1.65L6.95 1.45L7.2 1.35Q7.3 2.2 6.65 3Q6.05 3.8 5.05 4L3.55 4Q2.5 4.05 1.8 3.45Q1.05 2.8 0.8 1.5L1.05 1.5" />
<radialGradient
id="RadialGradID_2892" gradientUnits="userSpaceOnUse" gradientTransform="matrix(0.00175476, -4.57764e-005, 1.52588e-005, 0.0015564, 3.15, 2.85)" spreadMethod ="pad" cx="0" cy="0" r="819.2" fx="0" fy="0" >
<stop  offset="0"  style="stop-color:#FFFFFF;stop-opacity:1" />
<stop  offset="0.992157"  style="stop-color:#FA82A2;stop-opacity:0" />
</radialGradient>
<path style="fill:url(#RadialGradID_2892) " d="M3.9,2.9L3.55 3.35L3.4 3.35L3.2 2.95L3.25 3.25L2.8 3.2L2.6 2.75L2.45 3.05Q2.3 2.7 2.55 2.35L2.6 2.55L3 2.6Q3.15 2.55 3.2 2.75L3.9 2.9" />
<radialGradient
id="RadialGradID_2893" gradientUnits="userSpaceOnUse" gradientTransform="matrix(0.00119019, -3.05176e-005, 3.05176e-005, 0.00141907, 5, 2.8)" spreadMethod ="pad" cx="0" cy="0" r="819.2" fx="0" fy="0" >
<stop  offset="0"  style="stop-color:#FFFFFF;stop-opacity:1" />
<stop  offset="0.992157"  style="stop-color:#FA82A2;stop-opacity:0" />
</radialGradient>
<path style="fill:url(#RadialGradID_2893) " d="M5.45,2.6L5.3 2.65Q5 2.65 5.05 2.9L4.55 2.95L4.45 3.3L4.25 2.85L4.4 2.95Q4.4 2.65 4.7 2.7L5.1 2.5Q5.3 2.3 5.45 2.6" />
<radialGradient
id="RadialGradID_2894" gradientUnits="userSpaceOnUse" gradientTransform="matrix(0.004776, -9.15527e-005, 1.52588e-005, 0.00292969, 3.95, 1.8)" spreadMethod ="pad" cx="0" cy="0" r="819.2" fx="0" fy="0" >
<stop  offset="0"  style="stop-color:#FB95A9;stop-opacity:1" />
<stop  offset="1"  style="stop-color:#F7D2C4;stop-opacity:0.501961" />
</radialGradient>
<path style="fill:url(#RadialGradID_2894) " d="M5.7,0.35L6.75 1L7.25 1.35L7.05 1.55L7.05 1.45L7 1.6L6.75 1.65L6.55 1.6L6.3 1.5L5.95 1.45L6.3 1.55L6.2 1.6L6.2 1.65L5.4 1.45L5.55 1.45L5.45 1.45L5.1 1.45L3.7 1.35L3.4 1.35L3.15 1.4L2.55 1.5L2.1 1.55L2 1.55L1.85 1.6L1.85 1.55L1.8 1.55L1.3 1.65L0.85 1.65L0.95 1.5L0.9 1.45L0.9 1.35L0.9 1.25L0.9 1.2L0.95 1.2L1.7 0.6Q2.45 0.1 3 0.1L3.6 0.25L4.3 0.25L4.8 0.1L5.7 0.35M2.4,1.45L2.35 1.45L2.4 1.45" />
<radialGradient
id="RadialGradID_2895" gradientUnits="userSpaceOnUse" gradientTransform="matrix(0.000961304, -0.000183105, 9.15527e-005, 0.000610352, 4.75, 0.3)" spreadMethod ="pad" cx="0" cy="0" r="819.2" fx="0" fy="0" >
<stop  offset="0"  style="stop-color:#FFFFFF;stop-opacity:1" />
<stop  offset="0.992157"  style="stop-color:#FDD7E3;stop-opacity:0" />
</radialGradient>
<path style="fill:url(#RadialGradID_2895) " d="M4.6,0.15L5.6 0.25L5.2 0.6L4.1 0.85L4.05 0.5Q4.15 0.45 4.6 0.15" />
<path style="fill:#DA6161;fill-opacity:1" d="M4.3,1.25L4.75 1.2L5.55 1.35L5.75 1.4L6.95 1.45L7.25 1.2L7.4 1.2L7.4 1.5L7.05 1.7L6.7 1.75L6.5 1.85L5.8 2.15L4.75 2.5L3.6 2.55L2.35 2.25L1.6 1.9L1.35 1.8L1.05 1.8L0.7 1.65L0.6 1.35L0.7 1.15L0.85 1.2L0.9 1.4L1.3 1.6L1.4 1.6L2.35 1.45L2.95 1.2L3.4 1.2L4.3 1.25M5.25,1.55L4.65 1.45L3.8 1.55L3.1 1.45L2.45 1.6L2.05 1.65L2.5 2.05L3.8 2.4L5.1 2.2L6 1.7L5.35 1.55L5.25 1.55" />
<path style="fill:#F1FCFB;fill-opacity:1" d="M4.85,1.7L4.8 1.55L5.15 1.55L5.25 1.55L5.35 1.55L4.85 1.7M3.8,1.55L3.9 1.55Q3.55 1.6 4.15 1.6L4.75 1.65L3.1 1.6L2.45 1.6L3.1 1.45L3.8 1.55" />
<path style="fill:#FFFFFF;fill-opacity:1" d="M3.1,1.6L4.75 1.65L4.15 1.6Q3.55 1.6 3.9 1.55L3.8 1.55L4.65 1.45L5.25 1.55L5.15 1.55L4.8 1.55L4.85 1.7L4.6 1.75L4.15 1.8L3.8 1.8L2.85 1.7L2.45 1.6L3.1 1.6" />
<path style="fill:#E7988F;fill-opacity:1" d="M5.35,1.55L6 1.7L5.1 2.2L3.8 2.4L2.5 2.05L2.05 1.65L2.45 1.6L2.85 1.7L3.8 1.8L4.15 1.8L4.6 1.75L4.85 1.7L5.35 1.55" />
</g>
</svg>
