<?xml version="1.0" encoding="utf-8"?>
<svg version="1.1" id="Layer_1"
xmlns="http://www.w3.org/2000/svg"
xmlns:xlink="http://www.w3.org/1999/xlink"
xmlns:author="http://www.sothink.com"
width="9px" height="4px"
xml:space="preserve">
<g id="306" transform="matrix(1, 0, 0, 1, -65.7, -46)">
<radialGradient
id="RadialGradID_2933" gradientUnits="userSpaceOnUse" gradientTransform="matrix(-4.57764e-005, -0.001297, -0.00358582, 6.10352e-005, 70.1, 48.55)" spreadMethod ="pad" cx="0" cy="0" r="819.2" fx="0" fy="0" >
<stop  offset="0.0470588"  style="stop-color:#DA6969;stop-opacity:0.513725" />
<stop  offset="1"  style="stop-color:#FFEFEA;stop-opacity:0" />
</radialGradient>
<path style="fill:url(#RadialGradID_2933) " d="M71.7,49.1L70.1 49.35L68.55 49.15Q67.85 48.95 67.85 48.6Q67.85 48.25 68.5 48L70.05 47.75L71.7 47.95Q72.3 48.2 72.35 48.5L71.7 49.1" />
<radialGradient
id="RadialGradID_2934" gradientUnits="userSpaceOnUse" gradientTransform="matrix(0.00112915, -1.52588e-005, 1.52588e-005, 0.000839233, 73.75, 46.65)" spreadMethod ="pad" cx="0" cy="0" r="819.2" fx="0" fy="0" >
<stop  offset="0.0470588"  style="stop-color:#C52929;stop-opacity:0.580392" />
<stop  offset="1"  style="stop-color:#FFEFEA;stop-opacity:0" />
</radialGradient>
<path style="fill:url(#RadialGradID_2934) " d="M72.9,46.7Q72.85 46.4 73.1 46.2L73.75 46L74.4 46.2L74.65 46.65L74.4 47.15L73.75 47.35Q73.4 47.35 73.15 47.15L72.9 46.7" />
<radialGradient
id="RadialGradID_2935" gradientUnits="userSpaceOnUse" gradientTransform="matrix(0.00112915, -1.52588e-005, 1.52588e-005, 0.000839233, 66.6, 46.65)" spreadMethod ="pad" cx="0" cy="0" r="819.2" fx="0" fy="0" >
<stop  offset="0.0470588"  style="stop-color:#C52929;stop-opacity:0.580392" />
<stop  offset="1"  style="stop-color:#FFEFEA;stop-opacity:0" />
</radialGradient>
<path style="fill:url(#RadialGradID_2935) " d="M67.5,46.65L67.25 47.15L66.6 47.35L65.95 47.15L65.7 46.7L65.95 46.2L66.6 46L67.2 46.2L67.5 46.65" />
<path style="fill:#FCF1F1;fill-opacity:1" d="M69.55,46.95Q69.45 46.9 69.7 46.85L70.1 46.85L70.75 46.85L70.9 46.95L70 47.05L69.55 46.95" />
<radialGradient
id="RadialGradID_2936" gradientUnits="userSpaceOnUse" gradientTransform="matrix(0.00515747, -4.57764e-005, 1.52588e-005, 0.00169373, 70.15, 46.95)" spreadMethod ="pad" cx="0" cy="0" r="819.2" fx="0" fy="0" >
<stop  offset="0"  style="stop-color:#FC94A9;stop-opacity:1" />
<stop  offset="1"  style="stop-color:#F7B9B3;stop-opacity:0.501961" />
</radialGradient>
<path style="fill:url(#RadialGradID_2936) " d="M72.9,46.85L72.9 46.9L72.75 46.9L72.85 46.85L72.9 46.85" />
<radialGradient
id="RadialGradID_2937" gradientUnits="userSpaceOnUse" gradientTransform="matrix(0.00515747, -4.57764e-005, 1.52588e-005, 0.00169373, 70, 47.4)" spreadMethod ="pad" cx="0" cy="0" r="819.2" fx="0" fy="0" >
<stop  offset="0"  style="stop-color:#F755A7;stop-opacity:1" />
<stop  offset="1"  style="stop-color:#F7B9B3;stop-opacity:0.501961" />
</radialGradient>
<path style="fill:url(#RadialGradID_2937) " d="M66.85,46.95L68.65 47.35L68.9 47.4L70.55 47.45L72.65 47.05L73.3 46.95L73.55 46.85Q73.6 47.4 72.95 47.8L71.2 48.4L69.5 48.4L67.95 48.05Q67.05 47.7 66.7 46.95L66.85 46.95" />
<radialGradient
id="RadialGradID_2938" gradientUnits="userSpaceOnUse" gradientTransform="matrix(0.00189209, -3.05176e-005, 1.52588e-005, 0.00088501, 69.1, 47.65)" spreadMethod ="pad" cx="0" cy="0" r="819.2" fx="0" fy="0" >
<stop  offset="0"  style="stop-color:#FFFFFF;stop-opacity:1" />
<stop  offset="0.992157"  style="stop-color:#FA82A2;stop-opacity:0" />
</radialGradient>
<path style="fill:url(#RadialGradID_2938) " d="M69.9,47.7L69.55 47.95L69.4 47.95L69.2 47.75L69.2 47.9L68.7 47.85L68.5 47.6L68.35 47.75Q68.15 47.55 68.45 47.4L68.5 47.45L68.95 47.5L69.2 47.6L69.9 47.7" />
<radialGradient
id="RadialGradID_2939" gradientUnits="userSpaceOnUse" gradientTransform="matrix(0.00128174, -1.52588e-005, 3.05176e-005, 0.000793457, 71.15, 47.7)" spreadMethod ="pad" cx="0" cy="0" r="819.2" fx="0" fy="0" >
<stop  offset="0"  style="stop-color:#FFFFFF;stop-opacity:1" />
<stop  offset="0.992157"  style="stop-color:#FA82A2;stop-opacity:0" />
</radialGradient>
<path style="fill:url(#RadialGradID_2939) " d="M71.6,47.55L71.45 47.6Q71.15 47.6 71.2 47.75L70.65 47.75L70.55 47.95L70.3 47.75L70.5 47.75Q70.45 47.6 70.8 47.6L71.25 47.55Q71.45 47.4 71.6 47.55" />
<radialGradient
id="RadialGradID_2940" gradientUnits="userSpaceOnUse" gradientTransform="matrix(0.00515747, -4.57764e-005, 1.52588e-005, 0.00164795, 70.1, 47.05)" spreadMethod ="pad" cx="0" cy="0" r="819.2" fx="0" fy="0" >
<stop  offset="0"  style="stop-color:#F435BB;stop-opacity:1" />
<stop  offset="1"  style="stop-color:#F7D2C4;stop-opacity:0.501961" />
</radialGradient>
<path style="fill:url(#RadialGradID_2940) " d="M68,46.95L67.85 47L67.85 46.95L67.8 46.95L67.25 47L66.8 47L66.9 46.95L66.8 46.9L66.8 46.85L66.8 46.8L66.8 46.75L66.9 46.75L67.7 46.45L69.1 46.15L69.8 46.25L70.45 46.25L71.05 46.15L72 46.3L73.15 46.65L73.65 46.85L73.5 46.95L73.5 46.9L73.4 47L73.15 47L72.95 47L72.65 46.95L72.6 46.95L72.55 47L71.65 46.9L71.85 46.9L71.7 46.9L71.35 46.9L69.9 46.85L69.5 46.85L69.25 46.85L68.65 46.95L68.1 46.95L68 46.95" />
<radialGradient
id="RadialGradID_2941" gradientUnits="userSpaceOnUse" gradientTransform="matrix(0.00102234, -0.000106812, 9.15527e-005, 0.000335693, 70.85, 46.15)" spreadMethod ="pad" cx="0" cy="0" r="819.2" fx="0" fy="0" >
<stop  offset="0"  style="stop-color:#FFFFFF;stop-opacity:1" />
<stop  offset="0.992157"  style="stop-color:#FDD7E3;stop-opacity:0" />
</radialGradient>
<path style="fill:url(#RadialGradID_2941) " d="M70.65,46.1L71.8 46.15L71.3 46.35L70.1 46.5L70.1 46.3L70.65 46.1" />
<path style="fill:#DA6161;fill-opacity:1" d="M70.5,46.75L70.95 46.7L71.8 46.8L72.05 46.8L73.3 46.85L73.65 46.7L73.8 46.7L73.85 46.9L73.45 47L73.05 47L72.85 47.05L72.1 47.25L70.95 47.45L69.7 47.45L68.4 47.3L67.55 47.1L67.3 47.05L66.95 47.05L66.55 46.95L66.45 46.75L66.55 46.7L66.7 46.7L66.8 46.8L67.25 46.95L67.3 46.95L68.4 46.85L69 46.7L69.5 46.7L70.5 46.75M71.45,46.9L70.85 46.85L69.9 46.9L69.2 46.85L68.5 46.95L68.45 46.95L68.05 46.95L68.5 47.2L69.95 47.4L71.3 47.3L72.3 47L71.6 46.9L71.45 46.9" />
<path style="fill:#F1FCFB;fill-opacity:1" d="M71.6,46.9L71.1 47L71 46.9L71.4 46.9L71.45 46.9L71.6 46.9M69.9,46.9L70 46.9Q69.65 46.9 70.3 46.95L70.95 46.95L69.15 46.95L68.5 46.95L69.2 46.85L69.9 46.9" />
<path style="fill:#FFFFFF;fill-opacity:1" d="M69.15,46.95L70.95 46.95L70.3 46.95Q69.65 46.9 70 46.9L69.9 46.9L70.85 46.85L71.45 46.9L71.4 46.9L71 46.9L71.1 47L70.8 47L70.35 47.05L69.95 47.05L68.9 47L68.5 46.95L69.15 46.95" />
<path style="fill:#E7988F;fill-opacity:1" d="M71.6,46.9L72.3 47L71.3 47.3L69.95 47.4L68.5 47.2L68.05 46.95L68.45 46.95L68.5 46.95L68.9 47L69.95 47.05L70.35 47.05L70.8 47L71.1 47L71.6 46.9" />
</g>
</svg>
