<?xml version="1.0" encoding="utf-8"?>
<svg version="1.1" id="Layer_1"
xmlns="http://www.w3.org/2000/svg"
xmlns:xlink="http://www.w3.org/1999/xlink"
xmlns:author="http://www.sothink.com"
width="8px" height="3px"
xml:space="preserve">
<g id="305" transform="matrix(1, 0, 0, 1, 0, 0)">
<path style="fill:#CA6257;fill-opacity:1" d="M2.5,0.85L4.35 0.8L4.75 0.8L6.65 0.85L6.95 0.75L7.2 0.5L7.3 0.3L7.4 0.15L7.5 0.25L7.5 0.5L6.7 1.1L6.35 1.15L5.2 1.1L5.1 1.05L4.75 1.05L4.55 1.15L3.3 1.15L2.3 1L2.25 1.05L0.85 1L0.25 0.75Q-0.1 0.5 0 0.15Q0.1 -0.15 0.25 0.2L0.35 0.35Q0.95 1.3 2.5 0.85" />
<radialGradient
id="RadialGradID_2931" gradientUnits="userSpaceOnUse" gradientTransform="matrix(3.05176e-005, -0.00178528, 0.00376892, 7.62939e-005, 3.7, 1.1)" spreadMethod ="pad" cx="0" cy="0" r="819.2" fx="0" fy="0" >
<stop  offset="0"  style="stop-color:#FE9A70;stop-opacity:1" />
<stop  offset="1"  style="stop-color:#FFBBBB;stop-opacity:0.501961" />
</radialGradient>
<path style="fill:url(#RadialGradID_2931) " d="M6.7,1.1L6.45 1.7L5.6 2.4L3.8 2.7Q2 2.7 1.2 1.5L0.85 1L2.25 1.05L2.3 1L3.3 1.15L4.55 1.15L4.75 1.05L5.1 1.05L5.2 1.1L6.35 1.15L6.7 1.1" />
<radialGradient
id="RadialGradID_2932" gradientUnits="userSpaceOnUse" gradientTransform="matrix(4.57764e-005, -0.00132751, 0.00401306, 0.00012207, 3.85, 0.9)" spreadMethod ="pad" cx="0" cy="0" r="819.2" fx="0" fy="0" >
<stop  offset="0"  style="stop-color:#FE9A70;stop-opacity:1" />
<stop  offset="1"  style="stop-color:#FFBBBB;stop-opacity:0.501961" />
</radialGradient>
<path style="fill:url(#RadialGradID_2932) " d="M0.35,0.35Q1.35 0.85 2.05 0.35Q2.7 -0.1 3.65 0.15L4.2 0.1L5.4 0.3L6.45 0.65L6.95 0.75L6.65 0.85L4.75 0.8L4.35 0.8L2.5 0.85Q0.95 1.3 0.35 0.35" />
<path style="fill:#FFFFFF;fill-opacity:1" d="M4.6,1.45L6.15 1.2Q5.3 2.1 4.7 1.85Q4.05 1.6 4.6 1.45" />
<path style="fill:#FFFFFF;fill-opacity:1" d="M4.05,1.65L3.75 1.9L3.55 1.6L3.85 1.35L4.05 1.65" />
<path style="fill:#FFFFFF;fill-opacity:1" d="M5.1,1.4L5.2 1.35L5.1 1.35L5.1 1.4M5.1,1.35L5.2 1.35L5.2 1.3L5.05 1.35L5.1 1.35M5.2,1.3L5.25 1L5.25 1.3L5.4 1.35L5.25 1.3L5.25 1.35L5.35 1.4L5.35 1.35L5.4 1.35L6.3 0.8L5.5 1.5L5.55 1.65L5.8 1.7L5.5 1.7L5.45 1.8L5.45 1.85L5.5 1.7L5.5 1.85L6.05 2.65L5.35 1.9L5.3 1.9L5.2 1.9L5.2 1.95L5.1 2.25L5.1 2L5 1.85L5.15 1.95L5.15 1.9L5 1.85L4.1 2.4L4.85 1.75L4.8 1.6L4.5 1.5L4.85 1.55L4.95 1.4L4.9 1.55L4.95 1.55L4.95 1.45L4.9 1.55L4.95 1.45L4.95 1.4L4.35 0.55L5.05 1.35L5.2 1.3M5.55,1.65L5.5 1.5L5.5 1.55L5.55 1.65M5.5,1.65L5.5 1.55L5.5 1.65M5.45,1.5L5.45 1.55L5.45 1.5M5.45,1.8L5.45 1.7L5.45 1.8M4.85,1.6L4.85 1.75L4.9 1.7L4.85 1.65L4.9 1.7L4.9 1.6L4.85 1.6M5.1,1.85L5.05 1.85L5.15 1.85L5.1 1.85" />
<path style="fill:#FFFFFF;fill-opacity:1" d="M4.6,1.45L5.2 1.1L4.65 1.6L4.7 1.7L4.9 1.7L4.7 1.7L4.65 1.8L4.7 1.7L4.7 1.8L5 2.4L4.6 1.85L4.55 1.85L4.5 1.85L4.4 1.85L4.4 1.9L4.4 2.1L4.4 1.9L4.35 1.85L4.4 1.9L4.45 1.85L4.35 1.85L3.7 2.2L4.25 1.75L4.25 1.65L4.25 1.75L4.25 1.65L4.25 1.7L4.2 1.65L4 1.6L4.2 1.65L4.25 1.55L4.25 1.65L4.3 1.55L4.25 1.55L4.25 1.65L4.25 1.55L3.9 0.9L4.4 1.45L4.5 1.45L4.45 1.45L4.4 1.5L4.5 1.45L4.4 1.45L4.5 1.45L4.5 1.2L4.55 1.45L4.6 1.45L4.55 1.45L4.55 1.5L4.6 1.45M4.7,1.7L4.65 1.6L4.7 1.7M4.65,1.8L4.65 1.7L4.65 1.6L4.65 1.7L4.65 1.8M4.45,1.85L4.4 1.8L4.45 1.85" />
</g>
</svg>
