<?xml version="1.0" encoding="utf-8"?>
<svg version="1.1" id="Layer_1"
xmlns="http://www.w3.org/2000/svg"
xmlns:xlink="http://www.w3.org/1999/xlink"
xmlns:author="http://www.sothink.com"
width="10px" height="5px"
xml:space="preserve">
<g id="303" transform="matrix(1, 0, 0, 1, 0, 0)">
<radialGradient
id="RadialGradID_2911" gradientUnits="userSpaceOnUse" gradientTransform="matrix(-6.10352e-005, -0.00183105, -0.00379944, 9.15527e-005, 4.55, 3.2)" spreadMethod ="pad" cx="0" cy="0" r="819.2" fx="0" fy="0" >
<stop  offset="0.0470588"  style="stop-color:#DA6969;stop-opacity:0.513725" />
<stop  offset="1"  style="stop-color:#FFEFEA;stop-opacity:0" />
</radialGradient>
<path style="fill:url(#RadialGradID_2911) " d="M4.55,2.1L6.25 2.4Q6.95 2.65 6.95 3.15Q6.95 3.6 6.35 4.05L4.6 4.4L3 4.15Q2.2 3.75 2.2 3.3Q2.2 2.8 2.9 2.5Q3.55 2.1 4.55 2.1" />
<radialGradient
id="RadialGradID_2912" gradientUnits="userSpaceOnUse" gradientTransform="matrix(0.00108337, -1.52588e-005, 1.52588e-005, 0.00108337, 0.85, 1)" spreadMethod ="pad" cx="0" cy="0" r="819.2" fx="0" fy="0" >
<stop  offset="0.0470588"  style="stop-color:#C52929;stop-opacity:0.580392" />
<stop  offset="1"  style="stop-color:#FFEFEA;stop-opacity:0" />
</radialGradient>
<path style="fill:url(#RadialGradID_2912) " d="M0.85,0.15L1.45 0.35L1.7 1L1.45 1.55L0.9 1.8L0.3 1.6Q0 1.35 0 1L0.25 0.4Q0.5 0.15 0.85 0.15" />
<radialGradient
id="RadialGradID_2913" gradientUnits="userSpaceOnUse" gradientTransform="matrix(0.00108337, -1.52588e-005, 1.52588e-005, 0.00108337, 8.5, 0.85)" spreadMethod ="pad" cx="0" cy="0" r="819.2" fx="0" fy="0" >
<stop  offset="0.0470588"  style="stop-color:#C52929;stop-opacity:0.580392" />
<stop  offset="1"  style="stop-color:#FFEFEA;stop-opacity:0" />
</radialGradient>
<path style="fill:url(#RadialGradID_2913) " d="M8.5,0Q8.8 0 9.05 0.25L9.35 0.85L9.1 1.45L8.5 1.7L7.9 1.45L7.65 0.85L7.85 0.25L8.5 0" />
<radialGradient
id="RadialGradID_2914" gradientUnits="userSpaceOnUse" gradientTransform="matrix(0.00482178, -6.10352e-005, 1.52588e-005, 0.00282288, 4.6, 1.05)" spreadMethod ="pad" cx="0" cy="0" r="819.2" fx="0" fy="0" >
<stop  offset="0"  style="stop-color:#F84B80;stop-opacity:1" />
<stop  offset="1"  style="stop-color:#FDD0D0;stop-opacity:0.501961" />
</radialGradient>
<path style="fill:url(#RadialGradID_2914) " d="M2.05,1.45L2 1.45L2.05 1.45" />
<radialGradient
id="RadialGradID_2915" gradientUnits="userSpaceOnUse" gradientTransform="matrix(0.00915527, 0, 0, 0.00445557, 4.75, 0.95)" spreadMethod ="pad" cx="0" cy="0" r="819.2" fx="0" fy="0" >
<stop  offset="0"  style="stop-color:#FA7CA3;stop-opacity:1" />
<stop  offset="1"  style="stop-color:#F3C1AD;stop-opacity:0.501961" />
</radialGradient>
<path style="fill:url(#RadialGradID_2915) " d="M1.25,1.35L3.35 1.75L4.4 1.9L4.65 1.9L4.9 1.9L6 1.75L8.05 1.35L7.6 2.1Q6.9 3.05 5.4 3.2L3.9 3.2Q2.45 3.05 1.75 2.1L1.25 1.35" />
<radialGradient
id="RadialGradID_2916" gradientUnits="userSpaceOnUse" gradientTransform="matrix(0.00177002, -3.05176e-005, 1.52588e-005, 0.000915527, 3.65, 2.35)" spreadMethod ="pad" cx="0" cy="0" r="819.2" fx="0" fy="0" >
<stop  offset="0"  style="stop-color:#FFFFFF;stop-opacity:1" />
<stop  offset="0.992157"  style="stop-color:#FA82A2;stop-opacity:0" />
</radialGradient>
<path style="fill:url(#RadialGradID_2916) " d="M3.75,2.55L3.3 2.55L3.15 2.25L2.95 2.4Q2.8 2.2 3.05 2L3.15 2.15L3.55 2.2L3.75 2.25L4.4 2.4L4.1 2.6L3.95 2.6L3.75 2.4L3.75 2.55" />
<radialGradient
id="RadialGradID_2917" gradientUnits="userSpaceOnUse" gradientTransform="matrix(0.00120544, -1.52588e-005, 1.52588e-005, 0.00111389, 5.8, 2.35)" spreadMethod ="pad" cx="0" cy="0" r="819.2" fx="0" fy="0" >
<stop  offset="0"  style="stop-color:#FFFFFF;stop-opacity:1" />
<stop  offset="0.992157"  style="stop-color:#FA82A2;stop-opacity:0" />
</radialGradient>
<path style="fill:url(#RadialGradID_2917) " d="M5.9,2.45L5.4 2.5L5.25 2.75L5.05 2.45L5.25 2.5Q5.2 2.25 5.5 2.25L5.9 2.15L6.3 2.2L6.1 2.25Q5.85 2.25 5.9 2.45" />
<radialGradient
id="RadialGradID_2918" gradientUnits="userSpaceOnUse" gradientTransform="matrix(0.00495911, 0, 0, 0.00178528, 4.65, 1.6)" spreadMethod ="pad" cx="0" cy="0" r="819.2" fx="0" fy="0" >
<stop  offset="0"  style="stop-color:#FCADC6;stop-opacity:1" />
<stop  offset="1"  style="stop-color:#F4C8B5;stop-opacity:0.501961" />
</radialGradient>
<path style="fill:url(#RadialGradID_2918) " d="M8.15,0.95L7.85 1.4Q7.4 1.7 6.75 1.8L5.7 1.85L4.95 1.85L4.55 1.95L3.95 1.75L3.3 1.85L2.35 1.8L1.4 1.35L1.1 0.95L1.4 0.95L2.75 0.95L4.3 1L5.15 1L6.3 0.9L8.15 0.9L8.15 0.95" />
<radialGradient
id="RadialGradID_2919" gradientUnits="userSpaceOnUse" gradientTransform="matrix(0.000930786, -0.000106812, 9.15527e-005, 0.000869751, 5.6, 1.25)" spreadMethod ="pad" cx="0" cy="0" r="819.2" fx="0" fy="0" >
<stop  offset="0"  style="stop-color:#FFFFFF;stop-opacity:1" />
<stop  offset="0.992157"  style="stop-color:#FA82A2;stop-opacity:0" />
</radialGradient>
<path style="fill:url(#RadialGradID_2919) " d="M4.9,1.55L4.9 1.35L5.2 1.25Q5.85 1 6.35 1.25L5.85 1.3Q5.35 1.25 4.95 1.6L4.9 1.55" />
<linearGradient
id="LinearGradID_2920" gradientUnits="userSpaceOnUse" gradientTransform="matrix(0.00479126, 0, 0, 0.000778198, 4.65, 1.4)" spreadMethod ="pad" x1="-819.2" y1="0" x2="819.2" y2="0" >
<stop  offset="0.760784" style="stop-color:#EB5858;stop-opacity:1" />
<stop  offset="1" style="stop-color:#D24F4F;stop-opacity:1" />
</linearGradient>
<path style="fill:url(#LinearGradID_2920) " d="M4.65,2L3.95 1.95L2.95 1.85L2.3 1.8L1.55 1.6Q0.75 1.2 0.7 0.9L0.7 0.85L1.05 0.75L1.35 1.1L1.4 1.15L1.8 1.45L2.75 1.7L3.55 1.75L4.65 1.9L5.75 1.75L6.55 1.7L7.5 1.45L7.9 1.15L7.95 1.1Q8.05 0.8 8.25 0.75L8.55 0.85L8.55 0.9L7.75 1.6L6.95 1.8L6.3 1.85L5.3 1.95L4.65 2" />
</g>
</svg>
