<?xml version="1.0" encoding="utf-8"?>
<svg version="1.1" id="Layer_1"
xmlns="http://www.w3.org/2000/svg"
xmlns:xlink="http://www.w3.org/1999/xlink"
xmlns:author="http://www.sothink.com"
width="6px" height="4px"
xml:space="preserve">
<g id="300" transform="matrix(1, 0, 0, 1, 0, 0)">
<radialGradient
id="RadialGradID_2897" gradientUnits="userSpaceOnUse" gradientTransform="matrix(0.00360107, 1.52588e-005, -1.52588e-005, 0.00259399, 2.65, 1.7)" spreadMethod ="pad" cx="0" cy="0" r="819.2" fx="0" fy="0" >
<stop  offset="0.14902"  style="stop-color:#FE6161;stop-opacity:0.701961" />
<stop  offset="0.545098"  style="stop-color:#FF7360;stop-opacity:0.501961" />
<stop  offset="1"  style="stop-color:#FFF7F4;stop-opacity:0" />
</radialGradient>
<path style="fill:url(#RadialGradID_2897) " d="M4.5,2.9Q3.7 3.4 2.65 3.4Q1.6 3.4 0.85 2.9Q0.1 2.4 0.15 1.7Q0.1 1.05 0.85 0.5Q1.6 0 2.7 0Q3.75 0 4.55 0.5Q5.25 1.05 5.25 1.75Q5.2 2.45 4.5 2.9" />
<path style="fill:#9D5555;fill-opacity:1" d="M3.45,1.25L2.65 1.1L2 1.2L1.8 1.3Q1.55 1.4 1.8 1.45L3.45 1.4Q3.7 1.4 3.45 1.25M3.35,0.9L3.4 0.95L4.35 1.55L0.9 1.5Q1.55 1.4 1.9 1L1.9 0.95L2.05 0.95L3.2 0.95L3.35 0.9M5.3,1.45L5 1.6L4.6 1.5L5.3 1.45M0,1.45Q0.05 1.25 0.65 1.45L0.3 1.55Q-0.05 1.65 0 1.45" />
<path style="fill:#644035;fill-opacity:1" d="M3.45,1.4L1.8 1.45Q1.55 1.4 1.8 1.3L2 1.2L2.65 1.1L3.45 1.25Q3.7 1.4 3.45 1.4" />
<path style="fill:#CF9E8F;fill-opacity:1" d="M1.65,3.3L0.85 2.8Q1.15 3.15 1.9 3.2L3.35 3.25L4.45 2.8Q4.15 3.2 3.5 3.3L3.5 3.25L3.5 3.3L3.4 3.35L1.7 3.3L1.65 3.3" />
<path style="fill:#FFFFFF;fill-opacity:1" d="M2.05,1.9L1.9 1.9L1.9 1.85L2.05 1.85L2.05 1.9M2.2,1.9L2.4 1.85L2.2 1.95L2.2 1.9M1.5,1.85L1.45 1.8L1.5 1.8L1.5 1.85M4.45,1.25L4.6 1.35L4.5 1.3L4.45 1.25" />
<linearGradient
id="LinearGradID_2898" gradientUnits="userSpaceOnUse" gradientTransform="matrix(0.000671387, 0, 0, 0.000274658, 4.7, 1.95)" spreadMethod ="pad" x1="-819.2" y1="0" x2="819.2" y2="0" >
<stop  offset="0" style="stop-color:#FFFFFF;stop-opacity:1" />
<stop  offset="1" style="stop-color:#FFFFFF;stop-opacity:0" />
</linearGradient>
<path style="fill:url(#LinearGradID_2898) " d="M3.2,1.95L4.65 1.75L5.55 1.85Q5.7 2.1 4.8 2.1L2.5 1.9L3.2 1.95" />
<path style="fill:#FFFFFF;fill-opacity:0.8" d="M0.7,1.25L0.7 1.15L0.75 1.15L0.85 1.15L0.85 1.25L0.85 1.3L0.75 1.3L0.7 1.3L0.7 1.25M0.65,1.9L0.7 1.85L0.8 1.9L0.8 1.95L0.8 2L0.7 2.05L0.65 2L0.65 1.95L0.65 1.9M0.6,2.2L0.6 2.25L0.6 2.3L0.55 2.35L0.45 2.3L0.45 2.25L0.45 2.2L0.55 2.15L0.6 2.2M2.75,0.75L2.65 0.7L2.65 0.65L2.65 0.55L2.75 0.55L2.8 0.55L2.8 0.65L2.8 0.7L2.75 0.75M2.8,1.7L2.85 1.7L2.9 1.8L2.85 1.85L2.8 1.85L2.7 1.85L2.7 1.8L2.7 1.7L2.8 1.7M1.95,0.75L1.9 0.8L1.85 0.85L1.75 0.8L1.75 0.75L1.75 0.65L1.85 0.65L1.9 0.65L1.95 0.75M1.3,0.95L1.3 1.05L1.3 1.1L1.25 1.15L1.15 1.1L1.15 1.05L1.15 0.95L1.25 0.95L1.3 0.95M1.9,2.3L1.85 2.3L1.75 2.3L1.75 2.2L1.75 2.15L1.85 2.15L1.9 2.15L1.95 2.2L1.9 2.3M1.1,2.05L1.15 2.15L1.1 2.2L1.05 2.2L1 2.2L0.95 2.15L1 2.05L1.05 2.05L1.1 2.05M0.95,2.45L1 2.4L1.05 2.4L1.1 2.4L1.15 2.45L1.1 2.55L1.05 2.55L1 2.55L0.95 2.45M1.65,2.9L1.65 2.95L1.6 2.95L1.5 2.95L1.5 2.9L1.5 2.8L1.6 2.8L1.65 2.8L1.65 2.9M2.65,2.45L2.6 2.45L2.55 2.45L2.5 2.4L2.55 2.3L2.6 2.3L2.65 2.3L2.7 2.4L2.65 2.45M2.35,2.8L2.35 2.85L2.25 2.9L2.2 2.85L2.2 2.8L2.2 2.7L2.25 2.7L2.35 2.7L2.35 2.8M3.15,2.85L3.25 2.85L3.25 2.9L3.25 3L3.15 3L3.1 3L3.1 2.9L3.1 2.85L3.15 2.85M2.9,2.8L2.85 2.85L2.8 2.9L2.7 2.85L2.7 2.8L2.7 2.7L2.8 2.7L2.85 2.7L2.9 2.8M3.6,0.75L3.5 0.7L3.5 0.65L3.5 0.55L3.6 0.55L3.65 0.55L3.7 0.65L3.65 0.7L3.6 0.75M4.35,1.3L4.3 1.3L4.2 1.3L4.2 1.25L4.2 1.15L4.3 1.15L4.35 1.15L4.4 1.25L4.35 1.3M3.55,2.25Q3.9 2.35 3.75 2.7L3.55 2.8Q3.2 2.85 3.25 2.5Q3.25 2.35 3.4 2.3L3.55 2.25M3.55,2.9L3.6 2.9L3.65 3L3.6 3.05L3.55 3.1L3.45 3.05L3.45 3L3.45 2.9L3.55 2.9M4.1,2.75L4.05 2.7L4.05 2.65L4.05 2.55L4.1 2.55L4.2 2.55L4.2 2.65L4.2 2.7L4.1 2.75M4.7,2.45L4.6 2.5L4.55 2.45L4.55 2.4L4.55 2.35L4.6 2.3L4.7 2.35L4.7 2.4L4.7 2.45" />
</g>
</svg>
