<?xml version="1.0" encoding="utf-8"?>
<svg version="1.1" id="Layer_1"
xmlns="http://www.w3.org/2000/svg"
xmlns:xlink="http://www.w3.org/1999/xlink"
xmlns:author="http://www.sothink.com"
width="8px" height="4px"
xml:space="preserve">
<g id="308" transform="matrix(1, 0, 0, 1, 0, 0)">
<radialGradient
id="RadialGradID_2951" gradientUnits="userSpaceOnUse" gradientTransform="matrix(-3.05176e-005, -0.00177002, -0.00314331, 9.15527e-005, 3.85, 2.85)" spreadMethod ="pad" cx="0" cy="0" r="819.2" fx="0" fy="0" >
<stop  offset="0.0470588"  style="stop-color:#DA6969;stop-opacity:0.513725" />
<stop  offset="1"  style="stop-color:#FFEFEA;stop-opacity:0" />
</radialGradient>
<path style="fill:url(#RadialGradID_2951) " d="M3.75,1.8L5.2 2.1Q5.75 2.4 5.8 2.85L5.25 3.65L3.85 4L2.45 3.75Q1.85 3.4 1.85 2.95Q1.8 2.5 2.4 2.2L3.75 1.8" />
<radialGradient
id="RadialGradID_2952" gradientUnits="userSpaceOnUse" gradientTransform="matrix(0.00108337, -1.52588e-005, 1.52588e-005, 0.00119019, 0.9, 0.9)" spreadMethod ="pad" cx="0" cy="0" r="819.2" fx="0" fy="0" >
<stop  offset="0.0470588"  style="stop-color:#C52929;stop-opacity:0.580392" />
<stop  offset="1"  style="stop-color:#FFEFEA;stop-opacity:0" />
</radialGradient>
<path style="fill:url(#RadialGradID_2952) " d="M1.7,0.9L1.5 1.6L0.9 1.85Q0.5 1.85 0.25 1.65L0 0.95L0.25 0.3Q0.5 0 0.85 0Q1.2 0 1.45 0.25L1.7 0.9" />
<radialGradient
id="RadialGradID_2953" gradientUnits="userSpaceOnUse" gradientTransform="matrix(0.00108337, -1.52588e-005, 1.52588e-005, 0.00119019, 6.65, 1)" spreadMethod ="pad" cx="0" cy="0" r="819.2" fx="0" fy="0" >
<stop  offset="0.0470588"  style="stop-color:#C52929;stop-opacity:0.580392" />
<stop  offset="1"  style="stop-color:#FFEFEA;stop-opacity:0" />
</radialGradient>
<path style="fill:url(#RadialGradID_2953) " d="M6.65,1.95L6.05 1.7L5.8 1.05Q5.8 0.65 6.05 0.35L6.65 0.1Q7 0.1 7.25 0.35L7.5 1.05L7.25 1.7L6.65 1.95" />
<radialGradient
id="RadialGradID_2954" gradientUnits="userSpaceOnUse" gradientTransform="matrix(-3.05176e-005, -0.00164795, -0.00291443, 7.62939e-005, 3.7, 2.75)" spreadMethod ="pad" cx="0" cy="0" r="819.2" fx="0" fy="0" >
<stop  offset="0.0470588"  style="stop-color:#DA6969;stop-opacity:0.513725" />
<stop  offset="1"  style="stop-color:#FFEFEA;stop-opacity:0" />
</radialGradient>
<path style="fill:url(#RadialGradID_2954) " d="M3.7,1.75Q4.45 1.75 5 2.05Q5.5 2.3 5.5 2.75L5 3.5L3.7 3.8L2.45 3.6L1.85 2.85Q1.85 2.4 2.4 2.1L3.7 1.75" />
<path style="fill:#E21246;fill-opacity:0.380392" d="M5.4,2.85L5.4 2.8L5.45 2.8L5.4 2.85L5 3.15L4.8 3.25L3.15 3.2L2.6 3.05L2.2 2.8L2.05 2.65L2 2.6L2.35 2.8L3.05 3.1Q4.2 2.95 4.65 3.1L4.7 3.05L4.8 3.05L5.2 2.9L5.4 2.85" />
<path style="fill:#FFFFFF;fill-opacity:1" d="M4.2,1.5L3.3 1.5L2.65 1.25L3.6 1.3L4.05 1.3L4.95 1.2L4.2 1.5" />
<radialGradient
id="RadialGradID_2955" gradientUnits="userSpaceOnUse" gradientTransform="matrix(0.00436401, 0, 0, 0.00421143, 3.8, 1.1)" spreadMethod ="pad" cx="0" cy="0" r="819.2" fx="0" fy="0" >
<stop  offset="0"  style="stop-color:#B5204D;stop-opacity:0.580392" />
<stop  offset="0.992157"  style="stop-color:#B5204D;stop-opacity:0.901961" />
</radialGradient>
<path style="fill:url(#RadialGradID_2955) " d="M6.25,1.3Q6.1 1.35 6.25 1.35L6.05 1.35L5.25 1.3L5.05 1.35L4.2 1.7L3.6 1.8L2.5 1.35L2.05 1.3L1.45 1.3L1.3 1.3L0.8 1.15L0.7 1.05L0.55 0.85L0.55 0.7Q0.45 0.5 0.65 0.45Q0.95 0.4 1.05 0.8L1.05 0.85Q1.25 1.55 2.85 1L3.75 1.1L4.1 1.05L4.55 0.95L5.7 1.1Q6.55 1.35 6.6 0.6L6.65 0.55L6.75 0.45L6.9 0.45L6.95 0.45Q7.25 0.65 7 0.95L6.5 1.2L6.45 1.25L6.25 1.3M4.95,1.2L4.05 1.3L3.6 1.3L2.65 1.25L3.3 1.5L4.2 1.5L4.95 1.2" />
<radialGradient
id="RadialGradID_2956" gradientUnits="userSpaceOnUse" gradientTransform="matrix(0.00521851, -3.05176e-005, 3.05176e-005, 0.00456238, 3.75, 0.8)" spreadMethod ="pad" cx="0" cy="0" r="819.2" fx="0" fy="0" >
<stop  offset="0"  style="stop-color:#F99FA9;stop-opacity:1" />
<stop  offset="0.156863"  style="stop-color:#F04455;stop-opacity:1" />
<stop  offset="0.886275"  style="stop-color:#FEEDE7;stop-opacity:1" />
<stop  offset="1"  style="stop-color:#FEEDE7;stop-opacity:0.501961" />
</radialGradient>
<path style="fill:url(#RadialGradID_2956) " d="M5.4,2.85L5.6 2.6L5.35 2.8L5.2 2.9L4.8 3.05L4.7 3.05L4.65 3.1Q4.2 2.95 3.05 3.1L2.35 2.8L2 2.6L2.05 2.65L1.9 2.55L1.45 1.85L1.3 1.3L1.45 1.3L2.05 1.3L2.5 1.35L3.6 1.8L4.2 1.7L5.05 1.35L5.25 1.3L6.05 1.35L6.25 1.35Q6.1 1.35 6.25 1.3L6.45 1.25Q6.2 2.2 5.4 2.8L5.4 2.85" />
<radialGradient
id="RadialGradID_2957" gradientUnits="userSpaceOnUse" gradientTransform="matrix(0.00804138, -3.05176e-005, 1.52588e-005, 0.00323486, 3.8, 2.25)" spreadMethod ="pad" cx="0" cy="0" r="819.2" fx="0" fy="0" >
<stop  offset="0.00392157"  style="stop-color:#FBB7CC;stop-opacity:1" />
<stop  offset="0.329412"  style="stop-color:#ED637E;stop-opacity:1" />
<stop  offset="0.760784"  style="stop-color:#F7BBBB;stop-opacity:1" />
<stop  offset="1"  style="stop-color:#FEEDE7;stop-opacity:1" />
<stop  offset="1"  style="stop-color:#FEE6DB;stop-opacity:0.501961" />
</radialGradient>
<path style="fill:url(#RadialGradID_2957) " d="M6.6,0.6Q6.55 1.35 5.7 1.1L4.55 0.95L4.1 1.05L3.75 1.1L2.85 1Q1.25 1.55 1.05 0.85L1.05 0.8L1.35 0.85Q1.6 0.85 2.25 0.45Q2.9 0.1 3.05 0.1L3.8 0.3L4.5 0.1L5.15 0.35L5.85 0.7L6.6 0.6" />
<radialGradient
id="RadialGradID_2958" gradientUnits="userSpaceOnUse" gradientTransform="matrix(0.000762939, 0.000183105, -0.000183105, 0.000762939, 4.65, 0.55)" spreadMethod ="pad" cx="0" cy="0" r="819.2" fx="0" fy="0" >
<stop  offset="0"  style="stop-color:#FFFFFF;stop-opacity:1" />
<stop  offset="0.992157"  style="stop-color:#FA82A2;stop-opacity:0" />
</radialGradient>
<path style="fill:url(#RadialGradID_2958) " d="M4,0.65L4.1 0.45L4.35 0.45Q4.95 0.4 5.25 0.8L4.9 0.7L4.05 0.65L4 0.65" />
<radialGradient
id="RadialGradID_2959" gradientUnits="userSpaceOnUse" gradientTransform="matrix(0.00149536, -3.05176e-005, 1.52588e-005, 0.000823975, 3.3, 2.2)" spreadMethod ="pad" cx="0" cy="0" r="819.2" fx="0" fy="0" >
<stop  offset="0"  style="stop-color:#FFFFFF;stop-opacity:1" />
<stop  offset="0.992157"  style="stop-color:#FA82A2;stop-opacity:0" />
</radialGradient>
<path style="fill:url(#RadialGradID_2959) " d="M3.35,2.45L3 2.4L2.85 2.2L2.7 2.35Q2.55 2.15 2.8 2L2.85 2.1L3.2 2.1L3.35 2.15L3.95 2.25L3.65 2.45L3.55 2.45L3.35 2.3L3.35 2.45" />
<radialGradient
id="RadialGradID_2960" gradientUnits="userSpaceOnUse" gradientTransform="matrix(0.00100708, -1.52588e-005, 1.52588e-005, 0.000991821, 4.75, 2.2)" spreadMethod ="pad" cx="0" cy="0" r="819.2" fx="0" fy="0" >
<stop  offset="0"  style="stop-color:#FFFFFF;stop-opacity:1" />
<stop  offset="0.992157"  style="stop-color:#FA82A2;stop-opacity:0" />
</radialGradient>
<path style="fill:url(#RadialGradID_2960) " d="M5.15,2.05L5 2.1Q4.75 2.1 4.85 2.3L4.4 2.3L4.3 2.55L4.1 2.2L4.25 2.3Q4.2 2.1 4.5 2.1L4.85 2L5.15 2.05" />
<path style="fill:#FFFFFF;fill-opacity:0.8" d="M4.8,0.65L4.85 0.65L4.85 0.7L4.85 0.75L4.8 0.75L4.7 0.75L4.7 0.7L4.7 0.65L4.8 0.65M5.6,0.95L5.55 0.95L5.55 0.9L5.55 0.85L5.6 0.85L5.65 0.85L5.7 0.9L5.65 0.95L5.6 0.95M5.6,1.9L5.65 1.9L5.7 1.95L5.65 2L5.6 2L5.55 2L5.55 1.95L5.55 1.9L5.6 1.9M4.7,1.7L4.65 1.75L4.6 1.8L4.55 1.75L4.55 1.7L4.55 1.65L4.6 1.65L4.65 1.65L4.7 1.7M5.35,2.3L5.35 2.35L5.35 2.4L5.3 2.4L5.25 2.4L5.25 2.35L5.25 2.3L5.3 2.3L5.35 2.3M4.8,2.3L4.95 2.6L4.8 2.7Q4.55 2.7 4.6 2.45L4.7 2.3L4.8 2.3M4.2,2.45L4.25 2.45L4.3 2.45L4.35 2.5L4.3 2.55L4.25 2.55L4.2 2.55L4.2 2.5L4.2 2.45M4.4,2.8L4.45 2.85L4.4 2.9L4.35 2.9L4.3 2.9L4.3 2.85L4.3 2.8L4.35 2.8L4.4 2.8M2.5,0.8L2.55 0.8L2.6 0.85L2.55 0.9L2.5 0.95L2.45 0.9L2.45 0.85L2.45 0.8L2.5 0.8M3.25,0.8L3.25 0.85L3.2 0.85L3.15 0.85L3.15 0.8L3.15 0.75L3.2 0.75L3.25 0.75L3.25 0.8M3.7,0.6L3.6 0.6L3.6 0.55L3.6 0.5L3.7 0.5L3.75 0.55L3.7 0.6M3.25,1.8L3.35 1.8L3.4 1.8L3.4 1.85L3.4 1.9L3.35 1.95L3.25 1.9L3.25 1.85L3.25 1.8M4,1.8L4.05 1.8L4.1 1.85L4.05 1.9L4 1.9L3.95 1.9L3.95 1.85L3.95 1.8L4 1.8M2.45,1.55L2.5 1.5L2.55 1.55L2.6 1.6L2.55 1.65L2.5 1.65L2.45 1.65L2.45 1.6L2.45 1.55M2,1.75L2.05 1.75L2.1 1.75L2.15 1.85L2.1 1.85L2.05 1.9L2 1.85L2 1.75M2.25,2.3L2.35 2.3L2.4 2.35L2.35 2.4L2.25 2.4L2.25 2.35L2.25 2.3M2.75,2.25L2.8 2.3L2.75 2.35L2.7 2.35L2.65 2.3L2.7 2.25L2.75 2.2L2.75 2.25M2.7,2.6L2.7 2.65L2.65 2.7L2.6 2.65L2.6 2.6L2.6 2.55L2.65 2.55L2.7 2.55L2.7 2.6M3.95,2.5L3.85 2.5L3.85 2.45L3.85 2.4L3.95 2.4L4 2.45L3.95 2.5M3.55,2.55L3.5 2.55L3.45 2.55L3.45 2.5L3.45 2.4L3.5 2.4L3.55 2.4L3.55 2.5L3.55 2.55M3.15,2.75L3.2 2.75L3.2 2.85L3.15 2.9L3.1 2.85L3.05 2.85L3.1 2.75L3.15 2.75" />
</g>
</svg>
