<?xml version="1.0" encoding="utf-8"?>
<svg version="1.1" id="Layer_1"
xmlns="http://www.w3.org/2000/svg"
xmlns:xlink="http://www.w3.org/1999/xlink"
xmlns:author="http://www.sothink.com"
width="7px" height="4px"
xml:space="preserve">
<g id="318" transform="matrix(1, 0, 0, 1, 0, 0)">
<radialGradient
id="RadialGradID_3036" gradientUnits="userSpaceOnUse" gradientTransform="matrix(0.00274658, 0, 0, 0.00328064, 3.05, 1.25)" spreadMethod ="pad" cx="0" cy="0" r="819.2" fx="0" fy="0" >
<stop  offset="0"  style="stop-color:#FE5667;stop-opacity:1" />
<stop  offset="1"  style="stop-color:#FFEBDE;stop-opacity:1" />
</radialGradient>
<path style="fill:url(#RadialGradID_3036) " d="M6.1,0.9L5.7 1.25L5.45 1.4L5.35 1.55L5.2 1.75L4.25 2.3L3.3 2.45L2.85 2.45L2.05 2.35Q1.3 2.15 0.85 1.65L0.75 1.55L0.45 1.25L0 0.9Q0 0.6 0.25 0.55L1.15 0.4L1.3 0.3L1.7 0.2L2.6 0.1L2.95 0.3L3 0.3L3.15 0.25L3.15 0.2L3.25 0.2L3.3 0.15L4.2 0.05L4.8 0.3L5.8 0.55Q6.15 0.6 6.1 0.9" />
<path style="fill:#B5204D;fill-opacity:0.8" d="M6,1.05L5.65 1.15L5.25 1.15L4.4 1.05L4.75 1L5.8 0.9L6 0.85L6.05 0.8L6.05 0.85L6 1.05" />
<path style="fill:#974728;fill-opacity:0.8" d="M2.3,0.75L2.25 0.75L2.3 0.75" />
<path style="fill:#B5204D;fill-opacity:0.8" d="M2.3,0.75L2.6 0.9L3 1L4.05 1L3.85 1.05L3.25 1.15L1.9 1L2.45 0.95L2.25 0.75L2.3 0.75" />
<path style="fill:#FFFFFF;fill-opacity:1" d="M3.4,1.85L3.6 1.7L3.8 1.85L3.6 2.05L3.4 1.85" />
<path style="fill:#FFFFFF;fill-opacity:1" d="M5.15,1.65L5.35 1.7L4.7 2L4.25 2.05L4.05 1.85Q4.05 1.7 4.25 1.7L5.15 1.65" />
<path style="fill:#FFD2BB;fill-opacity:1" d="M4.3,2.5L4.2 2.75L3.8 2.95L3.3 3.05L2.75 2.9L2.2 2.6Q2 2.5 2.3 2.55L3.1 2.6L4.3 2.5" />
<path style="fill:#B5204D;fill-opacity:0.380392" d="M4.3,2.55L4.2 2.65L3.9 2.7L3.15 2.75L2.3 2.65L2.15 2.6L4.3 2.55" />
<path style="fill:#974728;fill-opacity:0.8" d="M3.95,0.75L4 0.75L3.95 0.75" />
<path style="fill:#B5204D;fill-opacity:0.8" d="M3.95,0.75L3.65 0.9L3.25 1L2.2 1L2.4 1.05L3 1.15L4.35 1L3.8 0.95L4 0.75L3.95 0.75" />
<path style="fill:#B5204D;fill-opacity:0.8" d="M5.2,1.15L4.85 1.15L3.7 1.15L3.25 1.25L3.05 1.35L2.9 1.35L2.55 1.15L2 1.1L1.4 1.2L0.35 1.15L0.15 0.95L0.35 0.9L0.8 1L2.1 1L2.25 0.95L2.05 0.85L2.05 0.8L2.8 0.95L4.8 1L5.4 0.95L5.6 0.9L5.5 1.05L5.2 1.15" />
</g>
</svg>
