<?xml version="1.0" encoding="utf-8"?>
<svg version="1.1" id="Layer_1"
xmlns="http://www.w3.org/2000/svg"
xmlns:xlink="http://www.w3.org/1999/xlink"
xmlns:author="http://www.sothink.com"
width="7px" height="4px"
xml:space="preserve">
<g id="319" transform="matrix(1, 0, 0, 1, -66.9, -46.25)">
<radialGradient
id="RadialGradID_3037" gradientUnits="userSpaceOnUse" gradientTransform="matrix(-4.57764e-005, -0.00167847, -0.00299072, 4.57764e-005, 70.1, 48.45)" spreadMethod ="pad" cx="0" cy="0" r="819.2" fx="0" fy="0" >
<stop  offset="0.0470588"  style="stop-color:#DA6969;stop-opacity:0.513725" />
<stop  offset="1"  style="stop-color:#FFEFEA;stop-opacity:0" />
</radialGradient>
<path style="fill:url(#RadialGradID_3037) " d="M71.5,49.25L70.15 49.55L68.85 49.25Q68.25 48.95 68.25 48.5Q68.25 48.05 68.8 47.75L70.1 47.4L71.45 47.75Q72 48 72 48.45L71.5 49.25" />
<radialGradient
id="RadialGradID_3038" gradientUnits="userSpaceOnUse" gradientTransform="matrix(0.000854492, 0, 1.52588e-005, 0.00109863, 67.55, 47.1)" spreadMethod ="pad" cx="0" cy="0" r="819.2" fx="0" fy="0" >
<stop  offset="0.0470588"  style="stop-color:#C52929;stop-opacity:0.580392" />
<stop  offset="1"  style="stop-color:#FFEFEA;stop-opacity:0" />
</radialGradient>
<path style="fill:url(#RadialGradID_3038) " d="M68.05,46.5L68.25 47.1L68.05 47.7L67.6 47.95L67.1 47.7L66.9 47.1L67.1 46.5Q67.25 46.25 67.55 46.25L68.05 46.5" />
<radialGradient
id="RadialGradID_3039" gradientUnits="userSpaceOnUse" gradientTransform="matrix(0.000854492, 0, 1.52588e-005, 0.00109863, 72.8, 47.1)" spreadMethod ="pad" cx="0" cy="0" r="819.2" fx="0" fy="0" >
<stop  offset="0.0470588"  style="stop-color:#C52929;stop-opacity:0.580392" />
<stop  offset="1"  style="stop-color:#FFEFEA;stop-opacity:0" />
</radialGradient>
<path style="fill:url(#RadialGradID_3039) " d="M73.3,46.55L73.5 47.15L73.3 47.75L72.8 48Q72.5 48 72.35 47.75L72.15 47.15L72.35 46.55Q72.5 46.3 72.8 46.3Q73.1 46.3 73.3 46.55" />
<radialGradient
id="RadialGradID_3040" gradientUnits="userSpaceOnUse" gradientTransform="matrix(0.00401306, 4.57764e-005, 0, 0.00338745, 70.1, 46.85)" spreadMethod ="pad" cx="0" cy="0" r="819.2" fx="0" fy="0" >
<stop  offset="0.12549"  style="stop-color:#FE707E;stop-opacity:1" />
<stop  offset="1"  style="stop-color:#FFEBDE;stop-opacity:1" />
</radialGradient>
<path style="fill:url(#RadialGradID_3040) " d="M68.3,47.15L67.85 47.1L67.65 47.05L67.6 47.05L68.15 46.75Q68.55 46.5 69.1 46.35Q69.65 46.2 69.9 46.35L70.35 46.45L70.75 46.3L71.4 46.35L72.85 46.9L72.85 46.95L72.8 47L72.55 47.15L72.35 47.15L72.35 47.1L72.3 47.1L72.3 47.05L72.2 47.1L72.05 47.1L72.15 47.15L72.1 47.2L72.1 47.3L72.05 47.3L71.95 47.25L71.9 47.2L71.6 47.2L71.5 47.25L71.4 47.25L71.35 47.25L71.3 47.3L71.3 47.2L71.35 47.15L71.4 47.1L70.55 47.05L69.2 47.1L69 47.1L68.95 47.1L68.85 47.15L68.75 47.15L68.6 47.2L68.45 47.15L68.4 47.15L68.35 47.15L68.3 47.15M68.7,47.15L68.55 47.1L68.5 47.1L68.7 47.15M71.45,47.1L71.55 47.1L71.45 47.05L71.45 47.1" />
<radialGradient
id="RadialGradID_3041" gradientUnits="userSpaceOnUse" gradientTransform="matrix(0.00405884, -1.52588e-005, 1.52588e-005, 0.00230408, 70.15, 47.35)" spreadMethod ="pad" cx="0" cy="0" r="819.2" fx="0" fy="0" >
<stop  offset="0"  style="stop-color:#FB95A9;stop-opacity:1" />
<stop  offset="1"  style="stop-color:#F7D2C4;stop-opacity:0.501961" />
</radialGradient>
<path style="fill:url(#RadialGradID_3041) " d="M72.2,47.1L72.35 47.1L72.35 47.15L72.2 47.1" />
<radialGradient
id="RadialGradID_3042" gradientUnits="userSpaceOnUse" gradientTransform="matrix(0.00419617, 4.57764e-005, 0, 0.00341797, 70.1, 47.7)" spreadMethod ="pad" cx="0" cy="0" r="819.2" fx="0" fy="0" >
<stop  offset="0.12549"  style="stop-color:#FE707E;stop-opacity:1" />
<stop  offset="1"  style="stop-color:#FFEBDE;stop-opacity:1" />
</radialGradient>
<path style="fill:url(#RadialGradID_3042) " d="M71.4,47.1L71.35 47.15L71.3 47.2L71.3 47.3L71.35 47.25L71.4 47.25L71.5 47.25L71.6 47.2L71.9 47.2L71.95 47.25L72.05 47.3L72.1 47.3L72.1 47.2L72.15 47.15L72.4 47.2L72.65 47.35L72.55 47.65Q72.2 48.45 71.45 48.65L68.95 48.65L68.7 48.55Q68.2 48.45 67.65 47.4L67.65 47.35L67.65 47.3L67.75 47.3L67.85 47.25L68.15 47.2L68.35 47.15L68.4 47.15L68.45 47.15L68.6 47.2L68.75 47.15L68.85 47.15L68.95 47.1L69 47.1L69.55 47.25L69.95 47.25L70.2 47.25L70.8 47.25L71.4 47.1" />
<radialGradient
id="RadialGradID_3043" gradientUnits="userSpaceOnUse" gradientTransform="matrix(0.00405884, -1.52588e-005, 1.52588e-005, 0.00234985, 70.15, 47.25)" spreadMethod ="pad" cx="0" cy="0" r="819.2" fx="0" fy="0" >
<stop  offset="0"  style="stop-color:#FC94A9;stop-opacity:1" />
<stop  offset="1"  style="stop-color:#F7B9B3;stop-opacity:0.501961" />
</radialGradient>
<path style="fill:url(#RadialGradID_3043) " d="M72.2,47.1L72.3 47.05L72.3 47.1L72.35 47.1L72.2 47.1M68.5,47.1L68.55 47.1L68.7 47.15L68.5 47.1" />
<radialGradient
id="RadialGradID_3044" gradientUnits="userSpaceOnUse" gradientTransform="matrix(0.00186157, 0.000244141, -0.000289917, 0.00119019, 68.9, 47.9)" spreadMethod ="pad" cx="0" cy="0" r="819.2" fx="0" fy="0" >
<stop  offset="0"  style="stop-color:#FFFFFF;stop-opacity:1" />
<stop  offset="0.992157"  style="stop-color:#FA82A2;stop-opacity:0" />
</radialGradient>
<path style="fill:url(#RadialGradID_3044) " d="M69.65,48.25L69.95 48.15L70 48.5L69.85 48.55L69.65 48.4L69.6 48.4L69.45 48.5L69.35 48.25L69.2 48.3L69.1 48.3L68.95 48L68.9 48.2L68.45 48.1L68.35 47.7L68.1 47.9Q68 47.6 68.35 47.4L68.4 47.55L68.75 47.7L69 47.8L69.15 47.85L69.25 47.7L69.5 48.05L69.7 47.9L69.65 48.25" />
<radialGradient
id="RadialGradID_3045" gradientUnits="userSpaceOnUse" gradientTransform="matrix(0.00125122, -7.62939e-005, 3.05176e-005, 0.00111389, 71.4, 48.1)" spreadMethod ="pad" cx="0" cy="0" r="819.2" fx="0" fy="0" >
<stop  offset="0"  style="stop-color:#FFFFFF;stop-opacity:1" />
<stop  offset="0.992157"  style="stop-color:#FA82A2;stop-opacity:0" />
</radialGradient>
<path style="fill:url(#RadialGradID_3045) " d="M71.85,47.85L71.7 47.9Q71.4 47.95 71.45 48.2L70.95 48.2L70.85 48.45L70.6 48.2L70.8 48.2Q70.75 47.95 71.1 48L71.5 47.85Q71.7 47.65 71.85 47.85" />
<radialGradient
id="RadialGradID_3046" gradientUnits="userSpaceOnUse" gradientTransform="matrix(0.000808716, 0.000152588, -1.52588e-005, 0.000244141, 71.2, 46.45)" spreadMethod ="pad" cx="0" cy="0" r="819.2" fx="0" fy="0" >
<stop  offset="0"  style="stop-color:#FFFFFF;stop-opacity:1" />
<stop  offset="0.992157"  style="stop-color:#FDD7E3;stop-opacity:0" />
</radialGradient>
<path style="fill:url(#RadialGradID_3046) " d="M71.35,46.5L70.6 46.5L70.6 46.35L71.1 46.35L71.85 46.65L71.35 46.5" />
<path style="fill:#FCF1F1;fill-opacity:1" d="M70.55,47.1L71.35 47.2L69.95 47.35L69.15 47.15L69.9 47.15L70.55 47.1" />
<radialGradient
id="RadialGradID_3047" gradientUnits="userSpaceOnUse" gradientTransform="matrix(0.00231934, 1.52588e-005, 0, 0.00239563, 70.25, 47.15)" spreadMethod ="pad" cx="0" cy="0" r="819.2" fx="0" fy="0" >
<stop  offset="0.12549"  style="stop-color:#E42551;stop-opacity:1" />
<stop  offset="1"  style="stop-color:#EF4F6C;stop-opacity:1" />
</radialGradient>
<path style="fill:url(#RadialGradID_3047) " d="M73,47.1Q72.9 47.3 72.65 47.3L72.6 47.25L72.45 47.2L72.4 47.2L71.85 47.25L71.3 47.35L70.75 47.45L70.05 47.5L69.5 47.4L68.95 47.3L68.6 47.2L68.3 47.25L67.9 47.25L67.75 47.3L67.4 47.2L67.4 46.95L67.45 46.9L67.5 46.95L67.55 47L67.65 47.1L68.5 47.1L69.7 47.05L70.2 46.9L70.7 47L71.3 47L71.9 47.05L72.35 47.05L72.55 47.1L72.75 47L72.9 46.85L73 47.1M69.9,47.15L69.15 47.15L69.95 47.35L71.35 47.2L70.55 47.1L69.9 47.15" />
</g>
</svg>
