<?xml version="1.0" encoding="utf-8"?>
<svg version="1.1" id="Layer_1"
xmlns="http://www.w3.org/2000/svg"
xmlns:xlink="http://www.w3.org/1999/xlink"
xmlns:author="http://www.sothink.com"
width="7px" height="5px"
xml:space="preserve">
<g id="313" transform="matrix(1, 0, 0, 1, -7.05, -9.3)">
<radialGradient
id="RadialGradID_2989" gradientUnits="userSpaceOnUse" gradientTransform="matrix(-3.05176e-005, -0.00164795, -0.00259399, 7.62939e-005, 10.3, 13.1)" spreadMethod ="pad" cx="0" cy="0" r="819.2" fx="0" fy="0" >
<stop  offset="0.0470588"  style="stop-color:#DA6969;stop-opacity:0.513725" />
<stop  offset="1"  style="stop-color:#FFEFEA;stop-opacity:0" />
</radialGradient>
<path style="fill:url(#RadialGradID_2989) " d="M10.3,12.1Q11 12.05 11.5 12.35L11.95 13.05L11.5 13.8L10.3 14.15L9.2 13.9Q8.7 13.6 8.7 13.15Q8.7 12.7 9.2 12.45Q9.65 12.1 10.3 12.1" />
<radialGradient
id="RadialGradID_2990" gradientUnits="userSpaceOnUse" gradientTransform="matrix(0.000915527, -1.52588e-005, 1.52588e-005, 0.00126648, 7.8, 10.9)" spreadMethod ="pad" cx="0" cy="0" r="819.2" fx="0" fy="0" >
<stop  offset="0.0470588"  style="stop-color:#C52929;stop-opacity:0.580392" />
<stop  offset="1"  style="stop-color:#FFEFEA;stop-opacity:0" />
</radialGradient>
<path style="fill:url(#RadialGradID_2990) " d="M8.5,10.95L8.3 11.65L7.8 11.95Q7.45 11.95 7.25 11.65L7.05 10.95L7.25 10.25Q7.45 9.95 7.75 9.95Q8.05 9.95 8.3 10.25L8.5 10.95" />
<radialGradient
id="RadialGradID_2991" gradientUnits="userSpaceOnUse" gradientTransform="matrix(0.000915527, -1.52588e-005, 1.52588e-005, 0.00126648, 12.9, 10.95)" spreadMethod ="pad" cx="0" cy="0" r="819.2" fx="0" fy="0" >
<stop  offset="0.0470588"  style="stop-color:#C52929;stop-opacity:0.580392" />
<stop  offset="1"  style="stop-color:#FFEFEA;stop-opacity:0" />
</radialGradient>
<path style="fill:url(#RadialGradID_2991) " d="M12.9,12Q12.6 12 12.4 11.7L12.2 11L12.4 10.3Q12.55 10 12.9 10L13.4 10.3L13.6 11L13.4 11.7L12.9 12" />
<radialGradient
id="RadialGradID_2992" gradientUnits="userSpaceOnUse" gradientTransform="matrix(0, -0.000488281, -0.000869751, 3.05176e-005, 10.35, 9.55)" spreadMethod ="pad" cx="0" cy="0" r="819.2" fx="0" fy="0" >
<stop  offset="0.0470588"  style="stop-color:#E89F9F;stop-opacity:0.513725" />
<stop  offset="1"  style="stop-color:#FFEFEA;stop-opacity:0" />
</radialGradient>
<path style="fill:url(#RadialGradID_2992) " d="M10.35,9.3L10.75 9.35L10.9 9.6L10.75 9.8L10.35 9.9L9.95 9.8L9.8 9.6Q9.8 9.45 9.95 9.35L10.35 9.3" />
<radialGradient
id="RadialGradID_2993" gradientUnits="userSpaceOnUse" gradientTransform="matrix(-3.05176e-005, -0.00152588, -0.0025177, 7.62939e-005, 10.35, 12.55)" spreadMethod ="pad" cx="0" cy="0" r="819.2" fx="0" fy="0" >
<stop  offset="0.0470588"  style="stop-color:#DA6969;stop-opacity:0.513725" />
<stop  offset="1"  style="stop-color:#FFEFEA;stop-opacity:0" />
</radialGradient>
<path style="fill:url(#RadialGradID_2993) " d="M10.3,11.6L11.45 11.85L11.9 12.5L11.45 13.2L10.35 13.55L9.25 13.25Q8.75 13 8.75 12.6Q8.75 12.2 9.25 11.9Q9.65 11.6 10.3 11.6" />
<radialGradient
id="RadialGradID_2994" gradientUnits="userSpaceOnUse" gradientTransform="matrix(0.00653076, 0, 0, 0.00357056, 10.5, 11.8)" spreadMethod ="pad" cx="0" cy="0" r="819.2" fx="0" fy="0" >
<stop  offset="0"  style="stop-color:#F99FA9;stop-opacity:1" />
<stop  offset="0.156863"  style="stop-color:#F15262;stop-opacity:1" />
<stop  offset="0.886275"  style="stop-color:#FEEDE7;stop-opacity:1" />
<stop  offset="1"  style="stop-color:#FEEDE7;stop-opacity:0.501961" />
</radialGradient>
<path style="fill:url(#RadialGradID_2994) " d="M8.05,11.5L8.05 11.45L8.1 11.35L8.05 11.5M9.2,11.2L9.35 11.2L9.35 11.25L9.2 11.2" />
<radialGradient
id="RadialGradID_2995" gradientUnits="userSpaceOnUse" gradientTransform="matrix(0.00244141, 0, 0, 0.00257874, 11.15, 11.15)" spreadMethod ="pad" cx="0" cy="0" r="819.2" fx="0" fy="0" >
<stop  offset="0"  style="stop-color:#F9B0B0;stop-opacity:1" />
<stop  offset="1"  style="stop-color:#FDD0D0;stop-opacity:0.501961" />
</radialGradient>
<path style="fill:url(#RadialGradID_2995) " d="M9.4,11.25L9.4 11.2L9.45 11.2L9.4 11.25" />
<radialGradient
id="RadialGradID_2996" gradientUnits="userSpaceOnUse" gradientTransform="matrix(0.0032196, 0, 0, 0.00231934, 10.4, 10.8)" spreadMethod ="pad" cx="0" cy="0" r="819.2" fx="12" fy="0" >
<stop  offset="0"  style="stop-color:#FAC0C0;stop-opacity:1" />
<stop  offset="1"  style="stop-color:#FDD0D0;stop-opacity:0.501961" />
</radialGradient>
<path style="fill:url(#RadialGradID_2996) " d="M9.35,11.25L9.35 11.2L9.5 11.15L9.45 11.2L9.4 11.2L9.4 11.25L9.35 11.25" />
<radialGradient
id="RadialGradID_2997" gradientUnits="userSpaceOnUse" gradientTransform="matrix(0.0032196, 0, 0, 0.00231934, 10.4, 10.8)" spreadMethod ="pad" cx="0" cy="0" r="819.2" fx="12" fy="0" >
<stop  offset="0"  style="stop-color:#F76F8A;stop-opacity:1" />
<stop  offset="1"  style="stop-color:#FEEFEF;stop-opacity:0.501961" />
</radialGradient>
<path style="fill:url(#RadialGradID_2997) " d="M11.75,11.25L11.5 11.15L11.15 11.1L10.85 10.9L10.8 10.9L10.7 10.75L10.5 10.9L10.4 10.95L9.6 11.1L9.55 11.1L9.25 11.15L9.2 11.15L9.15 11.15L9.1 11.15L8.45 11.4L8.15 11.55L8.15 11.45L8.15 11.35Q8.15 11.1 8.45 10.6Q8.7 10.05 9.15 9.85L9.85 9.7L10.15 9.8L10.6 9.75Q11 9.6 11.35 9.75L12.15 10.5L12.6 11.25L12.55 11.45L12.55 11.5L11.75 11.25" />
<radialGradient
id="RadialGradID_2998" gradientUnits="userSpaceOnUse" gradientTransform="matrix(0.00357056, 0, 0, 0.00294495, 10.35, 10.95)" spreadMethod ="pad" cx="0" cy="0" r="819.2" fx="12" fy="0" >
<stop  offset="0"  style="stop-color:#F76F8A;stop-opacity:1" />
<stop  offset="1"  style="stop-color:#FEEFEF;stop-opacity:0.501961" />
</radialGradient>
<path style="fill:url(#RadialGradID_2998) " d="M9.35,11.25L9.4 11.25L9.45 11.2L9.5 11.15L9.35 11.2L9.25 11.15L9.55 11.1L9.6 11.1L10.2 11.05L10.45 11.05L10.5 10.9L10.7 10.75L10.8 10.9L11 11.1L11.15 11.1L11.5 11.15L11.75 11.25L12.55 11.5L12.55 11.55L12.55 11.6L12.05 12.25L11.5 12.8L10.95 12.9L10.45 12.85L9.85 12.9L9.15 12.7L8.15 11.55L8.45 11.4L9.1 11.15L9.15 11.15L9.2 11.15L9.2 11.2L9.35 11.25" />
<radialGradient
id="RadialGradID_2999" gradientUnits="userSpaceOnUse" gradientTransform="matrix(0.0012207, -3.05176e-005, 1.52588e-005, 0.000808716, 9.8, 11.9)" spreadMethod ="pad" cx="0" cy="0" r="819.2" fx="0" fy="0" >
<stop  offset="0"  style="stop-color:#FFFFFF;stop-opacity:1" />
<stop  offset="0.992157"  style="stop-color:#FA82A2;stop-opacity:0" />
</radialGradient>
<path style="fill:url(#RadialGradID_2999) " d="M9.9,12.1L9.6 12.1L9.45 11.85L9.35 12Q9.2 11.8 9.4 11.65L9.45 11.75L9.7 11.75L9.85 11.85L10.35 11.95L10.15 12.15L10.05 12.15L9.85 12L9.9 12.1" />
<path style="fill:#CA6257;fill-opacity:1" d="M10.5,10.85Q10.75 11.05 11.2 10.6Q11.05 10.95 11.65 11.15Q12.2 11.4 12.85 10.65Q13.2 10.7 13 11.1Q12.8 11.45 12.05 11.35L11.5 11.25L10.9 11.2L10.35 11.55L9.9 11.2L9.7 11.1L8.3 11.5L8.45 11.45L8.25 11.5L7.8 11.25Q7.55 10.8 7.85 10.7Q8.4 11.45 9.2 11.15Q9.95 10.8 9.6 10.65L10.15 10.85L10.3 10.35Q10.25 10.6 10.5 10.85" />
<radialGradient
id="RadialGradID_3000" gradientUnits="userSpaceOnUse" gradientTransform="matrix(0.00132751, 0.000366211, -0.000335693, 0.00146484, 10.4, 9.95)" spreadMethod ="pad" cx="0" cy="0" r="819.2" fx="0" fy="0" >
<stop  offset="0"  style="stop-color:#FFFFFF;stop-opacity:1" />
<stop  offset="0.992157"  style="stop-color:#FDD7E3;stop-opacity:0" />
</radialGradient>
<path style="fill:url(#RadialGradID_3000) " d="M9.3,10.1L9.45 9.7L9.9 9.75Q10.95 9.7 11.45 10.35L10.8 10.15Q10.1 9.8 9.4 10.15L9.3 10.1" />
<radialGradient
id="RadialGradID_3001" gradientUnits="userSpaceOnUse" gradientTransform="matrix(0.000823975, -1.52588e-005, 1.52588e-005, 0.000976563, 11, 11.9)" spreadMethod ="pad" cx="0" cy="0" r="819.2" fx="0" fy="0" >
<stop  offset="0"  style="stop-color:#FFFFFF;stop-opacity:1" />
<stop  offset="0.992157"  style="stop-color:#FA82A2;stop-opacity:0" />
</radialGradient>
<path style="fill:url(#RadialGradID_3001) " d="M11.35,11.7L11.2 11.75Q11 11.75 11.05 12L10.7 12L10.7 12.2L10.5 11.9L10.6 12Q10.55 11.75 10.8 11.8L11.1 11.7Q11.2 11.55 11.35 11.7" />
<path style="fill:#FFFFFF;fill-opacity:1" d="M10.45,11.9L10.3 12.15L10.05 11.9Q10.05 11.7 10.2 11.65L10.45 11.9" />
<path style="fill:#FFFFFF;fill-opacity:1" d="M11.3,11.4L11.25 11.4L11.3 11.4L11.3 11.35L11.2 11.4L11.25 11.4L11.25 11.45M11.25,11.45L11.3 11.4M11.3,11.35L11.3 11.05L11.35 11.35L11.45 11.4L11.35 11.35L11.35 11.4L11.45 11.45L11.45 11.4L12.05 10.75L11.6 11.5L11.6 11.65L11.85 11.65L11.6 11.7L11.6 11.8L11.6 11.7L11.65 11.85L12.15 12.55L11.55 11.95L11.5 11.95L11.4 11.95L11.4 12.3L11.35 12L11.25 11.95L11.35 12L11.35 11.95L11.25 11.9L11.25 11.95L10.6 12.6L11.15 11.85L11.05 11.7L10.8 11.7L11.05 11.65L11.1 11.5L11.05 11.65L11.1 11.65L11.15 11.55L11.1 11.55L11.1 11.65L11.1 11.55L11.1 11.5L10.5 10.8L11.2 11.4L11.3 11.35M11.5,11.6L11.5 11.55L11.5 11.6M11.55,11.65L11.6 11.65L11.55 11.5L11.55 11.55L11.6 11.65L11.55 11.55L11.55 11.65M11.55,11.8L11.6 11.7L11.55 11.8M11.05,11.7L11.1 11.8L11.1 11.75L11.1 11.8L11.1 11.7L11.05 11.7M11.3,11.9L11.35 11.9L11.3 11.9" />
<path style="fill:#FFFFFF;fill-opacity:1" d="M10.8,11.65L10.85 11.65L11.3 11.15L10.9 11.75L10.95 11.8L11.1 11.8L10.95 11.85L10.95 11.95L10.95 11.85L11 11.95L11.35 12.4L10.9 12.05L10.8 12.05L10.8 12.1L10.8 12.25L10.8 12.1L10.7 12.05L10.8 12.05L10.7 12L10.7 12.05L10.25 12.45L10.65 11.95L10.6 11.85L10.65 11.95L10.65 11.9L10.6 11.85L10.55 11.85L10.6 11.9L10.55 11.85L10.4 11.85L10.55 11.8L10.6 11.75L10.55 11.8L10.6 11.8L10.6 11.75L10.6 11.8L10.6 11.75L10.2 11.2L10.65 11.65L10.7 11.65L10.75 11.65L10.7 11.65L10.7 11.7L10.75 11.65L10.65 11.65L10.75 11.65L10.75 11.4L10.75 11.65L10.85 11.65L10.75 11.65L10.8 11.7L10.8 11.65M10.95,11.8L10.9 11.75L10.95 11.8M10.9,11.8L10.9 11.75L10.9 11.8M10.8,12L10.75 12L10.8 12M10.95,11.9L10.95 11.95L10.9 11.85L10.95 11.9" />
</g>
</svg>
