<?xml version="1.0" encoding="utf-8"?>
<svg version="1.1" id="Layer_1"
xmlns="http://www.w3.org/2000/svg"
xmlns:xlink="http://www.w3.org/1999/xlink"
xmlns:author="http://www.sothink.com"
width="8px" height="4px"
xml:space="preserve">
<g id="314" transform="matrix(1, 0, 0, 1, -66.45, -46.15)">
<radialGradient
id="RadialGradID_3002" gradientUnits="userSpaceOnUse" gradientTransform="matrix(4.57764e-005, -0.000915527, -0.00325012, 0.000137329, 70.3, 49)" spreadMethod ="pad" cx="0" cy="0" r="819.2" fx="0" fy="0" >
<stop  offset="0.0470588"  style="stop-color:#DA6969;stop-opacity:0.513725" />
<stop  offset="1"  style="stop-color:#FFEFEA;stop-opacity:0" />
</radialGradient>
<path style="fill:url(#RadialGradID_3002) " d="M70.4,48.45L71.85 48.6Q72.4 48.75 72.4 48.95Q72.35 49.2 71.75 49.4L70.25 49.65L68.9 49.55L68.3 49.1L68.95 48.7L70.4 48.45" />
<radialGradient
id="RadialGradID_3003" gradientUnits="userSpaceOnUse" gradientTransform="matrix(0.00038147, -0.000579834, 0.000595093, 0.000259399, 73.5, 46.65)" spreadMethod ="pad" cx="0" cy="0" r="819.2" fx="0" fy="0" >
<stop  offset="0.0470588"  style="stop-color:#C52929;stop-opacity:0.580392" />
<stop  offset="1"  style="stop-color:#FFEFEA;stop-opacity:0" />
</radialGradient>
<path style="fill:url(#RadialGradID_3003) " d="M73,46.85L73.05 46.5L73.4 46.2L73.85 46.2L74.05 46.5L74 46.85L73.65 47.15L73.25 47.1L73 46.85" />
<radialGradient
id="RadialGradID_3004" gradientUnits="userSpaceOnUse" gradientTransform="matrix(-0.00050354, -0.000488281, -0.000534058, 0.00038147, 67.05, 46.8)" spreadMethod ="pad" cx="0" cy="0" r="819.2" fx="0" fy="0" >
<stop  offset="0.0470588"  style="stop-color:#C52929;stop-opacity:0.580392" />
<stop  offset="1"  style="stop-color:#FFEFEA;stop-opacity:0" />
</radialGradient>
<path style="fill:url(#RadialGradID_3004) " d="M67.6,46.9L67.4 46.55Q67.3 46.4 67.05 46.35Q66.8 46.35 66.6 46.5L66.45 46.8L66.6 47.15L67 47.35L67.4 47.25L67.6 46.9" />
<path style="fill:#763C34;fill-opacity:1" d="M68.9,47.4L68.4 47.5L68.05 47.25L68.45 47.2L68.9 47.4M72.05,47.15L72.35 47.2L71.9 47.5L71.5 47.4L72.05 47.15" />
<path style="fill:#FFFFFF;fill-opacity:1" d="M71.5,47.4L71.9 47.5L71.5 47.6L70.6 47.75L69.35 47.7L68.5 47.55L68.4 47.5L68.9 47.4L68.45 47.2L69.35 47.15L70.75 47.1L72.05 47.15L71.5 47.4M70.6,48.35L70.65 48.35L70.6 48.4L70.6 48.35" />
<path style="fill:#FFAEC2;fill-opacity:1" d="M67.4,47.3L67.45 47.3L67.45 47.35L67.4 47.3" />
<path style="fill:#AC571E;fill-opacity:1" d="M73.35,46.7Q73.25 46.7 73.1 46.85L73.15 46.8L73.35 46.7" />
<radialGradient
id="RadialGradID_3005" gradientUnits="userSpaceOnUse" gradientTransform="matrix(0.00422668, -9.15527e-005, 4.57764e-005, 0.00195313, 70.3, 47.4)" spreadMethod ="pad" cx="0" cy="0" r="819.2" fx="0" fy="0" >
<stop  offset="0"  style="stop-color:#F8678C;stop-opacity:1" />
<stop  offset="0.156863"  style="stop-color:#E60000;stop-opacity:1" />
<stop  offset="0.705882"  style="stop-color:#F58367;stop-opacity:0.701961" />
<stop  offset="1"  style="stop-color:#FEE6DB;stop-opacity:0.501961" />
</radialGradient>
<path style="fill:url(#RadialGradID_3005) " d="M72.75,47.05L72.75 47L72.75 47.05M73.35,46.7L73.4 46.7L73.35 46.7" />
<radialGradient
id="RadialGradID_3006" gradientUnits="userSpaceOnUse" gradientTransform="matrix(0.0058136, 0, 7.62939e-005, 0.00320435, 70.2, 47.65)" spreadMethod ="pad" cx="0" cy="0" r="819.2" fx="3" fy="0" >
<stop  offset="0"  style="stop-color:#FF8ECF;stop-opacity:1" />
<stop  offset="1"  style="stop-color:#FDD0D0;stop-opacity:0.501961" />
</radialGradient>
<path style="fill:url(#RadialGradID_3006) " d="M73.1,46.8L73.15 46.8L73.1 46.85L73.1 46.8" />
<radialGradient
id="RadialGradID_3007" gradientUnits="userSpaceOnUse" gradientTransform="matrix(0.00157166, -3.05176e-005, 3.05176e-005, 0.00140381, 71.65, 48.15)" spreadMethod ="pad" cx="0" cy="0" r="819.2" fx="0" fy="0" >
<stop  offset="0.129412"  style="stop-color:#FFFFFF;stop-opacity:0.901961" />
<stop  offset="1"  style="stop-color:#FFFFFF;stop-opacity:0.301961" />
</radialGradient>
<path style="fill:url(#RadialGradID_3007) " d="M71.7,47.95L71.8 47.95L71.85 47.95L72.65 47.5L71.95 48.05L72 48.15L72.25 48.25L72 48.2L71.95 48.2L71.9 48.3L72 48.2L71.95 48.35L72.4 49.05L71.75 48.4L71.65 48.4L71.65 48.45L71.6 48.65L71.6 48.45L71.45 48.4L71.6 48.45L71.6 48.4L71.5 48.35L71.45 48.4L70.65 48.9L71.35 48.25L71.35 48.2L71.4 48.25L71.4 48.15L71.35 48.15L71.3 48.25L71.3 48.1L71.05 48.1L71.35 48.1L71.4 48L71.35 48.1L71.4 48.1L71.45 48.05L71.4 48.05L71.45 48L71.4 48L70.9 47.3L71.55 47.9L71.6 47.9L71.6 47.95L71.65 47.9L71.55 47.9L71.65 47.9L71.7 47.65L71.7 47.9L71.7 47.95M71.85,47.95L71.7 47.9L71.85 47.95M71.6,48.35L71.55 48.35L71.6 48.35M71.85,48.1L71.9 48.1L71.85 48.1M71.95,48.15L71.95 48.05L71.9 48.1L71.95 48.15" />
<radialGradient
id="RadialGradID_3008" gradientUnits="userSpaceOnUse" gradientTransform="matrix(0.00134277, -3.05176e-005, 3.05176e-005, 0.00120544, 71.15, 48.3)" spreadMethod ="pad" cx="0" cy="0" r="819.2" fx="0" fy="0" >
<stop  offset="0.129412"  style="stop-color:#FFFFFF;stop-opacity:0.701961" />
<stop  offset="1"  style="stop-color:#FFFFFF;stop-opacity:0" />
</radialGradient>
<path style="fill:url(#RadialGradID_3008) " d="M71.35,48.25L71.3 48.2L71.3 48.25L71.35 48.25M71.35,48.2L71.4 48.3L71.4 48.2L71.35 48.2M71.45,48.3L71.65 48.3L71.45 48.3L71.4 48.3L71.35 48.4L71.35 48.45L71.45 48.3L71.4 48.45L71.8 49.05L71.25 48.45L71.15 48.45L71.15 48.5L71.1 48.7L71.1 48.5L71 48.45L71.1 48.5L71.1 48.45L71 48.45L70.3 48.9L70.9 48.35L70.9 48.3L70.9 48.35L70.9 48.3L70.9 48.25L70.65 48.25L70.9 48.2L70.95 48.1L70.9 48.2L70.95 48.15L70.95 48.1L70.5 47.55L71.05 48.1L71.2 48.05L71.25 47.8L71.25 48.05L71.3 48.1L71.25 48.1L71.3 48.1L72 47.7L71.4 48.2L71.45 48.3M71.1,48.1L71.15 48.1L71.1 48.1" />
<radialGradient
id="RadialGradID_3009" gradientUnits="userSpaceOnUse" gradientTransform="matrix(0.00436401, -9.15527e-005, 6.10352e-005, 0.00259399, 70.25, 47.45)" spreadMethod ="pad" cx="0" cy="0" r="819.2" fx="0" fy="0" >
<stop  offset="0"  style="stop-color:#F8678C;stop-opacity:0.631373" />
<stop  offset="0.156863"  style="stop-color:#E60073;stop-opacity:0.45098" />
<stop  offset="0.705882"  style="stop-color:#F1AFD8;stop-opacity:0.341176" />
<stop  offset="1"  style="stop-color:#FEE6DB;stop-opacity:0" />
</radialGradient>
<path style="fill:url(#RadialGradID_3009) " d="M70.1,46.65L71.05 46.45L73.1 46.8L73.1 46.85Q73.25 46.7 73.35 46.7L72.75 47.05L72.75 47L72.55 47.1L68.6 46.9L67.9 47.05L67.65 47.05L67.35 46.95L68.95 46.55L69.55 46.55L70.1 46.65M67.45,47.35L67.45 47.3L69.5 47.9Q71.15 48.25 73.2 47.1L73.1 47.2L73.3 47.15L73.35 47.15L73.2 47.55L72.4 48.25L71.4 48.8L70.05 48.85L68.55 48.6L67.7 47.95L67.2 47.25L67.3 47.25L67.4 47.3L67.45 47.35M70.6,48.4L70.65 48.35L70.6 48.35L70.6 48.4" />
<path style="fill:#B7517A;fill-opacity:1" d="M66.9,46.9L67.2 46.8L68.35 46.9L68.6 46.9L72 46.85L73.55 46.6L73.75 46.7L72.95 47.3Q70.95 48.2 69.5 47.9L67.45 47.3L67.4 47.3L67.3 47.25L66.9 46.9M68.4,47.5L68.5 47.55L69.35 47.7L70.6 47.75L71.5 47.6L71.9 47.5L72.35 47.2L72.05 47.15L70.75 47.1L69.35 47.15L68.45 47.2L68.05 47.25L68.4 47.5" />
</g>
</svg>
