<?xml version="1.0" encoding="utf-8"?>
<svg version="1.1" id="Layer_1"
xmlns="http://www.w3.org/2000/svg"
xmlns:xlink="http://www.w3.org/1999/xlink"
xmlns:author="http://www.sothink.com"
width="8px" height="4px"
xml:space="preserve">
<g id="320" transform="matrix(1, 0, 0, 1, 3.9, 2)">
<radialGradient
id="RadialGradID_3048" gradientUnits="userSpaceOnUse" gradientTransform="matrix(-4.57764e-005, -0.00166321, -0.00344849, 7.62939e-005, -0.05, 0.9)" spreadMethod ="pad" cx="0" cy="0" r="819.2" fx="0" fy="0" >
<stop  offset="0.0470588"  style="stop-color:#DA6969;stop-opacity:0.513725" />
<stop  offset="1"  style="stop-color:#FFEFEA;stop-opacity:0" />
</radialGradient>
<path style="fill:url(#RadialGradID_3048) " d="M-0.05,-0.1L1.5 0.2Q2.1 0.5 2.1 0.9Q2.1 1.35 1.55 1.7L0 2L-1.5 1.75Q-2.2 1.45 -2.2 1Q-2.2 0.6 -1.55 0.3Q-0.95 -0.1 -0.05 -0.1" />
<radialGradient
id="RadialGradID_3049" gradientUnits="userSpaceOnUse" gradientTransform="matrix(0.000976563, -1.52588e-005, 1.52588e-005, 0.000976563, -3.15, -1.05)" spreadMethod ="pad" cx="0" cy="0" r="819.2" fx="0" fy="0" >
<stop  offset="0.0470588"  style="stop-color:#C52929;stop-opacity:0.580392" />
<stop  offset="1"  style="stop-color:#FFEFEA;stop-opacity:0" />
</radialGradient>
<path style="fill:url(#RadialGradID_3049) " d="M-2.6,-0.55Q-2.8 -0.3 -3.1 -0.3L-3.65 -0.5L-3.9 -1.05L-3.7 -1.6L-3.15 -1.85Q-2.8 -1.85 -2.6 -1.6L-2.35 -1.1Q-2.35 -0.75 -2.6 -0.55" />
<radialGradient
id="RadialGradID_3050" gradientUnits="userSpaceOnUse" gradientTransform="matrix(0.000976563, -1.52588e-005, 1.52588e-005, 0.000976563, 3.2, -1.25)" spreadMethod ="pad" cx="0" cy="0" r="819.2" fx="0" fy="0" >
<stop  offset="0.0470588"  style="stop-color:#C52929;stop-opacity:0.580392" />
<stop  offset="1"  style="stop-color:#FFEFEA;stop-opacity:0" />
</radialGradient>
<path style="fill:url(#RadialGradID_3050) " d="M3.15,-2L3.7 -1.8L3.95 -1.25L3.75 -0.7L3.2 -0.5Q2.85 -0.45 2.65 -0.7Q2.4 -0.9 2.4 -1.25L2.65 -1.8L3.15 -2" />
<radialGradient
id="RadialGradID_3051" gradientUnits="userSpaceOnUse" gradientTransform="matrix(0.00360107, 0, 0, 0.00360107, -0.05, -1.2)" spreadMethod ="pad" cx="0" cy="0" r="819.2" fx="0" fy="0" >
<stop  offset="0"  style="stop-color:#FA8DA4;stop-opacity:1" />
<stop  offset="0.992157"  style="stop-color:#FCC1C4;stop-opacity:1" />
</radialGradient>
<path style="fill:url(#RadialGradID_3051) " d="M1.75,-1.4L1.75 -1.25L1.85 -1.2L1.85 -1.1L2.3 -1L1.9 -0.95L1.65 -1.05L1.55 -1.05L1.55 -1L1.25 -1.1L0.65 -1.25L0.35 -1.15L0 -1.05L-0.05 -1.05L-0.1 -1.05L-0.25 -1.1L-0.5 -1.15L-0.65 -1.2L-0.95 -1.1L-1.1 -1.05L-1.6 -0.85L-1.95 -0.75L-2.2 -0.8L-2.2 -0.85L-2.35 -0.95L-2.2 -0.95L-2.2 -1.05L-2.25 -1.05L-1.7 -1.4L-0.6 -1.85L-0.35 -1.8L-0.3 -1.8L-0.25 -1.75L-0.1 -1.65L0.05 -1.65L0.65 -1.85L0.85 -1.9L1.45 -1.65L1.8 -1.4L1.75 -1.4M-0.05,-1.15L-0.05 -1.2L-0.1 -1.15L-0.1 -1.1L-0.05 -1.1L-0.05 -1.15" />
<path style="fill:#FBB3BA;fill-opacity:1" d="M2.3,-1L1.85 -1.1L1.85 -1.2L1.75 -1.25L1.75 -1.4L1.8 -1.4L1.85 -1.4L2.5 -1.15L2.55 -1.1L2.65 -1.1L2.65 -1L2.65 -0.95L2.35 -1L2.3 -1M2.15,-0.6L2.15 -0.65L2.2 -0.65L2.6 -0.65L2.65 -0.65L2.7 -0.6L2.7 -0.55L2.5 -0.3L2.1 -0.15L2.35 -0.35L2.4 -0.4L2.1 -0.45L2.2 -0.5L2.15 -0.55L2.15 -0.6M-2.5,-0.4L-2.3 -0.15L-2.2 -0.05L-2.2 0Q-2.45 -0.05 -2.55 -0.2L-2.65 -0.35L-2.7 -0.35L-2.7 -0.55L-2.75 -0.55L-2.75 -0.6L-2.75 -0.65L-2.7 -0.65L-2.2 -0.5L-1.95 -0.45L-1.95 -0.4L-1.95 -0.3L-2.3 -0.3L-2.5 -0.45L-2.5 -0.4M-2.7,-1.1L-2.25 -1.05L-2.2 -1.05L-2.2 -0.95L-2.35 -0.95L-2.6 -0.95L-2.75 -1L-2.75 -1.1L-2.7 -1.1" />
<path style="fill:#A52727;fill-opacity:0.2" d="M-2.8,-0.9L-2.95 -0.95L-3 -1.2L-2.9 -1.2L-2.7 -1.1L-2.75 -1.1L-2.75 -1L-2.6 -0.95L-2.35 -0.95L-2.2 -0.85L-2.2 -0.8L-2.8 -0.9" />
<linearGradient
id="LinearGradID_3052" gradientUnits="userSpaceOnUse" gradientTransform="matrix(0, 0.000183105, -0.00286865, 0, 0, -0.75)" spreadMethod ="pad" x1="-819.2" y1="0" x2="819.2" y2="0" >
<stop  offset="0" style="stop-color:#F54E70;stop-opacity:1" />
<stop  offset="0.8" style="stop-color:#F55F7E;stop-opacity:1" />
<stop  offset="1" style="stop-color:#FA8BA0;stop-opacity:1" />
<stop  offset="1" style="stop-color:#281313;stop-opacity:1" />
</linearGradient>
<path style="fill:url(#LinearGradID_3052) " d="M0.75,-0.85L0.4 -0.8L1.7 -0.75L1.9 -0.7L2.2 -0.65L2.15 -0.65L2.15 -0.6L0.5 -0.55L0.3 -0.55L-1.15 -0.6L-1.45 -0.5L-1.6 -0.35L-1.95 -0.4L-1.95 -0.45L-2.2 -0.5L-2.1 -0.5L-1.6 -0.55L-1.5 -0.65L-1.35 -0.65L-1.3 -0.7L0.4 -0.8L0.05 -0.85M0.05,-0.85L0.4 -0.95L0.6 -1.05L0.9 -1L1.7 -0.75L0.75 -0.85" />
<path style="fill:#A52727;fill-opacity:1" d="M2.65,-0.65L2.6 -0.65L2.2 -0.65L1.9 -0.7L1.7 -0.75L0.9 -1L0.6 -1.05L0.4 -0.95L0.05 -0.85L-0.7 -1L-1.4 -0.7L-1.3 -0.7L-1.35 -0.65L-1.5 -0.65L-1.6 -0.55L-2.1 -0.5L-2.2 -0.5L-2.7 -0.65L-2.75 -0.65L-2.75 -0.6L-3.1 -0.85L-3.1 -0.95L-3 -0.95L-2.9 -0.9L-3.05 -1L-3 -1L-2.95 -0.95L-2.8 -0.9L-2.2 -0.8L-1.95 -0.75L-1.6 -0.85L-1.1 -1.05L-0.95 -1.1L-0.65 -1.2L-0.5 -1.15L-0.25 -1.1L-0.1 -1.05L-0.05 -1.05L0 -1.05L0.35 -1.15L0.65 -1.25L1.25 -1.1L1.55 -1L1.55 -1.05L1.65 -1.05L1.9 -0.95L2.3 -1L2.35 -1L2.65 -0.95L2.65 -1L2.75 -1L3.05 -1.3L3.15 -1.3L3.15 -1.1L3.2 -1.15L3.2 -1.1L3.2 -1.15Q3.05 -0.7 2.7 -0.6L2.65 -0.65M-1.4,-0.7L-1.6 -0.7L-1.55 -0.65L-1.5 -0.65L-1.4 -0.7M2.55,-0.7L2.7 -0.8L2.55 -0.75L2.55 -0.7" />
<radialGradient
id="RadialGradID_3053" gradientUnits="userSpaceOnUse" gradientTransform="matrix(0.003479, 0, 0, 0.003479, 0.1, -0.6)" spreadMethod ="pad" cx="0" cy="0" r="819.2" fx="0" fy="0" >
<stop  offset="0"  style="stop-color:#FA7C96;stop-opacity:1" />
<stop  offset="0.992157"  style="stop-color:#FCC1C4;stop-opacity:1" />
</radialGradient>
<path style="fill:url(#RadialGradID_3053) " d="M2.15,-0.55L2.2 -0.5L2.1 -0.45L2.4 -0.4L2.35 -0.35L2.1 -0.15L2.5 -0.3Q1.4 0.85 0.25 0.85L-1.25 0.7L-1.35 0.7L-2.05 0.3L-2.6 -0.15L-2.55 -0.2Q-2.45 -0.05 -2.2 0L-2.2 -0.05L-2.3 -0.15L-2.5 -0.4L-2.5 -0.45L-2.3 -0.3L-1.95 -0.3L-1.95 -0.4L-1.6 -0.35L-1.45 -0.5L-1.15 -0.6L0.3 -0.55L0.5 -0.55L2.15 -0.6L2.15 -0.55" />
<radialGradient
id="RadialGradID_3054" gradientUnits="userSpaceOnUse" gradientTransform="matrix(9.15527e-005, 0, 0, 9.15527e-005, -0.05, -1.2)" spreadMethod ="pad" cx="0" cy="0" r="819.2" fx="0" fy="0" >
<stop  offset="0"  style="stop-color:#FA8DA4;stop-opacity:1" />
<stop  offset="0.992157"  style="stop-color:#FCC1C4;stop-opacity:1" />
</radialGradient>
<path style="fill:url(#RadialGradID_3054) " d="M-0.05,-1.1L-0.1 -1.1L-0.1 -1.15L-0.05 -1.2L-0.05 -1.15L-0.05 -1.1" />
<linearGradient
id="LinearGradID_3055" gradientUnits="userSpaceOnUse" gradientTransform="matrix(0, 0.000183105, -0.00286865, 0, 0, -0.75)" spreadMethod ="pad" x1="-819.2" y1="0" x2="819.2" y2="0" >
<stop  offset="0" style="stop-color:#C00C31;stop-opacity:1" />
<stop  offset="0.8" style="stop-color:#F55F7E;stop-opacity:1" />
<stop  offset="1" style="stop-color:#FA8BA0;stop-opacity:1" />
<stop  offset="1" style="stop-color:#281313;stop-opacity:1" />
</linearGradient>
<path style="fill:url(#LinearGradID_3055) " d="M0.4,-0.8L0.75 -0.85L1.7 -0.75L0.4 -0.8L-1.3 -0.7L-0.5 -0.9L-0.5 -0.85L-0.35 -0.85L0.05 -0.85L0.4 -0.8" />
<linearGradient
id="LinearGradID_3056" gradientUnits="userSpaceOnUse" gradientTransform="matrix(0.00088501, 0, 0, 0.000183105, -0.7, -0.85)" spreadMethod ="pad" x1="-819.2" y1="0" x2="819.2" y2="0" >
<stop  offset="0" style="stop-color:#C00C31;stop-opacity:1" />
<stop  offset="0.8" style="stop-color:#F55F7E;stop-opacity:1" />
<stop  offset="1" style="stop-color:#FA8BA0;stop-opacity:1" />
<stop  offset="1" style="stop-color:#281313;stop-opacity:1" />
</linearGradient>
<path style="fill:url(#LinearGradID_3056) " d="M-1.4,-0.7L-0.7 -1L0.05 -0.85L-0.35 -0.85L-0.5 -0.85L-0.5 -0.9L-1.3 -0.7L-1.4 -0.7" />
<linearGradient
id="LinearGradID_3057" gradientUnits="userSpaceOnUse" gradientTransform="matrix(0.00012207, 0, 0, 3.05176e-005, -1.5, -0.7)" spreadMethod ="pad" x1="-819.2" y1="0" x2="819.2" y2="0" >
<stop  offset="0" style="stop-color:#C00C31;stop-opacity:1" />
<stop  offset="0.8" style="stop-color:#F55F7E;stop-opacity:1" />
<stop  offset="1" style="stop-color:#FA8BA0;stop-opacity:1" />
<stop  offset="1" style="stop-color:#281313;stop-opacity:1" />
</linearGradient>
<path style="fill:url(#LinearGradID_3057) " d="M-1.5,-0.65L-1.55 -0.65L-1.6 -0.7L-1.4 -0.7L-1.5 -0.65" />
</g>
</svg>
