<?xml version="1.0" encoding="utf-8"?>
<svg version="1.1" id="Layer_1"
xmlns="http://www.w3.org/2000/svg"
xmlns:xlink="http://www.w3.org/1999/xlink"
xmlns:author="http://www.sothink.com"
width="6px" height="5px"
xml:space="preserve">
<g id="333" transform="matrix(1, 0, 0, 1, 2.7, 2)">
<radialGradient
id="RadialGradID_3124" gradientUnits="userSpaceOnUse" gradientTransform="matrix(0.00354004, 0, 0, 0.00154114, 0.25, 0.95)" spreadMethod ="pad" cx="0" cy="0" r="819.2" fx="0" fy="0" >
<stop  offset="0.129412"  style="stop-color:#F06472;stop-opacity:0.6" />
<stop  offset="0.933333"  style="stop-color:#FFECD9;stop-opacity:0.333333" />
</radialGradient>
<path style="fill:url(#RadialGradID_3124) " d="M2.75,-0.5L2.4 0.65L1.7 1.8L-0.05 2.05L-1.65 1.75L-2.35 0.55L-2.7 -0.65L-1.6 0.4L-0.1 0.85L1.75 0.5L2.45 -0.25L2.75 -0.5" />
<radialGradient
id="RadialGradID_3125" gradientUnits="userSpaceOnUse" gradientTransform="matrix(0.00524902, 0, 0, 0.00325012, 0.1, -0.35)" spreadMethod ="pad" cx="0" cy="0" r="819.2" fx="0" fy="0" >
<stop  offset="0"  style="stop-color:#FED6CD;stop-opacity:1" />
<stop  offset="0.854902"  style="stop-color:#F27B99;stop-opacity:0.6" />
</radialGradient>
<path style="fill:url(#RadialGradID_3125) " d="M2.05,-1.1L2.75 -0.3Q2.55 0.45 1.95 0.9L0.8 1.3L-0.55 1.3Q-1.4 1.3 -2.05 0.55L-2.45 0L-2.5 -0.3L-1.85 -1.2L-0.85 -2L0.2 -1.85L1.1 -2L2.05 -1.1" />
<radialGradient
id="RadialGradID_3126" gradientUnits="userSpaceOnUse" gradientTransform="matrix(0.00106812, 0, 0, 0.00050354, -0.25, -1.25)" spreadMethod ="pad" cx="0" cy="0" r="819.2" fx="210508" fy="0" >
<stop  offset="0"  style="stop-color:#FFFFFF;stop-opacity:0.572549" />
<stop  offset="1"  style="stop-color:#FFFFFF;stop-opacity:0" />
</radialGradient>
<path style="fill:url(#RadialGradID_3126) " d="M-0.15,-1.45L-0.05 -1.3L-0.1 -1.15L-0.6 -1.1L-0.8 -0.95L-0.95 -0.7L-0.9 -1.2L-0.6 -1.45L-0.15 -1.45" />
<radialGradient
id="RadialGradID_3127" gradientUnits="userSpaceOnUse" gradientTransform="matrix(0.00151062, 0.000350952, -9.15527e-005, 0.000595093, -0.65, 0.7)" spreadMethod ="pad" cx="0" cy="0" r="819.2" fx="0" fy="0" >
<stop  offset="0"  style="stop-color:#FFFFFF;stop-opacity:1" />
<stop  offset="1"  style="stop-color:#FFFFFF;stop-opacity:0.133333" />
</radialGradient>
<path style="fill:url(#RadialGradID_3127) " d="M-1.55,0.8L-1.9 0.3L-1.7 0.1L-0.8 0.4L0.45 0.45L0.6 0.65L0.55 0.9L-0.25 1L-0.9 0.95L-1.55 0.8" />
<radialGradient
id="RadialGradID_3128" gradientUnits="userSpaceOnUse" gradientTransform="matrix(0.000915527, -0.000152588, 1.52588e-005, 0.000442505, 1.5, 0.55)" spreadMethod ="pad" cx="0" cy="0" r="819.2" fx="0" fy="0" >
<stop  offset="0"  style="stop-color:#FFFFFF;stop-opacity:0.741176" />
<stop  offset="0.901961"  style="stop-color:#FFFFFF;stop-opacity:0" />
</radialGradient>
<path style="fill:url(#RadialGradID_3128) " d="M1.55,0.8L1.2 0.8L1 0.55L1.1 0.35L2.05 0.15L2.15 0.25L2.15 0.4L1.85 0.7L1.55 0.8" />
<path style="fill:#FFFFFF;fill-opacity:1" d="M0.2,-0.9L0.6 -1L1.35 -0.4L0.8 -0.2L0 -0.15L-0.75 -0.2L-0.95 -0.25L-1 -0.25L-1.15 -0.35L-0.5 -1.05L0.2 -0.9" />
<radialGradient
id="RadialGradID_3129" gradientUnits="userSpaceOnUse" gradientTransform="matrix(0.00268555, 0, 0, 0.00268555, -0.2, 0)" spreadMethod ="pad" cx="0" cy="0" r="819.2" fx="0" fy="0" >
<stop  offset="0.282353"  style="stop-color:#CA6257;stop-opacity:1" />
<stop  offset="1"  style="stop-color:#CA6257;stop-opacity:0" />
</radialGradient>
<path style="fill:url(#RadialGradID_3129) " d="M1.25,-0.7L2 -0.25L1.9 -0.1L1.65 -0.1L0.6 0.05L-0.45 0.05L-1.5 -0.1L-1.75 -0.1L-1.8 -0.25L-1.05 -0.7L-0.55 -1.25L0.1 -1.05L0.7 -1.25L1.25 -0.7M0.95,-0.25L1.25 -0.4L0.85 -0.85L0.65 -1Q0.1 -0.7 -0.5 -1L-1.05 -0.4L-0.75 -0.25L-0.4 -0.2L0.6 -0.2L0.95 -0.25" />
</g>
</svg>
