<?xml version="1.0" encoding="utf-8"?>
<svg version="1.1" id="Layer_1"
xmlns="http://www.w3.org/2000/svg"
xmlns:xlink="http://www.w3.org/1999/xlink"
xmlns:author="http://www.sothink.com"
width="10px" height="6px"
xml:space="preserve">
<g id="343" transform="matrix(1, 0, 0, 1, 4.9, 2.55)">
<radialGradient
id="RadialGradID_3188" gradientUnits="userSpaceOnUse" gradientTransform="matrix(-6.10352e-005, -0.00222778, -0.00387573, 7.62939e-005, 0.15, 1.15)" spreadMethod ="pad" cx="0" cy="0" r="819.2" fx="0" fy="0" >
<stop  offset="0.0470588"  style="stop-color:#DA6969;stop-opacity:0.513725" />
<stop  offset="1"  style="stop-color:#FFEFEA;stop-opacity:0" />
</radialGradient>
<path style="fill:url(#RadialGradID_3188) " d="M0.15,-0.2L1.9 0.2Q2.55 0.55 2.55 1.15Q2.55 1.7 1.95 2.15L0.2 2.6L-1.45 2.2Q-2.25 1.85 -2.25 1.25Q-2.3 0.7 -1.55 0.25L0.15 -0.2" />
<radialGradient
id="RadialGradID_3189" gradientUnits="userSpaceOnUse" gradientTransform="matrix(0.00134277, 0, 1.52588e-005, 0.00149536, -3.75, -1.35)" spreadMethod ="pad" cx="0" cy="0" r="819.2" fx="0" fy="0" >
<stop  offset="0.0470588"  style="stop-color:#C52929;stop-opacity:0.580392" />
<stop  offset="1"  style="stop-color:#FFEFEA;stop-opacity:0" />
</radialGradient>
<path style="fill:url(#RadialGradID_3189) " d="M-2.8,-1.35Q-2.8 -0.85 -3.05 -0.5Q-3.35 -0.15 -3.75 -0.15Q-4.25 -0.15 -4.6 -0.45L-4.9 -1.25L-4.6 -2.1Q-4.25 -2.5 -3.85 -2.5Q-3.4 -2.5 -3.1 -2.15Q-2.8 -1.8 -2.8 -1.35" />
<radialGradient
id="RadialGradID_3190" gradientUnits="userSpaceOnUse" gradientTransform="matrix(0.00134277, -1.52588e-005, 3.05176e-005, 0.00151062, 3.95, -1.45)" spreadMethod ="pad" cx="0" cy="0" r="819.2" fx="0" fy="0" >
<stop  offset="0.0470588"  style="stop-color:#C52929;stop-opacity:0.580392" />
<stop  offset="1"  style="stop-color:#FFEFEA;stop-opacity:0" />
</radialGradient>
<path style="fill:url(#RadialGradID_3190) " d="M3.2,-2.2Q3.5 -2.55 3.95 -2.55Q4.35 -2.6 4.65 -2.25L4.95 -1.4L4.65 -0.6L3.95 -0.2Q3.5 -0.2 3.15 -0.55Q2.85 -0.9 2.85 -1.4Q2.85 -1.9 3.2 -2.2" />
<path style="fill:#AC571E;fill-opacity:1" d="M3.45,-1.45L3.5 -1.45L3.75 -1.55L3.45 -1.45" />
<path style="fill:#FFFFFF;fill-opacity:1" d="M0.5,0.65L0.45 0.6L0.45 0.55L0.5 0.6L0.5 0.65M1.9,-1.75L0.95 -1.85L-1.75 -1.75L0.95 -1.95L1.9 -1.75M-1.55,0.5L-1.5 0.5L-1.55 0.55L-1.55 0.5" />
<path style="fill:#FFAEC2;fill-opacity:1" d="M-3.25,-0.85L-3.15 -0.8L-3.25 -0.8L-3.25 -0.85" />
<radialGradient
id="RadialGradID_3191" gradientUnits="userSpaceOnUse" gradientTransform="matrix(0.00689697, 6.10352e-005, 7.62939e-005, 0.00427246, 0.1, -0.4)" spreadMethod ="pad" cx="0" cy="0" r="819.2" fx="100768" fy="0" >
<stop  offset="0"  style="stop-color:#FEBAD0;stop-opacity:1" />
<stop  offset="1"  style="stop-color:#FEE0E0;stop-opacity:0.501961" />
</radialGradient>
<path style="fill:url(#RadialGradID_3191) " d="M-0.8,0.6L-1.1 0.55L-0.75 0.6L-0.8 0.6" />
<radialGradient
id="RadialGradID_3192" gradientUnits="userSpaceOnUse" gradientTransform="matrix(0.00689697, 6.10352e-005, 7.62939e-005, 0.00427246, 0.1, -0.4)" spreadMethod ="pad" cx="0" cy="0" r="819.2" fx="3" fy="0" >
<stop  offset="0"  style="stop-color:#FF8ECF;stop-opacity:1" />
<stop  offset="1"  style="stop-color:#FDD0D0;stop-opacity:0.501961" />
</radialGradient>
<path style="fill:url(#RadialGradID_3192) " d="M3.45,-1.45L3.5 -1.45L3.45 -1.45" />
<radialGradient
id="RadialGradID_3193" gradientUnits="userSpaceOnUse" gradientTransform="matrix(0.00468445, -7.62939e-005, 6.10352e-005, 0.00367737, 0.05, -0.9)" spreadMethod ="pad" cx="0" cy="0" r="819.2" fx="0" fy="0" >
<stop  offset="0.12549"  style="stop-color:#FEBCD0;stop-opacity:1" />
<stop  offset="1"  style="stop-color:#FEB8C5;stop-opacity:0" />
</radialGradient>
<path style="fill:url(#RadialGradID_3193) " d="M3.75,-1.55L3.8 -1.55L3.1 -1.2L3.05 -1.1L3.1 -1.2L2.85 -1.1L-1.85 -1.3L-2.7 -1.15L-3 -1.2L-3.4 -1.35L-1.95 -1.85L-0.45 -2.15L0.95 -2.05L1.05 -2.05L2.4 -1.8L3.45 -1.45L3.75 -1.55M0.95,-1.95L-1.75 -1.75L0.95 -1.85L1.9 -1.75L0.95 -1.95" />
<radialGradient
id="RadialGradID_3194" gradientUnits="userSpaceOnUse" gradientTransform="matrix(0.00518799, -9.15527e-005, 6.10352e-005, 0.00364685, -0.05, -0.6)" spreadMethod ="pad" cx="0" cy="0" r="819.2" fx="0" fy="0" >
<stop  offset="0.12549"  style="stop-color:#FEBCD0;stop-opacity:1" />
<stop  offset="1"  style="stop-color:#FEB8C5;stop-opacity:0" />
</radialGradient>
<path style="fill:url(#RadialGradID_3194) " d="M-3.25,-0.8L-3.15 -0.8Q-2.7 -0.45 -0.75 0.05Q1.1 0.45 3.6 -1L3.5 -0.9L3.75 -0.9L3.25 -0.3L2.45 0.5L1.4 1.15L-0.2 1.25Q-1.35 1.25 -1.9 0.85L-2.9 0.05L-3.5 -0.9L-3.4 -0.95L-3.25 -0.85L-3.25 -0.8M0.5,0.6L0.45 0.55L0.45 0.6L0.5 0.65L0.5 0.6M-0.75,0.6L-1.1 0.55L-0.8 0.6L-0.75 0.6M-1.55,0.55L-1.5 0.5L-1.55 0.5L-1.55 0.55" />
<radialGradient
id="RadialGradID_3195" gradientUnits="userSpaceOnUse" gradientTransform="matrix(0.00184631, -3.05176e-005, 3.05176e-005, 0.00186157, 1.55, 0.35)" spreadMethod ="pad" cx="0" cy="0" r="819.2" fx="0" fy="0" >
<stop  offset="0.129412"  style="stop-color:#FFFFFF;stop-opacity:0.901961" />
<stop  offset="1"  style="stop-color:#FFFFFF;stop-opacity:0.301961" />
</radialGradient>
<path style="fill:url(#RadialGradID_3195) " d="M1.8,0.1L1.65 0.05L1.65 0.1L1.75 0.1L1.8 0.1L2.75 -0.55L1.9 0.2L1.95 0.35L2.25 0.45L1.95 0.4L1.9 0.4L1.85 0.6L1.95 0.4L1.9 0.65L2.5 1.5L1.7 0.7L1.6 0.7L1.55 0.75L1.5 1.05L1.5 0.75L1.35 0.7L1.5 0.75L1.5 0.7L1.4 0.65L1.35 0.7L0.4 1.3L1.2 0.45L1.2 0.4L1.3 0.45L1.3 0.35L1.2 0.35L1.15 0.5L1.15 0.35L0.85 0.3L1.2 0.25L1.3 0.15L1.2 0.25L1.3 0.25L1.35 0.2L1.3 0.2L1.35 0.15L1.3 0.15L0.65 -0.75L1.45 0.05L1.5 0.05L1.5 0.1L1.55 0.05L1.6 0.05L1.45 0.05L1.6 0L1.65 -0.3L1.65 0L1.8 0.1M1.5,0.65L1.45 0.65L1.5 0.65M1.85,0.3L1.8 0.25L1.8 0.3L1.85 0.3M1.85,0.25L1.9 0.35L1.9 0.2L1.85 0.25" />
<radialGradient
id="RadialGradID_3196" gradientUnits="userSpaceOnUse" gradientTransform="matrix(0.00160217, -3.05176e-005, 3.05176e-005, 0.00160217, 0.95, 0.6)" spreadMethod ="pad" cx="0" cy="0" r="819.2" fx="0" fy="0" >
<stop  offset="0.129412"  style="stop-color:#FFFFFF;stop-opacity:0.701961" />
<stop  offset="1"  style="stop-color:#FFFFFF;stop-opacity:0" />
</radialGradient>
<path style="fill:url(#RadialGradID_3196) " d="M1.3,0.55L1.3 0.4L1.2 0.4L1.3 0.55M1.15,0.45L1.15 0.5L1.2 0.45L1.15 0.45M1.35,0.55L1.6 0.6L1.35 0.6L1.3 0.6L1.2 0.7L1.2 0.75L1.35 0.6L1.3 0.75L1.75 1.5L1.1 0.85L0.95 0.85L0.95 0.9L0.9 1.15L0.9 0.9L0.8 0.85L0.9 0.9L0.9 0.85L0.8 0.8L0.8 0.85L-0.05 1.35L0.7 0.7L0.7 0.65L0.7 0.7L0.7 0.65L0.7 0.6L0.65 0.6L0.65 0.5L0.4 0.45L0.65 0.45L0.75 0.35L0.7 0.45L0.75 0.4L0.75 0.35L0.2 -0.4L0.85 0.3L1 0.25L1.05 -0.05L1.05 0.25L1.15 0.3L1.05 0.3L1.1 0.35L1.1 0.3L1.15 0.3L1.95 -0.25L1.3 0.4L1.35 0.55M0.9,0.3L0.95 0.3L0.9 0.3" />
<path style="fill:#CA6257;fill-opacity:1" d="M-1.95,-0.5L-0.95 -0.25L0.5 -0.2L1.55 -0.35L2 -0.55L2.55 -0.95L2.2 -0.95L0.65 -1.1L-1.05 -1.1L-2.15 -1L-2.55 -0.85L-2.15 -0.55L-1.95 -0.5M-2.7,-1.15L-1.85 -1.3L2.8 -1.15L3.05 -1.2L3 -1.15L3.05 -1.2L3.75 -1.9L4 -1.5L3.95 -1.4L3.7 -0.95L3.4 -0.95L3.55 -1.05Q1.1 0.45 -0.75 0Q-2.75 -0.45 -3.25 -0.85L-3.3 -0.9L-3.45 -0.95L-3.6 -0.95L-3.95 -1.3L-3.75 -1.7L-3.6 -1.45L-3.55 -1.4L-3.4 -1.3L-3 -1.2L-2.7 -1.15" />
<path style="fill:#763C34;fill-opacity:1" d="M-1.6,-0.7L-2.15 -0.55L-2.55 -0.85L-2.15 -1Q-1.95 -0.8 -1.6 -0.7M1.55,-0.65Q2 -0.75 2.2 -0.95L2.55 -0.95L2 -0.55L1.55 -0.65" />
<path style="fill:#FFFFFF;fill-opacity:1" d="M2,-0.55L1.55 -0.35L0.5 -0.2L-0.95 -0.25L-1.95 -0.5L-2.15 -0.55L-1.6 -0.7Q-1.95 -0.8 -2.15 -1L-1.05 -1.1L0.65 -1.1L2.2 -0.95Q2 -0.75 1.55 -0.65L2 -0.55" />
</g>
</svg>
