<?xml version="1.0" encoding="utf-8"?>
<svg version="1.1" id="Layer_1"
xmlns="http://www.w3.org/2000/svg"
xmlns:xlink="http://www.w3.org/1999/xlink"
xmlns:author="http://www.sothink.com"
width="3px" height="1px"
xml:space="preserve">
<g id="326" transform="matrix(1, 0, 0, 1, 1.35, 0.5)">
<radialGradient
id="RadialGradID_3091" gradientUnits="userSpaceOnUse" gradientTransform="matrix(-6.10352e-005, 0.000488281, -0.00128174, 0, 0, 0.2)" spreadMethod ="pad" cx="0" cy="0" r="819.2" fx="210136" fy="0" >
<stop  offset="0.0470588"  style="stop-color:#DA6969;stop-opacity:0.513725" />
<stop  offset="1"  style="stop-color:#FFEFEA;stop-opacity:0" />
</radialGradient>
<path style="fill:url(#RadialGradID_3091) " d="M0.6,0.4L0.8 0.2L0.65 -0.05L0.05 -0.15L-0.5 -0.05L-0.8 0.2L-0.55 0.4L0 0.5L0.6 0.4" />
<radialGradient
id="RadialGradID_3092" gradientUnits="userSpaceOnUse" gradientTransform="matrix(0.000366211, 0, 3.05176e-005, -0.000335693, -1.05, 0)" spreadMethod ="pad" cx="0" cy="0" r="819.2" fx="0" fy="0" >
<stop  offset="0.0470588"  style="stop-color:#C52929;stop-opacity:0.580392" />
<stop  offset="1"  style="stop-color:#FFEFEA;stop-opacity:0" />
</radialGradient>
<path style="fill:url(#RadialGradID_3092) " d="M-0.85,-0.15L-1.05 -0.25L-1.3 -0.2L-1.35 0L-1.3 0.2L-1.1 0.3L-0.9 0.2L-0.75 0L-0.85 -0.15" />
<radialGradient
id="RadialGradID_3093" gradientUnits="userSpaceOnUse" gradientTransform="matrix(0.000366211, 0, 3.05176e-005, -0.000335693, 1.1, 0)" spreadMethod ="pad" cx="0" cy="0" r="819.2" fx="0" fy="0" >
<stop  offset="0.0470588"  style="stop-color:#C52929;stop-opacity:0.580392" />
<stop  offset="1"  style="stop-color:#FFEFEA;stop-opacity:0" />
</radialGradient>
<path style="fill:url(#RadialGradID_3093) " d="M1.05,0.25L1.25 0.2L1.35 0L1.3 -0.2L1.1 -0.25L0.9 -0.2L0.8 0L0.85 0.2L1.05 0.25" />
<radialGradient
id="RadialGradID_3094" gradientUnits="userSpaceOnUse" gradientTransform="matrix(0.001297, 0, 7.62939e-005, -0.000808716, 0, -0.05)" spreadMethod ="pad" cx="0" cy="0" r="819.2" fx="0" fy="0" >
<stop  offset="0.282353"  style="stop-color:#FEB4CB;stop-opacity:1" />
<stop  offset="1"  style="stop-color:#FEB8C5;stop-opacity:0" />
</radialGradient>
<path style="fill:url(#RadialGradID_3094) " d="M-0.25,-0.35L-0.6 -0.25L-0.7 -0.15L-0.75 -0.15L-0.9 0L-0.85 0L-0.95 0.05L-0.65 0L-0.2 -0.15L0.6 -0.05L0.95 0.05L1 0.05L0.9 0L0.9 -0.05L0.45 -0.25L-0.25 -0.35" />
<radialGradient
id="RadialGradID_3095" gradientUnits="userSpaceOnUse" gradientTransform="matrix(0.001297, 0, 7.62939e-005, -0.000808716, -0.05, -0.25)" spreadMethod ="pad" cx="0" cy="0" r="819.2" fx="0" fy="0" >
<stop  offset="0.282353"  style="stop-color:#FEB4CB;stop-opacity:1" />
<stop  offset="1"  style="stop-color:#FEB8C5;stop-opacity:0" />
</radialGradient>
<path style="fill:url(#RadialGradID_3095) " d="M0.45,-0.25L0.55 -0.25L0.9 -0.05L0.15 -0.45L-0.6 -0.35L-0.85 -0.15L-0.7 -0.15L-0.6 -0.25L-0.25 -0.35L0.45 -0.25" />
<path style="fill:#FFAEC2;fill-opacity:1" d="M-0.9,-0.05L-0.9 -0.1L-0.9 -0.05" />
<path style="fill:#CA6257;fill-opacity:1" d="M1.05,-0.1L0.95 -0.1Q0.45 -0.45 -0.15 -0.4Q-0.8 -0.3 -0.95 -0.05L-1 -0.05L-1.1 0.05L-1.1 0.1L-1.05 0.05L-0.95 0.05L-0.9 0L-0.55 -0.25L0.1 -0.35L0.9 0L0.95 0L0.9 0L1.05 0.05L1.1 0.05L1.05 -0.1" />
<radialGradient
id="RadialGradID_3096" gradientUnits="userSpaceOnUse" gradientTransform="matrix(0.000488281, -0.000152588, -0.000137329, -0.00038147, 0.4, -0.2)" spreadMethod ="pad" cx="0" cy="0" r="819.2" fx="0" fy="0" >
<stop  offset="0.129412"  style="stop-color:#FFFFFF;stop-opacity:0.901961" />
<stop  offset="1"  style="stop-color:#FFFFFF;stop-opacity:0.301961" />
</radialGradient>
<path style="fill:url(#RadialGradID_3096) " d="M0.45,-0.1L0.4 -0.15L0.45 -0.15L0.45 -0.1L0.5 -0.05L0.45 -0.15L0.5 -0.15L0.45 -0.15L0.5 -0.15L0.8 -0.1L0.5 -0.2L0.55 -0.25L0.5 -0.25L0.45 -0.25L0.6 -0.5L0.4 -0.25L0.35 -0.25L0.3 -0.35L0.35 -0.25L0.3 -0.25L0.35 -0.25L0.3 -0.2L0.3 -0.25L0 -0.3L0.3 -0.2L0.3 -0.15L0.3 -0.2L0.3 -0.15L0.25 -0.1L0.3 -0.15L0.35 -0.15L0.35 -0.1L0.25 0.15L0.4 -0.1L0.45 -0.1" />
<radialGradient
id="RadialGradID_3097" gradientUnits="userSpaceOnUse" gradientTransform="matrix(0.000427246, -0.00012207, -0.00012207, -0.000335693, 0.2, -0.2)" spreadMethod ="pad" cx="0" cy="0" r="819.2" fx="0" fy="0" >
<stop  offset="0.129412"  style="stop-color:#FFFFFF;stop-opacity:0.701961" />
<stop  offset="1"  style="stop-color:#FFFFFF;stop-opacity:0" />
</radialGradient>
<path style="fill:url(#RadialGradID_3097) " d="M0.4,-0.25L0.3 -0.25L0.25 -0.25L0.3 -0.25L0.35 -0.45L0.25 -0.25L0.2 -0.25L0.15 -0.3L0.2 -0.25L0.15 -0.2L0.15 -0.25L-0.1 -0.3L0.15 -0.2L0.15 -0.15L0.1 -0.15L0.15 -0.15L0.2 -0.15L0.05 0.05L0.2 -0.15L0.25 -0.15L0.3 -0.05L0.3 -0.15L0.55 -0.1L0.3 -0.2L0.3 -0.15L0.3 -0.2L0.4 -0.25" />
</g>
</svg>
