<?xml version="1.0" encoding="utf-8"?>
<svg version="1.1" id="Layer_1"
xmlns="http://www.w3.org/2000/svg"
xmlns:xlink="http://www.w3.org/1999/xlink"
xmlns:author="http://www.sothink.com"
width="9px" height="4px"
xml:space="preserve">
<g id="322" transform="matrix(1, 0, 0, 1, 4.05, 2.05)">
<radialGradient
id="RadialGradID_3058" gradientUnits="userSpaceOnUse" gradientTransform="matrix(0.00100708, -1.52588e-005, 1.52588e-005, 0.00100708, 3.25, -1.3)" spreadMethod ="pad" cx="0" cy="0" r="819.2" fx="0" fy="0" >
<stop  offset="0.0470588"  style="stop-color:#C52929;stop-opacity:0.580392" />
<stop  offset="1"  style="stop-color:#FFEFEA;stop-opacity:0" />
</radialGradient>
<path style="fill:url(#RadialGradID_3058) " d="M3.25,-2.05L3.8 -1.85L4.05 -1.3L3.8 -0.75Q3.6 -0.5 3.25 -0.5L2.7 -0.7Q2.45 -0.95 2.45 -1.25L2.7 -1.85L3.25 -2.05" />
<radialGradient
id="RadialGradID_3059" gradientUnits="userSpaceOnUse" gradientTransform="matrix(0.00100708, -1.52588e-005, 1.52588e-005, 0.00100708, -3.3, -1.1)" spreadMethod ="pad" cx="0" cy="0" r="819.2" fx="0" fy="0" >
<stop  offset="0.0470588"  style="stop-color:#C52929;stop-opacity:0.580392" />
<stop  offset="1"  style="stop-color:#FFEFEA;stop-opacity:0" />
</radialGradient>
<path style="fill:url(#RadialGradID_3059) " d="M-2.75,-0.6Q-2.95 -0.35 -3.3 -0.35Q-3.6 -0.35 -3.85 -0.6L-4.05 -1.15L-3.85 -1.7L-3.3 -1.9L-2.75 -1.7L-2.5 -1.15L-2.75 -0.6" />
<radialGradient
id="RadialGradID_3060" gradientUnits="userSpaceOnUse" gradientTransform="matrix(-4.57764e-005, -0.00169373, -0.00350952, 9.15527e-005, 0.1, 0.5)" spreadMethod ="pad" cx="0" cy="0" r="819.2" fx="0" fy="0" >
<stop  offset="0.0470588"  style="stop-color:#DA6969;stop-opacity:0.513725" />
<stop  offset="1"  style="stop-color:#FFEFEA;stop-opacity:0" />
</radialGradient>
<path style="fill:url(#RadialGradID_3060) " d="M0.05,-0.5L1.65 -0.25Q2.25 0.05 2.3 0.45Q2.3 0.9 1.7 1.25L0.1 1.6L-1.4 1.35Q-2.1 1 -2.1 0.55Q-2.15 0.1 -1.45 -0.2L0.05 -0.5" />
<radialGradient
id="RadialGradID_3061" gradientUnits="userSpaceOnUse" gradientTransform="matrix(0.000976563, -1.52588e-005, 1.52588e-005, 0.000701904, 0.95, -0.35)" spreadMethod ="pad" cx="0" cy="0" r="819.2" fx="0" fy="0" >
<stop  offset="0"  style="stop-color:#FFFFFF;stop-opacity:1" />
<stop  offset="0.992157"  style="stop-color:#FA82A2;stop-opacity:0" />
</radialGradient>
<path style="fill:url(#RadialGradID_3061) " d="M0.5,-0.25L0.75 -0.4L1.05 -0.5L1.35 -0.45L1.2 -0.4L1.05 -0.3L0.6 -0.25L0.55 -0.1L0.35 -0.3L0.5 -0.25" />
<radialGradient
id="RadialGradID_3062" gradientUnits="userSpaceOnUse" gradientTransform="matrix(0.00366211, 0, 0, 0.00262451, 0.1, -0.45)" spreadMethod ="pad" cx="0" cy="0" r="819.2" fx="0" fy="0" >
<stop  offset="0"  style="stop-color:#F45787;stop-opacity:0.772549" />
<stop  offset="1"  style="stop-color:#FCBABF;stop-opacity:0.513725" />
<stop  offset="1"  style="stop-color:#FCBBC0;stop-opacity:1" />
</radialGradient>
<path style="fill:url(#RadialGradID_3062) " d="M0.05,-0.6L0.6 -0.65L2.75 -0.8L3.05 -0.85L2.25 -0.3L1.6 0L0.05 0.2L0.05 -0.6M0.35,-0.3L0.55 -0.1L0.6 -0.25L1.05 -0.3L1.2 -0.4L1.35 -0.45L1.05 -0.5L0.75 -0.4L0.5 -0.25L0.35 -0.3" />
<radialGradient
id="RadialGradID_3063" gradientUnits="userSpaceOnUse" gradientTransform="matrix(-0.00366211, 0, 0, 0.00262451, -0.1, -0.45)" spreadMethod ="pad" cx="0" cy="0" r="819.2" fx="0" fy="0" >
<stop  offset="0"  style="stop-color:#F45787;stop-opacity:0.772549" />
<stop  offset="1"  style="stop-color:#FCBABF;stop-opacity:0.513725" />
<stop  offset="1"  style="stop-color:#FCBBC0;stop-opacity:1" />
</radialGradient>
<path style="fill:url(#RadialGradID_3063) " d="M0.05,-0.6L0.05 0.2L-1.65 0L-2.4 -0.4L-3.05 -0.85L-3 -0.85L-2.7 -0.8L-0.6 -0.65L-0.05 -0.6L0.05 -0.6M-1.1,-0.4L-1.15 -0.45Q-1.4 -0.35 -1.25 -0.2L-1.1 -0.3L-0.9 -0.15L-0.55 -0.15L-0.6 -0.25L-0.4 -0.1L-0.3 -0.1Q-0.15 -0.2 -0.05 -0.25L-0.6 -0.35L-0.8 -0.35L-1.1 -0.4" />
<radialGradient
id="RadialGradID_3064" gradientUnits="userSpaceOnUse" gradientTransform="matrix(0.00144958, -1.52588e-005, 1.52588e-005, 0.000595093, -0.7, -0.3)" spreadMethod ="pad" cx="0" cy="0" r="819.2" fx="0" fy="0" >
<stop  offset="0"  style="stop-color:#FFFFFF;stop-opacity:1" />
<stop  offset="0.992157"  style="stop-color:#FA82A2;stop-opacity:0" />
</radialGradient>
<path style="fill:url(#RadialGradID_3064) " d="M-0.8,-0.35L-0.6 -0.35L-0.05 -0.25Q-0.15 -0.2 -0.3 -0.1L-0.4 -0.1L-0.6 -0.25L-0.55 -0.15L-0.9 -0.15L-1.1 -0.3L-1.25 -0.2Q-1.4 -0.35 -1.15 -0.45L-1.1 -0.4L-0.8 -0.35" />
<path style="fill:#DA5252;fill-opacity:1" d="M3.3,-1.4L3.35 -1.4L3.35 -1.3L3.3 -1.35L3.3 -1.4M-3.3,-1.35L-3.35 -1.3L-3.35 -1.4L-3.3 -1.4L-3.3 -1.35" />
<path style="fill:#D33D3D;fill-opacity:1" d="M3.2,-0.95L3.05 -0.9L2.75 -0.8L0.6 -0.5L0.05 -0.4L-0.05 -0.4L-0.6 -0.5L-2.7 -0.8L-3 -0.9L-3.05 -0.9L-3.15 -0.95L-3.35 -1.3L-3.3 -1.35L-2.95 -1.1L-2.7 -0.85L-1.1 -0.6L-0.9 -0.6L-0.2 -0.85L-0.05 -0.8L0 -0.8L0.05 -0.8L0.2 -0.85L0.9 -0.6L1.1 -0.6L2.75 -0.85L3 -1.1L3.3 -1.35L3.35 -1.3L3.2 -0.95" />
<radialGradient
id="RadialGradID_3065" gradientUnits="userSpaceOnUse" gradientTransform="matrix(0.00396729, 0, 0, 0.00512695, 0.05, -0.95)" spreadMethod ="pad" cx="0" cy="0" r="819.2" fx="0" fy="0" >
<stop  offset="0"  style="stop-color:#F14176;stop-opacity:1" />
<stop  offset="0"  style="stop-color:#F14176;stop-opacity:0.572549" />
<stop  offset="1"  style="stop-color:#FCBABF;stop-opacity:0.380392" />
<stop  offset="1"  style="stop-color:#FA9EA8;stop-opacity:1" />
</radialGradient>
<path style="fill:url(#RadialGradID_3065) " d="M0.05,-1.4L0 -1.4L1.35 -1.65L2.2 -1.4Q2.55 -1.2 3 -1.1L2.75 -0.85L1.1 -0.6L0.9 -0.6L0.2 -0.85L0.05 -0.8L0.05 -1.4M0.6,-1.4L0.3 -1.3L0.25 -1.1L0.3 -1.05L1.1 -1.35L1.5 -1.35L0.6 -1.4" />
<radialGradient
id="RadialGradID_3066" gradientUnits="userSpaceOnUse" gradientTransform="matrix(0.000762939, -1.52588e-005, 1.52588e-005, 0.000991821, 0.85, -1.35)" spreadMethod ="pad" cx="0" cy="0" r="819.2" fx="0" fy="0" >
<stop  offset="0"  style="stop-color:#FFFFFF;stop-opacity:1" />
<stop  offset="0.992157"  style="stop-color:#FA82A2;stop-opacity:0" />
</radialGradient>
<path style="fill:url(#RadialGradID_3066) " d="M1.5,-1.35L1.1 -1.35L0.3 -1.05L0.25 -1.1L0.3 -1.3L0.6 -1.4L1.5 -1.35" />
<radialGradient
id="RadialGradID_3067" gradientUnits="userSpaceOnUse" gradientTransform="matrix(-0.00396729, 0, 0, 0.00512695, 0, -0.95)" spreadMethod ="pad" cx="0" cy="0" r="819.2" fx="0" fy="0" >
<stop  offset="0"  style="stop-color:#F14176;stop-opacity:1" />
<stop  offset="0"  style="stop-color:#F14176;stop-opacity:0.572549" />
<stop  offset="1"  style="stop-color:#FCBABF;stop-opacity:0.380392" />
<stop  offset="1"  style="stop-color:#FA9EA8;stop-opacity:1" />
</radialGradient>
<path style="fill:url(#RadialGradID_3067) " d="M-2.2,-1.4L-1.35 -1.65L0 -1.4L0.05 -1.4L0.05 -0.8L0 -0.8L-0.05 -0.8L-0.2 -0.85L-0.9 -0.6L-1.1 -0.6L-2.7 -0.85L-2.95 -1.1Q-2.5 -1.15 -2.2 -1.4" />
</g>
</svg>
