<?xml version="1.0" encoding="utf-8"?>
<svg version="1.1" id="Layer_1"
xmlns="http://www.w3.org/2000/svg"
xmlns:xlink="http://www.w3.org/1999/xlink"
xmlns:author="http://www.sothink.com"
width="8px" height="4px"
xml:space="preserve">
<g id="349" transform="matrix(1, 0, 0, 1, 3.95, 1.75)">
<radialGradient
id="RadialGradID_3230" gradientUnits="userSpaceOnUse" gradientTransform="matrix(-4.57764e-005, -0.00157166, -0.00326538, 7.62939e-005, 0.2, 0.7)" spreadMethod ="pad" cx="0" cy="0" r="819.2" fx="0" fy="0" >
<stop  offset="0.0470588"  style="stop-color:#DA6969;stop-opacity:0.513725" />
<stop  offset="1"  style="stop-color:#FFEFEA;stop-opacity:0" />
</radialGradient>
<path style="fill:url(#RadialGradID_3230) " d="M-1.2,0.05L0.2 -0.25L1.7 0.05Q2.25 0.3 2.25 0.7L1.7 1.45L0.25 1.75L-1.2 1.45Q-1.8 1.2 -1.8 0.8Q-1.8 0.4 -1.2 0.05" />
<radialGradient
id="RadialGradID_3231" gradientUnits="userSpaceOnUse" gradientTransform="matrix(0.00370789, 0.000259399, -0.000259399, 0.00370789, -16.3, -20)" spreadMethod ="pad" cx="0" cy="0" r="819.2" fx="0" fy="0" >
<stop  offset="0.760784"  style="stop-color:#A52727;stop-opacity:1" />
<stop  offset="1"  style="stop-color:#652323;stop-opacity:1" />
</radialGradient>
<path style="fill:url(#RadialGradID_3231) " d="M-2,-1L1.7 -0.45L2.4 -0.4L0 -0.5L-2 -1" />
<radialGradient
id="RadialGradID_3232" gradientUnits="userSpaceOnUse" gradientTransform="matrix(0.0030365, 0.000259399, -0.000259399, 0.0030365, 0, -0.65)" spreadMethod ="pad" cx="0" cy="0" r="819.2" fx="0" fy="0" >
<stop  offset="0"  style="stop-color:#F84B80;stop-opacity:0.85098" />
<stop  offset="1"  style="stop-color:#FDD0D0;stop-opacity:0.501961" />
</radialGradient>
<path style="fill:url(#RadialGradID_3232) " d="M-2,-1L0 -0.5L2.4 -0.4L2.65 -0.4L3.35 -0.5L2.55 0.3L1.25 0.8L-0.6 0.7L-1.45 0.4Q-2.5 -0.35 -2.75 -1.1L-2 -1" />
<radialGradient
id="RadialGradID_3233" gradientUnits="userSpaceOnUse" gradientTransform="matrix(0.00289917, 0.000259399, -0.000259399, 0.00289917, 0.35, -0.15)" spreadMethod ="pad" cx="0" cy="0" r="819.2" fx="0" fy="0" >
<stop  offset="0"  style="stop-color:#F84B80;stop-opacity:0.8" />
<stop  offset="1"  style="stop-color:#FDD0D0;stop-opacity:0.501961" />
</radialGradient>
<path style="fill:url(#RadialGradID_3233) " d="M2.05,-0.8L-0.05 -0.9L-2.95 -1.5L-0.9 -1.6Q-0.25 -1.55 0.25 -1.15L0.3 -1.1L0.95 -1.35L3.4 -0.95L2.05 -0.8" />
<radialGradient
id="RadialGradID_3234" gradientUnits="userSpaceOnUse" gradientTransform="matrix(0.00370789, 0.000259399, -0.000259399, 0.00370789, -16.3, -20)" spreadMethod ="pad" cx="0" cy="0" r="819.2" fx="0" fy="0" >
<stop  offset="0.760784"  style="stop-color:#F29191;stop-opacity:1" />
<stop  offset="1"  style="stop-color:#DF5E8E;stop-opacity:1" />
</radialGradient>
<path style="fill:url(#RadialGradID_3234) " d="M-2.75,-1.1L-2.85 -1.1L-3.95 -1.6L-3.95 -1.75L-3.65 -1.75L-2.95 -1.5L-0.05 -0.9L2.05 -0.8L3.4 -0.95L3.8 -1.2L3.95 -1L3.95 -0.95Q3.95 -0.6 3.35 -0.5L2.65 -0.4L2.4 -0.4L1.7 -0.45L-2 -1L-2.75 -1.1" />
<radialGradient
id="RadialGradID_3235" gradientUnits="userSpaceOnUse" gradientTransform="matrix(0.00137329, 9.15527e-005, -4.57764e-005, 0.000762939, -0.3, -0.05)" spreadMethod ="pad" cx="0" cy="0" r="819.2" fx="0" fy="0" >
<stop  offset="0"  style="stop-color:#FFFFFF;stop-opacity:1" />
<stop  offset="0.992157"  style="stop-color:#FA82A2;stop-opacity:0" />
</radialGradient>
<path style="fill:url(#RadialGradID_3235) " d="M-0.7,-0.25L-0.25 -0.1L0.3 0L0 0.2L-0.1 0.2L-0.25 0.05L-0.25 0.15L-0.6 0.1L-0.7 -0.15L-0.85 0L-0.8 -0.35L-0.7 -0.25" />
<radialGradient
id="RadialGradID_3236" gradientUnits="userSpaceOnUse" gradientTransform="matrix(0.000930786, 6.10352e-005, -6.10352e-005, 0.000930786, 1.05, 0.05)" spreadMethod ="pad" cx="0" cy="0" r="819.2" fx="0" fy="0" >
<stop  offset="0"  style="stop-color:#FFFFFF;stop-opacity:1" />
<stop  offset="0.992157"  style="stop-color:#FA82A2;stop-opacity:0" />
</radialGradient>
<path style="fill:url(#RadialGradID_3236) " d="M0.55,0.1L0.8 -0.1L1.15 -0.15L1.4 -0.1L1.25 -0.05L1.1 0.15L0.7 0.1L0.6 0.3L0.45 0L0.55 0.1" />
<radialGradient
id="RadialGradID_3237" gradientUnits="userSpaceOnUse" gradientTransform="matrix(0.000732422, 4.57764e-005, -4.57764e-005, 0.000732422, 1.15, -1.1)" spreadMethod ="pad" cx="0" cy="0" r="819.2" fx="0" fy="0" >
<stop  offset="0"  style="stop-color:#FFFFFF;stop-opacity:1" />
<stop  offset="0.992157"  style="stop-color:#FA82A2;stop-opacity:0" />
</radialGradient>
<path style="fill:url(#RadialGradID_3237) " d="M0.6,-0.95L0.55 -0.95L0.65 -1.15L0.9 -1.15L1.75 -1L1.4 -1.05L0.6 -0.95" />
<radialGradient
id="RadialGradID_3238" gradientUnits="userSpaceOnUse" gradientTransform="matrix(0.00137329, 9.15527e-005, -4.57764e-005, 0.000762939, -0.3, -0.05)" spreadMethod ="pad" cx="0" cy="0" r="819.2" fx="0" fy="0" >
<stop  offset="0"  style="stop-color:#FFFFFF;stop-opacity:1" />
<stop  offset="0.992157"  style="stop-color:#FA82A2;stop-opacity:0" />
</radialGradient>
<path style="fill:url(#RadialGradID_3238) " d="M-0.7,-0.25L-0.25 -0.1L0.3 0L0 0.2L-0.1 0.2L-0.25 0.05L-0.25 0.15L-0.6 0.1L-0.7 -0.15L-0.85 0L-0.8 -0.35L-0.7 -0.25" />
<radialGradient
id="RadialGradID_3239" gradientUnits="userSpaceOnUse" gradientTransform="matrix(0.000930786, 6.10352e-005, -6.10352e-005, 0.000930786, 1.05, 0.05)" spreadMethod ="pad" cx="0" cy="0" r="819.2" fx="0" fy="0" >
<stop  offset="0"  style="stop-color:#FFFFFF;stop-opacity:1" />
<stop  offset="0.992157"  style="stop-color:#FA82A2;stop-opacity:0" />
</radialGradient>
<path style="fill:url(#RadialGradID_3239) " d="M1.15,-0.15L1.4 -0.1L1.25 -0.05L1.1 0.15L0.7 0.1L0.6 0.3L0.45 0L0.55 0.1L0.8 -0.1L1.15 -0.15" />
<radialGradient
id="RadialGradID_3240" gradientUnits="userSpaceOnUse" gradientTransform="matrix(0.000732422, 4.57764e-005, -4.57764e-005, 0.000732422, 1.15, -1.1)" spreadMethod ="pad" cx="0" cy="0" r="819.2" fx="0" fy="0" >
<stop  offset="0"  style="stop-color:#FFFFFF;stop-opacity:1" />
<stop  offset="0.992157"  style="stop-color:#FA82A2;stop-opacity:0" />
</radialGradient>
<path style="fill:url(#RadialGradID_3240) " d="M0.6,-0.95L0.55 -0.95L0.65 -1.15L0.9 -1.15L1.75 -1L1.4 -1.05L0.6 -0.95" />
</g>
</svg>
