<?xml version="1.0" encoding="utf-8"?>
<svg version="1.1" id="Layer_1"
xmlns="http://www.w3.org/2000/svg"
xmlns:xlink="http://www.w3.org/1999/xlink"
xmlns:author="http://www.sothink.com"
width="8px" height="4px"
xml:space="preserve">
<g id="345" transform="matrix(1, 0, 0, 1, 3.5, 1.95)">
<radialGradient
id="RadialGradID_3208" gradientUnits="userSpaceOnUse" gradientTransform="matrix(0.000823975, -4.57764e-005, 6.10352e-005, 0.000595093, 2.9, -0.5)" spreadMethod ="pad" cx="0" cy="0" r="819.2" fx="0" fy="0" >
<stop  offset="0.0470588"  style="stop-color:#C52929;stop-opacity:0.360784" />
<stop  offset="1"  style="stop-color:#FFEFEA;stop-opacity:0" />
</radialGradient>
<path style="fill:url(#RadialGradID_3208) " d="M2.4,-0.8L2.25 -0.45L2.45 -0.15L2.95 0L3.35 -0.2L3.55 -0.6L3.25 -0.9L2.85 -0.95L2.4 -0.8" />
<radialGradient
id="RadialGradID_3209" gradientUnits="userSpaceOnUse" gradientTransform="matrix(0.000823975, -4.57764e-005, 6.10352e-005, 0.000595093, -2.85, -0.5)" spreadMethod ="pad" cx="0" cy="0" r="819.2" fx="0" fy="0" >
<stop  offset="0.0470588"  style="stop-color:#C52929;stop-opacity:0.360784" />
<stop  offset="1"  style="stop-color:#FFEFEA;stop-opacity:0" />
</radialGradient>
<path style="fill:url(#RadialGradID_3209) " d="M-3.3,-0.8L-3.5 -0.45L-3.25 -0.15L-2.75 0Q-2.5 -0.1 -2.3 -0.25L-2.2 -0.6L-2.4 -0.9L-2.85 -0.95L-3.3 -0.8" />
<radialGradient
id="RadialGradID_3210" gradientUnits="userSpaceOnUse" gradientTransform="matrix(1.52588e-005, 0.00160217, -0.00334167, 3.05176e-005, 0, 1.05)" spreadMethod ="pad" cx="0" cy="0" r="819.2" fx="0" fy="0" >
<stop  offset="0.156863"  style="stop-color:#DA6969;stop-opacity:0.592157" />
<stop  offset="1"  style="stop-color:#FFEFEA;stop-opacity:0" />
</radialGradient>
<path style="fill:url(#RadialGradID_3210) " d="M1.5,1.7Q2.05 1.45 2.05 1Q2.05 0.6 1.45 0.3L-0.05 0L-1.5 0.3Q-2.1 0.6 -2.1 1Q-2.1 1.45 -1.45 1.75L0.05 2L1.5 1.7" />
<radialGradient
id="RadialGradID_3211" gradientUnits="userSpaceOnUse" gradientTransform="matrix(0.0037384, 0.000106812, -9.15527e-005, -0.00265503, -0.05, -0.65)" spreadMethod ="pad" cx="0" cy="0" r="819.2" fx="0" fy="0" >
<stop  offset="0.282353"  style="stop-color:#FEABC5;stop-opacity:1" />
<stop  offset="1"  style="stop-color:#FEB8C5;stop-opacity:0" />
</radialGradient>
<path style="fill:url(#RadialGradID_3211) " d="M-2.35,-0.55L-2.3 -0.5L-0.55 -1.1Q0.8 -1.3 2.5 -0.35L2.55 -0.35L2.7 -0.35L2.35 -0.8L1.75 -1.4L0.95 -1.85L-0.15 -1.95L-1.45 -1.7L-2.1 -1.1L-2.45 -0.4L-2.35 -0.45L-2.35 -0.5L-2.35 -0.55M-1.1,-1.4L-1.1 -1.45L-1.05 -1.4L-1.1 -1.4M-0.55,-1.5L-0.6 -1.45L-0.65 -1.45L-0.55 -1.5" />
<radialGradient
id="RadialGradID_3212" gradientUnits="userSpaceOnUse" gradientTransform="matrix(0.00334167, 0.000198364, 0.00038147, -0.00474548, 0.05, -0.65)" spreadMethod ="pad" cx="0" cy="0" r="819.2" fx="0" fy="0" >
<stop  offset="0.282353"  style="stop-color:#FEB4CB;stop-opacity:1" />
<stop  offset="1"  style="stop-color:#FEB8C5;stop-opacity:0" />
</radialGradient>
<path style="fill:url(#RadialGradID_3212) " d="M-2.45,-0.4L-2.4 -0.2Q-2.05 0.6 -1.5 0.95L0 1.3Q1.05 1.35 1.7 0.85L2.5 0.05L2.55 0.05L2.7 -0.35L2.55 -0.35L2.5 -0.35L2.2 -0.25L2.05 -0.3L-1.35 -0.15L-2.3 -0.45L-2.35 -0.45L-2.45 -0.4" />
<path style="fill:#FFAEC2;fill-opacity:1" d="M-2.35,-0.5L-2.3 -0.5L-2.35 -0.55L-2.35 -0.5" />
<radialGradient
id="RadialGradID_3213" gradientUnits="userSpaceOnUse" gradientTransform="matrix(0.00495911, 1.52588e-005, -0.000106812, -0.00311279, 0.1, -0.75)" spreadMethod ="pad" cx="0" cy="0" r="819.2" fx="100768" fy="0" >
<stop  offset="0"  style="stop-color:#FEBAD0;stop-opacity:1" />
<stop  offset="1"  style="stop-color:#FEE0E0;stop-opacity:0.501961" />
</radialGradient>
<path style="fill:url(#RadialGradID_3213) " d="M-0.65,-1.45L-0.6 -1.45L-0.55 -1.5L-0.65 -1.45" />
<path style="fill:#FFFFFF;fill-opacity:1" d="M-1.05,-1.4L-1.1 -1.45L-1.1 -1.4L-1.05 -1.4" />
<path style="fill:#FFFFFF;fill-opacity:0.501961" d="M-0.6,-1.85L-1.3 -1.5L-0.6 -1.75L1.3 -1.6Q0.4 -2.1 -0.6 -1.85" />
<radialGradient
id="RadialGradID_3214" gradientUnits="userSpaceOnUse" gradientTransform="matrix(0.00445557, -4.57764e-005, -0.00012207, -0.00402832, 0.05, -0.45)" spreadMethod ="pad" cx="0" cy="0" r="819.2" fx="0" fy="0" >
<stop  offset="0.282353"  style="stop-color:#CA6257;stop-opacity:1" />
<stop  offset="1"  style="stop-color:#CA6257;stop-opacity:0" />
</radialGradient>
<path style="fill:url(#RadialGradID_3214) " d="M3.3,-0.55L3.1 -0.65L2.55 -0.45L2.15 -0.55L2.1 -0.55L1.75 -0.75L-0.55 -1.1L-1.8 -0.8L-2 -0.65L-2.45 -0.5L-3.1 -0.6L-3.3 -0.4L-2.95 -0.25L-2.3 -0.3L-1 0L0.8 0.1L2 -0.2L2.6 -0.3L2.55 -0.35L2.6 -0.3L3.05 -0.25L3.3 -0.55M-1.5,-0.7L-1.4 -0.7L-0.6 -0.8L1.15 -0.75L1.45 -0.65L1.9 -0.4L1.05 -0.2L-0.55 -0.15L-1.45 -0.4L-1.8 -0.5L-1.5 -0.7" />
<path style="fill:#FFFFFF;fill-opacity:1" d="M1.15,-0.75L-0.6 -0.8L-1.4 -0.7L-1.5 -0.7L-1.45 -0.65L-1.1 -0.6L0.7 -0.5L1.15 -0.55L1.1 -0.55L1.45 -0.65L1.15 -0.75" />
<path style="fill:#763C34;fill-opacity:1" d="M-1.8,-0.5L-1.45 -0.4L-0.55 -0.15L1.05 -0.2L1.9 -0.4L1.45 -0.65L1.1 -0.55L1.15 -0.55L0.7 -0.5L-1.1 -0.6L-1.45 -0.65L-1.5 -0.7L-1.8 -0.5" />
<radialGradient
id="RadialGradID_3215" gradientUnits="userSpaceOnUse" gradientTransform="matrix(0.00175476, 0.000396729, 0.000213623, -0.00105286, -0.1, 0.75)" spreadMethod ="pad" cx="0" cy="0" r="819.2" fx="0" fy="0" >
<stop  offset="0"  style="stop-color:#FFFFFF;stop-opacity:1" />
<stop  offset="0.992157"  style="stop-color:#FA82A2;stop-opacity:0" />
</radialGradient>
<path style="fill:url(#RadialGradID_3215) " d="M0.65,0.95L0.35 0.55L0.15 0.55L0 0.75L0.05 0.55L-0.45 0.5L-0.65 0.8L-0.8 0.55L-0.75 1L-0.7 0.95L-0.25 0.95L-0.05 0.9L0.65 0.95" />
<radialGradient
id="RadialGradID_3216" gradientUnits="userSpaceOnUse" gradientTransform="matrix(0.000930786, -0.000762939, -0.000823975, -0.00102234, 1.35, 0.55)" spreadMethod ="pad" cx="0" cy="0" r="819.2" fx="0" fy="0" >
<stop  offset="0"  style="stop-color:#FFFFFF;stop-opacity:1" />
<stop  offset="0.992157"  style="stop-color:#FA82A2;stop-opacity:0" />
</radialGradient>
<path style="fill:url(#RadialGradID_3216) " d="M1.65,0.5L1.3 0.45L0.95 0.75L0.65 0.55L0.75 1L0.8 0.9L1.2 0.85Q1.4 0.7 1.6 0.7L1.8 0.4L1.65 0.5" />
</g>
</svg>
