<?xml version="1.0" encoding="utf-8"?>
<svg version="1.1" id="Layer_1"
xmlns="http://www.w3.org/2000/svg"
xmlns:xlink="http://www.w3.org/1999/xlink"
xmlns:author="http://www.sothink.com"
width="11px" height="6px"
xml:space="preserve">
<g id="324" transform="matrix(1, 0, 0, 1, 5.5, 2.85)">
<radialGradient
id="RadialGradID_3078" gradientUnits="userSpaceOnUse" gradientTransform="matrix(1.52588e-005, -0.00140381, 0.00561523, 7.62939e-005, -0.1, -2.2)" spreadMethod ="pad" cx="0" cy="0" r="819.2" fx="210251" fy="0" >
<stop  offset="0.0470588"  style="stop-color:#FF8E8E;stop-opacity:1" />
<stop  offset="1"  style="stop-color:#FFBFBF;stop-opacity:0.501961" />
</radialGradient>
<path style="fill:url(#RadialGradID_3078) " d="M4.5,-2.6L3.6 -2.55L2 -2.2Q-0.4 -1.6 -2.4 -2.2L-3.85 -2.45L-4.7 -2.4L-3.65 -2.7L-2.6 -2.6L3.85 -2.85L4.5 -2.6" />
<radialGradient
id="RadialGradID_3079" gradientUnits="userSpaceOnUse" gradientTransform="matrix(-0.000137329, -0.00230408, 0.00572205, -0.000350952, -0.05, 1.65)" spreadMethod ="pad" cx="0" cy="0" r="819.2" fx="6" fy="0" >
<stop  offset="0.0470588"  style="stop-color:#FF8E8E;stop-opacity:1" />
<stop  offset="1"  style="stop-color:#FFBFBF;stop-opacity:0.501961" />
</radialGradient>
<path style="fill:url(#RadialGradID_3079) " d="M4.15,0.55L4.25 0.75Q3 2.45 1.15 2.8Q-1.3 3.2 -2.8 2.1Q-4.3 0.9 -4.35 0.4Q-3.3 1.55 -1.45 2.15Q0.75 2.8 2.7 1.6L4.15 0.55" />
<path style="fill:#FF9F9E;fill-opacity:1" d="M5.4,-1.15L3.95 0.85L2.8 1.7Q0.8 2.95 -1.45 2.3L-1.5 2.3Q-2.9 1.8 -3.5 1.2L-4.1 0.65L-5.15 -0.6Q-5.85 -1.55 -5.15 -2.2L-4.75 -2.5L-3.55 -2.5L-1.4 -2.05L1.65 -2.15L4.3 -2.75L4.85 -2.7L5.35 -2.25Q5.6 -1.9 5.4 -1.15M5.15,-1.9L5 -2.15L4.65 -2.4L4.3 -2.45L3.6 -2.4L2.05 -2.05Q-0.4 -1.45 -2.4 -2.05L-3.85 -2.3L-4.65 -2.25L-4.95 -2.05Q-5.55 -1.5 -4.55 -0.1L-4.5 -0.05L-4.25 0.3L-4.2 0.35Q-3.2 1.45 -1.4 2.05Q0.7 2.65 2.65 1.5L3.6 0.85L4.05 0.45L4.95 -0.7L4.95 -0.75Q5.35 -1.45 5.15 -1.9" />
<path style="fill:#E5E5E5;fill-opacity:1" d="M4.65,-1.85L4.25 -2.2L-0.2 -1.55L-4.1 -2Q-4.75 -2 -4.75 -1.65L-4.75 -1.55L-4.55 -1.3Q-4.05 -0.6 -2.95 -0.35L0.95 -0.25L-1.5 0.2L-3.3 0L-4.45 -0.45L-1.3 1.7L0.5 1.9Q1.45 1.85 3.8 0L4.45 -0.6L4.2 -0.75L3.85 -0.75L3.1 -0.45L4.75 -1.6L4.65 -1.85M4.95,-0.75L4.95 -0.7L4.05 0.45L3.6 0.85L2.65 1.5Q0.7 2.65 -1.4 2.05Q-3.2 1.45 -4.2 0.35L-4.25 0.3L-4.5 -0.05L-4.55 -0.1Q-5.55 -1.5 -4.95 -2.05L-4.65 -2.25L-3.85 -2.3L-2.4 -2.05Q-0.4 -1.45 2.05 -2.05L3.6 -2.4L4.3 -2.45L4.65 -2.4L5 -2.15L5.15 -1.9Q5.35 -1.45 4.95 -0.75" />
<path style="fill:#FFFFFF;fill-opacity:1" d="M4.75,-1.6L3.1 -0.45L3.85 -0.75L4.2 -0.75L4.45 -0.6L3.8 0Q1.45 1.85 0.5 1.9L-1.3 1.7L-4.45 -0.45L-3.3 0L-1.5 0.2L0.95 -0.25L-2.95 -0.35Q-4.05 -0.6 -4.55 -1.3L-4.75 -1.55L-4.75 -1.65Q-4.75 -2 -4.1 -2L-0.2 -1.55L4.25 -2.2L4.65 -1.85L4.75 -1.6" />
</g>
</svg>
