<?xml version="1.0" encoding="utf-8"?>
<svg version="1.1" id="Layer_1"
xmlns="http://www.w3.org/2000/svg"
xmlns:xlink="http://www.w3.org/1999/xlink"
xmlns:author="http://www.sothink.com"
width="4px" height="5px"
xml:space="preserve">
<g id="339" transform="matrix(1, 0, 0, 1, 1.75, 2.55)">
<radialGradient
id="RadialGradID_3162" gradientUnits="userSpaceOnUse" gradientTransform="matrix(0.00192261, 0, 0, 0.00227356, 0.2, -2.3)" spreadMethod ="pad" cx="0" cy="0" r="819.2" fx="0" fy="0" >
<stop  offset="0"  style="stop-color:#F84B80;stop-opacity:1" />
<stop  offset="1"  style="stop-color:#FDD0D0;stop-opacity:0.501961" />
</radialGradient>
<path style="fill:url(#RadialGradID_3162) " d="M1.2,-1.3L0.6 -1.7L0.5 -1.75L0.5 -1.8L-0.1 -2.3L-1.15 -1.25L-1.35 -1.25L-0.7 -2L-0.25 -2.5L-0.05 -2.35L0.2 -2.55L0.65 -1.85L0.75 -1.75L0.95 -1.5L1.4 -1.25L1.2 -1.3" />
<radialGradient
id="RadialGradID_3163" gradientUnits="userSpaceOnUse" gradientTransform="matrix(0.00340271, -6.10352e-005, 6.10352e-005, 0.00340271, -30.85, -34.15)" spreadMethod ="pad" cx="0" cy="0" r="819.2" fx="0" fy="0" >
<stop  offset="0.760784"  style="stop-color:#EB5858;stop-opacity:1" />
<stop  offset="1"  style="stop-color:#D24F4F;stop-opacity:1" />
</radialGradient>
<path style="fill:url(#RadialGradID_3163) " d="M-1.4,-0.95L-1.55 -0.9L-1.75 -0.95L-1.75 -1.15L-1.7 -1.25L-1.35 -1.25L-1.15 -1.25L-0.1 -2.3L0.5 -1.8L0.5 -1.75L0.6 -1.7L1.2 -1.3L1.4 -1.25L1.65 -1.2L1.65 -1.15L1.4 -0.95L1.3 -0.95L1.25 -1L1.15 -1L1 -1.05L1 -1.1L0.45 -1.55L0.4 -1.6L0 -2.15L-0.65 -1.5L-1.1 -1.15L-1.4 -0.95" />
<path style="fill:#FFFFFF;fill-opacity:1" d="M0.5,-0.35L0.4 -0.05L0 0.85L-0.4 -0.1L-0.4 -0.15L-0.5 -0.3L-0.75 -0.8L-1.1 -1.15L-0.65 -1.5L0 -2.15L0.4 -1.6L0.45 -1.55L1 -1.1L0.5 -0.35" />
<radialGradient
id="RadialGradID_3164" gradientUnits="userSpaceOnUse" gradientTransform="matrix(0.00340271, -6.10352e-005, 6.10352e-005, 0.00340271, -30.85, -34.15)" spreadMethod ="pad" cx="0" cy="0" r="819.2" fx="0" fy="0" >
<stop  offset="0.760784"  style="stop-color:#A52727;stop-opacity:1" />
<stop  offset="1"  style="stop-color:#652323;stop-opacity:1" />
</radialGradient>
<path style="fill:url(#RadialGradID_3164) " d="M0.6,-0.05L0.2 0.85L0.1 1.2L0.1 1.15Q0.05 1.45 -0.05 1.1L-0.35 0.35L-0.6 -0.05L-0.6 -0.1L-0.95 -0.65L-1.4 -0.95L-1.1 -1.15L-0.75 -0.8L-0.5 -0.3L-0.4 -0.15L-0.4 -0.1L0 0.85L0.4 -0.05L0.5 -0.35L1 -1.1L1 -1.05L1.15 -1L0.6 -0.05" />
<radialGradient
id="RadialGradID_3165" gradientUnits="userSpaceOnUse" gradientTransform="matrix(0.00271606, 0, 0, 0.00271606, -0.35, 1)" spreadMethod ="pad" cx="0" cy="0" r="819.2" fx="0" fy="0" >
<stop  offset="0"  style="stop-color:#F84B80;stop-opacity:1" />
<stop  offset="1"  style="stop-color:#FDD0D0;stop-opacity:0.501961" />
</radialGradient>
<path style="fill:url(#RadialGradID_3165) " d="M0.05,1.55L-0.1 1.5Q-0.45 1.4 -0.55 0.8L-0.85 0L-1.1 -0.5L-1.4 -0.95L-0.95 -0.65L-0.6 -0.1L-0.6 -0.05L-0.35 0.35L-0.05 1.1Q0.05 1.45 0.1 1.15L0.1 1.2L0.1 1.25L0.1 1.3L0.05 1.55" />
<radialGradient
id="RadialGradID_3166" gradientUnits="userSpaceOnUse" gradientTransform="matrix(0.00268555, 0, 0, 0.00268555, 0.35, 0.9)" spreadMethod ="pad" cx="0" cy="0" r="819.2" fx="0" fy="0" >
<stop  offset="0"  style="stop-color:#F84B80;stop-opacity:1" />
<stop  offset="1"  style="stop-color:#FDD0D0;stop-opacity:0.501961" />
</radialGradient>
<path style="fill:url(#RadialGradID_3166) " d="M0.1,1.3L0.1 1.25L0.1 1.2L0.2 0.85L0.6 -0.05L1.15 -1L1.25 -1L0.75 0.45Q0.45 1.55 0.2 1.55L0.1 1.6L0.05 1.65L0.05 1.55L0.1 1.3" />
<path style="fill:none;stroke-width:0.05;stroke-linecap:round;stroke-linejoin:round;stroke-miterlimit:3;stroke:#006600;stroke-opacity:1" d="M0.1,1.3L0.1 1.25" />
<radialGradient
id="RadialGradID_3167" gradientUnits="userSpaceOnUse" gradientTransform="matrix(0.000396729, 0, 0, 0.000396729, 0.15, -2.3)" spreadMethod ="pad" cx="0" cy="0" r="819.2" fx="0" fy="0" >
<stop  offset="0.0470588"  style="stop-color:#FFFFFF;stop-opacity:1" />
<stop  offset="1"  style="stop-color:#FFFFFF;stop-opacity:0" />
</radialGradient>
<path style="fill:url(#RadialGradID_3167) " d="M0.15,-2.4L0.2 -2.3L0.35 -2.1L0.35 -2.05L-0.05 -2.35L0.05 -2.4L0.15 -2.4" />
<radialGradient
id="RadialGradID_3168" gradientUnits="userSpaceOnUse" gradientTransform="matrix(0.000656128, 0, 0, 0.000656128, 0.35, 0.95)" spreadMethod ="pad" cx="0" cy="0" r="819.2" fx="0" fy="0" >
<stop  offset="0.0470588"  style="stop-color:#FFFFFF;stop-opacity:1" />
<stop  offset="1"  style="stop-color:#FFFFFF;stop-opacity:0" />
</radialGradient>
<path style="fill:url(#RadialGradID_3168) " d="M0.2,1.2L0.3 0.9L0.4 0.8L0.55 0.45L0.45 0.85L0.2 1.2" />
</g>
</svg>
