<?xml version="1.0" encoding="utf-8"?>
<svg version="1.1" id="Layer_1"
xmlns="http://www.w3.org/2000/svg"
xmlns:xlink="http://www.w3.org/1999/xlink"
xmlns:author="http://www.sothink.com"
width="10px" height="5px"
xml:space="preserve">
<g id="354" transform="matrix(1, 0, 0, 1, -65.25, -45.1)">
<radialGradient
id="RadialGradID_3276" gradientUnits="userSpaceOnUse" gradientTransform="matrix(-6.10352e-005, -0.00190735, -0.00428772, 9.15527e-005, 70.3, 48.8)" spreadMethod ="pad" cx="0" cy="0" r="819.2" fx="0" fy="0" >
<stop  offset="0.0470588"  style="stop-color:#DA6969;stop-opacity:0.513725" />
<stop  offset="1"  style="stop-color:#FFEFEA;stop-opacity:0" />
</radialGradient>
<path style="fill:url(#RadialGradID_3276) " d="M68.45,49.75Q67.6 49.4 67.6 48.9Q67.6 48.4 68.4 48.05Q69.15 47.65 70.25 47.65L72.2 47.95Q72.95 48.25 73 48.75Q73 49.25 72.25 49.65L70.35 50.05L68.45 49.75" />
<path style="fill:#E9B386;fill-opacity:1" d="M70.5,45.5L70.5 45.7L70.3 45.85L69.9 45.75L70.1 45.7L70.5 45.5" />
<radialGradient
id="RadialGradID_3277" gradientUnits="userSpaceOnUse" gradientTransform="matrix(0.00123596, -1.52588e-005, 1.52588e-005, 0.00112915, 66.2, 46)" spreadMethod ="pad" cx="0" cy="0" r="819.2" fx="0" fy="0" >
<stop  offset="0.0470588"  style="stop-color:#C52929;stop-opacity:0.580392" />
<stop  offset="1"  style="stop-color:#FFEFEA;stop-opacity:0" />
</radialGradient>
<path style="fill:url(#RadialGradID_3277) " d="M66.9,45.35L67.1 45.95L66.9 46.6L66.2 46.85L65.55 46.6Q65.2 46.35 65.25 45.95Q65.2 45.6 65.55 45.35Q65.8 45.1 66.2 45.1Q66.6 45.05 66.9 45.35" />
<radialGradient
id="RadialGradID_3278" gradientUnits="userSpaceOnUse" gradientTransform="matrix(0.00123596, -1.52588e-005, 1.52588e-005, 0.00112915, 74.15, 46.1)" spreadMethod ="pad" cx="0" cy="0" r="819.2" fx="0" fy="0" >
<stop  offset="0.0470588"  style="stop-color:#C52929;stop-opacity:0.580392" />
<stop  offset="1"  style="stop-color:#FFEFEA;stop-opacity:0" />
</radialGradient>
<path style="fill:url(#RadialGradID_3278) " d="M74.15,45.2Q74.5 45.2 74.8 45.45Q75.1 45.7 75.1 46.1L74.8 46.7L74.2 47L73.5 46.75L73.15 46.1Q73.15 45.7 73.4 45.45Q73.7 45.2 74.15 45.2" />
<path style="fill:#FFFFFF;fill-opacity:1" d="M73.25,47.3L73.2 47.5L73.15 47.55L72.9 47.7L72.6 47.7L72.3 47.7L71.8 47.7L71.35 47.7L70.95 47.7L70.5 47.7L70.15 47.7L69.8 47.7L69.45 47.7L69.15 47.7L68.65 47.7L68.1 47.7L67.7 47.65L67.6 47.6L67.3 47.5L67.25 47.25L67.35 46.95L67.4 46.95L67.9 47L68 47.35L68 47.05L68.55 47.1L69.3 47.15L69.35 47.25L69.45 47.35L69.35 47.2L70.65 47.2L70.55 47.35L70.7 47.2L72.6 47.05L72.55 47.3L72.65 47.05L73.1 47L73.25 47.3" />
<path style="fill:#959595;fill-opacity:1" d="M67.95,46.95L68 46.65L68 47L68.6 47.05L69.3 47.1L69.45 46.85L69.35 47.1L70.65 47.1L70.65 46.85L70.7 47.1L72.6 46.95L72.6 46.6L72.65 46.85L72.65 46.95L72.95 46.95L73.1 47L72.65 47.05L72.55 47.3L72.6 47.05L70.7 47.2L70.55 47.35L70.65 47.2L69.35 47.2L69.45 47.35L69.35 47.25L69.3 47.15L68.55 47.1L68 47.05L68 47.35L67.9 47L67.4 46.95L67.5 46.85L67.65 46.9L67.75 46.9L67.95 46.95" />
<path style="fill:#6C2424;fill-opacity:1" d="M67.3,47.5L67.25 47.45L67.2 47.3L67.15 47.25L67.15 47.15L67.15 46.95L67.15 46.85L67.1 46.8L67.05 46.7L67.05 46.45L67.05 46.35L67.15 46.35L67.75 46.9L67.65 46.9L67.5 46.85L67.4 46.95L67.35 46.95L67.25 47.25L67.3 47.5M73.35,46.35L73.55 46.4L73.5 46.7L73.5 46.75L73.45 46.8L73.35 46.85L73.35 46.95L73.35 47.25L73.2 47.5L73.25 47.3L73.1 47L72.95 46.95L72.95 46.9L73.35 46.4L73.35 46.35" />
<path style="fill:#F5E7DE;fill-opacity:1" d="M73.35,46.4L72.95 46.9L72.95 46.95L72.65 46.95L72.65 46.85L72.6 46.6L72.6 46.95L70.7 47.1L70.65 46.85L70.65 47.1L69.35 47.1L69.45 46.85L69.3 47.1L68.6 47.05L68 47L68 46.65L67.95 46.95L67.75 46.9L67.15 46.35L67.2 46.35L67.8 46.3L68.45 46.35L69.15 46.5L69.3 46.55L70.1 46.7L70.3 46.7L70.55 46.7L71.05 46.6L71.8 46.5L72.55 46.4L72.95 46.35L73.2 46.35L73.35 46.35L73.35 46.4" />
<radialGradient
id="RadialGradID_3279" gradientUnits="userSpaceOnUse" gradientTransform="matrix(0.00595093, 0, 0, 0.00506592, 70.65, 46.6)" spreadMethod ="pad" cx="0" cy="0" r="819.2" fx="0" fy="0" >
<stop  offset="0.760784"  style="stop-color:#EB5858;stop-opacity:1" />
<stop  offset="1"  style="stop-color:#D24F4F;stop-opacity:1" />
</radialGradient>
<path style="fill:url(#RadialGradID_3279) " d="M67.7,46.2L68.3 46.25L69.15 46.4L69.8 46.5L70.15 46.55L70.55 46.6L71.2 46.5L72 46.35L72.9 46.25L73.55 46.15L73.85 46.1L74.25 45.95L74.05 45.95L74.5 45.9L74.7 46.1L74.65 46.2L74.6 46.25L74.6 46.2L74.55 46.25L74.55 46.2L73.5 46.35L73.55 46.4L73.35 46.35L73.2 46.35L72.95 46.35L72.55 46.4L71.8 46.5L71.05 46.6L70.55 46.7L70.3 46.7L70.1 46.7L69.3 46.55L69.15 46.5L68.45 46.35L67.8 46.3L67.2 46.35L67.15 46.35L67.05 46.35L67.1 46.3L65.85 46.15L65.85 46.2L65.8 46.15L65.8 46.1Q65.8 45.9 66.15 45.95L66.25 45.95L66.4 46L66.75 46.15L66.85 46.15L67 46.15L67.15 46.2L67.6 46.2L67.7 46.2M66.3,46.4L66.25 46.4L66.15 46.35L66.3 46.4" />
<radialGradient
id="RadialGradID_3280" gradientUnits="userSpaceOnUse" gradientTransform="matrix(0.0058136, 0, 0, 0.00494385, 70.65, 46.4)" spreadMethod ="pad" cx="0" cy="0" r="819.2" fx="0" fy="0" >
<stop  offset="0"  style="stop-color:#F8628E;stop-opacity:0.913725" />
<stop  offset="1"  style="stop-color:#FDD0D0;stop-opacity:0.501961" />
</radialGradient>
<path style="fill:url(#RadialGradID_3280) " d="M74.25,45.95L73.85 46.1L73.55 46.15L72.9 46.25L72 46.35L71.2 46.5L70.55 46.6L70.15 46.55L69.8 46.5L69.15 46.4L68.3 46.25L67.7 46.2L67.35 46.15L67.15 46.2L67 46.15L66.85 46.15L66.75 46.15L66.4 45.95L66.65 45.95L67.95 45.95L69.3 45.9L69.85 45.95L70.25 46.05L70.7 45.95L71.3 45.85L72.55 45.9L73.65 45.95L74.05 45.95L74.25 45.95" />
<radialGradient
id="RadialGradID_3281" gradientUnits="userSpaceOnUse" gradientTransform="matrix(0.00636292, 0, 0, 0.00447083, 70.65, 47.7)" spreadMethod ="pad" cx="0" cy="0" r="819.2" fx="0" fy="0" >
<stop  offset="0.486275"  style="stop-color:#D03737;stop-opacity:1" />
<stop  offset="1"  style="stop-color:#722727;stop-opacity:1" />
</radialGradient>
<path style="fill:url(#RadialGradID_3281) " d="M73.35,47.25L73.35 46.95L73.35 46.85L73.45 46.8L73.5 46.75L73.5 46.7L73.55 46.4L73.5 46.35L74.55 46.2L74.55 46.25L74.45 46.3L74.25 46.4L74 46.55L73.95 46.65L73.8 46.8L73.75 46.95L73.65 47L73.5 47.25L73.3 47.7L72.85 47.95L72.1 47.95L70.65 47.8L69.9 47.8L69.05 47.9L67.95 47.95L67.35 47.85L67.1 47.6L67 47.3L66.85 47.1L66.75 46.9L66.55 46.75L66.3 46.5L66.3 46.4L66.15 46.35L66.05 46.25L65.85 46.15L67.1 46.3L67.05 46.35L67.05 46.45L67.05 46.7L67.1 46.8L67.15 46.85L67.15 46.95L67.15 47.15L67.15 47.25L67.2 47.3L67.25 47.45L67.3 47.5L67.6 47.6L67.7 47.65L68.1 47.7L68.65 47.7L69.15 47.7L69.45 47.7L69.8 47.7L70.15 47.7L70.5 47.7L70.95 47.7L71.35 47.7L71.8 47.7L72.3 47.7L72.6 47.7L72.9 47.7L73.15 47.55L73.2 47.5L73.35 47.25" />
<radialGradient
id="RadialGradID_3282" gradientUnits="userSpaceOnUse" gradientTransform="matrix(0.00585938, 0, 0, 0.00498962, 70.2, 47.85)" spreadMethod ="pad" cx="0" cy="0" r="819.2" fx="0" fy="0" >
<stop  offset="0"  style="stop-color:#F8628E;stop-opacity:0.913725" />
<stop  offset="1"  style="stop-color:#FDD0D0;stop-opacity:0.501961" />
</radialGradient>
<path style="fill:url(#RadialGradID_3282) " d="M66.05,46.25L66.15 46.35L66.25 46.4L66.3 46.4L66.3 46.5L66.55 46.75L66.75 46.9L66.85 47.1L67 47.3L67.1 47.6L67.35 47.85L67.95 47.95L69.05 47.9L69.9 47.8L70.65 47.8L72.1 47.95L72.85 47.95L73.3 47.7L73.5 47.25L73.65 47L73.75 46.95L73.8 46.8L73.95 46.65L74 46.55L74.25 46.4L74.45 46.3L74.55 46.25L74.6 46.2L74.6 46.25L74.55 46.3L74.45 46.5L74.1 47L73.8 47.75L73.55 48.3Q73.45 48.5 73.15 48.55L72.75 48.6L72.1 48.55L72.05 48.55L71.1 48.5L70.35 48.45L69.9 48.45L69.35 48.45L68.6 48.5L67.8 48.55L67.2 48.5L66.85 48.3L66.6 47.75L66.15 46.8L65.9 46.4L65.85 46.2L65.85 46.15L66.05 46.25" />
<path style="fill:#E9B386;fill-opacity:1" d="M70.35,46.85L70.25 46.85L70.3 46.8L70.35 46.8L70.35 46.85" />
<path style="fill:#E7DCC2;fill-opacity:1" d="M71.75,46.75L70.5 46.85L69.7 46.8L69.4 46.8L68.85 46.75L68.15 46.7L67.55 46.65L67.35 46.6L68.95 46.75L70.45 46.8L71.85 46.7L73.3 46.5L73.35 46.5L71.75 46.75" />
<path style="fill:#D9C79D;fill-opacity:1" d="M68.85,46.75L69.4 46.8L69.7 46.8L70.5 46.85L71.75 46.75L73.35 46.5L73.4 46.55L71.85 46.75L70.45 46.85L69.2 46.8L68.85 46.75" />
<path style="fill:#C6AA6C;fill-opacity:1" d="M69.2,46.8L68.9 46.8L68.25 46.75L67.35 46.6L67.55 46.65L68.15 46.7L68.85 46.75L69.2 46.8" />
</g>
</svg>
