<?xml version="1.0" encoding="utf-8"?>
<svg version="1.1" id="Layer_1"
xmlns="http://www.w3.org/2000/svg"
xmlns:xlink="http://www.w3.org/1999/xlink"
xmlns:author="http://www.sothink.com"
width="9px" height="5px"
xml:space="preserve">
<g id="331" transform="matrix(1, 0, 0, 1, 4.1, 2.9)">
<radialGradient
id="RadialGradID_3114" gradientUnits="userSpaceOnUse" gradientTransform="matrix(-4.57764e-005, -0.00228882, -0.00331116, 0.000106812, -0.15, 0.6)" spreadMethod ="pad" cx="0" cy="0" r="819.2" fx="0" fy="0" >
<stop  offset="0.0470588"  style="stop-color:#DA6969;stop-opacity:0.513725" />
<stop  offset="1"  style="stop-color:#FFEFEA;stop-opacity:0" />
</radialGradient>
<path style="fill:url(#RadialGradID_3114) " d="M1.95,0.55Q1.95 1.15 1.35 1.6Q0.75 2.05 -0.1 2.1L-1.55 1.75Q-2.2 1.3 -2.2 0.7Q-2.2 0.1 -1.6 -0.3Q-1 -0.75 -0.15 -0.8Q0.7 -0.8 1.35 -0.4Q1.9 -0.05 1.95 0.55" />
<radialGradient
id="RadialGradID_3115" gradientUnits="userSpaceOnUse" gradientTransform="matrix(0.00105286, -1.52588e-005, 1.52588e-005, 0.0014801, 3.35, -1.7)" spreadMethod ="pad" cx="0" cy="0" r="819.2" fx="0" fy="0" >
<stop  offset="0.0470588"  style="stop-color:#C52929;stop-opacity:0.580392" />
<stop  offset="1"  style="stop-color:#FFEFEA;stop-opacity:0" />
</radialGradient>
<path style="fill:url(#RadialGradID_3115) " d="M2.75,-2.55Q3 -2.9 3.35 -2.9L3.9 -2.55L4.15 -1.75L3.95 -0.9L3.35 -0.55Q3 -0.55 2.75 -0.9L2.55 -1.7Q2.5 -2.2 2.75 -2.55" />
<radialGradient
id="RadialGradID_3116" gradientUnits="userSpaceOnUse" gradientTransform="matrix(0.00105286, -1.52588e-005, 1.52588e-005, 0.0014801, -3.25, -1.7)" spreadMethod ="pad" cx="0" cy="0" r="819.2" fx="0" fy="0" >
<stop  offset="0.0470588"  style="stop-color:#C52929;stop-opacity:0.580392" />
<stop  offset="1"  style="stop-color:#FFEFEA;stop-opacity:0" />
</radialGradient>
<path style="fill:url(#RadialGradID_3116) " d="M-2.7,-0.9L-3.25 -0.55Q-3.6 -0.55 -3.85 -0.9L-4.1 -1.7L-3.85 -2.55L-3.3 -2.9Q-2.95 -2.9 -2.7 -2.55L-2.45 -1.75L-2.7 -0.9" />
<radialGradient
id="RadialGradID_3117" gradientUnits="userSpaceOnUse" gradientTransform="matrix(0.004776, -7.62939e-005, 1.52588e-005, 0.00299072, -0.05, -1.3)" spreadMethod ="pad" cx="0" cy="0" r="819.2" fx="0" fy="0" >
<stop  offset="0"  style="stop-color:#FC94A9;stop-opacity:1" />
<stop  offset="1"  style="stop-color:#F7B9B3;stop-opacity:0.501961" />
</radialGradient>
<path style="fill:url(#RadialGradID_3117) " d="M2.45,-1.45L2.35 -1.45L2.45 -1.5L2.45 -1.45" />
<path style="fill:#FCF1F1;fill-opacity:1" d="M0.45,-1.45L0.6 -1.4Q0.2 -1.1 -0.15 -1.2L-0.6 -1.3L-0.5 -1.5L-0.1 -1.55L0.45 -1.45" />
<radialGradient
id="RadialGradID_3118" gradientUnits="userSpaceOnUse" gradientTransform="matrix(0.00479126, -7.62939e-005, 0.00012207, 0.00299072, -0.15, -0.65)" spreadMethod ="pad" cx="0" cy="0" r="819.2" fx="0" fy="0" >
<stop  offset="0"  style="stop-color:#FC94A9;stop-opacity:1" />
<stop  offset="1"  style="stop-color:#F7B9B3;stop-opacity:0.501961" />
</radialGradient>
<path style="fill:url(#RadialGradID_3118) " d="M2.55,0.1Q1.95 0.9 0.95 1.1L-0.55 1.1Q-1.6 1.15 -2.3 0.55Q-3.05 -0.1 -3.3 -1.4L-3.05 -1.4L-1.5 -0.7L-1.2 -0.6L0.35 -0.55L3.1 -1.55Q3.2 -0.7 2.55 0.1" />
<radialGradient
id="RadialGradID_3119" gradientUnits="userSpaceOnUse" gradientTransform="matrix(0.00175476, -4.57764e-005, 1.52588e-005, 0.0015564, -0.95, -0.05)" spreadMethod ="pad" cx="0" cy="0" r="819.2" fx="0" fy="0" >
<stop  offset="0"  style="stop-color:#FFFFFF;stop-opacity:1" />
<stop  offset="0.992157"  style="stop-color:#FA82A2;stop-opacity:0" />
</radialGradient>
<path style="fill:url(#RadialGradID_3119) " d="M-0.9,-0.15L-0.2 0L-0.55 0.45L-0.7 0.45L-0.9 0.05L-0.85 0.35L-1.3 0.3L-1.5 -0.15L-1.65 0.15Q-1.8 -0.2 -1.55 -0.55L-1.5 -0.35L-1.1 -0.3L-0.9 -0.15" />
<radialGradient
id="RadialGradID_3120" gradientUnits="userSpaceOnUse" gradientTransform="matrix(0.00119019, -3.05176e-005, 3.05176e-005, 0.00141907, 0.9, -0.1)" spreadMethod ="pad" cx="0" cy="0" r="819.2" fx="0" fy="0" >
<stop  offset="0"  style="stop-color:#FFFFFF;stop-opacity:1" />
<stop  offset="0.992157"  style="stop-color:#FA82A2;stop-opacity:0" />
</radialGradient>
<path style="fill:url(#RadialGradID_3120) " d="M1.2,-0.25Q0.9 -0.25 0.95 0L0.45 0.05L0.35 0.4L0.15 -0.05L0.3 0.05Q0.3 -0.25 0.6 -0.2L1 -0.4L1.35 -0.3L1.2 -0.25" />
<radialGradient
id="RadialGradID_3121" gradientUnits="userSpaceOnUse" gradientTransform="matrix(0.004776, -9.15527e-005, 1.52588e-005, 0.00292969, -0.15, -1.1)" spreadMethod ="pad" cx="0" cy="0" r="819.2" fx="0" fy="0" >
<stop  offset="0"  style="stop-color:#FB95A9;stop-opacity:1" />
<stop  offset="1"  style="stop-color:#F7D2C4;stop-opacity:0.501961" />
</radialGradient>
<path style="fill:url(#RadialGradID_3121) " d="M1.85,-1.45L2.2 -1.35L2.1 -1.3L2.1 -1.25L1.3 -1.45L-0.7 -1.55L-2 -1.35L-2.1 -1.35L-2.25 -1.3L-2.25 -1.35L-2.3 -1.35L-2.8 -1.25L-3.25 -1.25L-3.15 -1.4L-3.2 -1.45L-3.2 -1.7L-3.15 -1.7L-2.4 -2.3Q-1.65 -2.8 -1.1 -2.8L-0.5 -2.65L0.2 -2.65L0.7 -2.8L1.6 -2.55L3.15 -1.55L2.95 -1.35L2.95 -1.45L2.9 -1.3L2.65 -1.25L2.45 -1.3L2.2 -1.4L1.85 -1.45" />
<radialGradient
id="RadialGradID_3122" gradientUnits="userSpaceOnUse" gradientTransform="matrix(0.000961304, -0.000183105, 9.15527e-005, 0.000610352, 0.65, -2.6)" spreadMethod ="pad" cx="0" cy="0" r="819.2" fx="0" fy="0" >
<stop  offset="0"  style="stop-color:#FFFFFF;stop-opacity:1" />
<stop  offset="0.992157"  style="stop-color:#FDD7E3;stop-opacity:0" />
</radialGradient>
<path style="fill:url(#RadialGradID_3122) " d="M-0.05,-2.4L0.5 -2.75L1.5 -2.65L1.1 -2.3L0 -2.05L-0.05 -2.4" />
<path style="fill:#DA6161;fill-opacity:1" d="M3.15,-1.7L3.3 -1.7L3.3 -1.4L2.95 -1.2L2.6 -1.15L2.4 -1.05L0.65 -0.4L-0.5 -0.35L-1.75 -0.65L-2.75 -1.1L-3.05 -1.1L-3.4 -1.25L-3.5 -1.55L-3.4 -1.75L-3.25 -1.7L-3.2 -1.5L-2.8 -1.3L-2.7 -1.3L-1.75 -1.45L-1.15 -1.7L0.2 -1.65L0.65 -1.7L1.65 -1.5L2.85 -1.45L3.15 -1.7M0.55,-1.45L-0.3 -1.35L-1 -1.45L-1.65 -1.3L-2.05 -1.25L-1.6 -0.85L-0.3 -0.5L1 -0.7L1.9 -1.2L1.25 -1.35L1.15 -1.35L0.55 -1.45" />
<path style="fill:#F1FCFB;fill-opacity:1" d="M0.75,-1.2L0.7 -1.35L1.15 -1.35L1.25 -1.35L0.75 -1.2M-1.65,-1.3L-1 -1.45L-0.3 -1.35L-0.2 -1.35Q-0.55 -1.3 0.05 -1.3L0.65 -1.25L-1.65 -1.3" />
<path style="fill:#E7988F;fill-opacity:1" d="M0.75,-1.2L1.25 -1.35L1.9 -1.2L1 -0.7L-0.3 -0.5L-1.6 -0.85L-2.05 -1.25L-1.65 -1.3L-1.25 -1.2L-0.3 -1.1L0.05 -1.1L0.75 -1.2" />
<path style="fill:#FFFFFF;fill-opacity:1" d="M0.65,-1.25L0.05 -1.3Q-0.55 -1.3 -0.2 -1.35L-0.3 -1.35L0.55 -1.45L1.15 -1.35L0.7 -1.35L0.75 -1.2L0.05 -1.1L-0.3 -1.1L-1.25 -1.2L-1.65 -1.3L0.65 -1.25" />
</g>
</svg>
