<?xml version="1.0" encoding="utf-8"?>
<svg version="1.1" id="Layer_1"
xmlns="http://www.w3.org/2000/svg"
xmlns:xlink="http://www.w3.org/1999/xlink"
xmlns:author="http://www.sothink.com"
width="6px" height="5px"
xml:space="preserve">
<g id="341" transform="matrix(1, 0, 0, 1, 2.6, 2.35)">
<path style="fill:#A52727;fill-opacity:1" d="M-0.8,-0.55Q-0.2 -1.25 0.6 -0.8L0.65 -0.8L0.8 -0.7Q-0.05 0.3 -0.8 -0.55" />
<path style="fill:#FFF4FD;fill-opacity:1" d="M1.7,0.75L1.8 0.9L1.85 0.85L1.9 0.95L1.8 1.05L1.7 1.05L1.55 1.2L1.5 1.2L1.5 1.1L1.6 1.05L1.5 0.9L1.55 0.8L1.6 0.75L1.7 0.75M0.45,0.7L0.5 0.8L0.4 1.1L0.35 1.1L0.4 1.15L0.7 0.95L0.85 0.8L1 0.85L1 1.15L0.8 1.25L0.35 1.3L0.15 1.25L0.15 0.9L0.3 0.85L0.3 0.7L0.45 0.7M-0.75,1.25L-0.7 1.1L-0.55 1.05L-0.55 0.9L-0.55 0.8L-0.4 0.8L-0.35 0.9L-0.4 1.1L-0.25 1.05L-0.15 1.1L-0.15 1.4L-0.35 1.5L-0.45 1.45L-0.6 1.35L-0.6 1.45L-0.75 1.45L-0.75 1.25" />
<linearGradient
id="LinearGradID_3174" gradientUnits="userSpaceOnUse" gradientTransform="matrix(0.00108337, 0, 0, 0.000228882, 0.8, -2)" spreadMethod ="pad" x1="-819.2" y1="0" x2="819.2" y2="0" >
<stop  offset="0" style="stop-color:#FFFFFF;stop-opacity:1" />
<stop  offset="1" style="stop-color:#E78F9D;stop-opacity:1" />
</linearGradient>
<path style="fill:url(#LinearGradID_3174) " d="M1.4,-1.75L1.05 -1.85L0.65 -1.9L0.3 -1.85L0.2 -1.85L0.15 -1.9L0.25 -2.1L0.95 -2.1Q1.5 -2.05 1.5 -1.85L1.4 -1.75" />
<radialGradient
id="RadialGradID_3175" gradientUnits="userSpaceOnUse" gradientTransform="matrix(0.00392151, 0, 0, 0.00312805, -0.1, -1.7)" spreadMethod ="pad" cx="0" cy="0" r="819.2" fx="0" fy="0" >
<stop  offset="0.439216"  style="stop-color:#A52727;stop-opacity:1" />
<stop  offset="1"  style="stop-color:#FDD0D0;stop-opacity:1" />
</radialGradient>
<path style="fill:url(#RadialGradID_3175) " d="M0.8,-0.7Q1.35 -0.25 1.85 -0.25L1.8 -0.05L1.75 0L1.75 0.05L1.55 0.05L1.9 0.9L1.85 0.85Q1 0 0.6 0.05L0.8 0.55Q0.45 0.15 0.15 0.25Q0.05 0.85 -0.35 1L0 0.25Q0 0.1 -0.15 0.1L-0.65 0.7Q-0.3 0.4 -0.35 0.05L-0.85 -0.1L-1.3 0.05L-1.4 0.05L-1.55 0.05L-1.55 0Q-1.25 -0.05 -1 -0.3L-0.85 -0.55L-0.8 -0.55Q-0.05 0.3 0.8 -0.7" />
<linearGradient
id="LinearGradID_3176" gradientUnits="userSpaceOnUse" gradientTransform="matrix(0.000488281, 6.10352e-005, -3.05176e-005, 0.000305176, 2.25, -0.35)" spreadMethod ="pad" x1="-819.2" y1="0" x2="819.2" y2="0" >
<stop  offset="0" style="stop-color:#EBAEAE;stop-opacity:1" />
<stop  offset="1" style="stop-color:#A52727;stop-opacity:1" />
</linearGradient>
<path style="fill:url(#LinearGradID_3176) " d="M1.85,-0.25L1.9 -0.25L2.55 -0.45L2.55 -0.35Q2.4 -0.15 2 -0.05L1.95 -0.1L1.85 -0.1L1.8 -0.05L1.85 -0.25" />
<linearGradient
id="LinearGradID_3177" gradientUnits="userSpaceOnUse" gradientTransform="matrix(-0.000106812, -0.000259399, 0.000244141, -0.000106812, 2, 0.1)" spreadMethod ="pad" x1="-819.2" y1="0" x2="819.2" y2="0" >
<stop  offset="0" style="stop-color:#FFFFFF;stop-opacity:1" />
<stop  offset="1" style="stop-color:#E78F9D;stop-opacity:1" />
</linearGradient>
<path style="fill:url(#LinearGradID_3177) " d="M2,0.1L2.25 0.2L2.2 0.25L2.1 0.3L2 0.3L1.9 0.3L1.95 0.15L1.75 0.05L1.75 0L1.8 -0.05L1.85 -0.1L1.95 -0.1L2 -0.05L2 0.1" />
<linearGradient
id="LinearGradID_3178" gradientUnits="userSpaceOnUse" gradientTransform="matrix(-0.000595093, -0.000213623, 9.15527e-005, -0.000259399, -2.2, 0.1)" spreadMethod ="pad" x1="-819.2" y1="0" x2="819.2" y2="0" >
<stop  offset="0" style="stop-color:#EBAEAE;stop-opacity:1" />
<stop  offset="1" style="stop-color:#A52727;stop-opacity:1" />
</linearGradient>
<path style="fill:url(#LinearGradID_3178) " d="M-1.55,0.05L-1.7 0.15L-2.25 0.25L-2.5 0.15L-2.55 -0.15L-1.85 0L-1.55 0L-1.55 0.05" />
<linearGradient
id="LinearGradID_3179" gradientUnits="userSpaceOnUse" gradientTransform="matrix(-0.000335693, -0.000457764, 0.000411987, -0.000305176, -1.45, 0.45)" spreadMethod ="pad" x1="-819.2" y1="0" x2="819.2" y2="0" >
<stop  offset="0" style="stop-color:#FFFFFF;stop-opacity:1" />
<stop  offset="1" style="stop-color:#E78F9D;stop-opacity:1" />
</linearGradient>
<path style="fill:url(#LinearGradID_3179) " d="M-1.55,0.05L-1.4 0.05L-1.55 0.15L-1.65 0.25L-1.55 0.35L-1.4 0.4L-1.4 0.6L-1.3 0.5L-1.15 0.5L-1 0.6L-1.15 0.8L-1.45 0.9L-1.65 0.65Q-1.65 0.5 -1.5 0.55L-1.65 0.45L-1.8 0.45L-1.95 0.35L-1.7 0.15L-1.55 0.05" />
<radialGradient
id="RadialGradID_3180" gradientUnits="userSpaceOnUse" gradientTransform="matrix(0.0032196, 0, 0, 0.00372314, -0.1, 0.1)" spreadMethod ="pad" cx="0" cy="0" r="819.2" fx="0" fy="0" >
<stop  offset="0.439216"  style="stop-color:#F84B80;stop-opacity:0.6" />
<stop  offset="1"  style="stop-color:#FDD0D0;stop-opacity:0.501961" />
</radialGradient>
<path style="fill:url(#RadialGradID_3180) " d="M1.5,-1.85Q1.5 -2.05 0.95 -2.1L0.25 -2.1L0.15 -1.9L0.2 -1.85L0.3 -1.85L0.65 -1.9L1.05 -1.85L1.4 -1.75L1.5 -1.85M1.9,-0.25L1.85 -0.25Q1.35 -0.25 0.8 -0.7L0.65 -0.8L0.6 -0.8Q-0.2 -1.25 -0.8 -0.55L-0.85 -0.55L-1 -0.3Q-1.25 -0.05 -1.55 0L-1.85 0L-2.55 -0.15L-2.6 -0.15L-2.6 -0.2L-2.05 -1.2Q-1.5 -2.15 -0.9 -2.2L0 -2.35L1.05 -2.3Q1.8 -2.25 2.15 -1.4L2.55 -0.55L2.55 -0.45L1.9 -0.25" />
<radialGradient
id="RadialGradID_3181" gradientUnits="userSpaceOnUse" gradientTransform="matrix(0.00296021, 0, 0, 0.00296021, 0.05, -0.55)" spreadMethod ="pad" cx="0" cy="0" r="819.2" fx="0" fy="0" >
<stop  offset="0.439216"  style="stop-color:#F84B80;stop-opacity:0.670588" />
<stop  offset="1"  style="stop-color:#FDD0D0;stop-opacity:0.6" />
</radialGradient>
<path style="fill:url(#RadialGradID_3181) " d="M-1.7,0.15L-1.95 0.35L-1.8 0.45L-1.65 0.45L-1.5 0.55Q-1.65 0.5 -1.65 0.65L-1.45 0.9L-1.15 0.8L-1 0.6L-1.15 0.5L-1.3 0.5L-1.4 0.6L-1.4 0.4L-1.55 0.35L-1.65 0.25L-1.55 0.15L-1.4 0.05L-1.3 0.05L-0.85 -0.1L-0.35 0.05Q-0.3 0.4 -0.65 0.7L-0.15 0.1Q0 0.1 0 0.25L-0.35 1Q0.05 0.85 0.15 0.25Q0.45 0.15 0.8 0.55L0.6 0.05Q1 0 1.85 0.85L1.9 0.9L1.55 0.05L1.75 0.05L1.95 0.15L1.9 0.3L2 0.3L2.1 0.3L2.2 0.25L2.25 0.2L2 0.1L2 -0.05Q2.4 -0.15 2.55 -0.35Q2.5 1.2 1.05 1.9Q-1.2 2.8 -2.25 0.25L-1.7 0.15M1.6,0.75L1.55 0.8L1.5 0.9L1.6 1.05L1.5 1.1L1.5 1.2L1.55 1.2L1.7 1.05L1.8 1.05L1.9 0.95L1.85 0.85L1.8 0.9L1.7 0.75L1.6 0.75M0.3,0.7L0.3 0.85L0.15 0.9L0.15 1.25L0.35 1.3L0.8 1.25L1 1.15L1 0.85L0.85 0.8L0.7 0.95L0.4 1.15L0.35 1.1L0.4 1.1L0.5 0.8L0.45 0.7L0.3 0.7M-0.75,1.45L-0.6 1.45L-0.6 1.35L-0.45 1.45L-0.35 1.5L-0.15 1.4L-0.15 1.1L-0.25 1.05L-0.4 1.1L-0.35 0.9L-0.4 0.8L-0.55 0.8L-0.55 0.9L-0.55 1.05L-0.7 1.1L-0.75 1.25L-0.75 1.45" />
<radialGradient
id="RadialGradID_3182" gradientUnits="userSpaceOnUse" gradientTransform="matrix(0.00289917, 0, 0, 0.00279236, 0, 0)" spreadMethod ="pad" cx="0" cy="0" r="819.2" fx="118" fy="0" >
<stop  offset="0.823529"  style="stop-color:#FEEFEF;stop-opacity:1" />
<stop  offset="1"  style="stop-color:#EEBBBB;stop-opacity:1" />
</radialGradient>
<path style="fill:url(#RadialGradID_3182) " d="M-2.25,0.25Q-1.2 2.8 1.05 1.9Q2.5 1.2 2.55 -0.35L2.55 0.6L1.8 1.7Q1.25 2.35 -0.35 2.4Q-1.65 2.15 -2.45 0.45L-2.5 0.15L-2.25 0.25" />
</g>
</svg>
