<?xml version="1.0" encoding="utf-8"?>
<svg version="1.1" id="Layer_1"
xmlns="http://www.w3.org/2000/svg"
xmlns:xlink="http://www.w3.org/1999/xlink"
xmlns:author="http://www.sothink.com"
width="7px" height="5px"
xml:space="preserve">
<g id="382" transform="matrix(1, 0, 0, 1, 3, 2.05)">
<radialGradient
id="RadialGradID_3492" gradientUnits="userSpaceOnUse" gradientTransform="matrix(0.00379944, 0, 0, 0.00132751, 0.1, 0.95)" spreadMethod ="pad" cx="0" cy="0" r="819.2" fx="0" fy="0" >
<stop  offset="0.129412"  style="stop-color:#EE8377;stop-opacity:1" />
<stop  offset="0.933333"  style="stop-color:#FFECD6;stop-opacity:0.333333" />
</radialGradient>
<path style="fill:url(#RadialGradID_3492) " d="M1.6,0.6L2.35 0.1Q2.7 -0.2 2.7 -0.1L2.35 0.9L1.6 1.85L-0.15 2.1L-1.75 1.8L-2.45 0.8L-2.8 -0.2L-2.4 0.1L-1.65 0.6L1.6 0.6" />
<radialGradient
id="RadialGradID_3493" gradientUnits="userSpaceOnUse" gradientTransform="matrix(0.00349426, 0, 0, 0.00263977, 0, -0.45)" spreadMethod ="pad" cx="0" cy="0" r="819.2" fx="0" fy="0" >
<stop  offset="0.113725"  style="stop-color:#F77777;stop-opacity:1" />
<stop  offset="1"  style="stop-color:#FFDDDD;stop-opacity:1" />
</radialGradient>
<path style="fill:url(#RadialGradID_3493) " d="M0.2,-2L0.75 -2.05Q1.2 -2.05 2.05 -1.45L2.75 -0.9L3.05 -0.4L2.35 0.55Q1.6 1.2 0.4 1.2L-0.35 1.2Q-1.55 1.2 -2.3 0.55L-3 -0.35L-2.7 -0.9L-2 -1.45Q-1.15 -2.05 -0.7 -2.05L-0.1 -1.95L0 -1.9L0.2 -2" />
<radialGradient
id="RadialGradID_3494" gradientUnits="userSpaceOnUse" gradientTransform="matrix(0.00100708, 0.00012207, -7.62939e-005, 0.00062561, 1.2, -1.45)" spreadMethod ="pad" cx="0" cy="0" r="819.2" fx="210508" fy="0" >
<stop  offset="0"  style="stop-color:#FFFFFF;stop-opacity:0.572549" />
<stop  offset="1"  style="stop-color:#FFFFFF;stop-opacity:0" />
</radialGradient>
<path style="fill:url(#RadialGradID_3494) " d="M0.7,-1.6L1 -1.5L1.5 -1.05L-0.05 -1.2L0.2 -1.6L0.7 -1.6" />
<radialGradient
id="RadialGradID_3495" gradientUnits="userSpaceOnUse" gradientTransform="matrix(0.00135803, 0.000167847, -1.52588e-005, 0.000595093, -0.6, 0.5)" spreadMethod ="pad" cx="0" cy="0" r="819.2" fx="0" fy="0" >
<stop  offset="0"  style="stop-color:#FFFFFF;stop-opacity:0.831373" />
<stop  offset="1"  style="stop-color:#FFFFFF;stop-opacity:0.133333" />
</radialGradient>
<path style="fill:url(#RadialGradID_3495) " d="M-1.35,0.7L-1.75 0.35L-1.75 0.05L-1.6 0.05L-0.05 0.35L0.25 0.35L0.5 0.4L0.35 0.75L-1.05 0.8L-1.35 0.7" />
<radialGradient
id="RadialGradID_3496" gradientUnits="userSpaceOnUse" gradientTransform="matrix(0.000610352, -1.52588e-005, -3.05176e-005, 0.000488281, 1.4, 0.5)" spreadMethod ="pad" cx="0" cy="0" r="819.2" fx="0" fy="0" >
<stop  offset="0"  style="stop-color:#FFFFFF;stop-opacity:0.862745" />
<stop  offset="1"  style="stop-color:#FFFFFF;stop-opacity:0" />
</radialGradient>
<path style="fill:url(#RadialGradID_3496) " d="M1.85,0.4L1.65 0.65L1.4 0.8L1.15 0.7L1 0.4L1.1 0.2L1.45 0.15L1.85 0.15L1.9 0.2L1.85 0.4" />
<path style="fill:#F2F2F2;fill-opacity:1" d="M1.1,-0.15L-1.1 -0.2L-1.2 -0.25L-1.5 -0.25L-1.8 -0.45L-1.25 -0.75L-0.55 -0.95L-0.1 -0.95L1.3 -0.75L1.85 -0.45L1.25 -0.25L1.1 -0.15" />
<path style="fill:#CA6060;fill-opacity:1" d="M-1.95,-0.65L-1.05 -1L-0.1 -1.2L0.1 -1.2L1.55 -0.85L2 -0.65Q2.2 -0.5 2.35 -0.4L2.25 -0.25L1.65 -0.15L-1.15 -0.05L-1.85 -0.2L-2.25 -0.25L-2.3 -0.4L-1.95 -0.65M-0.5,-0.9L-1.2 -0.7L-1.75 -0.45L-0.5 -0.2L0.5 -0.2L1.75 -0.45L1.2 -0.7L0.5 -0.9L-0.5 -0.9" />
<path style="fill:#F47171;fill-opacity:1" d="M2.2,0.65Q1.6 1.35 0 1.3Q-1.6 1.25 -2.1 0.65Q-1.4 1.15 0.05 1.15Q1.15 1.2 2.2 0.65" />
</g>
</svg>
