<?xml version="1.0" encoding="utf-8"?>
<svg version="1.1" id="Layer_1"
xmlns="http://www.w3.org/2000/svg"
xmlns:xlink="http://www.w3.org/1999/xlink"
xmlns:author="http://www.sothink.com"
width="9px" height="7px"
xml:space="preserve">
<g id="365" transform="matrix(1, 0, 0, 1, 4.3, 3.2)">
<radialGradient
id="RadialGradID_3364" gradientUnits="userSpaceOnUse" gradientTransform="matrix(0.00154114, -1.52588e-005, 3.05176e-005, 0.00115967, 3.1, -2.3)" spreadMethod ="pad" cx="0" cy="0" r="819.2" fx="0" fy="0" >
<stop  offset="0.0784314"  style="stop-color:#ECC8A4;stop-opacity:1" />
<stop  offset="0.862745"  style="stop-color:#FFEDDB;stop-opacity:0" />
</radialGradient>
<path style="fill:url(#RadialGradID_3364) " d="M2.95,-2.1L2.9 -2.15L2.95 -2.15L3 -2.2L3.25 -2.4L3.25 -2.6L3.15 -2.6L3.1 -2.55L3.05 -2.45L2.95 -2.35L2.05 -2.75L2.2 -2.9L3.05 -3.2L3.95 -2.95L4.3 -2.3L3.95 -1.65L3.1 -1.4L2.8 -1.5L2.95 -2.1M2.8,-2.1L2.75 -2L2.7 -2.1L2.8 -2.1" />
<linearGradient
id="LinearGradID_3365" gradientUnits="userSpaceOnUse" gradientTransform="matrix(0.00326538, 0.000335693, -7.62939e-005, 0.000762939, 0.05, -1.85)" spreadMethod ="pad" x1="-819.2" y1="0" x2="819.2" y2="0" >
<stop  offset="0" style="stop-color:#C28486;stop-opacity:1" />
<stop  offset="0.192157" style="stop-color:#F8F0E4;stop-opacity:1" />
<stop  offset="0.819608" style="stop-color:#FBF7F2;stop-opacity:1" />
<stop  offset="1" style="stop-color:#D8969D;stop-opacity:1" />
</linearGradient>
<path style="fill:url(#LinearGradID_3365) " d="M2.55,-2.1L2.7 -2.1L2.75 -2L2.75 -1.9L2.45 -1.5L1.85 -1.65L-1.9 -1.5L-2.55 -1.6L-2.65 -1.65L-2.7 -2.05L-2.55 -2.05L-2 -2.2L-1.65 -2.3L0.95 -2.4L1.1 -2.4L2.55 -2.1" />
<radialGradient
id="RadialGradID_3366" gradientUnits="userSpaceOnUse" gradientTransform="matrix(0.00418091, 0.000198364, -0.000335693, 0.00701904, 0.1, -2.7)" spreadMethod ="pad" cx="0" cy="0" r="819.2" fx="0" fy="0" >
<stop  offset="0.505882"  style="stop-color:#E0BB96;stop-opacity:1" />
<stop  offset="0.882353"  style="stop-color:#ECC8B5;stop-opacity:0.596078" />
<stop  offset="1"  style="stop-color:#FFE3DD;stop-opacity:0.0627451" />
</radialGradient>
<path style="fill:url(#RadialGradID_3366) " d="M-2.2,-2.6L0.1 -2.95L2.05 -2.75L2.95 -2.35L2.85 -2.3L2.8 -2.25L2.6 -2.25Q-0.15 -3 -2.6 -2.2L-2.8 -2.15L-2.85 -2.15L-2.85 -2.2L-3 -2.2L-2.2 -2.6M3,-2.2L2.95 -2.15L3 -2.2M-0.85,-2.45L1.1 -2.4L0.95 -2.4L-0.85 -2.45M-2,-2.2L-2.55 -2.05L-2.55 -2.1L-1.45 -2.35L-2 -2.2M-3,-2.05L-2.9 -2.05L-2.85 -2.05L-2.85 -2L-3 -2.05" />
<linearGradient
id="LinearGradID_3367" gradientUnits="userSpaceOnUse" gradientTransform="matrix(0.00331116, 0.000350952, -0.00012207, 0.0012207, -0.05, -1.3)" spreadMethod ="pad" x1="-819.2" y1="0" x2="819.2" y2="0" >
<stop  offset="0" style="stop-color:#80423C;stop-opacity:1" />
<stop  offset="0.380392" style="stop-color:#EA8076;stop-opacity:1" />
<stop  offset="0.588235" style="stop-color:#F0796C;stop-opacity:1" />
<stop  offset="0.835294" style="stop-color:#C7554A;stop-opacity:1" />
<stop  offset="1" style="stop-color:#5F3429;stop-opacity:1" />
</linearGradient>
<path style="fill:url(#LinearGradID_3367) " d="M-2.55,-1.6L-1.9 -1.5L1.85 -1.65L2.45 -1.5L2.75 -1.9L2.7 -1.6L2.65 -1.5L2.15 -0.4L1.55 -0.75L1.65 -0.65L-1.15 -0.9L-1.15 -0.95L-2.15 -0.5L-2.45 -1.35L-2.55 -1.6" />
<linearGradient
id="LinearGradID_3368" gradientUnits="userSpaceOnUse" gradientTransform="matrix(0.00038147, 4.57764e-005, -4.57764e-005, 0.000473022, 1.8, -0.35)" spreadMethod ="pad" x1="-819.2" y1="0" x2="819.2" y2="0" >
<stop  offset="0.0862745" style="stop-color:#C28486;stop-opacity:1" />
<stop  offset="0.439216" style="stop-color:#F1E4D1;stop-opacity:1" />
<stop  offset="0.631373" style="stop-color:#EEDCCC;stop-opacity:1" />
<stop  offset="0.886275" style="stop-color:#D8969D;stop-opacity:1" />
</linearGradient>
<path style="fill:url(#LinearGradID_3368) " d="M1.8,0.05L1.65 -0.65L1.55 -0.75L2.15 -0.4L1.8 0.05" />
<path style="fill:#9B4A42;fill-opacity:1" d="M1.1,0.9L-0.65 1.1L-1.05 0.9L-2.1 -0.15L-2.35 -0.55L-2.7 -1.3L-2.85 -2L-2.85 -2.05L-2.9 -2.05L-3 -2.05L-3.15 -2.15L-3.25 -2.3L-3.3 -2.35L-3.25 -2.4L-3.15 -2.4L-3.15 -2.35L-3 -2.2L-2.85 -2.2L-2.85 -2.15L-2.8 -2.15L-2.6 -2.2Q-0.15 -3 2.6 -2.25L2.8 -2.25L2.85 -2.3L2.95 -2.35L3.05 -2.45L3.1 -2.55L3.15 -2.6L3.25 -2.6L3.25 -2.4L3 -2.2L2.95 -2.15L2.9 -2.15L2.95 -2.1L2.8 -1.5L2.55 -0.75L2.05 0.05L2 0.15L1.95 0.2L1.1 0.9M-1.55,0.25L-1 0.75L-0.25 0.8L0.4 0.85L1 0.85L1.8 0.15L2.15 -0.4L2.65 -1.5L2.7 -1.6L2.75 -1.9L2.75 -2L2.8 -2.1L2.7 -2.1L2.55 -2.1L1.1 -2.4L-0.85 -2.45L-1.45 -2.35L-2.55 -2.1L-2.55 -2.05L-2.7 -2.05L-2.65 -1.65L-2.55 -1.35L-2.15 -0.5L-1.55 0.25" />
<radialGradient
id="RadialGradID_3369" gradientUnits="userSpaceOnUse" gradientTransform="matrix(0.00154114, -1.52588e-005, 3.05176e-005, 0.00115967, -3.1, -2.05)" spreadMethod ="pad" cx="0" cy="0" r="819.2" fx="0" fy="0" >
<stop  offset="0.0784314"  style="stop-color:#ECC8A4;stop-opacity:1" />
<stop  offset="0.862745"  style="stop-color:#FFEDDB;stop-opacity:0" />
</radialGradient>
<path style="fill:url(#RadialGradID_3369) " d="M-3,-2.2L-3.15 -2.35L-3.15 -2.4L-3.25 -2.4L-3.3 -2.35L-3.25 -2.3L-3.15 -2.15L-3 -2.05L-2.85 -2L-2.7 -1.3L-3.05 -1.15L-3.95 -1.4L-4.3 -2.05L-3.95 -2.7L-3.1 -2.95L-2.25 -2.7L-2.2 -2.6L-3 -2.2M-2.45,-1.35L-2.55 -1.35L-2.65 -1.65L-2.55 -1.6L-2.45 -1.35" />
<linearGradient
id="LinearGradID_3370" gradientUnits="userSpaceOnUse" gradientTransform="matrix(0.000564575, 6.10352e-005, -7.62939e-005, 0.000747681, -1.65, -0.4)" spreadMethod ="pad" x1="-819.2" y1="0" x2="819.2" y2="0" >
<stop  offset="0.0862745" style="stop-color:#C28486;stop-opacity:1" />
<stop  offset="0.439216" style="stop-color:#F1E4D1;stop-opacity:1" />
<stop  offset="0.631373" style="stop-color:#EEDCCC;stop-opacity:1" />
<stop  offset="0.886275" style="stop-color:#D8969D;stop-opacity:1" />
</linearGradient>
<path style="fill:url(#LinearGradID_3370) " d="M-2.15,-0.5L-1.15 -0.95L-1.15 -0.9Q-1.75 -0.25 -1.55 0.25L-2.15 -0.5" />
<radialGradient
id="RadialGradID_3371" gradientUnits="userSpaceOnUse" gradientTransform="matrix(0.00222778, 7.62939e-005, -7.62939e-005, 0.00222778, 0.5, 0.65)" spreadMethod ="pad" cx="0" cy="0" r="819.2" fx="0" fy="0" >
<stop  offset="0"  style="stop-color:#FBC2B7;stop-opacity:1" />
<stop  offset="1"  style="stop-color:#FFD5D5;stop-opacity:0" />
</radialGradient>
<path style="fill:url(#RadialGradID_3371) " d="M-0.25,0.8L-0.55 0.75L-1.3 0.25L-0.1 0.65L1.1 0.45L0.4 0.85L-0.25 0.8" />
<linearGradient
id="LinearGradID_3372" gradientUnits="userSpaceOnUse" gradientTransform="matrix(0.00204468, 0.000213623, -0.000137329, 0.001297, 0.05, 0)" spreadMethod ="pad" x1="-819.2" y1="0" x2="819.2" y2="0" >
<stop  offset="0" style="stop-color:#DD695E;stop-opacity:1" />
<stop  offset="0.407843" style="stop-color:#F1A293;stop-opacity:1" />
<stop  offset="0.635294" style="stop-color:#EC9D90;stop-opacity:1" />
<stop  offset="0.835294" style="stop-color:#EA9689;stop-opacity:1" />
<stop  offset="1" style="stop-color:#DB6457;stop-opacity:1" />
</linearGradient>
<path style="fill:url(#LinearGradID_3372) " d="M-1,0.75L-1.55 0.25Q-1.75 -0.25 -1.15 -0.9L1.65 -0.65L1.8 0.05L1 0.85L0.4 0.85L1.1 0.45L-0.1 0.65L-1.3 0.25L-0.55 0.75L-0.25 0.8L-1 0.75" />
<radialGradient
id="RadialGradID_3373" gradientUnits="userSpaceOnUse" gradientTransform="matrix(0.00320435, 0.000106812, -0.000106812, 0.00320435, 0.1, 1.25)" spreadMethod ="pad" cx="0" cy="0" r="819.2" fx="0" fy="0" >
<stop  offset="0.180392"  style="stop-color:#DFB497;stop-opacity:1" />
<stop  offset="1"  style="stop-color:#FFEFEA;stop-opacity:0" />
</radialGradient>
<path style="fill:url(#RadialGradID_3373) " d="M1.95,0.2L1.55 0.85L0.8 1.45L0.65 1.55Q0.15 1.75 -0.35 1.55L-0.55 1.45L-0.7 1.4L-1.65 0.55L-2.1 -0.15L-1.05 0.9L-0.65 1.1L1.05 0.95L1.1 0.9L1.95 0.2M1.05,1.1L-0.45 1.3L0.3 1.45L1.05 1.1" />
<radialGradient
id="RadialGradID_3374" gradientUnits="userSpaceOnUse" gradientTransform="matrix(-3.05176e-005, -0.00157166, -0.00320435, 7.62939e-005, 0.1, 2.25)" spreadMethod ="pad" cx="0" cy="0" r="819.2" fx="0" fy="0" >
<stop  offset="0"  style="stop-color:#E38760;stop-opacity:0.443137" />
<stop  offset="1"  style="stop-color:#FFEFEA;stop-opacity:0" />
</radialGradient>
<path style="fill:url(#RadialGradID_3374) " d="M-0.55,1.45L-0.35 1.55Q0.15 1.75 0.65 1.55L0.8 1.45L1.55 1.55Q2.1 1.8 2.1 2.2L1.55 2.95L0.1 3.25L-1.3 3Q-1.9 2.7 -1.9 2.3Q-1.95 1.9 -1.3 1.6L-0.7 1.4L-0.55 1.45" />
<radialGradient
id="RadialGradID_3375" gradientUnits="userSpaceOnUse" gradientTransform="matrix(0.49913, -0.0247498, 0.024765, 0.49913, -102.55, -23.35)" spreadMethod ="pad" cx="0" cy="0" r="819.2" fx="0" fy="0" >
<stop  offset="0"  style="stop-color:#FEFEDC;stop-opacity:1" />
<stop  offset="0.709804"  style="stop-color:#FFEDDB;stop-opacity:0" />
</radialGradient>
<path style="fill:url(#RadialGradID_3375) " d="M0.3,1.45L-0.45 1.3L1.05 1.1L0.3 1.45" />
</g>
</svg>
