<?xml version="1.0" encoding="utf-8"?>
<svg version="1.1" id="Layer_1"
xmlns="http://www.w3.org/2000/svg"
xmlns:xlink="http://www.w3.org/1999/xlink"
xmlns:author="http://www.sothink.com"
width="9px" height="6px"
xml:space="preserve">
<g id="383" transform="matrix(1, 0, 0, 1, -65.85, -44.25)">
<radialGradient
id="RadialGradID_3497" gradientUnits="userSpaceOnUse" gradientTransform="matrix(-4.57764e-005, -0.00167847, -0.00331116, 0.000289917, 70.25, 47.8)" spreadMethod ="pad" cx="0" cy="0" r="819.2" fx="0" fy="0" >
<stop  offset="0.0470588"  style="stop-color:#DA6969;stop-opacity:0.513725" />
<stop  offset="1"  style="stop-color:#FFEFEA;stop-opacity:0" />
</radialGradient>
<path style="fill:url(#RadialGradID_3497) " d="M70.25,46.8L71.75 47Q72.35 47.2 72.35 47.65Q72.35 48.1 71.75 48.45L70.3 48.9L68.85 48.7Q68.2 48.45 68.2 48Q68.2 47.55 68.85 47.2L70.25 46.8" />
<radialGradient
id="RadialGradID_3498" gradientUnits="userSpaceOnUse" gradientTransform="matrix(0.00114441, -9.15527e-005, 1.52588e-005, 0.00134277, 66.85, 45.75)" spreadMethod ="pad" cx="0" cy="0" r="819.2" fx="0" fy="0" >
<stop  offset="0.0470588"  style="stop-color:#C52929;stop-opacity:0.580392" />
<stop  offset="1"  style="stop-color:#FFEFEA;stop-opacity:0" />
</radialGradient>
<path style="fill:url(#RadialGradID_3498) " d="M67.65,45.65L67.45 46.4L66.85 46.8L66.15 46.55Q65.85 46.25 65.85 45.85Q65.85 45.4 66.15 45.05Q66.4 44.65 66.75 44.65Q67.15 44.6 67.4 44.95L67.65 45.65" />
<radialGradient
id="RadialGradID_3499" gradientUnits="userSpaceOnUse" gradientTransform="matrix(0.00114441, -9.15527e-005, 1.52588e-005, 0.00134277, 73.5, 45.25)" spreadMethod ="pad" cx="0" cy="0" r="819.2" fx="0" fy="0" >
<stop  offset="0.0470588"  style="stop-color:#C52929;stop-opacity:0.580392" />
<stop  offset="1"  style="stop-color:#FFEFEA;stop-opacity:0" />
</radialGradient>
<path style="fill:url(#RadialGradID_3499) " d="M73.5,46.35Q73.15 46.4 72.9 46.1Q72.6 45.8 72.6 45.35Q72.6 44.9 72.9 44.6Q73.1 44.3 73.5 44.25Q73.9 44.25 74.15 44.5L74.4 45.25L74.15 46Q73.9 46.35 73.5 46.35" />
<radialGradient
id="RadialGradID_3500" gradientUnits="userSpaceOnUse" gradientTransform="matrix(-3.05176e-005, -0.0015564, -0.00308228, 0.000274658, 70.35, 48.85)" spreadMethod ="pad" cx="0" cy="0" r="819.2" fx="0" fy="0" >
<stop  offset="0.0470588"  style="stop-color:#DA6969;stop-opacity:0.513725" />
<stop  offset="1"  style="stop-color:#FFEFEA;stop-opacity:0" />
</radialGradient>
<path style="fill:url(#RadialGradID_3500) " d="M70.3,47.9L71.7 48.1L72.3 48.7L71.75 49.45L70.4 49.85L69.05 49.7Q68.45 49.45 68.45 49.05Q68.4 48.65 69 48.3Q69.5 47.95 70.3 47.9" />
<radialGradient
id="RadialGradID_3501" gradientUnits="userSpaceOnUse" gradientTransform="matrix(0.000808716, 0.000137329, -0.000198364, 0.000732422, 71.2, 45.4)" spreadMethod ="pad" cx="0" cy="0" r="819.2" fx="0" fy="0" >
<stop  offset="0"  style="stop-color:#FFFFFF;stop-opacity:1" />
<stop  offset="0.992157"  style="stop-color:#FA82A2;stop-opacity:0" />
</radialGradient>
<path style="fill:url(#RadialGradID_3501) " d="M70.5,45.5L70.6 45.35L70.9 45.35Q71.5 45.25 71.8 45.6L71.4 45.5L70.55 45.55L70.5 45.5" />
<radialGradient
id="RadialGradID_3502" gradientUnits="userSpaceOnUse" gradientTransform="matrix(0.00622559, -0.000396729, 0, 0.00424194, 70.15, 46.4)" spreadMethod ="pad" cx="0" cy="0" r="819.2" fx="0" fy="0" >
<stop  offset="0"  style="stop-color:#F04288;stop-opacity:1" />
<stop  offset="0.156863"  style="stop-color:#F15262;stop-opacity:1" />
<stop  offset="0.886275"  style="stop-color:#FBD0E1;stop-opacity:1" />
<stop  offset="1"  style="stop-color:#FEEDE7;stop-opacity:0.501961" />
</radialGradient>
<path style="fill:url(#RadialGradID_3502) " d="M68.3,46.35L68.6 46.8L68.7 46.95Q69.2 47.6 69.95 47.55L70.2 47.55L70.5 47.55Q71.2 47.5 71.75 46.75L71.85 46.6L72.15 46.15L73.4 45.8L73.1 46.4L72.95 46.75L72.15 47.9L71.4 48.45L70.45 48.65L70.3 48.6L70 48.65L69 48.65L68.25 48.15L67.5 47.05L67.3 46.8L67 46.2L68.3 46.35" />
<radialGradient
id="RadialGradID_3503" gradientUnits="userSpaceOnUse" gradientTransform="matrix(0.00157166, -0.00012207, 1.52588e-005, 0.000778198, 69.6, 47.85)" spreadMethod ="pad" cx="0" cy="0" r="819.2" fx="0" fy="0" >
<stop  offset="0"  style="stop-color:#FFFFFF;stop-opacity:1" />
<stop  offset="0.992157"  style="stop-color:#FA82A2;stop-opacity:0" />
</radialGradient>
<path style="fill:url(#RadialGradID_3503) " d="M70.3,47.85L70.05 48.1L69.9 48.1L69.65 47.95L69.7 48.1L69.35 48.1L69.15 47.85L69 48Q68.85 47.8 69.05 47.65L69.15 47.75L69.5 47.75L69.65 47.8L70.3 47.85" />
<radialGradient
id="RadialGradID_3504" gradientUnits="userSpaceOnUse" gradientTransform="matrix(0.00106812, -9.15527e-005, 1.52588e-005, 0.000946045, 71.2, 47.8)" spreadMethod ="pad" cx="0" cy="0" r="819.2" fx="0" fy="0" >
<stop  offset="0"  style="stop-color:#FFFFFF;stop-opacity:1" />
<stop  offset="0.992157"  style="stop-color:#FA82A2;stop-opacity:0" />
</radialGradient>
<path style="fill:url(#RadialGradID_3504) " d="M70.75,48.2L70.5 47.85L70.65 47.95L70.95 47.7L71.3 47.6Q71.45 47.4 71.6 47.6L71.45 47.65Q71.2 47.7 71.3 47.9L70.8 47.9L70.75 48.2" />
<radialGradient
id="RadialGradID_3505" gradientUnits="userSpaceOnUse" gradientTransform="matrix(0.00811768, -0.000549316, 1.52588e-005, 0.00280762, 70.2, 47.05)" spreadMethod ="pad" cx="0" cy="0" r="819.2" fx="0" fy="0" >
<stop  offset="0.00392157"  style="stop-color:#FA96B5;stop-opacity:1" />
<stop  offset="0.329412"  style="stop-color:#EA4062;stop-opacity:1" />
<stop  offset="0.760784"  style="stop-color:#F4ACAC;stop-opacity:1" />
<stop  offset="1"  style="stop-color:#FEE6DB;stop-opacity:1" />
<stop  offset="1"  style="stop-color:#FEE6DB;stop-opacity:0.501961" />
</radialGradient>
<path style="fill:url(#RadialGradID_3505) " d="M69.3,45.9L68.05 46.25L67.45 46.25L67.2 46L67.3 45.95L67.75 46L68.2 45.85L68.65 45.6L69.45 45.2L70.15 45.35L70.9 45.1L71.55 45.3L72.2 45.5L72.8 45.65L73.25 45.6L72.9 45.95L72.2 45.95L72.05 45.95L71.5 45.9L70.85 45.9L70.5 46L70.15 46.05L69.3 45.9" />
<path style="fill:#B5204D;fill-opacity:1" d="M69.25,47.2L69.95 47.4L70.6 47.35L71.25 47.05L71.75 46.65L71.85 46.5L72.05 46.05L72 46.05L71.85 46L71.35 45.9L70.7 45.9L70.25 46.05L69.8 45.95L69.2 46.05L68.65 46.3L68.45 46.3L68.6 46.65L68.65 46.75L68.75 46.8L69.25 47.2M70.8,45.75L71.05 45.75L72.25 45.85Q73.1 45.9 73.2 45.45L73.2 45.4L73.25 45.4L73.35 45.25L73.55 45.2L73.6 45.2Q73.95 45.45 73.65 45.7L73.35 45.9L72.3 46.1L72.05 46.5L71.95 46.6L71.35 47.15L70.4 47.55L70.3 47.55L70.1 47.6L69.15 47.3L68.6 46.85L68.25 46.35L67.2 46.25L66.9 46.15Q66.6 45.9 66.95 45.65L67 45.65L67.15 45.6L67.3 45.75L67.35 45.8Q67.45 46.25 68.3 46.1L69.45 45.9L69.75 45.8L69.85 45.85L70.15 45.9L70.4 45.85L70.8 45.75" />
<path style="fill:#E9F9FC;fill-opacity:1" d="M69.2,46.05L69.8 45.95L70.25 46.05L70.7 45.9L71.35 45.9L71.85 46L71.65 46.15L71.55 46.15L70.9 46L70.4 46.1L69.65 46.05L69.45 46.15Q69.15 46.15 69.05 46.3L68.65 46.3L69.2 46.05M68.75,46.8L70.35 47.1L71.75 46.65L71.25 47.05L70.6 47.35L69.95 47.4L69.25 47.2L68.75 46.8" />
<path style="fill:#CF7474;fill-opacity:1" d="M71.55,46.15L71.65 46.15L71.85 46L72 46.05L72.05 46.05L71.85 46.5L71.75 46.65L70.35 47.1L68.75 46.8L68.65 46.75L68.6 46.65L68.45 46.3L68.65 46.3L69.05 46.3L69.4 46.35L70.35 46.3L71.25 46.2L71.55 46.15" />
<path style="fill:#FFFFFF;fill-opacity:1" d="M71.25,46.2L70.35 46.3L69.4 46.35L69.05 46.3Q69.15 46.15 69.45 46.15L69.65 46.05L70.4 46.1L70.9 46L71.55 46.15L71.25 46.2" />
<path style="fill:#E21246;fill-opacity:0.380392" d="M69.45,48.65L70.25 48.55L70.3 48.5L71.05 48.5Q71.7 48.4 72.05 48L71.95 48.1L71.3 48.65L70.7 48.7L70.3 48.65L70.25 48.7L69.85 48.75L69.25 48.8L68.55 48.35L68.5 48.25Q68.85 48.55 69.45 48.65" />
</g>
</svg>
