<?xml version="1.0" encoding="utf-8"?>
<svg version="1.1" id="Layer_1"
xmlns="http://www.w3.org/2000/svg"
xmlns:xlink="http://www.w3.org/1999/xlink"
xmlns:author="http://www.sothink.com"
width="5px" height="5px"
xml:space="preserve">
<g id="375" transform="matrix(1, 0, 0, 1, 2.2, 2.35)">
<radialGradient
id="RadialGradID_3447" gradientUnits="userSpaceOnUse" gradientTransform="matrix(4.57764e-005, -0.00172424, -0.00357056, -9.15527e-005, 0.05, 1.25)" spreadMethod ="pad" cx="0" cy="0" r="819.2" fx="0" fy="0" >
<stop  offset="0.0470588"  style="stop-color:#DA6969;stop-opacity:0.513725" />
<stop  offset="1"  style="stop-color:#FFEFEA;stop-opacity:0" />
</radialGradient>
<path style="fill:url(#RadialGradID_3447) " d="M-1.5,0.5L0.05 0.25Q1 0.25 1.65 0.65Q2.25 0.95 2.25 1.4L1.6 2.15L0 2.4L-1.55 2.05Q-2.25 1.75 -2.2 1.3Q-2.2 0.85 -1.5 0.5" />
<path style="fill:#603031;fill-opacity:0.772549" d="M-0.65,-1.55Q-0.6 -1.4 -0.25 -1.35L0 -1.4L0.1 -1.4L0.2 -1.4L0.45 -1.35Q0.8 -1.4 0.85 -1.55L1.25 -1.05L1.3 -0.9L0.1 -0.85L0 -0.85L-1.1 -0.9L-1.05 -1.05L-0.65 -1.55" />
<path style="fill:#7D1C1C;fill-opacity:0.752941" d="M-0.9,0.5L-1.3 -0.2L-1.25 -0.4L-1.2 -0.45L-1.1 -0.9L0 -0.85L0.1 -0.85L1.3 -0.9L1.5 -0.4L1.55 -0.3L1.15 0.4L0.05 0.5Q-0.6 0.3 -0.9 0.5" />
<path style="fill:#E50017;fill-opacity:0.662745" d="M0.5,0.95L0.25 0.95L0.15 1.05L0.1 1.05L-0.05 1L-0.3 0.9L-0.9 0.5Q-0.6 0.3 0.05 0.5L1.15 0.4L1 0.6L0.45 1L0.5 0.95" />
<path style="fill:#FDCED9;fill-opacity:1" d="M-1.05,-1.05L-1.1 -0.9L-1.2 -0.45L-1.25 -0.4L-1.3 -0.2L-0.9 0.5L-0.3 0.9L-0.05 1L0.1 1.05L0.15 1.05L0.45 1L1 0.6L1.15 0.4L1.55 -0.3L1.5 -0.4L1.3 -0.9L1.25 -1.05L1.55 -0.45L1.55 -0.4L1.6 -0.4L1.65 -0.4L1.65 -0.35L1.7 -0.2Q1.4 0.6 0.55 1.05Q-0.15 1.25 -0.7 0.75L-1.45 -0.25L-1.05 -1.05" />
<radialGradient
id="RadialGradID_3448" gradientUnits="userSpaceOnUse" gradientTransform="matrix(0.0360565, 0.00190735, -0.00190735, 0.0360413, -3.1, -4)" spreadMethod ="pad" cx="0" cy="0" r="819.2" fx="0" fy="0" >
<stop  offset="0.313725"  style="stop-color:#FFFFFF;stop-opacity:0.431373" />
<stop  offset="1"  style="stop-color:#FFFFFF;stop-opacity:0" />
</radialGradient>
<path style="fill:url(#RadialGradID_3448) " d="M0.1,-1.5L0.1 -1.4L0 -1.4L-0.25 -1.35Q-0.6 -1.4 -0.65 -1.55L-0.6 -1.6L0.1 -1.5M0.45,1L0.15 1.05L0.25 0.95L0.5 0.95L0.45 1" />
<radialGradient
id="RadialGradID_3449" gradientUnits="userSpaceOnUse" gradientTransform="matrix(0.00242615, 0.00012207, -0.00012207, 0.00242615, 0, -1.3)" spreadMethod ="pad" cx="0" cy="0" r="819.2" fx="0" fy="0" >
<stop  offset="0"  style="stop-color:#F84B80;stop-opacity:0.713725" />
<stop  offset="1"  style="stop-color:#FDD0D0;stop-opacity:0.211765" />
</radialGradient>
<path style="fill:url(#RadialGradID_3449) " d="M-1.05,-1.05L-1.45 -0.25L-1.6 -0.25L-1.6 -0.45Q-1.55 -1.65 -0.75 -2.25L-0.7 -2.25Q-0.5 -2.45 -0.2 -2.25L0.1 -2.25L0.1 -1.5L-0.6 -1.6L-0.65 -1.55L-1.05 -1.05M1.65,-0.35L1.65 -0.4L1.8 -0.4L1.8 -0.2L1.7 -0.2L1.65 -0.35" />
<radialGradient
id="RadialGradID_3450" gradientUnits="userSpaceOnUse" gradientTransform="matrix(-1.52588e-005, -0.00180054, 0.00341797, -1.52588e-005, 0.15, 0.85)" spreadMethod ="pad" cx="0" cy="0" r="819.2" fx="0" fy="0" >
<stop  offset="0"  style="stop-color:#F84B80;stop-opacity:0.662745" />
<stop  offset="1"  style="stop-color:#FDD0D0;stop-opacity:0.4" />
</radialGradient>
<path style="fill:url(#RadialGradID_3450) " d="M-1.45,-0.25L-0.7 0.75Q-0.15 1.25 0.55 1.05Q1.4 0.6 1.7 -0.2L1.8 -0.2L1.75 0.25Q1.4 1.35 0.9 1.75Q-0.2 2.25 -1 1.35L-1.55 -0.15L-1.6 -0.25L-1.45 -0.25" />
<radialGradient
id="RadialGradID_3451" gradientUnits="userSpaceOnUse" gradientTransform="matrix(-0.00242615, 0.00012207, 0.00012207, 0.00242615, 0.2, -1.3)" spreadMethod ="pad" cx="0" cy="0" r="819.2" fx="0" fy="0" >
<stop  offset="0"  style="stop-color:#F84B80;stop-opacity:0.713725" />
<stop  offset="1"  style="stop-color:#FDD0D0;stop-opacity:0.211765" />
</radialGradient>
<path style="fill:url(#RadialGradID_3451) " d="M1.8,-0.4L1.65 -0.4L1.6 -0.4L1.55 -0.45L1.25 -1.05L0.85 -1.55L0.8 -1.6L0.1 -1.5L0.1 -2.25L0.4 -2.25Q0.7 -2.45 0.9 -2.25L0.95 -2.25Q1.75 -1.65 1.8 -0.2L1.8 -0.4" />
<radialGradient
id="RadialGradID_3452" gradientUnits="userSpaceOnUse" gradientTransform="matrix(-0.0360565, 0.00190735, 0.00190735, 0.0360413, 3.3, -4)" spreadMethod ="pad" cx="0" cy="0" r="819.2" fx="0" fy="0" >
<stop  offset="0.313725"  style="stop-color:#FFFFFF;stop-opacity:0.431373" />
<stop  offset="1"  style="stop-color:#FFFFFF;stop-opacity:0" />
</radialGradient>
<path style="fill:url(#RadialGradID_3452) " d="M0.45,-1.35L0.2 -1.4L0.1 -1.4L0.1 -1.5L0.8 -1.6L0.85 -1.55Q0.8 -1.4 0.45 -1.35" />
<radialGradient
id="RadialGradID_3453" gradientUnits="userSpaceOnUse" gradientTransform="matrix(0.00112915, 0.000335693, -0.000274658, 0.000869751, -0.55, 1.05)" spreadMethod ="pad" cx="0" cy="0" r="819.2" fx="0" fy="0" >
<stop  offset="0"  style="stop-color:#FFFFFF;stop-opacity:1" />
<stop  offset="0.992157"  style="stop-color:#FA82A2;stop-opacity:0" />
</radialGradient>
<path style="fill:url(#RadialGradID_3453) " d="M-0.9,0.9L-1 1L-0.85 0.65L-0.85 0.75L-0.6 0.85L-0.5 1L-0.15 1.25L-0.4 1.4L-0.5 1.35L-0.6 1.15L-0.6 1.3L-0.9 1.15L-0.9 0.9" />
<radialGradient
id="RadialGradID_3454" gradientUnits="userSpaceOnUse" gradientTransform="matrix(0.000793457, 3.05176e-005, -4.57764e-005, 0.00109863, 0.8, 1.25)" spreadMethod ="pad" cx="0" cy="0" r="819.2" fx="0" fy="0" >
<stop  offset="0"  style="stop-color:#FFFFFF;stop-opacity:1" />
<stop  offset="0.992157"  style="stop-color:#FA82A2;stop-opacity:0" />
</radialGradient>
<path style="fill:url(#RadialGradID_3454) " d="M0.9,1.05L1.15 1.1L1 1.15L0.85 1.35L0.5 1.3L0.45 1.6L0.3 1.25L0.4 1.3Q0.4 1.1 0.65 1.15L0.9 1.05" />
</g>
</svg>
