<?xml version="1.0" encoding="utf-8"?>
<svg version="1.1" id="Layer_1"
xmlns="http://www.w3.org/2000/svg"
xmlns:xlink="http://www.w3.org/1999/xlink"
xmlns:author="http://www.sothink.com"
width="12px" height="6px"
xml:space="preserve">
<g id="386" transform="matrix(1, 0, 0, 1, 5.75, 2.75)">
<radialGradient
id="RadialGradID_3522" gradientUnits="userSpaceOnUse" gradientTransform="matrix(-4.57764e-005, -0.00186157, -0.00386047, 0.000106812, 0.15, 1.55)" spreadMethod ="pad" cx="0" cy="0" r="819.2" fx="0" fy="0" >
<stop  offset="0.054902"  style="stop-color:#DB5D43;stop-opacity:0.513725" />
<stop  offset="1"  style="stop-color:#FFEFEA;stop-opacity:0" />
</radialGradient>
<path style="fill:url(#RadialGradID_3522) " d="M0.1,0.45L1.85 0.7Q2.5 1.05 2.55 1.55L1.9 2.35L0.15 2.75L-1.5 2.5Q-2.3 2.15 -2.3 1.65Q-2.35 1.15 -1.55 0.85L0.1 0.45" />
<radialGradient
id="RadialGradID_3523" gradientUnits="userSpaceOnUse" gradientTransform="matrix(0.00221252, -3.05176e-005, 3.05176e-005, 0.00221252, -4, -1.05)" spreadMethod ="pad" cx="0" cy="0" r="819.2" fx="0" fy="0" >
<stop  offset="0.0470588"  style="stop-color:#C52929;stop-opacity:0.580392" />
<stop  offset="1"  style="stop-color:#FFEFEA;stop-opacity:0" />
</radialGradient>
<path style="fill:url(#RadialGradID_3523) " d="M-5.75,-1Q-5.75 -1.7 -5.25 -2.25Q-4.75 -2.75 -4.05 -2.75Q-3.35 -2.75 -2.85 -2.25Q-2.3 -1.75 -2.3 -1.05Q-2.3 -0.35 -2.8 0.15Q-3.3 0.7 -4 0.7Q-4.7 0.7 -5.2 0.2Q-5.7 -0.3 -5.75 -1" />
<radialGradient
id="RadialGradID_3524" gradientUnits="userSpaceOnUse" gradientTransform="matrix(0.00221252, -3.05176e-005, 3.05176e-005, 0.00221252, 4.05, -1)" spreadMethod ="pad" cx="0" cy="0" r="819.2" fx="0" fy="0" >
<stop  offset="0.0470588"  style="stop-color:#C52929;stop-opacity:0.580392" />
<stop  offset="1"  style="stop-color:#FFEFEA;stop-opacity:0" />
</radialGradient>
<path style="fill:url(#RadialGradID_3524) " d="M5.2,-2.2Q5.75 -1.7 5.75 -1Q5.75 -0.3 5.25 0.2Q4.75 0.75 4.05 0.75Q3.3 0.75 2.85 0.25Q2.35 -0.25 2.3 -0.95Q2.3 -1.65 2.75 -2.2Q3.25 -2.7 4 -2.7Q4.7 -2.7 5.2 -2.2" />
<radialGradient
id="RadialGradID_3525" gradientUnits="userSpaceOnUse" gradientTransform="matrix(0.00564575, 0, 0, 0.00238037, 0.1, 0.15)" spreadMethod ="pad" cx="0" cy="0" r="819.2" fx="0" fy="0" >
<stop  offset="0"  style="stop-color:#F33F3F;stop-opacity:1" />
<stop  offset="1"  style="stop-color:#FDD0D0;stop-opacity:0.501961" />
</radialGradient>
<path style="fill:url(#RadialGradID_3525) " d="M-3.5,-1.05L-3.3 -1.05L-3.25 -1L-3.15 -1L-2.4 -0.85L-1.5 -0.75L-0.65 -0.8L-0.1 -0.7L0.05 -0.65L0.15 -0.6L0.25 -0.65L0.35 -0.7L0.9 -0.8L1.75 -0.75L2.65 -0.85L3.4 -1L3.6 -1L3.8 -1L3.85 -0.9L3.65 -0.65L3.1 -0.05L2.5 0.6L2.1 0.9L1.7 1.15L1.15 1.25L0.35 1.4L-0.35 1.4L-0.85 1.25L-1.3 1.15L-1.7 0.95L-2.05 0.7L-2.35 0.45L-2.75 0.15L-3.65 -0.6Q-4.3 -1.15 -4 -1.1L-3.5 -1.05" />
<radialGradient
id="RadialGradID_3526" gradientUnits="userSpaceOnUse" gradientTransform="matrix(0.00114441, 0, 0, 0.00105286, 1.6, 0.4)" spreadMethod ="pad" cx="0" cy="0" r="819.2" fx="0" fy="0" >
<stop  offset="0"  style="stop-color:#FFFFFF;stop-opacity:0.8" />
<stop  offset="1"  style="stop-color:#FFFFFF;stop-opacity:0" />
</radialGradient>
<path style="fill:url(#RadialGradID_3526) " d="M1.9,0.45L1.65 0.55L1.5 0.7L1.3 0.75L1.2 0.7L0.95 0.8L0.95 0.6L1.25 0.45L1.25 0.5L1.3 0.5L1.75 0.35L2.45 0.1L2.15 0.3L1.9 0.45" />
<radialGradient
id="RadialGradID_3527" gradientUnits="userSpaceOnUse" gradientTransform="matrix(0.0010376, 0, 0, 0.000976563, 0.9, -0.45)" spreadMethod ="pad" cx="0" cy="0" r="819.2" fx="0" fy="0" >
<stop  offset="0"  style="stop-color:#FFFFFF;stop-opacity:0.8" />
<stop  offset="1"  style="stop-color:#FFFFFF;stop-opacity:0" />
</radialGradient>
<path style="fill:url(#RadialGradID_3527) " d="M0.35,-0.5L0.5 -0.6L0.7 -0.65L1.4 -0.6L1.7 -0.6L1 -0.45L0.6 -0.4L0.35 -0.3L0.2 -0.35L0.35 -0.5" />
<radialGradient
id="RadialGradID_3528" gradientUnits="userSpaceOnUse" gradientTransform="matrix(0.00157166, 0, 0, 0.00146484, -0.55, 0.6)" spreadMethod ="pad" cx="0" cy="0" r="819.2" fx="0" fy="0" >
<stop  offset="0"  style="stop-color:#FFFFFF;stop-opacity:0.8" />
<stop  offset="1"  style="stop-color:#FFFFFF;stop-opacity:0" />
</radialGradient>
<path style="fill:url(#RadialGradID_3528) " d="M-1.65,0.2L-1.55 0.3L-1.35 0.35L-0.95 0.5L-0.45 0.6L-0.2 0.55L0.1 0.65L0.5 0.7L0.4 0.8Q0.35 0.75 0.25 0.85L0.1 0.9L0 0.85L-0.15 1L-0.25 1.1L-0.3 0.9Q-0.3 0.8 -0.45 0.8L-0.75 0.9L-0.85 0.8L-0.95 0.85L-0.95 0.65L-1.15 0.6L-1.3 0.65L-1.45 0.7L-1.5 0.65L-1.55 0.55L-1.8 0.45L-1.75 0.35L-1.75 0.25L-1.65 0.2" />
<radialGradient
id="RadialGradID_3529" gradientUnits="userSpaceOnUse" gradientTransform="matrix(0.00527954, 0, 0, 0.00688171, 0.05, 0.25)" spreadMethod ="pad" cx="0" cy="0" r="819.2" fx="0" fy="0" >
<stop  offset="0.760784"  style="stop-color:#A52727;stop-opacity:1" />
<stop  offset="1"  style="stop-color:#652323;stop-opacity:1" />
</radialGradient>
<path style="fill:url(#RadialGradID_3529) " d="M-3.9,-1.3L-3.3 -1L-3.15 -0.9L-2.9 -0.75L-2 -0.45L-0.85 -0.15L-0.5 0L-0.15 0.15L0.45 0.05L1.15 -0.25L2.05 -0.45L3.2 -0.9L3.45 -1.05L3.95 -1.3Q3.95 -1.3 4.05 -1.25L4.2 -1Q4.2 -0.8 3.65 -0.75L3.3 -0.6L2 -0.15L1.15 0L0.7 0.2L0.35 0.35L-0.3 0.35L-0.45 0.3L-0.7 0.2L-2 -0.15Q-2.5 -0.25 -3.25 -0.65L-3.6 -0.75Q-4.15 -0.8 -4.15 -1L-4 -1.25L-3.9 -1.3" />
</g>
</svg>
