<?xml version="1.0" encoding="utf-8"?>
<svg version="1.1" id="Layer_1"
xmlns="http://www.w3.org/2000/svg"
xmlns:xlink="http://www.w3.org/1999/xlink"
xmlns:author="http://www.sothink.com"
width="8px" height="5px"
xml:space="preserve">
<g id="379" transform="matrix(1, 0, 0, 1, 3.95, 2.3)">
<radialGradient
id="RadialGradID_3472" gradientUnits="userSpaceOnUse" gradientTransform="matrix(0.00354004, 0, 0, 0.0014801, -0.1, 0.5)" spreadMethod ="pad" cx="0" cy="0" r="819.2" fx="0" fy="0" >
<stop  offset="0.290196"  style="stop-color:#E76254;stop-opacity:0.831373" />
<stop  offset="0.933333"  style="stop-color:#FFEEDD;stop-opacity:0.333333" />
</radialGradient>
<path style="fill:url(#RadialGradID_3472) " d="M-1.8,0.55L-1.35 0.75L-0.3 0.85L1.45 0.65L2.35 -0.15L2.45 -0.15L2.45 0.25L2.1 0.8L0.55 2.2L-0.2 2.35L-0.95 2.2L-1.45 1.75L-1.65 1.4L-2.5 0.7L-2.9 0.15L-2.85 -0.25L-1.8 0.55" />
<radialGradient
id="RadialGradID_3473" gradientUnits="userSpaceOnUse" gradientTransform="matrix(0.00411987, 0, 0, 0.00198364, 0, -0.7)" spreadMethod ="pad" cx="0" cy="0" r="819.2" fx="0" fy="0" >
<stop  offset="0"  style="stop-color:#EB2E54;stop-opacity:0.760784" />
<stop  offset="1"  style="stop-color:#FCB6B6;stop-opacity:0.631373" />
</radialGradient>
<path style="fill:url(#RadialGradID_3473) " d="M2.9,-0.2Q2.5 0.45 1.6 0.75L-0.1 1.05L-1.8 0.75L-2.9 -0.05L-3.55 -1.5L-3.45 -1.85L-3 -2L-1 -2.3L-0.4 -2.2L0.4 -2.2L1 -2.3L3 -2L3.5 -1.85L3.55 -1.45L2.9 -0.2" />
<linearGradient
id="LinearGradID_3474" gradientUnits="userSpaceOnUse" gradientTransform="matrix(0.00132751, 0.000198364, 0.00012207, -0.000854492, -0.65, -0.2)" spreadMethod ="pad" x1="-819.2" y1="0" x2="819.2" y2="0" >
<stop  offset="0" style="stop-color:#FFFFFF;stop-opacity:1" />
<stop  offset="1" style="stop-color:#FFFFFF;stop-opacity:0" />
</linearGradient>
<path style="fill:url(#LinearGradID_3474) " d="M0.2,-0.05L0.25 0.25L-0.15 0.5Q-1 0.65 -1.75 0.2L-2.4 -0.65L-1.7 -0.15L0.2 -0.05" />
<radialGradient
id="RadialGradID_3475" gradientUnits="userSpaceOnUse" gradientTransform="matrix(-0.000900269, 0.000183105, 0.000137329, 0.000778198, 0.3, -1.55)" spreadMethod ="pad" cx="0" cy="0" r="819.2" fx="210508" fy="0" >
<stop  offset="0"  style="stop-color:#FFFFFF;stop-opacity:0.572549" />
<stop  offset="1"  style="stop-color:#FFFFFF;stop-opacity:0" />
</radialGradient>
<path style="fill:url(#RadialGradID_3475) " d="M0.2,-1.4L0.3 -1.65L0.65 -1.8L1 -1.8L1.5 -1.55L1.7 -1.3L1 -1.45L0.25 -1.2L0.2 -1.4" />
<radialGradient
id="RadialGradID_3476" gradientUnits="userSpaceOnUse" gradientTransform="matrix(-0.000732422, 6.10352e-005, -9.15527e-005, 0.000427246, 1.25, 0)" spreadMethod ="pad" cx="0" cy="0" r="819.2" fx="0" fy="0" >
<stop  offset="0"  style="stop-color:#FFFFFF;stop-opacity:1" />
<stop  offset="1"  style="stop-color:#FFFFFF;stop-opacity:0" />
</radialGradient>
<path style="fill:url(#RadialGradID_3476) " d="M1.7,-0.25L1.85 -0.1L1.25 0.4L0.6 0.35L0.6 0.15Q1 -0.35 1.7 -0.25" />
<radialGradient
id="RadialGradID_3477" gradientUnits="userSpaceOnUse" gradientTransform="matrix(0.00357056, 0, 0, 0.00357056, -0.05, -0.95)" spreadMethod ="pad" cx="0" cy="0" r="819.2" fx="0" fy="0" >
<stop  offset="0"  style="stop-color:#FCB6B6;stop-opacity:1" />
<stop  offset="0.909804"  style="stop-color:#7C0C0C;stop-opacity:1" />
</radialGradient>
<path style="fill:url(#RadialGradID_3477) " d="M-3.1,-1.45L-2.95 -1.6L-0.6 -1.2L1.9 -1.5L2.05 -1.45L2.65 -1.6L2.8 -1.45L2.4 -1L1.9 -0.7L0.2 -0.35L0 -0.4L-0.2 -0.35L-0.75 -0.35L-2.1 -0.7L-3.1 -1.4L-3.1 -1.45" />
<path style="fill:#FFFFFF;fill-opacity:1" d="M-2,-1.05L-2.2 -1.4L-2.1 -1.55L-1.6 -1.4L-1.5 -1.35L-1.5 -1.3L0.95 -1.3L2.1 -1.55L2.2 -1.5Q2.05 -0.75 1.15 -0.65L-1.35 -0.65L-2 -1.05" />
<path style="fill:#C44444;fill-opacity:1" d="M-0.35,-1.15L-2.95 -1.5L-2.25 -0.9L-0.6 -0.5L0.5 -0.5Q1.4 -0.45 2.1 -0.9L2.75 -1.5L0.2 -1.15L-0.35 -1.15M-0.05,-1.3L3.35 -1.9L3.9 -1.9L4 -1.8L3.95 -1.7L2.35 -0.8Q1.55 -0.3 0.35 -0.3L-0.45 -0.3Q-1.95 -0.3 -2.5 -0.8L-3.45 -1.45L-3.85 -1.65Q-4.05 -1.8 -3.85 -1.9L-3.4 -1.9L-0.1 -1.3L-0.05 -1.3" />
</g>
</svg>
