<?xml version="1.0" encoding="utf-8"?>
<svg version="1.1" id="Layer_1"
xmlns="http://www.w3.org/2000/svg"
xmlns:xlink="http://www.w3.org/1999/xlink"
xmlns:author="http://www.sothink.com"
width="7px" height="4px"
xml:space="preserve">
<g id="367" transform="matrix(1, 0, 0, 1, 3.15, 1.7)">
<radialGradient
id="RadialGradID_3392" gradientUnits="userSpaceOnUse" gradientTransform="matrix(0.00338745, 0, 0, 0.00109863, 0.15, 0.9)" spreadMethod ="pad" cx="0" cy="0" r="819.2" fx="0" fy="0" >
<stop  offset="0"  style="stop-color:#E62258;stop-opacity:0.501961" />
<stop  offset="1"  style="stop-color:#FFECD9;stop-opacity:0.262745" />
</radialGradient>
<path style="fill:url(#RadialGradID_3392) " d="M1.55,1.55L-0.1 1.75L-1.55 1.5L-2.2 0.5L-2.55 -0.45L-1.45 0.35L1.5 0.35L2.55 -0.35L2.2 0.65L1.55 1.55" />
<radialGradient
id="RadialGradID_3393" gradientUnits="userSpaceOnUse" gradientTransform="matrix(0.00421143, 0, 0, 0.00421143, 0.1, 0.15)" spreadMethod ="pad" cx="0" cy="0" r="819.2" fx="0" fy="0" >
<stop  offset="0.203922"  style="stop-color:#FEB8C5;stop-opacity:0.513725" />
<stop  offset="1"  style="stop-color:#FB84A5;stop-opacity:1" />
</radialGradient>
<path style="fill:url(#RadialGradID_3393) " d="M3.2,-0.55L2.9 -0.05L2.35 0.4L1.7 0.8L0.05 1L-1.65 0.8L-2.3 0.4L-2.85 -0.05L-3.15 -0.55L-2.5 -1.2L-1.3 -1.7L-0.55 -1.6L-0.25 -1.45L0.3 -1.45L1.35 -1.7Q2 -1.65 2.55 -1.2L3.2 -0.55" />
<path style="fill:#EA7373;fill-opacity:1" d="M0,1Q1.4 1.05 2.25 0.5Q1.4 1.15 0.1 1.15Q-1.2 1.2 -2.2 0.5L0 1" />
<linearGradient
id="LinearGradID_3394" gradientUnits="userSpaceOnUse" gradientTransform="matrix(0.00135803, -0.000366211, -0.000213623, -0.000946045, 0.05, 0)" spreadMethod ="pad" x1="-819.2" y1="0" x2="819.2" y2="0" >
<stop  offset="0" style="stop-color:#FFFFFF;stop-opacity:1" />
<stop  offset="1" style="stop-color:#FFFFFF;stop-opacity:0" />
</linearGradient>
<path style="fill:url(#LinearGradID_3394) " d="M1.2,0.4L0.65 0.65L-1.1 0.55Q-1.8 0.4 -2.1 -0.25Q-1.95 -0.05 -1.25 0.15L0.2 0.3L1.05 0.1L1.2 0.4" />
<radialGradient
id="RadialGradID_3395" gradientUnits="userSpaceOnUse" gradientTransform="matrix(-0.00120544, 0.000244141, 0.000183105, 0.0010376, 0.05, -0.9)" spreadMethod ="pad" cx="0" cy="0" r="819.2" fx="210508" fy="0" >
<stop  offset="0"  style="stop-color:#FFFFFF;stop-opacity:0.572549" />
<stop  offset="1"  style="stop-color:#FFFFFF;stop-opacity:0" />
</radialGradient>
<path style="fill:url(#RadialGradID_3395) " d="M-0.1,-0.7L0.1 -1.05L0.55 -1.2L1 -1.25L1.7 -0.9L1.95 -0.55L1 -0.75L0.05 -0.4L-0.1 -0.7" />
<radialGradient
id="RadialGradID_3396" gradientUnits="userSpaceOnUse" gradientTransform="matrix(-0.000411987, 0.000228882, 4.57764e-005, 0.000274658, 1.9, 0.1)" spreadMethod ="pad" cx="0" cy="0" r="819.2" fx="0" fy="0" >
<stop  offset="0"  style="stop-color:#FFFFFF;stop-opacity:1" />
<stop  offset="1"  style="stop-color:#FFFFFF;stop-opacity:0" />
</radialGradient>
<path style="fill:url(#RadialGradID_3396) " d="M1.45,0.3L1.4 0.2L1.45 0.1L2.15 -0.25L2.25 -0.15L2.15 0.1L1.9 0.25L1.65 0.35L1.45 0.3" />
<path style="fill:#C05858;fill-opacity:1" d="M-2.05,-0.5L-0.85 -0.75L-0.45 -0.7L0.45 -0.7L0.85 -0.75L2.1 -0.5L0.75 -0.55L0.05 -0.4L-0.05 -0.4L-0.45 -0.45L-0.7 -0.55L-2.05 -0.5" />
</g>
</svg>
