<?xml version="1.0" encoding="utf-8"?>
<svg version="1.1" id="Layer_1"
xmlns="http://www.w3.org/2000/svg"
xmlns:xlink="http://www.w3.org/1999/xlink"
xmlns:author="http://www.sothink.com"
width="7px" height="5px"
xml:space="preserve">
<g id="371" transform="matrix(1, 0, 0, 1, 3.25, 2)">
<radialGradient
id="RadialGradID_3418" gradientUnits="userSpaceOnUse" gradientTransform="matrix(-3.05176e-005, -0.00157166, -0.00274658, 7.62939e-005, -0.05, 1)" spreadMethod ="pad" cx="0" cy="0" r="819.2" fx="0" fy="0" >
<stop  offset="0.0470588"  style="stop-color:#DA6969;stop-opacity:0.513725" />
<stop  offset="1"  style="stop-color:#FFEFEA;stop-opacity:0" />
</radialGradient>
<path style="fill:url(#RadialGradID_3418) " d="M-1.25,0.4Q-0.85 0.05 -0.1 0.05L1.15 0.35Q1.65 0.6 1.65 1L1.2 1.75L-0.05 2.05L-1.25 1.85Q-1.8 1.5 -1.8 1.1Q-1.8 0.7 -1.25 0.4" />
<radialGradient
id="RadialGradID_3419" gradientUnits="userSpaceOnUse" gradientTransform="matrix(0.000946045, -1.52588e-005, 1.52588e-005, 0.00106812, -2.45, -0.2)" spreadMethod ="pad" cx="0" cy="0" r="819.2" fx="0" fy="0" >
<stop  offset="0.0470588"  style="stop-color:#C52929;stop-opacity:0.580392" />
<stop  offset="1"  style="stop-color:#FFEFEA;stop-opacity:0" />
</radialGradient>
<path style="fill:url(#RadialGradID_3419) " d="M-1.9,0.4L-2.45 0.65L-3 0.45L-3.25 -0.15L-3 -0.75L-2.5 -1.05L-1.95 -0.8L-1.75 -0.2L-1.9 0.4" />
<radialGradient
id="RadialGradID_3420" gradientUnits="userSpaceOnUse" gradientTransform="matrix(0.000946045, -1.52588e-005, 1.52588e-005, 0.00106812, 2.5, -0.1)" spreadMethod ="pad" cx="0" cy="0" r="819.2" fx="0" fy="0" >
<stop  offset="0.0470588"  style="stop-color:#C52929;stop-opacity:0.580392" />
<stop  offset="1"  style="stop-color:#FFEFEA;stop-opacity:0" />
</radialGradient>
<path style="fill:url(#RadialGradID_3420) " d="M1.95,0.55L1.75 -0.05L1.95 -0.65L2.5 -0.9L3.05 -0.65L3.25 -0.05L3.05 0.5L2.5 0.75L1.95 0.55" />
<radialGradient
id="RadialGradID_3421" gradientUnits="userSpaceOnUse" gradientTransform="matrix(-6.10352e-005, -0.00230408, -0.00415039, 9.15527e-005, 0, 0.55)" spreadMethod ="pad" cx="0" cy="0" r="819.2" fx="0" fy="0" >
<stop  offset="0.0470588"  style="stop-color:#DF6480;stop-opacity:0.501961" />
<stop  offset="1"  style="stop-color:#FFEFEA;stop-opacity:0" />
</radialGradient>
<path style="fill:url(#RadialGradID_3421) " d="M1.85,-0.5Q2.55 -0.1 2.6 0.5Q2.65 1.1 1.9 1.55L0.05 2.05L-1.75 1.65Q-2.55 1.2 -2.6 0.6Q-2.6 0 -1.8 -0.4L0 -0.85Q1.05 -0.95 1.85 -0.5" />
<radialGradient
id="RadialGradID_3422" gradientUnits="userSpaceOnUse" gradientTransform="matrix(0.00727844, 0, 0, 0.00325012, 0.1, 0.1)" spreadMethod ="pad" cx="0" cy="0" r="819.2" fx="0" fy="0" >
<stop  offset="0"  style="stop-color:#F99FA9;stop-opacity:1" />
<stop  offset="0.156863"  style="stop-color:#F15262;stop-opacity:1" />
<stop  offset="0.886275"  style="stop-color:#FEEDE7;stop-opacity:1" />
<stop  offset="1"  style="stop-color:#FEEDE7;stop-opacity:0.501961" />
</radialGradient>
<path style="fill:url(#RadialGradID_3422) " d="M-2.6,-0.4L-2.6 -0.45L-2.55 -0.5L-2.6 -0.4" />
<radialGradient
id="RadialGradID_3423" gradientUnits="userSpaceOnUse" gradientTransform="matrix(0.00634766, 0, 0, 0.00335693, 0, 0.7)" spreadMethod ="pad" cx="0" cy="0" r="819.2" fx="0" fy="0" >
<stop  offset="0"  style="stop-color:#FEEDE7;stop-opacity:0.501961" />
<stop  offset="0.266667"  style="stop-color:#FEEDE7;stop-opacity:1" />
<stop  offset="0.784314"  style="stop-color:#F05376;stop-opacity:1" />
<stop  offset="1"  style="stop-color:#F99FA9;stop-opacity:1" />
</radialGradient>
<path style="fill:url(#RadialGradID_3423) " d="M0.75,-1.05L1.6 -0.8L1.7 -0.75L2 -0.55L2.05 -0.5L2.15 -0.45L2.2 -0.45L2.45 -0.35L2.6 0L1.75 0.1L0.45 -0.1L-0.55 -0.1L-1.55 0.1L-2.35 0.15L-2.6 -0.05L-2.5 -0.25L-2.35 -0.35L-2.3 -0.35L-1.85 -0.7L-1.75 -0.75L-0.25 -1.1L0.45 -1.1L0.65 -1.05L0.75 -1.05" />
<radialGradient
id="RadialGradID_3424" gradientUnits="userSpaceOnUse" gradientTransform="matrix(0.00727844, 0, 0, 0.00325012, 0.15, 0)" spreadMethod ="pad" cx="0" cy="0" r="819.2" fx="0" fy="0" >
<stop  offset="0"  style="stop-color:#F99FA9;stop-opacity:1" />
<stop  offset="0.156863"  style="stop-color:#F0537E;stop-opacity:1" />
<stop  offset="0.886275"  style="stop-color:#FEEDE7;stop-opacity:1" />
<stop  offset="1"  style="stop-color:#FEEDE7;stop-opacity:0.501961" />
</radialGradient>
<path style="fill:url(#RadialGradID_3424) " d="M0.45,-2L1.45 -1.65L2.05 -1.05L2.5 -0.2L2.4 -0.05L2.3 -0.1L2.05 -0.3L1.9 -0.45L1.75 -0.5L1.35 -0.7L0.9 -0.85L0.2 -0.85L-0.1 -0.8L-0.35 -0.8L-0.8 -0.85L-2.15 -0.2L-2.25 -0.2L-2.5 -0.05L-2.55 -0.05L-2.55 -0.1L-2.55 -0.2L-2.5 -0.25L-2.45 -0.35L-2.5 -0.35L-2.45 -0.55L-2 -1.15L-1.1 -1.85L-0.4 -2L0 -1.85L0.45 -2" />
<radialGradient
id="RadialGradID_3425" gradientUnits="userSpaceOnUse" gradientTransform="matrix(0.00126648, -0.000488281, 0.000259399, 0.000686646, -0.65, -0.55)" spreadMethod ="pad" cx="0" cy="0" r="819.2" fx="0" fy="0" >
<stop  offset="0"  style="stop-color:#FFFFFF;stop-opacity:1" />
<stop  offset="0.992157"  style="stop-color:#FA82A2;stop-opacity:0" />
</radialGradient>
<path style="fill:url(#RadialGradID_3425) " d="M-0.3,-0.45L-0.5 -0.55L-0.45 -0.4L-0.85 -0.3L-1 -0.45L-1.05 -0.3L-1.15 -0.65L-1.05 -0.55L-0.55 -0.65L-0.1 -0.7L-0.25 -0.45L-0.3 -0.45" />
<radialGradient
id="RadialGradID_3426" gradientUnits="userSpaceOnUse" gradientTransform="matrix(0.000701904, 0.000152588, -0.000259399, 0.00115967, 0.7, -1.75)" spreadMethod ="pad" cx="0" cy="0" r="819.2" fx="0" fy="0" >
<stop  offset="0"  style="stop-color:#FFFFFF;stop-opacity:1" />
<stop  offset="0.992157"  style="stop-color:#FA82A2;stop-opacity:0" />
</radialGradient>
<path style="fill:url(#RadialGradID_3426) " d="M0.1,-1.45L0.05 -1.55L0.2 -1.8L0.45 -1.85Q1 -2 1.25 -1.55L0.9 -1.6L0.1 -1.45" />
<radialGradient
id="RadialGradID_3427" gradientUnits="userSpaceOnUse" gradientTransform="matrix(0.000808716, 0.000427246, -0.000411987, 0.000793457, 0.7, -0.5)" spreadMethod ="pad" cx="0" cy="0" r="819.2" fx="0" fy="0" >
<stop  offset="0"  style="stop-color:#FFFFFF;stop-opacity:1" />
<stop  offset="0.992157"  style="stop-color:#FA82A2;stop-opacity:0" />
</radialGradient>
<path style="fill:url(#RadialGradID_3427) " d="M0.9,-0.6L1.1 -0.45L1 -0.5L0.75 -0.45L0.4 -0.6L0.2 -0.45L0.2 -0.8L0.25 -0.7L0.9 -0.6" />
<path style="fill:#B5204D;fill-opacity:1" d="M-2.45,0.05L-2.5 0.1L-2.65 0.05L-2.8 -0.25L-2.6 -0.25Q-2.6 0.1 -1.85 -0.45L-0.9 -1L-0.6 -1.1L-0.05 -1L0.05 -1L0.6 -1.1L0.9 -1L1.9 -0.45Q2.6 0.1 2.6 -0.25L2.8 -0.25L2.7 0.05L2.5 0.1L2.45 0.05L1.95 -0.35L0.5 -0.9L0 -0.8L-0.5 -0.9Q-0.95 -0.95 -1.9 -0.35L-2.45 0.05" />
<path style="fill:#E77E7E;fill-opacity:0.701961" d="M1.05,0.15L-1.05 0.1L0.25 -0.2Q0.85 -0.15 1.05 0.15" />
</g>
</svg>
