<?xml version="1.0" encoding="utf-8"?>
<svg version="1.1" id="Layer_1"
xmlns="http://www.w3.org/2000/svg"
xmlns:xlink="http://www.w3.org/1999/xlink"
xmlns:author="http://www.sothink.com"
width="7px" height="6px"
xml:space="preserve">
<g id="380" transform="matrix(1, 0, 0, 1, 3.35, 2.75)">
<radialGradient
id="RadialGradID_3478" gradientUnits="userSpaceOnUse" gradientTransform="matrix(-4.57764e-005, -0.00175476, -0.00364685, 9.15527e-005, 0, 1.6)" spreadMethod ="pad" cx="0" cy="0" r="819.2" fx="0" fy="0" >
<stop  offset="0.0470588"  style="stop-color:#CF4949;stop-opacity:0.662745" />
<stop  offset="1"  style="stop-color:#FFEFEA;stop-opacity:0" />
</radialGradient>
<path style="fill:url(#RadialGradID_3478) " d="M2.3,1.55L1.65 2.35L0.05 2.75L-1.55 2.45Q-2.25 2.15 -2.25 1.7Q-2.3 1.2 -1.6 0.9Q-0.95 0.55 0 0.55L1.65 0.85Q2.25 1.1 2.3 1.55" />
<radialGradient
id="RadialGradID_3479" gradientUnits="userSpaceOnUse" gradientTransform="matrix(0.00553894, 0, 0, 0.00186157, -0.25, -2.4)" spreadMethod ="pad" cx="0" cy="0" r="819.2" fx="0" fy="0" >
<stop  offset="0.14902"  style="stop-color:#FE5A5A;stop-opacity:0.701961" />
<stop  offset="0.545098"  style="stop-color:#FF9775;stop-opacity:0.501961" />
<stop  offset="1"  style="stop-color:#FFF7F4;stop-opacity:0" />
</radialGradient>
<path style="fill:url(#RadialGradID_3479) " d="M2.6,-2.6L2.4 -2.55L-2.1 -2L-2.2 -2L-2.55 -2L-2.7 -2.05L-3.05 -2.15L-3.35 -2.55L-3.3 -2.75L-3.25 -2.7Q-2.8 -2.2 -1.85 -2.2L0.05 -2.35L2 -2.75L2.8 -2.6L2.6 -2.6" />
<radialGradient
id="RadialGradID_3480" gradientUnits="userSpaceOnUse" gradientTransform="matrix(0.00843811, 0, 0, 0.00843811, -0.2, -1)" spreadMethod ="pad" cx="0" cy="0" r="819.2" fx="0" fy="0" >
<stop  offset="0.14902"  style="stop-color:#F40202;stop-opacity:0.701961" />
<stop  offset="0.545098"  style="stop-color:#FF9775;stop-opacity:0.501961" />
<stop  offset="1"  style="stop-color:#FFF7F4;stop-opacity:0" />
</radialGradient>
<path style="fill:url(#RadialGradID_3480) " d="M-2.6,-0.25L-2.7 0.1L-2.6 0.6L-2.3 0.9L-2.85 0.6L-3 0.5L-3 0.45L-3.1 0.1L-2.75 -0.7L-2.75 -0.8L-2.7 -0.8L-2.7 -1L-2.75 -1.6L-2.7 -2.05L-2.55 -2L-2.2 -2L-2.25 -1.95L-2.3 -1.95L-2.4 -1.8L-2.55 -1.45L-2.55 -0.8L-2.6 -0.45L-2.6 -0.25M2.75,0.5L2.4 0.75L2.7 0.25L2.9 -0.35L2.9 -1.45L2.75 -2.2L2.4 -2.55L2.6 -2.6Q3.05 -2.4 3.2 -1.4L3.35 -0.45L3 0.15L2.75 0.5" />
<linearGradient
id="LinearGradID_3481" gradientUnits="userSpaceOnUse" gradientTransform="matrix(0, -0.00137329, 0.00212097, 0, -0.25, 0.75)" spreadMethod ="pad" x1="-819.2" y1="0" x2="819.2" y2="0" >
<stop  offset="0" style="stop-color:#CCCCCC;stop-opacity:1" />
<stop  offset="0.545098" style="stop-color:#EAEAEA;stop-opacity:0.662745" />
<stop  offset="1" style="stop-color:#FFFFFF;stop-opacity:1" />
</linearGradient>
<path style="fill:url(#LinearGradID_3481) " d="M0.8,0.95L-2.6 0.6L-2.7 0.1L-2.6 -0.25L-2.6 -0.45L-2.5 -0.5L-1.4 -0.65L1.2 -0.65L1.7 -0.8L0.75 -0.7L0.15 -0.8L-0.9 -0.75Q-2.4 -0.75 -2.4 -1.4L-2.3 -1.95L-2.25 -1.95L-2.2 -2L-2.1 -2L2.4 -2.55L2.75 -2.2L2.9 -1.45L2.9 -0.35L2.7 0.25L2.4 0.75L0.8 0.95" />
<path style="fill:#CCCCCC;fill-opacity:1" d="M-2.4,-1.4Q-2.4 -0.75 -0.9 -0.75L0.15 -0.8L0.75 -0.7L1.7 -0.8L1.2 -0.65L-1.4 -0.65L-2.5 -0.5L-2.6 -0.45L-2.55 -0.8L-2.55 -1.45L-2.4 -1.8L-2.3 -1.95L-2.4 -1.4" />
<radialGradient
id="RadialGradID_3482" gradientUnits="userSpaceOnUse" gradientTransform="matrix(0.000747681, 0, 0, 0.00152588, -2.9, -1.65)" spreadMethod ="pad" cx="0" cy="0" r="819.2" fx="0" fy="0" >
<stop  offset="0.14902"  style="stop-color:#FE5A5A;stop-opacity:0.701961" />
<stop  offset="0.545098"  style="stop-color:#FF9775;stop-opacity:0.501961" />
<stop  offset="1"  style="stop-color:#FFF7F4;stop-opacity:0" />
</radialGradient>
<path style="fill:url(#RadialGradID_3482) " d="M-2.75,-1.6L-2.7 -1L-2.7 -0.8L-2.75 -0.8L-3.05 -2.15L-2.7 -2.05L-2.75 -1.6" />
<radialGradient
id="RadialGradID_3483" gradientUnits="userSpaceOnUse" gradientTransform="matrix(0.00468445, 0, 0, 0.00180054, -0.05, 0.6)" spreadMethod ="pad" cx="0" cy="0" r="819.2" fx="0" fy="0" >
<stop  offset="0.14902"  style="stop-color:#FE5A5A;stop-opacity:0.701961" />
<stop  offset="0.545098"  style="stop-color:#FF9775;stop-opacity:0.501961" />
<stop  offset="1"  style="stop-color:#FFF7F4;stop-opacity:0" />
</radialGradient>
<path style="fill:url(#RadialGradID_3483) " d="M-2.1,0.95L-0.2 1.2L2.4 0.75L2.75 0.5L3 0.15L3.05 0.2Q2.8 0.9 1.95 1.3L-0.15 1.75L-1.75 1.65Q-2.8 1.4 -3 0.5L-2.85 0.6L-2.3 0.9L-2.1 0.95M-0.75,1.4L-0.85 1.35L-0.95 1.4L-1 1.45L-0.95 1.45L-0.85 1.5L-0.75 1.45L-0.7 1.45L-0.75 1.4M-1.45,1.25L-1.65 1.3L-1.7 1.4L-1.65 1.45L-1.45 1.5L-1.25 1.45L-1.15 1.4L-1.25 1.3L-1.45 1.25" />
<radialGradient
id="RadialGradID_3484" gradientUnits="userSpaceOnUse" gradientTransform="matrix(0.00109863, -0.000289917, 0.000778198, 0.00289917, 3, -1.5)" spreadMethod ="pad" cx="0" cy="0" r="819.2" fx="0" fy="0" >
<stop  offset="0.14902"  style="stop-color:#FE5A5A;stop-opacity:0.701961" />
<stop  offset="0.545098"  style="stop-color:#FF9775;stop-opacity:0.501961" />
<stop  offset="1"  style="stop-color:#FFF7F4;stop-opacity:0" />
</radialGradient>
<path style="fill:url(#RadialGradID_3484) " d="M3.2,-1.4Q3.05 -2.4 2.6 -2.6L2.8 -2.6L3.25 -1.75L3.4 -0.8L3.4 -0.65L3.35 -0.45L3.2 -1.4" />
<path style="fill:#B23F3F;fill-opacity:0.501961" d="M-2.3,0.9L-2.6 0.6L0.8 0.95L2.4 0.75L-0.2 1.2L-2.1 0.95L-2.3 0.9" />
<path style="fill:#FFFFFF;fill-opacity:1" d="M-0.7,1.45L-0.75 1.45L-0.85 1.5L-0.95 1.45L-1 1.45L-0.95 1.4L-0.85 1.35L-0.75 1.4L-0.7 1.45M-1.25,1.3L-1.15 1.4L-1.25 1.45L-1.45 1.5L-1.65 1.45L-1.7 1.4L-1.65 1.3L-1.45 1.25L-1.25 1.3" />
</g>
</svg>
