<?xml version="1.0" encoding="utf-8"?>
<svg version="1.1" id="Layer_1"
xmlns="http://www.w3.org/2000/svg"
xmlns:xlink="http://www.w3.org/1999/xlink"
xmlns:author="http://www.sothink.com"
width="10px" height="8px"
xml:space="preserve">
<g id="362" transform="matrix(1, 0, 0, 1, 4.9, 3.9)">
<radialGradient
id="RadialGradID_3326" gradientUnits="userSpaceOnUse" gradientTransform="matrix(0.000808716, -1.52588e-005, 1.52588e-005, 0.000808716, 0.9, -0.7)" spreadMethod ="pad" cx="0" cy="0" r="819.2" fx="0" fy="0" >
<stop  offset="0"  style="stop-color:#FFFFFF;stop-opacity:1" />
<stop  offset="0.992157"  style="stop-color:#FA82A2;stop-opacity:0" />
</radialGradient>
<path style="fill:url(#RadialGradID_3326) " d="M0.6,-0.75L1.55 -0.65L1.15 -0.65L0.3 -0.45L0.25 -0.5L0.3 -0.65L0.6 -0.75" />
<radialGradient
id="RadialGradID_3327" gradientUnits="userSpaceOnUse" gradientTransform="matrix(0.00616455, 0, 0, 0.00430298, 0.4, 0.3)" spreadMethod ="pad" cx="0" cy="0" r="819.2" fx="0" fy="0" >
<stop  offset="0"  style="stop-color:#F84B80;stop-opacity:1" />
<stop  offset="1"  style="stop-color:#FDD0D0;stop-opacity:0.501961" />
</radialGradient>
<path style="fill:url(#RadialGradID_3327) " d="M0.3,-0.65L0.25 -0.5L0.3 -0.45L1.15 -0.65L1.55 -0.65L0.6 -0.75L0.3 -0.65M3.8,-0.7L3.45 -0.65L3.05 -0.5L3 -0.5L2.8 -0.45L2.1 -0.35L1.9 -0.35L1.5 -0.3L1.2 -0.25L1.1 -0.25L0.55 -0.2L0.2 -0.2L-0.35 -0.2L-0.7 -0.2L-1.2 -0.25L-1.3 -0.25L-1.4 -0.25L-1.7 -0.25L-2.1 -0.3L-2.3 -0.3L-2.7 -0.4L-2.9 -0.45L-3.2 -0.45L-3.25 -0.45L-3.15 -0.55L-2.3 -0.6L-1.8 -0.75L-0.45 -0.9L0.95 -0.95L2.3 -0.9L3.1 -0.75L3.8 -0.7" />
<path style="fill:#E9B386;fill-opacity:1" d="M0.4,-1L0.05 -1.05L0.2 -1.1L0.5 -1.3L0.5 -1.1L0.4 -1" />
<path style="fill:#FFFFFF;fill-opacity:0" d="M0.5,-1.1L0.5 -1.3L0.2 -1.1L0.05 -1.05L0.4 -1L0.5 -1.1M-1.55,1.3Q-2.05 1.55 -2.05 1.95Q-2.05 2.4 -1.35 2.7L0.15 3L1.75 2.65Q2.35 2.3 2.35 1.85L2.1 1.4L2.1 1.35L3.45 0.1L3.85 0.2L4.4 0L4.65 -0.6L4.4 -1.15L3.85 -1.35L3.3 -1.1L3.1 -0.75L2.3 -0.9L0.95 -0.95L-0.45 -0.9L-1.8 -0.75L-2.3 -0.6L-2.55 -0.95Q-2.75 -1.2 -3.1 -1.15L-3.65 -0.95L-3.85 -0.4L-3.65 0.15L-3.05 0.4L-2.65 0.3L-1.55 1.3M4.95,-3.9L4.95 3.9L-4.9 3.9L-4.9 -3.9L4.95 -3.9" />
<radialGradient
id="RadialGradID_3328" gradientUnits="userSpaceOnUse" gradientTransform="matrix(0.00100708, -1.52588e-005, 1.52588e-005, 0.00100708, -3.1, -0.4)" spreadMethod ="pad" cx="0" cy="0" r="819.2" fx="0" fy="0" >
<stop  offset="0.0470588"  style="stop-color:#C52929;stop-opacity:0.580392" />
<stop  offset="1"  style="stop-color:#FFEFEA;stop-opacity:0" />
</radialGradient>
<path style="fill:url(#RadialGradID_3328) " d="M-3.15,-0.55L-3.25 -0.45L-3.2 -0.3L-2.65 0.3L-3.05 0.4L-3.65 0.15L-3.85 -0.4L-3.65 -0.95L-3.1 -1.15Q-2.75 -1.2 -2.55 -0.95L-2.3 -0.6L-3.15 -0.55" />
<linearGradient
id="LinearGradID_3329" gradientUnits="userSpaceOnUse" gradientTransform="matrix(0.00311279, 0, 0, 0.000747681, 0.45, 0.1)" spreadMethod ="pad" x1="-819.2" y1="0" x2="819.2" y2="0" >
<stop  offset="0" style="stop-color:#FED9D6;stop-opacity:0.921569" />
<stop  offset="0.494118" style="stop-color:#FFECD9;stop-opacity:0.611765" />
<stop  offset="1" style="stop-color:#FFE7DD;stop-opacity:1" />
</linearGradient>
<path style="fill:url(#LinearGradID_3329) " d="M-1.25,-0.05L-1.2 -0.25L-0.7 -0.2L-0.55 0L-0.35 -0.2L0.2 -0.2L0.4 0.1L0.55 -0.2L1.1 -0.25L1.2 -0.25L1.35 -0.05L1.5 -0.3L1.9 -0.35L1.95 -0.15L2 -0.1L2.1 -0.35L2.8 -0.45L3 -0.5L2.85 -0.15L2.75 -0.15L2.6 0.05L2.4 0.05L2.35 0.2L2.15 0.35L2 0.2L1.75 0.5L1.35 0.45L1.15 0.65L1.1 0.65L0.6 0.7L0.45 0.65L0.35 0.7L-0.4 0.7L-0.6 0.5L-0.8 0.65L-0.85 0.6L-1.1 0.55L-1.55 0.4L-1.65 0.1L-1.8 0.3L-2 0.2L-2.05 0.15L-2.1 -0.3L-1.7 -0.25L-1.4 -0.25L-1.3 -0.25L-1.25 -0.05" />
<path style="fill:#60130B;fill-opacity:1" d="M-2.05,0.15L-2 0.2L-3.2 -0.45L-2.9 -0.45L-2.7 -0.4L-2.35 -0.05L-2.1 0.1L-2.05 0.15" />
<path style="fill:#2E110B;fill-opacity:1" d="M-2.1,0.1L-2.35 -0.05L-2.7 -0.4L-2.3 -0.3L-2.1 0.1" />
<radialGradient
id="RadialGradID_3330" gradientUnits="userSpaceOnUse" gradientTransform="matrix(0, -0.0025177, 0.00653076, 0, 0.45, 0.65)" spreadMethod ="pad" cx="0" cy="0" r="819.2" fx="0" fy="0" >
<stop  offset="0"  style="stop-color:#F84B80;stop-opacity:1" />
<stop  offset="1"  style="stop-color:#FDD0D0;stop-opacity:0.501961" />
</radialGradient>
<path style="fill:url(#RadialGradID_3330) " d="M1.85,0.5L2.35 0.25L2.55 0.15L2.9 -0.1L3.1 -0.2L3.5 -0.45Q4.05 -0.6 3.85 -0.7Q4.15 -0.65 3.85 -0.45L3.45 0.1L2.1 1.35L2.1 1.4Q0.5 2.35 -1.35 1.4L-1.55 1.3L-2.65 0.3L-3.2 -0.3L-3.25 -0.45L-3.2 -0.45L-2 0.2L-1.8 0.3L-1.55 0.4L-1.1 0.55L-0.85 0.6L-0.8 0.65L-0.4 0.7L0.35 0.7L0.6 0.7L1.1 0.65L1.15 0.65L1.85 0.5M-0.65,1.4L-0.25 1.4L-0.25 1.25L-0.1 1.45L0 1.45L0.3 1.25L-0.25 1.15L-0.45 1.05L-0.8 1L-0.85 0.9Q-1.1 1.1 -0.95 1.3L-0.8 1.15L-0.65 1.4M0.5,1.25L0.7 1.55L0.8 1.3L1.2 1.3Q1.15 1.1 1.4 1.1L1.55 1.05L1.25 1L0.9 1.1Q0.6 1.1 0.65 1.3L0.5 1.25" />
<path style="fill:#4D170D;fill-opacity:1" d="M-2.1,0.1L-2.3 -0.3L-2.1 -0.3L-2.05 0.15L-2.1 0.1" />
<linearGradient
id="LinearGradID_3331" gradientUnits="userSpaceOnUse" gradientTransform="matrix(0.000137329, 0, 0, 0.000167847, -1.7, 0.25)" spreadMethod ="pad" x1="-819.2" y1="0" x2="819.2" y2="0" >
<stop  offset="0" style="stop-color:#C67A6D;stop-opacity:0.85098" />
<stop  offset="1" style="stop-color:#AC513C;stop-opacity:1" />
</linearGradient>
<path style="fill:url(#LinearGradID_3331) " d="M-1.8,0.3L-1.65 0.1L-1.55 0.4L-1.8 0.3" />
<linearGradient
id="LinearGradID_3332" gradientUnits="userSpaceOnUse" gradientTransform="matrix(0.000137329, 0, 0, 4.57764e-005, 0.45, 0.7)" spreadMethod ="pad" x1="-819.2" y1="0" x2="819.2" y2="0" >
<stop  offset="0" style="stop-color:#C67A6D;stop-opacity:0.85098" />
<stop  offset="1" style="stop-color:#AC513C;stop-opacity:1" />
</linearGradient>
<path style="fill:url(#LinearGradID_3332) " d="M0.35,0.7L0.45 0.65L0.6 0.7L0.35 0.7" />
<linearGradient
id="LinearGradID_3333" gradientUnits="userSpaceOnUse" gradientTransform="matrix(0.000213623, 0, 0, 0.000183105, 0.4, -0.3)" spreadMethod ="pad" x1="-819.2" y1="0" x2="819.2" y2="0" >
<stop  offset="0" style="stop-color:#C67A6D;stop-opacity:0.85098" />
<stop  offset="1" style="stop-color:#AC513C;stop-opacity:1" />
</linearGradient>
<path style="fill:url(#LinearGradID_3333) " d="M0.55,-0.2L0.4 0.1L0.2 -0.2L0.55 -0.2" />
<linearGradient
id="LinearGradID_3334" gradientUnits="userSpaceOnUse" gradientTransform="matrix(0.000213623, 0, 0, 0.000137329, -0.5, -0.1)" spreadMethod ="pad" x1="-819.2" y1="0" x2="819.2" y2="0" >
<stop  offset="0" style="stop-color:#C67A6D;stop-opacity:0.85098" />
<stop  offset="1" style="stop-color:#AC513C;stop-opacity:1" />
</linearGradient>
<path style="fill:url(#LinearGradID_3334) " d="M-0.35,-0.2L-0.55 0L-0.7 -0.2L-0.35 -0.2" />
<linearGradient
id="LinearGradID_3335" gradientUnits="userSpaceOnUse" gradientTransform="matrix(6.10352e-005, 0, 0, 0.000137329, -1.25, -0.15)" spreadMethod ="pad" x1="-819.2" y1="0" x2="819.2" y2="0" >
<stop  offset="0" style="stop-color:#C67A6D;stop-opacity:0.85098" />
<stop  offset="1" style="stop-color:#AC513C;stop-opacity:1" />
</linearGradient>
<path style="fill:url(#LinearGradID_3335) " d="M-1.2,-0.25L-1.25 -0.05L-1.3 -0.25L-1.2 -0.25" />
<linearGradient
id="LinearGradID_3336" gradientUnits="userSpaceOnUse" gradientTransform="matrix(0.000259399, 0, 0, 9.15527e-005, -0.65, 0.6)" spreadMethod ="pad" x1="-819.2" y1="0" x2="819.2" y2="0" >
<stop  offset="0" style="stop-color:#C67A6D;stop-opacity:0.85098" />
<stop  offset="1" style="stop-color:#AC513C;stop-opacity:1" />
</linearGradient>
<path style="fill:url(#LinearGradID_3336) " d="M-0.8,0.65L-0.6 0.5L-0.4 0.7L-0.8 0.65" />
<radialGradient
id="RadialGradID_3337" gradientUnits="userSpaceOnUse" gradientTransform="matrix(0.00152588, -3.05176e-005, 1.52588e-005, 0.000854492, -0.35, 1.2)" spreadMethod ="pad" cx="0" cy="0" r="819.2" fx="0" fy="0" >
<stop  offset="0"  style="stop-color:#FFFFFF;stop-opacity:1" />
<stop  offset="0.992157"  style="stop-color:#FA82A2;stop-opacity:0" />
</radialGradient>
<path style="fill:url(#RadialGradID_3337) " d="M-0.8,1.15L-0.95 1.3Q-1.1 1.1 -0.85 0.9L-0.8 1L-0.45 1.05L-0.25 1.15L0.3 1.25L0 1.45L-0.1 1.45L-0.25 1.25L-0.25 1.4L-0.65 1.4L-0.8 1.15" />
<radialGradient
id="RadialGradID_3338" gradientUnits="userSpaceOnUse" gradientTransform="matrix(-4.57764e-005, -0.00170898, -0.00350952, 7.62939e-005, 0.15, 1.85)" spreadMethod ="pad" cx="0" cy="0" r="819.2" fx="0" fy="0" >
<stop  offset="0.0470588"  style="stop-color:#DA6969;stop-opacity:0.513725" />
<stop  offset="1"  style="stop-color:#FFEFEA;stop-opacity:0" />
</radialGradient>
<path style="fill:url(#RadialGradID_3338) " d="M-1.35,1.4Q0.5 2.35 2.1 1.4L2.35 1.85Q2.35 2.3 1.75 2.65L0.15 3L-1.35 2.7Q-2.05 2.4 -2.05 1.95Q-2.05 1.55 -1.55 1.3L-1.35 1.4" />
<radialGradient
id="RadialGradID_3339" gradientUnits="userSpaceOnUse" gradientTransform="matrix(0.0010376, -1.52588e-005, 1.52588e-005, 0.0010376, 1.15, 1.2)" spreadMethod ="pad" cx="0" cy="0" r="819.2" fx="0" fy="0" >
<stop  offset="0"  style="stop-color:#FFFFFF;stop-opacity:1" />
<stop  offset="0.992157"  style="stop-color:#FA82A2;stop-opacity:0" />
</radialGradient>
<path style="fill:url(#RadialGradID_3339) " d="M0.65,1.3Q0.6 1.1 0.9 1.1L1.25 1L1.55 1.05L1.4 1.1Q1.15 1.1 1.2 1.3L0.8 1.3L0.7 1.55L0.5 1.25L0.65 1.3" />
<radialGradient
id="RadialGradID_3340" gradientUnits="userSpaceOnUse" gradientTransform="matrix(0.00100708, -1.52588e-005, 1.52588e-005, 0.00100708, 3.85, -0.55)" spreadMethod ="pad" cx="0" cy="0" r="819.2" fx="0" fy="0" >
<stop  offset="0.0470588"  style="stop-color:#C52929;stop-opacity:0.580392" />
<stop  offset="1"  style="stop-color:#FFEFEA;stop-opacity:0" />
</radialGradient>
<path style="fill:url(#RadialGradID_3340) " d="M3.1,-0.75L3.3 -1.1L3.85 -1.35L4.4 -1.15L4.65 -0.6L4.4 0L3.85 0.2L3.45 0.1L3.85 -0.45Q4.15 -0.65 3.85 -0.7L3.8 -0.7L3.1 -0.75" />
<path style="fill:#580F06;fill-opacity:1" d="M3.8,-0.7L3.85 -0.7Q4.05 -0.6 3.5 -0.45L3.1 -0.2L2.9 -0.1L3.3 -0.4L3.45 -0.65L3.8 -0.7" />
<path style="fill:#180D09;fill-opacity:1" d="M2.55,0.15L2.6 0.05L2.75 -0.15L2.85 -0.15L3 -0.5L3.05 -0.5L3.45 -0.65L3.3 -0.4L2.9 -0.1L2.55 0.15" />
<linearGradient
id="LinearGradID_3341" gradientUnits="userSpaceOnUse" gradientTransform="matrix(0.000152588, 0, 0, 0.00012207, 2.45, 0.15)" spreadMethod ="pad" x1="-819.2" y1="0" x2="819.2" y2="0" >
<stop  offset="0" style="stop-color:#C67A6D;stop-opacity:0.85098" />
<stop  offset="1" style="stop-color:#AC513C;stop-opacity:1" />
</linearGradient>
<path style="fill:url(#LinearGradID_3341) " d="M2.55,0.15L2.35 0.25L2.35 0.2L2.4 0.05L2.6 0.05L2.55 0.15" />
<linearGradient
id="LinearGradID_3342" gradientUnits="userSpaceOnUse" gradientTransform="matrix(0.000762939, 0, 0, 0.000274658, 1.75, 0.4)" spreadMethod ="pad" x1="-819.2" y1="0" x2="819.2" y2="0" >
<stop  offset="0" style="stop-color:#C67A6D;stop-opacity:0.85098" />
<stop  offset="1" style="stop-color:#AC513C;stop-opacity:1" />
</linearGradient>
<path style="fill:url(#LinearGradID_3342) " d="M1.15,0.65L1.35 0.45L1.75 0.5L2 0.2L2.15 0.35L2.35 0.2L2.35 0.25L1.85 0.5L1.15 0.65" />
<linearGradient
id="LinearGradID_3343" gradientUnits="userSpaceOnUse" gradientTransform="matrix(0.00012207, 0, 0, 0.000152588, 2, -0.25)" spreadMethod ="pad" x1="-819.2" y1="0" x2="819.2" y2="0" >
<stop  offset="0" style="stop-color:#C67A6D;stop-opacity:0.85098" />
<stop  offset="1" style="stop-color:#AC513C;stop-opacity:1" />
</linearGradient>
<path style="fill:url(#LinearGradID_3343) " d="M2.1,-0.35L2 -0.1L1.95 -0.15L1.9 -0.35L2.1 -0.35" />
<linearGradient
id="LinearGradID_3344" gradientUnits="userSpaceOnUse" gradientTransform="matrix(0.000183105, 0, 0, 0.000137329, 1.35, -0.15)" spreadMethod ="pad" x1="-819.2" y1="0" x2="819.2" y2="0" >
<stop  offset="0" style="stop-color:#C67A6D;stop-opacity:0.85098" />
<stop  offset="1" style="stop-color:#AC513C;stop-opacity:1" />
</linearGradient>
<path style="fill:url(#LinearGradID_3344) " d="M1.5,-0.3L1.35 -0.05L1.2 -0.25L1.5 -0.3" />
</g>
</svg>
