<?xml version="1.0" encoding="utf-8"?>
<svg version="1.1" id="Layer_1"
xmlns="http://www.w3.org/2000/svg"
xmlns:xlink="http://www.w3.org/1999/xlink"
xmlns:author="http://www.sothink.com"
width="8px" height="5px"
xml:space="preserve">
<g id="391" transform="matrix(1, 0, 0, 1, -66.25, -45.75)">
<radialGradient
id="RadialGradID_3546" gradientUnits="userSpaceOnUse" gradientTransform="matrix(0, -0.00169373, -0.00350952, 0, 70.05, 48.9)" spreadMethod ="pad" cx="0" cy="0" r="819.2" fx="0" fy="0" >
<stop  offset="0.0470588"  style="stop-color:#DA6969;stop-opacity:0.513725" />
<stop  offset="1"  style="stop-color:#FFEFEA;stop-opacity:0" />
</radialGradient>
<path style="fill:url(#RadialGradID_3546) " d="M70.05,47.85Q70.95 47.85 71.65 48.25Q72.25 48.5 72.25 48.95Q72.25 49.4 71.65 49.7L70.05 50L68.55 49.7Q67.85 49.4 67.85 48.95Q67.85 48.5 68.55 48.2Q69.15 47.85 70.05 47.85" />
<radialGradient
id="RadialGradID_3547" gradientUnits="userSpaceOnUse" gradientTransform="matrix(0.00100708, 1.52588e-005, -1.52588e-005, 0.00100708, 73.45, 46.55)" spreadMethod ="pad" cx="0" cy="0" r="819.2" fx="0" fy="0" >
<stop  offset="0.0470588"  style="stop-color:#C52929;stop-opacity:0.580392" />
<stop  offset="1"  style="stop-color:#FFEFEA;stop-opacity:0" />
</radialGradient>
<path style="fill:url(#RadialGradID_3547) " d="M73.45,45.75Q73.8 45.75 74 46L74.25 46.55L74 47.1L73.4 47.35L72.9 47.1L72.65 46.55Q72.65 46.2 72.9 46Q73.15 45.75 73.45 45.75" />
<radialGradient
id="RadialGradID_3548" gradientUnits="userSpaceOnUse" gradientTransform="matrix(0.00100708, 1.52588e-005, -1.52588e-005, 0.00100708, 67, 46.7)" spreadMethod ="pad" cx="0" cy="0" r="819.2" fx="0" fy="0" >
<stop  offset="0.0470588"  style="stop-color:#C52929;stop-opacity:0.580392" />
<stop  offset="1"  style="stop-color:#FFEFEA;stop-opacity:0" />
</radialGradient>
<path style="fill:url(#RadialGradID_3548) " d="M67.5,47.25L66.95 47.5Q66.65 47.5 66.4 47.25L66.25 46.7L66.45 46.15L67 45.95L67.55 46.15L67.8 46.75L67.5 47.25" />
<path style="fill:#FFFFFF;fill-opacity:1" d="M69.65,47.6L68.5 47.2L68.55 47.2L69.3 47.25L69.8 47.35L71.1 47.25L72 47.15L72.1 47.15L71.7 47.4L71.05 47.6L70.6 47.6L69.95 47.6L69.85 47.6L69.65 47.6" />
<linearGradient
id="LinearGradID_3549" gradientUnits="userSpaceOnUse" gradientTransform="matrix(0.00379944, 0, 0, 0.000778198, 70.25, 46.95)" spreadMethod ="pad" x1="-819.2" y1="0" x2="819.2" y2="0" >
<stop  offset="0" style="stop-color:#D78E8E;stop-opacity:1" />
<stop  offset="0.27451" style="stop-color:#9F3540;stop-opacity:1" />
<stop  offset="0.517647" style="stop-color:#E83144;stop-opacity:1" />
<stop  offset="0.772549" style="stop-color:#9F2D38;stop-opacity:1" />
<stop  offset="1" style="stop-color:#D58080;stop-opacity:1" />
</linearGradient>
<path style="fill:url(#LinearGradID_3549) " d="M71.35,47.15L71.5 47.15L71.65 47.15L71.75 47.15L71.9 47.1L72.1 47.05L72.15 47.05L72.5 46.95L72.6 46.9L72.65 46.85L72.7 46.85L72.85 46.8L72.9 46.8L73.1 46.6L73.1 46.55L73.05 46.6L72.95 46.65L73.1 46.5L73.3 46.5L73.35 46.5L73.35 46.55L73.3 46.5L73.1 46.65L72.95 46.8L72.85 46.85L72.75 46.95L72.55 47.05L72.45 47.1L72.15 47.25L72.05 47.3L71.95 47.35L71.8 47.45L71.75 47.45L71.6 47.5L71.05 47.6L71.7 47.4L72.1 47.15L72 47.15L71.1 47.25L69.8 47.35L69.3 47.25L68.55 47.2L68.5 47.2L69.65 47.6L69.5 47.6L69.05 47.55L68.95 47.55L68.85 47.5L68.8 47.45L68.65 47.4L68.4 47.3L68.15 47.25L67.7 47.05L67.7 47L67.55 47L67.45 46.9L67.2 46.7L67.45 46.7L67.45 46.8L67.55 46.8L67.65 46.85L67.75 46.85L67.95 46.95L68 47L68.35 47.1L68.4 47.1L68.75 47.15L69.1 47.15L69.35 47.1L69.45 47.1L69.5 47.1L69.8 47.2L70.2 47.25L70.65 47.2L71.15 47.15L71.15 47.1L71.35 47.15" />
<linearGradient
id="LinearGradID_3550" gradientUnits="userSpaceOnUse" gradientTransform="matrix(0.00379944, 0, 0, 0.000778198, 70.25, 46.95)" spreadMethod ="pad" x1="-819.2" y1="0" x2="819.2" y2="0" >
<stop  offset="0" style="stop-color:#D78686;stop-opacity:1" />
<stop  offset="0.258824" style="stop-color:#D3545D;stop-opacity:1" />
<stop  offset="0.537255" style="stop-color:#BD3A3F;stop-opacity:1" />
<stop  offset="0.784314" style="stop-color:#F06D73;stop-opacity:1" />
<stop  offset="1" style="stop-color:#DB9393;stop-opacity:1" />
</linearGradient>
<path style="fill:url(#LinearGradID_3550) " d="M72.45,47.1L72.55 47.05L72.75 46.95L72.85 46.85L72.95 46.8L73.1 46.65L73.3 46.5L73.35 46.55L73.35 46.7L73.3 46.75L72.9 47L72.45 47.1M68.6,47.4L68.45 47.35L67.7 47.15L67.15 46.7L67.2 46.7L67.45 46.9L67.55 47L67.7 47L67.7 47.05L68.15 47.25L68.4 47.3L68.65 47.4L68.6 47.4M68.65,47.4L68.8 47.45L68.75 47.45L68.65 47.4M69.05,47.55L69.5 47.6L69.45 47.6L69.05 47.55" />
<radialGradient
id="RadialGradID_3551" gradientUnits="userSpaceOnUse" gradientTransform="matrix(0.00474548, 0, 0, 0.0019989, 70.15, 47.3)" spreadMethod ="pad" cx="0" cy="0" r="819.2" fx="0" fy="0" >
<stop  offset="0"  style="stop-color:#FC3636;stop-opacity:1" />
<stop  offset="0.447059"  style="stop-color:#FD9393;stop-opacity:1" />
<stop  offset="0.588235"  style="stop-color:#FFCECE;stop-opacity:1" />
<stop  offset="0.741176"  style="stop-color:#FEA3A3;stop-opacity:1" />
</radialGradient>
<path style="fill:url(#RadialGradID_3551) " d="M72.9,47L73.3 46.75L73.3 46.8L72.9 47.25L72.45 47.75L72.2 48.1L72.05 48.3L71.45 48.7L71.45 48.75L71.35 48.75L71.1 48.8L70.35 48.8L69.2 48.8L68.45 48.35L68.35 48.2L68.3 48.15L68.15 47.9L67.6 47.3L67.25 47L67.2 46.9L67.2 46.85L67.15 46.7L67.7 47.15L68.45 47.35L68.4 47.35L68.2 47.3L67.9 47.35L68.3 47.4L68.35 47.45L68.2 47.45L68.2 47.5L68.35 47.5L68.35 47.55L68.15 47.6L68.4 47.65L68.3 47.8L68.45 47.75L68.3 47.9L68.35 47.9L68.45 47.85L68.6 47.8L68.45 48L68.75 47.75L68.7 47.75L68.8 47.7L68.55 47.7L68.7 47.6L68.65 47.6L68.5 47.65L68.45 47.6L68.45 47.55L68.55 47.45L68.4 47.45L68.6 47.4L68.65 47.4L68.75 47.45L68.8 47.45L68.85 47.5L68.95 47.55L69.05 47.55L69.45 47.6L69.5 47.6L69.65 47.6L69.85 47.6L69.95 47.6L70.6 47.6L71.05 47.6L71.6 47.5L71.8 47.55L72.1 47.6L72 47.45L71.95 47.45L72.4 47.35L72.1 47.3L72.2 47.3L72.3 47.25L72.5 47.2L72.45 47.2L72.35 47.2L72.25 47.25L72.2 47.25L72.05 47.3L72.15 47.25L72.45 47.1L72.9 47M69.2,48.7L69.55 48.7L70.7 48.75L71.45 48.6L71.95 48.25L71.9 48.25L71.35 48.5L71.15 48.25L71.2 48.4L70.8 48.5L70.75 48.45L70.7 48.4L70.65 48.55L70.55 48.25L70.55 48.4L70.5 48.5L70.35 48.35L70.35 48.5L70.2 48.55L70.1 48.5L70.1 48.4L70.05 48.4L70 48.5L69.75 48.5L69.75 48.4L69.8 48.25L69.6 48.4L69.4 48.55L69.3 48L69.2 48.45L69.05 48.45L68.35 48L68.75 48.55L69 48.65L69.1 48.65L69.2 48.7" />
<radialGradient
id="RadialGradID_3552" gradientUnits="userSpaceOnUse" gradientTransform="matrix(0.00224304, 0, 0, 0.0012207, 70, 47.55)" spreadMethod ="pad" cx="0" cy="0" r="819.2" fx="0" fy="0" >
<stop  offset="0"  style="stop-color:#FC3636;stop-opacity:1" />
<stop  offset="0.552941"  style="stop-color:#FD9393;stop-opacity:1" />
<stop  offset="1"  style="stop-color:#FEA3A3;stop-opacity:1" />
</radialGradient>
<path style="fill:url(#RadialGradID_3552) " d="M67.75,46.85L67.85 46.85L68 46.9L68.25 46.95L68.45 47L68.6 46.95L68.65 46.9L68.75 46.9L69.05 46.8L69.15 46.85L69.2 46.9L69.25 46.95L69.45 47.1L69.35 47.1L69.1 47.15L68.75 47.15L68.4 47.1L68.35 47.1L68 47L67.95 46.95L67.75 46.85M71,46.9L70.9 47L70.85 47L70.7 47.15L71.05 47.1L71.15 47.1L71.15 47.15L70.65 47.2L70.2 47.25L69.8 47.2L69.5 47.1L69.6 47.1L69.75 47.15L70 47.2L70.3 47.2L70.35 47.2L70.55 47.1L70.65 47.1L70.7 47.05L70.85 46.9L71.1 46.85L71.2 46.85L71.25 46.9L71 46.9" />
<radialGradient
id="RadialGradID_3553" gradientUnits="userSpaceOnUse" gradientTransform="matrix(0.00157166, 0.00198364, -0.00112915, 0.000961304, 68.65, 47.1)" spreadMethod ="pad" cx="0" cy="0" r="819.2" fx="0" fy="0" >
<stop  offset="0"  style="stop-color:#FC3636;stop-opacity:1" />
<stop  offset="0.352941"  style="stop-color:#FD9393;stop-opacity:1" />
<stop  offset="0.521569"  style="stop-color:#FFCECE;stop-opacity:1" />
<stop  offset="1"  style="stop-color:#FEA3A3;stop-opacity:1" />
</radialGradient>
<path style="fill:url(#RadialGradID_3553) " d="M68.6,47.4L68.4 47.45L68.55 47.45L68.45 47.55L68.45 47.6L68.5 47.65L68.65 47.6L68.7 47.6L68.55 47.7L68.8 47.7L68.7 47.75L68.75 47.75L68.45 48L68.6 47.8L68.45 47.85L68.35 47.9L68.3 47.9L68.45 47.75L68.3 47.8L68.4 47.65L68.15 47.6L68.35 47.55L68.35 47.5L68.2 47.5L68.2 47.45L68.35 47.45L68.3 47.4L67.9 47.35L68.2 47.3L68.4 47.35L68.45 47.35L68.6 47.4" />
<radialGradient
id="RadialGradID_3554" gradientUnits="userSpaceOnUse" gradientTransform="matrix(0.0058136, 0, 0, 0.00306702, 70.5, 47.65)" spreadMethod ="pad" cx="0" cy="0" r="819.2" fx="0" fy="0" >
<stop  offset="0"  style="stop-color:#FC3636;stop-opacity:1" />
<stop  offset="0.352941"  style="stop-color:#FD9393;stop-opacity:1" />
<stop  offset="0.698039"  style="stop-color:#FFCECE;stop-opacity:1" />
</radialGradient>
<path style="fill:url(#RadialGradID_3554) " d="M69.1,48.65L69 48.65L68.75 48.55L68.35 48L69.05 48.45L69.2 48.45L69.3 48L69.4 48.55L69.6 48.4L69.8 48.25L69.75 48.4L69.75 48.5L70 48.5L70.05 48.4L70.1 48.4L70.1 48.5L70.2 48.55L70.35 48.5L70.35 48.35L70.5 48.5L70.55 48.4L70.55 48.25L70.65 48.55L70.7 48.4L70.75 48.45L70.8 48.5L71.2 48.4L71.15 48.25L71.35 48.5L71.9 48.25L71.95 48.25L71.45 48.6L70.7 48.75L69.55 48.7L69.2 48.7L69.1 48.65" />
<radialGradient
id="RadialGradID_3555" gradientUnits="userSpaceOnUse" gradientTransform="matrix(0.00231934, -0.000289917, 0.00012207, 0.000946045, 71.25, 47.35)" spreadMethod ="pad" cx="0" cy="0" r="819.2" fx="0" fy="0" >
<stop  offset="0"  style="stop-color:#FC3636;stop-opacity:1" />
<stop  offset="0.552941"  style="stop-color:#FD9393;stop-opacity:1" />
<stop  offset="1"  style="stop-color:#FEA3A3;stop-opacity:1" />
</radialGradient>
<path style="fill:url(#RadialGradID_3555) " d="M71.25,46.9L71.4 46.9L71.45 46.95L71.5 46.95L71.75 47.05L71.85 47.05L72.15 47.05L72.1 47.05L71.9 47.1L71.75 47.15L71.65 47.15L71.5 47.15L71.35 47.15L71.15 47.1L71.05 47.1L70.7 47.15L70.85 47L70.9 47L71 46.9L71.25 46.9" />
<radialGradient
id="RadialGradID_3556" gradientUnits="userSpaceOnUse" gradientTransform="matrix(0.00215149, 0, 0, 0.00117493, 71.55, 47.15)" spreadMethod ="pad" cx="0" cy="0" r="819.2" fx="0" fy="0" >
<stop  offset="0"  style="stop-color:#FC3636;stop-opacity:1" />
<stop  offset="0.352941"  style="stop-color:#FD9393;stop-opacity:1" />
<stop  offset="0.521569"  style="stop-color:#FFCECE;stop-opacity:1" />
<stop  offset="1"  style="stop-color:#FEA3A3;stop-opacity:1" />
</radialGradient>
<path style="fill:url(#RadialGradID_3556) " d="M71.6,47.5L71.75 47.45L71.8 47.45L71.95 47.35L72.05 47.3L72.2 47.25L72.25 47.25L72.35 47.2L72.45 47.2L72.5 47.2L72.3 47.25L72.2 47.3L72.1 47.3L72.4 47.35L71.95 47.45L72 47.45L72.1 47.6L71.8 47.55L71.6 47.5" />
<radialGradient
id="RadialGradID_3557" gradientUnits="userSpaceOnUse" gradientTransform="matrix(0.00610352, -6.10352e-005, 1.52588e-005, 0.00202942, 70.05, 47.7)" spreadMethod ="pad" cx="0" cy="0" r="819.2" fx="0" fy="0" >
<stop  offset="0"  style="stop-color:#FC3636;stop-opacity:1" />
<stop  offset="0.580392"  style="stop-color:#FD9393;stop-opacity:1" />
<stop  offset="0.882353"  style="stop-color:#FFCECE;stop-opacity:1" />
</radialGradient>
<path style="fill:url(#RadialGradID_3557) " d="M73.05,46.6L73.1 46.55L73.1 46.6L72.9 46.8L72.85 46.8L72.7 46.85L72.65 46.85L72.6 46.9L72.5 46.95L72.15 47.05L71.85 47.05L71.75 47.05L71.5 46.95L71.45 46.95L71.4 46.9L71.25 46.9L71.2 46.85L71.1 46.85L70.85 46.9L70.7 47.05L70.65 47.1L70.55 47.1L70.35 47.2L70.3 47.2L70 47.2L69.75 47.15L69.6 47.1L69.5 47.1L69.45 47.1L69.25 46.95L69.2 46.9L69.15 46.85L69.05 46.8L68.75 46.9L68.65 46.9L68.6 46.95L68.45 47L68.25 46.95L68 46.9L67.85 46.85L67.75 46.85L67.65 46.85L67.55 46.8L67.45 46.8L67.45 46.7L67.45 46.65L67.55 46.7L67.8 46.7L68.1 46.7L68.3 46.65L68.3 46.6L68.65 46.45L69.3 46.3L69.7 46.5L70.1 46.6L70.5 46.45L70.95 46.3L71.6 46.5L71.7 46.55L72 46.65L72.4 46.75L72.65 46.7L72.8 46.7L72.95 46.65L73.05 46.6" />
<radialGradient
id="RadialGradID_3558" gradientUnits="userSpaceOnUse" gradientTransform="matrix(-0.00238037, -0.000167847, -4.57764e-005, -0.000518799, 70.35, 47.95)" spreadMethod ="pad" cx="0" cy="0" r="819.2" fx="0" fy="0" >
<stop  offset="0"  style="stop-color:#FFFFFF;stop-opacity:0.552941" />
<stop  offset="1"  style="stop-color:#FBD6CD;stop-opacity:0" />
</radialGradient>
<path style="fill:url(#RadialGradID_3558) " d="M71.4,47.95L71.05 47.75L71.05 47.95L70.95 47.85L70.85 47.8L70.85 47.9L70.85 48L70.75 47.85L70.65 48.05Q70.6 47.9 70.35 47.85L70.35 48L70.2 47.85L70 47.95L69.95 47.95L69.9 47.85L69.7 48L69.75 47.85L69.7 47.85L69.45 47.9L69.4 47.85L69.15 47.8Q68.85 47.85 69.2 47.7L70.1 47.6L70.5 47.6L70.65 47.6L71.1 47.65L71.3 47.7L71.4 47.8L71.4 47.95" />
<radialGradient
id="RadialGradID_3559" gradientUnits="userSpaceOnUse" gradientTransform="matrix(0.00119019, 0, 0, 0.000701904, 69.1, 46.35)" spreadMethod ="pad" cx="0" cy="0" r="819.2" fx="0" fy="0" >
<stop  offset="0"  style="stop-color:#FFFFFF;stop-opacity:1" />
<stop  offset="1"  style="stop-color:#FBD6CD;stop-opacity:0" />
</radialGradient>
<path style="fill:url(#RadialGradID_3559) " d="M68.9,46.3L68.3 46.55L68.1 46.55L68.65 46.3L69.15 46.15L69.55 46.3L69.55 46.35L69.25 46.25L68.9 46.3" />
<radialGradient
id="RadialGradID_3560" gradientUnits="userSpaceOnUse" gradientTransform="matrix(0.000915527, -0.000411987, 0.000640869, 0.00111389, 69.55, 46.3)" spreadMethod ="pad" cx="0" cy="0" r="819.2" fx="0" fy="0" >
<stop  offset="0"  style="stop-color:#FFFFFF;stop-opacity:1" />
<stop  offset="1"  style="stop-color:#FBD6CD;stop-opacity:0" />
</radialGradient>
<path style="fill:url(#RadialGradID_3560) " d="M68.95,46.35L69.5 46.4L69.75 46.6L69.85 46.8L70.05 47L70.45 46.9L70.5 46.95L70.55 46.9L70.75 46.65L70.75 46.8L70.55 47.05L70.35 47.1L70.05 47.15L69.65 47.1L69.3 46.9L69.2 46.75L69.1 46.6L68.95 46.35" />
<radialGradient
id="RadialGradID_3561" gradientUnits="userSpaceOnUse" gradientTransform="matrix(0.0020752, 0.000869751, -0.000427246, 0.00102234, 72.1, 47.5)" spreadMethod ="pad" cx="0" cy="0" r="819.2" fx="0" fy="0" >
<stop  offset="0"  style="stop-color:#FFFFFF;stop-opacity:1" />
<stop  offset="1"  style="stop-color:#FBD6CD;stop-opacity:0" />
</radialGradient>
<path style="fill:url(#RadialGradID_3561) " d="M71.85,46.9L71.4 46.8L71.2 46.7L71.05 46.65L71.75 46.75L71.9 46.75L72.6 46.7L72.35 46.85L71.85 46.9" />
<path style="fill:#FFFFFF;fill-opacity:0.282353" d="M68.75,46.65L68.4 46.8L68.4 46.85L68.75 46.8L68.9 46.75L68 46.85L67.85 46.75L68.3 46.7L68.05 46.7L68.5 46.7L68.75 46.65" />
<path style="fill:#FFFFFF;fill-opacity:0.380392" d="M71.9,47.8L71.7 47.75L71.9 47.75L71.95 47.95L71.9 47.8" />
<path style="fill:#FFFFFF;fill-opacity:0.6" d="M71.5,47.95L71.6 48L71.65 48.15L71.55 48.1L71.5 47.95" />
<path style="fill:#FFFFFF;fill-opacity:0.6" d="M69.05,47.95L69.1 48L68.9 48.15L68.9 48.1L69.05 47.95" />
<path style="fill:#FFFFFF;fill-opacity:0.733333" d="M68.15,47.55L68.2 47.55L68.3 47.5L68.35 47.5L68.45 47.5L68.35 47.55L68.3 47.55L68.25 47.6L68.15 47.55" />
<path style="fill:#FFFFFF;fill-opacity:0.6" d="M71.75,47.6L72 47.6L72.15 47.7L72.05 47.65L71.75 47.6" />
<path style="fill:#FFFFFF;fill-opacity:1" d="M71.15,47.85L71.45 48.15L71.5 48.15L71.55 48L71.55 48.15L71.6 48.15L72 47.95L71.65 48.25L71.65 48.2L71.65 48.25L71.7 48.25L71.8 48.3L71.65 48.3L71.65 48.35L71.9 48.7L71.55 48.4L71.5 48.4L71.5 48.55L71.5 48.45L71.4 48.4L71.5 48.4L71.45 48.4L71.4 48.4L71.05 48.65L71.35 48.3L71.4 48.3L71.35 48.25L71.25 48.25L71.35 48.25L71.4 48.25L71.4 48.2L71.15 47.85M71.5,48.2L71.5 48.15L71.5 48.2M71.55,48.15L71.55 48.2L71.55 48.15M71.65,48.25L71.6 48.25L71.65 48.25" />
<path style="fill:#FFFFFF;fill-opacity:1" d="M70.9,48.4L70.9 48.35L70.7 48.35L70.85 48.3L70.9 48.3L70.95 48.25L70.9 48.25L70.6 47.8L71.05 48.15L71.05 48.2L71.1 48.2L71.2 48.25L71.2 48.2L71.7 47.9L71.25 48.3L71.3 48.35L71.45 48.4L71.25 48.4L71.25 48.45L71.6 48.95L71.15 48.55L71.15 48.5L71.05 48.55L71 48.45L70.95 48.5L70.5 48.8L70.9 48.4" />
<path style="fill:#FFFFFF;fill-opacity:1" d="M69.85,48.6L69.6 48.4L69.9 48.15L70.1 48.45L69.85 48.6" />
<path style="fill:#FFFFFF;fill-opacity:0.541176" d="M72.05,48Q71.1 48.8 70.5 48.5Q69.9 48.25 70.45 48.15L72.05 48" />
</g>
</svg>
