<?xml version="1.0" encoding="utf-8"?>
<svg version="1.1" id="Layer_1"
xmlns="http://www.w3.org/2000/svg"
xmlns:xlink="http://www.w3.org/1999/xlink"
xmlns:author="http://www.sothink.com"
width="8px" height="4px"
xml:space="preserve">
<g id="395" transform="matrix(1, 0, 0, 1, -66.2, -45.5)">
<radialGradient
id="RadialGradID_3574" gradientUnits="userSpaceOnUse" gradientTransform="matrix(-0.00428772, -7.62939e-005, -3.05176e-005, 0.00320435, 70.1, 46.95)" spreadMethod ="pad" cx="0" cy="0" r="819.2" fx="0" fy="0" >
<stop  offset="0"  style="stop-color:#F97781;stop-opacity:1" />
<stop  offset="1"  style="stop-color:#FFECD9;stop-opacity:1" />
</radialGradient>
<path style="fill:url(#RadialGradID_3574) " d="M73.15,46.55L73.35 46.5L73.65 46.3L73.05 47.4Q72.45 48.4 71.6 48.55L70.5 48.7L69.3 48.6Q68.35 48.4 67.5 47.5L66.55 46.45L68 46.8L68.85 47.1L69.1 47.15L72.3 46.85L73.05 46.55L69.8 46.65L66.6 46.4L68.25 45.75L69.5 45.65Q70.1 45.95 70.45 45.65L71.35 45.55L72.45 46L73.55 46.3L73.15 46.55" />
<path style="fill:#FFFFFF;fill-opacity:1" d="M67.85,47.05L67.8 47L67.35 46.65L67.45 46.7L67.65 46.65L67.9 46.65L68.5 46.55L69.9 46.4L72.75 46.6L72.35 46.8L71.05 47.15L68.9 47.15L67.9 47.05L67.85 47.05L67.85 47.1L67.85 47.05" />
<path style="fill:#7E1B1B;fill-opacity:1" d="M66.75,46.4L67.5 46.65L67.65 46.65L67.45 46.7L67.35 46.65L67.8 47L66.75 46.4M67.8,47.1L67.9 47.1L67.85 47.1L67.85 47.05L67.85 47.1L67.95 47.15L67.8 47.1M72.55,47.1L73.2 46.55L72.9 46.65L72.75 46.6L73.6 46.4L72.55 47.1" />
<path style="fill:#ECA4A4;fill-opacity:1" d="M72.9,46.65L73.2 46.55L72.55 47.1L72.1 47.2L70.35 47.4L68.85 47.35L67.95 47.15L67.85 47.1L67.85 47.05L67.9 47.05L68.9 47.15L71.05 47.15L72.35 46.8L72.75 46.6L72.9 46.65M67.85,47.1L67.8 47L67.85 47.05L67.85 47.1" />
<linearGradient
id="LinearGradID_3575" gradientUnits="userSpaceOnUse" gradientTransform="matrix(0.00476074, 7.62939e-005, 0, 0.000991821, 70.1, 46.75)" spreadMethod ="pad" x1="-819.2" y1="0" x2="819.2" y2="0" >
<stop  offset="0" style="stop-color:#A34B4B;stop-opacity:1" />
<stop  offset="0.509804" style="stop-color:#F98692;stop-opacity:1" />
<stop  offset="1" style="stop-color:#994D4D;stop-opacity:1" />
</linearGradient>
<path style="fill:url(#LinearGradID_3575) " d="M69.9,46.2L71.1 46.3L72.2 46.45L73.5 46.25L73.55 46.3L73.7 46.1L74 46.2L73.9 46.45L73.65 46.55L73.6 46.65L73.5 46.7Q72.95 47.3 71.75 47.55L69.65 47.7L68.25 47.35L67.4 46.9L67 46.75L66.85 46.7L66.7 46.65L66.65 46.65L66.3 46.45Q66.15 46.2 66.3 46.15L66.55 46.15L66.75 46.25L66.8 46.3L67.1 46.45L68.15 46.5L68.25 46.5L68 46.5L68.55 46.35L69.35 46.2L69.9 46.2M67.8,47L67.85 47.1L67.9 47.1L67.8 47.1L67.95 47.15L68.85 47.35L70.35 47.4L72.1 47.2L72.55 47.1L73.6 46.4L72.75 46.6L69.9 46.4L68.5 46.55L67.9 46.65L67.65 46.65L67.5 46.65L66.75 46.4L67.8 47" />
<path style="fill:#FFFFFF;fill-opacity:1" d="M68.95,45.85L69.05 45.75L69.2 45.85L69.1 45.95L68.95 45.85M69.1,47.8L69.25 47.95L69.15 48.2Q68.95 48.25 68.9 47.95L69.1 47.8M69.35,48.5L69.25 48.55L69.15 48.5L69.25 48.4L69.35 48.5" />
<path style="fill:#FEF1F0;fill-opacity:1" d="M70.75,45.55L70.85 45.55L70.8 45.7L70.75 45.6L70.75 45.55M70.4,45.8L70.5 45.7L70.6 45.8L70.5 45.9L70.4 45.8M69.8,47.95L69.95 48.1L69.75 48.15Q69.65 48.25 69.7 48.05L69.8 47.95" />
<path style="fill:#FEE3E1;fill-opacity:1" d="M70.85,47.75L71.5 47.7Q71.65 47.7 71.65 47.8L71.5 48L71.25 48.05L70.35 48.15Q69.9 48.1 70 47.95L70.65 47.8L70.85 47.75M68.75,46.15L68.7 46.25L68.5 46.2L68.65 46.05L68.75 46.15M71.5,46.25Q71.45 46.1 71.6 46.25L71.65 46.3L71.55 46.35L71.5 46.25M72.2,46.1Q72.2 46.3 72 46.2L71.65 46.05L71.05 45.6L71.45 45.7Q72 45.8 72.2 46.1" />
</g>
</svg>
