<?xml version="1.0" encoding="utf-8"?>
<svg version="1.1" id="Layer_1"
xmlns="http://www.w3.org/2000/svg"
xmlns:xlink="http://www.w3.org/1999/xlink"
xmlns:author="http://www.sothink.com"
width="6px" height="4px"
xml:space="preserve">
<g id="400" transform="matrix(1, 0, 0, 1, 2.75, 1.7)">
<radialGradient
id="RadialGradID_3614" gradientUnits="userSpaceOnUse" gradientTransform="matrix(0.00360107, 1.52588e-005, -1.52588e-005, 0.00259399, -0.1, 0)" spreadMethod ="pad" cx="0" cy="0" r="819.2" fx="0" fy="0" >
<stop  offset="0.14902"  style="stop-color:#EF6A8B;stop-opacity:1" />
<stop  offset="0.545098"  style="stop-color:#F38FA4;stop-opacity:1" />
<stop  offset="0.803922"  style="stop-color:#F9C4CD;stop-opacity:0.25098" />
<stop  offset="1"  style="stop-color:#FFF7F4;stop-opacity:0" />
</radialGradient>
<path style="fill:url(#RadialGradID_3614) " d="M-0.05,-1.7L1.8 -1.2Q2.5 -0.65 2.5 0.05Q2.45 0.75 1.75 1.2Q0.95 1.7 -0.1 1.7L-1.9 1.2Q-2.65 0.7 -2.6 0Q-2.65 -0.65 -1.9 -1.2Q-1.15 -1.7 -0.05 -1.7" />
<path style="fill:#D74270;fill-opacity:1" d="M1.6,-0.15L-1.85 -0.2Q-1.2 -0.3 -0.85 -0.7L-0.85 -0.75L0.45 -0.75L0.6 -0.8L0.65 -0.75L1.6 -0.15M0.7,-0.45L-0.1 -0.6L-0.75 -0.5L-0.95 -0.4Q-1.2 -0.3 -0.95 -0.25L0.7 -0.3Q0.95 -0.3 0.7 -0.45M2.25,-0.1L1.85 -0.2L2.55 -0.25L2.25 -0.1M-2.45,-0.15Q-2.8 -0.05 -2.75 -0.25Q-2.7 -0.45 -2.1 -0.25L-2.45 -0.15" />
<path style="fill:#87234B;fill-opacity:1" d="M0.7,-0.3L-0.95 -0.25Q-1.2 -0.3 -0.95 -0.4L-0.75 -0.5L-0.1 -0.6L0.7 -0.45Q0.95 -0.3 0.7 -0.3" />
<path style="fill:#CF9E8F;fill-opacity:1" d="M0.65,1.65L-1.1 1.6L-1.9 1.1Q-1.6 1.45 -0.85 1.5L0.6 1.55L1.7 1.1Q1.4 1.5 0.75 1.6L0.65 1.65" />
<path style="fill:#FFFFFF;fill-opacity:1" d="M1.7,-0.45L1.85 -0.35L1.75 -0.4L1.7 -0.45M-1.25,0.15L-1.3 0.1L-1.25 0.1L-1.25 0.15M-0.85,0.15L-0.7 0.15L-0.7 0.2L-0.85 0.2L-0.85 0.15M-0.35,0.15L-0.55 0.25L-0.55 0.2L-0.35 0.15" />
<linearGradient
id="LinearGradID_3615" gradientUnits="userSpaceOnUse" gradientTransform="matrix(0.000671387, 0, 0, 0.000274658, 1.95, 0.25)" spreadMethod ="pad" x1="-819.2" y1="0" x2="819.2" y2="0" >
<stop  offset="0" style="stop-color:#FFFFFF;stop-opacity:1" />
<stop  offset="1" style="stop-color:#FFFFFF;stop-opacity:0" />
</linearGradient>
<path style="fill:url(#LinearGradID_3615) " d="M0.1,0.25L0.45 0.25L1.9 0.05L2.8 0.15L2.05 0.4L0.1 0.25" />
<path style="fill:#FFFFFF;fill-opacity:0.8" d="M0.9,-1.15L0.95 -1.05L0.85 -0.95L0.75 -1L0.75 -1.15L0.9 -1.15M0.05,-1L0 -0.95L-0.1 -1L-0.1 -1.15L0.05 -1.15L0.05 -1M1.45,-0.55L1.6 -0.55L1.65 -0.45L1.6 -0.4L1.45 -0.4L1.45 -0.55M1.95,0.75L1.85 0.8L1.8 0.75L1.8 0.65L1.85 0.6L1.95 0.65L1.95 0.75M1.35,1.05L1.3 1L1.3 0.85L1.45 0.85L1.45 1L1.35 1.05M0.8,0.55Q1.15 0.65 1 1L0.8 1.1Q0.45 1.15 0.5 0.8L0.65 0.6L0.8 0.55M0.15,0.1L0.1 0.15L-0.05 0.15L-0.05 0L0.1 0L0.15 0.1M0.5,1.15L0.5 1.3L0.35 1.3L0.35 1.15L0.5 1.15M0.15,1.1L0.05 1.2L-0.05 1.15L-0.05 1L0.1 1L0.15 1.1M0.9,1.3L0.8 1.4L0.7 1.35L0.7 1.2L0.85 1.2L0.9 1.3M-2.05,-0.55L-1.9 -0.55L-1.9 -0.4L-2.05 -0.4L-2.05 -0.55M-1.45,-0.75L-1.45 -0.6L-1.5 -0.55L-1.6 -0.6L-1.6 -0.75L-1.45 -0.75M-0.85,-1.05L-0.8 -0.95L-0.9 -0.85L-1 -0.9L-1 -1.05L-0.85 -1.05M-0.1,0.75L-0.2 0.75L-0.25 0.7L-0.2 0.6L-0.1 0.6L-0.05 0.7L-0.1 0.75M-0.85,0.45L-0.8 0.5L-0.85 0.6L-1 0.6L-1 0.45L-0.85 0.45M-1.1,1.25L-1.25 1.25L-1.25 1.1L-1.1 1.1L-1.1 1.25M-0.5,1.2L-0.55 1.15L-0.55 1L-0.4 1L-0.4 1.15L-0.5 1.2M-1.65,0.35L-1.6 0.45L-1.65 0.5L-1.75 0.5L-1.8 0.45L-1.75 0.35L-1.65 0.35M-1.6,0.75L-1.65 0.85L-1.75 0.85L-1.8 0.75L-1.75 0.7L-1.65 0.7L-1.6 0.75M-2.05,0.35L-2.1 0.3L-2.1 0.2L-2.05 0.15L-1.95 0.2L-1.95 0.3L-2.05 0.35M-2.3,0.5L-2.2 0.45L-2.15 0.5L-2.15 0.6L-2.2 0.65L-2.3 0.6L-2.3 0.5" />
</g>
</svg>
