<?xml version="1.0" encoding="utf-8"?>
<svg version="1.1" id="Layer_1"
xmlns="http://www.w3.org/2000/svg"
xmlns:xlink="http://www.w3.org/1999/xlink"
xmlns:author="http://www.sothink.com"
width="7px" height="4px"
xml:space="preserve">
<g id="411" transform="matrix(1, 0, 0, 1, 3.3, 1.85)">
<radialGradient
id="RadialGradID_3672" gradientUnits="userSpaceOnUse" gradientTransform="matrix(0.000991821, 0, 0, 0.00100708, 2.6, -0.95)" spreadMethod ="pad" cx="0" cy="0" r="819.2" fx="0" fy="0" >
<stop  offset="0.0470588"  style="stop-color:#C52929;stop-opacity:0.580392" />
<stop  offset="1"  style="stop-color:#FFEFEA;stop-opacity:0" />
</radialGradient>
<path style="fill:url(#RadialGradID_3672) " d="M3.3,-0.9L3.1 -0.45L2.65 -0.3Q2.3 -0.3 2.15 -0.45L1.95 -0.9L2.15 -1.35L2.65 -1.55L3.1 -1.35L3.3 -0.9" />
<radialGradient
id="RadialGradID_3673" gradientUnits="userSpaceOnUse" gradientTransform="matrix(0.00289917, 0, 0, 0.00151062, -0.05, 0.65)" spreadMethod ="pad" cx="0" cy="0" r="819.2" fx="0" fy="0" >
<stop  offset="0.172549"  style="stop-color:#E9765A;stop-opacity:0.643137" />
<stop  offset="1"  style="stop-color:#FFECD9;stop-opacity:0.141176" />
</radialGradient>
<path style="fill:url(#RadialGradID_3673) " d="M-0.05,-0.5L1.6 -0.15Q2.25 0.15 2.25 0.65Q2.25 1.15 1.6 1.5L-0.05 1.85L-1.65 1.5Q-2.35 1.15 -2.3 0.65Q-2.35 0.15 -1.65 -0.15L-0.05 -0.5" />
<radialGradient
id="RadialGradID_3674" gradientUnits="userSpaceOnUse" gradientTransform="matrix(0.000961304, 0, 0, 0.000976563, -2.65, -0.8)" spreadMethod ="pad" cx="0" cy="0" r="819.2" fx="0" fy="0" >
<stop  offset="0.0470588"  style="stop-color:#C52929;stop-opacity:0.580392" />
<stop  offset="1"  style="stop-color:#FFEFEA;stop-opacity:0" />
</radialGradient>
<path style="fill:url(#RadialGradID_3674) " d="M-2.65,-1.4L-2.15 -1.2L-2 -0.8L-2.15 -0.35Q-2.35 -0.15 -2.65 -0.15L-3.15 -0.35L-3.3 -0.8L-3.15 -1.2L-2.65 -1.4" />
<radialGradient
id="RadialGradID_3675" gradientUnits="userSpaceOnUse" gradientTransform="matrix(0.003479, 0, 0, 0.00218201, -0.05, -0.75)" spreadMethod ="pad" cx="0" cy="0" r="819.2" fx="0" fy="0" >
<stop  offset="0.188235"  style="stop-color:#FF8A7A;stop-opacity:1" />
<stop  offset="0.988235"  style="stop-color:#FABD9A;stop-opacity:0.192157" />
</radialGradient>
<path style="fill:url(#RadialGradID_3675) " d="M-2.75,-1L-2.6 -1Q-2.2 -1.05 -2.05 -1.25L-1.05 -1.85L-0.5 -1.65L-0.35 -1.55L-0.25 -1.5L0.05 -1.6L0.15 -1.65L0.25 -1.75L0.65 -1.85Q0.95 -1.9 1.45 -1.55L2.2 -1.1L2.6 -1.05L1.8 -0.9L0.9 -1L0.1 -0.8L-0.7 -0.9L-1.35 -0.95L-2.75 -1" />
<radialGradient
id="RadialGradID_3676" gradientUnits="userSpaceOnUse" gradientTransform="matrix(0.00305176, 0, 0, 0.00228882, -0.1, -0.85)" spreadMethod ="pad" cx="0" cy="0" r="819.2" fx="0" fy="0" >
<stop  offset="0.423529"  style="stop-color:#FF8F7F;stop-opacity:1" />
<stop  offset="0.988235"  style="stop-color:#FABD9A;stop-opacity:0.192157" />
</radialGradient>
<path style="fill:url(#RadialGradID_3676) " d="M2.5,-0.65L1.85 0.05L1.05 0.6L0.8 0.65Q-0.75 0.95 -1.5 0.35L-2.6 -0.55L-1.8 -0.6L-0.1 -0.45L1.9 -0.65L2.5 -0.65" />
<radialGradient
id="RadialGradID_3677" gradientUnits="userSpaceOnUse" gradientTransform="matrix(0.003479, 0, 0, 0.00354004, -0.05, -0.65)" spreadMethod ="pad" cx="0" cy="0" r="819.2" fx="0" fy="0" >
<stop  offset="0.752941"  style="stop-color:#AB433B;stop-opacity:1" />
<stop  offset="1"  style="stop-color:#AB423A;stop-opacity:0.470588" />
</radialGradient>
<path style="fill:url(#RadialGradID_3677) " d="M1.9,-0.65L-0.1 -0.45L-1.8 -0.6L-2.6 -0.55L-2.9 -0.75L-2.75 -1L-1.35 -0.95L-0.7 -0.9L0.1 -0.8L0.9 -1L1.8 -0.9L2.6 -1.05L2.8 -0.9L2.7 -0.7L2.5 -0.65L1.9 -0.65" />
<radialGradient
id="RadialGradID_3678" gradientUnits="userSpaceOnUse" gradientTransform="matrix(0.00279236, 0, 0, 0.00141907, -0.4, -1.1)" spreadMethod ="pad" cx="0" cy="0" r="819.2" fx="0" fy="0" >
<stop  offset="0.176471"  style="stop-color:#FFEDDB;stop-opacity:0.643137" />
<stop  offset="1"  style="stop-color:#FFE7CF;stop-opacity:0.141176" />
</radialGradient>
<path style="fill:url(#RadialGradID_3678) " d="M-0.35,-1.4L-0.3 -1.3L-0.2 -0.9L-0.55 -0.9Q-1 -1.25 -1.4 -1.05L-1.45 -1.1Q-0.9 -1.6 -0.65 -1.5L-0.35 -1.4" />
<radialGradient
id="RadialGradID_3679" gradientUnits="userSpaceOnUse" gradientTransform="matrix(0.00267029, 0.000534058, -0.000259399, 0.00131226, -0.7, -0.1)" spreadMethod ="pad" cx="0" cy="0" r="819.2" fx="0" fy="0" >
<stop  offset="0.286275"  style="stop-color:#FFF5EB;stop-opacity:0.780392" />
<stop  offset="1"  style="stop-color:#FFE7CF;stop-opacity:0.141176" />
</radialGradient>
<path style="fill:url(#RadialGradID_3679) " d="M-1.65,-0.3L-0.25 -0.05L0.75 -0.05L0.85 0.05L0.65 0.45L-0.4 0.5Q-1.3 0.35 -2.05 -0.25L-1.65 -0.3" />
</g>
</svg>
