<?xml version="1.0" encoding="utf-8"?>
<svg version="1.1" id="Layer_1"
xmlns="http://www.w3.org/2000/svg"
xmlns:xlink="http://www.w3.org/1999/xlink"
xmlns:author="http://www.sothink.com"
width="10px" height="4px"
xml:space="preserve">
<g id="412" transform="matrix(1, 0, 0, 1, 4.55, 1.95)">
<radialGradient
id="RadialGradID_3680" gradientUnits="userSpaceOnUse" gradientTransform="matrix(0.00326538, 0, 0, 0.0012207, 0.05, 0.85)" spreadMethod ="pad" cx="0" cy="0" r="819.2" fx="0" fy="0" >
<stop  offset="0.172549"  style="stop-color:#E9765A;stop-opacity:0.643137" />
<stop  offset="1"  style="stop-color:#FFECD9;stop-opacity:0.141176" />
</radialGradient>
<path style="fill:url(#RadialGradID_3680) " d="M-1.9,0.1L0.05 -0.25L2 0.1Q2.85 0.4 2.85 0.9L2 1.65L0.05 1.95L-1.9 1.65Q-2.7 1.3 -2.7 0.9Q-2.7 0.4 -1.9 0.1" />
<radialGradient
id="RadialGradID_3681" gradientUnits="userSpaceOnUse" gradientTransform="matrix(0.00131226, 0, 0, 0.00131226, -3.55, -1)" spreadMethod ="pad" cx="0" cy="0" r="819.2" fx="0" fy="0" >
<stop  offset="0.160784"  style="stop-color:#E66A4D;stop-opacity:0.592157" />
<stop  offset="1"  style="stop-color:#FFECD9;stop-opacity:0" />
</radialGradient>
<path style="fill:url(#RadialGradID_3681) " d="M-2.5,-0.95Q-2.5 -0.55 -2.75 -0.3Q-3.1 0 -3.5 0Q-3.95 0 -4.3 -0.3L-4.55 -0.95L-4.3 -1.7L-3.5 -1.95L-2.75 -1.7Q-2.5 -1.4 -2.5 -0.95" />
<radialGradient
id="RadialGradID_3682" gradientUnits="userSpaceOnUse" gradientTransform="matrix(0.00131226, 0, 0, 0.00131226, 3.6, -1)" spreadMethod ="pad" cx="0" cy="0" r="819.2" fx="0" fy="0" >
<stop  offset="0.160784"  style="stop-color:#E66A4D;stop-opacity:0.592157" />
<stop  offset="1"  style="stop-color:#FFECD9;stop-opacity:0" />
</radialGradient>
<path style="fill:url(#RadialGradID_3682) " d="M2.55,-0.95Q2.55 -1.4 2.85 -1.7L3.6 -1.95L4.35 -1.7L4.6 -0.95L4.35 -0.3Q4 0 3.6 0Q3.15 0 2.85 -0.3Q2.55 -0.55 2.55 -0.95" />
<path style="fill:#CF4338;fill-opacity:1" d="M-2.1,-0.5L-1.85 -0.45L-0.85 -0.2L-0.55 -0.15L0.15 -0.15L0.95 -0.2L0.85 -0.2L1.85 -0.45L1.95 -0.45L3.1 -0.85L3.55 -1.2L3.55 -1L3.35 -0.75L3.2 -0.65L2.25 -0.35L1.85 -0.2L1.1 -0.05L-0.95 0L-2.15 -0.35L-2.6 -0.5L-3 -0.6L-3.1 -0.65Q-3.5 -0.75 -3.5 -0.95L-3.5 -1L-3.45 -1.2Q-3.3 -1 -2.95 -0.85L-2.1 -0.5" />
<radialGradient
id="RadialGradID_3683" gradientUnits="userSpaceOnUse" gradientTransform="matrix(0.00500488, 0, 0, 0.00500488, 0.05, 0)" spreadMethod ="pad" cx="0" cy="0" r="819.2" fx="0" fy="0" >
<stop  offset="0"  style="stop-color:#FA9EBA;stop-opacity:1" />
<stop  offset="0.462745"  style="stop-color:#FF9696;stop-opacity:0.811765" />
<stop  offset="1"  style="stop-color:#FCB994;stop-opacity:0.313725" />
</radialGradient>
<path style="fill:url(#RadialGradID_3683) " d="M2.6,0L1.85 0.6L1.35 0.75L-0.4 0.85Q-1.45 0.85 -1.85 0.45L-2.45 -0.05L-3 -0.6L-2.6 -0.5L-2.15 -0.35L-0.95 0L1.1 -0.05L1.85 -0.2L2.25 -0.35L3.2 -0.65L2.6 0" />
<radialGradient
id="RadialGradID_3684" gradientUnits="userSpaceOnUse" gradientTransform="matrix(0.003479, 0, 0, 0.00253296, 0.2, -0.45)" spreadMethod ="pad" cx="0" cy="0" r="819.2" fx="0" fy="0" >
<stop  offset="0"  style="stop-color:#FBA6C0;stop-opacity:1" />
<stop  offset="0.741176"  style="stop-color:#FFA596;stop-opacity:0.811765" />
<stop  offset="1"  style="stop-color:#FCB994;stop-opacity:0.313725" />
</radialGradient>
<path style="fill:url(#RadialGradID_3684) " d="M3.1,-0.85L1.95 -0.45L1.85 -0.45L0.85 -0.2L0.95 -0.2L0.15 -0.15L-0.55 -0.15L-0.85 -0.2L-1.85 -0.45L-2.1 -0.5L-2.95 -0.85L-1.9 -0.65L-0.5 -0.55L0.05 -0.5L0.5 -0.55L1.95 -0.65L3.1 -0.85" />
<radialGradient
id="RadialGradID_3685" gradientUnits="userSpaceOnUse" gradientTransform="matrix(0.00190735, -0.000427246, 0.000244141, 0.00106812, 1.55, -0.35)" spreadMethod ="pad" cx="0" cy="0" r="819.2" fx="0" fy="0" >
<stop  offset="0.0392157"  style="stop-color:#FFFFFF;stop-opacity:1" />
<stop  offset="1"  style="stop-color:#FFFFFF;stop-opacity:0" />
</radialGradient>
<path style="fill:url(#RadialGradID_3685) " d="M1.25,0.1L1.95 -0.05L2.5 -0.2L2.35 0.05L1.95 0.2L0.9 0.5Q0.7 0.5 0.65 0.35L1.25 0.1" />
<radialGradient
id="RadialGradID_3686" gradientUnits="userSpaceOnUse" gradientTransform="matrix(0.00250244, 0, 0, 0.00250244, -0.6, 0.3)" spreadMethod ="pad" cx="0" cy="0" r="819.2" fx="0" fy="0" >
<stop  offset="0.0392157"  style="stop-color:#FFFFFF;stop-opacity:0.643137" />
<stop  offset="1"  style="stop-color:#FFFFFF;stop-opacity:0" />
</radialGradient>
<path style="fill:url(#RadialGradID_3686) " d="M-0.65,0.3L0.15 0.35L0.3 0.5L-0.1 0.75L-0.95 0.65L-1.65 0.45L-2.05 0.2L-2.25 -0.1L-0.65 0.3" />
</g>
</svg>
