<?xml version="1.0" encoding="utf-8"?>
<svg version="1.1" id="Layer_1"
xmlns="http://www.w3.org/2000/svg"
xmlns:xlink="http://www.w3.org/1999/xlink"
xmlns:author="http://www.sothink.com"
width="9px" height="4px"
xml:space="preserve">
<g id="410" transform="matrix(1, 0, 0, 1, 4.3, 1.95)">
<radialGradient
id="RadialGradID_3664" gradientUnits="userSpaceOnUse" gradientTransform="matrix(-7.62939e-005, -0.00190735, -0.0037384, 0.000137329, -0.05, 0.7)" spreadMethod ="pad" cx="0" cy="0" r="819.2" fx="0" fy="0" >
<stop  offset="0.0470588"  style="stop-color:#DA6969;stop-opacity:0.513725" />
<stop  offset="1"  style="stop-color:#FFEFEA;stop-opacity:0" />
</radialGradient>
<path style="fill:url(#RadialGradID_3664) " d="M-0.05,-0.45L1.65 -0.1Q2.25 0.15 2.3 0.65Q2.3 1.15 1.7 1.55L0 1.95L-1.6 1.65Q-2.4 1.35 -2.4 0.85Q-2.4 0.35 -1.65 0L-0.05 -0.45" />
<radialGradient
id="RadialGradID_3665" gradientUnits="userSpaceOnUse" gradientTransform="matrix(0.00106812, -3.05176e-005, 3.05176e-005, 0.00112915, -3.4, -0.9)" spreadMethod ="pad" cx="0" cy="0" r="819.2" fx="0" fy="0" >
<stop  offset="0.0470588"  style="stop-color:#C52929;stop-opacity:0.580392" />
<stop  offset="1"  style="stop-color:#FFEFEA;stop-opacity:0" />
</radialGradient>
<path style="fill:url(#RadialGradID_3665) " d="M-2.9,-0.35Q-3.1 -0.1 -3.5 -0.1L-4.05 -0.3L-4.3 -0.95L-4.1 -1.6L-3.5 -1.85L-2.9 -1.6L-2.6 -1Q-2.6 -0.65 -2.9 -0.35" />
<radialGradient
id="RadialGradID_3666" gradientUnits="userSpaceOnUse" gradientTransform="matrix(0.00106812, -3.05176e-005, 3.05176e-005, 0.00112915, 3.1, -1.1)" spreadMethod ="pad" cx="0" cy="0" r="819.2" fx="0" fy="0" >
<stop  offset="0.0470588"  style="stop-color:#C52929;stop-opacity:0.580392" />
<stop  offset="1"  style="stop-color:#FFEFEA;stop-opacity:0" />
</radialGradient>
<path style="fill:url(#RadialGradID_3666) " d="M2.4,-1.7L3 -1.95L4.35 -1.85L4.35 -0.2L3.1 -0.15Q2.75 -0.15 2.5 -0.4Q2.25 -0.75 2.25 -1.05L2.4 -1.7" />
<radialGradient
id="RadialGradID_3667" gradientUnits="userSpaceOnUse" gradientTransform="matrix(0.0042572, 0, 0, 0.0042572, -0.25, -0.8)" spreadMethod ="pad" cx="0" cy="0" r="819.2" fx="0" fy="0" >
<stop  offset="0"  style="stop-color:#8A1111;stop-opacity:1" />
<stop  offset="1"  style="stop-color:#C42121;stop-opacity:0.45098" />
</radialGradient>
<path style="fill:url(#RadialGradID_3667) " d="M-2.75,-0.6Q-3.35 -0.65 -3.35 -0.9L-3.3 -0.95L-3.3 -1L-3.15 -1Q-3.05 -0.9 -2.95 -0.9L-2.75 -0.9L-2.45 -0.9L-2.35 -0.9L-1.1 -1L-0.6 -0.9L-0.05 -0.9L1.55 -1.1L2.35 -1.1L2.55 -1.15L2.95 -1.2L3.15 -1.15L3.05 -0.95L2.65 -0.9L1.65 -0.8L-0.05 -0.7L-0.85 -0.7L-2.4 -0.6L-2.75 -0.6" />
<radialGradient
id="RadialGradID_3668" gradientUnits="userSpaceOnUse" gradientTransform="matrix(0.00312805, 0, 0, 0.00193787, -0.15, -1)" spreadMethod ="pad" cx="0" cy="0" r="819.2" fx="0" fy="0" >
<stop  offset="0"  style="stop-color:#F0707A;stop-opacity:1" />
<stop  offset="1"  style="stop-color:#FF666E;stop-opacity:0.152941" />
</radialGradient>
<path style="fill:url(#RadialGradID_3668) " d="M-2.4,-0.6L-0.85 -0.7L-0.05 -0.7L1.65 -0.8L2.65 -0.9Q1.9 0.35 1.2 0.5L-0.05 0.6L-1.05 0.55L-1.95 0.35L-2.75 -0.6L-2.4 -0.6" />
<radialGradient
id="RadialGradID_3669" gradientUnits="userSpaceOnUse" gradientTransform="matrix(0.0040741, 0, 0, 0.00204468, -0.3, -0.95)" spreadMethod ="pad" cx="0" cy="0" r="819.2" fx="0" fy="0" >
<stop  offset="0"  style="stop-color:#F0707A;stop-opacity:1" />
<stop  offset="0.705882"  style="stop-color:#FF666E;stop-opacity:0.101961" />
</radialGradient>
<path style="fill:url(#RadialGradID_3669) " d="M-2.75,-0.9L-2 -1.2L-1.45 -1.5L-0.7 -1.65L-0.2 -1.55L0.25 -1.65L0.85 -1.65L1.6 -1.35L2.55 -1.15L2.35 -1.1L1.55 -1.1L-0.05 -0.9L-0.6 -0.9L-1.1 -1L-2.35 -0.9L-2.45 -0.9L-2.75 -0.9" />
<linearGradient
id="LinearGradID_3670" gradientUnits="userSpaceOnUse" gradientTransform="matrix(0.000701904, 0, 0, 0.000259399, 0.55, -1.35)" spreadMethod ="pad" x1="-819.2" y1="0" x2="819.2" y2="0" >
<stop  offset="0" style="stop-color:#FFFFFF;stop-opacity:0" />
<stop  offset="0.486275" style="stop-color:#FFFFFF;stop-opacity:0.6" />
<stop  offset="1" style="stop-color:#FFFFFF;stop-opacity:0.0705882" />
</linearGradient>
<path style="fill:url(#LinearGradID_3670) " d="M0.4,-1.6L0.9 -1.45L1.15 -1.35L0.55 -1.35L-0.05 -1.15L0 -1.4Q0.05 -1.6 0.4 -1.6" />
<linearGradient
id="LinearGradID_3671" gradientUnits="userSpaceOnUse" gradientTransform="matrix(0.00187683, -0.000320435, 0.000106812, 0.000366211, -0.1, -0.4)" spreadMethod ="pad" x1="-819.2" y1="0" x2="819.2" y2="0" >
<stop  offset="0" style="stop-color:#FFFFFF;stop-opacity:0" />
<stop  offset="0.517647" style="stop-color:#FFFFFF;stop-opacity:1" />
<stop  offset="1" style="stop-color:#FFFFFF;stop-opacity:0.0705882" />
</linearGradient>
<path style="fill:url(#LinearGradID_3671) " d="M0.3,-0.15L-0.15 -0.1L-1.05 -0.2L-1.7 -0.4L-0.5 -0.5L0.7 -0.55L1.5 -0.5L1.5 -0.45L1.05 -0.3L0.3 -0.15" />
</g>
</svg>
