<?xml version="1.0" encoding="utf-8"?>
<svg version="1.1" id="Layer_1"
xmlns="http://www.w3.org/2000/svg"
xmlns:xlink="http://www.w3.org/1999/xlink"
xmlns:author="http://www.sothink.com"
width="7px" height="4px"
xml:space="preserve">
<g id="413" transform="matrix(1, 0, 0, 1, 3.4, 1.9)">
<radialGradient
id="RadialGradID_3687" gradientUnits="userSpaceOnUse" gradientTransform="matrix(0.000976563, 0, 0, 0.000976563, 2.65, -0.85)" spreadMethod ="pad" cx="0" cy="0" r="819.2" fx="0" fy="0" >
<stop  offset="0.117647"  style="stop-color:#CB3E1B;stop-opacity:0.643137" />
<stop  offset="1"  style="stop-color:#FFECD9;stop-opacity:0.380392" />
</radialGradient>
<path style="fill:url(#RadialGradID_3687) " d="M2.05,-1.35Q2.3 -1.55 2.65 -1.55L3.2 -1.35L3.4 -0.85L3.2 -0.35Q2.95 -0.15 2.65 -0.15Q2.3 -0.15 2.05 -0.35L1.85 -0.85L2.05 -1.35" />
<radialGradient
id="RadialGradID_3688" gradientUnits="userSpaceOnUse" gradientTransform="matrix(0.000976563, 0, 0, 0.000976563, -2.6, -0.85)" spreadMethod ="pad" cx="0" cy="0" r="819.2" fx="0" fy="0" >
<stop  offset="0.117647"  style="stop-color:#CB3E1B;stop-opacity:0.643137" />
<stop  offset="1"  style="stop-color:#FFECD9;stop-opacity:0.380392" />
</radialGradient>
<path style="fill:url(#RadialGradID_3688) " d="M-2.05,-1.35L-1.8 -0.85Q-1.8 -0.55 -2.05 -0.35Q-2.3 -0.15 -2.6 -0.15L-3.2 -0.35L-3.4 -0.85L-3.2 -1.35L-2.6 -1.55L-2.05 -1.35" />
<radialGradient
id="RadialGradID_3689" gradientUnits="userSpaceOnUse" gradientTransform="matrix(0.00280762, 0, 0, 0.00134277, -0.05, 0.75)" spreadMethod ="pad" cx="0" cy="0" r="819.2" fx="0" fy="0" >
<stop  offset="0.117647"  style="stop-color:#CB3E1B;stop-opacity:0.643137" />
<stop  offset="1"  style="stop-color:#FFECD9;stop-opacity:0.380392" />
</radialGradient>
<path style="fill:url(#RadialGradID_3689) " d="M1.5,1.55L-0.05 1.9L-1.65 1.55L-2.3 0.75Q-2.3 0.25 -1.65 -0.05L-0.05 -0.4L1.5 -0.05Q2.15 0.25 2.15 0.75L1.5 1.55" />
<path style="fill:#A33117;fill-opacity:1" d="M-2.4,-0.55L-2.8 -0.65L-2.8 -0.7L-2.65 -0.95L-2.65 -0.9L-2.55 -0.9L-2.2 -0.8L-1.7 -0.85L-0.45 -0.95L0.35 -0.95L1.55 -0.85L2.1 -0.8L2.45 -0.9L2.55 -0.9L2.55 -0.95L2.7 -0.7L2.7 -0.65L2.3 -0.55L2.2 -0.55L1.5 -0.55L0.45 -0.5L-0.05 -0.5L-0.55 -0.5L-1.6 -0.55L-2.3 -0.55L-2.4 -0.55" />
<radialGradient
id="RadialGradID_3690" gradientUnits="userSpaceOnUse" gradientTransform="matrix(0.00402832, 0, 0, 0.00146484, -0.15, -0.55)" spreadMethod ="pad" cx="0" cy="0" r="819.2" fx="0" fy="0" >
<stop  offset="0"  style="stop-color:#F06A53;stop-opacity:0.713725" />
<stop  offset="0.380392"  style="stop-color:#F5AB97;stop-opacity:0.541176" />
<stop  offset="0.584314"  style="stop-color:#F59D84;stop-opacity:0.490196" />
<stop  offset="0.835294"  style="stop-color:#F08162;stop-opacity:0.662745" />
</radialGradient>
<path style="fill:url(#RadialGradID_3690) " d="M1.55,0.3Q1.15 0.7 0.5 0.7L-0.05 0.7L-0.6 0.7Q-1.3 0.7 -1.65 0.3L-2.3 -0.55L-1.6 -0.55L-0.55 -0.5L-0.05 -0.5L0.45 -0.5L1.5 -0.55L2.2 -0.55L1.55 0.3" />
<radialGradient
id="RadialGradID_3691" gradientUnits="userSpaceOnUse" gradientTransform="matrix(0.00369263, 0, 0, 0.00151062, 0, -0.7)" spreadMethod ="pad" cx="0" cy="0" r="819.2" fx="0" fy="0" >
<stop  offset="0.286275"  style="stop-color:#F07553;stop-opacity:1" />
<stop  offset="0.67451"  style="stop-color:#FAAB8C;stop-opacity:0.592157" />
<stop  offset="1"  style="stop-color:#F2A180;stop-opacity:0.772549" />
</radialGradient>
<path style="fill:url(#RadialGradID_3691) " d="M-2.3,-0.95L-1.95 -1.2L-1.4 -1.65L-1.25 -1.7L-0.7 -1.9L-0.05 -1.65L0.6 -1.9L1.15 -1.7L1.25 -1.65L1.85 -1.2L2.2 -0.95L2.45 -0.9L2.1 -0.8L1.55 -0.85L0.35 -0.95L-0.45 -0.95L-1.7 -0.85L-2.2 -0.8L-2.55 -0.9L-2.3 -0.95" />
<path style="fill:#FFFFFF;fill-opacity:1" d="M-0.95,-0.8L-0.05 -0.8L0.65 -0.75L0.65 -0.7L0.6 -0.6L-0.15 -0.55L-0.85 -0.6L-0.95 -0.7L-0.95 -0.8" />
<radialGradient
id="RadialGradID_3692" gradientUnits="userSpaceOnUse" gradientTransform="matrix(0, 0.000915527, -0.00274658, 0, 0.45, -0.15)" spreadMethod ="pad" cx="0" cy="0" r="819.2" fx="0" fy="0" >
<stop  offset="0"  style="stop-color:#FFFFFF;stop-opacity:0.780392" />
<stop  offset="0.517647"  style="stop-color:#FFFFFF;stop-opacity:0.231373" />
<stop  offset="1"  style="stop-color:#FFFFFF;stop-opacity:0" />
</radialGradient>
<path style="fill:url(#RadialGradID_3692) " d="M0.95,-0.45L1.4 -0.3Q1.4 0 1.05 0.15L0 0.35L-0.65 0.2L-1.2 0.1L-1.45 -0.35L-1.2 -0.45L-0.65 -0.35L0.05 -0.35L0.95 -0.45" />
<radialGradient
id="RadialGradID_3693" gradientUnits="userSpaceOnUse" gradientTransform="matrix(0.00131226, 0, 0, 0.00131226, 0.4, -1.95)" spreadMethod ="pad" cx="0" cy="0" r="819.2" fx="0" fy="0" >
<stop  offset="0"  style="stop-color:#FFFFFF;stop-opacity:0.713725" />
<stop  offset="1"  style="stop-color:#FFFFFF;stop-opacity:0" />
</radialGradient>
<path style="fill:url(#RadialGradID_3693) " d="M-0.3,-1.55Q1.1 -1.85 1.55 -1.3L0.6 -1.15L-0.3 -1.55" />
</g>
</svg>
