<?xml version="1.0" encoding="utf-8"?>
<svg version="1.1" id="Layer_1"
xmlns="http://www.w3.org/2000/svg"
xmlns:xlink="http://www.w3.org/1999/xlink"
xmlns:author="http://www.sothink.com"
width="8px" height="5px"
xml:space="preserve">
<g id="419" transform="matrix(1, 0, 0, 1, -66.45, -45.5)">
<radialGradient
id="RadialGradID_3736" gradientUnits="userSpaceOnUse" gradientTransform="matrix(0.00256348, -0.000213623, 0.000152588, 0.00152588, 70.45, 48.65)" spreadMethod ="pad" cx="0" cy="0" r="819.2" fx="0" fy="0" >
<stop  offset="0"  style="stop-color:#FCC8B5;stop-opacity:1" />
<stop  offset="1"  style="stop-color:#FFECD9;stop-opacity:1" />
</radialGradient>
<path style="fill:url(#RadialGradID_3736) " d="M72.55,48.55Q72.65 48.85 72.05 49.2L70.55 49.5L69.1 49.4Q68.45 49.1 68.4 48.8Q68.25 48 70.4 47.85L71.9 48Q72.55 48.2 72.55 48.55" />
<radialGradient
id="RadialGradID_3737" gradientUnits="userSpaceOnUse" gradientTransform="matrix(0.00448608, 0, -1.52588e-005, 0.00328064, 70.4, 46.95)" spreadMethod ="pad" cx="0" cy="0" r="819.2" fx="0" fy="0" >
<stop  offset="0"  style="stop-color:#F97781;stop-opacity:1" />
<stop  offset="1"  style="stop-color:#FFECD9;stop-opacity:1" />
</radialGradient>
<path style="fill:url(#RadialGradID_3737) " d="M67.85,46.1L68.75 45.95L69.75 46L70.8 45.95L72.4 46.05L73.85 46.25Q74.35 46.1 74.15 46.3L74.15 46.25L73.25 47.35Q72.7 48.15 71.4 48.15L69.65 48.25L68.55 48.15Q67.85 47.95 67.25 47.15L66.5 46.3L66.65 46.35L66.5 46.05L67.85 46.1" />
<linearGradient
id="LinearGradID_3738" gradientUnits="userSpaceOnUse" gradientTransform="matrix(-0.00498962, 0, -1.52588e-005, 0.00100708, 70.5, 46.7)" spreadMethod ="pad" x1="-819.2" y1="0" x2="819.2" y2="0" >
<stop  offset="0.00392157" style="stop-color:#7E1B1B;stop-opacity:1" />
<stop  offset="0.176471" style="stop-color:#A34B4B;stop-opacity:1" />
<stop  offset="0.509804" style="stop-color:#F98692;stop-opacity:1" />
<stop  offset="0.839216" style="stop-color:#994D4D;stop-opacity:1" />
<stop  offset="1" style="stop-color:#7E1B1B;stop-opacity:1" />
</linearGradient>
<path style="fill:url(#LinearGradID_3738) " d="M74.05,46.1L73.35 46.45L73.35 46.5L72.8 46.6L71.8 46.7L69.85 46.75L68.35 46.75L68.2 46.75L67.8 46.55L67.1 46.3L66.7 46.1L66.55 46.1L66.5 46.2L66.5 46.25L66.65 46.5L67.15 46.7L67.6 46.85L68.25 47L69.75 47L71.7 47L72.9 46.9L72.9 46.95L72.95 46.95L73.15 46.9L73.35 46.85L73.4 46.8L73.7 46.7L73.75 46.7L74.2 46.35L74.25 46.15L74.15 46.1L74.05 46.1" />
<path style="fill:#FFFFFF;fill-opacity:0.611765" d="M71.6,46.2L71.7 46.1L71.6 45.95L71.5 46.1Q71.35 46.3 71.6 46.2M72.3,47.25Q72.05 47.1 72.1 47.35L72.1 47.6L72.5 47.45L72.3 47.25M72,47.8Q71.95 47.7 71.85 47.85L71.9 48L72.05 47.85L72 47.8" />
<path style="fill:#FEF1F0;fill-opacity:1" d="M69.95,45.5L69.85 45.55L69.9 45.7L69.95 45.55L69.95 45.5M70.25,45.85L70.35 45.75L70.25 45.65Q70.1 45.55 70.15 45.75L70.25 45.85M70.4,47.8L70.55 47.9L70.65 47.8L70.5 47.65L70.4 47.8" />
<path style="fill:#FEE3E1;fill-opacity:1" d="M68.7,46.55Q68.7 46.4 68.65 46.6L68.8 46.7L68.8 46.55Q68.85 46.4 68.7 46.55M72.5,46.45L72.4 46.3L72.25 46.4L72.3 46.5L72.5 46.45" />
<linearGradient
id="LinearGradID_3739" gradientUnits="userSpaceOnUse" gradientTransform="matrix(-0.00172424, -0.000183105, -3.05176e-005, 0.000366211, 69, 47.3)" spreadMethod ="pad" x1="-819.2" y1="0" x2="819.2" y2="0" >
<stop  offset="0" style="stop-color:#FFFFFF;stop-opacity:0" />
<stop  offset="0.494118" style="stop-color:#FFFFFF;stop-opacity:1" />
<stop  offset="1" style="stop-color:#FFFFFF;stop-opacity:0" />
</linearGradient>
<path style="fill:url(#LinearGradID_3739) " d="M68.15,47.3L68.7 47.45L69.9 47.55L70.4 47.35L69.65 47.2L68.75 47.2L68.1 47.05L67.75 47.1L68.15 47.3" />
<linearGradient
id="LinearGradID_3740" gradientUnits="userSpaceOnUse" gradientTransform="matrix(-0.000732422, 0.000396729, 0.000335693, 0.000579834, 68.5, 46.2)" spreadMethod ="pad" x1="-819.2" y1="0" x2="819.2" y2="0" >
<stop  offset="0" style="stop-color:#FFFFFF;stop-opacity:0.501961" />
<stop  offset="1" style="stop-color:#FFFFFF;stop-opacity:0" />
</linearGradient>
<path style="fill:url(#LinearGradID_3740) " d="M68.05,46.15Q67.5 46.5 67.7 46.4L68.7 46.15L69.25 46Q69.1 45.85 68.95 45.8L68.05 46.15" />
</g>
</svg>
