<?xml version="1.0" encoding="utf-8"?>
<svg version="1.1" id="Layer_1"
xmlns="http://www.w3.org/2000/svg"
xmlns:xlink="http://www.w3.org/1999/xlink"
xmlns:author="http://www.sothink.com"
width="9px" height="5px"
xml:space="preserve">
<g id="414" transform="matrix(1, 0, 0, 1, -65.7, -45.2)">
<radialGradient
id="RadialGradID_3694" gradientUnits="userSpaceOnUse" gradientTransform="matrix(-4.57764e-005, -0.00169373, -0.00350952, 9.15527e-005, 70.2, 49)" spreadMethod ="pad" cx="0" cy="0" r="819.2" fx="0" fy="0" >
<stop  offset="0.0470588"  style="stop-color:#DA6969;stop-opacity:0.513725" />
<stop  offset="1"  style="stop-color:#FFEFEA;stop-opacity:0" />
</radialGradient>
<path style="fill:url(#RadialGradID_3694) " d="M70.15,48L71.75 48.25Q72.35 48.55 72.4 48.95Q72.4 49.4 71.8 49.75L70.2 50.1L68.7 49.85Q68 49.5 68 49.05Q67.95 48.6 68.65 48.3Q69.25 48 70.15 48" />
<radialGradient
id="RadialGradID_3695" gradientUnits="userSpaceOnUse" gradientTransform="matrix(0.00100708, -1.52588e-005, 1.52588e-005, 0.00100708, 66.5, 46.05)" spreadMethod ="pad" cx="0" cy="0" r="819.2" fx="0" fy="0" >
<stop  offset="0.0470588"  style="stop-color:#C52929;stop-opacity:0.580392" />
<stop  offset="1"  style="stop-color:#FFEFEA;stop-opacity:0" />
</radialGradient>
<path style="fill:url(#RadialGradID_3695) " d="M67.05,46.55L66.5 46.8L65.95 46.6L65.7 46.05Q65.7 45.7 65.95 45.45L66.5 45.25L67.05 45.4L67.3 46L67.05 46.55" />
<radialGradient
id="RadialGradID_3696" gradientUnits="userSpaceOnUse" gradientTransform="matrix(0.00100708, -1.52588e-005, 1.52588e-005, 0.00100708, 73.85, 45.95)" spreadMethod ="pad" cx="0" cy="0" r="819.2" fx="0" fy="0" >
<stop  offset="0.0470588"  style="stop-color:#C52929;stop-opacity:0.580392" />
<stop  offset="1"  style="stop-color:#FFEFEA;stop-opacity:0" />
</radialGradient>
<path style="fill:url(#RadialGradID_3696) " d="M73.85,45.2L74.4 45.4L74.65 45.95L74.4 46.5L73.85 46.75L73.3 46.5Q73.05 46.3 73.05 45.95Q73.05 45.65 73.3 45.4L73.85 45.2" />
<radialGradient
id="RadialGradID_3697" gradientUnits="userSpaceOnUse" gradientTransform="matrix(0.00256348, 4.57764e-005, -0.000152588, 0.00134277, 70.55, 48.25)" spreadMethod ="pad" cx="0" cy="0" r="819.2" fx="0" fy="0" >
<stop  offset="0"  style="stop-color:#FBAF9D;stop-opacity:0.862745" />
<stop  offset="1"  style="stop-color:#FFECD9;stop-opacity:0.643137" />
</radialGradient>
<path style="fill:url(#RadialGradID_3697) " d="M70.75,47.65L72.55 47.75Q72.85 48 72.65 48.25L71.95 48.8L70.5 49L69.05 48.75L68.55 48.2Q68.55 47.45 70.75 47.65" />
</g>
</svg>
