<?xml version="1.0" encoding="utf-8"?>
<svg version="1.1" id="Layer_1"
xmlns="http://www.w3.org/2000/svg"
xmlns:xlink="http://www.w3.org/1999/xlink"
xmlns:author="http://www.sothink.com"
width="8px" height="4px"
xml:space="preserve">
<g id="425" transform="matrix(1, 0, 0, 1, 3.55, 1.9)">
<radialGradient
id="RadialGradID_3787" gradientUnits="userSpaceOnUse" gradientTransform="matrix(-0.000793457, 0.000579834, 0.000640869, 0.00088501, -2.8, -1.05)" spreadMethod ="pad" cx="0" cy="0" r="819.2" fx="0" fy="0" >
<stop  offset="0.211765"  style="stop-color:#E66A4D;stop-opacity:0.592157" />
<stop  offset="0.917647"  style="stop-color:#FFECD9;stop-opacity:0.262745" />
</radialGradient>
<path style="fill:url(#RadialGradID_3787) " d="M-2.7,-1.85L-2.1 -1.5L-2 -0.9Q-2 -0.55 -2.25 -0.4L-2.85 -0.3Q-3.2 -0.4 -3.35 -0.6L-3.55 -1.25L-3.25 -1.8L-2.7 -1.85" />
<radialGradient
id="RadialGradID_3788" gradientUnits="userSpaceOnUse" gradientTransform="matrix(0.000762939, 0.000610352, -0.000686646, 0.000854492, 2.75, -0.25)" spreadMethod ="pad" cx="0" cy="0" r="819.2" fx="0" fy="0" >
<stop  offset="0.211765"  style="stop-color:#E66A4D;stop-opacity:0.592157" />
<stop  offset="0.917647"  style="stop-color:#FFECD9;stop-opacity:0.262745" />
</radialGradient>
<path style="fill:url(#RadialGradID_3788) " d="M2.25,0.45Q1.95 0.2 1.95 -0.15Q1.9 -0.5 2.15 -0.7Q2.4 -1.05 2.75 -1.05L3.3 -0.95L3.55 -0.4L3.3 0.2L2.8 0.55L2.25 0.45" />
<radialGradient
id="RadialGradID_3789" gradientUnits="userSpaceOnUse" gradientTransform="matrix(0.00259399, 0.00038147, -0.000198364, 0.00131226, -0.35, 0.75)" spreadMethod ="pad" cx="0" cy="0" r="819.2" fx="0" fy="0" >
<stop  offset="0.172549"  style="stop-color:#E9765A;stop-opacity:0.643137" />
<stop  offset="1"  style="stop-color:#FFECD9;stop-opacity:0.380392" />
</radialGradient>
<path style="fill:url(#RadialGradID_3789) " d="M-0.1,-0.25L1.3 0.3Q1.9 0.65 1.85 1.1Q1.75 1.55 1.05 1.8L-0.5 1.85L-1.9 1.35Q-2.5 0.95 -2.45 0.45Q-2.4 0.05 -1.7 -0.15L-0.1 -0.25" />
<path style="fill:#CA6257;fill-opacity:1" d="M-2.4,-0.95L-1.45 -0.8L1.2 -0.45L2.25 -0.25L2.6 -0.3L2.7 -0.4L2.95 -0.2Q3 -0.05 2.65 0.05L2.35 0.05L2.2 0.05L1.25 -0.15L-0.15 -0.45L-1.85 -0.55L-2.25 -0.55Q-2.85 -0.65 -2.9 -1L-2.7 -1.15L-2.5 -1L-2.4 -0.95" />
<radialGradient
id="RadialGradID_3790" gradientUnits="userSpaceOnUse" gradientTransform="matrix(0.00502014, 0.000366211, -0.00012207, 0.0017395, -0.2, -0.55)" spreadMethod ="pad" cx="0" cy="0" r="819.2" fx="0" fy="0" >
<stop  offset="0"  style="stop-color:#FF8CA2;stop-opacity:1" />
<stop  offset="1"  style="stop-color:#FFE3C7;stop-opacity:1" />
</radialGradient>
<path style="fill:url(#RadialGradID_3790) " d="M2.6,-0.3L2.25 -0.25L1.2 -0.45L-1.45 -0.8L-2.4 -0.95L-2.5 -1L-0.95 -1.3L-0.5 -1.35L-0.1 -1.15L0.45 -1.25L0.9 -1L2 -0.5L2.05 -0.45L2.6 -0.3" />
<radialGradient
id="RadialGradID_3791" gradientUnits="userSpaceOnUse" gradientTransform="matrix(0.00389099, 0.00050354, -0.000335693, 0.00257874, -0.15, -0.5)" spreadMethod ="pad" cx="0" cy="0" r="819.2" fx="0" fy="0" >
<stop  offset="0"  style="stop-color:#FF8CA2;stop-opacity:1" />
<stop  offset="1"  style="stop-color:#FFE3C7;stop-opacity:1" />
</radialGradient>
<path style="fill:url(#RadialGradID_3791) " d="M-2.25,-0.55L-1.85 -0.55L-0.15 -0.45L1.25 -0.15L2.2 0.05L2.35 0.05Q1.2 0.8 0.45 0.8L-0.65 0.75L-1.5 0.35Q-2.05 -0.05 -2.25 -0.55" />
<linearGradient
id="LinearGradID_3792" gradientUnits="userSpaceOnUse" gradientTransform="matrix(-0.00140381, -0.000656128, 0.000152588, -0.000335693, 0.05, 0.5)" spreadMethod ="pad" x1="-819.2" y1="0" x2="819.2" y2="0" >
<stop  offset="0" style="stop-color:#FFFFFF;stop-opacity:1" />
<stop  offset="1" style="stop-color:#FFFFFF;stop-opacity:0" />
</linearGradient>
<path style="fill:url(#LinearGradID_3792) " d="M1.65,0.1L0.5 0.25L-0.9 0.3Q-1.15 0.45 -0.7 0.65L0.55 0.7L1.7 0.25Q1.85 0.1 1.65 0.1" />
</g>
</svg>
