<?xml version="1.0" encoding="utf-8"?>
<svg version="1.1" id="Layer_1"
xmlns="http://www.w3.org/2000/svg"
xmlns:xlink="http://www.w3.org/1999/xlink"
xmlns:author="http://www.sothink.com"
width="8px" height="4px"
xml:space="preserve">
<g id="429" transform="matrix(1, 0, 0, 1, 4, 1.55)">
<radialGradient
id="RadialGradID_3814" gradientUnits="userSpaceOnUse" gradientTransform="matrix(0.00279236, 0.000137329, -4.57764e-005, 0.000808716, -0.05, 0.95)" spreadMethod ="pad" cx="0" cy="0" r="819.2" fx="0" fy="0" >
<stop  offset="0.172549"  style="stop-color:#E9765A;stop-opacity:0.643137" />
<stop  offset="1"  style="stop-color:#FFECD9;stop-opacity:0.101961" />
</radialGradient>
<path style="fill:url(#RadialGradID_3814) " d="M-2.45,0.9Q-2.25 0.45 -1.65 0.3Q0.2 -0.15 2.05 0.6L2.5 0.9L2.5 1.05L2.35 1.1L1.7 1.5L-0.05 1.6L-1.85 1.45L-2.45 0.9" />
<radialGradient
id="RadialGradID_3815" gradientUnits="userSpaceOnUse" gradientTransform="matrix(-0.00062561, 0.000320435, 0.000595093, 0.000732422, 3.25, -0.8)" spreadMethod ="pad" cx="0" cy="0" r="819.2" fx="0" fy="0" >
<stop  offset="0.211765"  style="stop-color:#E66A4D;stop-opacity:0.592157" />
<stop  offset="1"  style="stop-color:#FFECD9;stop-opacity:0.0313725" />
</radialGradient>
<path style="fill:url(#RadialGradID_3815) " d="M2.85,-0.65Q2.65 -0.85 2.7 -1.1L2.85 -1.45L3.35 -1.45L3.8 -1.1L4 -0.6L3.8 -0.25L3.25 -0.3L2.85 -0.65" />
<radialGradient
id="RadialGradID_3816" gradientUnits="userSpaceOnUse" gradientTransform="matrix(0.000366211, 0.00050354, -0.000946045, 0.000442505, -3.1, -0.75)" spreadMethod ="pad" cx="0" cy="0" r="819.2" fx="0" fy="0" >
<stop  offset="0.211765"  style="stop-color:#E66A4D;stop-opacity:0.592157" />
<stop  offset="1"  style="stop-color:#FFECD9;stop-opacity:0.0313725" />
</radialGradient>
<path style="fill:url(#RadialGradID_3816) " d="M-2.8,-1.3L-2.35 -1.15Q-2.25 -0.95 -2.4 -0.8L-2.85 -0.4L-3.55 -0.3L-3.95 -0.45L-3.9 -0.8L-3.45 -1.2L-2.8 -1.3" />
<radialGradient
id="RadialGradID_3817" gradientUnits="userSpaceOnUse" gradientTransform="matrix(0.00456238, -0.00105286, 0.00132751, 0.00363159, 0.25, -0.2)" spreadMethod ="pad" cx="0" cy="0" r="819.2" fx="0" fy="0" >
<stop  offset="0.6"  style="stop-color:#D14F4F;stop-opacity:1" />
<stop  offset="1"  style="stop-color:#D14F4F;stop-opacity:0.623529" />
</radialGradient>
<path style="fill:url(#RadialGradID_3817) " d="M-1,-0.4L0.3 -0.3L0.95 -0.35L2.25 -0.5L3.4 -0.85L3.35 -0.7L3.25 -0.65L3.2 -0.6L1.55 -0.2L-0.2 -0.1L-1.9 -0.3L-3 -0.5L-3.4 -0.8L-3.15 -0.8L-3 -0.8L-1 -0.4" />
<radialGradient
id="RadialGradID_3818" gradientUnits="userSpaceOnUse" gradientTransform="matrix(0.0038147, -9.15527e-005, 0, 0.00108337, 0.3, -0.25)" spreadMethod ="pad" cx="0" cy="0" r="819.2" fx="0" fy="0" >
<stop  offset="0"  style="stop-color:#FA8C6D;stop-opacity:1" />
<stop  offset="0.678431"  style="stop-color:#FF997D;stop-opacity:0.513725" />
</radialGradient>
<path style="fill:url(#RadialGradID_3818) " d="M3.4,-0.85L2.25 -0.5L0.95 -0.35L0.3 -0.3L-1 -0.4L-3 -0.8L-1.25 -0.95L0.1 -1L0.9 -1L1.8 -1.05L3.4 -0.9L3.4 -0.85" />
<radialGradient
id="RadialGradID_3819" gradientUnits="userSpaceOnUse" gradientTransform="matrix(0.00654602, -0.000106812, 4.57764e-005, 0.00163269, 0.25, -0.3)" spreadMethod ="pad" cx="0" cy="0" r="819.2" fx="210511" fy="0" >
<stop  offset="0.219608"  style="stop-color:#FA8C6D;stop-opacity:1" />
<stop  offset="0.584314"  style="stop-color:#FF997D;stop-opacity:0.580392" />
<stop  offset="1"  style="stop-color:#FFDAC4;stop-opacity:0.231373" />
</radialGradient>
<path style="fill:url(#RadialGradID_3819) " d="M2.4,0.1L0.95 0.65L-1.1 0.6Q-2.25 0.4 -3 -0.5L-1.9 -0.3L-0.2 -0.1L1.55 -0.2L3.2 -0.6L3.25 -0.65L3.35 -0.7L2.4 0.1" />
<linearGradient
id="LinearGradID_3820" gradientUnits="userSpaceOnUse" gradientTransform="matrix(-0.00247192, 0.000640869, -0.000137329, -0.000366211, -0.2, 0.85)" spreadMethod ="pad" x1="-819.2" y1="0" x2="819.2" y2="0" >
<stop  offset="0.0235294" style="stop-color:#FFFFFF;stop-opacity:0.713725" />
<stop  offset="0.980392" style="stop-color:#FFFFFF;stop-opacity:0" />
</linearGradient>
<path style="fill:url(#LinearGradID_3820) " d="M-0.15,0.45L-0.4 0.5Q-0.5 0.3 -0.2 0.2L0.45 0.15L2.3 0L2.35 0.05L1.8 0.4L-0.15 0.45" />
</g>
</svg>
