<?xml version="1.0" encoding="utf-8"?>
<svg version="1.1" id="Layer_1"
xmlns="http://www.w3.org/2000/svg"
xmlns:xlink="http://www.w3.org/1999/xlink"
xmlns:author="http://www.sothink.com"
width="8px" height="5px"
xml:space="preserve">
<g id="430" transform="matrix(1, 0, 0, 1, 3.95, 2.3)">
<radialGradient
id="RadialGradID_3821" gradientUnits="userSpaceOnUse" gradientTransform="matrix(-6.10352e-005, -0.00198364, -0.00389099, 4.57764e-005, -0.15, 1)" spreadMethod ="pad" cx="0" cy="0" r="819.2" fx="0" fy="0" >
<stop  offset="0.0470588"  style="stop-color:#DA6969;stop-opacity:0.513725" />
<stop  offset="1"  style="stop-color:#FFEFEA;stop-opacity:0" />
</radialGradient>
<path style="fill:url(#RadialGradID_3821) " d="M-0.15,-0.2L1.6 0.15Q2.3 0.5 2.3 1Q2.3 1.5 1.65 1.9L-0.1 2.3L-1.8 1.95Q-2.55 1.55 -2.55 1.05Q-2.55 0.55 -1.8 0.2L-0.15 -0.2" />
<radialGradient
id="RadialGradID_3822" gradientUnits="userSpaceOnUse" gradientTransform="matrix(0.000991821, -1.52588e-005, 1.52588e-005, 0.000991821, 3.2, -1.5)" spreadMethod ="pad" cx="0" cy="0" r="819.2" fx="0" fy="0" >
<stop  offset="0.0470588"  style="stop-color:#C52929;stop-opacity:0.580392" />
<stop  offset="1"  style="stop-color:#FFEFEA;stop-opacity:0" />
</radialGradient>
<path style="fill:url(#RadialGradID_3822) " d="M3.2,-2.3L3.75 -2.05L4 -1.5L3.75 -0.95Q3.55 -0.75 3.2 -0.75L2.65 -0.95L2.45 -1.5Q2.4 -1.85 2.65 -2.05L3.2 -2.3" />
<radialGradient
id="RadialGradID_3823" gradientUnits="userSpaceOnUse" gradientTransform="matrix(0.000991821, -1.52588e-005, 1.52588e-005, 0.000991821, -3.2, -1.4)" spreadMethod ="pad" cx="0" cy="0" r="819.2" fx="0" fy="0" >
<stop  offset="0.0470588"  style="stop-color:#C52929;stop-opacity:0.580392" />
<stop  offset="1"  style="stop-color:#FFEFEA;stop-opacity:0" />
</radialGradient>
<path style="fill:url(#RadialGradID_3823) " d="M-3.15,-0.65L-3.75 -0.85Q-3.95 -1.05 -3.95 -1.4L-3.75 -1.95L-3.2 -2.2L-2.65 -1.95L-2.4 -1.4L-2.65 -0.85Q-2.85 -0.65 -3.15 -0.65" />
<radialGradient
id="RadialGradID_3824" gradientUnits="userSpaceOnUse" gradientTransform="matrix(0.00395203, 0, 0, 0.00395203, 0.1, -0.55)" spreadMethod ="pad" cx="0" cy="0" r="819.2" fx="0" fy="0" >
<stop  offset="0"  style="stop-color:#901226;stop-opacity:1" />
<stop  offset="1"  style="stop-color:#D1344E;stop-opacity:0.631373" />
</radialGradient>
<path style="fill:url(#RadialGradID_3824) " d="M-3.2,-1.15L-3.2 -1.3L-3 -1.4L-2.9 -1.35L-2.8 -1.3L-2.75 -1.25L-2.75 -1.2L-2.55 -1.15L-2.25 -1.15L-0.45 -1.1L-0.2 -1.05L0 -1L0.75 -1.15L0.8 -1.15L2.2 -1.2Q2.45 -1.25 2.7 -1.45L2.85 -1.6L3.05 -1.65L3.25 -1.55L3.05 -1.25L2.8 -1.05L1.95 -0.65Q1.15 -0.25 0.5 -0.2L-0.45 -0.15L-1.1 -0.2L-2.2 -0.6L-2.9 -1L-3.05 -1.05L-3.2 -1.15" />
<radialGradient
id="RadialGradID_3825" gradientUnits="userSpaceOnUse" gradientTransform="matrix(0.00401306, 0, 0, 0.00233459, 0.1, -0.8)" spreadMethod ="pad" cx="0" cy="0" r="819.2" fx="0" fy="0" >
<stop  offset="0"  style="stop-color:#E86F65;stop-opacity:1" />
<stop  offset="1"  style="stop-color:#FC6767;stop-opacity:0.141176" />
</radialGradient>
<path style="fill:url(#RadialGradID_3825) " d="M2.85,-1.6L2.7 -1.45Q2.45 -1.25 2.2 -1.2L0.8 -1.15L0.75 -1.15L0 -1L-0.2 -1.05L-0.45 -1.1L-2.25 -1.15L-2.55 -1.15L-2.75 -1.2L-2.75 -1.25L-0.6 -1.8L-0.1 -1.6L0.4 -1.65L1.05 -1.85L2.85 -1.6" />
<radialGradient
id="RadialGradID_3826" gradientUnits="userSpaceOnUse" gradientTransform="matrix(0.00457764, 0, 0, 0.00262451, 0.05, -1.05)" spreadMethod ="pad" cx="0" cy="0" r="819.2" fx="0" fy="0" >
<stop  offset="0"  style="stop-color:#F25C4F;stop-opacity:1" />
<stop  offset="1"  style="stop-color:#FC6767;stop-opacity:0.172549" />
</radialGradient>
<path style="fill:url(#RadialGradID_3826) " d="M1.65,0.4L0.75 0.9L0.3 1L-1.1 0.85L-2 0.35L-2.5 -0.2L-3.05 -1.05L-2.9 -1L-2.2 -0.6L-1.1 -0.2L-0.45 -0.15L0.5 -0.2Q1.15 -0.25 1.95 -0.65L2.8 -1.05L1.65 0.4" />
<path style="fill:#FFFFFF;fill-opacity:1" d="M2.3,-1.15L1.25 -0.6Q0.4 -0.3 -0.15 -0.35L-0.45 -0.4L-0.95 -0.5L-1.75 -0.75L-2.4 -1L0.05 -0.95L2.3 -1.15" />
<radialGradient
id="RadialGradID_3827" gradientUnits="userSpaceOnUse" gradientTransform="matrix(0.00314331, 0, 0, 0.00157166, -0.35, 0.35)" spreadMethod ="pad" cx="0" cy="0" r="819.2" fx="0" fy="0" >
<stop  offset="0"  style="stop-color:#FFFFFF;stop-opacity:0.823529" />
<stop  offset="1"  style="stop-color:#FFFFFF;stop-opacity:0" />
</radialGradient>
<path style="fill:url(#RadialGradID_3827) " d="M1.75,-0.25Q1.75 0.35 0.45 0.5L-1.25 0.5L-1.95 0L-2.2 -0.35Q-1.3 0.05 -0.45 0.1L0.85 0L1.75 -0.25" />
</g>
</svg>
