<?xml version="1.0" encoding="utf-8"?>
<svg version="1.1" id="Layer_1"
xmlns="http://www.w3.org/2000/svg"
xmlns:xlink="http://www.w3.org/1999/xlink"
xmlns:author="http://www.sothink.com"
width="1076px" height="282px"
xml:space="preserve">
<g id="552" transform="matrix(1, 0, 0, 1, 0, 0)">
<linearGradient
id="LinearGradID_4398" gradientUnits="userSpaceOnUse" gradientTransform="matrix(0.654449, 0, 0, 0.145844, 537.55, 119.45)" spreadMethod ="pad" x1="-819.2" y1="0" x2="819.2" y2="0" >
<stop  offset="0" style="stop-color:#542B01;stop-opacity:0.85098" />
<stop  offset="1" style="stop-color:#663300;stop-opacity:0.321569" />
</linearGradient>
<path style="fill:url(#LinearGradID_4398) " d="M1034.3,124.35L1033.95 124.95L1033.95 124.9L1034.3 124.35M667.7,66.55Q668.85 67.35 667.25 66.9L667.7 66.55" />
<path style="fill:#5C2E01;fill-opacity:1" d="M679.7,232.7L679.95 232.9L678.95 233.55L679.7 232.7" />
<path style="fill:#444444;fill-opacity:1" d="M732.95,268.95Q765.05 279.05 798.4 276.85Q810.85 276.5 822.8 272.8Q852.9 271.5 882.8 267.55L883.15 267.5L884.1 267.4L885.15 267.2L886.15 267.05Q932.05 259.05 972.65 245.5Q1014.7 231.4 1023.2 192.35Q1030.15 160.5 1026.25 120.85Q1027.7 121.3 1029.4 122.15Q1032.2 123.55 1033.95 124.9L1033.95 124.95L1034.35 125.25L1035.35 125.25Q1035.45 137.3 1036.35 159.6Q1035.85 212.95 998.1 245.1Q996.25 246.65 990.1 248.55Q873.1 285.4 774.5 281Q706.7 273.75 670.95 238.05Q672.85 237.5 674.6 236.5L676.25 235.35Q700.15 258.65 732.95 268.95M300.65,281.45Q202.05 285.85 85.05 249Q78.9 247.1 77.05 245.55Q39.3 213.4 38.8 160.05L39.55 138.5L39.75 129.1L39.8 125.7L39.8 124.45L40.85 124.8L41.2 125.4Q42.95 124 45.75 122.6Q47.45 121.75 48.9 121.3Q48.5 125.25 48.25 129.1Q47.9 133.85 47.7 138.5Q46.55 168 51.95 192.8Q60.45 231.85 102.55 245.95Q144.6 260 188.35 266.25Q237.75 273.05 287.8 272.45Q338.5 271.85 380.4 244.4Q388.25 239.25 395.25 233.35L400.55 236.95Q402.3 237.95 404.2 238.5Q368.45 274.2 300.65 281.45" />
<radialGradient
id="RadialGradID_4399" gradientUnits="userSpaceOnUse" gradientTransform="matrix(0.449066, 0, 0, 0.449066, 120.5, 70.15)" spreadMethod ="pad" cx="0" cy="0" r="819.2" fx="0" fy="0" >
<stop  offset="0"  style="stop-color:#FFFFFF;stop-opacity:0" />
<stop  offset="1"  style="stop-color:#02A6EC;stop-opacity:0.270588" />
</radialGradient>
<path style="fill:url(#RadialGradID_4399) " d="M380.4,244.4Q338.5 271.85 287.8 272.45Q237.75 273.05 188.35 266.25Q144.6 260 102.55 245.95Q60.45 231.85 51.95 192.8Q46.55 168 47.7 138.5Q47.9 133.85 48.25 129.1Q48.5 125.25 48.9 121.3Q49.8 112.2 51.25 102.75Q57.8 60 94.1 44.05Q101.1 40.95 109.2 38.9Q158.7 26.15 208 28.95L209.3 29Q222.15 29.05 235 29.4L284.15 31.65Q326.4 34.6 366.55 47.45Q373.95 49.8 381.35 52.55Q403.35 60.8 419.4 77.8Q424.7 83.4 428.85 89.3Q441.75 107.75 443.6 129.1Q443.95 133.75 443.85 138.5Q443.5 153.4 438 169.65L436.85 173.05Q423.7 209.25 395.25 233.35Q388.25 239.25 380.4 244.4" />
<radialGradient
id="RadialGradID_4400" gradientUnits="userSpaceOnUse" gradientTransform="matrix(0.33374, 0, 0, 0.33374, 757.85, 157.65)" spreadMethod ="pad" cx="0" cy="0" r="819.2" fx="0" fy="0" >
<stop  offset="0"  style="stop-color:#FFFFFF;stop-opacity:0" />
<stop  offset="1"  style="stop-color:#02A6EC;stop-opacity:0.270588" />
</radialGradient>
<path style="fill:url(#RadialGradID_4400) " d="M1023.2,192.35Q1014.7 231.4 972.65 245.5Q932.05 259.05 886.15 267.05L885.15 267.2L884.1 267.4L883.15 267.5L882.8 267.55Q852.9 271.5 822.8 272.8Q804.8 273.5 786.7 273.3Q736 272.7 694.1 245.25Q686.25 240.1 679.3 234.2L679.7 232.7Q673 227 667.2 220.7L660.9 213.3Q645.55 194 637.15 169.2Q631.85 153.5 631.35 139.1Q630.05 104.65 655.75 77.35Q660.9 71.9 666.65 67.4L667.25 66.9L667.7 66.55Q679.5 57.45 693.8 52.1L696.7 51.05Q733.7 37.75 772.55 33L791 31.2L819.25 29.7L846.25 28.8L847.1 28.8Q856.45 28.6 865.85 28.55L879.8 28.05L884.7 28Q925.25 27.95 965.95 38.45Q973.1 40.25 979.45 42.9Q1017.2 58.6 1023.9 102.3L1024.7 107.85L1026.25 120.85Q1030.15 160.5 1023.2 192.35" />
<linearGradient
id="LinearGradID_4401" gradientUnits="userSpaceOnUse" gradientTransform="matrix(0.786377, 0.156708, -0.0413055, 0.207321, 406.1, 39.75)" spreadMethod ="pad" x1="-819.2" y1="0" x2="819.2" y2="0" >
<stop  offset="0" style="stop-color:#492603;stop-opacity:1" />
<stop  offset="1" style="stop-color:#000000;stop-opacity:1" />
</linearGradient>
<path style="fill:url(#LinearGradID_4401) " d="M678.95,233.55L678.9 233.55L676.25 235.35L674.6 236.5Q672.85 237.5 670.95 238.05L667 238.5Q644.45 238.5 627.4 213.4Q616.3 197.05 601.7 158.15L590.45 128.6Q584 112.75 578.3 102.85Q563.8 77.75 545.6 77.75L528 78.25Q510.75 79.25 496.85 103.3Q491.15 113.2 484.7 129.05L473.45 158.6Q458.85 197.5 447.75 213.85Q430.7 238.95 408.15 238.95L404.2 238.5Q402.3 237.95 400.55 236.95L395.25 233.35Q423.7 209.25 436.85 173.05L438 169.65Q443.5 153.4 443.85 138.5Q443.95 133.75 443.6 129.1Q441.75 107.75 428.85 89.3Q424.7 83.4 419.4 77.8Q403.35 60.8 381.35 52.55Q373.95 49.8 366.55 47.45Q326.4 34.6 284.15 31.65L235 29.4Q222.15 29.05 209.3 29L208 28.95Q158.7 26.15 109.2 38.9Q101.1 40.95 94.1 44.05Q57.8 60 51.25 102.75Q49.8 112.2 48.9 121.3Q47.45 121.75 45.75 122.6Q42.95 124 41.2 125.4L40.85 124.8L39.8 124.45L1.45 111.65Q-4.25 62.7 12.55 17.65Q114.3 -8.55 256.15 5.15L260.2 5.55L291.65 12Q430.1 39.35 535 39.7L535.05 39.7L537.15 39.7L540.15 39.25Q656.8 38.85 814.95 5.1Q959.45 -9.35 1062.6 17.2Q1080.25 60.15 1073.7 111.2L1034.3 124.35L1033.95 124.9Q1032.2 123.55 1029.4 122.15Q1027.7 121.3 1026.25 120.85L1024.7 107.85L1023.9 102.3Q1017.2 58.6 979.45 42.9Q973.1 40.25 965.95 38.45Q925.25 27.95 884.7 28L879.8 28.05L865.85 28.55Q856.45 28.6 847.1 28.8L846.25 28.8L819.25 29.7L791 31.2L772.55 33Q733.7 37.75 696.7 51.05L693.8 52.1Q679.5 57.45 667.7 66.55L667.25 66.9L666.65 67.4Q660.9 71.9 655.75 77.35Q630.05 104.65 631.35 139.1Q631.85 153.5 637.15 169.2Q645.55 194 660.9 213.3L667.2 220.7Q673 227 679.7 232.7L678.95 233.55" />
<path style="fill:#959595;fill-opacity:1" d="M679.3,234.2Q686.25 240.1 694.1 245.25Q736 272.7 786.7 273.3Q804.8 273.5 822.8 272.8Q810.85 276.5 798.4 276.85Q765.05 279.05 732.95 268.95Q700.15 258.65 676.25 235.35L678.9 233.55L679.3 234.2" />
</g>
</svg>
