<?xml version="1.0" encoding="utf-8"?>
<svg version="1.1" id="Layer_1"
xmlns="http://www.w3.org/2000/svg"
xmlns:xlink="http://www.w3.org/1999/xlink"
xmlns:author="http://www.sothink.com"
width="139px" height="28px"
xml:space="preserve">
<g id="555" transform="matrix(1, 0, 0, 1, 0, 0)">
<linearGradient
id="LinearGradID_4409" gradientUnits="userSpaceOnUse" gradientTransform="matrix(-0.0770721, 0.00840759, -0.108063, -0.992279, 75.05, 57.85)" spreadMethod ="pad" x1="-819.2" y1="0" x2="819.2" y2="0" >
<stop  offset="0" style="stop-color:#E96127;stop-opacity:1" />
<stop  offset="0.698039" style="stop-color:#770000;stop-opacity:1" />
<stop  offset="1" style="stop-color:#110000;stop-opacity:1" />
</linearGradient>
<path style="fill:url(#LinearGradID_4409) " d="M132.3,13.65L132.3 13.95Q132.1 19.35 131.2 23.95Q130.65 26.2 127.05 26.2L126.95 26.2Q106.1 28.35 88.65 25.3Q83.9 24.7 82.85 23.3Q80.55 17.2 78.7 10.15Q77.2 8.4 71.1 8.25L69.5 8.25Q63.15 8.45 61.6 10.2Q59.65 17.25 57.3 23.35Q56.2 24.75 51.35 25.35Q33.3 28.4 11.8 26.25L11.7 26.25Q8 26.25 7.45 24Q6.45 19.4 6.3 14L3.55 13.85Q3.85 12.05 6.25 13L6.25 11.95Q2.1 11.5 0.65 12.8L0.05 12.85L0 9.75Q0.2 8.8 4.75 8.55Q5.95 8.65 6.35 7.2L6.9 4.3Q7.2 1.75 8.9 1.7L9 1.55L9.2 1.55Q35.25 -2.9 64.85 6L75.55 5.95Q104.25 -2.95 129.5 1.5L129.65 1.5L129.75 1.65Q131.35 1.7 131.7 4.25L132.25 7.15L132.35 11.95L132.3 13.65M79.75,9.95L82.5 19.3Q83.45 22.75 86.05 23.35L86.55 23.45L94.55 24.7Q109.3 26.6 124.25 25.3Q130.05 25.2 130.2 22.9Q131.3 11.5 130.1 6.45Q129.45 3 119.2 2.45L114.95 2.35Q98.5 2.05 83.6 6.05L83.4 6.1L82.45 6.35L82.2 6.4Q79.6 7.15 79.75 9.95M57.75,6.4L56.75 6.15L56.55 6.1Q41.15 2.1 24.2 2.4L19.8 2.5Q9.2 3.05 8.55 6.5Q7.3 11.55 8.45 22.95Q8.6 25.25 14.6 25.35Q30 26.65 45.25 24.75L53.5 23.5L54 23.4Q56.7 22.8 57.65 19.35L60.5 10Q60.6 7.2 57.95 6.45L57.75 6.4" />
<linearGradient
id="LinearGradID_4410" gradientUnits="userSpaceOnUse" gradientTransform="matrix(-0.00418091, 0.000213623, -0.0521393, -0.99614, 137.2, 52.35)" spreadMethod ="pad" x1="-819.2" y1="0" x2="819.2" y2="0" >
<stop  offset="0" style="stop-color:#9A3810;stop-opacity:1" />
<stop  offset="0.47451" style="stop-color:#EE6544;stop-opacity:1" />
<stop  offset="1" style="stop-color:#CD532F;stop-opacity:1" />
</linearGradient>
<path style="fill:url(#LinearGradID_4410) " d="M132.35,11.95L132.25 7.15Q132.6 8.6 133.8 8.5Q138.15 8.75 138.4 9.7L138.35 12.65L138.3 12.45Q137.7 11.45 132.35 11.95" />
<path style="fill:#281613;fill-opacity:1" d="M132.35,11.95Q137.7 11.45 138.3 12.45L136.2 13.3L132.3 13.65L132.35 11.95M130.1,6.45Q131.3 11.5 130.2 22.9Q130.05 25.2 124.25 25.3Q109.3 26.6 94.55 24.7Q108.9 26.3 124.6 24.8Q128.85 24.35 129.15 23.15Q129.95 15.35 128.9 5.8Q128.5 3.85 119.2 2.45Q129.45 3 130.1 6.45" />
<path style="fill:#FCDED8;fill-opacity:1" d="M82.2,6.4L82.2 6.45Q78.95 7.8 80.85 12.7Q81.95 17.2 83.8 21.45Q84.75 22.65 86.05 23.25L86.05 23.35Q83.45 22.75 82.5 19.3L79.75 9.95Q79.6 7.15 82.2 6.4" />
<path style="fill:#000000;fill-opacity:1" d="M57.95,6.45Q60.6 7.2 60.5 10L57.65 19.35Q56.7 22.8 54 23.4L53.5 23.5Q55.15 22.95 56.3 21.5Q58.2 17.25 59.35 12.75Q61.35 7.7 57.75 6.4L57.95 6.45" />
<path style="fill:#8C250D;fill-opacity:1" d="M3.55,13.85L3.3 13.8L3.2 13.8Q2 12.7 0.65 12.8Q2.1 11.5 6.25 11.95L6.25 13Q3.85 12.05 3.55 13.85" />
<path style="fill:#A42C0F;fill-opacity:1" d="M19.8,2.5Q10.15 3.9 9.8 5.85Q8.7 15.4 9.55 23.2Q9.8 24.4 14.2 24.85Q30.4 26.35 45.25 24.75Q30 26.65 14.6 25.35Q8.6 25.25 8.45 22.95Q7.3 11.55 8.55 6.5Q9.2 3.05 19.8 2.5" />
</g>
</svg>
