<?xml version="1.0" encoding="utf-8"?>
<svg version="1.1" id="Layer_1"
xmlns="http://www.w3.org/2000/svg"
xmlns:xlink="http://www.w3.org/1999/xlink"
xmlns:author="http://www.sothink.com"
width="23px" height="5px"
xml:space="preserve">
<g id="567" transform="matrix(1, 0, 0, 1, 11.3, 2.4)">
<linearGradient
id="LinearGradID_4536" gradientUnits="userSpaceOnUse" gradientTransform="matrix(3.05176e-005, -0.00245667, 0.00689697, -4.57764e-005, 0.7, -1)" spreadMethod ="pad" x1="-819.2" y1="0" x2="819.2" y2="0" >
<stop  offset="0" style="stop-color:#000000;stop-opacity:1" />
<stop  offset="1" style="stop-color:#999999;stop-opacity:1" />
</linearGradient>
<path style="fill:url(#LinearGradID_4536) " d="M3.6,1.85L3.75 1.9L5.3 2L6.2 1.95L6.3 2L7 1.9L8.15 1.85L8.7 1.65L9.05 1.35Q9.75 0.2 9.6 -1.1L9.1 -1.5L8.8 -1.6L8.2 -1.7L7.6 -1.75L7.05 -1.85L5.6 -1.95L3.75 -1.8L3.5 -1.75L2.6 -1.65L2.1 -1.45L2.05 -1.45Q1.75 -1.35 1.8 -0.9Q1.75 0.25 2.3 1.25Q2.4 1.5 2.85 1.6L3.65 1.85L3.6 1.85M11.25,-0.6L11.2 -0.35L10.6 -0.35L10.45 -0.9L10.35 -0.2L11.2 -0.15L10.85 0.5L10.1 0.55L9.25 1.9L6.7 2.35L5.95 2.4L4.95 2.35L2.35 2.1Q1.25 1.35 0.8 -0.25Q0 -0.65 -0.9 -0.25Q-1.45 1.35 -2.5 2.1L-7.7 2.3L-9.45 1.9L-9.45 1.85L-9.55 1.75Q-10.55 0.25 -10.2 -1.15Q-9.85 -1.75 -8.8 -1.9L-8.1 -2L-1.25 -1.6L1.45 -1.6L2.65 -1.8L3.6 -1.9L7.1 -2.1L7.65 -2.05L8.25 -2L9.35 -1.8L10.45 -1.55L11.3 -1.3L11.3 -0.85L10.45 -0.9L11.25 -0.6M-3.8,1.85L-3.7 1.8L-2.65 1.55L-2.3 1.25Q-1.65 0.25 -1.65 -0.95Q-1.65 -1.4 -2.05 -1.45L-2.15 -1.5L-2.15 -1.45L-3.75 -1.8L-4.05 -1.85L-4.8 -1.9L-5.65 -1.95L-8.2 -1.7L-8.85 -1.55L-9.1 -1.5L-9.5 -1.1Q-9.7 0.15 -9.05 1.35Q-8.85 1.7 -8.25 1.75L-7.95 1.8L-7.85 1.8L-6.75 1.85L-6.25 1.9L-3.8 1.8L-3.8 1.85" />
<radialGradient
id="RadialGradID_4537" gradientUnits="userSpaceOnUse" gradientTransform="matrix(0.00526428, 0.000457764, -0.000701904, 0.00405884, 5.5, 1.4)" spreadMethod ="pad" cx="0" cy="0" r="819.2" fx="0" fy="0" >
<stop  offset="0"  style="stop-color:#868679;stop-opacity:0" />
<stop  offset="1"  style="stop-color:#CCCCCC;stop-opacity:1" />
</radialGradient>
<path style="fill:url(#RadialGradID_4537) " d="M8.75,1.5L8.2 1.7L7.1 1.75L6.4 1.8L6.25 1.85L5.4 1.85L3.8 1.7Q2.75 1.5 2.45 1.15Q1.9 0.15 1.95 -1L1.95 -1.2L2.05 -1.45L2.1 -1.45L2.6 -1.65L3.5 -1.75L3.75 -1.8L5.6 -1.95L7.05 -1.85L7.6 -1.75L8.2 -1.7L8.8 -1.6L9.1 -1.5L9.45 -1.1Q9.6 0.2 8.95 1.3L8.75 1.5" />
<path style="fill:#848484;fill-opacity:1" d="M1.95,-1.2L1.95 -1Q1.9 0.15 2.45 1.15Q2.75 1.5 3.8 1.7L5.4 1.85L6.25 1.85L6.4 1.8L7.1 1.75L8.2 1.7L8.75 1.5L8 1.8L7.05 1.85L6.35 1.9L6.05 1.9L5.35 1.95L3.65 1.85L2.85 1.6Q2.4 1.5 2.3 1.25Q1.75 0.25 1.8 -0.9Q1.75 -1.35 2.05 -1.45L1.95 -1.2" />
<path style="fill:#000000;fill-opacity:1" d="M8.95,1.3Q9.6 0.2 9.45 -1.1L9.1 -1.5L9.6 -1.1Q9.75 0.2 9.05 1.35L8.7 1.65L8.15 1.85L7 1.9L6.3 2L6.2 1.95L5.3 2L3.75 1.9L3.6 1.85L3.65 1.85L5.35 1.95L6.05 1.9L6.35 1.9L7.05 1.85L8 1.8L8.75 1.5L8.95 1.3M10.45,-1.55L9.35 -1.8L8.25 -2L7.65 -2.05L7.1 -2.1L3.6 -1.9L2.65 -1.8L1.45 -1.6L-1.25 -1.6L-8.1 -2L-8.8 -1.9Q-9.85 -1.75 -10.2 -1.15Q-10.55 0.25 -9.55 1.75L-10.25 0.6L-10.45 -0.2L-10.55 -0.9L-10.5 -1.45L-11 -1.3L-11 -0.85L-10.95 -0.25L-10.95 -0.2L-10.8 0.5L-11 0.5L-11.25 -0.2L-11.25 -0.3L-11.3 -0.85L-11.25 -1.55L-10.4 -1.8L-8.05 -2.25L-1.3 -1.8L1.3 -1.8L2.75 -2.1L3.75 -2.2L7.15 -2.35L7.7 -2.3L8.25 -2.25L10.35 -1.8L11.25 -1.55L11.3 -1.3L10.45 -1.55M-3.8,1.8L-2.6 1.4L-2.45 1.25Q-1.8 0.3 -1.8 -0.9Q-1.75 -1.4 -2.15 -1.45L-2.15 -1.5L-2.05 -1.45Q-1.65 -1.4 -1.65 -0.95Q-1.65 0.25 -2.3 1.25L-2.65 1.55L-3.7 1.8L-3.8 1.85L-3.8 1.8" />
<path style="fill:#A2A2A2;fill-opacity:1" d="M-10.95,-0.2L-10.95 -0.25L-10.65 -0.3L-10.7 -0.9L-10.5 -1.45L-10.55 -0.9L-10.45 -0.2L-10.95 -0.2M10.35,-0.2L10.45 -0.9L10.6 -0.35L11.2 -0.35L11.2 -0.15L10.35 -0.2" />
<path style="fill:#FFFFFF;fill-opacity:1" d="M10.45,-0.9L11.3 -0.85L11.25 -0.6L10.45 -0.9" />
<path style="fill:#CCCCCC;fill-opacity:1" d="M-10.8,0.5L-10.95 -0.2L-10.45 -0.2L-10.25 0.6L-10.8 0.5M-10.95,-0.25L-11 -0.85L-11 -1.3L-10.5 -1.45L-10.7 -0.9L-10.65 -0.3L-10.95 -0.25M-3.8,1.8L-6.25 1.9L-6.75 1.85L-7.85 1.8L-7.95 1.8L-8.25 1.75Q-8.85 1.7 -9.05 1.35Q-9.7 0.15 -9.5 -1.1L-9.1 -1.5L-9.35 -1.2L-9.35 -1.15Q-9.5 0.1 -8.9 1.25Q-8.7 1.55 -8.05 1.65L-8 1.65L-6.05 1.8L-3.65 1.7L-2.6 1.4L-3.8 1.8" />
<radialGradient
id="RadialGradID_4538" gradientUnits="userSpaceOnUse" gradientTransform="matrix(0.00619507, 0.000534058, -0.000762939, 0.00456238, -4.55, 0.7)" spreadMethod ="pad" cx="0" cy="0" r="819.2" fx="0" fy="0" >
<stop  offset="0"  style="stop-color:#868679;stop-opacity:0" />
<stop  offset="1"  style="stop-color:#CCCCCC;stop-opacity:1" />
</radialGradient>
<path style="fill:url(#RadialGradID_4538) " d="M-8.85,-1.55L-8.2 -1.7L-5.65 -1.95L-4.8 -1.9L-4.05 -1.85L-3.75 -1.8L-2.15 -1.45Q-1.75 -1.4 -1.8 -0.9Q-1.8 0.3 -2.45 1.25L-2.6 1.4L-3.65 1.7L-6.05 1.8L-8 1.65L-8.05 1.65Q-8.7 1.55 -8.9 1.25Q-9.5 0.1 -9.35 -1.15L-9.35 -1.2L-9.1 -1.5L-8.85 -1.55" />
</g>
</svg>
