<?xml version="1.0" encoding="utf-8"?>
<svg version="1.1" id="Layer_1"
xmlns="http://www.w3.org/2000/svg"
xmlns:xlink="http://www.w3.org/1999/xlink"
xmlns:author="http://www.sothink.com"
width="25px" height="9px"
xml:space="preserve">
<g id="566" transform="matrix(1, 0, 0, 1, 14.2, 0.75)">
<linearGradient
id="LinearGradID_4528" gradientUnits="userSpaceOnUse" gradientTransform="matrix(-0.000869751, -0.00546265, -0.00463867, 0.000747681, 4.6, 3.5)" spreadMethod ="pad" x1="-819.2" y1="0" x2="819.2" y2="0" >
<stop  offset="0" style="stop-color:#FEDCBC;stop-opacity:0.2" />
<stop  offset="1" style="stop-color:#823909;stop-opacity:1" />
</linearGradient>
<path style="fill:url(#LinearGradID_4528) " d="M7.9,1.65Q7.9 0.1 7.5 -0.3L7.8 -0.25L8.55 -0.05L8.8 0L9.5 0.4L9.7 0.6L9.9 1.3Q9.9 2 9.2 3.1L8.9 3.55L7.75 4.85L6.65 5.9Q7.9 4 7.9 1.65" />
<path style="fill:#000000;fill-opacity:1" d="M7.05,-0.35L6.65 -0.35L2.55 0.25L0.7 0.65Q-0.75 0.95 -0.75 2.2L-0.75 2.3Q-0.75 3.4 -0.4 4.3L-0.9 2.95L-1 2.6L-1.8 2.35Q-2.5 2.35 -2.8 2.65L-3.35 4.3L-3.1 3.3L-3.1 3.25L-3.05 2.45L-3.05 2.2Q-3.05 0.95 -4.5 0.65L-6.35 0.25L-10.45 -0.35L-11.4 -0.25L-11.6 -0.25L-11.65 -0.2L-12.15 -0.1L-12.3 -0.05L-12.55 0L-13.25 0.35L-13.25 0.4L-13.45 0.6L-13.7 1.3Q-13.7 2 -13 3.1Q-14.2 1.9 -14.2 1.1L-14 0.55L-13.7 0.2Q-13.05 -0.35 -12.2 -0.55L-10.7 -0.75Q-7.9 -0.75 -5.5 0.05L-3.45 0.7Q-2.75 1.05 -2.75 2.05L-2.75 2.2Q-2.5 1.95 -1.9 1.95L-1.05 2.15L-1.05 2.05Q-1.05 1.05 -0.35 0.7L1.7 0.05Q4.1 -0.75 6.9 -0.75Q8.75 -0.75 9.9 0.2L10.25 0.55L10.4 1.1Q10.4 1.9 9.2 3.1Q9.9 2 9.9 1.3L9.7 0.6L9.5 0.4L8.8 0L8.55 -0.05L7.8 -0.25L7.5 -0.3L7.05 -0.35" />
<linearGradient
id="LinearGradID_4529" gradientUnits="userSpaceOnUse" gradientTransform="matrix(0.000869751, -0.00546265, 0.00463867, 0.000747681, -8.4, 3.5)" spreadMethod ="pad" x1="-819.2" y1="0" x2="819.2" y2="0" >
<stop  offset="0" style="stop-color:#FEDCBC;stop-opacity:0.2" />
<stop  offset="1" style="stop-color:#823909;stop-opacity:0.8" />
</linearGradient>
<path style="fill:url(#LinearGradID_4529) " d="M-10.6,4.7Q-11.55 2.95 -11.75 1.55L-11.85 0.65L-11.65 -0.2L-11.6 -0.25L-11.4 -0.25L-10.45 -0.35L-6.35 0.25L-4.5 0.65Q-3.05 0.95 -3.05 2.2L-3.05 2.45L-3.1 3.25L-3.1 3.3L-3.35 4.3L-4.3 5.95L-5.75 7.1L-5.9 7.15L-6.25 7.25L-7.05 7.35Q-8.1 7.35 -9.2 6.75L-9.55 6.55L-10.6 4.7" />
<linearGradient
id="LinearGradID_4530" gradientUnits="userSpaceOnUse" gradientTransform="matrix(0.000869751, -0.00546265, 0.00463867, 0.000747681, -8.4, 3.5)" spreadMethod ="pad" x1="-819.2" y1="0" x2="819.2" y2="0" >
<stop  offset="0" style="stop-color:#FEDCBC;stop-opacity:0.2" />
<stop  offset="1" style="stop-color:#823909;stop-opacity:1" />
</linearGradient>
<path style="fill:url(#LinearGradID_4530) " d="M-9.55,6.55L-11.55 4.85L-12.65 3.55L-13 3.1Q-13.7 2 -13.7 1.3L-13.45 0.6L-13.25 0.4L-13.25 0.35L-12.55 0L-12.3 -0.05L-12.15 -0.1L-11.65 -0.2L-11.85 0.65L-11.75 1.55Q-11.55 2.95 -10.6 4.7L-9.55 6.55" />
<linearGradient
id="LinearGradID_4531" gradientUnits="userSpaceOnUse" gradientTransform="matrix(-0.000869751, -0.00546265, -0.00463867, 0.000747681, 4.6, 3.5)" spreadMethod ="pad" x1="-819.2" y1="0" x2="819.2" y2="0" >
<stop  offset="0" style="stop-color:#FEDCBC;stop-opacity:0.2" />
<stop  offset="1" style="stop-color:#823909;stop-opacity:0.8" />
</linearGradient>
<path style="fill:url(#LinearGradID_4531) " d="M7.5,-0.3Q7.9 0.1 7.9 1.65Q7.9 4 6.65 5.9L6.1 6.35Q4.6 7.35 3.25 7.35Q1.7 7.35 0.5 5.95L-0.4 4.3Q-0.75 3.4 -0.75 2.3L-0.75 2.2Q-0.75 0.95 0.7 0.65L2.55 0.25L6.65 -0.35L7.05 -0.35L7.5 -0.3" />
<radialGradient
id="RadialGradID_4532" gradientUnits="userSpaceOnUse" gradientTransform="matrix(0.00128174, -0.000839233, 0.00193787, 0.00297546, -11.1, 2.8)" spreadMethod ="pad" cx="0" cy="0" r="819.2" fx="0" fy="0" >
<stop  offset="0"  style="stop-color:#FFFFFF;stop-opacity:1" />
<stop  offset="0.839216"  style="stop-color:#FFFFFF;stop-opacity:0" />
</radialGradient>
<path style="fill:url(#RadialGradID_4532) " d="M-9.25,4Q-9.1 4.9 -9.55 5.2Q-10 5.5 -10.75 5L-12.15 3.45L-12.95 1.55Q-13.15 0.6 -12.7 0.35Q-12.25 0.05 -11.45 0.55Q-10.7 1.1 -10.05 2.1Q-9.4 3.1 -9.25 4" />
<radialGradient
id="RadialGradID_4533" gradientUnits="userSpaceOnUse" gradientTransform="matrix(0.000839233, -0.00038147, 0.00111389, 0.00119019, -8.8, 5.5)" spreadMethod ="pad" cx="0" cy="0" r="819.2" fx="0" fy="0" >
<stop  offset="0"  style="stop-color:#FFFFFF;stop-opacity:1" />
<stop  offset="0.839216"  style="stop-color:#FFFFFF;stop-opacity:0" />
</radialGradient>
<path style="fill:url(#RadialGradID_4533) " d="M-7.65,5.95Q-7.6 6.3 -7.9 6.5L-8.65 6.4L-9.5 5.8L-9.95 5Q-10 4.65 -9.7 4.5L-8.95 4.55Q-8.5 4.8 -8.1 5.2L-7.65 5.95" />
<radialGradient
id="RadialGradID_4534" gradientUnits="userSpaceOnUse" gradientTransform="matrix(0.00140381, -0.00062561, 0.00144958, 0.0032196, 0.85, 3.2)" spreadMethod ="pad" cx="0" cy="0" r="819.2" fx="0" fy="0" >
<stop  offset="0"  style="stop-color:#FFFFFF;stop-opacity:0.6" />
<stop  offset="0.839216"  style="stop-color:#FFFFFF;stop-opacity:0" />
</radialGradient>
<path style="fill:url(#RadialGradID_4534) " d="M2.5,4.7Q2.5 5.65 2.05 5.85Q1.55 6.05 0.85 5.45Q0.15 4.8 -0.3 3.75L-0.8 1.7Q-0.8 0.8 -0.35 0.6Q0.15 0.35 0.85 1Q1.5 1.6 2 2.7Q2.5 3.8 2.5 4.7" />
<radialGradient
id="RadialGradID_4535" gradientUnits="userSpaceOnUse" gradientTransform="matrix(0.000808716, -0.000427246, 0.00117493, 0.00112915, 2.95, 6.05)" spreadMethod ="pad" cx="0" cy="0" r="819.2" fx="0" fy="0" >
<stop  offset="0"  style="stop-color:#FFFFFF;stop-opacity:1" />
<stop  offset="0.839216"  style="stop-color:#FFFFFF;stop-opacity:0" />
</radialGradient>
<path style="fill:url(#RadialGradID_4535) " d="M4.1,6.5Q4.2 6.85 3.95 7L3.2 7L2.3 6.45Q1.9 6.05 1.85 5.7Q1.75 5.3 2 5.15L2.75 5.2L3.65 5.75L4.1 6.5" />
</g>
</svg>
