<?xml version="1.0" encoding="utf-8"?>
<svg version="1.1" id="Layer_1"
xmlns="http://www.w3.org/2000/svg"
xmlns:xlink="http://www.w3.org/1999/xlink"
xmlns:author="http://www.sothink.com"
width="68px" height="28px"
xml:space="preserve">
<g id="565" transform="matrix(1, 0, 0, 1, 32.05, 12.35)">
<path style="fill:#262626;fill-opacity:1" d="M35.55,1.05Q35.3 5.6 34.6 7.3Q33.85 9 30.1 11.35Q26.4 13.75 20.8 13.9Q15.45 13.9 12.5 12.5Q9.6 11.15 7.55 7.15Q5.35 2.95 4.95 0.15L-1.45 0.15Q-1.85 2.9 -4.05 7.15Q-6.1 11.15 -9 12.5Q-11.95 13.9 -17.3 13.9Q-22.9 13.75 -26.6 11.35Q-30.35 9 -31.1 7.3Q-31.85 5.6 -32.05 1.05L-32.05 0.05Q-32.15 -2.8 -31.65 -5.5L-31.15 -6.75L-30.6 -7.8L-31.2 -6.85Q-30.45 -9 -29.05 -10.2L-29.4 -10.3L-29.45 -10.4L-28.95 -10.2L-28.9 -10.2L-28.95 -10.25L-29 -10.25L-29.45 -10.45L-29.45 -10.55L-28.95 -10.35L-28.8 -10.3L-28.85 -10.35L-27.3 -11.3L-25.7 -11.75L-25.35 -12.15L-23.45 -12.25Q-21.1 -12.45 -17.6 -12.25L-11.05 -11.45Q-4.85 -9.95 -2.15 -4.7L-1.9 -4.15Q-0.85 -3.2 1.45 -3.15L3.8 -3.3L3.4 -2.9L4.1 -3.35L4.55 -3.5L4.95 -3.7L5.35 -3.95L5.45 -4.3L5.45 -4.4L8.9 -8.25L9.15 -8.5L9.85 -9.3L9.75 -9.4L9.7 -9.4L9.8 -9.45L9.85 -9.45L9.95 -9.4L10.65 -9.9L10.8 -10L11.9 -10.55L11.25 -10.45L14.55 -11.45L21.05 -12.25Q24.6 -12.45 26.95 -12.25L30.3 -11.95Q33.35 -11.45 34.75 -7.7Q35.65 -3.9 35.6 0.05L35.55 1.05M7.5,-7.2L7.45 -7.4L7.5 -7.5L7.55 -7.3L7.5 -7.2L7.35 -7.05L7.35 -6.9L6.2 -5.7L7.4 -7.4L7.5 -7.2M10.85,-7.35L10.85 -7.3L8.05 -4.5L7.7 -3.95Q7.2 -2.8 7.3 -1.15Q7.45 1.35 8.95 4.95Q12.05 10.9 18.1 11.65Q24.2 12.45 28.1 10Q31.5 7.9 32.45 6.3Q33.4 4.65 33.85 1.1Q34.1 0.8 34.15 -1.2L34.1 -3.25Q33.95 -7.1 29.6 -9Q24.7 -10.35 19.55 -9.95L13.75 -8.95L12.85 -8.65L12.9 -8.65L10.95 -7.35L10.85 -7.35M-4.2,-3.95L-5.25 -5.8L-7.8 -8L-7.95 -8.05L-8.15 -8.15Q-10.85 -9.55 -16 -9.95L-22.65 -9.7L-23.6 -9.6Q-28.6 -8.9 -30.4 -4.05L-30.6 -3.25L-30.6 -1.05Q-30.6 0.8 -30.4 1.1Q-29.9 4.7 -28.95 6.3Q-28 7.9 -24.65 10Q-20.7 12.45 -14.65 11.65Q-9.6 11.35 -7.2 7.6Q-6.25 6.45 -5.45 4.95Q-3.95 1.3 -3.8 -1.2Q-3.75 -2.8 -4.2 -3.95M-29.2,-6.8L-29.25 -6.8L-29.3 -6.7L-29.15 -6.75L-29.2 -6.8" />
<linearGradient
id="LinearGradID_4526" gradientUnits="userSpaceOnUse" gradientTransform="matrix(0, -0.0131836, 0.0131836, 0, 20.75, 0.85)" spreadMethod ="pad" x1="-819.2" y1="0" x2="819.2" y2="0" >
<stop  offset="0" style="stop-color:#BD754F;stop-opacity:0.701961" />
<stop  offset="1" style="stop-color:#321908;stop-opacity:1" />
</linearGradient>
<path style="fill:url(#LinearGradID_4526) " d="M10.95,-7.35L11.15 -7.45L11.1 -7L10.85 -7.05L10.85 -7.3L10.85 -7.35L10.95 -7.35" />
<path style="fill:#CCCCCC;fill-opacity:1" d="M35.6,0.05L35.55 2.05Q35.3 6.6 34.6 8.3Q33.85 10 30.1 12.35Q26.4 14.75 20.8 14.9Q15.45 14.9 12.5 13.5Q9.6 12.15 7.55 8.15Q5.35 3.95 4.95 1.15L-1.45 1.15Q-1.85 3.9 -4.05 8.15Q-6.1 12.15 -9 13.5Q-11.95 14.9 -17.3 14.9Q-22.9 14.75 -26.6 12.35Q-30.35 10 -31.1 8.3Q-31.85 6.6 -32.05 2.05L-32.05 1.05Q-31.85 5.6 -31.1 7.3Q-30.35 9 -26.6 11.35Q-22.9 13.75 -17.3 13.9Q-11.95 13.9 -9 12.5Q-6.1 11.15 -4.05 7.15Q-1.85 2.9 -1.45 0.15L4.95 0.15Q5.35 2.95 7.55 7.15Q9.6 11.15 12.5 12.5Q15.45 13.9 20.8 13.9Q26.4 13.75 30.1 11.35Q33.85 9 34.6 7.3Q35.3 5.6 35.55 1.05L35.6 0.05M-5.25,-5.8L-4.2 -3.95Q-3.75 -2.8 -3.8 -1.2L-3.85 -1.35Q-3.8 -2.9 -4.25 -3.95L-5.25 -5.8" />
<linearGradient
id="LinearGradID_4527" gradientUnits="userSpaceOnUse" gradientTransform="matrix(0, -0.0131836, 0.0131836, 0, -17.25, 0.85)" spreadMethod ="pad" x1="-819.2" y1="0" x2="819.2" y2="0" >
<stop  offset="0" style="stop-color:#BD754F;stop-opacity:0.701961" />
<stop  offset="1" style="stop-color:#321908;stop-opacity:1" />
</linearGradient>
<path style="fill:url(#LinearGradID_4527) " d="M-29.15,-6.75L-29.3 -6.7L-29.25 -6.8L-29.2 -6.8L-29.15 -6.75" />
</g>
</svg>
