<?xml version="1.0" encoding="utf-8"?>
<svg version="1.1" id="Layer_1"
xmlns="http://www.w3.org/2000/svg"
xmlns:xlink="http://www.w3.org/1999/xlink"
xmlns:author="http://www.sothink.com"
width="27px" height="20px"
xml:space="preserve">
<g id="568" transform="matrix(1, 0, 0, 1, 14.3, 10.2)">
<path style="fill:#FF0000;fill-opacity:0" d="M12.7,-10.2L12.7 9.8L-14.3 9.8L-14.3 -10.2L12.7 -10.2" />
<linearGradient
id="LinearGradID_4539" gradientUnits="userSpaceOnUse" gradientTransform="matrix(0, -0.000396729, 0.00170898, 0, -9.75, -0.35)" spreadMethod ="pad" x1="-819.2" y1="0" x2="819.2" y2="0" >
<stop  offset="0" style="stop-color:#666666;stop-opacity:1" />
<stop  offset="1" style="stop-color:#CCCCCC;stop-opacity:1" />
</linearGradient>
<path style="fill:url(#LinearGradID_4539) " d="M-8.75,-0.7L-8.75 -0.65Q-8.75 0 -8.35 0.6L-11 0.25L-11.15 -0.4L-11.15 -0.45L-8.75 -0.7" />
<path style="fill:#333333;fill-opacity:1" d="M-8.6,-0.3L-8.65 -0.8L-8.75 -0.7L-11.15 -0.45L-11 -0.65L-8.65 -1L-8.6 -1L-8.5 -1L-8.35 -1Q-6.9 -1.95 -5.4 -2L-2.2 -1.6L0.05 -1.1L0.05 0Q-0.6 0 -1 0.65L-1.85 1.55Q-4.75 2.65 -7.45 1.55L-7.8 1.25Q-8.6 0.2 -8.6 -0.3M-2.05,1.1L-1.9 0.65Q-1.9 0.15 -1.3 -0.3L-1.3 -0.05Q-1.7 0.05 -1.75 0.55L-2.05 1.1M-1.4,-1.1Q-4.45 -2.15 -6.65 -1.5L-7.25 -1.3L-7.95 -0.95Q-8.15 -0.05 -7.25 1.35L-1.75 1.15Q-0.7 -0.15 -1.3 -1.05L-1.4 -1.1" />
<linearGradient
id="LinearGradID_4540" gradientUnits="userSpaceOnUse" gradientTransform="matrix(0, -0.000686646, 0.00527954, 0, -4.3, -1.55)" spreadMethod ="pad" x1="-819.2" y1="0" x2="819.2" y2="0" >
<stop  offset="0" style="stop-color:#666666;stop-opacity:1" />
<stop  offset="1" style="stop-color:#CCCCCC;stop-opacity:1" />
</linearGradient>
<path style="fill:url(#LinearGradID_4540) " d="M-8.6,-1Q-6.2 -2.95 -1.2 -1.45L0.05 -1.35L0.05 -1.1L-2.2 -1.6L-5.4 -2Q-6.9 -1.95 -8.35 -1L-8.5 -1L-8.6 -1" />
<linearGradient
id="LinearGradID_4541" gradientUnits="userSpaceOnUse" gradientTransform="matrix(6.10352e-005, -0.000213623, 0.00401306, 0.00114441, -5, 1.1)" spreadMethod ="pad" x1="-819.2" y1="0" x2="819.2" y2="0" >
<stop  offset="0" style="stop-color:#344F54;stop-opacity:0.321569" />
<stop  offset="1" style="stop-color:#FFFFFF;stop-opacity:1" />
</linearGradient>
<path style="fill:url(#LinearGradID_4541) " d="M-1.3,-0.05L-1.3 -0.3L-1.4 -1.1L-1.3 -1.05Q-0.7 -0.15 -1.75 1.15L-7.25 1.35Q-8.15 -0.05 -7.95 -0.95L-7.25 -1.3L-7.85 -0.8Q-7.85 0.4 -7.2 1.2Q-4.25 2 -2.35 1.25L-2.15 1.15L-1.85 1Q-1.35 0.65 -1.3 -0.05" />
<path style="fill:#EAEAEA;fill-opacity:1" d="M-7.8,1.25L-8.35 0.6Q-8.75 0 -8.75 -0.65L-8.75 -0.7L-8.65 -0.8L-8.6 -0.3Q-8.6 0.2 -7.8 1.25" />
<linearGradient
id="LinearGradID_4542" gradientUnits="userSpaceOnUse" gradientTransform="matrix(-0.000183105, -0.000183105, 0.000640869, -0.00062561, -1.75, 0.6)" spreadMethod ="pad" x1="-819.2" y1="0" x2="819.2" y2="0" >
<stop  offset="0" style="stop-color:#666666;stop-opacity:1" />
<stop  offset="1" style="stop-color:#CCCCCC;stop-opacity:1" />
</linearGradient>
<path style="fill:url(#LinearGradID_4542) " d="M-1.75,0.55Q-1.7 0.05 -1.3 -0.05Q-1.35 0.65 -1.85 1L-2.15 1.15L-2.05 1.1L-1.75 0.55" />
<path style="fill:#333333;fill-opacity:1" d="M7.85,1.25L7.5 1.55Q4.8 2.65 1.9 1.55L1.05 0.65Q0.65 0 0 0L0 -1.1L2.3 -1.6L5.45 -2Q6.95 -1.95 8.4 -1L8.55 -1L8.65 -1L8.7 -1L11.05 -0.65L11.2 -0.45L8.8 -0.7L8.7 -0.8L8.65 -0.3Q8.65 0.2 7.85 1.25M1.8,0.55Q1.75 0.05 1.35 -0.05L1.35 -0.3Q1.95 0.15 1.95 0.65L2.15 1.1Q1.85 1.05 1.8 0.55M7.3,-1.3L6.7 -1.5Q4.5 -2.15 1.45 -1.1L1.35 -1.05Q0.75 -0.15 1.8 1.15L7.3 1.35Q8.2 -0.05 8 -0.95L7.3 -1.3" />
<path style="fill:#EAEAEA;fill-opacity:1" d="M8.65,-0.3L8.7 -0.8L8.8 -0.7L8.8 -0.65Q8.8 0 8.4 0.6L7.85 1.25Q8.65 0.2 8.65 -0.3" />
<linearGradient
id="LinearGradID_4543" gradientUnits="userSpaceOnUse" gradientTransform="matrix(0, -0.000396729, -0.00170898, 0, 9.8, -0.35)" spreadMethod ="pad" x1="-819.2" y1="0" x2="819.2" y2="0" >
<stop  offset="0" style="stop-color:#666666;stop-opacity:1" />
<stop  offset="1" style="stop-color:#CCCCCC;stop-opacity:1" />
</linearGradient>
<path style="fill:url(#LinearGradID_4543) " d="M8.8,-0.65L8.8 -0.7L11.2 -0.45L11.2 -0.4L11.05 0.25L8.4 0.6Q8.8 0 8.8 -0.65" />
<linearGradient
id="LinearGradID_4544" gradientUnits="userSpaceOnUse" gradientTransform="matrix(0, -0.000686646, -0.00527954, 0, 4.35, -1.55)" spreadMethod ="pad" x1="-819.2" y1="0" x2="819.2" y2="0" >
<stop  offset="0" style="stop-color:#666666;stop-opacity:1" />
<stop  offset="1" style="stop-color:#CCCCCC;stop-opacity:1" />
</linearGradient>
<path style="fill:url(#LinearGradID_4544) " d="M0,-1.1L0 -1.35L1.25 -1.45Q6.25 -2.95 8.65 -1L8.55 -1L8.4 -1Q6.95 -1.95 5.45 -2L2.3 -1.6L0 -1.1" />
<linearGradient
id="LinearGradID_4545" gradientUnits="userSpaceOnUse" gradientTransform="matrix(-6.10352e-005, -0.000213623, -0.00401306, 0.00114441, 5.05, 1.1)" spreadMethod ="pad" x1="-819.2" y1="0" x2="819.2" y2="0" >
<stop  offset="0" style="stop-color:#344F54;stop-opacity:0.321569" />
<stop  offset="1" style="stop-color:#FFFFFF;stop-opacity:1" />
</linearGradient>
<path style="fill:url(#LinearGradID_4545) " d="M1.9,1L2.2 1.15L2.45 1.25Q4.3 2 7.25 1.2Q7.9 0.4 7.9 -0.8L7.3 -1.3L8 -0.95Q8.2 -0.05 7.3 1.35L1.8 1.15Q0.75 -0.15 1.35 -1.05L1.45 -1.1L1.35 -0.3L1.35 -0.05Q1.4 0.65 1.9 1" />
<linearGradient
id="LinearGradID_4546" gradientUnits="userSpaceOnUse" gradientTransform="matrix(0.000183105, -0.000183105, -0.00062561, -0.00062561, 1.8, 0.6)" spreadMethod ="pad" x1="-819.2" y1="0" x2="819.2" y2="0" >
<stop  offset="0" style="stop-color:#666666;stop-opacity:1" />
<stop  offset="1" style="stop-color:#CCCCCC;stop-opacity:1" />
</linearGradient>
<path style="fill:url(#LinearGradID_4546) " d="M1.35,-0.05Q1.75 0.05 1.8 0.55Q1.85 1.05 2.15 1.1L2.2 1.15L1.9 1Q1.4 0.65 1.35 -0.05" />
<linearGradient
id="LinearGradID_4547" gradientUnits="userSpaceOnUse" gradientTransform="matrix(0.000579834, 0.000335693, -0.000732422, 0.00126648, -6.9, -0.5)" spreadMethod ="pad" x1="-819.2" y1="0" x2="819.2" y2="0" >
<stop  offset="0" style="stop-color:#BAA9D6;stop-opacity:1" />
<stop  offset="1" style="stop-color:#D9D9D9;stop-opacity:0.243137" />
</linearGradient>
<path style="fill:url(#LinearGradID_4547) " d="M-7.65,-0.85L-6.05 -1.4Q-6.9 -0.6 -7.3 0.65Q-7.7 0 -7.65 -0.85" />
<linearGradient
id="LinearGradID_4548" gradientUnits="userSpaceOnUse" gradientTransform="matrix(0.00114441, 0.000305176, -0.000457764, 0.0017395, -6.85, -0.65)" spreadMethod ="pad" x1="-819.2" y1="0" x2="819.2" y2="0" >
<stop  offset="0" style="stop-color:#BAA9D6;stop-opacity:1" />
<stop  offset="1" style="stop-color:#D9D9D9;stop-opacity:0.243137" />
</linearGradient>
<path style="fill:url(#LinearGradID_4548) " d="M-5.55,1.3L-7.05 0.9Q-6.7 -0.35 -5.85 -1.4L-4.55 -1.25L-5.55 1.3" />
<linearGradient
id="LinearGradID_4549" gradientUnits="userSpaceOnUse" gradientTransform="matrix(0.00102234, 0.000595093, -0.000747681, 0.00131226, 2.45, -0.3)" spreadMethod ="pad" x1="-819.2" y1="0" x2="819.2" y2="0" >
<stop  offset="0" style="stop-color:#BAA9D6;stop-opacity:1" />
<stop  offset="1" style="stop-color:#D9D9D9;stop-opacity:0.243137" />
</linearGradient>
<path style="fill:url(#LinearGradID_4549) " d="M3.35,-1.35L2.4 1.05L2.05 0.9Q1.65 -0.05 1.9 -0.9L3.35 -1.35" />
</g>
</svg>
