<?xml version="1.0" encoding="utf-8"?>
<svg version="1.1" id="Layer_1"
xmlns="http://www.w3.org/2000/svg"
xmlns:xlink="http://www.w3.org/1999/xlink"
xmlns:author="http://www.sothink.com"
width="22px" height="10px"
xml:space="preserve">
<g id="571" transform="matrix(1, 0, 0, 1, 10.5, 4.3)">
<path style="fill:#FF00FF;fill-opacity:0" d="M7.1,5.2L-7.9 5.2L-7.9 -4.3L7.1 -4.3L7.1 5.2" />
<path style="fill:#A49F99;fill-opacity:1" d="M10.5,-3.45L10.55 -3.3L10.5 -3.3L10.35 -3.25L10.35 -3.35L10.35 -3.4L10.3 -3.4L10.5 -3.45M-10.4,-3.3L-10.45 -3.3L-10.45 -3.45L-10.25 -3.45L-10.25 -3.4L-10.3 -3.35L-10.25 -3.25L-10.4 -3.3" />
<path style="fill:#838A83;fill-opacity:1" d="M10.15,-3.15L10.1 -3.05L10.05 -3.05L10.05 -2.95L10.05 -2.9L10.05 -2.8L9.95 -2.8L9.8 -2.85L9.65 -2.9L9.6 -3.05L9.6 -3.2L9.7 -3.3L9.85 -3.35L10.25 -3.4L10.3 -3.4L10.35 -3.4L10.35 -3.35L10.35 -3.25L10.15 -3.15M-10.15,-3.4L-9.8 -3.35L-9.6 -3.3L-9.5 -3.2L-9.5 -3.05L-9.55 -2.9L-9.75 -2.85L-9.9 -2.8L-9.95 -2.8L-10 -2.8L-9.95 -2.8L-9.95 -2.9L-9.95 -2.95L-10 -3.05L-10.05 -3.15L-10.2 -3.25L-10.25 -3.25L-10.3 -3.35L-10.25 -3.4L-10.25 -3.45L-10.15 -3.4" />
<path style="fill:#989896;fill-opacity:1" d="M10.5,-3.45L10.3 -3.4L10.25 -3.4L9.85 -3.35L9.7 -3.3L9.6 -3.2L9.6 -3.05L9.65 -2.9L9.7 -2.75L9.6 -2.8L9.55 -2.9L9.5 -2.9L9.5 -2.95L9.45 -3.05L9.5 -3.1L9.55 -3.25L9.75 -3.4L10.1 -3.5L10.3 -3.5L10.45 -3.5L10.5 -3.45M9.85,-3.35L9.95 -3.4L9.8 -3.35L9.85 -3.35M-9.4,-2.95L-9.5 -2.9L-9.55 -2.8L-9.6 -2.75L-9.55 -2.9L-9.5 -3.05L-9.5 -3.2L-9.6 -3.3L-9.8 -3.35L-10.15 -3.4L-10.25 -3.45L-10.45 -3.45L-10.35 -3.5L-10.2 -3.5L-10 -3.5L-9.65 -3.4L-9.5 -3.25L-9.45 -3.15L-9.4 -3.1L-9.4 -3.05L-9.4 -2.95M-9.75,-3.35L-9.9 -3.4L-9.75 -3.35" />
<path style="fill:#BBBAB6;fill-opacity:1" d="M9.5,-3.3L9.65 -3.4L9.8 -3.5L10.15 -3.55L10.3 -3.55L10.35 -3.55L10.45 -3.5L10.3 -3.5L10.1 -3.5L9.75 -3.4L9.55 -3.25L9.5 -3.1L9.45 -3.05L9.5 -3.3M-9.45,-3.3L-9.4 -3.15L-9.4 -3.05L-9.4 -3.1L-9.45 -3.15L-9.5 -3.25L-9.65 -3.4L-10 -3.5L-10.2 -3.5L-10.35 -3.5L-10.2 -3.55L-9.75 -3.55L-9.7 -3.5L-9.55 -3.4L-9.45 -3.35L-9.45 -3.3" />
<path style="fill:#C5C6C8;fill-opacity:1" d="M5.6,-3.05L5.7 -3.05L5.8 -3.05L6.95 -3.2L7.6 -3.3L7.8 -3.3L8.45 -3.4L9.05 -3.4L9.25 -3.45L9.35 -3.45L9.4 -3.45L9.45 -3.45L9.8 -3.5L9.65 -3.4L9.5 -3.3L9.5 -3.35L9.4 -3.35L9.25 -3.35L9.2 -3.35L8.45 -3.35L8.25 -3.3L7.8 -3.25L5.6 -3.05M-7.7,-3.25L-8.2 -3.3L-9.15 -3.35L-9.2 -3.35L-9.3 -3.35L-9.45 -3.35L-9.4 -3.3L-9.45 -3.35L-9.55 -3.4L-9.7 -3.5L-9.35 -3.45L-9.25 -3.45L-9.2 -3.45L-8.95 -3.45L-7.75 -3.3L-7.5 -3.3L-6.9 -3.2L-5.75 -3.05L-5.65 -3.05L-5.5 -3.05L-7.7 -3.25" />
<path style="fill:#ABB0AA;fill-opacity:1" d="M10.4,-3.2L10.4 -3.15L10.4 -3.1L10.4 -3.05L10.45 -3.05L10.45 -3L10.45 -2.95L10.45 -2.9L10.45 -2.95L10.4 -3L10.35 -3.05L10.3 -3.1L10.3 -3.05L10.15 -3L10.1 -2.95L10.05 -2.95L10.05 -2.9L10.05 -2.95L10.05 -3.05L10.1 -3.05L10.15 -3.15L10.35 -3.25L10.5 -3.3L10.4 -3.2M-10.25,-3.25L-10.2 -3.25L-10.05 -3.15L-10 -3.05L-9.95 -2.95L-9.95 -2.9L-9.95 -2.95L-10.05 -2.95L-10.05 -3L-10.2 -3.05L-10.25 -3.1L-10.3 -3.05L-10.3 -3L-10.35 -2.95L-10.4 -2.9L-10.4 -2.95L-10.4 -3L-10.35 -3.05L-10.3 -3.1L-10.3 -3.15L-10.3 -3.2L-10.35 -3.2L-10.35 -3.25L-10.4 -3.3L-10.25 -3.25" />
<path style="fill:#555958;fill-opacity:1" d="M6.6,-3L5.8 -2.9L6.75 -3.1L6.8 -3.1L7.8 -3.25L8.25 -3.3L8.45 -3.35L9.2 -3.35L9.25 -3.35L9.4 -3.35L9.5 -3.35L9.5 -3.3L9.45 -3.25L9.4 -3.25L9.35 -3.25L9.25 -3.25L9.15 -3.25L8.45 -3.2L8.25 -3.15L7.45 -3.1L7.05 -3.05L6.85 -3.05L6.8 -3L6.6 -3M-9.4,-3.3L-9.45 -3.35L-9.3 -3.35L-9.2 -3.35L-9.15 -3.35L-8.2 -3.3L-7.7 -3.25L-6.75 -3.1L-6.7 -3.1L-5.7 -2.9L-6.5 -3L-6.75 -3.05L-6.95 -3.05L-7.4 -3.1L-8.15 -3.15L-9.05 -3.25L-9.15 -3.25L-9.25 -3.25L-9.3 -3.25L-9.35 -3.25L-9.4 -3.3" />
<path style="fill:#484850;fill-opacity:1" d="M9.95,-2.45L9.9 -2.5L9.85 -2.5L9.8 -2.55L9.55 -2.7L9.3 -2.75L9.1 -2.75L8.95 -2.75L8.45 -2.8L7 -2.6L6.1 -2.5L5.3 -2.4L5.3 -2.5L5.2 -2.75L6.8 -3L6.85 -3.05L7.05 -3.05L7.45 -3.1L8.25 -3.15L8.45 -3.2L9.15 -3.25L9.25 -3.25L9.35 -3.25L9.4 -3.25L9.45 -3.25L9.45 -2.95L9.5 -2.85L9.55 -2.8L9.7 -2.7L9.75 -2.65L9.8 -2.6L9.85 -2.55L9.9 -2.5L9.95 -2.5L9.95 -2.45M-9.8,-2.5L-9.85 -2.5L-9.9 -2.45L-9.85 -2.5L-9.75 -2.55L-9.7 -2.6L-9.65 -2.65L-9.6 -2.7L-9.5 -2.8L-9.45 -2.85L-9.35 -2.95L-9.35 -3.15L-9.35 -3.25L-9.3 -3.25L-9.25 -3.25L-9.15 -3.25L-9.05 -3.25L-8.15 -3.15L-7.4 -3.1L-6.95 -3.05L-6.75 -3.05L-5.65 -2.85L-5.1 -2.75L-5.2 -2.5L-5.2 -2.4L-6 -2.5L-6.9 -2.6L-8.35 -2.8L-8.9 -2.8L-9 -2.75L-9.2 -2.75L-9.25 -2.75L-9.5 -2.7L-9.7 -2.55L-9.75 -2.5L-9.8 -2.5" />
<path style="fill:#585A55;fill-opacity:1" d="M9.75,-2.7L9.85 -2.6L9.9 -2.55L9.95 -2.5L9.9 -2.5L9.85 -2.55L9.8 -2.6L9.75 -2.65L9.7 -2.7L9.55 -2.8L9.5 -2.85L9.45 -2.95L9.45 -3.25L9.5 -3.3L9.45 -3.05L9.5 -2.95L9.5 -2.9L9.55 -2.9L9.6 -2.8L9.7 -2.75L9.75 -2.7M-9.6,-2.75L-9.55 -2.8L-9.5 -2.9L-9.4 -2.95L-9.4 -3.05L-9.4 -3.15L-9.45 -3.3L-9.45 -3.35L-9.4 -3.3L-9.35 -3.25L-9.35 -3.15L-9.35 -2.95L-9.45 -2.85L-9.5 -2.8L-9.6 -2.7L-9.65 -2.65L-9.7 -2.6L-9.75 -2.55L-9.85 -2.5L-9.85 -2.55L-9.8 -2.55L-9.75 -2.6L-9.7 -2.7L-9.6 -2.75" />
<path style="fill:#939995;fill-opacity:1" d="M9.95,-2.5L9.9 -2.55L9.85 -2.6L9.75 -2.7L9.7 -2.75L9.65 -2.9L9.8 -2.85L9.95 -2.8L10.05 -2.8L10.1 -2.75L10.2 -2.7L10.25 -2.65L10.35 -2.65L10.3 -2.65L10.3 -2.6L10.25 -2.55L10.1 -2.55L9.95 -2.5M-10,-2.8L-9.95 -2.8L-9.9 -2.8L-9.75 -2.85L-9.55 -2.9L-9.6 -2.75L-9.7 -2.7L-9.75 -2.6L-9.8 -2.55L-9.85 -2.55L-9.85 -2.5L-10.05 -2.55L-10.15 -2.6L-10.2 -2.65L-10.25 -2.65L-10.15 -2.65L-10.15 -2.7L-10.1 -2.7L-10.05 -2.75L-10 -2.8" />
<path style="fill:#4E5359;fill-opacity:1" d="M5.45,-2.2L5.65 -2.25L5.7 -2.3L6.2 -2.4L6.1 -2.5L7 -2.6L8.45 -2.8L8.95 -2.75L9.1 -2.75L9.3 -2.75L9.55 -2.7L9.55 -2.55L9.55 -2.35L9.6 -2.25L9.6 -2.15L9.2 -2.25L8.75 -2.3L8.25 -2.3L8.2 -2.3L7.25 -2.3L6.7 -2.3L6.45 -2.25L6.35 -2.25L5.4 -2.15L5.45 -2.2M-6.1,-2.4L-6.05 -2.4L-5.65 -2.3L-5.4 -2.2L-5.35 -2.15L-6.35 -2.25L-6.6 -2.3L-7.15 -2.3L-8.15 -2.3L-8.65 -2.3L-9.3 -2.25L-9.5 -2.15L-9.5 -2.25L-9.5 -2.35L-9.5 -2.55L-9.5 -2.7L-9.25 -2.75L-9.2 -2.75L-9 -2.75L-8.9 -2.8L-8.35 -2.8L-6.9 -2.6L-6 -2.5L-6.1 -2.4" />
<path style="fill:#5C5B60;fill-opacity:1" d="M9.9,-1.9L9.7 -1.7L9.65 -1.7L9.6 -1.9L9.6 -2.05L9.6 -2.15L9.6 -2.25L9.55 -2.35L9.55 -2.55L9.55 -2.7L9.8 -2.55L9.85 -2.5L9.85 -2.45L9.85 -2.35L9.9 -2.25L9.9 -2.2L9.9 -2.15L9.9 -2L9.9 -1.95L9.9 -1.9M-9.5,-2.1L-9.5 -2.05L-9.5 -2L-9.55 -1.9L-9.55 -1.7L-9.65 -1.7L-9.8 -1.9L-9.85 -1.95L-9.85 -2L-9.8 -2.1L-9.8 -2.15L-9.8 -2.2L-9.8 -2.25L-9.8 -2.35L-9.8 -2.45L-9.8 -2.5L-9.75 -2.5L-9.7 -2.55L-9.5 -2.7L-9.5 -2.55L-9.5 -2.35L-9.5 -2.25L-9.5 -2.15L-9.5 -2.1M-10.25,-3.05L-10.2 -3.05L-10.25 -3.05" />
<path style="fill:#2B2D39;fill-opacity:1" d="M10.35,-2.7L10.4 -2.75L10.4 -2.7L10.35 -2.65L10.25 -2.65L10.2 -2.7L10.1 -2.75L10.05 -2.8L10.05 -2.9L10.05 -2.95L10.1 -2.95L10.15 -2.95L10.15 -2.9L10.15 -2.85L10.2 -2.8L10.25 -2.75L10.35 -2.7M-10.05,-2.85L-10.05 -2.9L-10.05 -2.95L-10 -2.95L-9.95 -2.95L-9.95 -2.9L-9.95 -2.8L-10 -2.8L-10.05 -2.75L-10.1 -2.7L-10.15 -2.7L-10.15 -2.65L-10.25 -2.65L-10.3 -2.7L-10.35 -2.75L-10.3 -2.7L-10.25 -2.7L-10.2 -2.75L-10.1 -2.8L-10.05 -2.85" />
<linearGradient
id="LinearGradID_4568" gradientUnits="userSpaceOnUse" gradientTransform="matrix(0.00050354, 0.0035553, 0.003479, -0.000488281, 5.45, 0.6)" spreadMethod ="pad" x1="-819.2" y1="0" x2="819.2" y2="0" >
<stop  offset="0" style="stop-color:#BFC4C0;stop-opacity:1" />
<stop  offset="0.219608" style="stop-color:#CCD2D0;stop-opacity:1" />
<stop  offset="0.431373" style="stop-color:#CCD0CF;stop-opacity:1" />
<stop  offset="0.721569" style="stop-color:#C5CFC7;stop-opacity:1" />
<stop  offset="1" style="stop-color:#AAACAB;stop-opacity:1" />
</linearGradient>
<path style="fill:url(#LinearGradID_4568) " d="M10.15,-0.8L10.15 -0.75L10 -0.4L9.95 -0.3L9.7 0.05L9.6 0.15L9.45 0.35L9.1 0.7L8.8 0.95L8.7 1.05L8.55 1.15L8.45 1.3L7.65 1.9L7.05 2.3L6.75 2.45L6.6 2.5L5.25 3.05L3.3 3.45L3.1 3.45L2.85 3.45Q2.5 3.45 2.35 3.25L2.15 3.05L2.1 2.95L2 2.75L1.9 2.65L1.85 2.55L1.8 2.45L1.75 2.4L1.7 2.3L1.55 2.1L1.35 1.7L1.2 1.4L1.15 1.35L1.05 1.2L1.05 1.1L1 1.05L0.95 0.95L0.8 0.65L0.75 0.55L0.8 0.55L0.9 0.6L1.2 1.2L1.3 1.35L1.3 1.4L1.45 1.65L1.65 2L1.85 2.3L1.9 2.4L1.95 2.45L1.95 2.5L2.3 2.95L2.75 2.95L2.8 2.55L2.8 2.5L2.75 2.5L2.75 2.45L2.75 2.4L2.75 2.3L2.7 2.05L2.7 2L2.6 1.8L2.55 1.7L2.45 1.6L2.35 1.4L2.35 1.35L2.25 1.2L2.15 1.05L2.1 0.95L1.75 0.5L1.7 0.4L1.5 0.15L1.5 0.05L1.5 0L1.55 -0.2L1.65 -0.6L1.7 -0.7L1.8 -0.85L1.85 -0.9L2 -1L2 -1.05L2.15 -1.15L2.55 -1.35L2.7 -1.4L3 -1.55L3.8 -1.8L4.3 -1.9L4.45 -1.95L5.4 -2.15L6.35 -2.25L6.45 -2.25L6.7 -2.3L7.25 -2.3L7.4 -2.25L7.65 -2.25L8.1 -2.2L8.35 -2.15L8.55 -2.1L8.6 -2.05L8.65 -2.05L8.7 -2.05L8.9 -1.9L9 -1.8L9.2 -1.55L9.55 -1.45L9.65 -1.4L9.7 -1.4L9.75 -1.35L10 -1.2L10.05 -1.15L10.15 -1.05L10.15 -0.95L10.15 -0.85L10.15 -0.8" />
<path style="fill:#1F1F29;fill-opacity:1" d="M-8.45,-2.1L-8.5 -2.05L-8.6 -2.05L-8.65 -2L-8.8 -1.9L-8.95 -1.85L-9 -1.8L-9.2 -1.65L-9.3 -1.6L-9.15 -1.8L-9.05 -1.85L-9 -1.9L-8.8 -2L-8.7 -2.05L-8.55 -2.05L-8.5 -2.1L-8.45 -2.1L-8.25 -2.15L-8.45 -2.1M9.4,-1.6L9.3 -1.6L9.25 -1.65L9.1 -1.8L8.95 -1.9L8.9 -1.9L8.7 -2.05L8.65 -2.05L8.6 -2.05L8.55 -2.1L8.35 -2.15L8.6 -2.1L8.8 -2.05L8.9 -2L9.05 -1.9L9.2 -1.75L9.4 -1.6" />
<path style="fill:#4E4E58;fill-opacity:1" d="M-9.55,-1.65L-9.65 -1.7L-9.55 -1.7Q-9.35 -1.65 -9.2 -1.8L-9.15 -1.85L-8.9 -2L-8.85 -2.05L-8.7 -2.05L-8.55 -2.1L-8.4 -2.15L-8.3 -2.15L-8.25 -2.15L-8.45 -2.1L-8.5 -2.1L-8.55 -2.05L-8.7 -2.05L-8.8 -2L-9 -1.9L-9.05 -1.85L-9.15 -1.8L-9.3 -1.6L-9.55 -1.6L-9.55 -1.65M8.5,-2.15L8.6 -2.1L8.9 -2.05L8.95 -2L9.15 -1.9L9.3 -1.8L9.65 -1.7L9.7 -1.7L9.65 -1.6L9.6 -1.6L9.4 -1.6L9.2 -1.75L9.05 -1.9L8.9 -2L8.8 -2.05L8.6 -2.1L8.35 -2.15L8.5 -2.15" />
<path style="fill:#595B58;fill-opacity:1" d="M7.4,-2.25L7.25 -2.3L8.2 -2.3L8.25 -2.3L8.75 -2.3L9.2 -2.25L9.6 -2.15L9.6 -2.05L9.6 -1.9L9.65 -1.7L9.3 -1.8L9.15 -1.9L8.95 -2L8.9 -2.05L8.6 -2.1L8.5 -2.15L8.25 -2.2L8.15 -2.25L8.1 -2.25L7.75 -2.3L7.4 -2.25M-7.35,-2.3L-7.7 -2.3L-8.15 -2.2L-8.4 -2.15L-8.55 -2.1L-8.7 -2.05L-8.85 -2.05L-8.9 -2L-9.15 -1.85L-9.2 -1.8Q-9.35 -1.65 -9.55 -1.7L-9.55 -1.9L-9.5 -2L-9.5 -2.05L-9.5 -2.1L-9.5 -2.15L-9.3 -2.25L-8.65 -2.3L-8.15 -2.3L-7.15 -2.3L-7.35 -2.3" />
<path style="fill:#ADA99D;fill-opacity:1" d="M10.45,-2.35L10.4 -2.35L10.35 -2.35L10.3 -2.35L10.25 -2.35L10 -2.45L9.95 -2.45L9.95 -2.5L10.1 -2.55L10.25 -2.55L10.3 -2.6L10.3 -2.65L10.35 -2.65L10.4 -2.7L10.4 -2.75L10.45 -2.75L10.45 -2.7L10.45 -2.65L10.45 -2.55L10.45 -2.35M-10.25,-2.35L-10.3 -2.35L-10.35 -2.35L-10.35 -2.45L-10.35 -2.55L-10.35 -2.65L-10.4 -2.7L-10.4 -2.75L-10.35 -2.75L-10.3 -2.7L-10.25 -2.65L-10.2 -2.65L-10.15 -2.6L-10.05 -2.55L-9.85 -2.5L-9.9 -2.45L-9.95 -2.45L-10.1 -2.4L-10.15 -2.35L-10.25 -2.35" />
<path style="fill:#6A6C6B;fill-opacity:1" d="M10.25,-2.35L10.2 -2.35L10.15 -2.25L10.1 -2.2L9.95 -2L9.95 -1.95L9.9 -1.95L9.9 -2L9.9 -2.15L9.9 -2.2L9.9 -2.25L9.85 -2.35L9.85 -2.45L9.85 -2.5L9.9 -2.5L9.95 -2.45L10 -2.45L10.25 -2.35M-9.9,-1.95L-9.9 -2L-9.95 -2.1L-10.05 -2.2L-10.15 -2.35L-10.1 -2.4L-9.95 -2.45L-9.9 -2.45L-9.85 -2.5L-9.8 -2.5L-9.75 -2.5L-9.8 -2.5L-9.8 -2.45L-9.8 -2.35L-9.8 -2.25L-9.8 -2.2L-9.8 -2.15L-9.8 -2.1L-9.85 -2L-9.85 -1.95L-9.9 -1.95" />
<path style="fill:#8F8B7F;fill-opacity:1" d="M-9.55,-1.6L-9.7 -1.65L-9.75 -1.7L-9.85 -1.8L-9.95 -1.85L-9.95 -1.9L-10 -1.95L-10.05 -2L-10.15 -2.1L-10.2 -2.15L-10.25 -2.2L-10.35 -2.35L-10.3 -2.35L-10.25 -2.35L-10.15 -2.35L-10.05 -2.2L-9.95 -2.1L-9.9 -2L-9.9 -1.95L-9.85 -1.95L-9.8 -1.9L-9.65 -1.7L-9.55 -1.65L-9.55 -1.6M10.3,-2.35L10.35 -2.35L10.4 -2.35L10.35 -2.25L10.3 -2.2L10.2 -2.1L10.05 -1.9L10 -1.85L9.95 -1.8L9.85 -1.7L9.8 -1.65L9.65 -1.6L9.6 -1.6L9.65 -1.6L9.7 -1.7L9.9 -1.9L9.9 -1.95L9.95 -1.95L9.95 -2L10.1 -2.2L10.15 -2.25L10.2 -2.35L10.25 -2.35L10.3 -2.35" />
<path style="fill:#F7F6E4;fill-opacity:1" d="M10.45,-2.55L10.45 -2.65L10.45 -2.7L10.45 -2.75L10.45 -2.8L10.45 -2.9L10.45 -2.95L10.45 -3L10.45 -3.05L10.4 -3.05L10.4 -3.1L10.4 -3.15L10.4 -3.2L10.5 -3.3L10.55 -3.3L10.45 -3.15L10.4 -3.15L10.4 -3.1L10.5 -3.05L10.5 -3L10.55 -2.95L10.55 -2.75L10.55 -2.7L10.55 -2.55L10.45 -2.4L10.45 -2.35L10.45 -2.55M-10.35,-2.35L-10.4 -2.4L-10.45 -2.45L-10.5 -2.55L-10.5 -2.7L-10.5 -2.75L-10.45 -2.95L-10.45 -3L-10.4 -3.05L-10.35 -3.1L-10.3 -3.15L-10.35 -3.15L-10.45 -3.25L-10.45 -3.3L-10.4 -3.3L-10.35 -3.25L-10.35 -3.2L-10.3 -3.2L-10.3 -3.15L-10.3 -3.1L-10.35 -3.05L-10.4 -3L-10.4 -2.95L-10.4 -2.9L-10.4 -2.8L-10.4 -2.75L-10.4 -2.7L-10.35 -2.65L-10.35 -2.55L-10.35 -2.45L-10.35 -2.35" />
<path style="fill:#85898A;fill-opacity:1" d="M10.05,-2.95L10.1 -2.95L10.15 -3L10.3 -3.05L10.3 -3.1L10.35 -3.05L10.3 -3L10.25 -2.95L10.15 -2.95L10.1 -2.95L10.05 -2.95M-10.35,-3.1L-10.35 -3.15L-10.3 -3.15L-10.35 -3.1M10.4,-3.15L10.4 -3.1L10.4 -3.15M-10,-2.95L-10.05 -2.95L-10.15 -2.95L-10.25 -3L-10.3 -3.05L-10.25 -3.1L-10.2 -3.05L-10.25 -3.05L-10.2 -3.05L-10.05 -3L-10.05 -2.95L-9.95 -2.95L-10 -2.95" />
<path style="fill:#464239;fill-opacity:1" d="M10.4,-3L10.45 -2.95L10.4 -2.9L10.4 -2.75L10.35 -2.7L10.25 -2.75L10.3 -2.8L10.3 -2.85L10.3 -2.9L10.35 -2.9L10.4 -3M-10.25,-2.9L-10.25 -2.85L-10.2 -2.8L-10.2 -2.75L-10.25 -2.7L-10.3 -2.7L-10.35 -2.75L-10.35 -2.9L-10.35 -2.95L-10.3 -3L-10.25 -2.9" />
<path style="fill:#4F5052;fill-opacity:1" d="M10.35,-2.9L10.25 -2.95L10.3 -3L10.35 -3.05L10.4 -3L10.35 -2.9M10.15,-2.95L10.15 -2.9L10.15 -2.95M-10.25,-2.9L-10.3 -3L-10.3 -3.05L-10.25 -3L-10.15 -2.95L-10.25 -2.9M-10.05,-2.9L-10.05 -2.95L-10.05 -2.9" />
<path style="fill:#888A99;fill-opacity:1" d="M10.15,-2.9L10.15 -2.95L10.25 -2.95L10.35 -2.9L10.3 -2.9L10.3 -2.85L10.3 -2.8L10.25 -2.8Q10.15 -2.8 10.15 -2.85L10.15 -2.9M-10.15,-2.95L-10.05 -2.95L-10.05 -2.9L-10.05 -2.85Q-10.05 -2.8 -10.15 -2.8L-10.2 -2.8L-10.25 -2.85L-10.25 -2.9L-10.15 -2.95" />
<path style="fill:#10101A;fill-opacity:1" d="M10.25,-2.75L10.2 -2.8L10.15 -2.85Q10.15 -2.8 10.25 -2.8L10.3 -2.8L10.25 -2.75M-10.1,-2.8L-10.2 -2.75L-10.2 -2.8L-10.15 -2.8Q-10.05 -2.8 -10.05 -2.85L-10.1 -2.8" />
<path style="fill:#D4D1BE;fill-opacity:1" d="M10.45,-2.8L10.45 -2.75L10.4 -2.75L10.4 -2.9L10.45 -2.95L10.45 -2.9L10.45 -2.8M-10.35,-2.9L-10.35 -2.75L-10.4 -2.75L-10.4 -2.8L-10.4 -2.9L-10.35 -2.95L-10.35 -2.9" />
<path style="fill:#4F5160;fill-opacity:1" d="M4,-2.1L4 -2.15L3.95 -2.25L3.95 -2.35L3.9 -2.4L4.25 -2.5L5.2 -2.75L5.3 -2.5L5.3 -2.4L5.05 -2.35L4.6 -2.25L4.55 -2.25L4 -2.1M-4.5,-2.8L-3.9 -2.7L-3.8 -2.65L-3.85 -2.65L-3.85 -2.7L-3.9 -2.7L-3.95 -2.7L-4 -2.7L-4.1 -2.75L-4.45 -2.8L-4.5 -2.8M4.2,-2.75L4.1 -2.7L4 -2.7L3.95 -2.65L3.9 -2.65L4.55 -2.8L4.2 -2.75M-4.15,-2.55L-4 -2.5L-3.8 -2.4L-3.85 -2.35L-3.85 -2.25L-3.9 -2.15L-3.9 -2.1L-4.55 -2.3L-4.95 -2.35L-5.2 -2.4L-5.2 -2.5L-5.1 -2.75L-4.15 -2.55" />
<path style="fill:#7C8083;fill-opacity:1" d="M3.05,-2.4L2.7 -2.35L2.55 -2.35L2.8 -2.4L3.05 -2.45L3.15 -2.5L3.2 -2.5L3.4 -2.55L3.7 -2.6L3.75 -2.65L3.9 -2.65L3.95 -2.65L4 -2.7L4.1 -2.7L4.2 -2.75L4.55 -2.8L4.95 -2.9L5.45 -3L5.5 -3L5.6 -3.05L7.8 -3.25L6.8 -3.1L6.75 -3.1L5.8 -2.9L5.55 -2.9L5.2 -2.85L5.05 -2.8L4.25 -2.65L4.15 -2.65L4.1 -2.65L3.9 -2.6L3.7 -2.55L3.65 -2.55L3.55 -2.5L3.45 -2.5L3.35 -2.45L3.15 -2.4L3.1 -2.4L3.05 -2.4M-2.65,-2.35L-3 -2.4L-3.05 -2.45L-3 -2.4L-3.05 -2.4L-3.25 -2.45L-3.3 -2.5L-3.4 -2.5L-3.45 -2.5L-3.5 -2.5L-3.55 -2.55L-3.65 -2.55L-3.85 -2.6L-4 -2.65L-4.05 -2.65L-4.15 -2.65L-4.75 -2.75L-4.95 -2.8L-5.15 -2.85L-5.5 -2.9L-5.7 -2.9L-6.7 -3.1L-6.75 -3.1L-7.7 -3.25L-5.5 -3.05L-5.45 -3L-5.35 -3L-4.9 -2.9L-4.5 -2.8L-4.45 -2.8L-4.1 -2.75L-4 -2.7L-3.95 -2.7L-3.9 -2.7L-3.85 -2.7L-3.85 -2.65L-3.8 -2.65L-3.7 -2.65L-3.6 -2.6L-3.3 -2.55L-3.2 -2.55L-3.1 -2.5L-3.05 -2.5L-2.95 -2.5L-2.75 -2.4L-2.5 -2.35L-2.65 -2.35" />
<path style="fill:#83868F;fill-opacity:1" d="M5.05,-2.75L5.15 -2.75L5.55 -2.9L5.8 -2.9L6.6 -3L6.8 -3L5.2 -2.75L4.25 -2.5L4.15 -2.5L4.05 -2.5L4 -2.5L3.95 -2.5L3.9 -2.6L4.1 -2.65L4.15 -2.65L4.25 -2.65L5.05 -2.75M-3.9,-2.5L-3.95 -2.5L-4.1 -2.5L-4.15 -2.55L-5.1 -2.75L-5.65 -2.85L-6.75 -3.05L-6.5 -3L-5.7 -2.9L-5.5 -2.9L-5.15 -2.8L-5.05 -2.75L-5 -2.75L-4.15 -2.65L-4.05 -2.65L-4 -2.65L-3.85 -2.6L-3.9 -2.5" />
<path style="fill:#9AA0AC;fill-opacity:1" d="M3.95,-2.45L3.85 -2.45L3.8 -2.4L3.6 -2.35L3.5 -2.35L3.45 -2.35L3.4 -2.3L3.35 -2.35L3.25 -2.3L3.2 -2.35L3.15 -2.4L3.35 -2.45L3.45 -2.5L3.55 -2.5L3.65 -2.55L3.7 -2.55L3.9 -2.6L3.95 -2.5L4 -2.5L4.05 -2.5L3.95 -2.45M-3.95,-2.5L-3.9 -2.5L-3.85 -2.6L-3.65 -2.55L-3.55 -2.55L-3.5 -2.5L-3.45 -2.5L-3.4 -2.5L-3.3 -2.5L-3.25 -2.45L-3.05 -2.4L-3.15 -2.35L-3.2 -2.3L-3.3 -2.35L-3.3 -2.3L-3.35 -2.35L-3.4 -2.35L-3.5 -2.35L-3.55 -2.35L-3.75 -2.4L-3.75 -2.45L-3.85 -2.45L-3.95 -2.5" />
<path style="fill:#797E91;fill-opacity:1" d="M2.55,-1.95L2.45 -1.95L2.25 -1.85L1.6 -1.65L1.2 -1.55L0.1 -1.35L0.05 -1.35L0 -1.35L-0.05 -1.35L-0.05 -1.4L-1.35 -1.6L-1.5 -1.65L-2.2 -1.85L-2.45 -1.95L-2.6 -2.05L-2.85 -2.1L-3.05 -2.15L-3.15 -2.2L-3.45 -2.25L-3.7 -2.4L-3.8 -2.4L-3.85 -2.45L-3.75 -2.45L-3.75 -2.4L-3.55 -2.35L-3.5 -2.35L-3.4 -2.35L-3.35 -2.35L-3.3 -2.3L-3.15 -2.25L-3.05 -2.25L-2.95 -2.2L-2.25 -2L-2.1 -1.95L-2.05 -1.95L-1.85 -1.9L-1.5 -1.8L-0.35 -1.6L-0.05 -1.6L0.4 -1.6L1.6 -1.8L1.9 -1.9L2.05 -1.95L2.2 -1.95L2.2 -2L3.05 -2.2L3.15 -2.25L3.2 -2.25L3.4 -2.3L3.45 -2.35L3.5 -2.35L3.6 -2.35L3.8 -2.4L3.85 -2.45L3.95 -2.45L3.85 -2.4L3.8 -2.4L3.5 -2.25L3.45 -2.25L3.2 -2.2L3.1 -2.15L2.9 -2.1L2.55 -1.95" />
<path style="fill:#606676;fill-opacity:1" d="M0,-0.9L-0.3 -0.9L-0.65 -1L-0.85 -1.1L-0.95 -1.15L-1.4 -1.3L-1.6 -1.4L-1.65 -1.45L-2 -1.6L-2.05 -1.65L-2.3 -1.75L-2.7 -1.95L-2.85 -2.05L-2.9 -2.05L-3.05 -2.1L-3.5 -2.25L-3.7 -2.35L-3.8 -2.4L-4 -2.5L-4.15 -2.55L-4.1 -2.5L-3.95 -2.5L-3.85 -2.45L-3.8 -2.4L-3.7 -2.4L-3.45 -2.25L-3.15 -2.2L-3.05 -2.15L-2.85 -2.1L-2.7 -2.05L-2.65 -2L-2.6 -1.95Q-2.3 -1.8 -1.85 -1.6L-1.75 -1.6L-1.7 -1.6L-1.55 -1.5L-0.85 -1.3L-0.05 -1.15L0.05 -1.15L0.1 -1.15L1 -1.35L1.65 -1.5L1.7 -1.55L1.8 -1.55L1.8 -1.6L2.65 -1.95L2.7 -1.95L2.75 -2L2.9 -2.1L3.1 -2.15L3.2 -2.2L3.45 -2.25L3.5 -2.25L3.8 -2.4L3.85 -2.4L3.95 -2.45L4.05 -2.5L4.15 -2.5L4.25 -2.5L3.9 -2.4L3.75 -2.35L3.55 -2.25L3.5 -2.25L3.1 -2.1L3 -2.05L2.85 -1.95L2.75 -1.95L2.4 -1.75L2.1 -1.6L1.95 -1.55L1.7 -1.4L1.65 -1.4L1.5 -1.35L1.05 -1.15L0.95 -1.1L0.75 -1L0.3 -0.9L0 -0.9" />
<path style="fill:#525C68;fill-opacity:1" d="M2.1,-1.6L2.4 -1.75L2.75 -1.95L2.85 -1.95L3 -2.05L3.1 -2.1L3.5 -2.25L3.55 -2.25L3.75 -2.35L3.9 -2.4L3.95 -2.35L3.95 -2.25L4 -2.15L4 -2.1L3.6 -1.95L3.55 -1.95L3.45 -1.95L3.25 -1.85L2.5 -1.55L2.15 -1.6L2.1 -1.6M-2.4,-1.55L-2.65 -1.65L-3.2 -1.85L-3.45 -1.95L-3.5 -2L-3.7 -2.05L-3.9 -2.1L-3.9 -2.15L-3.85 -2.25L-3.85 -2.35L-3.8 -2.4L-3.7 -2.35L-3.5 -2.25L-3.05 -2.1L-2.9 -2.05L-2.85 -2.05L-2.7 -1.95L-2.3 -1.75L-2.05 -1.65L-2 -1.6L-2.05 -1.6L-2.4 -1.55" />
<path style="fill:#AAB2B5;fill-opacity:1" d="M-3.05,-2.5L-3.1 -2.5L-3.05 -2.5L-2.75 -2.4L-2.95 -2.5L-3.05 -2.5M3.05,-2.45L2.8 -2.4L3.1 -2.5L3.15 -2.5L3.05 -2.45M2.15,-2L2.1 -2.1L2.1 -2.15L2.55 -2.25L2.6 -2.25L3.1 -2.4L3.15 -2.4L3.2 -2.35L3.25 -2.3L3.35 -2.35L3.4 -2.3L3.2 -2.25L3.15 -2.25L3.05 -2.2L2.2 -2L2.2 -1.95L2.15 -2M-3.3,-2.35L-3.2 -2.3L-3.15 -2.35L-3.05 -2.4L-3 -2.4L-2.55 -2.25L-2.45 -2.25L-2 -2.15L-2 -2.1L-2.05 -2L-2.1 -1.95L-2.25 -2L-2.95 -2.2L-3.05 -2.25L-3.15 -2.25L-3.3 -2.3L-3.3 -2.35" />
<path style="fill:#52525E;fill-opacity:1" d="M5.4,-2.15L4.45 -1.95L4.3 -1.9L3.8 -1.8L3 -1.55L2.7 -1.4L2.65 -1.45L2.55 -1.5L2.55 -1.55L2.5 -1.55L3.25 -1.85L3.45 -1.95L3.55 -1.95L3.6 -1.95L4 -2.1L4.55 -2.25L4.6 -2.25L5.05 -2.35L5.3 -2.4L6.1 -2.5L6.2 -2.4L5.7 -2.3L5.65 -2.25L5.45 -2.2L5.4 -2.15M-3.7,-2.05L-3.5 -2L-3.45 -1.95L-3.2 -1.85L-2.65 -1.65L-2.4 -1.55L-2.5 -1.5L-2.55 -1.5L-2.6 -1.4L-3.3 -1.7L-3.7 -1.8L-4.4 -1.95L-4.7 -2.05L-5.35 -2.15L-5.4 -2.2L-5.65 -2.3L-6.05 -2.4L-6.1 -2.4L-6 -2.5L-5.2 -2.4L-4.95 -2.35L-4.55 -2.3L-3.9 -2.1L-3.7 -2.05" />
<path style="fill:#8B8F92;fill-opacity:1" d="M-5.45,-3L-5.35 -3L-5.45 -3M5.45,-3L5.5 -3L5.45 -3M5.55,-2.9L5.15 -2.75L5.05 -2.75L4.25 -2.65L5.05 -2.8L5.2 -2.85L5.55 -2.9M-5.15,-2.85L-4.95 -2.8L-4.75 -2.75L-4.15 -2.65L-5 -2.75L-5.05 -2.75L-5.15 -2.8L-5.5 -2.9L-5.15 -2.85" />
<path style="fill:#505155;fill-opacity:1" d="M7.75,-2.3L8.1 -2.25L8.15 -2.25L8.25 -2.2L8.5 -2.15L8.35 -2.15L8.1 -2.2L7.65 -2.25L7.4 -2.25L7.75 -2.3M-8.25,-2.15L-8.3 -2.15L-8.4 -2.15L-8.15 -2.2L-7.7 -2.3L-7.35 -2.3L-8.25 -2.15" />
<path style="fill:#838381;fill-opacity:1" d="M2.15,3.05L2.35 3.25Q2.5 3.45 2.85 3.45L3.1 3.45L3.3 3.45L5.25 3.05L6.6 2.5L6.75 2.45L7.05 2.3L7.65 1.9L8.45 1.3L8.55 1.15L8.7 1.05L8.8 0.95L9.1 0.7L9.45 0.35L9.6 0.15L9.7 0.05L9.95 -0.3L10 -0.4L10.15 -0.75L10.15 -0.8L10.15 -0.85L10.15 -0.8L10.15 -0.7L10.05 -0.4L9.95 -0.25L9.75 0.05L9.65 0.2L9.4 0.5L9.25 0.6L8.8 1.05L8.65 1.15L8.5 1.3L7.65 1.95L7.15 2.3L7.05 2.35L6.9 2.45L6.75 2.5L5.25 3.1L3.7 3.45L3.3 3.5L2.55 3.45L2.35 3.3L2.15 3.1L2.1 3L2 2.85L1.9 2.7L1.8 2.55L1.7 2.4L1.7 2.35L1.65 2.3L1.55 2.15L1.35 1.75L1.15 1.4L1.15 1.35L1.05 1.2L1 1.15L1 1.1L0.95 1.05L0.95 1L0.8 0.7L0.8 0.65L0.75 0.55L0.8 0.65L0.95 0.95L1 1.05L1.05 1.1L1.05 1.2L1.15 1.35L1.2 1.4L1.35 1.7L1.55 2.1L1.7 2.3L1.75 2.4L1.8 2.45L1.85 2.55L1.9 2.65L2 2.75L2.1 2.95L2.15 3.05M-0.65,0.55L-0.75 0.7L-0.75 0.8L-0.85 0.95L-0.9 1L-0.9 1.05L-0.9 1.1L-0.95 1.15L-1.05 1.4L-1.1 1.4L-1.25 1.75L-1.5 2.15L-1.6 2.35L-1.7 2.5L-1.7 2.55L-1.8 2.7L-1.9 2.85L-2 3L-2.1 3.1L-2.25 3.3L-3.25 3.5L-5.15 3.1L-6.6 2.55L-7 2.35L-7 2.3L-7.1 2.3L-8.3 1.4L-8.3 1.35L-8.4 1.35L-8.65 1.1L-8.7 1.05L-8.7 1L-9.45 0.3L-9.8 -0.1L-9.9 -0.25L-10.05 -0.7L-10.05 -0.85L-10.05 -0.75L-9.9 -0.3L-9.75 -0.1L-9.35 0.35L-8.7 0.95L-8.6 1.05L-8.6 1.1L-8.3 1.35L-8.25 1.35L-7 2.25L-6.95 2.3L-6.9 2.3L-6.45 2.55L-5.15 3.05L-3.25 3.45L-2.25 3.25L-2.1 3.05L-2 2.95L-1.9 2.75L-1.8 2.65L-1.75 2.55L-1.7 2.45L-1.65 2.35L-1.6 2.3L-1.5 2.1L-1.25 1.7L-1.1 1.4L-1.05 1.35L-1 1.15L-0.95 1.1L-0.95 1.05L-0.9 0.95L-0.8 0.8L-0.75 0.65L-0.7 0.55L-0.65 0.55" />
<linearGradient
id="LinearGradID_4569" gradientUnits="userSpaceOnUse" gradientTransform="matrix(-0.00050354, 0.0035553, -0.003479, -0.000488281, -5.4, 0.6)" spreadMethod ="pad" x1="-819.2" y1="0" x2="819.2" y2="0" >
<stop  offset="0" style="stop-color:#BFC4C0;stop-opacity:1" />
<stop  offset="0.219608" style="stop-color:#CCD2D0;stop-opacity:1" />
<stop  offset="0.431373" style="stop-color:#CCD0CF;stop-opacity:1" />
<stop  offset="0.721569" style="stop-color:#C5CFC7;stop-opacity:1" />
<stop  offset="1" style="stop-color:#AAACAB;stop-opacity:1" />
</linearGradient>
<path style="fill:url(#LinearGradID_4569) " d="M-7.35,-2.3L-7.15 -2.3L-6.6 -2.3L-6.35 -2.25L-5.35 -2.15L-4.7 -2.05L-4.4 -1.95L-3.7 -1.8L-3.3 -1.7L-2.6 -1.4L-2.4 -1.3L-2.05 -1.1L-1.95 -1.1L-1.95 -1.05L-1.9 -1L-1.8 -0.9L-1.75 -0.85L-1.7 -0.85L-1.6 -0.6L-1.45 -0.2L-1.4 -0.05L-1.4 0.05L-1.4 0.15L-1.6 0.4L-1.95 0.9L-2 0.95L-2.1 1.05L-2.1 1.1L-2.15 1.15L-2.3 1.4L-2.4 1.55L-2.45 1.7L-2.5 1.8L-2.6 2L-2.6 2.05L-2.7 2.35L-2.7 2.4L-2.7 2.5L-2.75 2.55L-2.7 2.95L-2.2 2.95L-1.9 2.45L-1.85 2.45L-1.85 2.4L-1.8 2.35L-1.55 2L-1.35 1.65L-1.2 1.4L-1.1 1.2L-0.8 0.6L-0.75 0.55L-0.7 0.55L-0.75 0.65L-0.8 0.8L-0.9 0.95L-0.95 1.05L-0.95 1.1L-1 1.15L-1.05 1.35L-1.1 1.4L-1.25 1.7L-1.5 2.1L-1.6 2.3L-1.65 2.35L-1.7 2.45L-1.75 2.55L-1.8 2.65L-1.9 2.75L-2 2.95L-2.1 3.05L-2.25 3.25L-3.25 3.45L-5.15 3.05L-6.45 2.55L-6.9 2.3L-6.95 2.3L-7 2.25L-8.25 1.35L-8.3 1.35L-8.6 1.1L-8.6 1.05L-8.7 0.95L-9.35 0.35L-9.75 -0.1L-9.9 -0.3L-10.05 -0.75L-10.05 -0.85L-10.1 -0.9L-10.05 -1.1L-9.95 -1.15L-9.9 -1.2L-9.7 -1.35L-9.65 -1.35L-9.6 -1.4L-9.55 -1.4L-9.45 -1.45L-9.15 -1.6L-8.9 -1.8L-8.9 -1.85L-8.8 -1.9L-8.65 -2L-8.6 -2.05L-8.5 -2.05L-8.45 -2.1L-8.25 -2.15L-7.35 -2.3" />
<path style="fill:#ADB2B6;fill-opacity:1" d="M-1.9,-2.1L-1.6 -2L-1.4 -1.95L-1.35 -1.95L-1.05 -1.9L-0.85 -1.85L-0.7 -1.8L-0.65 -1.8L-0.35 -1.8L-0.1 -1.75L-0.05 -1.75L-0.05 -1.85L0.05 -1.8L0.1 -1.75L0.15 -1.75L0.45 -1.8L0.7 -1.8L0.75 -1.8L0.9 -1.85L1.1 -1.85L1.4 -1.95L1.45 -1.95L1.5 -1.95L1.55 -2L1.95 -2.1L2.1 -2.15L2.1 -2.1L2.15 -2L2.2 -1.95L2.05 -1.95L1.9 -1.9L1.6 -1.8L0.4 -1.6L-0.05 -1.6L-0.35 -1.6L-1.5 -1.8L-1.85 -1.9L-2.05 -1.95L-2.1 -1.95L-2.05 -2L-2 -2.1L-2 -2.15L-1.9 -2.1" />
<path style="fill:#9C9CA8;fill-opacity:1" d="M-2.5,-2.35L-2.15 -2.25L-1.65 -2.15L-1.45 -2.05L-1.35 -2.05L-1.3 -2.05L-1.25 -2L-1.2 -2L-0.95 -1.95L-0.75 -1.9L-0.2 -1.85L0.05 -1.85L0.1 -1.85L0.3 -1.85L0.8 -1.9L1 -1.95L1.2 -2L1.35 -2L1.4 -2.05L1.5 -2.05L1.75 -2.15L2.2 -2.25L2.25 -2.25L2.55 -2.35L2.7 -2.35L3.05 -2.4L3.1 -2.4L2.6 -2.25L2.55 -2.25L2.1 -2.15L1.95 -2.1L1.55 -2L1.5 -1.95L1.45 -1.95L1.4 -1.95L1.1 -1.85L0.9 -1.85L0.75 -1.8L0.7 -1.8L0.45 -1.8L0.15 -1.75L0.1 -1.75L0.05 -1.8L-0.05 -1.85L-0.05 -1.75L-0.1 -1.75L-0.35 -1.8L-0.65 -1.8L-0.7 -1.8L-0.85 -1.85L-1.05 -1.9L-1.35 -1.95L-1.4 -1.95L-1.6 -2L-1.9 -2.1L-2 -2.15L-2.45 -2.25L-2.55 -2.25L-3 -2.4L-3.05 -2.45L-3 -2.4L-2.65 -2.35L-2.5 -2.35" />
<path style="fill:#6C7386;fill-opacity:1" d="M-2.85,-2.1L-2.6 -2.05L-2.45 -1.95L-2.2 -1.85L-1.5 -1.65L-1.35 -1.6L-0.05 -1.4L-0.05 -1.35L0 -1.35L0.05 -1.35L0.1 -1.35L1.2 -1.55L1.6 -1.65L2.25 -1.85L2.45 -1.95L2.55 -1.95L2.9 -2.1L2.75 -2L2.7 -1.95L2.65 -1.95L1.8 -1.6L1.8 -1.55L1.7 -1.55L1.65 -1.5L1 -1.35L0.1 -1.15L0.05 -1.15L-0.05 -1.15L-0.85 -1.3L-1.55 -1.5L-1.7 -1.6L-1.75 -1.6L-1.85 -1.6Q-2.3 -1.8 -2.6 -1.95L-2.65 -2L-2.7 -2.05L-2.85 -2.1" />
<path style="fill:#565D67;fill-opacity:1" d="M1.75,-0.85L1.6 -0.85L1.45 -0.85L1 -0.85L0.55 -0.85L0.45 -0.85L0.4 -0.85L0.3 -0.9L0.75 -1L0.95 -1.1L1.05 -1.15L1.5 -1.35L1.65 -1.4L1.7 -1.4L1.95 -1.55L2.1 -1.6L2.15 -1.6L2.5 -1.55L2.55 -1.55L2.55 -1.5L2.65 -1.45L2.7 -1.4L2.55 -1.35L2.15 -1.15L2 -1.05L2 -1L1.85 -0.9L1.8 -0.85L1.75 -0.85M-2.05,-1.6L-2 -1.6L-1.65 -1.45L-1.6 -1.4L-1.4 -1.3L-0.95 -1.15L-0.85 -1.1L-0.65 -1L-0.3 -0.9L-0.6 -0.85L-0.65 -0.85L-0.8 -0.85L-0.9 -0.85L-0.95 -0.85L-1.35 -0.85L-1.5 -0.85L-1.6 -0.85L-1.65 -0.85L-1.7 -0.85L-1.75 -0.85L-1.8 -0.9L-1.9 -1L-1.95 -1.05L-1.95 -1.1L-2.05 -1.1L-2.4 -1.3L-2.6 -1.4L-2.55 -1.5L-2.5 -1.5L-2.4 -1.55L-2.05 -1.6" />
<path style="fill:#B0BEC9;fill-opacity:1" d="M2.45,1.7L2.4 1.7L2.35 1.65L2.1 1.4L2.05 1.35L2 1.3L1.95 1.2L1.9 1.1L1.85 1.05L1.85 1L1.65 0.75L1.5 0.55L1.5 0.4L1.5 0.15L1.7 0.4L1.75 0.5L2.1 0.95L2.15 1.05L2.25 1.2L2.35 1.35L2.35 1.4L2.45 1.6L2.55 1.7L2.6 1.8L2.45 1.7M-1.4,0.4L-1.4 0.55L-1.55 0.75L-1.65 0.85L-1.7 0.95L-1.8 1.05L-1.8 1.1L-1.85 1.15L-1.95 1.3L-2 1.4L-2.3 1.65L-2.35 1.7L-2.4 1.7L-2.5 1.8L-2.45 1.7L-2.4 1.55L-2.3 1.4L-2.15 1.15L-2.1 1.1L-2.1 1.05L-2 0.95L-1.95 0.9L-1.6 0.4L-1.4 0.15L-1.4 0.4" />
<path style="fill:#9DA8AE;fill-opacity:1" d="M2.05,2.4L2.15 2.35L2.2 2.3L2.3 2.2L2.3 2.15L2.35 1.65L2.4 1.7L2.45 1.7L2.6 1.8L2.7 2L2.7 2.05L2.75 2.3L2.75 2.4L2.75 2.45L2.75 2.5L2.8 2.5L2.8 2.55L2.75 2.95L2.3 2.95L1.95 2.5L2.05 2.4M2.1,2.95L2.15 3.05L2.1 2.95M-2.25,2.15L-2.2 2.2L-2.05 2.35L-1.95 2.4L-1.9 2.45L-2.2 2.95L-2.7 2.95L-2.75 2.55L-2.7 2.5L-2.7 2.4L-2.7 2.35L-2.6 2.05L-2.6 2L-2.5 1.8L-2.4 1.7L-2.35 1.7L-2.3 1.65L-2.25 2.15" />
<path style="fill:#515561;fill-opacity:1" d="M1.8,-0.85L1.7 -0.7L1.65 -0.6L1.55 -0.2L1.5 -0.2L0.8 -0.3L0.95 -0.35L1.05 -0.45L1.05 -0.5L1.05 -0.55L0.7 -0.8L0.6 -0.85L0.55 -0.85L1 -0.85L1.45 -0.85L1.6 -0.85L1.75 -0.85L1.8 -0.85M-1.65,-0.85L-1.6 -0.85L-1.5 -0.85L-1.35 -0.85L-0.95 -0.85L-0.9 -0.85L-0.8 -0.85L-0.65 -0.85L-0.7 -0.85L-0.75 -0.85L-0.85 -0.8L-0.9 -0.8L-0.9 -0.75L-0.95 -0.75L-1 -0.7L-1.05 -0.6L-1 -0.5L-0.95 -0.45L-0.95 -0.4L-0.9 -0.4L-0.7 -0.3L-1.45 -0.2L-1.6 -0.6L-1.7 -0.85L-1.65 -0.85M0.8,-0.4L0.35 -0.3L0.25 -0.3L0 -0.3L-0.15 -0.3L-0.2 -0.3L-0.75 -0.45Q-1.05 -0.6 -0.8 -0.75L-0.75 -0.75L-0.7 -0.75L-0.6 -0.75L-0.2 -0.75L0 -0.75L-0.1 -0.7L-0.05 -0.65L-0.3 -0.7L-0.35 -0.7L-0.45 -0.65L-0.45 -0.6L-0.4 -0.6L-0.65 -0.7L-0.7 -0.65L-0.75 -0.6L-0.8 -0.6L-0.55 -0.45L-0.3 -0.4L-0.1 -0.35L0 -0.3L0.05 -0.35L0.15 -0.4L0.2 -0.4L0.4 -0.4L0.6 -0.4L0.8 -0.45L0.75 -0.45L0.85 -0.5L0.1 -0.75L0.8 -0.55L0.9 -0.45L0.8 -0.4M0.1,-0.4L0.05 -0.45L0.1 -0.4" />
<path style="fill:#DAE1F4;fill-opacity:1" d="M-0.9,-0.75L-0.9 -0.8L-0.85 -0.8L-0.75 -0.85L-0.7 -0.85L-0.65 -0.85L-0.6 -0.85L-0.3 -0.9L0 -0.9L0.3 -0.9L0.4 -0.85L0.45 -0.85L0.55 -0.85L0.6 -0.85L0.7 -0.8L1.05 -0.55L1.05 -0.5L1.05 -0.45L1 -0.4L0.95 -0.4L0.9 -0.35L0.75 -0.3L0.55 -0.25L0.15 -0.2L0.05 -0.2L-0.1 -0.2L-0.2 -0.25L-0.3 -0.25L-0.35 -0.25L-0.4 -0.25L-0.45 -0.25L-0.45 -0.3L-0.55 -0.3L-0.7 -0.35L-0.9 -0.45Q-1.1 -0.6 -0.95 -0.75L-0.9 -0.75M0.35,-0.3L0.8 -0.4L0.9 -0.45Q1.1 -0.6 0.55 -0.75L0.15 -0.8L0 -0.85L-0.1 -0.85L-0.75 -0.75L-0.8 -0.75Q-1.05 -0.6 -0.75 -0.45L-0.2 -0.3L0 -0.3L0.35 -0.3" />
<path style="fill:#585870;fill-opacity:1" d="M0.05,-0.45L-0.4 -0.6L-0.45 -0.6L-0.45 -0.65L-0.35 -0.7L-0.4 -0.65L0.3 -0.4L0.5 -0.45L-0.05 -0.65L-0.1 -0.7L0 -0.75L-0.2 -0.75L-0.6 -0.75L-0.7 -0.75L-0.75 -0.75L-0.8 -0.75L-0.75 -0.75L-0.1 -0.85L0 -0.85L0.15 -0.8L0.55 -0.75Q1.1 -0.6 0.9 -0.45L0.8 -0.55L0.1 -0.75L0 -0.75L-0.1 -0.7L0.65 -0.45L0.75 -0.45L0.8 -0.45L0.6 -0.4L0.4 -0.4L0.2 -0.4L0.15 -0.4L0.05 -0.35L0 -0.3L-0.1 -0.35L-0.3 -0.4L-0.55 -0.45L-0.8 -0.6L-0.75 -0.6L-0.7 -0.65L-0.75 -0.6L-0.05 -0.35L0.15 -0.4L0.1 -0.4L0.05 -0.45M-0.9,-0.4L-0.95 -0.4L-0.95 -0.45L-1 -0.5L-1.05 -0.6L-1 -0.7L-0.95 -0.75Q-1.1 -0.6 -0.9 -0.45L-0.7 -0.35L-0.55 -0.3L-0.45 -0.3L-0.45 -0.25L-0.4 -0.25L-0.35 -0.25L-0.3 -0.25L-0.2 -0.25L-0.1 -0.2L0.05 -0.2L0.15 -0.2L0.55 -0.25L0.75 -0.3L0.9 -0.35L0.95 -0.4L1 -0.4L1.05 -0.45L0.95 -0.35L0.8 -0.3L0.75 -0.25L0.7 -0.25L0.55 -0.2L0.15 -0.15L0 -0.15L-0.3 -0.2L-0.4 -0.2L-0.55 -0.25L-0.6 -0.25L-0.7 -0.3L-0.9 -0.4" />
<path style="fill:#F5FAFE;fill-opacity:1" d="M0.1,-0.75L0.85 -0.5L0.75 -0.45L0.65 -0.45L-0.1 -0.7L0 -0.75L0.1 -0.75M0.05,-0.45L0.1 -0.4L0.15 -0.4L-0.05 -0.35L-0.75 -0.6L-0.7 -0.65L-0.65 -0.7L-0.4 -0.6L0.05 -0.45M0.5,-0.45L0.3 -0.4L-0.4 -0.65L-0.35 -0.7L-0.3 -0.7L-0.05 -0.65L0.5 -0.45" />
<path style="fill:#50585B;fill-opacity:1" d="M1.35,0.35L1.15 0.25L0.65 0.15L0.25 0.1L0.1 0.05L0 0.05L-0.15 0.1L-0.55 0.15L-1.1 0.25L-1.25 0.35L-1.4 0.4L-1.4 0.15L-1.4 0.05L-1.4 -0.05L-1.45 -0.2L-0.7 -0.3L-0.6 -0.25L-0.55 -0.25L-0.4 -0.2L-0.3 -0.2L0 -0.15L0.15 -0.15L0.55 -0.2L0.7 -0.25L0.75 -0.25L0.8 -0.3L1.5 -0.2L1.55 -0.2L1.5 0L1.5 0.05L1.5 0.15L1.5 0.4L1.35 0.35M0,-0.3L-0.2 -0.3L-0.15 -0.3L0 -0.3L0.25 -0.3L0.35 -0.3L0 -0.3" />
<path style="fill:#515862;fill-opacity:1" d="M-0.7,0.55L-0.75 0.55L-0.8 0.6L-1.15 0.8L-1.2 0.85L-1.3 0.85L-1.35 0.85L-1.4 0.75L-1.4 0.55L-1.4 0.4L-1.25 0.35L-1.1 0.25L-0.55 0.15L-0.15 0.1L0 0.05L0.1 0.05L0.25 0.1L0.65 0.15L1.15 0.25L1.35 0.35L1.5 0.4L1.5 0.55L1.45 0.75L1.4 0.85L1.3 0.85L0.9 0.6L0.8 0.55L0.75 0.55L0 0.4L-0.65 0.55L-0.7 0.55" />
<path style="fill:#AAB2BF;fill-opacity:1" d="M1.95,2.5L1.95 2.45L1.9 2.4L1.85 2.3L1.65 2L1.45 1.65L1.3 1.4L1.3 1.35L1.2 1.2L0.9 0.6L1.3 0.85L1.4 0.85L1.45 0.75L1.5 0.55L1.65 0.75L1.85 1L1.85 1.05L1.9 1.1L1.95 1.2L2 1.3L2.05 1.35L2.1 1.4L2.35 1.65L2.3 2.15L2.3 2.2L2.2 2.3L2.15 2.35L2.05 2.4L1.95 2.5M-1.9,2.45L-1.95 2.4L-2.05 2.35L-2.2 2.2L-2.25 2.15L-2.3 1.65L-2 1.4L-1.95 1.3L-1.85 1.15L-1.8 1.1L-1.8 1.05L-1.7 0.95L-1.65 0.85L-1.55 0.75L-1.4 0.55L-1.4 0.75L-1.35 0.85L-1.3 0.85L-1.2 0.85L-1.15 0.8L-0.8 0.6L-1.1 1.2L-1.2 1.4L-1.35 1.65L-1.55 2L-1.8 2.35L-1.85 2.4L-1.85 2.45L-1.9 2.45" />
</g>
</svg>
