<?xml version="1.0" encoding="utf-8"?>
<svg version="1.1" id="Layer_1"
xmlns="http://www.w3.org/2000/svg"
xmlns:xlink="http://www.w3.org/1999/xlink"
xmlns:author="http://www.sothink.com"
width="44px" height="14px"
xml:space="preserve">
<g id="576" transform="matrix(1, 0, 0, 1, 2.45, 2.55)">
<path style="fill:#D0D0D0;fill-opacity:0" d="M41.35,11.15L-2.45 11.15L-2.45 -2.55L41.35 -2.55L41.35 11.15" />
<path style="fill:#FF9900;fill-opacity:1" d="M38.35,2.25L38.35 2.3L38.2 2.35L38.2 2.3L38.25 2.15L38.25 2.05L38.35 2.25M37.75,1.4L38 1.7L37.9 1.8L37.75 1.9L37.65 1.9L37.65 1.55L37.65 1.5L37.65 1.3L37.75 1.4M36.65,1.3L36.45 1.2L36.45 1L36.5 0.95L36.5 0.9L36.5 0.8L36.95 0.95L37 0.95L37.1 1L37.05 1.05L36.9 1.25L36.85 1.3L36.8 1.3L36.8 1.35L36.65 1.3M37.85,3.1L37.9 3.05L37.9 2.9L37.95 2.9L37.95 2.75L37.95 2.7L37.9 2.55L38.1 2.6L38 3L37.95 3.05L37.95 3.1L37.85 3.15L37.85 3.1M38.7,3.8L37.95 3.45L38.2 3.25L38.25 3.25L38.45 3.15L38.65 3.15L38.65 3.25L38.7 3.6L38.7 3.65L38.7 3.8M35.55,0.5L35.85 0.6L35.7 0.75L35.7 0.8L35.55 0.9L35.55 0.95L35.55 0.5M34.7,0.7L34.65 0.7L34.6 0.35L34.9 0.4L34.7 0.7M34.05,0.85L33.95 0.85L33.95 0.8L34 0.75L34 0.65L34.1 0.5L34.2 0.35L34.25 0.6L34.3 0.75L34.25 0.85L34.25 0.9L34.05 0.85M37.95,3.85L38 3.9L38.2 4.05L38.2 4.15L37.95 4.15L37.95 4.05L37.95 3.95L37.95 3.85M38.65,4.8L38.65 4.9L38.6 4.9L38.55 5.35L38.45 5.25L37.9 4.95L37.9 4.65L38.35 4.6L38.4 4.6L38.45 4.6L38.55 4.65L38.65 4.7L38.65 4.8M37.8,5.55L37.75 5.7L37.6 5.7L37.65 5.45L37.8 5.55M37.05,6.6L37.15 6.55L37.25 6.7L37.15 6.7L37.05 6.6M37.4,6.95L37.4 6.75L37.4 6.65L37.55 6.95L37.45 7L37.4 6.95M37.75,6.75L37.7 6.35L37.7 6.25L37.7 6.05L38.15 6.3L37.95 6.6L37.85 6.7L37.8 6.75L37.75 6.75M38.3,6L38.15 5.7L38.15 5.6L38.2 5.6L38.2 5.65L38.4 5.75L38.35 5.9L38.3 6M32.95,0.15L33.15 0.15L33.25 0.15L33.2 0.25L33.05 0.65L33.05 0.7L33.05 0.6L32.95 0.15M32.75,0.5L32.75 0.7L32.6 0.7L32.55 0.7L32.6 0.7L32.65 0.55L32.65 0.5L32.75 0.5M32.2,0.5L32.15 0.6L32 0.65L31.95 0.4L32 0.4L32.1 0.4L32.2 0.4L32.2 0.5M31.4,0.1L31.65 0.1L31.7 0.1L31.6 0.35L31.45 0.35L31.4 0.1M31.15,0.65L31.2 0.35L31.2 0.3L31.25 0.3L31.3 0.3L31.3 0.4L31.35 0.5L31.35 0.65L31.15 0.65M31.05,7.4L31.3 7.4L31.3 7.5L31.15 7.75L31.05 7.4M32.1,7.4L32.25 7.4L32.25 7.45L32.15 7.7L32.1 7.4M36.05,7.2L36 7L36.15 6.95L36.15 7.15L36.05 7.2M30.8,0.6L30.75 0.6L30.8 0.55L30.8 0.4L30.85 0.35L30.85 0.4L30.85 0.45L30.9 0.6L30.8 0.6M30.3,0.6L30.1 0.2L30.5 0.25L30.55 0.25L30.55 0.3L30.5 0.6L30.3 0.6M34.7,7.75L34.5 7.4L34.85 7.4L34.8 7.7L34.75 7.75L34.7 7.75M35.05,7.7L35.25 7.5L35.35 7.65L35.05 7.7M35.85,7.55L35.55 7.6L35.75 7.25L35.85 7.55M33.05,7.9L32.7 7.95L32.6 7.95L32.6 7.85L32.8 7.6Q32.85 7.5 33 7.5L33.05 7.5L33.05 7.55L33.1 7.9L33.05 7.9M33.55,7.55L33.45 7.85L33.35 7.5L33.3 7.4L33.5 7.4L33.6 7.4L33.55 7.55M34.15,7.45L34.15 7.55L34.1 7.55L34.05 7.75L33.9 7.45L34 7.45L34.05 7.45L34.15 7.45M31.65,7.75L31.85 7.6L32.1 8L31.85 8L31.8 8L31.55 8L31.65 7.75M30.55,7.9L30.65 7.8L30.7 7.75L30.85 7.7L30.95 7.9L30.9 8.05L30.85 8.05L30.8 8.05L30.55 8.05L30.55 7.9M29.9,7.9L29.95 7.7L29.95 7.65L30.1 7.5L30.25 7.55L30.25 8.05L30 8L29.9 8L29.8 8L29.9 7.9M28.9,7.85L28.9 7.8L29 7.5L29.15 7.5L29.2 8L29.1 8L29.05 8L28.85 8L28.9 7.85M27.8,7.45L27.8 7.4L27.9 7.4L27.95 7.4L27.95 7.45L27.95 7.6L28.05 7.95L27.95 7.95L27.65 7.9L27.8 7.45M23.4,6.05L23.45 5.95L23.5 5.95Q23.6 5.8 23.8 5.7L23.9 5.65L23.9 5.7L23.9 5.85L23.8 6.3L23.75 6.35L23.7 6.45L23.4 6.1L23.35 6.05L23.35 6L23.4 6.05M22.6,5.1L22.35 4.85L22.4 4.8L22.45 4.75L22.8 4.5L22.9 4.45L22.9 4.5L22.9 4.6L22.7 5.05L22.65 5.05L22.6 5.1M21.8,4.05L22.15 3.85L22.2 4.05L22.1 4.35L22.05 4.4L22 4.4L21.8 4.1L21.8 4.05M17.65,3.3L17.55 3.4L17.5 3.4L17.3 2.95L17.25 2.9L17.2 2.7L17.15 2.6L17.1 2.5L17.1 2.35L17.2 2.4L17.3 2.45L17.4 2.5L17.6 2.65L17.85 2.85L17.9 2.85L17.9 2.9L17.8 3.05L17.8 3.1L17.65 3.3M17,4.1L16.75 4.4L16.7 4.35L16.55 4.05L16.6 3.85L16.95 4.05L17 4.1M16.1,5.05L15.85 4.6L15.85 4.5L15.85 4.45L15.9 4.45L15.95 4.5L16.35 4.75L16.35 4.8L16.4 4.85L16.15 5.1L16.1 5.05M15.4,6.05L15.35 6.1L15.05 6.45L15 6.35L15 6.3L14.85 5.85L14.85 5.7L14.9 5.65L14.95 5.7L15.3 5.95L15.35 6.05L15.4 6.05M10.95,7.4L11 7.45L11.15 7.9L10.8 7.95L10.7 7.95L10.8 7.6L10.8 7.45L10.85 7.4L10.95 7.4M9.9,8L9.7 8L9.65 8L9.55 8L9.6 7.5L9.75 7.5L9.85 7.8L9.85 7.85L9.9 8M8.95,8L8.85 8L8.75 8L8.5 8.05L8.5 7.55L8.65 7.5L8.8 7.65L8.8 7.7L8.85 7.9L8.95 8M8.2,8.05L7.95 8.05L7.9 8.05L7.85 8.05L7.8 7.9L7.9 7.7L8.05 7.75L8.1 7.8L8.2 7.9L8.2 8.05M7.2,8L6.95 8L6.9 8L6.65 8L6.9 7.6L7.1 7.75L7.2 8M1.95,7.4L1.9 7.4L1.95 7.35Q1.95 7.05 2.1 6.95L2.15 6.95L2.15 7.05L2.2 7.45L1.95 7.4M1.3,7L1.2 6.95L1.15 6.95L1.35 6.65L1.35 6.75L1.35 6.95L1.3 7M0.95,6.75L0.85 6.7L0.8 6.6L0.6 6.3L0.55 6.3Q0.85 6.05 1 6.05L1 6.25L1 6.35L1 6.75L0.95 6.75M0.4,6L0.4 5.9L0.3 5.75L0.5 5.65L0.5 5.6L0.6 5.6L0.55 5.7L0.4 6M0.2,5.35L0.1 4.9L0.1 4.8L0.05 4.7L0.2 4.65L0.3 4.6L0.35 4.6L0.4 4.6L0.8 4.65L0.85 4.95L0.3 5.25L0.2 5.35M0,3.8L0 3.65L0 3.6L0.05 3.25L0.1 3.15L0.25 3.15L0.45 3.25L0.5 3.25L0.8 3.45L0 3.8M5.7,0.6L5.7 0.7L5.65 0.65L5.5 0.25L5.5 0.15L5.6 0.15L5.8 0.15L5.7 0.6M7.1,0.35L7.05 0.1L7.1 0.1L7.35 0.1L7.3 0.35L7.1 0.35M14.65,0.55L14.6 0.55L14.55 0.15L14.8 0.15L14.85 0.15L15 0.15L14.95 0.2L14.75 0.6L14.65 0.55M15.4,0.2L15.8 0.25L15.7 0.5L15.7 0.55L15.5 0.75L15.4 0.7L15.35 0.7L15.35 0.55L15.4 0.2M16.45,1L16.45 0.85L16.55 0.7L16.55 0.65L16.55 0.55L16.55 0.35L16.7 0.4L16.8 0.4L16.95 0.45L16.45 1M21.85,0.45L21.95 0.4L22.05 0.4L22.2 0.35L22.2 0.55L22.2 0.65L22.2 0.7L22.35 0.85L22.35 1L21.85 0.45M23.4,0.7L23.3 0.75L23.25 0.75L23.1 0.55L23.05 0.5L22.95 0.25L23.4 0.2L23.4 0.55L23.4 0.7M23.8,0.15L23.9 0.15L23.95 0.15L24.2 0.15L24.2 0.55L24.15 0.55L24.1 0.55L24 0.6L23.8 0.2L23.8 0.15M29.65,0.6L29.6 0.6L29.6 0.55L29.7 0.4L29.8 0.6L29.65 0.6M36.55,7.45L36.55 7.05L36.55 6.95L36.65 6.95L36.8 7.35L36.8 7.4L36.55 7.45M22.9,0.85L23 0.85L23.15 1.1L23.1 1.1L22.9 1.15L22.9 0.85M22.05,1.5L22 1.55L22 1.4L21.95 1.25L22 1.15L22.25 1.4L22.05 1.5M21.35,0.7L21.35 0.75L21.45 1.1L21.45 1.15L21.2 0.85L21.35 0.7M21.15,3.3L21 3.1L20.95 3.05L20.85 2.85L20.9 2.85L21.2 2.65L21.4 2.5L21.5 2.45L21.55 2.4L21.7 2.35L21.65 2.5L21.6 2.6L21.6 2.7L21.5 2.9L21.5 2.95L21.25 3.4L21.15 3.3M21.7,2L21.7 2.05L21.45 1.85L21.3 1.75L21.65 1.75L21.8 1.75L21.7 2M28.6,7.45L28.6 7.5L28.35 7.85L28.25 7.4L28.55 7.45L28.6 7.45M29.65,7.65L29.6 7.8L29.55 7.8L29.5 7.7L29.5 7.45L29.7 7.45L29.65 7.65M27.35,7.35L27.25 7.5L27.2 7.6L27.15 7.65L27.15 7.4L27.15 7.35L27.35 7.35M17.4,0.7L17.55 0.85L17.3 1.15L17.3 1.1L17.4 0.75L17.4 0.7M16.75,1.15L16.8 1.25L16.8 1.4L16.75 1.55L16.7 1.5L16.55 1.4L16.75 1.15M15.65,1.1L15.75 0.85L15.85 0.85L15.9 1.15L15.65 1.1M17,1.75L17.1 1.75L17.5 1.75L17.35 1.85L17.1 2.05L17.05 2L17 1.75M2.6,6.95L2.75 7L2.65 7.2L2.6 7.15L2.6 6.95M6.6,7.7L6.5 7.45L6.45 7.4L6.65 7.4L6.6 7.7M7.6,7.75L7.45 7.5L7.45 7.4L7.7 7.4L7.6 7.75M11.6,7.35L11.6 7.4L11.6 7.65L11.6 7.6L11.5 7.5L11.4 7.35L11.6 7.35M10.2,7.45L10.5 7.4L10.4 7.85L10.15 7.5L10.15 7.45L10.2 7.45M8.65,0.2L8.45 0.6L8.25 0.6L8.2 0.3L8.2 0.25L8.25 0.25L8.65 0.2M8.95,0.6L9.05 0.4L9.15 0.55L9.15 0.6L9.1 0.6L8.95 0.6M7.55,0.3L7.55 0.35L7.6 0.65L7.4 0.65L7.4 0.5L7.4 0.4L7.45 0.3L7.5 0.3L7.55 0.3M7.95,0.6L7.85 0.6L7.85 0.45L7.9 0.4L7.9 0.35L7.95 0.4L7.95 0.55L8 0.6L7.95 0.6M6.6,0.6L6.55 0.5L6.55 0.4L6.65 0.4L6.7 0.4L6.8 0.4L6.75 0.65L6.6 0.6M6.1,0.5L6.1 0.55L6.15 0.7L6 0.7L6 0.5L6.1 0.5M4.75,0.8L4.8 0.85L4.7 0.85L4.45 0.9L4.45 0.85L4.45 0.75L4.45 0.6L4.55 0.35L4.65 0.5L4.7 0.65L4.75 0.75L4.75 0.8M4.15,0.35L4.1 0.7L4.05 0.7L3.85 0.4L4.15 0.35M3.2,0.5L3.2 0.55L3.2 0.95L3.15 0.9L3.05 0.8L3 0.75L2.9 0.6L3.2 0.5M2.05,1.3L1.95 1.35L1.9 1.3L1.85 1.25L1.65 1.05L1.65 1L1.75 0.95L2.2 0.8L2.25 0.8L2.25 0.9L2.25 1L2.25 1.2L2.05 1.3M0.95,1.4L1.05 1.3L1.1 1.5L1.1 1.55L1.05 1.9L1 1.9L0.85 1.8L0.7 1.7L0.95 1.4M0.45,2.05L0.5 2.15L0.55 2.3L0.5 2.35L0.4 2.3L0.35 2.25L0.45 2.05M0.85,3.15L0.8 3.1L0.8 3.05L0.7 3L0.6 2.6L0.8 2.55L0.8 2.7L0.8 2.75L0.8 2.9L0.85 3.05L0.85 3.1L0.85 3.15M0.8,3.85L0.8 3.95L0.75 4.05L0.75 4.15L0.55 4.15L0.55 4.05L0.75 3.9L0.8 3.85M0.95,5.55L1.05 5.45L1.15 5.7L1 5.7L0.95 5.55M4.05,7.75L4 7.75L3.95 7.7L3.9 7.4L4.2 7.4L4.05 7.75M2.85,7.55L3 7.25L3.15 7.6L2.85 7.55M3.4,7.65L3.45 7.5L3.5 7.5L3.65 7.7L3.4 7.65M4.7,7.75L4.6 7.55L4.6 7.45L4.7 7.45L4.75 7.45L4.85 7.45L4.7 7.75M6.05,7.95L5.7 7.9L5.65 7.9L5.7 7.55L5.7 7.5L5.95 7.6L6.1 7.85L6.15 7.95L6.05 7.95M1.6,6.7L1.5 6.7L1.6 6.55L1.7 6.6L1.6 6.7M9.25,7.45L9.25 7.7L9.2 7.8L9.15 7.8L9.1 7.65L9.05 7.45L9.25 7.45M5.4,7.4L5.4 7.5L5.3 7.85L5.15 7.55L5.15 7.4L5.25 7.4L5.4 7.4" />
<linearGradient
id="LinearGradID_4615" gradientUnits="userSpaceOnUse" gradientTransform="matrix(-0.00317383, 0, 0, 0.00198364, 36.05, 1.8)" spreadMethod ="pad" x1="-819.2" y1="0" x2="819.2" y2="0" >
<stop  offset="0" style="stop-color:#45463E;stop-opacity:1" />
<stop  offset="0.521569" style="stop-color:#010B02;stop-opacity:1" />
<stop  offset="0.964706" style="stop-color:#433C36;stop-opacity:1" />
</linearGradient>
<path style="fill:url(#LinearGradID_4615) " d="M38.55,2.7L38.55 2.9L38.6 3.1L38.65 3.15L38.45 3.15L38.25 3.25L38.2 3.25L37.95 3.45L37.9 3.45L37.85 3.15L37.95 3.1L37.95 3.05L38 3L38.1 2.6L37.9 2.55L37.85 2.35L37.8 2.15L37.75 2.1L37.65 1.9L37.45 1.75L37.5 1.7L37.4 1.65L37.3 1.6L37.05 1.45L36.9 1.4L36.8 1.35L36.8 1.3L36.85 1.3L36.9 1.25L37.05 1.05L37.1 1L37.65 1.3L37.65 1.5L37.65 1.55L37.65 1.9L37.75 1.9L37.9 1.8L38 1.7L38.25 2.05L38.25 2.15L38.2 2.3L38.2 2.35L38.35 2.3L38.35 2.25L38.55 2.7M36.05,1.05L35.95 1.05L35.9 1L35.75 1L35.6 0.95L35.55 0.95L35.55 0.9L35.7 0.8L35.7 0.75L35.85 0.6L36.15 0.7L36.2 0.7L36.3 0.7L36.5 0.8L36.5 0.9L36.5 0.95L36.45 1L36.45 1.2L36.05 1.05M33.95,0.75Q33.85 0.75 33.8 0.85L33.7 0.8L33.65 0.8L33.55 0.8L33.45 0.8L33.55 0.65L33.55 0.55L33.65 0.4L33.65 0.35L33.7 0.25L33.7 0.2L34 0.25L34.05 0.25L34.6 0.35L34.65 0.7L34.7 0.7L34.9 0.4L35.1 0.45L35.15 0.45L35.45 0.5L35.55 0.5L35.55 0.95L35.5 0.95L34.5 0.75L34.3 0.75L34.25 0.6L34.2 0.35L34.1 0.5L34 0.65L34 0.75L33.95 0.75" />
<path style="fill:#7B7C76;fill-opacity:1" d="M38.15,1.5L38.4 1.85L38.25 2.05L38 1.7L38.15 1.5M37.2,0.85L37.7 1.1L37.65 1.3L37.1 1L37.2 0.85M38.65,3.25L38.65 3.15L38.6 3.1L38.55 2.9L38.55 2.7L38.35 2.25L38.5 2.15L38.6 2.5L38.6 2.55L38.65 2.85L38.65 2.95L38.7 3.15L38.7 3.25L38.7 3.6L38.65 3.25M35.9,0.5L35.95 0.5L36 0.5L36.1 0.55L36.35 0.6L36.55 0.65L36.5 0.8L36.3 0.7L36.2 0.7L36.15 0.7L35.85 0.6L35.9 0.5M35.45,0.5L35.15 0.45L35.1 0.45L34.9 0.4L34.6 0.35L34.05 0.25L34.6 0.3L34.95 0.35L35.05 0.35L35.1 0.35L35.35 0.4L35.4 0.4L35.45 0.4L35.55 0.45L35.55 0.5L35.45 0.5M0,3.6L0.05 3.25L0.05 3.15L0.05 2.95L0.1 2.85L0.1 2.55L0.1 2.5L0.2 2.15L0.35 2.25L0.2 2.7L0.15 2.9L0.1 3.1L0.1 3.15L0.05 3.25L0 3.6M0.35,1.85L0.6 1.5L0.7 1.7L0.45 2.05L0.35 1.85M1.05,1.1Q1.2 0.95 1.5 0.85L1.65 1L1.05 1.3L1.05 1.1M2.2,0.65L2.35 0.6L2.65 0.55L2.7 0.5L2.8 0.5L2.85 0.5L2.9 0.6L2.6 0.7L2.5 0.7L2.45 0.7L2.25 0.8L2.2 0.65M3.2,0.45L3.3 0.4L3.35 0.4L3.4 0.4L3.65 0.35L3.7 0.35L3.8 0.35L4.15 0.3L4.7 0.25L4.15 0.35L3.85 0.4L3.65 0.45L3.55 0.45L3.25 0.5L3.2 0.5L3.2 0.45" />
<path style="fill:#FDA624;fill-opacity:1" d="M38.4,1.85L38.5 2.15L38.35 2.25L38.25 2.05L38.4 1.85M38.15,1.5L38 1.7L37.75 1.4L37.65 1.3L37.7 1.1L37.85 1.2L37.9 1.25L38.15 1.5M36.55,0.65L36.65 0.7L37.2 0.85L37.1 1L37 0.95L36.95 0.95L36.5 0.8L36.55 0.65M35.9,0.5L35.85 0.6L35.55 0.5L35.55 0.45L35.9 0.5M0.2,2.15L0.35 1.85L0.45 2.05L0.35 2.25L0.2 2.15M1.05,1.3L0.95 1.4L0.7 1.7L0.6 1.5L0.85 1.25L0.9 1.2L1.05 1.1L1.05 1.3M2.25,0.8L2.2 0.8L1.75 0.95L1.65 1L1.5 0.85L2.05 0.7L2.2 0.65L2.25 0.8M2.9,0.6L2.85 0.5L3.2 0.45L3.2 0.5L2.9 0.6" />
<linearGradient
id="LinearGradID_4616" gradientUnits="userSpaceOnUse" gradientTransform="matrix(0.00151062, 0.00187683, 0.00137329, -0.000549316, 36.15, 1.9)" spreadMethod ="pad" x1="-819.2" y1="0" x2="819.2" y2="0" >
<stop  offset="0" style="stop-color:#0D0F04;stop-opacity:1" />
<stop  offset="0.533333" style="stop-color:#64675C;stop-opacity:1" />
<stop  offset="0.980392" style="stop-color:#291C14;stop-opacity:1" />
</linearGradient>
<path style="fill:url(#LinearGradID_4616) " d="M37.25,1.65L37.2 1.65L37 1.75L36.65 1.55L36.55 1.5L36.45 1.45L36.25 1.35L36.15 1.35L36.1 1.3L35.95 1.25L35.8 1.2L35.7 1.2L34.85 1L34.3 0.9L34.25 0.9L34.25 0.85L34.3 0.75L34.5 0.75L35.5 0.95L35.55 0.95L35.6 0.95L35.75 1L35.9 1L35.95 1.05L36.05 1.05L36.45 1.2L36.65 1.3L36.8 1.35L36.9 1.4L37.05 1.45L37.3 1.6L37.25 1.65M37.75,2.55L37.65 2.55L37.6 2.4L37.3 2L37.35 1.85L37.4 1.75L37.4 1.65L37.5 1.7L37.45 1.75L37.65 1.9L37.75 2.1L37.8 2.15L37.85 2.35L37.9 2.55L37.75 2.55M37.8,3.3L37.8 3.25L37.85 3.2L37.8 3.3M33.8,0.85Q33.85 0.75 33.95 0.75L34 0.75L33.95 0.8L33.95 0.85L33.8 0.85" />
<radialGradient
id="RadialGradID_4617" gradientUnits="userSpaceOnUse" gradientTransform="matrix(-0.0113983, 0, 0, 0.00799561, 28.5, 4.45)" spreadMethod ="pad" cx="0" cy="0" r="819.2" fx="0" fy="0" >
<stop  offset="0"  style="stop-color:#FBEDE1;stop-opacity:0.392157" />
<stop  offset="1"  style="stop-color:#EBBA72;stop-opacity:0.501961" />
</radialGradient>
<path style="fill:url(#RadialGradID_4617) " d="M36.8,6.55L36.15 6.95L36 7L34.8 7.25L34.5 7.3L34.15 7.3L33.9 7.35L33.6 7.35L33.3 7.35L33.05 7.4L32.25 7.4L32.1 7.4L31.5 7.4L31.3 7.4L31.05 7.4L30.75 7.4L29.75 7.35L29.45 7.35L28.7 7.3L28.25 7.25L27.45 7.2L27.15 7.15L26.8 7.05L26.3 6.95L25.85 6.75L25.55 6.6L24.75 6.15L24.4 5.9L23.8 5.35L23.45 5L23.25 4.8L23.25 4.75L23.15 4.65L22.75 4.15L22.6 3.9L22.15 3.25L22.15 3.2L22.1 3.15L22 2.9L21.85 2.15L21.95 1.85L22.05 1.7L22.35 1.5L22.85 1.3L23.2 1.2L24.45 0.95L24.75 0.95L25.15 0.9L25.5 0.85L25.8 0.85L26.7 0.8L27.2 0.8L27.75 0.75L27.95 0.75L28.3 0.75L28.7 0.75L29.55 0.75L29.8 0.75L30.7 0.8L30.95 0.8L31.15 0.8L32.1 0.85L32.5 0.85L32.75 0.85L33.4 0.95L33.45 0.95L33.65 0.95L33.9 1L34.25 1.05L36 1.5L36.25 1.55L37.45 2.6L37.55 3.3L37.55 3.4L37.6 3.85L37.6 4.1L37.5 5.35L37.4 5.7L37.05 6.3L36.8 6.55" />
<linearGradient
id="LinearGradID_4618" gradientUnits="userSpaceOnUse" gradientTransform="matrix(-0.00268555, 0, 0, 0.00160217, 35.55, 2.1)" spreadMethod ="pad" x1="-819.2" y1="0" x2="819.2" y2="0" >
<stop  offset="0" style="stop-color:#36281F;stop-opacity:1" />
<stop  offset="1" style="stop-color:#2C2C2C;stop-opacity:1" />
</linearGradient>
<path style="fill:url(#LinearGradID_4618) " d="M34.25,1.05L34.25 0.9L34.3 0.9L34.85 1L35.7 1.2L35.8 1.2L35.95 1.25L36.1 1.3L36 1.5L34.25 1.05M37.05,1.8L37.25 1.95L37.3 2L37.6 2.4L37.65 2.55L37.55 2.55L37.45 2.6L36.25 1.55L36.25 1.5L36.25 1.45L36.25 1.35L36.45 1.45L36.55 1.5L36.65 1.55L37 1.75L37.05 1.8M37.55,3.3L37.6 3.3L37.8 3.25L37.6 3.4L37.55 3.4L37.55 3.3M33.45,0.95L33.4 0.95L33.45 0.8L33.55 0.8L33.45 0.95M33.95,0.85L33.9 0.95L33.9 1L33.65 0.95L33.65 0.85L33.65 0.8L33.7 0.8L33.8 0.85L33.95 0.85" />
<path style="fill:#BA7001;fill-opacity:1" d="M36,1.5L36.1 1.3L36.15 1.35L36.25 1.35L36.25 1.45L36.25 1.5L36.25 1.55L36 1.5M37.45,2.6L37.55 2.55L37.65 2.55L37.7 2.6L37.7 2.7L37.75 2.95L37.75 3L37.8 3.1L37.8 3.25L37.6 3.3L37.55 3.3L37.45 2.6M37.6,3.85L37.7 3.8L37.8 3.8L37.8 3.85L37.8 4.1L37.6 4.1L37.6 3.85M37.5,5.35L37.65 5.45L37.6 5.7L37.4 5.7L37.5 5.35M37.75,4.9L37.75 4.75L37.9 4.65L37.9 4.95L37.75 4.9M37,6.65L36.8 6.55L37.05 6.3L37.15 6.5L37.15 6.55L37.05 6.6L37 6.65M33.9,1L33.9 0.95L33.95 0.85L34.05 0.85L34.25 0.9L34.25 1.05L33.9 1M33.45,0.95L33.55 0.8L33.65 0.8L33.65 0.85L33.65 0.95L33.45 0.95M31.95,0.3L31.9 0.25L31.9 0.2L31.9 0.1L31.95 0.1L32.1 0.1L32.25 0.1L32.25 0.25L32.2 0.4L32.1 0.4L32 0.4L31.95 0.4L31.95 0.3M32.5,0.85L32.55 0.8L32.55 0.7L32.6 0.7L32.75 0.7L32.75 0.85L32.5 0.85M30.05,0.05L30.35 0.05L30.5 0.05L30.55 0.05L30.55 0.1L30.55 0.25L30.5 0.25L30.1 0.2L30.05 0.05M30.75,0.6L30.8 0.6L30.9 0.6L30.95 0.75L30.95 0.8L30.7 0.8L30.75 0.6M29.8,0.6L29.8 0.7L29.8 0.75L29.55 0.75L29.55 0.7L29.6 0.6L29.65 0.6L29.8 0.6M28.7,0.75L28.3 0.75L28.35 0.65L28.4 0.65L28.45 0.6L28.7 0.6L28.7 0.7L28.7 0.75M27.75,0.7L27.8 0.65L27.8 0.6L27.95 0.6L27.95 0.7L27.95 0.75L27.75 0.75L27.75 0.7M26.75,0.65L26.8 0.65L27 0.65L27.2 0.65L27.2 0.7L27.2 0.8L26.7 0.8L26.75 0.65M25.15,0.8L25.15 0.75L25.2 0.75L25.5 0.75L25.5 0.85L25.15 0.9L25.15 0.8M24.75,0.95L24.45 0.95L24.45 0.9L24.5 0.85L24.6 0.8L24.7 0.8L24.75 0.95M23.2,1.15L23.2 1.2L22.85 1.3L22.9 1.15L23.1 1.1L23.15 1.1L23.2 1.15M22,1.55L22.05 1.5L22.25 1.4L22.35 1.5L22.05 1.7L22 1.55M21.7,2.05L21.7 2L21.8 1.75L21.9 1.8L21.95 1.85L21.85 2.15L21.7 2.05M22,2.95L22 2.9L22.1 3.15L22 2.95M23.35,5.1L23.1 4.85L23.15 4.75L23.15 4.65L23.25 4.75L23.2 4.75L23.25 4.8L23.45 5L23.35 5.1M24.75,6.2L24.7 6.25L24.65 6.25L24.55 6.15L24.35 6L24.4 5.9L24.75 6.15L24.75 6.2M25.85,6.8L25.85 6.9L25.85 6.95L25.8 7.05L25.6 7L25.5 6.95L25.55 6.8L25.55 6.6L25.85 6.75L25.85 6.8M26.3,7.1L26.3 6.95L26.8 7.05L26.8 7.2L26.8 7.25L26.8 7.3L26.75 7.35L26.7 7.35L26.5 7.3L26.3 7.25L26.3 7.2L26.3 7.1M27.35,7.35L27.15 7.35L27.15 7.15L27.45 7.2L27.35 7.35M28.55,7.45L28.25 7.4L28.25 7.25L28.7 7.3L28.65 7.4L28.6 7.45L28.55 7.45M29.75,7.4L29.7 7.45L29.5 7.45L29.45 7.35L29.75 7.35L29.75 7.4M33.3,7.35L33.6 7.35L33.6 7.4L33.5 7.4L33.3 7.4L33.3 7.35M34.05,7.45L34 7.45L33.9 7.45L33.9 7.35L34.15 7.3L34.15 7.35L34.15 7.45L34.05 7.45M34.5,7.3L34.8 7.25L34.85 7.35L34.85 7.4L34.5 7.4L34.5 7.3M31.15,0.65L31.35 0.65L31.35 0.75L31.15 0.8L31.15 0.75L31.15 0.65M35.05,7.7L35.35 7.65L35.35 7.75L35.1 7.8L35.05 7.8L35.05 7.75L35.05 7.7M35.9,7.65L35.55 7.75L35.55 7.6L35.85 7.55L35.9 7.65M25.25,7.35L25.1 7.4L24.85 7.25L24.9 7.15L25 7L25.25 7.2L25.25 7.35M17.8,3.1L17.8 3.05L17.9 2.9L17.95 2.9L18 2.95L18.05 3L17.65 3.3L17.8 3.1M13.5,7.2L13.75 7L13.85 7.15L13.9 7.25L13.65 7.4L13.5 7.35L13.5 7.2M3.4,7.65L3.65 7.7L3.65 7.75L3.7 7.8L3.65 7.8L3.35 7.75L3.4 7.65M2.85,7.55L3.15 7.6L3.2 7.75L2.85 7.65L2.85 7.55M2.2,7.45L2.2 7.5L1.95 7.4L2.2 7.45M6.5,0.1L6.65 0.1L6.8 0.1L6.85 0.1L6.8 0.2L6.8 0.25L6.8 0.3L6.8 0.4L6.7 0.4L6.65 0.4L6.55 0.4L6.5 0.25L6.5 0.1M8.2,0.05L8.25 0.05L8.4 0.05L8.7 0.05L8.65 0.2L8.25 0.25L8.2 0.25L8.2 0.1L8.2 0.05M9.65,0.2L9.55 0.2L9.55 0.05L9.55 0L9.6 0L9.85 0L9.95 0L9.9 0.15L9.9 0.2L9.65 0.2M11.05,0.2L11 0.2L10.95 0.2L10.8 0.2L10.8 0.1L10.8 0L10.9 0L11.1 0L11.2 0L11.3 0L11.2 0.2L11.05 0.2M12.25,0.05L12.3 0.05L12.4 0.05L12.5 0.05L12.75 0.05L12.8 0.05L12.8 0.1L12.7 0.3L12.6 0.3L12.55 0.3L12.35 0.25L12.25 0.25L12.25 0.05M25.95,0.05L26 0.05L26.25 0.05L26.35 0.05L26.45 0.05L26.5 0.05L26.5 0.25L26.45 0.25L26.2 0.3L26.15 0.3L26.05 0.3L26 0.1L25.95 0.05M27.45,0L27.55 0L27.7 0L27.85 0L27.95 0L27.95 0.1L27.95 0.2L27.85 0.2L27.75 0.2L27.7 0.2L27.55 0.2L27.45 0M28.8,0L28.9 0L29.15 0L29.2 0L29.2 0.05L29.2 0.2L29.1 0.2L28.85 0.2L28.85 0.15L28.8 0M36.55,7.45L36.8 7.4L36.55 7.5L36.55 7.45M16.7,1.7L16.45 1.5L16.55 1.4L16.7 1.5L16.75 1.55L16.7 1.7M15.55,1.2L15.6 1.15L15.65 1.1L15.9 1.15L15.9 1.3L15.55 1.2M14.05,0.95L14.05 0.8L14.15 0.8L14.3 0.85L14.3 0.9L14.3 0.95L14.05 0.95M15.6,4.65L15.65 4.75L15.7 4.85L15.65 4.85L15.45 5.1L15.35 5L15.6 4.65M17.05,2L17.1 2.05L16.95 2.15L16.85 1.85L16.85 1.8L17 1.75L17.05 2M16.65,3.15L16.75 2.9L16.8 2.95L16.65 3.15M13.25,0.85L13.3 0.75L13.6 0.75L13.6 0.8L13.6 0.9L13.25 0.85M12.05,0.8L11.55 0.8L11.55 0.7L11.55 0.65L11.6 0.65L11.75 0.65L11.95 0.65L12 0.65L12.05 0.8M11,0.75L10.8 0.75L10.8 0.7L10.8 0.6L10.95 0.6L10.95 0.65L11 0.7L11 0.75M10.45,0.75L10.05 0.75L10.05 0.7L10.05 0.6L10.1 0.6L10.3 0.6L10.35 0.65L10.4 0.65L10.45 0.75M8.95,0.7L8.95 0.6L9.1 0.6L9.15 0.6L9.2 0.7L9.2 0.75L8.95 0.75L8.95 0.7M8,0.8L7.8 0.8L7.8 0.75L7.85 0.6L7.95 0.6L8 0.6L8 0.8M6,0.7L6.15 0.7L6.2 0.8L6.2 0.85L6 0.85L6 0.7M5.2,0.8L5.3 0.95L5.1 0.95L5.1 0.85L5.1 0.8L5.2 0.8M4.45,0.9L4.7 0.85L4.8 0.85L4.85 0.95L4.85 1L4.5 1.05L4.45 0.9M2.5,1.5L2.5 1.45L2.5 1.35L2.6 1.35L2.6 1.3L2.7 1.5L2.5 1.55L2.5 1.5M1.1,3.3L0.95 3.25L0.95 3.1L0.95 3L0.95 2.95L1 2.7L1.05 2.6L1.05 2.55L1.15 2.55L1.3 2.6L1.15 3.3L1.1 3.3M0.95,4.1L0.9 3.85L0.9 3.8L1 3.8L1.15 3.85L1.15 4.1L0.95 4.1M1.15,5.7L1.05 5.45L1.25 5.35L1.35 5.7L1.15 5.7M1.75,6.65L1.7 6.65L1.7 6.6L1.6 6.55L1.6 6.5L1.7 6.3L1.9 6.55L1.75 6.65M4.2,7.4L3.9 7.4L3.9 7.35L3.9 7.25L4.25 7.3L4.2 7.4M4.85,7.45L4.75 7.45L4.7 7.45L4.6 7.45L4.6 7.35L4.6 7.3L4.85 7.35L4.85 7.45M5.4,7.4L5.25 7.4L5.15 7.4L5.15 7.35L5.45 7.35L5.4 7.4M9.25,7.45L9.05 7.45L9 7.4L9 7.35L9.3 7.35L9.25 7.45M10.5,7.4L10.2 7.45L10.15 7.45L10.1 7.4L10.05 7.3L10.5 7.25L10.5 7.4M11.3,7.2L11.6 7.15L11.6 7.35L11.4 7.35L11.3 7.2M12.5,7.1L12.5 7.2L12.5 7.25L12.45 7.25L12.25 7.3L12.1 7.35L12 7.35L11.95 7.3L11.95 7.25L11.95 7.05L12.45 6.95L12.5 7.1M13.25,6.8L13.25 6.95L13.15 7L12.95 7.05L12.9 6.95L12.9 6.9L12.9 6.8L12.9 6.75L13.2 6.6L13.25 6.8M14.4,6L14.2 6.15L14.1 6.25L14.05 6.2L14 6.15L14.35 5.9L14.4 6M7.4,0.75L7.4 0.65L7.6 0.65L7.6 0.75L7.6 0.8L7.4 0.75M0.95,4.75L1 4.9L0.85 4.95L0.8 4.65L0.95 4.75" />
<path style="fill:#EC8E02;fill-opacity:1" d="M37.3,2L37.25 1.95L37.05 1.8L37 1.75L37.2 1.65L37.25 1.65L37.3 1.6L37.4 1.65L37.4 1.75L37.35 1.85L37.3 2M37.85,3.85L37.95 3.85L37.95 3.95L37.95 4.05L37.95 4.15L37.9 4.15L37.8 4.1L37.8 3.85L37.8 3.8L37.85 3.85M26.3,7.5L26.3 7.45L26.3 7.35L26.3 7.25L26.5 7.3L26.7 7.35L26.75 7.35L26.65 7.55L26.6 7.55L26.55 7.65L26.5 7.7L26.45 7.8L26.4 7.75L26.3 7.75L26.3 7.5M12.5,7.35L12.5 7.45L12.45 7.5L12.45 7.75L12.35 7.75L12.3 7.8L12.25 7.7L12.2 7.65L12.15 7.55L12 7.35L12.1 7.35L12.25 7.3L12.45 7.25L12.5 7.25L12.5 7.35M24.5,6.5L24.45 6.55L24.35 6.55L24.35 6.15L24.35 6.05L24.35 6L24.55 6.15L24.65 6.25L24.6 6.35L24.5 6.5M25.25,7.2L25 7L25.1 6.85L25.2 6.75L25.25 6.8L25.25 7.2M25.6,7.35L25.55 7.35L25.55 7.15L25.55 7.1L25.5 6.95L25.6 7L25.8 7.05L25.7 7.3L25.65 7.35L25.6 7.35M14.15,6.35L14.1 6.25L14.2 6.15L14.4 6L14.4 6.05L14.45 6.15L14.45 6.55L14.3 6.55L14.3 6.5L14.15 6.35M13.65,6.85L13.75 7L13.5 7.2L13.5 6.8L13.55 6.75L13.65 6.85M13.25,7.1L13.25 7.15L13.2 7.35L13.15 7.35L13.1 7.35L13.1 7.3L13.05 7.3L12.95 7.05L13.15 7L13.25 6.95L13.25 7.1M1.65,1.8L1.45 1.95L1.4 2L1.35 1.85L1.35 1.75L1.35 1.65L1.4 1.6L1.45 1.6L1.5 1.65L1.55 1.65L1.7 1.75L1.65 1.8M0.85,4.15L0.75 4.15L0.75 4.05L0.8 3.95L0.8 3.85L0.9 3.85L0.9 3.8L0.9 3.85L0.95 4.1L0.85 4.15" />
<path style="fill:#DB8402;fill-opacity:1" d="M37.85,3.2L37.8 3.25L37.8 3.1L37.75 3L37.75 2.95L37.7 2.7L37.7 2.6L37.65 2.55L37.75 2.55L37.9 2.55L37.95 2.7L37.95 2.75L37.95 2.9L37.9 2.9L37.9 3.05L37.85 3.1L37.85 3.2M0.9,3.2L0.85 3.1L0.85 3.05L0.8 2.9L0.8 2.75L0.8 2.7L0.8 2.55L1 2.55L1.05 2.55L1.05 2.6L1 2.7L0.95 2.95L0.95 3L0.95 3.1L0.95 3.25L0.9 3.2" />
<path style="fill:#17190E;fill-opacity:1" d="M37.8,3.45L37.8 3.3L37.85 3.2L37.85 3.1L37.85 3.15L37.9 3.45L37.8 3.45M0.85,3.45L0.85 3.15L0.85 3.1L0.9 3.2L0.95 3.3L0.95 3.45L0.85 3.45" />
<linearGradient
id="LinearGradID_4619" gradientUnits="userSpaceOnUse" gradientTransform="matrix(-0.000411987, 0.00144958, 0.000671387, 9.15527e-005, 38, 5.15)" spreadMethod ="pad" x1="-819.2" y1="0" x2="819.2" y2="0" >
<stop  offset="0" style="stop-color:#383A32;stop-opacity:1" />
<stop  offset="1" style="stop-color:#532424;stop-opacity:1" />
</linearGradient>
<path style="fill:url(#LinearGradID_4619) " d="M38.7,3.8L38.7 3.85L38.7 4L38.7 4.05L38.7 4.1L38.65 4.6L38.65 4.7L38.55 4.65L38.45 4.6L38.4 4.6L38.35 4.6L37.9 4.65L37.95 4.15L38.2 4.15L38.2 4.05L38 3.9L37.95 3.85L37.9 3.45L37.95 3.45L38.7 3.8M38.4,5.7L38.4 5.75L38.2 5.65L38.2 5.6L38.15 5.6L38.15 5.7L38.3 6L38.25 6.05L38.15 6.3L37.7 6.05L37.7 6.25L37.7 6.35L37.75 6.75L37.6 6.9L37.55 6.95L37.4 6.65L37.4 6.75L37.4 6.95L37.3 6.85L37.15 6.7L37.25 6.7L37.15 6.55L37.2 6.5L37.25 6.4L37.35 6.35L37.55 6.05L37.75 5.7L37.8 5.55L37.8 5.5L37.85 5.35L37.85 5.25L37.85 5.1L37.9 4.95L38.45 5.25L38.55 5.35L38.4 5.7" />
<linearGradient
id="LinearGradID_4620" gradientUnits="userSpaceOnUse" gradientTransform="matrix(0.000213623, -0.00205994, -0.000427246, -1.52588e-005, 37.4, 4.9)" spreadMethod ="pad" x1="-819.2" y1="0" x2="819.2" y2="0" >
<stop  offset="0" style="stop-color:#231010;stop-opacity:1" />
<stop  offset="0.415686" style="stop-color:#635C56;stop-opacity:1" />
<stop  offset="1" style="stop-color:#54564B;stop-opacity:1" />
</linearGradient>
<path style="fill:url(#LinearGradID_4620) " d="M37.8,3.45L37.8 3.6L37.8 3.75L37.8 3.8L37.7 3.8L37.6 3.85L37.55 3.4L37.6 3.4L37.8 3.25L37.8 3.3L37.8 3.45M37.75,4.75L37.75 4.9L37.75 4.95L37.75 5.05L37.7 5.25L37.65 5.45L37.5 5.35L37.6 4.1L37.8 4.1L37.75 4.75M37.5,5.9L37.3 6.3L37.25 6.4L37.15 6.45L37.15 6.5L37.05 6.3L37.4 5.7L37.6 5.7L37.5 5.9" />
<linearGradient
id="LinearGradID_4621" gradientUnits="userSpaceOnUse" gradientTransform="matrix(0, -0.00193787, -0.000564575, 0, 37.5, 5)" spreadMethod ="pad" x1="-819.2" y1="0" x2="819.2" y2="0" >
<stop  offset="0" style="stop-color:#231010;stop-opacity:1" />
<stop  offset="1" style="stop-color:#54564B;stop-opacity:1" />
</linearGradient>
<path style="fill:url(#LinearGradID_4621) " d="M37.8,3.8L37.8 3.75L37.8 3.6L37.8 3.45L37.9 3.45L37.95 3.85L37.85 3.85L37.8 3.8M37.75,4.75L37.8 4.1L37.9 4.15L37.95 4.15L37.9 4.65L37.75 4.75M37.65,5.45L37.7 5.25L37.75 5.05L37.75 4.95L37.75 4.9L37.9 4.95L37.85 5.1L37.85 5.25L37.85 5.35L37.8 5.5L37.8 5.55L37.65 5.45M37.15,6.5L37.15 6.45L37.25 6.4L37.3 6.3L37.5 5.9L37.6 5.7L37.75 5.7L37.55 6.05L37.35 6.35L37.25 6.4L37.2 6.5L37.15 6.55L37.15 6.5" />
<linearGradient
id="LinearGradID_4622" gradientUnits="userSpaceOnUse" gradientTransform="matrix(-0.00733948, 0, 0, 0.000778198, 27.65, 0.65)" spreadMethod ="pad" x1="-819.2" y1="0" x2="819.2" y2="0" >
<stop  offset="0" style="stop-color:#443D37;stop-opacity:1" />
<stop  offset="0.964706" style="stop-color:#3E2A23;stop-opacity:1" />
</linearGradient>
<path style="fill:url(#LinearGradID_4622) " d="M33.2,0.75L32.8 0.75L32.75 0.7L32.75 0.5L32.7 0.5L32.65 0.45L32.6 0.45L32.55 0.45L32.4 0.45L32.2 0.4L32.25 0.25L32.25 0.1L32.3 0.1L32.5 0.15L32.6 0.15L32.95 0.15L33.05 0.6L33.05 0.7L33.05 0.65L33.2 0.25L33.25 0.15L33.25 0.2L33.4 0.2L33.55 0.2L33.65 0.2L33.7 0.2L33.7 0.25L33.65 0.35L33.65 0.4L33.55 0.55L33.55 0.65L33.45 0.8L33.2 0.75M32,0.65L31.9 0.65L32 0.65L32.15 0.6L32.2 0.6L32.25 0.6L32.3 0.6L32.45 0.55L32.55 0.55L32.6 0.5L32.65 0.5L32.65 0.55L32.6 0.7L32.55 0.7L32.4 0.7L32.35 0.7L32.25 0.7L32.15 0.7L32 0.65M31.7,0.1L31.8 0.1L31.85 0.1L31.9 0.1L31.9 0.2L31.9 0.25L31.95 0.3L31.95 0.4L31.6 0.35L31.7 0.1M31.25,0.3L31.2 0.3L31.15 0.3L30.7 0.25L30.55 0.25L30.55 0.1L30.55 0.05L30.9 0.05L31 0.05L31.15 0.05L31.2 0.05L31.4 0.1L31.45 0.35L31.35 0.3L31.3 0.3L31.25 0.3M22.75,1.2L22.65 1.2L22.6 1.25L22.5 1.3L22.15 0.95L22.05 0.9L21.85 0.7L21.65 0.5L21.7 0.5L21.85 0.45L22.35 1L22.35 0.85L22.2 0.7L22.2 0.65L22.2 0.55L22.2 0.35L22.45 0.3L22.55 0.3L22.75 0.25L22.95 0.25L23.05 0.5L23.1 0.55L23.25 0.75L24.5 0.8L24.7 0.8L24.6 0.8L24.5 0.85L24.4 0.85L24.35 0.85L24.1 0.9L24 0.9L23.6 0.95L23.55 1L23.45 1L23.3 1.05L23.15 1.1L23 0.85L22.9 0.85L22.9 1.15L22.75 1.2M23.4,0.55L23.4 0.2L23.45 0.2L23.55 0.2L23.75 0.15L23.8 0.15L23.8 0.2L24 0.6L23.9 0.6L23.75 0.65L23.7 0.65L23.45 0.7L23.4 0.7L23.4 0.55M24.2,0.15L24.25 0.15L24.45 0.15L24.55 0.1L24.6 0.1L25.25 0.1L25.35 0.1L25.6 0.05L25.95 0.05L26 0.1L26.05 0.3L25.85 0.3L25.6 0.35L25.5 0.35L25.25 0.4L25.1 0.4L24.9 0.45L24.85 0.45L24.75 0.45L24.65 0.5L24.55 0.5L24.35 0.55L24.2 0.55L24.15 0.55L24.2 0.55L24.2 0.15M26.5,0.05L26.65 0.05L26.85 0.05L27.15 0.05L27.2 0L27.25 0L27.45 0L27.55 0.2L27.45 0.2L27.35 0.2L27.3 0.2L27 0.25L26.85 0.25L26.65 0.25L26.5 0.25L26.5 0.05M27.95,0L28.15 0L28.45 0L28.8 0L28.85 0.15L28.85 0.2L28.6 0.2L28.55 0.2L28.45 0.2L28.3 0.2L28 0.2L27.95 0.2L27.95 0.1L27.95 0M29.2,0.05L29.2 0L30.05 0.05L30.1 0.2L29.3 0.2L29.2 0.2L29.2 0.05" />
<path style="fill:#25170E;fill-opacity:1" d="M32.75,0.85L32.75 0.7L32.8 0.75L33.2 0.75L33.45 0.8L33.4 0.95L32.75 0.85M32.55,0.8L32.5 0.85L32.1 0.85L32.15 0.7L32.25 0.7L32.35 0.7L32.4 0.7L32.55 0.7L32.55 0.8M31.35,0.75L31.55 0.75L31.65 0.7L31.75 0.7L31.9 0.65L32 0.65L32.1 0.85L31.15 0.8L31.35 0.75M6.2,0.8L6.15 0.7L6.2 0.7L6.35 0.7L6.5 0.7L6.6 0.7L6.65 0.85L6.75 0.65L6.85 0.65L7 0.7L7.1 0.7L7.2 0.75L7.4 0.75L7.6 0.8L6.65 0.85L6.2 0.85L6.2 0.8M5.25,0.8L5.55 0.75L5.95 0.75L6 0.7L6 0.85L5.35 0.95L5.25 0.8" />
<linearGradient
id="LinearGradID_4623" gradientUnits="userSpaceOnUse" gradientTransform="matrix(-0.00114441, 0, 0, 0.000289917, 29.8, 0.4)" spreadMethod ="pad" x1="-819.2" y1="0" x2="819.2" y2="0" >
<stop  offset="0" style="stop-color:#5B3822;stop-opacity:1" />
<stop  offset="0.854902" style="stop-color:#966C3C;stop-opacity:1" />
<stop  offset="0.980392" style="stop-color:#A98052;stop-opacity:1" />
</linearGradient>
<path style="fill:url(#LinearGradID_4623) " d="M32.2,0.4L32.4 0.45L32.55 0.45L32.6 0.45L32.65 0.45L32.7 0.5L32.75 0.5L32.65 0.5L32.6 0.5L32.55 0.55L32.45 0.55L32.3 0.6L32.25 0.6L32.2 0.6L32.15 0.6L32.2 0.5L32.2 0.4M31.9,0.65L31.7 0.65L31.6 0.65L31.45 0.65L31.35 0.65L31.35 0.5L31.3 0.4L31.3 0.3L31.35 0.3L31.45 0.35L31.5 0.45L31.55 0.5L31.55 0.45L31.6 0.35L31.95 0.4L32 0.65L31.9 0.65M30.5,0.6L30.55 0.3L30.55 0.25L30.7 0.25L31.15 0.3L31.2 0.3L31.2 0.35L31.15 0.65L31 0.6L30.9 0.6L30.85 0.45L30.85 0.4L30.85 0.35L30.8 0.4L30.8 0.55L30.75 0.6L30.5 0.6M29.8,0.6L29.7 0.4L29.6 0.55L29.6 0.6L29.45 0.6L28.95 0.6L28.7 0.6L28.45 0.6L28.65 0.55L28.7 0.55L28.85 0.5L28.95 0.4L28.75 0.35L28.7 0.35L28.7 0.25L28.6 0.2L28.85 0.2L29 0.55L29.15 0.3L29.2 0.2L29.3 0.2L30.1 0.2L30.3 0.6L29.8 0.6M28,0.2L28.3 0.2L28.45 0.2L28.45 0.3L28.35 0.25L28.05 0.25L27.95 0.2L28 0.2M27.85,0.2L27.75 0.2L27.85 0.2L27.95 0.2L27.85 0.2" />
<path style="fill:#331203;fill-opacity:1" d="M31.35,0.65L31.45 0.65L31.6 0.65L31.7 0.65L31.9 0.65L31.75 0.7L31.65 0.7L31.55 0.75L31.35 0.75L31.35 0.65M30.95,0.75L30.9 0.6L31 0.6L31.15 0.65L31.15 0.75L31.15 0.8L30.95 0.8L30.95 0.75M29.8,0.7L29.8 0.6L30.3 0.6L30.5 0.6L30.75 0.6L30.7 0.8L29.8 0.75L29.8 0.7M28.7,0.7L28.7 0.6L28.95 0.6L29.45 0.6L29.6 0.6L29.55 0.7L29.55 0.75L28.7 0.75L28.7 0.7M28.35,0.65L28.3 0.75L27.95 0.75L28.1 0.75L28.15 0.7L28.25 0.7L28.35 0.65M10.8,0.75L10.45 0.75L10.4 0.65L10.5 0.7L10.6 0.7L10.7 0.75L10.8 0.75M9.15,0.6L9.3 0.6L9.8 0.6L10.05 0.6L10.05 0.7L10.05 0.75L9.2 0.75L9.2 0.7L9.15 0.6M8,0.6L8.25 0.6L8.45 0.6L8.95 0.6L8.95 0.7L8.95 0.75L8 0.8L8 0.6M7.6,0.65L7.7 0.6L7.85 0.6L7.8 0.75L7.8 0.8L7.6 0.8L7.6 0.75L7.6 0.65M6.85,0.65L7.05 0.65L7.15 0.65L7.3 0.65L7.4 0.65L7.4 0.75L7.2 0.75L7.1 0.7L7 0.7L6.85 0.65" />
<path style="fill:#FD9F13;fill-opacity:1" d="M32,0.65L32.15 0.7L32.1 0.85L32 0.65M31.6,0.35L31.55 0.45L31.55 0.5L31.5 0.45L31.45 0.35L31.6 0.35M22.1,3.15L22.15 3.2L22.15 3.25L21.9 3.4L21.75 3.45L21.75 3.25L21.95 3L22 2.95L22.1 3.15M22.65,4.2L22.55 4.25L22.55 4.05L22.6 3.9L22.75 4.15L22.65 4.2M23.1,4.85L23.35 5.1L23.1 5.25L23 5L23.1 4.85M16.65,3.15L16.8 2.95L16.85 3L17 3.25L17.05 3.25L17.05 3.45L16.9 3.4L16.85 3.4L16.6 3.25L16.65 3.15M16.2,3.9L16.2 4.05L16.2 4.25L16.1 4.2L16.05 4.15L16.2 3.9M15.65,4.85L15.7 4.85L15.75 5L15.7 5.25L15.45 5.1L15.65 4.85M7.3,0.35L7.25 0.45L7.2 0.5L7.15 0.45L7.1 0.35L7.3 0.35M6.75,0.65L6.65 0.85L6.6 0.7L6.75 0.65" />
<path style="fill:#4C504F;fill-opacity:1" d="M32.6,7.95L32.7 7.95L33.05 7.9L33.1 7.9L33.25 7.9L33.4 7.9L33.85 7.85L34 7.85L34.3 7.8L34.4 7.75L34.7 7.75L34.75 7.75L35 7.7L35.05 7.7L35.05 7.75L35.05 7.8L35 7.8L34.45 7.85L34.35 7.85L34.05 7.9L33.85 7.9L33.45 7.95L33.3 7.95L33.1 7.95L32.7 7.95L32.6 8L32.1 8L32.6 7.95M35.55,7.75L35.5 7.75L35.45 7.75L35.35 7.75L35.35 7.65L35.55 7.6L35.55 7.75M6.15,7.95L6.65 8L6.15 8L6.05 7.95L5.65 7.95L5.45 7.95L5.3 7.95L4.85 7.9L4.7 7.9L4.4 7.85L4.35 7.85L4.25 7.85L3.7 7.8L3.65 7.75L3.65 7.7L3.7 7.7L4 7.75L4.05 7.75L4.3 7.75L4.45 7.8L4.75 7.85L4.9 7.85L5.35 7.9L5.45 7.9L5.65 7.9L5.7 7.9L6.05 7.95L6.15 7.95M3.35,7.75L3.3 7.75L3.25 7.75L3.2 7.75L3.15 7.6L3.4 7.65L3.35 7.75M2.2,7.45L2.6 7.5L2.8 7.55L2.85 7.55L2.85 7.65L2.75 7.65L2.5 7.6L2.2 7.5L2.2 7.45M36.55,7.5L36.2 7.6L36 7.65L35.9 7.65L35.85 7.55L35.95 7.55L36.15 7.5L36.55 7.45L36.55 7.5" />
<linearGradient
id="LinearGradID_4624" gradientUnits="userSpaceOnUse" gradientTransform="matrix(-0.00366211, 0, 0, 0.000854492, 34.45, 7.3)" spreadMethod ="pad" x1="-819.2" y1="0" x2="819.2" y2="0" >
<stop  offset="0" style="stop-color:#532424;stop-opacity:1" />
<stop  offset="0.490196" style="stop-color:#0D0D0D;stop-opacity:1" />
<stop  offset="1" style="stop-color:#100D06;stop-opacity:1" />
</linearGradient>
<path style="fill:url(#LinearGradID_4624) " d="M37.45,7L37.45 7.05L37.4 7.05L37.3 7.1L37.15 7.2L36.85 7.35L36.8 7.4L36.8 7.35L36.65 6.95L36.7 6.85L36.75 6.85L36.8 6.8L36.85 6.8L36.95 6.7L37 6.65L37.05 6.65L37.05 6.6L37.15 6.7L37.3 6.85L37.4 6.95L37.45 7M32.1,8L31.85 7.6L31.65 7.75L31.55 8L31.45 8L31.45 7.8L31.5 7.5L31.5 7.4L32.1 7.4L32.15 7.7L32.25 7.45L32.25 7.4L33.05 7.4L33.3 7.4L33.35 7.5L33.45 7.85L33.55 7.55L33.6 7.4L33.7 7.4L33.9 7.45L34.05 7.75L34.1 7.55L34.15 7.55L34.15 7.45L34.2 7.45L34.5 7.4L34.7 7.75L34.4 7.75L34.3 7.8L34 7.85L33.85 7.85L33.4 7.9L33.25 7.9L33.1 7.9L33.05 7.55L33.05 7.5L33 7.5Q32.85 7.5 32.8 7.6L32.6 7.85L32.6 7.95L32.1 8M35.05,7.4L35.1 7.4L35.75 7.25L35.55 7.6L35.35 7.65L35.25 7.5L35.05 7.7L35 7.7L34.75 7.75L34.8 7.7L34.85 7.4L35.05 7.4M36.15,7.15L36.5 7L36.55 6.95L36.55 7.05L36.55 7.45L36.15 7.5L35.95 7.55L35.85 7.55L35.75 7.25L35.8 7.25L36.05 7.2L36.15 7.15" />
<linearGradient
id="LinearGradID_4625" gradientUnits="userSpaceOnUse" gradientTransform="matrix(-0.0025177, 0, 0, 0.000579834, 34.95, 6.95)" spreadMethod ="pad" x1="-819.2" y1="0" x2="819.2" y2="0" >
<stop  offset="0" style="stop-color:#231010;stop-opacity:1" />
<stop  offset="1" style="stop-color:#2C2C2C;stop-opacity:1" />
</linearGradient>
<path style="fill:url(#LinearGradID_4625) " d="M33.05,7.4L33.3 7.35L33.3 7.4L33.05 7.4M33.9,7.45L33.7 7.4L33.6 7.4L33.6 7.35L33.9 7.35L33.9 7.45M34.15,7.35L34.15 7.3L34.5 7.3L34.5 7.4L34.2 7.45L34.15 7.45L34.15 7.35M36.05,7.2L35.8 7.25L35.75 7.25L35.1 7.4L35.05 7.4L34.85 7.4L34.85 7.35L34.8 7.25L36 7L36.05 7.2M36.15,6.95L36.8 6.55L37 6.65L36.95 6.7L36.85 6.8L36.8 6.8L36.75 6.85L36.7 6.85L36.65 6.95L36.55 6.95L36.5 7L36.15 7.15L36.15 6.95" />
<linearGradient
id="LinearGradID_4626" gradientUnits="userSpaceOnUse" gradientTransform="matrix(0.00140381, 0.000808716, 0.0010376, -0.00088501, 26.55, 6.15)" spreadMethod ="pad" x1="-819.2" y1="0" x2="819.2" y2="0" >
<stop  offset="0" style="stop-color:#532424;stop-opacity:1" />
<stop  offset="0.490196" style="stop-color:#563522;stop-opacity:1" />
<stop  offset="1" style="stop-color:#3E3C2D;stop-opacity:1" />
</linearGradient>
<path style="fill:url(#LinearGradID_4626) " d="M24.1,5.7L23.8 5.35L24.4 5.9L24.35 6L24.3 5.9L24.1 5.7M25.55,6.8L25.15 6.55L24.95 6.45L24.7 6.25L24.65 6.25L24.7 6.25L24.75 6.2L24.75 6.15L25.55 6.6L25.55 6.8M26.3,7.1L26.1 7.05L25.9 6.95L25.85 6.95L25.85 6.9L25.85 6.8L25.85 6.75L26.3 6.95L26.3 7.1M26.8,7.05L27.15 7.15L27.15 7.35L27.05 7.3L26.9 7.3L26.85 7.3L26.8 7.25L26.8 7.2L26.8 7.05M27.35,7.35L27.45 7.2L28.25 7.25L28.25 7.4L27.95 7.4L27.9 7.4L27.8 7.4L27.7 7.4L27.35 7.35M28.7,7.3L29.45 7.35L29.5 7.45L29.3 7.45L29.2 7.45L29.15 7.45L28.85 7.45L28.7 7.45L28.65 7.45L28.6 7.45L28.65 7.4L28.7 7.3M29.75,7.35L30.75 7.4L30.45 7.4L30.4 7.45L30.35 7.45L30.2 7.45L29.75 7.45L29.7 7.45L29.75 7.4L29.75 7.35" />
<linearGradient
id="LinearGradID_4627" gradientUnits="userSpaceOnUse" gradientTransform="matrix(-0.00543213, 0, 0, 0.00195313, 27.05, 6.4)" spreadMethod ="pad" x1="-819.2" y1="0" x2="819.2" y2="0" >
<stop  offset="0" style="stop-color:#1B1610;stop-opacity:1" />
<stop  offset="0.490196" style="stop-color:#563522;stop-opacity:1" />
<stop  offset="1" style="stop-color:#100B08;stop-opacity:1" />
</linearGradient>
<path style="fill:url(#LinearGradID_4627) " d="M28.85,8L28.4 7.95L28.2 7.95L28.05 7.95L27.95 7.6L27.95 7.45L27.95 7.4L28.25 7.4L28.35 7.85L28.6 7.5L28.6 7.45L28.65 7.45L28.7 7.45L28.85 7.45L29.15 7.45L29.2 7.45L29.3 7.45L29.5 7.45L29.5 7.7L29.55 7.8L29.6 7.8L29.65 7.65L29.7 7.45L29.75 7.45L30.2 7.45L30.35 7.45L30.4 7.45L30.45 7.4L30.75 7.4L31.05 7.4L31.15 7.75L31.3 7.5L31.3 7.4L31.5 7.4L31.5 7.5L31.45 7.8L31.45 8L30.9 8.05L30.95 7.9L30.85 7.7L30.7 7.75L30.65 7.8L30.55 7.9L30.55 8.05L30.25 8.05L30.25 7.55L30.1 7.5L29.95 7.65L29.95 7.7L29.9 7.9L29.8 8L29.75 8L29.55 8L29.25 8L29.2 8L29.15 7.5L29 7.5L28.9 7.8L28.9 7.85L28.85 8M27.7,7.4L27.8 7.4L27.8 7.45L27.65 7.9L27.6 7.9L27.35 7.9L26.95 7.85L26.85 7.85L26.7 7.8L26.65 7.8L26.6 7.8L26.45 7.8L26.5 7.7L26.55 7.65L26.6 7.55L26.65 7.55L26.7 7.55L26.8 7.55L27 7.45L27.05 7.45L27 7.45L26.8 7.4L26.75 7.35L26.8 7.3L26.8 7.25L26.85 7.3L26.9 7.3L27.05 7.3L27.15 7.35L27.15 7.4L27.15 7.65L27.2 7.6L27.25 7.5L27.35 7.35L27.7 7.4M26.3,7.5L26.3 7.75L26 7.7L25.8 7.65L25.1 7.4L25.25 7.35L25.25 7.2L25.4 7.25L25.5 7.3L25.55 7.35L25.6 7.35L25.65 7.35L25.75 7.4L25.8 7.4L26.1 7.5L26.15 7.5L26.25 7.5L26.3 7.5M24.85,7.25L24.4 7L24.25 6.9L23.85 6.6L23.7 6.45L23.75 6.35L23.8 6.3L23.9 5.85L23.9 5.7L23.9 5.65L23.8 5.7Q23.6 5.8 23.5 5.95L23.45 5.95L23.4 6.05L23.35 6L22.6 5.1L22.65 5.05L22.7 5.05L23.1 4.85L23 5L23.1 5.25L23.35 5.1L24.05 5.7L24.05 5.75L24.3 5.9L24.35 6L24.35 6.05L24.35 6.15L24.35 6.55L24.45 6.55L24.5 6.5L24.6 6.7L25 7L24.9 7.15L24.85 7.25M25.5,6.95L25.35 6.85L25.25 6.8L25.2 6.75L25 6.6L24.6 6.35L24.65 6.25L24.7 6.25L24.95 6.45L25.15 6.55L25.55 6.8L25.5 6.95M26.3,7.2L26.3 7.25L26.1 7.2L26.05 7.15L26 7.15L25.8 7.05L25.85 6.95L25.9 6.95L26.1 7.05L26.3 7.1L26.3 7.2" />
<path style="fill:#FEB74E;fill-opacity:1" d="M29.1,0.2L29.2 0.2L29.15 0.3L29 0.55L28.85 0.2L29.1 0.2M28.7,0.55L28.65 0.55L28.45 0.6L28.4 0.6L28.45 0.35L28.45 0.3L28.45 0.2L28.55 0.2L28.6 0.2L28.7 0.25L28.7 0.35L28.7 0.55M27.7,0.2L27.75 0.2L27.85 0.2L27.95 0.2L27.9 0.3L27.85 0.35L27.7 0.55L27.55 0.2L27.7 0.2M11.2,0.2L11.05 0.55L10.9 0.35L10.85 0.3L10.8 0.2L10.9 0.2L11 0.2L11.05 0.2L11.2 0.2M10.05,0.35L10.05 0.25L10.15 0.2L10.2 0.2L10.3 0.2L10.3 0.3L10.3 0.35L10.35 0.6L10.3 0.6L10.1 0.55L10.05 0.55L10.05 0.35M9.9,0.2L9.75 0.55L9.6 0.3L9.55 0.2L9.65 0.2L9.9 0.2" />
<linearGradient
id="LinearGradID_4628" gradientUnits="userSpaceOnUse" gradientTransform="matrix(-0.00294495, 0, 0, 0.000366211, 26.5, 0.5)" spreadMethod ="pad" x1="-819.2" y1="0" x2="819.2" y2="0" >
<stop  offset="0" style="stop-color:#BC8F58;stop-opacity:1" />
<stop  offset="0.54902" style="stop-color:#E3C9B0;stop-opacity:1" />
<stop  offset="0.980392" style="stop-color:#916443;stop-opacity:1" />
</linearGradient>
<path style="fill:url(#LinearGradID_4628) " d="M28.7,0.35L28.75 0.35L28.95 0.4L28.85 0.5L28.7 0.55L28.7 0.35M28.2,0.6L28.1 0.6L27.95 0.6L27.9 0.55L27.9 0.5L27.8 0.6L27.75 0.6L27.65 0.6L27.4 0.65L27.2 0.65L27.2 0.55L27.3 0.55L27.45 0.45L27.45 0.4L27.35 0.35L27.25 0.3L27.05 0.3L26.9 0.3L26.7 0.3L26.55 0.3L26.5 0.3L26.5 0.25L26.65 0.25L26.85 0.25L27 0.25L27.3 0.2L27.35 0.2L27.45 0.2L27.55 0.2L27.7 0.55L27.85 0.35L27.9 0.3L27.95 0.2L28.05 0.25L28.35 0.25L28.45 0.3L28.45 0.35L28.4 0.6L28.2 0.6M25.45,0.55L25.7 0.6L25.85 0.6L25.95 0.6L26.65 0.6L26.75 0.6L26.75 0.65L26.55 0.65L26.5 0.65L26.4 0.65L26.35 0.65L26.2 0.7L25.9 0.7L25.8 0.7L25.5 0.75L25.45 0.55M24.7,0.8L24.6 0.65L24.5 0.65L24.5 0.75L24.2 0.75L24.15 0.7L24.1 0.7L25.1 0.4L25.25 0.4L25.5 0.35L25.6 0.35L25.85 0.3L26.05 0.3L26.05 0.35L26.1 0.4L25.95 0.4L25.7 0.45L25.6 0.5L25.4 0.5L25.35 0.4L25.25 0.4L25.2 0.75L25.15 0.75L25.1 0.75L25 0.8L24.9 0.8L24.7 0.8" />
<path style="fill:#FEC167;fill-opacity:1" d="M26.05,0.35L26.05 0.3L26.15 0.3L26.2 0.3L26.45 0.25L26.5 0.25L26.5 0.3L26.5 0.35L26.25 0.35L26.2 0.35L26.1 0.4L26.05 0.35M26.75,0.6L27.2 0.55L27.2 0.65L27 0.65L26.8 0.65L26.75 0.65L26.75 0.6M27.8,0.6L27.9 0.5L27.9 0.55L27.95 0.6L27.8 0.6M25.25,0.4L25.35 0.4L25.4 0.5L25.35 0.55L25.45 0.55L25.5 0.75L25.2 0.75L25.25 0.4M12.25,0.25L12.35 0.25L12.55 0.3L12.6 0.3L12.7 0.3L12.7 0.35L12.65 0.4L12.55 0.35L12.5 0.35L12.3 0.35L12.25 0.3L12.25 0.25M13.3,0.75L13.35 0.55L13.4 0.55L13.35 0.5L13.4 0.4L13.5 0.4L13.6 0.75L13.3 0.75M11.95,0.65L11.75 0.65L11.6 0.65L11.55 0.65L11.55 0.55L12 0.6L12 0.65L11.95 0.65M10.8,0.6L10.85 0.55L10.85 0.5L10.95 0.6L10.8 0.6" />
<path style="fill:#654E2F;fill-opacity:1" d="M27.2,0.7L27.2 0.65L27.4 0.65L27.65 0.6L27.75 0.6L27.8 0.6L27.8 0.65L27.75 0.7L27.75 0.75L27.2 0.8L27.2 0.7M26.7,0.8L25.8 0.85L25.5 0.85L25.5 0.75L25.8 0.7L25.9 0.7L26.2 0.7L26.35 0.65L26.4 0.65L26.5 0.65L26.55 0.65L26.75 0.65L26.7 0.8M28.25,0.7L28.15 0.7L28.1 0.75L27.95 0.75L27.95 0.7L27.95 0.6L28.1 0.6L28.2 0.6L28.4 0.6L28.45 0.6L28.4 0.65L28.35 0.65L28.25 0.7M25.1,0.8L24.9 0.8L25 0.8L25.1 0.75L25.15 0.75L25.15 0.8L25.1 0.8M13.65,0.8L13.6 0.8L13.6 0.75L13.65 0.75L13.75 0.8L13.9 0.8L13.65 0.8M12,0.65L12.25 0.65L12.3 0.65L12.35 0.65L12.4 0.65L12.55 0.7L12.85 0.7L12.95 0.7L13.3 0.75L13.25 0.85L12.95 0.85L12.05 0.8L12 0.65M11,0.7L10.95 0.65L10.95 0.6L11.1 0.6L11.35 0.65L11.55 0.65L11.55 0.7L11.55 0.8L11 0.75L11 0.7M10.7,0.75L10.6 0.7L10.5 0.7L10.4 0.65L10.35 0.65L10.3 0.6L10.35 0.6L10.55 0.6L10.7 0.6L10.8 0.6L10.8 0.7L10.8 0.75L10.7 0.75" />
<linearGradient
id="LinearGradID_4629" gradientUnits="userSpaceOnUse" gradientTransform="matrix(-0.00128174, 0, 0, 0.000183105, 26.4, 0.45)" spreadMethod ="pad" x1="-819.2" y1="0" x2="819.2" y2="0" >
<stop  offset="0" style="stop-color:#D0AD85;stop-opacity:1" />
<stop  offset="0.533333" style="stop-color:#FFFFFF;stop-opacity:1" />
<stop  offset="0.980392" style="stop-color:#BC997C;stop-opacity:1" />
</linearGradient>
<path style="fill:url(#LinearGradID_4629) " d="M25.35,0.55L25.4 0.5L25.6 0.5L25.7 0.45L25.95 0.4L26.1 0.4L26.2 0.35L26.25 0.35L26.5 0.35L26.5 0.3L26.55 0.3L26.7 0.3L26.9 0.3L27.05 0.3L27.25 0.3L27.35 0.35L27.45 0.4L27.45 0.45L27.3 0.55L27.2 0.55L26.75 0.6L26.65 0.6L25.95 0.6L25.85 0.6L25.7 0.6L25.45 0.55L25.35 0.55" />
<linearGradient
id="LinearGradID_4630" gradientUnits="userSpaceOnUse" gradientTransform="matrix(-0.00250244, 0, 0, 0.00141907, 23.75, 1.95)" spreadMethod ="pad" x1="-819.2" y1="0" x2="819.2" y2="0" >
<stop  offset="0" style="stop-color:#533920;stop-opacity:1" />
<stop  offset="1" style="stop-color:#291F16;stop-opacity:1" />
</linearGradient>
<path style="fill:url(#LinearGradID_4630) " d="M25.8,0.85L25.5 0.85L25.8 0.85M24.75,0.8L25.1 0.8L25.15 0.8L25.15 0.9L24.75 0.95L24.7 0.8L24.75 0.8M23.15,1.1L23.3 1.05L23.45 1L23.55 1L23.6 0.95L24 0.9L24.1 0.9L24.35 0.85L24.4 0.85L24.5 0.85L24.45 0.9L24.45 0.95L23.2 1.2L23.2 1.15L23.15 1.1M22.25,1.4L22.25 1.35L22.3 1.35L22.45 1.3L22.5 1.3L22.6 1.25L22.65 1.2L22.75 1.2L22.9 1.15L22.85 1.3L22.35 1.5L22.25 1.4M21.9,1.8L21.8 1.75L22 1.55L22.05 1.7L21.95 1.85L21.9 1.8M22,2.95L21.85 2.75L21.8 2.7L21.8 2.6L21.7 2.25L21.7 2.1L21.7 2.05L21.85 2.15L22 2.9L22 2.95" />
<linearGradient
id="LinearGradID_4631" gradientUnits="userSpaceOnUse" gradientTransform="matrix(0.00111389, -0.000213623, -7.62939e-005, -0.000213623, 24.2, 0.75)" spreadMethod ="pad" x1="-819.2" y1="0" x2="819.2" y2="0" >
<stop  offset="0" style="stop-color:#5B3822;stop-opacity:1" />
<stop  offset="0.854902" style="stop-color:#966C3C;stop-opacity:1" />
<stop  offset="0.980392" style="stop-color:#A98052;stop-opacity:1" />
</linearGradient>
<path style="fill:url(#LinearGradID_4631) " d="M24.1,0.7L24.15 0.7L24.2 0.75L24.5 0.75L24.5 0.8L23.25 0.75L23.3 0.75L23.4 0.7L23.45 0.7L23.7 0.65L23.75 0.65L23.9 0.6L24 0.6L24.1 0.55L24.15 0.55L24.2 0.55L24.35 0.55L24.55 0.5L24.65 0.5L24.75 0.45L24.85 0.45L24.9 0.45L25.1 0.4L24.1 0.7M24.9,0.8L24.75 0.8L24.7 0.8L24.9 0.8" />
<path style="fill:#FDA92D;fill-opacity:1" d="M24.5,0.8L24.5 0.75L24.5 0.65L24.6 0.65L24.7 0.8L24.5 0.8M14.05,0.8L14.15 0.65L14.25 0.65L14.25 0.75L14.25 0.8L14.05 0.8" />
<linearGradient
id="LinearGradID_4632" gradientUnits="userSpaceOnUse" gradientTransform="matrix(0.000579834, 0.00202942, 0.0012207, -0.000167847, 21.85, 2.85)" spreadMethod ="pad" x1="-819.2" y1="0" x2="819.2" y2="0" >
<stop  offset="0" style="stop-color:#342522;stop-opacity:1" />
<stop  offset="1" style="stop-color:#040000;stop-opacity:1" />
</linearGradient>
<path style="fill:url(#LinearGradID_4632) " d="M22.7,5.05L22.9 4.6L22.9 4.5L22.9 4.45L22.8 4.5L22.45 4.75L22.4 4.8L22.35 4.85L22 4.4L22.05 4.4L22.1 4.35L22.2 4.05L22.15 3.85L21.8 4.05L21.8 4.1L21.3 3.5L21.25 3.4L21.5 2.95L21.5 2.9L21.6 2.7L21.6 2.6L21.65 2.5L21.7 2.35L21.55 2.4L21.5 2.45L21.4 2.5L21.2 2.65L20.9 2.85L20.85 2.85L20.7 2.15L20.7 2.1L20.7 1.9L20.7 1.75L20.7 1.6L20.75 1.55L20.85 1.3L20.9 1.2L21.2 0.85L21.45 1.15L21.45 1.1L21.35 0.75L21.35 0.7L21.4 0.7L21.5 0.6L21.6 0.55L21.65 0.55L21.65 0.5L21.85 0.7L22.05 0.9L22.15 0.95L22.5 1.3L22.45 1.3L22.3 1.35L22.25 1.35L22.25 1.4L22 1.15L21.95 1.25L22 1.4L22 1.55L21.8 1.75L21.65 1.75L21.3 1.75L21.45 1.85L21.7 2.05L21.7 2.1L21.7 2.25L21.8 2.6L21.8 2.7L21.85 2.75L22 2.95L21.95 3L21.75 3.25L21.75 3.45L21.9 3.4L22.15 3.25L22.6 3.9L22.55 4.05L22.55 4.25L22.65 4.2L22.75 4.15L23.15 4.65L23.15 4.75L23.1 4.85L22.7 5.05" />
<radialGradient
id="RadialGradID_4633" gradientUnits="userSpaceOnUse" gradientTransform="matrix(0.00468445, 0, 0, 0.00328064, 20.1, 2.55)" spreadMethod ="pad" cx="0" cy="0" r="819.2" fx="0" fy="0" >
<stop  offset="0"  style="stop-color:#845A40;stop-opacity:1" />
<stop  offset="0.752941"  style="stop-color:#000000;stop-opacity:1" />
</radialGradient>
<path style="fill:url(#RadialGradID_4633) " d="M17.4,0.7L21.4 0.7L21.35 0.7L21.2 0.85L20.9 1.2L20.85 1.3L20.75 1.55L20.7 1.6L20.7 1.75L20.7 1.9L20.7 2.1L20.7 2.15L20.85 2.85L20.95 3.05L21 3.1Q20.35 2.65 19.4 2.65L18.5 2.7L18.3 2.75L17.95 2.9L17.9 2.9L17.9 2.85L18.1 2.15L18.1 2.1L18.1 1.9L18.1 1.75L18.05 1.6L18.05 1.55L17.95 1.3L17.9 1.2L17.55 0.85L17.4 0.7M20.4,1.05L18.5 1.05L18.5 2.3L20.4 2.3L20.4 1.05" />
<radialGradient
id="RadialGradID_4634" gradientUnits="userSpaceOnUse" gradientTransform="matrix(0.00260925, 0, 0, 0.00183105, 20.05, 2.05)" spreadMethod ="pad" cx="0" cy="0" r="819.2" fx="0" fy="0" >
<stop  offset="0"  style="stop-color:#8D7654;stop-opacity:1" />
<stop  offset="0.752941"  style="stop-color:#271C0A;stop-opacity:1" />
</radialGradient>
<path style="fill:url(#RadialGradID_4634) " d="M20.4,2.3L18.5 2.3L18.5 1.05L20.4 1.05L20.4 2.3" />
<path style="fill:#000000;fill-opacity:1" d="M18,2.95L17.95 2.9L18.3 2.75L18.5 2.7L19.4 2.65Q20.35 2.65 21 3.1L21.15 3.3L21.25 3.4L21.3 3.5L21.25 3.45Q20.55 2.8 19.4 2.8L19.25 2.8L18.35 2.9L18.3 2.9L18.05 3L18 2.95M17.55,3.4L17.55 3.45L17.45 3.5L17.55 3.4" />
<path style="fill:#0F0A07;fill-opacity:1" d="M23.2,4.75L23.25 4.75L23.25 4.8L23.2 4.75M24.3,5.9L24.05 5.75L24.05 5.7L23.35 5.1L23.45 5L23.8 5.35L24.1 5.7L24.3 5.9M14.75,5.7L14.7 5.75L14.5 5.9L14.65 5.7L14.95 5.35L15.35 5L15.45 5.1L14.75 5.7" />
<linearGradient
id="LinearGradID_4635" gradientUnits="userSpaceOnUse" gradientTransform="matrix(0.00128174, 0.000900269, 0.000442505, -0.000305176, 25.6, 6.95)" spreadMethod ="pad" x1="-819.2" y1="0" x2="819.2" y2="0" >
<stop  offset="0" style="stop-color:#2B1B12;stop-opacity:1" />
<stop  offset="0.00392157" style="stop-color:#291A11;stop-opacity:1" />
<stop  offset="0.490196" style="stop-color:#8C5037;stop-opacity:1" />
<stop  offset="1" style="stop-color:#543421;stop-opacity:1" />
</linearGradient>
<path style="fill:url(#LinearGradID_4635) " d="M24.6,6.7L24.5 6.5L24.6 6.35L25 6.6L25.2 6.75L25.1 6.85L25 7L24.6 6.7M25.55,7.1L25.55 7.15L25.55 7.35L25.5 7.3L25.4 7.25L25.25 7.2L25.25 6.8L25.35 6.85L25.5 6.95L25.55 7.1M26.75,7.35L26.8 7.4L27 7.45L27.05 7.45L27 7.45L26.8 7.55L26.7 7.55L26.65 7.55L26.75 7.35M26.25,7.5L26.15 7.5L26.1 7.5L25.8 7.4L25.75 7.4L25.65 7.35L25.7 7.3L25.8 7.05L26 7.15L26.05 7.15L26.1 7.2L26.3 7.25L26.3 7.35L26.3 7.45L26.3 7.5L26.25 7.5" />
<linearGradient
id="LinearGradID_4636" gradientUnits="userSpaceOnUse" gradientTransform="matrix(-0.000579834, 0.00202942, -0.0012207, -0.000167847, 16.9, 2.85)" spreadMethod ="pad" x1="-819.2" y1="0" x2="819.2" y2="0" >
<stop  offset="0" style="stop-color:#342522;stop-opacity:1" />
<stop  offset="1" style="stop-color:#040000;stop-opacity:1" />
</linearGradient>
<path style="fill:url(#LinearGradID_4636) " d="M16.95,4.05L16.6 3.85L16.55 4.05L16.7 4.35L16.75 4.4L16.4 4.85L16.35 4.8L16.35 4.75L15.95 4.5L15.9 4.45L15.85 4.45L15.85 4.5L15.85 4.6L16.1 5.05L15.7 4.85L15.65 4.75L15.6 4.65L16.05 4.15L16.1 4.2L16.2 4.25L16.2 4.05L16.2 3.9L16.6 3.25L16.85 3.4L16.9 3.4L17.05 3.45L17.05 3.25L17 3.25L16.85 3L16.8 2.95L16.9 2.75L16.95 2.7L17 2.6L17.1 2.25L17.1 2.1L17.1 2.05L17.35 1.85L17.5 1.75L17.1 1.75L17 1.75L16.75 1.55L16.8 1.4L16.8 1.25L16.75 1.15L16.55 1.4L16.5 1.35L16.45 1.35L16.35 1.3L16.3 1.3L16.65 0.95L16.7 0.9L16.95 0.7L17.1 0.5L17.15 0.55L17.25 0.6L17.4 0.7L17.4 0.75L17.3 1.1L17.3 1.15L17.55 0.85L17.9 1.2L17.95 1.3L18.05 1.55L18.05 1.6L18.1 1.75L18.1 1.9L18.1 2.1L18.1 2.15L17.9 2.85L17.85 2.85L17.6 2.65L17.4 2.5L17.3 2.45L17.2 2.4L17.1 2.35L17.1 2.5L17.15 2.6L17.2 2.7L17.25 2.9L17.3 2.95L17.5 3.4L17.55 3.4L17.45 3.5L17 4.1L16.95 4.05" />
<linearGradient
id="LinearGradID_4637" gradientUnits="userSpaceOnUse" gradientTransform="matrix(0.00735474, 0, 0, 0.000778198, 11.05, 0.65)" spreadMethod ="pad" x1="-819.2" y1="0" x2="819.2" y2="0" >
<stop  offset="0" style="stop-color:#443D37;stop-opacity:1" />
<stop  offset="0.964706" style="stop-color:#3E2A23;stop-opacity:1" />
</linearGradient>
<path style="fill:url(#LinearGradID_4637) " d="M5.2,0.65L5.15 0.55L5.1 0.4L5.1 0.35L5.05 0.25L5.05 0.2L5.1 0.2L5.2 0.2L5.3 0.2L5.35 0.2L5.5 0.2L5.5 0.15L5.5 0.25L5.65 0.65L5.7 0.7L5.7 0.6L5.8 0.15L6.15 0.15L6.25 0.15L6.45 0.1L6.5 0.1L6.5 0.25L6.55 0.4L6.35 0.45L6.15 0.45L6.1 0.45L6.05 0.5L6 0.5L6 0.7L5.95 0.75L5.55 0.75L5.25 0.8L5.2 0.65M6.85,0.1L6.9 0.1L6.95 0.1L7.05 0.1L7.1 0.35L6.8 0.4L6.8 0.3L6.8 0.25L6.8 0.2L6.85 0.1M7.35,0.1L7.55 0.05L7.6 0.05L7.75 0.05L7.85 0.05L8.2 0.05L8.2 0.1L8.2 0.25L8.05 0.25L7.6 0.3L7.55 0.3L7.5 0.3L7.45 0.3L7.35 0.3L7.3 0.35L7.35 0.1M8.7,0.05L9.55 0L9.55 0.05L9.55 0.2L9.45 0.2L8.65 0.2L8.7 0.05M9.95,0L10.35 0L10.65 0L10.8 0L10.8 0.1L10.8 0.2L10.75 0.2L10.45 0.2L10.3 0.2L10.2 0.2L10.15 0.2L9.9 0.2L9.9 0.15L9.95 0M11.3,0L11.5 0L11.55 0L11.6 0L11.65 0.05L11.9 0.05L12.1 0.05L12.25 0.05L12.25 0.25L12.1 0.25L11.9 0.25L11.75 0.25L11.45 0.2L11.4 0.2L11.3 0.2L11.2 0.2L11.3 0M12.8,0.05L13.15 0.05L13.4 0.1L13.5 0.1L14.2 0.1L14.3 0.15L14.5 0.15L14.55 0.15L14.6 0.55L14.55 0.55L14.45 0.55L14.2 0.5L14.1 0.5L14 0.45L13.9 0.45L13.65 0.4L13.55 0.4L13.25 0.35L13.15 0.35L12.9 0.3L12.7 0.3L12.8 0.1L12.8 0.05M15.05,0.65L15 0.65L14.85 0.6L14.75 0.6L14.95 0.2L15 0.15L15.2 0.2L15.35 0.2L15.4 0.2L15.35 0.55L15.35 0.7L15.05 0.65M14.25,0.8L15.5 0.75L15.7 0.55L15.7 0.5L15.8 0.25L16 0.25L16.2 0.3L16.3 0.3L16.55 0.35L16.55 0.55L16.55 0.65L16.55 0.7L16.45 0.85L16.45 1L16.95 0.45L17.05 0.5L17.1 0.5L16.95 0.7L16.7 0.9L16.65 0.95L16.3 1.3L16.15 1.25L16.1 1.2L16 1.2L15.9 1.15L15.85 0.85L15.75 0.85L15.65 1.1L15.5 1.05L15.35 1L15.25 1L15.15 0.95L14.8 0.9L14.65 0.9L14.45 0.85L14.35 0.85L14.3 0.85L14.15 0.8L14.05 0.8L14.25 0.8M6.6,0.6L6.75 0.65L6.85 0.65L6.75 0.65L6.6 0.7M6.6,0.7L6.5 0.7L6.35 0.7L6.2 0.7L6.15 0.7L6.1 0.55L6.1 0.5L6.15 0.55L6.25 0.55L6.45 0.6L6.55 0.6L6.6 0.6" />
<linearGradient
id="LinearGradID_4638" gradientUnits="userSpaceOnUse" gradientTransform="matrix(0.0025177, 0, 0, 0.00141907, 15, 1.95)" spreadMethod ="pad" x1="-819.2" y1="0" x2="819.2" y2="0" >
<stop  offset="0" style="stop-color:#533920;stop-opacity:1" />
<stop  offset="1" style="stop-color:#291F16;stop-opacity:1" />
</linearGradient>
<path style="fill:url(#LinearGradID_4638) " d="M15.9,1.3L15.9 1.15L16 1.2L16.1 1.2L16.15 1.25L16.3 1.3L16.35 1.3L16.45 1.35L16.5 1.35L16.55 1.4L16.45 1.5L15.9 1.3M16.7,1.7L16.75 1.55L17 1.75L16.85 1.8L16.85 1.85L16.7 1.7M14.3,0.95L14.3 0.9L14.3 0.85L14.35 0.85L14.45 0.85L14.65 0.9L14.8 0.9L15.15 0.95L15.25 1L15.35 1L15.5 1.05L15.65 1.1L15.6 1.15L15.55 1.2L14.3 0.95M16.95,2.15L17.1 2.05L17.1 2.1L17.1 2.25L17 2.6L16.95 2.7L16.9 2.75L16.8 2.95L16.75 2.9L16.95 2.15M13.6,0.9L13.6 0.8L13.65 0.8L14 0.8L14.05 0.8L14.05 0.95L13.6 0.9M13.25,0.85L12.95 0.85L13.25 0.85" />
<linearGradient
id="LinearGradID_4639" gradientUnits="userSpaceOnUse" gradientTransform="matrix(-0.00112915, -0.000213623, 7.62939e-005, -0.000213623, 14.5, 0.75)" spreadMethod ="pad" x1="-819.2" y1="0" x2="819.2" y2="0" >
<stop  offset="0" style="stop-color:#5B3822;stop-opacity:1" />
<stop  offset="0.854902" style="stop-color:#966C3C;stop-opacity:1" />
<stop  offset="0.980392" style="stop-color:#A98052;stop-opacity:1" />
</linearGradient>
<path style="fill:url(#LinearGradID_4639) " d="M14.6,0.55L14.65 0.55L14.75 0.6L14.85 0.6L15 0.65L15.05 0.65L15.35 0.7L15.4 0.7L15.5 0.75L14.25 0.8L14.25 0.75L14.6 0.75L14.6 0.7L14.65 0.7L13.65 0.4L13.9 0.45L14 0.45L14.1 0.5L14.2 0.5L14.45 0.55L14.55 0.55L14.6 0.55M13.9,0.8L14.05 0.8L14 0.8L13.9 0.8" />
<radialGradient
id="RadialGradID_4640" gradientUnits="userSpaceOnUse" gradientTransform="matrix(0.0114288, 0, 0, 0.00799561, 10.2, 4.45)" spreadMethod ="pad" cx="0" cy="0" r="819.2" fx="0" fy="0" >
<stop  offset="0"  style="stop-color:#FBEDE1;stop-opacity:0.392157" />
<stop  offset="1"  style="stop-color:#EBBA72;stop-opacity:0.501961" />
</radialGradient>
<path style="fill:url(#RadialGradID_4640) " d="M14.35,5.9L14 6.15L13.2 6.6L12.9 6.75L12.45 6.95L11.95 7.05L11.6 7.15L11.3 7.2L10.5 7.25L10.05 7.3L9.3 7.35L9 7.35L8 7.4L7.7 7.4L7.45 7.4L7.25 7.4L6.65 7.4L6.45 7.4L5.8 7.4L5.45 7.35L5.15 7.35L4.85 7.35L4.6 7.3L4.25 7.3L3.9 7.25L2.75 7L2.6 6.95L1.9 6.55L1.7 6.3L1.35 5.7L1.25 5.35L1.15 4.1L1.15 3.85L1.15 3.4L1.15 3.3L1.3 2.6L2.5 1.55L2.7 1.5L4.5 1.05L4.85 1L5.1 0.95L5.3 0.95L5.35 0.95L6 0.85L6.2 0.85L6.65 0.85L7.6 0.8L7.8 0.8L8 0.8L8.95 0.75L9.2 0.75L10.05 0.75L10.45 0.75L10.8 0.75L11 0.75L11.55 0.8L12.05 0.8L12.95 0.85L13.25 0.85L13.6 0.9L14.05 0.95L14.3 0.95L15.55 1.2L15.9 1.3L16.45 1.5L16.7 1.7L16.85 1.85L16.95 2.15L16.75 2.9L16.65 3.15L16.6 3.25L16.2 3.9L16.05 4.15L15.6 4.65L15.35 5L14.95 5.35L14.35 5.9" />
<linearGradient
id="LinearGradID_4641" gradientUnits="userSpaceOnUse" gradientTransform="matrix(0.00544739, 0, 0, 0.00195313, 11.7, 6.4)" spreadMethod ="pad" x1="-819.2" y1="0" x2="819.2" y2="0" >
<stop  offset="0" style="stop-color:#1B1610;stop-opacity:1" />
<stop  offset="0.490196" style="stop-color:#563522;stop-opacity:1" />
<stop  offset="1" style="stop-color:#100B08;stop-opacity:1" />
</linearGradient>
<path style="fill:url(#LinearGradID_4641) " d="M14.5,5.9L14.7 5.75L14.75 5.7L15.45 5.1L15.7 5.25L15.75 5L15.7 4.85L16.1 5.05L16.15 5.1L15.45 6L15.4 6.05L15.35 6.05L15.3 5.95L14.95 5.7L14.9 5.65L14.85 5.7L14.85 5.85L15 6.3L15 6.35L15.05 6.45L14.9 6.6L14.5 6.9L14.4 7L13.9 7.25L13.85 7.15L13.75 7L14.15 6.7L14.3 6.5L14.3 6.55L14.45 6.55L14.45 6.15L14.4 6.05L14.4 6L14.5 5.9M13.5,7.35L13.65 7.4L12.95 7.65L12.8 7.7L12.75 7.7L12.45 7.75L12.45 7.5L12.5 7.5L12.6 7.5L12.65 7.5L13 7.4L13.1 7.35L13.15 7.35L13.2 7.35L13.25 7.3L13.3 7.3L13.4 7.25L13.5 7.2L13.5 7.35M12.2,7.65L12.25 7.7L12.3 7.8L12.15 7.8L12.05 7.8L11.9 7.85L11.85 7.85L11.8 7.85L11.4 7.9L11.2 7.9L11.15 7.9L11 7.45L10.95 7.4L11.05 7.4L11.4 7.35L11.5 7.5L11.6 7.6L11.6 7.65L11.6 7.4L11.6 7.35L11.7 7.3L11.85 7.3L11.9 7.3L11.95 7.25L11.95 7.3L12 7.35L12 7.4L11.95 7.4L11.8 7.45L11.75 7.45L11.95 7.55L12.05 7.55L12.15 7.55L12.2 7.65M7.7,7.4L8 7.4L8.3 7.4L8.35 7.45L8.4 7.45L8.55 7.45L9 7.45L9.05 7.45L9.1 7.65L9.15 7.8L9.2 7.8L9.25 7.7L9.25 7.45L9.45 7.45L9.55 7.45L9.6 7.45L9.9 7.45L10.05 7.45L10.1 7.45L10.15 7.45L10.15 7.5L10.4 7.85L10.5 7.4L10.85 7.4L10.8 7.45L10.8 7.6L10.7 7.95L10.55 7.95L10.35 7.95L9.9 8L9.85 7.85L9.85 7.8L9.75 7.5L9.6 7.5L9.55 8L9.5 8L9.2 8L9 8L8.95 8L8.85 7.9L8.8 7.7L8.8 7.65L8.65 7.5L8.5 7.55L8.5 8.05L8.2 8.05L8.2 7.9L8.1 7.8L8.05 7.75L7.9 7.7L7.8 7.9L7.85 8.05L7.3 8L7.25 7.8L7.25 7.5L7.25 7.4L7.45 7.4L7.45 7.5L7.6 7.75L7.7 7.4M13.25,6.8L13.6 6.55L13.8 6.45L14.05 6.25L14.1 6.25L14.15 6.35Q14 6.4 13.75 6.6L13.55 6.75L13.5 6.8L13.4 6.85L13.25 6.95L13.25 6.8M12.5,7.1L12.65 7.05L12.85 6.95L12.9 6.95L12.95 7.05L12.75 7.15L12.7 7.15L12.65 7.2L12.5 7.25L12.5 7.2L12.5 7.1" />
<linearGradient
id="LinearGradID_4642" gradientUnits="userSpaceOnUse" gradientTransform="matrix(0.00294495, 0, 0, 0.000366211, 12.2, 0.5)" spreadMethod ="pad" x1="-819.2" y1="0" x2="819.2" y2="0" >
<stop  offset="0" style="stop-color:#BC8F58;stop-opacity:1" />
<stop  offset="0.54902" style="stop-color:#E3C9B0;stop-opacity:1" />
<stop  offset="0.980392" style="stop-color:#916443;stop-opacity:1" />
</linearGradient>
<path style="fill:url(#LinearGradID_4642) " d="M14.25,0.65L14.15 0.65L14.05 0.8L13.9 0.8L13.75 0.8L13.65 0.75L13.6 0.75L13.5 0.4L13.4 0.4L13.35 0.5L13.15 0.5L13.05 0.45L12.85 0.4L12.65 0.4L12.7 0.35L12.7 0.3L12.9 0.3L13.15 0.35L13.25 0.35L13.55 0.4L13.65 0.4L14.65 0.7L14.6 0.7L14.6 0.75L14.25 0.75L14.25 0.65M12.95,0.7L12.85 0.7L12.55 0.7L12.4 0.65L12.35 0.65L12.3 0.65L12.25 0.65L12 0.65L12 0.6L12.1 0.6L12.8 0.6L12.9 0.6L13.05 0.6L13.35 0.55L13.3 0.75L12.95 0.7M11.55,0.65L11.35 0.65L11.1 0.6L10.95 0.6L10.85 0.5L10.85 0.55L10.8 0.6L10.7 0.6L10.55 0.6L10.35 0.6L10.3 0.35L10.3 0.3L10.4 0.25L10.7 0.25L10.8 0.2L10.85 0.3L10.9 0.35L11.05 0.55L11.2 0.2L11.3 0.2L11.4 0.2L11.45 0.2L11.75 0.25L11.9 0.25L12.1 0.25L12.25 0.25L12.25 0.3L12.2 0.3L12.05 0.3L11.85 0.3L11.7 0.3L11.5 0.3L11.4 0.35L11.35 0.4L11.3 0.45L11.45 0.55L11.55 0.55L11.55 0.65M10.05,0.55L9.9 0.5L9.8 0.4L10.05 0.35L10.05 0.55" />
<linearGradient
id="LinearGradID_4643" gradientUnits="userSpaceOnUse" gradientTransform="matrix(0.00128174, 0, 0, 0.000183105, 12.35, 0.45)" spreadMethod ="pad" x1="-819.2" y1="0" x2="819.2" y2="0" >
<stop  offset="0" style="stop-color:#D0AD85;stop-opacity:1" />
<stop  offset="0.533333" style="stop-color:#FFFFFF;stop-opacity:1" />
<stop  offset="0.980392" style="stop-color:#BC997C;stop-opacity:1" />
</linearGradient>
<path style="fill:url(#LinearGradID_4643) " d="M11.55,0.55L11.45 0.55L11.3 0.45L11.35 0.4L11.4 0.35L11.5 0.3L11.7 0.3L11.85 0.3L12.05 0.3L12.2 0.3L12.25 0.3L12.3 0.35L12.5 0.35L12.55 0.35L12.65 0.4L12.85 0.4L13.05 0.45L13.15 0.5L13.35 0.5L13.4 0.55L13.35 0.55L13.05 0.6L12.9 0.6L12.8 0.6L12.1 0.6L12 0.6L11.55 0.55" />
<linearGradient
id="LinearGradID_4644" gradientUnits="userSpaceOnUse" gradientTransform="matrix(0.00114441, 0, 0, 0.000289917, 8.9, 0.4)" spreadMethod ="pad" x1="-819.2" y1="0" x2="819.2" y2="0" >
<stop  offset="0" style="stop-color:#5B3822;stop-opacity:1" />
<stop  offset="0.854902" style="stop-color:#966C3C;stop-opacity:1" />
<stop  offset="0.980392" style="stop-color:#A98052;stop-opacity:1" />
</linearGradient>
<path style="fill:url(#LinearGradID_4644) " d="M10.3,0.2L10.45 0.2L10.75 0.2L10.8 0.2L10.95 0.2L11 0.2L10.9 0.2L10.8 0.2L10.7 0.25L10.4 0.25L10.3 0.3L10.3 0.2M10.1,0.55L10.3 0.6L10.1 0.6L10.05 0.6L9.8 0.6L9.3 0.6L9.15 0.6L9.15 0.55L9.05 0.4L8.95 0.6L8.45 0.6L8.65 0.2L9.45 0.2L9.55 0.2L9.6 0.3L9.75 0.55L9.9 0.2L10.15 0.2L10.05 0.25L10.05 0.35L9.8 0.4L9.9 0.5L10.05 0.55L10.1 0.55M8,0.6L7.95 0.55L7.95 0.4L7.9 0.35L7.9 0.4L7.85 0.45L7.85 0.6L7.7 0.6L7.6 0.65L7.55 0.35L7.55 0.3L7.6 0.3L8.05 0.25L8.2 0.25L8.2 0.3L8.25 0.6L8 0.6M7.4,0.4L7.4 0.5L7.4 0.65L7.3 0.65L7.15 0.65L7.05 0.65L6.85 0.65L6.75 0.65L6.8 0.4L7.1 0.35L7.15 0.45L7.2 0.5L7.25 0.45L7.3 0.35L7.35 0.3L7.45 0.3L7.4 0.4M6,0.5L6.05 0.5L6.1 0.45L6.15 0.45L6.35 0.45L6.55 0.4L6.55 0.5L6.6 0.6L6.55 0.6L6.45 0.6L6.25 0.55L6.15 0.55L6.1 0.5L6 0.5" />
<linearGradient
id="LinearGradID_4645" gradientUnits="userSpaceOnUse" gradientTransform="matrix(-0.00140381, 0.000808716, -0.0010376, -0.00088501, 12.2, 6.15)" spreadMethod ="pad" x1="-819.2" y1="0" x2="819.2" y2="0" >
<stop  offset="0" style="stop-color:#532424;stop-opacity:1" />
<stop  offset="0.490196" style="stop-color:#563522;stop-opacity:1" />
<stop  offset="1" style="stop-color:#3E3C2D;stop-opacity:1" />
</linearGradient>
<path style="fill:url(#LinearGradID_4645) " d="M14.4,6L14.35 5.9L14.95 5.35L14.65 5.7L14.5 5.9L14.4 6M8,7.4L9 7.35L9 7.4L9.05 7.45L9 7.45L8.55 7.45L8.4 7.45L8.35 7.45L8.3 7.4L8 7.4M9.3,7.35L10.05 7.3L10.1 7.4L10.15 7.45L10.1 7.45L10.05 7.45L9.9 7.45L9.6 7.45L9.55 7.45L9.45 7.45L9.25 7.45L9.3 7.35M11.4,7.35L11.05 7.4L10.95 7.4L10.85 7.4L10.5 7.4L10.5 7.25L11.3 7.2L11.4 7.35M11.6,7.15L11.95 7.05L11.95 7.25L11.9 7.3L11.85 7.3L11.7 7.3L11.6 7.35L11.6 7.15M12.45,6.95L12.9 6.75L12.9 6.8L12.9 6.9L12.9 6.95L12.85 6.95L12.65 7.05L12.5 7.1L12.45 6.95M13.2,6.6L14 6.15L14.05 6.2L14.1 6.25L14.05 6.25L13.8 6.45L13.6 6.55L13.25 6.8L13.2 6.6" />
<linearGradient
id="LinearGradID_4646" gradientUnits="userSpaceOnUse" gradientTransform="matrix(-0.00128174, 0.000900269, -0.000442505, -0.000305176, 13.15, 6.95)" spreadMethod ="pad" x1="-819.2" y1="0" x2="819.2" y2="0" >
<stop  offset="0" style="stop-color:#2B1B12;stop-opacity:1" />
<stop  offset="0.00392157" style="stop-color:#291A11;stop-opacity:1" />
<stop  offset="0.490196" style="stop-color:#8C5037;stop-opacity:1" />
<stop  offset="1" style="stop-color:#543421;stop-opacity:1" />
</linearGradient>
<path style="fill:url(#LinearGradID_4646) " d="M13.55,6.75L13.75 6.6Q14 6.4 14.15 6.35L14.3 6.5L14.15 6.7L13.75 7L13.65 6.85L13.55 6.75M13.2,7.35L13.25 7.15L13.25 7.1L13.25 6.95L13.4 6.85L13.5 6.8L13.5 7.2L13.4 7.25L13.3 7.3L13.25 7.3L13.2 7.35M12.5,7.25L12.65 7.2L12.7 7.15L12.75 7.15L12.95 7.05L13.05 7.3L13.1 7.3L13.1 7.35L13 7.4L12.65 7.5L12.6 7.5L12.5 7.5L12.45 7.5L12.5 7.45L12.5 7.35L12.5 7.25M12.15,7.55L12.05 7.55L11.95 7.55L11.75 7.45L11.8 7.45L11.95 7.4L12 7.4L12 7.35L12.15 7.55" />
<linearGradient
id="LinearGradID_4647" gradientUnits="userSpaceOnUse" gradientTransform="matrix(0.00317383, 0, 0, 0.00198364, 2.65, 1.8)" spreadMethod ="pad" x1="-819.2" y1="0" x2="819.2" y2="0" >
<stop  offset="0" style="stop-color:#45463E;stop-opacity:1" />
<stop  offset="0.521569" style="stop-color:#010B02;stop-opacity:1" />
<stop  offset="0.964706" style="stop-color:#433C36;stop-opacity:1" />
</linearGradient>
<path style="fill:url(#LinearGradID_4647) " d="M4.7,0.25L4.75 0.25L5.05 0.2L5.05 0.25L5.1 0.35L5.1 0.4L5.15 0.55L5.2 0.65L5.25 0.8L5.2 0.8L5.1 0.8L5.05 0.8L4.95 0.85L4.8 0.75L4.75 0.75L4.7 0.65L4.65 0.5L4.55 0.35L4.45 0.6L4.45 0.75L4.25 0.75L3.2 0.95L3.2 0.55L3.2 0.5L3.25 0.5L3.55 0.45L3.65 0.45L3.85 0.4L4.05 0.7L4.1 0.7L4.15 0.35L4.7 0.25M3.15,0.95L2.95 1L2.85 1L2.8 1.05L2.7 1.05L2.25 1.2L2.25 1L2.25 0.9L2.25 0.8L2.45 0.7L2.5 0.7L2.6 0.7L2.9 0.6L3 0.75L3.05 0.8L3.15 0.9L3.2 0.95L3.15 0.95M1.4,1.6L1.35 1.65L1.25 1.7L1.25 1.75L1.1 1.9L1 2.1L0.95 2.15L0.85 2.35L0.8 2.55L0.6 2.6L0.7 3L0.8 3.05L0.8 3.1L0.85 3.15L0.85 3.45L0.8 3.45L0.5 3.25L0.45 3.25L0.25 3.15L0.1 3.15L0.1 3.1L0.15 2.9L0.2 2.7L0.35 2.25L0.4 2.3L0.5 2.35L0.55 2.3L0.5 2.15L0.45 2.05L0.7 1.7L0.85 1.8L1 1.9L1.05 1.9L1.1 1.55L1.1 1.5L1.05 1.3L1.65 1L1.65 1.05L1.85 1.25L1.9 1.3L1.95 1.35L1.85 1.4L1.7 1.45L1.45 1.6L1.4 1.6" />
<linearGradient
id="LinearGradID_4648" gradientUnits="userSpaceOnUse" gradientTransform="matrix(0.00270081, 0, 0, 0.00160217, 3.15, 2.1)" spreadMethod ="pad" x1="-819.2" y1="0" x2="819.2" y2="0" >
<stop  offset="0" style="stop-color:#36281F;stop-opacity:1" />
<stop  offset="1" style="stop-color:#2C2C2C;stop-opacity:1" />
</linearGradient>
<path style="fill:url(#LinearGradID_4648) " d="M5.25,0.8L5.35 0.95L5.3 0.95L5.2 0.8L5.25 0.8M4.85,0.95L4.8 0.85L4.95 0.85L5.05 0.8L5.1 0.8L5.1 0.85L5.1 0.95L4.85 1L4.85 0.95M4.5,1.05L2.7 1.5L2.6 1.3L2.75 1.25L2.95 1.2L3 1.2L3.9 1L4.4 0.9L4.45 0.9L4.5 1.05M1.7,1.75L2.1 1.55L2.2 1.5L2.3 1.45L2.5 1.35L2.5 1.45L2.5 1.5L2.5 1.55L1.3 2.6L1.15 2.55L1.05 2.55L1.1 2.4L1.4 2L1.45 1.95L1.65 1.8L1.7 1.75M1.1,3.4L0.95 3.25L1.1 3.3L1.15 3.3L1.15 3.4L1.1 3.4" />
<linearGradient
id="LinearGradID_4649" gradientUnits="userSpaceOnUse" gradientTransform="matrix(-0.00152588, 0.00187683, -0.00137329, -0.000549316, 2.6, 1.9)" spreadMethod ="pad" x1="-819.2" y1="0" x2="819.2" y2="0" >
<stop  offset="0" style="stop-color:#0D0F04;stop-opacity:1" />
<stop  offset="0.533333" style="stop-color:#64675C;stop-opacity:1" />
<stop  offset="0.980392" style="stop-color:#291C14;stop-opacity:1" />
</linearGradient>
<path style="fill:url(#LinearGradID_4649) " d="M4.95,0.85L4.8 0.85L4.75 0.8L4.75 0.75L4.8 0.75L4.95 0.85M2.25,1.2L2.7 1.05L2.8 1.05L2.85 1L2.95 1L3.15 0.95L3.2 0.95L4.25 0.75L4.45 0.75L4.45 0.85L4.45 0.9L4.4 0.9L3.9 1L3 1.2L2.95 1.2L2.75 1.25L2.6 1.3L2.6 1.35L2.5 1.35L2.3 1.45L2.2 1.5L2.1 1.55L1.7 1.75L1.55 1.65L1.5 1.65L1.45 1.6L1.7 1.45L1.85 1.4L1.95 1.35L2.05 1.3L2.25 1.2M0.8,2.55L0.85 2.35L0.95 2.15L1 2.1L1.1 1.9L1.25 1.75L1.25 1.7L1.35 1.65L1.35 1.75L1.35 1.85L1.4 2L1.1 2.4L1.05 2.55L1 2.55L0.8 2.55M0.9,3.2L0.95 3.25L0.95 3.3L0.9 3.2" />
<linearGradient
id="LinearGradID_4650" gradientUnits="userSpaceOnUse" gradientTransform="matrix(-0.000213623, -0.00205994, 0.000427246, -1.52588e-005, 1.3, 4.9)" spreadMethod ="pad" x1="-819.2" y1="0" x2="819.2" y2="0" >
<stop  offset="0" style="stop-color:#231010;stop-opacity:1" />
<stop  offset="0.415686" style="stop-color:#635C56;stop-opacity:1" />
<stop  offset="1" style="stop-color:#54564B;stop-opacity:1" />
</linearGradient>
<path style="fill:url(#LinearGradID_4650) " d="M1,3.8L0.9 3.8L0.9 3.75L0.9 3.6L0.95 3.45L0.95 3.3L0.95 3.25L1.1 3.4L1.15 3.4L1.15 3.85L1 3.8M1.05,5.45L1 5.25L1 5.05L1 4.95L1 4.9L0.95 4.75L0.95 4.1L1.15 4.1L1.25 5.35L1.05 5.45M1.6,6.5L1.55 6.45L1.5 6.4L1.45 6.3L1.25 5.9L1.15 5.7L1.35 5.7L1.7 6.3L1.6 6.5" />
<linearGradient
id="LinearGradID_4651" gradientUnits="userSpaceOnUse" gradientTransform="matrix(0.000411987, 0.00144958, -0.000686646, 9.15527e-005, 0.7, 5.15)" spreadMethod ="pad" x1="-819.2" y1="0" x2="819.2" y2="0" >
<stop  offset="0" style="stop-color:#383A32;stop-opacity:1" />
<stop  offset="1" style="stop-color:#532424;stop-opacity:1" />
</linearGradient>
<path style="fill:url(#LinearGradID_4651) " d="M1,6.75L1 6.35L1 6.25L1 6.05Q0.85 6.05 0.55 6.3L0.45 6.05L0.4 6L0.55 5.7L0.6 5.6L0.5 5.6L0.5 5.65L0.3 5.75L0.3 5.7L0.2 5.35L0.3 5.25L0.85 4.95L0.85 5.1L0.85 5.25L0.9 5.35L0.9 5.5L0.95 5.55L1 5.7L1.15 6.05L1.4 6.35L1.45 6.4L1.55 6.5L1.6 6.55L1.5 6.7L1.6 6.7L1.45 6.85L1.35 6.95L1.35 6.75L1.35 6.65L1.15 6.95L1.1 6.9L0.95 6.75L1 6.75M0.8,3.45L0.85 3.45L0.8 3.85L0.75 3.9L0.55 4.05L0.55 4.15L0.75 4.15L0.8 4.65L0.4 4.6L0.35 4.6L0.3 4.6L0.2 4.65L0.05 4.7L0.05 4.6L0 4.1L0 4.05L0 4L0 3.85L0 3.8L0.8 3.45" />
<linearGradient
id="LinearGradID_4652" gradientUnits="userSpaceOnUse" gradientTransform="matrix(0, -0.00193787, 0.000564575, 0, 1.2, 5)" spreadMethod ="pad" x1="-819.2" y1="0" x2="819.2" y2="0" >
<stop  offset="0" style="stop-color:#231010;stop-opacity:1" />
<stop  offset="1" style="stop-color:#54564B;stop-opacity:1" />
</linearGradient>
<path style="fill:url(#LinearGradID_4652) " d="M0.85,3.45L0.95 3.45L0.9 3.6L0.9 3.75L0.9 3.8L0.9 3.85L0.8 3.85L0.85 3.45M0.8,4.65L0.75 4.15L0.85 4.15L0.95 4.1L0.95 4.75L0.8 4.65M0.95,5.55L0.9 5.5L0.9 5.35L0.85 5.25L0.85 5.1L0.85 4.95L1 4.9L1 4.95L1 5.05L1 5.25L1.05 5.45L0.95 5.55M1.6,6.55L1.55 6.5L1.45 6.4L1.4 6.35L1.15 6.05L1 5.7L1.15 5.7L1.25 5.9L1.45 6.3L1.5 6.4L1.55 6.45L1.6 6.5L1.6 6.55" />
<linearGradient
id="LinearGradID_4653" gradientUnits="userSpaceOnUse" gradientTransform="matrix(0.00253296, 0, 0, 0.000579834, 3.75, 6.95)" spreadMethod ="pad" x1="-819.2" y1="0" x2="819.2" y2="0" >
<stop  offset="0" style="stop-color:#231010;stop-opacity:1" />
<stop  offset="1" style="stop-color:#2C2C2C;stop-opacity:1" />
</linearGradient>
<path style="fill:url(#LinearGradID_4653) " d="M1.75,6.65L1.9 6.55L2.6 6.95L2.6 7.15L2.2 7L2.15 6.95L2.1 6.95L2 6.85L1.95 6.85L1.9 6.8L1.75 6.7L1.75 6.65M2.75,7L3.9 7.25L3.9 7.35L3.9 7.4L3.7 7.4L3.6 7.4L3 7.25L2.9 7.25L2.65 7.2L2.75 7M4.6,7.35L4.6 7.45L4.55 7.45L4.2 7.4L4.25 7.3L4.6 7.3L4.6 7.35M5.15,7.4L5.05 7.4L4.85 7.45L4.85 7.35L5.15 7.35L5.15 7.4M5.4,7.4L5.45 7.35L5.8 7.4L5.7 7.4L5.4 7.4" />
<linearGradient
id="LinearGradID_4654" gradientUnits="userSpaceOnUse" gradientTransform="matrix(0.00366211, 0, 0, 0.000854492, 4.25, 7.3)" spreadMethod ="pad" x1="-819.2" y1="0" x2="819.2" y2="0" >
<stop  offset="0" style="stop-color:#532424;stop-opacity:1" />
<stop  offset="0.490196" style="stop-color:#0D0D0D;stop-opacity:1" />
<stop  offset="1" style="stop-color:#100D06;stop-opacity:1" />
</linearGradient>
<path style="fill:url(#LinearGradID_4654) " d="M5.7,7.4L5.8 7.4L6.45 7.4L6.5 7.45L6.6 7.7L6.65 7.4L7.25 7.4L7.25 7.5L7.25 7.8L7.3 8L7.2 8L7.1 7.75L6.9 7.6L6.65 8L6.15 7.95L6.1 7.85L5.95 7.6L5.7 7.5L5.7 7.55L5.65 7.9L5.45 7.9L5.35 7.9L4.9 7.85L4.75 7.85L4.45 7.8L4.3 7.75L4.05 7.75L4.2 7.4L4.55 7.45L4.6 7.45L4.6 7.55L4.7 7.75L4.85 7.45L5.05 7.4L5.15 7.4L5.15 7.55L5.3 7.85L5.4 7.5L5.4 7.4L5.7 7.4M1.35,6.95L1.45 6.85L1.6 6.7L1.7 6.6L1.7 6.65L1.75 6.7L1.9 6.8L1.95 6.85L2 6.85L2.1 6.95Q1.95 7.05 1.95 7.35L1.9 7.4L1.9 7.35L1.6 7.2L1.4 7.1L1.35 7.05L1.3 7.05L1.3 7L1.35 6.95M3.7,7.7L3.65 7.7L3.5 7.5L3.45 7.5L3.4 7.65L3.15 7.6L3 7.25L3.6 7.4L3.7 7.4L3.9 7.4L3.95 7.7L4 7.75L3.7 7.7M2.85,7.55L2.8 7.55L2.6 7.5L2.2 7.45L2.15 7.05L2.15 6.95L2.2 7L2.6 7.15L2.65 7.2L2.9 7.25L3 7.25L2.85 7.55" />
</g>
</svg>
