<?xml version="1.0" encoding="utf-8"?>
<svg version="1.1" id="Layer_1"
xmlns="http://www.w3.org/2000/svg"
xmlns:xlink="http://www.w3.org/1999/xlink"
xmlns:author="http://www.sothink.com"
width="23px" height="5px"
xml:space="preserve">
<g id="594" transform="matrix(1, 0, 0, 1, -59, -29.4)">
<path style="fill:#848484;fill-opacity:1" d="M73.95,33.65L73.15 33.4Q72.7 33.3 72.6 33.05Q72.05 32.05 72.1 30.9Q72.05 30.45 72.35 30.35L72.25 30.6L72.25 30.8Q72.2 31.95 72.75 32.95Q73.05 33.3 74.1 33.5L75.7 33.65L76.55 33.65L76.7 33.6L77.4 33.55L78.5 33.5L79.05 33.3L78.3 33.6L77.35 33.65L76.65 33.7L76.35 33.7L75.65 33.75L73.95 33.65" />
<path style="fill:#FFFFFF;fill-opacity:1" d="M80.75,30.9L81.6 30.95L81.55 31.2L80.75 30.9" />
<path style="fill:#CCCCCC;fill-opacity:1" d="M59.35,31.6L59.85 31.6L60.05 32.4L59.5 32.3L59.35 31.6M59.35,31.55L59.3 30.95L59.3 30.5L59.8 30.35Q59.65 30.45 59.6 30.9L59.65 31.5L59.35 31.55M66.5,33.6L64.05 33.7L63.55 33.65L62.45 33.6L62.35 33.6L62.05 33.55Q61.45 33.5 61.25 33.15Q60.6 31.95 60.8 30.7L61.2 30.3L60.95 30.6L60.95 30.65Q60.8 31.9 61.4 33.05Q61.6 33.35 62.25 33.45L62.3 33.45L64.25 33.6L66.65 33.5L67.7 33.2L66.5 33.6" />
<path style="fill:#A2A2A2;fill-opacity:1" d="M80.9,31.45L81.5 31.45L81.5 31.65L80.65 31.6L80.75 30.9L80.9 31.45M59.35,31.6L59.35 31.55L59.65 31.5L59.6 30.9Q59.65 30.45 59.8 30.35L59.75 30.9L59.85 31.6L59.35 31.6" />
<path style="fill:#000000;fill-opacity:1" d="M80.75,30.25L79.65 30L78.55 29.8L77.95 29.75L77.4 29.7L73.9 29.9L72.95 30L71.75 30.2Q70.05 30.05 69.05 30.2L62.2 29.8L61.5 29.9Q60.45 30.05 60.1 30.65Q59.75 32.05 60.75 33.55L60.05 32.4L59.85 31.6L59.75 30.9L59.8 30.35L59.3 30.5L59.3 30.95L59.35 31.55L59.35 31.6L59.5 32.3L59.3 32.3L59.05 31.6L59.05 31.5L59 30.95L59.05 30.25L59.9 30L62.25 29.55L69 30Q70.45 29.85 71.6 30L73.05 29.7L74.05 29.6L77.45 29.45L78 29.5L78.55 29.55L80.65 30L81.55 30.25L81.6 30.5L80.75 30.25M75.65,33.75L76.35 33.7L76.65 33.7L77.35 33.65L78.3 33.6L79.05 33.3L79.25 33.1Q79.9 32 79.75 30.7L79.4 30.3Q79.75 30.45 79.9 30.7Q80.05 32 79.35 33.15L79 33.45L78.45 33.65L77.3 33.7L76.6 33.8L76.5 33.75L75.6 33.8L74.05 33.7L73.9 33.65L73.95 33.65L75.65 33.75M67.7,33.2L67.85 33.05Q68.5 32.1 68.5 30.9Q68.55 30.4 68.15 30.35L68.15 30.3L68.25 30.35Q68.65 30.4 68.65 30.85Q68.65 32.05 68 33.05L67.65 33.35L66.6 33.6L66.5 33.65L66.5 33.6L67.7 33.2" />
<linearGradient
id="LinearGradID_4743" gradientUnits="userSpaceOnUse" gradientTransform="matrix(3.05176e-005, -0.00245667, 0.00689697, -4.57764e-005, 71, 30.8)" spreadMethod ="pad" x1="-819.2" y1="0" x2="819.2" y2="0" >
<stop  offset="0" style="stop-color:#000000;stop-opacity:1" />
<stop  offset="1" style="stop-color:#999999;stop-opacity:1" />
</linearGradient>
<path style="fill:url(#LinearGradID_4743) " d="M81.6,30.5L81.6 30.95L80.75 30.9L80.65 31.6L81.5 31.65L81.15 32.3L80.4 32.35L79.55 33.7L77 34.15L76.25 34.2L75.25 34.15L72.65 33.9Q71.55 33.15 71.1 31.55Q70.3 31.15 69.4 31.55Q68.85 33.15 67.8 33.9L62.6 34.1L60.85 33.7L60.85 33.65L60.75 33.55Q59.75 32.05 60.1 30.65Q60.45 30.05 61.5 29.9L62.2 29.8L69.05 30.2Q70.05 30.05 71.75 30.2L72.95 30L73.9 29.9L77.4 29.7L77.95 29.75L78.55 29.8L79.65 30L80.75 30.25L81.6 30.5M81.55,31.2L81.5 31.45L80.9 31.45L80.75 30.9L81.55 31.2M72.1,30.9Q72.05 32.05 72.6 33.05Q72.7 33.3 73.15 33.4L73.95 33.65L73.9 33.65L74.05 33.7L75.6 33.8L76.5 33.75L76.6 33.8L77.3 33.7L78.45 33.65L79 33.45L79.35 33.15Q80.05 32 79.9 30.7Q79.75 30.45 79.4 30.3L79.1 30.2L78.5 30.1L77.9 30.05L77.35 29.95L75.9 29.85L74.05 30L73.8 30.05L72.9 30.15L72.4 30.35L72.35 30.35Q72.05 30.45 72.1 30.9M60.8,30.7Q60.6 31.95 61.25 33.15Q61.45 33.5 62.05 33.55L62.35 33.6L62.45 33.6L63.55 33.65L64.05 33.7L66.5 33.6L66.5 33.65L66.6 33.6L67.65 33.35L68 33.05Q68.65 32.05 68.65 30.85Q68.65 30.4 68.25 30.35L68.15 30.3L68.15 30.35L66.55 30L66.25 29.95L65.5 29.9L64.65 29.85L62.1 30.1L61.45 30.25L61.2 30.3L60.8 30.7" />
<radialGradient
id="RadialGradID_4744" gradientUnits="userSpaceOnUse" gradientTransform="matrix(0.00526428, 0.000457764, -0.000701904, 0.00405884, 75.8, 33.2)" spreadMethod ="pad" cx="0" cy="0" r="819.2" fx="0" fy="0" >
<stop  offset="0"  style="stop-color:#868679;stop-opacity:0" />
<stop  offset="1"  style="stop-color:#CCCCCC;stop-opacity:1" />
</radialGradient>
<path style="fill:url(#RadialGradID_4744) " d="M79.75,30.7Q79.9 32 79.25 33.1L79.05 33.3L78.5 33.5L77.4 33.55L76.7 33.6L76.55 33.65L75.7 33.65L74.1 33.5Q73.05 33.3 72.75 32.95Q72.2 31.95 72.25 30.8L72.25 30.6L72.35 30.35L72.4 30.35L72.9 30.15L73.8 30.05L74.05 30L75.9 29.85L77.35 29.95L77.9 30.05L78.5 30.1L79.1 30.2L79.4 30.3L79.75 30.7" />
<radialGradient
id="RadialGradID_4745" gradientUnits="userSpaceOnUse" gradientTransform="matrix(0.00619507, 0.000534058, -0.000762939, 0.00456238, 65.75, 32.5)" spreadMethod ="pad" cx="0" cy="0" r="819.2" fx="0" fy="0" >
<stop  offset="0"  style="stop-color:#868679;stop-opacity:0" />
<stop  offset="1"  style="stop-color:#CCCCCC;stop-opacity:1" />
</radialGradient>
<path style="fill:url(#RadialGradID_4745) " d="M68.5,30.9Q68.5 32.1 67.85 33.05L67.7 33.2L66.65 33.5L64.25 33.6L62.3 33.45L62.25 33.45Q61.6 33.35 61.4 33.05Q60.8 31.9 60.95 30.65L60.95 30.6L61.2 30.3L61.45 30.25L62.1 30.1L64.65 29.85L65.5 29.9L66.25 29.95L66.55 30L68.15 30.35Q68.55 30.4 68.5 30.9" />
</g>
</svg>
