<?xml version="1.0" encoding="utf-8"?>
<svg version="1.1" id="Layer_1"
xmlns="http://www.w3.org/2000/svg"
xmlns:xlink="http://www.w3.org/1999/xlink"
xmlns:author="http://www.sothink.com"
width="3px" height="2px"
xml:space="preserve">
<g id="596" transform="matrix(1, 0, 0, 1, -69.3, -38.45)">
<linearGradient
id="LinearGradID_4747" gradientUnits="userSpaceOnUse" gradientTransform="matrix(-0.00117493, -0.000305176, 0.000183105, -0.000686646, 70.4, 39.1)" spreadMethod ="pad" x1="-819.2" y1="0" x2="819.2" y2="0" >
<stop  offset="0" style="stop-color:#85472E;stop-opacity:1" />
<stop  offset="1" style="stop-color:#CA734F;stop-opacity:1" />
</linearGradient>
<path style="fill:url(#LinearGradID_4747) " d="M70.9,39L71.3 39.15L71.3 39.55L70.45 39.45L69.55 39.45L70.8 39.35L69.35 39.4L69.4 39.05L69.4 38.95Q69.4 38.7 70 38.75L71.3 38.75L70.8 38.9L70.45 38.9L70.4 38.9L70.45 38.9L70.9 39M69.55,39L70.75 39.15L69.4 39.25L70.1 39.2L71.2 39.3L71.25 39.3L70.7 39.05L69.4 38.95L69.55 39" />
<linearGradient
id="LinearGradID_4748" gradientUnits="userSpaceOnUse" gradientTransform="matrix(-0.00123596, -0.000320435, 0.000152588, -0.000579834, 70.3, 38.7)" spreadMethod ="pad" x1="-819.2" y1="0" x2="819.2" y2="0" >
<stop  offset="0" style="stop-color:#4C1709;stop-opacity:1" />
<stop  offset="1" style="stop-color:#93573D;stop-opacity:1" />
</linearGradient>
<path style="fill:url(#LinearGradID_4748) " d="M69.3,38.45L71.45 38.5L71.3 39.15L70.9 39L70.45 38.9L70.8 38.9L71.3 38.75L70 38.75Q69.4 38.7 69.4 38.95L69.3 38.45" />
<linearGradient
id="LinearGradID_4749" gradientUnits="userSpaceOnUse" gradientTransform="matrix(-0.00111389, -0.000305176, 9.15527e-005, -0.000305176, 70.3, 39.2)" spreadMethod ="pad" x1="-819.2" y1="0" x2="819.2" y2="0" >
<stop  offset="0" style="stop-color:#72361C;stop-opacity:1" />
<stop  offset="1" style="stop-color:#E0CEB6;stop-opacity:1" />
</linearGradient>
<path style="fill:url(#LinearGradID_4749) " d="M69.4,38.95L70.7 39.05L71.25 39.3L71.2 39.3L70.1 39.2L69.4 39.25L70.75 39.15L69.55 39L69.4 38.95" />
<linearGradient
id="LinearGradID_4750" gradientUnits="userSpaceOnUse" gradientTransform="matrix(-0.00115967, -0.000305176, 0.00012207, -0.000457764, 70.35, 39.65)" spreadMethod ="pad" x1="-819.2" y1="0" x2="819.2" y2="0" >
<stop  offset="0" style="stop-color:#4C1709;stop-opacity:1" />
<stop  offset="1" style="stop-color:#93573D;stop-opacity:1" />
</linearGradient>
<path style="fill:url(#LinearGradID_4750) " d="M71.3,39.75L70.45 39.55L69.3 39.75L69.35 39.5L69.35 39.4L70.8 39.35L69.55 39.45L70.45 39.45L71.3 39.55L71.3 39.75" />
</g>
</svg>
