<?xml version="1.0" encoding="utf-8"?>
<svg version="1.1" id="Layer_1"
xmlns="http://www.w3.org/2000/svg"
xmlns:xlink="http://www.w3.org/1999/xlink"
xmlns:author="http://www.sothink.com"
width="3px" height="2px"
xml:space="preserve">
<g id="592" transform="matrix(1, 0, 0, 1, 1, 1.4)">
<linearGradient
id="LinearGradID_4731" gradientUnits="userSpaceOnUse" gradientTransform="matrix(-0.00117493, -0.000305176, 0.000183105, -0.000686646, 0.1, -0.75)" spreadMethod ="pad" x1="-819.2" y1="0" x2="819.2" y2="0" >
<stop  offset="0" style="stop-color:#85472E;stop-opacity:1" />
<stop  offset="1" style="stop-color:#CA734F;stop-opacity:1" />
</linearGradient>
<path style="fill:url(#LinearGradID_4731) " d="M0.6,-0.85L1 -0.7L1 -0.3L0.15 -0.4L-0.75 -0.4L0.5 -0.5L-0.95 -0.45L-0.9 -0.8L-0.9 -0.9Q-0.9 -1.15 -0.3 -1.1L1 -1.1L0.5 -0.95L0.15 -0.95L0.1 -0.95L0.15 -0.95L0.6 -0.85M-0.75,-0.85L0.45 -0.7L-0.9 -0.6L-0.2 -0.65L0.9 -0.55L0.95 -0.55L0.4 -0.8L-0.9 -0.9L-0.75 -0.85" />
<linearGradient
id="LinearGradID_4732" gradientUnits="userSpaceOnUse" gradientTransform="matrix(-0.00123596, -0.000320435, 0.000152588, -0.000579834, 0, -1.15)" spreadMethod ="pad" x1="-819.2" y1="0" x2="819.2" y2="0" >
<stop  offset="0" style="stop-color:#4C1709;stop-opacity:1" />
<stop  offset="1" style="stop-color:#93573D;stop-opacity:1" />
</linearGradient>
<path style="fill:url(#LinearGradID_4732) " d="M-1,-1.4L1.15 -1.35L1 -0.7L0.6 -0.85L0.15 -0.95L0.5 -0.95L1 -1.1L-0.3 -1.1Q-0.9 -1.15 -0.9 -0.9L-1 -1.4" />
<linearGradient
id="LinearGradID_4733" gradientUnits="userSpaceOnUse" gradientTransform="matrix(-0.00111389, -0.000305176, 9.15527e-005, -0.000305176, 0, -0.65)" spreadMethod ="pad" x1="-819.2" y1="0" x2="819.2" y2="0" >
<stop  offset="0" style="stop-color:#72361C;stop-opacity:1" />
<stop  offset="1" style="stop-color:#E0CEB6;stop-opacity:1" />
</linearGradient>
<path style="fill:url(#LinearGradID_4733) " d="M-0.9,-0.9L0.4 -0.8L0.95 -0.55L0.9 -0.55L-0.2 -0.65L-0.9 -0.6L0.45 -0.7L-0.75 -0.85L-0.9 -0.9" />
<linearGradient
id="LinearGradID_4734" gradientUnits="userSpaceOnUse" gradientTransform="matrix(-0.00115967, -0.000305176, 0.00012207, -0.000457764, 0.05, -0.2)" spreadMethod ="pad" x1="-819.2" y1="0" x2="819.2" y2="0" >
<stop  offset="0" style="stop-color:#4C1709;stop-opacity:1" />
<stop  offset="1" style="stop-color:#93573D;stop-opacity:1" />
</linearGradient>
<path style="fill:url(#LinearGradID_4734) " d="M1,-0.1L0.15 -0.3L-1 -0.1L-0.95 -0.35L-0.95 -0.45L0.5 -0.5L-0.75 -0.4L0.15 -0.4L1 -0.3L1 -0.1" />
</g>
</svg>
