<?xml version="1.0" encoding="utf-8"?>
<svg version="1.1" id="Layer_1"
xmlns="http://www.w3.org/2000/svg"
xmlns:xlink="http://www.w3.org/1999/xlink"
xmlns:author="http://www.sothink.com"
width="133px" height="27px"
xml:space="preserve">
<g id="601" transform="matrix(1, 0, 0, 1, 0, 0)">
<path style="fill:#000000;fill-opacity:1" d="M132.7,20.15L132.05 21.5L131.55 21.45L131.9 20.4Q131.15 19.8 129.95 20.4L127.2 20.6L127.2 20.55L127.05 18.35L126.9 15.65Q127.05 16.75 127.75 17.55L130.1 18Q131.5 18.45 130.4 16.6Q130 15.35 130.15 13.95Q130.5 13.35 130.15 12.5L127.8 11.25L131.35 12.35Q132.05 12.35 132.4 13.3Q131.85 16.15 132.7 20.15M79,16.2L79.15 15.9Q78.4 15.3 77.55 15.6Q76.75 13.3 76.45 11.3Q78 9.85 79.1 10.75Q79.9 12.05 77.65 12.55L78.4 14.7Q81.05 14.55 81 16.85Q81.2 18.8 78.95 19.2L78.05 17Q79.3 16.45 79 16.2M55.3,15.4Q54.4 15.1 53.7 15.7L53.8 16.05Q53.5 16.3 54.75 16.8L53.8 19Q51.55 18.6 51.8 16.65Q51.75 14.35 54.45 14.5L55.2 12.4Q52.95 11.85 53.8 10.55Q54.9 9.7 56.45 11.15L55.3 15.4" />
<linearGradient
id="LinearGradID_4785" gradientUnits="userSpaceOnUse" gradientTransform="matrix(0.00215149, -0.000106812, 0.0528564, 0.997299, 128.8, -10.4)" spreadMethod ="pad" x1="-819.2" y1="0" x2="819.2" y2="0" >
<stop  offset="0" style="stop-color:#98A48E;stop-opacity:1" />
<stop  offset="1" style="stop-color:#000000;stop-opacity:1" />
</linearGradient>
<path style="fill:url(#LinearGradID_4785) " d="M126.85,15.2Q126.4 11.15 125.5 8.05L126.65 6.7L126.7 6.7L128 6.8L126.55 10.85L127.8 11.25L130.15 12.5Q130.5 13.35 130.15 13.95Q130 15.35 130.4 16.6Q131.5 18.45 130.1 18L127.75 17.55Q127.05 16.75 126.9 15.65L126.85 15.2" />
<path style="fill:#CECEBD;fill-opacity:1" d="M127.3,24.2Q127.15 25.9 125.45 26.55Q102.7 28.35 80.75 23.15L80.5 23.15L80.35 23Q78.6 21.45 76.9 17.5Q77.55 18.45 77.7 17.45Q74.75 9.9 75.85 7.05Q98.85 -0.85 124.55 8.55Q126.6 13.95 127.05 18.35L127.2 20.55L127.2 20.6L127.3 24.2M77.55,15.6L78.05 17L78.95 19.2L80.15 21.6Q80.5 23.6 98.15 25.8Q115.8 27.45 125.65 25.65Q126.35 25.25 126.55 24.55Q127 14.45 124.3 9.1Q100.1 -0.65 76.3 7.3Q76.1 9.15 76.45 11.3Q76.75 13.3 77.55 15.6M5.6,19.7L5.65 18.6L5.8 17.5L5.8 17.35Q6.35 13 8.45 7.75Q34.2 -1.35 57.05 6.9Q58.15 9.75 55.1 17.3Q55.2 18.3 55.9 17.35Q54.05 21.45 52.25 22.95L52 22.95Q29.95 27.8 7.3 25.7Q5.6 25 5.45 23.35L5.6 19.75L5.6 19.7M55.3,15.4L56.45 11.15Q56.8 9 56.65 7.15Q32.95 -1.15 8.65 8.3Q5.85 13.55 6.2 23.7Q6.35 24.4 7.1 24.8Q16.9 26.75 34.55 25.35Q52.2 23.35 52.6 21.4L53.8 19L54.75 16.8L55.3 15.4" />
<path style="fill:#5E5E5E;fill-opacity:1" d="M132.7,20.15Q131.85 16.15 132.4 13.3Q132.85 14.45 132.75 17.2L132.75 17.35L132.85 19.75L132.7 20.15" />
<linearGradient
id="LinearGradID_4786" gradientUnits="userSpaceOnUse" gradientTransform="matrix(0.0214844, 0, 0, 0.0165405, 29.15, 18)" spreadMethod ="pad" x1="-819.2" y1="0" x2="819.2" y2="0" >
<stop  offset="0" style="stop-color:#000000;stop-opacity:1" />
<stop  offset="0.52549" style="stop-color:#98A48E;stop-opacity:1" />
<stop  offset="1" style="stop-color:#000000;stop-opacity:1" />
</linearGradient>
<path style="fill:url(#LinearGradID_4786) " d="M6.3,5.85L5.05 5.9Q4.65 5.65 5.4 4.7Q29.65 -4.7 59.85 4.7L60.55 7.4L57.9 7.35L57.35 6.5L57.45 6.45L57.7 4.85Q32.3 -2.4 6.35 5.85L6.3 5.85" />
<linearGradient
id="LinearGradID_4787" gradientUnits="userSpaceOnUse" gradientTransform="matrix(-0.00559998, 0.0124207, -0.907089, -0.410172, 135.35, 48.7)" spreadMethod ="pad" x1="-819.2" y1="0" x2="819.2" y2="0" >
<stop  offset="0" style="stop-color:#FFFFFF;stop-opacity:0.270588" />
<stop  offset="1" style="stop-color:#FFFFFF;stop-opacity:0" />
</linearGradient>
<path style="fill:url(#LinearGradID_4787) " d="M52.6,21.4Q52.2 23.35 34.55 25.35Q16.9 26.75 7.1 24.8Q6.35 24.4 6.2 23.7Q5.85 13.55 8.65 8.3Q32.95 -1.15 56.65 7.15Q56.8 9 56.45 11.15Q54.9 9.7 53.8 10.55Q52.95 11.85 55.2 12.4L54.45 14.5Q51.75 14.35 51.8 16.65Q51.55 18.6 53.8 19L52.6 21.4" />
<linearGradient
id="LinearGradID_4788" gradientUnits="userSpaceOnUse" gradientTransform="matrix(-0.00563049, 0.00160217, -0.272781, -0.961151, 65.95, 52.45)" spreadMethod ="pad" x1="-819.2" y1="0" x2="819.2" y2="0" >
<stop  offset="0" style="stop-color:#D6CEBD;stop-opacity:1" />
<stop  offset="1" style="stop-color:#9C948C;stop-opacity:1" />
</linearGradient>
<path style="fill:url(#LinearGradID_4788) " d="M55.9,17.35L55.95 17.3L56.05 17.15L56.35 16.55L57.5 13.05Q58.9 13.1 59.4 14.5Q56.55 21 54.8 22.85L52.25 22.95Q54.05 21.45 55.9 17.35" />
<path style="fill:#757D60;fill-opacity:1" d="M71.8,7.45L72.65 4.9L73.1 4.8L72.35 7.5L72.05 7.5L71.8 7.45M59.85,4.7L60.3 4.8L61.1 7.35L60.85 7.45L60.55 7.4L59.85 4.7" />
<path style="fill:#FFFFFF;fill-opacity:1" d="M74.8,14.05Q74.1 14.4 74.75 16.7L74 15.95Q73.65 14.35 74.2 13.8L74.8 14.05" />
<path style="fill:#281613;fill-opacity:1" d="M5.6,19.75L2.9 19.5L0.95 19.45L1.25 20.55L0.75 20.6L0 18.8L0.1 16.4L0.1 16.25Q0.05 13.55 0.55 12.35Q0.9 11.4 1.6 11.45L6.4 10L5.05 5.9L6.3 5.85L6.35 5.85L7.5 7.25Q6.5 10.35 6.05 14.35L6 14.8L5.8 17.35Q4.15 16.9 4.1 17.65Q3.65 18.1 5.65 18.6L5.6 19.7L5.6 19.75" />
<linearGradient
id="LinearGradID_4789" gradientUnits="userSpaceOnUse" gradientTransform="matrix(-0.0132141, -0.000762939, 0.000946045, -0.01651, 123.95, -5.9)" spreadMethod ="pad" x1="-819.2" y1="0" x2="819.2" y2="0" >
<stop  offset="0" style="stop-color:#98A48E;stop-opacity:1" />
<stop  offset="1" style="stop-color:#000000;stop-opacity:1" />
</linearGradient>
<path style="fill:url(#LinearGradID_4789) " d="M128,6.8L126.7 6.7L126.65 6.7Q100.8 -1.95 75.3 4.95L75.5 6.55L75.6 6.6L75 7.45L72.35 7.5L73.1 4.8Q103.5 -4.15 127.65 5.55Q128.4 6.55 128 6.8" />
<path style="fill:#000000;fill-opacity:1" d="M126.9,15.65L127.05 18.35Q126.6 13.95 124.55 8.55Q98.85 -0.85 75.85 7.05Q74.75 9.9 77.7 17.45Q77.55 18.45 76.9 17.5L76.85 17.45L76.75 17.3L76.45 16.7Q75.85 15.65 75.4 13.4Q74.9 11.25 74.5 7.95L72 7.9Q69.7 7.15 66.8 7.1L66.1 7.1Q63.2 7.1 60.95 7.8L58.4 7.85L57.5 13.05L56.35 16.55L56.05 17.15L55.95 17.3L55.9 17.35Q55.2 18.3 55.1 17.3Q58.15 9.75 57.05 6.9Q34.2 -1.35 8.45 7.75Q6.35 13 5.8 17.35L6 14.8L6.05 14.35Q6.5 10.35 7.5 7.25Q34.9 -2 57.3 6.35L57.9 7.35L60.85 7.45L61.1 7.35Q63.5 6.6 66.1 6.75L66.1 6.8L66.5 6.8L66.8 6.8L66.8 6.75Q69.4 6.65 71.8 7.45L72.05 7.5L75 7.45L75.65 6.5Q98.2 -1.55 125.5 8.05Q126.4 11.15 126.85 15.2L126.9 15.65" />
<linearGradient
id="LinearGradID_4790" gradientUnits="userSpaceOnUse" gradientTransform="matrix(0.00756836, 0, 0, 0.0165405, 67.95, 20.2)" spreadMethod ="pad" x1="-819.2" y1="0" x2="819.2" y2="0" >
<stop  offset="0" style="stop-color:#98A48E;stop-opacity:1" />
<stop  offset="1" style="stop-color:#000000;stop-opacity:1" />
</linearGradient>
<path style="fill:url(#LinearGradID_4790) " d="M71.8,7.45Q69.4 6.65 66.8 6.75L66.5 6.8L66.1 6.75Q63.5 6.6 61.1 7.35L60.3 4.8L66.05 5.35L66.4 5.35L66.9 5.4L72.65 4.9L71.8 7.45" />
<linearGradient
id="LinearGradID_4791" gradientUnits="userSpaceOnUse" gradientTransform="matrix(0.00585938, -0.000259399, 0.0443268, 0.998871, 76.1, -17.85)" spreadMethod ="pad" x1="-819.2" y1="0" x2="819.2" y2="0" >
<stop  offset="0" style="stop-color:#D6CEBD;stop-opacity:1" />
<stop  offset="1" style="stop-color:#9C948C;stop-opacity:1" />
</linearGradient>
<path style="fill:url(#LinearGradID_4791) " d="M76.9,17.5Q78.6 21.45 80.35 23L77.65 22.95L74.3 17.1L74 15.95L74.75 16.7Q74.1 14.4 74.8 14.05L74.2 13.8Q74.6 13.35 75.4 13.4Q75.85 15.65 76.45 16.7L76.75 17.3L76.85 17.45L76.9 17.5" />
<linearGradient
id="LinearGradID_4792" gradientUnits="userSpaceOnUse" gradientTransform="matrix(-0.00559998, 0.0124207, -0.907089, -0.410172, 139.15, 24.9)" spreadMethod ="pad" x1="-819.2" y1="0" x2="819.2" y2="0" >
<stop  offset="0" style="stop-color:#FFFFFF;stop-opacity:0.270588" />
<stop  offset="1" style="stop-color:#FFFFFF;stop-opacity:0" />
</linearGradient>
<path style="fill:url(#LinearGradID_4792) " d="M125.65,25.65Q115.8 27.45 98.15 25.8Q80.5 23.6 80.15 21.6L78.95 19.2Q81.2 18.8 81 16.85Q81.05 14.55 78.4 14.7L77.65 12.55Q79.9 12.05 79.1 10.75Q78 9.85 76.45 11.3Q76.1 9.15 76.3 7.3Q100.1 -0.65 124.3 9.1Q127 14.45 126.55 24.55Q126.35 25.25 125.65 25.65" />
</g>
</svg>
