<?xml version="1.0" encoding="utf-8"?>
<svg version="1.1" id="Layer_1"
xmlns="http://www.w3.org/2000/svg"
xmlns:xlink="http://www.w3.org/1999/xlink"
xmlns:author="http://www.sothink.com"
width="85px" height="22px"
xml:space="preserve">
<g id="599" transform="matrix(1, 0, 0, 1, 0, 0)">
<path style="fill:#CCCCCC;fill-opacity:1" d="M84.15,3.55L84.2 3.6Q83.45 3.85 83 4.2Q82.25 4.65 82.05 5.35L82.35 9.1L82.35 9.35L82.2 12.4Q81.6 19.1 76.8 20.25L74.35 20.75Q78.6 19.3 79.3 18.25L79.55 17.9L80.05 17.2L80.6 16.1L81.2 14.15L81.55 12.2L81.5 9.55L81.3 7.05L80.8 4.65L80.75 4.2Q80.75 3.55 81.15 3.55L81.75 4.2L81.85 4.55Q82.7 3.7 83.9 3.4L84.15 3.55M58.65,0.5L67.55 0Q75.95 0.1 79.3 1.45L79.6 1.6L80.05 2.05L80.65 2.7Q80.65 2.9 79.25 2.15Q77.8 1.4 72.6 0.65L71.9 0.65Q57.65 0.05 53.75 2.6L53.35 2.6Q53.5 1.65 57.95 0.6L58.65 0.5M48.85,4.75Q50.4 3.2 51.75 2.65L52 2.65L52.05 2.8Q52.05 3.45 50.55 4.5L49.15 6.15L48.2 7.05L48 7.2Q47.6 7.15 47.7 6.75L47.75 6.7Q48.15 5.65 48.85 4.75M7.7,0.85L8.05 0.75L17.35 0Q29.5 -0.1 34.15 3.05Q36.25 4.45 37.1 6.55L36.6 7.35L36.55 7.35Q34.15 3.8 30.5 2.35L30.05 2.15Q28 1 23.9 0.75L17.55 0.4L11.35 0.85Q7.45 1.35 6.4 1.8L6 1.8L7.7 0.85M2.1,4.3L0.95 3.85L0.55 3.95L0.6 3.8L0.7 3.65L1.5 3.65L3.15 4.35L3.05 4.65L2.1 4.3" />
<path style="fill:#FFFFFF;fill-opacity:1" d="M79.5,2.7Q77.3 1.3 70.85 1Q64.35 0.7 60.65 1.2Q54.5 2 50.85 4.5L49.15 6.15L50.55 4.5Q52.05 3.45 52.05 2.8L52 2.65L51.75 2.65Q50.4 3.2 48.85 4.75Q49.65 3.8 50.8 3.05Q53.25 1.35 57.95 0.6Q53.5 1.65 53.35 2.6L53.75 2.6Q57.65 0.05 71.9 0.65L72.6 0.65Q77.8 1.4 79.25 2.15Q80.65 2.9 80.65 2.7L80.05 2.05L79.6 1.6Q80.8 2.15 81.25 2.95L81.65 3.9L83.6 3.3L83.9 3.4Q82.7 3.7 81.85 4.55L81.75 4.2L81.15 3.55Q80.75 3.55 80.75 4.2L80.8 4.65Q80.3 3.2 79.5 2.7M4.15,4.35Q4.15 3.65 3.85 3.65Q3.5 3.65 3.25 4.4L3.15 4.6L2.85 5.65L3.05 4.65L3.15 4.35L1.5 3.65L0.7 3.65L1.3 3.3L3.25 3.9L3.7 2.95Q4.4 1.55 7.7 0.85L6 1.8L6.4 1.8Q7.45 1.35 11.35 0.85L17.55 0.4L23.9 0.75Q28 1 30.05 2.15L28.85 1.8Q24.05 0.55 16.7 0.7Q9.3 0.85 5.3 2.7L5.15 2.85Q4.4 3.75 4 5.35L4.15 4.35" />
<path style="fill:#AAAAAA;fill-opacity:1" d="M2.75,12.4L2.6 9.35L2.6 8.7Q2.6 7 2.85 5.65L3.15 4.6L3.25 4.4Q3.5 3.65 3.85 3.65Q4.15 3.65 4.15 4.35L4 5.35L3.85 6.2Q3.6 7.4 3.6 8.85L3.55 9.7Q3.55 11.55 3.9 13.35L3.95 13.75Q4.75 18.7 8.1 20.25Q3.3 19.1 2.75 12.4M37.1,6.55L37.2 6.75Q42.05 9.8 47.7 6.75Q47.6 7.15 48 7.2L47.6 7.55Q46.7 8.3 45.25 8.7L43.15 9.05Q41.2 9.15 38.95 8.4L36.6 7.35L37.1 6.55" />
<path style="fill:#6C0202;fill-opacity:1" d="M51.95,18.6Q50.3 17.3 49.55 15.4Q48.75 13.4 47.5 12.7Q46.25 11.95 44.15 11.65L39.35 11.95Q36.65 12.5 35.65 15.15Q34.6 17.8 32.15 18.95L27.2 20.8Q19.75 21.85 9.95 20.05Q6.8 19.1 5.45 15.95Q4.1 12.8 4.05 10.4Q3.95 7.95 4.1 6Q4.25 4 5.15 2.85L5.3 2.7Q9.3 0.85 16.7 0.7Q24.05 0.55 28.85 1.8L30.05 2.15L30.5 2.35Q34.15 3.8 36.55 7.35L36.6 7.35L38.95 8.4Q41.2 9.15 43.15 9.05L45.25 8.7Q46.7 8.3 47.6 7.55L48 7.2L48.2 7.05L49.15 6.15L50.85 4.5Q54.5 2 60.65 1.2Q64.35 0.7 70.85 1Q77.3 1.3 79.5 2.7Q80.3 3.2 80.8 4.65L81.3 7.05L81.5 9.55L81.55 12.2L81.2 14.15L80.6 16.1L80.05 17.2L79.55 17.9L79.3 18.25Q78.6 19.3 74.35 20.75L73.75 20.85L65.2 21.45L57.95 20.9L57.8 20.9L57.7 20.85L57.6 20.85L56.15 20.45Q53.3 19.6 51.95 18.6M79.6,10.05Q79.7 6 78.65 4.1Q77.4 1.7 67.1 1.6Q56.85 1.5 52.95 4.2Q50.3 5.95 50 8.9Q49.85 10.25 50.25 11.85Q51.4 16.9 55.35 18.35Q59.35 19.75 65.1 19.7Q70.85 19.7 74.95 18.7Q79 17.7 79.5 12.1L79.6 10.05M34.75,8.15Q34.2 5.75 31.9 4.2Q28 1.55 17.8 1.65Q7.55 1.75 6.3 4.1Q5.45 5.65 5.35 8.7L5.5 12.1Q5.95 17.7 10 18.7L19.8 19.65Q25.55 19.7 29.5 18.3Q33.45 16.85 34.65 11.85Q35.1 9.75 34.75 8.15" />
<path style="fill:#5C0101;fill-opacity:1" d="M83.75,7.9Q82.6 7.9 82.6 6.7Q82.6 5.4 84.2 3.6L84.25 3.7Q84.6 4.2 84.75 5.4L84.9 7.4Q84.1 7.9 83.75 7.9M1.85,4.65Q2.6 5.3 2.6 6.2Q2.6 7.95 1.1 7.95L0.05 7.65L0 7.55Q0 6.45 0.15 5.4L0.3 4.65L0.4 4.3L0.5 4Q1.2 4.05 1.85 4.65" />
<path style="fill:#320101;fill-opacity:1" d="M79,10.1Q79.1 6.15 78.15 4.35Q76.9 2.05 67 1.95Q57.1 1.85 53.35 4.4Q50.75 6.15 50.5 8.95Q50.35 10.25 50.7 11.8Q51.85 16.7 55.65 18.05Q59.5 19.4 65.05 19.4L74.55 18.45Q78.45 17.45 78.9 12.05L79 10.1M79.5,12.1Q79 17.7 74.95 18.7Q70.85 19.7 65.1 19.7Q59.35 19.75 55.35 18.35Q51.4 16.9 50.25 11.85Q49.85 10.25 50 8.9Q50.3 5.95 52.95 4.2Q56.85 1.5 67.1 1.6Q77.4 1.7 78.65 4.1Q79.7 6 79.6 10.05L79.5 12.1M34.35,8.2Q33.8 5.9 31.6 4.4Q27.8 1.85 17.95 1.95Q8 2.05 6.8 4.35Q5.95 5.85 5.9 8.8L6 12.05Q6.45 17.45 10.4 18.45L19.85 19.4Q25.4 19.4 29.25 18.05Q33.05 16.7 34.2 11.8Q34.65 9.8 34.35 8.2M34.65,11.85Q33.45 16.85 29.5 18.3Q25.55 19.7 19.8 19.65L10 18.7Q5.95 17.7 5.5 12.1L5.35 8.7Q5.45 5.65 6.3 4.1Q7.55 1.75 17.8 1.65Q28 1.55 31.9 4.2Q34.2 5.75 34.75 8.15Q35.1 9.75 34.65 11.85" />
<path style="fill:#3A0101;fill-opacity:1" d="M84.9,7.4L84.9 7.55Q84.9 8.15 82.35 9.35L82.35 9.1L82.05 5.35Q82.25 4.65 83 4.2Q83.45 3.85 84.2 3.6Q82.6 5.4 82.6 6.7Q82.6 7.9 83.75 7.9Q84.1 7.9 84.9 7.4M2.6,9.35Q0.2 8.25 0.05 7.65L1.1 7.95Q2.6 7.95 2.6 6.2Q2.6 5.3 1.85 4.65Q1.2 4.05 0.5 4L0.55 3.95L0.95 3.85L2.1 4.3L3.05 4.65L2.85 5.65Q2.6 7 2.6 8.7L2.6 9.35" />
<linearGradient
id="LinearGradID_4783" gradientUnits="userSpaceOnUse" gradientTransform="matrix(0, 0.00970459, -0.0106506, 0, 20.5, 11.7)" spreadMethod ="pad" x1="-819.2" y1="0" x2="819.2" y2="0" >
<stop  offset="0" style="stop-color:#FFFFFF;stop-opacity:0.701961" />
<stop  offset="1" style="stop-color:#FFFFFF;stop-opacity:0" />
</linearGradient>
<path style="fill:url(#LinearGradID_4783) " d="M34.2,11.8Q33.05 16.7 29.25 18.05Q25.4 19.4 19.85 19.4L10.4 18.45Q6.45 17.45 6 12.05L5.9 8.8Q5.95 5.85 6.8 4.35Q8 2.05 17.95 1.95Q27.8 1.85 31.6 4.4Q33.8 5.9 34.35 8.2Q34.65 9.8 34.2 11.8" />
<linearGradient
id="LinearGradID_4784" gradientUnits="userSpaceOnUse" gradientTransform="matrix(0, 0.00915527, -0.0106506, 0, 65.75, 11.7)" spreadMethod ="pad" x1="-819.2" y1="0" x2="819.2" y2="0" >
<stop  offset="0" style="stop-color:#FFFFFF;stop-opacity:0.701961" />
<stop  offset="1" style="stop-color:#FFFFFF;stop-opacity:0" />
</linearGradient>
<path style="fill:url(#LinearGradID_4784) " d="M78.9,12.05Q78.45 17.45 74.55 18.45L65.05 19.4Q59.5 19.4 55.65 18.05Q51.85 16.7 50.7 11.8Q50.35 10.25 50.5 8.95Q50.75 6.15 53.35 4.4Q57.1 1.85 67 1.95Q76.9 2.05 78.15 4.35Q79.1 6.15 79 10.1L78.9 12.05" />
</g>
</svg>
