<?xml version="1.0" encoding="utf-8"?>
<svg version="1.1" id="Layer_1"
xmlns="http://www.w3.org/2000/svg"
xmlns:xlink="http://www.w3.org/1999/xlink"
xmlns:author="http://www.sothink.com"
width="21px" height="8px"
xml:space="preserve">
<g id="603" transform="matrix(1, 0, 0, 1, 8.7, 1.85)">
<path style="fill:#999999;fill-opacity:1" d="M6.5,-1.2L4.9 -0.95L4.8 -0.9L4.7 -0.85L4.2 -0.5L3.85 -0.25L3.7 -0.25L4.3 -0.85L4.75 -1.1L6.35 -1.4L6.4 -1.45L6.55 -1.45L9 -1.45L10.3 -0.95Q11.1 -0.6 11.2 0.75L11.15 1.65L11.15 1Q11.05 -0.3 10.25 -0.7L8.95 -1.2L6.5 -1.2M3.8,-0.2Q3.35 0.3 3.15 1.2L3.1 1.2Q3.3 0.3 3.7 -0.2L3.8 -0.2M8.4,5.35Q10.7 4.85 11.3 1.65Q10.75 5.05 8.35 5.6Q5.7 6.25 3.75 4.5Q2.8 3.45 2.8 2.1L2.8 1.55Q2.7 1 2.05 0.85L0.95 0.8Q0.45 0.85 0.15 1.5L0.1 1.35L0.1 1.3L0.15 1.35Q0.45 0.55 1 0.55L2.1 0.6Q2.75 0.75 2.9 1.3L2.9 1.85Q2.9 3.2 3.8 4.25L4.7 4.9L6.2 5.45L7 5.5L7.7 5.5L7.8 5.45L8.25 5.4L8.4 5.35M3.1,1.25L3.15 1.25L3.1 1.3L3.1 1.25M-8.15,0.15L-8.1 -0.05L-8.05 0L-8.15 0.15M-8.2,0.3L-8.15 0.3L-8.2 0.45L-8.2 0.3M-3,5.4L-2.05 5.1L-0.8 4.25Q-0.15 3.5 0.05 2.6Q-0.1 3.65 -0.85 4.5Q-2.85 6.25 -5.45 5.6Q-8 5 -8.45 1.3L-8.4 1.25Q-7.85 4.6 -5.6 5.3L-5.4 5.4L-5.4 5.35L-4.85 5.45L-3 5.4" />
<path style="fill:#FFFFFF;fill-opacity:1" d="M4.05,1.15L4.25 1.35L4.05 1.65L3.8 1.35Q3.8 1.15 4.05 1.15M-8.45,0.2L-8.2 0.25L-8.15 0.15L-8.2 0.3L-8.45 0.25L-8.7 0.2L-8.45 0.2" />
<path style="fill:#E0A38A;fill-opacity:1" d="M-8.15,0.15L-8.2 0.25L-8.45 0.2L-8.25 -0.65L-8.1 -0.05L-8.15 0.15" />
<path style="fill:#BD6139;fill-opacity:1" d="M3.7,-0.25Q3.3 0.3 3.1 1.2L3.15 1.2L3.1 1.3Q3 2.9 4 3.95Q4.95 5 5.75 5.15L7.85 5.2Q9.15 5.1 10.3 3.6L11.15 1.65L11.2 0.75Q11.1 -0.6 10.3 -0.95L9 -1.45L6.35 -1.4L4.75 -1.1L4.3 -0.85L3.7 -0.25M3.75,-0.85L3.7 -0.8L4.1 -1L4.75 -1.35Q5.95 -1.9 7.35 -1.85L10 -1.5Q11.4 -1.05 11.5 0.45L11.3 1.65Q10.7 4.85 8.4 5.35L8.25 5.4L7.8 5.45L7.7 5.5L7 5.5L6.2 5.45L4.7 4.9L3.8 4.25Q2.9 3.2 2.9 1.85L2.9 1.3Q2.75 0.75 2.1 0.6L1 0.55Q0.45 0.55 0.15 1.35L0.1 1.3L0.1 1.35L0.15 1.5L0.15 1.85L0.05 2.6Q-0.15 3.5 -0.8 4.25L-2.05 5.1L-3 5.4L-4.85 5.45L-5.4 5.35L-5.6 5.3Q-7.85 4.6 -8.4 1.25L-8.55 0.75L-8.45 0.25Q-7.85 -1.25 -7.05 -1.5L-4.35 -1.85Q-2.2 -1.9 -0.5 -0.65L-0.45 -0.6Q-0.35 -0.25 0.85 -0.15L2.2 -0.15Q2.8 -0.2 3.75 -0.85M-2.1,-1.2L-3.5 -1.45L-6.05 -1.45L-7.35 -0.95Q-7.75 -0.75 -8.2 0.45L-8.25 0.75L-8.25 1.1Q-8.15 2.2 -7.3 3.6Q-6.2 5.1 -4.85 5.2L-2.75 5.15Q-2 5 -1 3.95Q-0.35 3.25 -0.15 2.4L-0.1 1.2Q-0.45 -0.2 -1.2 -0.8L-2 -1.2L-2.1 -1.2" />
<linearGradient
id="LinearGradID_4809" gradientUnits="userSpaceOnUse" gradientTransform="matrix(0, 0.0037384, -0.00495911, 0, 7.2, 1.8)" spreadMethod ="pad" x1="-819.2" y1="0" x2="819.2" y2="0" >
<stop  offset="0" style="stop-color:#884444;stop-opacity:0.490196" />
<stop  offset="1" style="stop-color:#FFE6CC;stop-opacity:0.101961" />
</linearGradient>
<path style="fill:url(#LinearGradID_4809) " d="M4.3,-0.85L4.75 -1.1L6.35 -1.4L9 -1.45L10.3 -0.95Q11.1 -0.6 11.2 0.75L11.15 1.65L10.3 3.6Q9.15 5.1 7.85 5.2L5.75 5.15Q4.95 5 4 3.95Q3 2.9 3.1 1.3L3.15 1.2L3.1 1.2Q3.3 0.3 3.7 -0.25L4.3 -0.85" />
<linearGradient
id="LinearGradID_4810" gradientUnits="userSpaceOnUse" gradientTransform="matrix(0, 0.00413513, -0.00495911, 0, -4.15, 1.8)" spreadMethod ="pad" x1="-819.2" y1="0" x2="819.2" y2="0" >
<stop  offset="0" style="stop-color:#884444;stop-opacity:0.490196" />
<stop  offset="1" style="stop-color:#FFE6CC;stop-opacity:0.101961" />
</linearGradient>
<path style="fill:url(#LinearGradID_4810) " d="M-2,-1.2L-1.2 -0.8Q-0.45 -0.2 -0.1 1.2L-0.15 2.4Q-0.35 3.25 -1 3.95Q-2 5 -2.75 5.15L-4.85 5.2Q-6.2 5.1 -7.3 3.6Q-8.15 2.2 -8.25 1.1L-8.25 0.75L-8.2 0.45Q-7.75 -0.75 -7.35 -0.95L-6.05 -1.45L-3.5 -1.45L-2.1 -1.2L-2 -1.2" />
<path style="fill:#FFFFFF;fill-opacity:0.6" d="M6.8,-1.05Q4 0.9 4 3.2Q2.7 1.7 4 -0.05Q5.1 -0.95 6.8 -1.05" />
<path style="fill:#FFFFFF;fill-opacity:0.6" d="M-4.25,-1.35Q-7.05 0.6 -7.05 2.9Q-8.35 1.4 -7.05 -0.35Q-5.95 -1.25 -4.25 -1.35" />
</g>
</svg>
