<?xml version="1.0" encoding="utf-8"?>
<svg version="1.1" id="Layer_1"
xmlns="http://www.w3.org/2000/svg"
xmlns:xlink="http://www.w3.org/1999/xlink"
xmlns:author="http://www.sothink.com"
width="397px" height="189px"
xml:space="preserve">
<g id="602" transform="matrix(1, 0, 0, 1, 198.5, 93.65)">
<path style="fill:#100B08;fill-opacity:1" d="M121.95,-62.7Q146.65 -77.6 176.2 -65.2Q201.5 -51.6 198 -21Q197.5 -16.8 196.45 -12.2Q187.6 18.2 150 49.85L149.8 50.05Q138.5 54.2 119.8 65.05Q107.35 72.4 96.45 74.7Q103.1 71.75 110.6 67.75Q122 61.65 132.6 52.05Q143.15 42.45 150.15 34.25Q160.9 21.8 167.95 7.7L168.15 7.3Q172.8 -3.25 172.75 -11.8Q171.45 -6.65 169.95 -4Q178.05 -32.95 156.45 -44.15L151.8 -45.3L150.45 -45.45Q135.9 -46.75 112.45 -35.95Q108.55 -34.6 105.5 -35.15L111.7 -60.7Q115.45 -58.7 121.95 -62.7" />
<path style="fill:#4E2C20;fill-opacity:1" d="M99.7,-38.9Q74.65 -71.15 50.95 -68.95Q18.55 -64.55 18.7 -9.45Q19.2 1.7 21.45 12.3Q17.9 7.75 16.2 -10.2Q16.25 -40 25.9 -54.75L29.1 -60.1Q36.95 -68.45 47.2 -70.95Q68.3 -74.3 82.45 -60.7Q93.15 -51.05 102.05 -36.65L102.05 -36.6Q100.75 -37.5 99.7 -38.9" />
<path style="fill:#454346;fill-opacity:1" d="M137.2,60.05Q108.8 81.05 66.95 91.3Q57.65 94.2 53.85 90.8Q36.1 75.2 18.65 47.25Q26.75 59.6 39.35 68.3Q49.55 74.7 56.25 81.1Q60.4 83.6 62.05 82.7L63.85 83.2L65.85 83.5Q74.05 82.8 85.3 79.05Q90.3 77.35 95.85 74.95L96.45 74.7Q107.35 72.4 119.8 65.05Q138.5 54.2 149.8 50.05L137.2 60.05" />
<path style="fill:#1E1916;fill-opacity:1" d="M-132.2,-54.15Q-125.7 -50.8 -121.8 -58.2Q-111.65 -74.75 -100.1 -82.3Q-82.5 -93.95 -49.9 -84.35Q-34.25 -77.25 -25.4 -67.35L-16.3 -57.2Q-14.9 -56.4 -13.45 -56Q-15.8 -53.85 -21.55 -57.95Q-39.05 -76.05 -48.05 -79.35L-49.3 -79.75L-49.5 -79.8Q-71.45 -85 -86.45 -81.35L-88.65 -80.75Q-94.3 -79.05 -98.85 -76.05Q-110.4 -68.5 -120.55 -51.95Q-123.45 -46.45 -127.8 -46.9Q-129.3 -47.05 -130.95 -47.9Q-141.8 -53.5 -151.1 -55.3L-156.5 -56L-158.3 -56.1L-165.05 -55.7Q-175.2 -53.25 -182.15 -48Q-192.75 -40.1 -198.35 -25Q-198.1 -28.55 -197.4 -32.05Q-194 -46.35 -183.4 -54.25Q-176.45 -59.5 -166.3 -61.95Q-151.8 -64.3 -132.2 -54.15" />
<path style="fill:#2B1F21;fill-opacity:1" d="M-27.8,-33.1Q-32.85 -23.95 -19.3 -6.6L-10.55 2.5Q-15.25 -0.55 -19.95 -6Q-25.5 -13.1 -27.8 -18.95L-28.2 -20Q-30.95 -27.7 -27.8 -33.1" />
<path style="fill:#706B71;fill-opacity:1" d="M-28.2,-20L-27.8 -18.95Q-25.5 -13.1 -19.95 -6Q-15.25 -0.55 -10.55 2.5L-10.65 2.7Q-16.7 0.1 -21.2 -5.1Q-32.85 -20.05 -31.05 -27.5Q-29.95 -20.75 -28.2 -20" />
<path style="fill:#9696A0;fill-opacity:1" d="M-153.65,-44.15Q-152.1 -41.35 -149.75 -40.05L-152.55 -40.95Q-156.3 -42.35 -158.3 -56.1L-156.5 -56Q-156 -48.35 -153.65 -44.15M-88.65,-80.75L-86.45 -81.35Q-85.8 -71.5 -91.8 -65.45Q-100.6 -56.7 -109.25 -45.9Q-107.95 -50.7 -96.9 -61.25Q-85.85 -71.8 -88.65 -80.75" />
<path style="fill:#1D1D1F;fill-opacity:1" d="M-156.5,-56L-151.1 -55.3Q-152.1 -53.1 -136.55 -44.45Q-132.45 -40.3 -133.25 -36.15Q-140.35 -38.6 -153.65 -44.15Q-156 -48.35 -156.5 -56" />
<linearGradient
id="LinearGradID_4793" gradientUnits="userSpaceOnUse" gradientTransform="matrix(0.0690002, 0, 0, 0.0581665, 116.2, 35.85)" spreadMethod ="pad" x1="-819.2" y1="0" x2="819.2" y2="0" >
<stop  offset="0" style="stop-color:#FFF1FF;stop-opacity:1" />
<stop  offset="0.266667" style="stop-color:#BFADC5;stop-opacity:1" />
<stop  offset="0.478431" style="stop-color:#6E5E6B;stop-opacity:1" />
<stop  offset="0.615686" style="stop-color:#6B5C73;stop-opacity:1" />
<stop  offset="0.741176" style="stop-color:#FFF4FF;stop-opacity:1" />
<stop  offset="0.847059" style="stop-color:#FDEAFE;stop-opacity:1" />
<stop  offset="0.988235" style="stop-color:#847E8C;stop-opacity:1" />
</linearGradient>
<path style="fill:url(#LinearGradID_4793) " d="M95.85,74.95Q90.3 77.35 85.3 79.05Q74.05 82.8 65.85 83.5L63.85 83.2L62.05 82.7Q60.35 82.05 59.7 81Q70.85 85.1 106.35 67.15L108.9 65.8L110.9 64.75L116.95 61.55L122.45 57.3L124.3 55.85L129.65 51.45L130.05 51.1Q159 26.4 167.45 3.55L168.45 0.85L169.95 -4Q171.45 -6.65 172.75 -11.8Q172.8 -3.25 168.15 7.3L167.95 7.7Q160.9 21.8 150.15 34.25Q143.15 42.45 132.6 52.05Q122 61.65 110.6 67.75Q103.1 71.75 96.45 74.7L95.85 74.95" />
<linearGradient
id="LinearGradID_4794" gradientUnits="userSpaceOnUse" gradientTransform="matrix(0.0760498, 0, 0, 0.0775452, 109.85, 18.2)" spreadMethod ="pad" x1="-819.2" y1="0" x2="819.2" y2="0" >
<stop  offset="0" style="stop-color:#FFF1E7;stop-opacity:1" />
<stop  offset="0.219608" style="stop-color:#F6E9E3;stop-opacity:1" />
<stop  offset="0.470588" style="stop-color:#FFF1F3;stop-opacity:1" />
<stop  offset="0.721569" style="stop-color:#FBDFED;stop-opacity:1" />
<stop  offset="1" style="stop-color:#CB9C8C;stop-opacity:1" />
</linearGradient>
<path style="fill:url(#LinearGradID_4794) " d="M110.9,64.75L108.9 65.8L106.35 67.15Q70.85 85.1 59.7 81L59.5 80.9Q57.55 80.15 56.05 78.75Q50.85 74.05 47.55 69.15L53 73.8L57.85 77.75Q61.35 79.9 65.05 79.45Q102.8 74.65 139.45 39.55Q163.55 14.85 169.6 -12.75Q170.8 -18.05 169.7 -25.1Q167.1 -38.3 155.15 -43.7L151.8 -45.3L156.45 -44.15Q178.05 -32.95 169.95 -4L168.45 0.85L167.45 3.55Q159 26.4 130.05 51.1L129.65 51.45L124.3 55.85L122.45 57.3Q116.95 61.3 110.9 64.75" />
<linearGradient
id="LinearGradID_4795" gradientUnits="userSpaceOnUse" gradientTransform="matrix(0.0813904, 0, 0, 0.0752258, 103.55, 17.9)" spreadMethod ="pad" x1="-819.2" y1="0" x2="819.2" y2="0" >
<stop  offset="0" style="stop-color:#9A897F;stop-opacity:1" />
<stop  offset="0.219608" style="stop-color:#C2AFA1;stop-opacity:1" />
<stop  offset="0.470588" style="stop-color:#CAB7A8;stop-opacity:1" />
<stop  offset="0.721569" style="stop-color:#B29D88;stop-opacity:1" />
<stop  offset="1" style="stop-color:#7A594A;stop-opacity:1" />
</linearGradient>
<path style="fill:url(#LinearGradID_4795) " d="M169.7,-25.1Q170.8 -18.05 169.6 -12.75Q163.55 14.85 139.45 39.55Q102.8 74.65 65.05 79.45Q61.35 79.9 57.85 77.75L53 73.8L47.55 69.15Q41.6 61.15 36.9 52.8Q55.05 77.2 63.15 78.1Q100.4 73.5 137.45 38.55Q161.05 14.35 167.3 -12.6Q168.35 -16.65 167.95 -24.7Q165.9 -37.85 155.15 -43.7Q167.1 -38.3 169.7 -25.1" />
<radialGradient
id="RadialGradID_4796" gradientUnits="userSpaceOnUse" gradientTransform="matrix(0.0907288, 0.0907288, -0.0907288, 0.0907288, 66.45, -28.45)" spreadMethod ="pad" cx="0" cy="0" r="819.2" fx="210213" fy="0" >
<stop  offset="0"  style="stop-color:#84869B;stop-opacity:1" />
<stop  offset="0.219608"  style="stop-color:#6B6B79;stop-opacity:1" />
<stop  offset="0.470588"  style="stop-color:#292421;stop-opacity:1" />
<stop  offset="0.721569"  style="stop-color:#292421;stop-opacity:1" />
<stop  offset="1"  style="stop-color:#292421;stop-opacity:1" />
</radialGradient>
<path style="fill:url(#RadialGradID_4796) " d="M-6.55,-45.5L-6.85 -56.35L-5.55 -56.9Q0.2 -59.75 6.2 -68.95Q29.2 -95.75 61.95 -93.45Q86.15 -92.85 111.7 -60.7L105.5 -35.15Q103.6 -35.5 102.05 -36.6L102.05 -36.65Q93.3 -53.95 82.2 -63.45Q66.55 -77.3 45.45 -73.95Q35.2 -71.45 27.35 -63.1Q24.65 -57 19.2 -54.2Q8.65 -52.65 -0.15 -48.65Q-1.7 -47.7 -6.3 -45.6L-6.55 -45.5M-6.45,-42Q-1 -44.05 1.6 -45.65Q10.4 -49.65 20.95 -51.2Q23.9 -52.6 25.9 -54.75Q16.25 -40 16.2 -10.2Q17.9 7.75 21.45 12.3L22.1 15.25Q23.95 23.4 26.85 31.25Q30.85 42.2 36.75 52.55L36.9 52.8Q41.6 61.15 47.55 69.15Q50.85 74.05 56.05 78.75Q57.55 80.15 59.5 80.9L59.7 81Q60.35 82.05 62.05 82.7Q60.4 83.6 56.25 81.1Q49.55 74.7 39.35 68.3Q26.75 59.6 18.65 47.25L15.45 42.05L15.35 41.9Q8.6 29.95 2.3 24.65Q0.25 22.9 -1.8 21.9Q-3.35 21.1 -4.9 20.75L-5.35 1.7Q4.6 -8.45 8.45 -18Q15.35 -35.15 4.45 -37.85Q-2.45 -38.95 -6.25 -33.85L-6.45 -42" />
<linearGradient
id="LinearGradID_4797" gradientUnits="userSpaceOnUse" gradientTransform="matrix(0.0662842, 0, 0, 0.0231628, 47.75, -55.65)" spreadMethod ="pad" x1="-819.2" y1="0" x2="819.2" y2="0" >
<stop  offset="0" style="stop-color:#7A7480;stop-opacity:1" />
<stop  offset="0.188235" style="stop-color:#504E59;stop-opacity:1" />
<stop  offset="0.447059" style="stop-color:#70727F;stop-opacity:1" />
<stop  offset="0.54902" style="stop-color:#D2E1FE;stop-opacity:1" />
<stop  offset="0.666667" style="stop-color:#FEF6FF;stop-opacity:1" />
<stop  offset="0.784314" style="stop-color:#E3D6F2;stop-opacity:1" />
<stop  offset="1" style="stop-color:#755F61;stop-opacity:1" />
</linearGradient>
<path style="fill:url(#LinearGradID_4797) " d="M82.45,-60.7Q68.3 -74.3 47.2 -70.95Q36.95 -68.45 29.1 -60.1L25.9 -54.75Q23.9 -52.6 20.95 -51.2Q10.4 -49.65 1.6 -45.65Q-1 -44.05 -6.45 -42Q17.05 -54.9 -6.3 -45.6Q-1.7 -47.7 -0.15 -48.65Q8.65 -52.65 19.2 -54.2Q24.65 -57 27.35 -63.1Q35.2 -71.45 45.45 -73.95Q66.55 -77.3 82.2 -63.45Q93.3 -53.95 102.05 -36.65Q93.15 -51.05 82.45 -60.7" />
<linearGradient
id="LinearGradID_4798" gradientUnits="userSpaceOnUse" gradientTransform="matrix(0.0760498, 0, 0, 0.0775452, 109.85, 18.2)" spreadMethod ="pad" x1="-819.2" y1="0" x2="819.2" y2="0" >
<stop  offset="0" style="stop-color:#FFF1FF;stop-opacity:1" />
<stop  offset="0.266667" style="stop-color:#BFADC5;stop-opacity:1" />
<stop  offset="0.478431" style="stop-color:#6E5E6B;stop-opacity:1" />
<stop  offset="0.615686" style="stop-color:#6B5C73;stop-opacity:1" />
<stop  offset="0.741176" style="stop-color:#FFF4FF;stop-opacity:1" />
<stop  offset="0.847059" style="stop-color:#FDEAFE;stop-opacity:1" />
<stop  offset="0.988235" style="stop-color:#847E8C;stop-opacity:1" />
</linearGradient>
<path style="fill:url(#LinearGradID_4798) " d="M122.45,57.3L116.95 61.55L110.9 64.75Q116.95 61.3 122.45 57.3" />
<radialGradient
id="RadialGradID_4799" gradientUnits="userSpaceOnUse" gradientTransform="matrix(-0.137802, -0.0791168, 0.0675201, -0.117645, -86.55, 14.55)" spreadMethod ="pad" cx="0" cy="0" r="819.2" fx="0" fy="0" >
<stop  offset="0"  style="stop-color:#000000;stop-opacity:1" />
<stop  offset="0.6"  style="stop-color:#000000;stop-opacity:1" />
<stop  offset="1"  style="stop-color:#666F78;stop-opacity:1" />
</radialGradient>
<path style="fill:url(#RadialGradID_4799) " d="M-198.35,-25Q-192.75 -40.1 -182.15 -48Q-175.2 -53.25 -165.05 -55.7L-158.3 -56.1Q-156.3 -42.35 -152.55 -40.95L-149.75 -40.05Q-137.1 -35.95 -126.05 -30.2Q-122.6 -28.75 -121.05 -30.2Q-115.2 -38.55 -109.25 -45.9Q-100.6 -56.7 -91.8 -65.45Q-85.8 -71.5 -86.45 -81.35Q-71.45 -85 -49.5 -79.8L-49.3 -79.75L-48.05 -79.35Q-39.05 -76.05 -21.55 -57.95Q-15.8 -53.85 -13.45 -56Q-10.2 -55.1 -6.85 -56.35L-6.55 -45.5Q-12.45 -43.55 -18.3 -44.7Q-29.2 -43.95 -33.8 -39.45Q-34.6 -35.4 -32.05 -36.45Q-27.45 -40.95 -16.55 -41.7L-6.45 -42L-6.25 -33.85L-6.25 -33.6Q-8 -32.45 -9.95 -33.6Q-22.8 -39.75 -27.8 -33.1Q-30.95 -27.7 -28.2 -20Q-29.95 -20.75 -31.05 -27.5Q-32.85 -20.05 -21.2 -5.1Q-16.7 0.1 -10.65 2.7L-10.05 2.95Q-8 4 -5.35 1.75L-5.35 1.7L-4.9 20.75Q-7.75 20.05 -10.5 20.8Q-19.7 23.2 -30.55 44.3L-32.05 47.3Q-40.35 61.9 -49.35 67.7L-50.4 68.35L-51.3 68.85Q-55.9 71.5 -62.3 78.55Q-65.95 82.7 -69.9 84.8Q-75.95 88.15 -84.85 85.05Q-124.95 73.15 -140.75 57.85Q-146.75 51.8 -155.3 46.3Q-174.35 32.4 -185.6 18.55Q-199.85 -3.8 -198.35 -25M-123.7,64.35Q-114.85 70.9 -105.35 74.55Q-90.15 81.05 -75.3 83.8Q-69.5 84.2 -63.5 77.75L-60.05 73.45L-58.05 70.5Q-54.2 64.4 -50.3 55.55L-47.6 49.55L-47.55 49.5L-47.55 49.45Q-34.65 18.55 -37.05 -20.95Q-38.5 -34.15 -43.05 -43.4Q-49.7 -56.95 -62.95 -62.1Q-67.45 -63.65 -71.95 -63.65L-72.85 -63.6Q-95.8 -60.65 -113.8 -33.7Q-117.05 -28.25 -121 -27.2Q-123.65 -26.5 -126.55 -27.7Q-145.75 -39.2 -158.05 -37.65Q-163.7 -36.95 -167.9 -33.5L-168.55 -32.95L-170.05 -31.25Q-172.15 -28.8 -173.5 -25.9Q-180.2 -12.1 -170.3 10.05Q-158.95 38.85 -126.35 62.5L-123.7 64.35" />
<linearGradient
id="LinearGradID_4800" gradientUnits="userSpaceOnUse" gradientTransform="matrix(0.0299377, 0, 0, 0.0222473, -96.5, -45.45)" spreadMethod ="pad" x1="-819.2" y1="0" x2="819.2" y2="0" >
<stop  offset="0" style="stop-color:#A88A8A;stop-opacity:1" />
<stop  offset="0.227451" style="stop-color:#F0DCDB;stop-opacity:1" />
<stop  offset="0.329412" style="stop-color:#ECD7D6;stop-opacity:1" />
<stop  offset="0.478431" style="stop-color:#D5B6B3;stop-opacity:1" />
<stop  offset="0.721569" style="stop-color:#9B7977;stop-opacity:1" />
<stop  offset="1" style="stop-color:#8A6765;stop-opacity:1" />
</linearGradient>
<path style="fill:url(#LinearGradID_4800) " d="M-121,-27.2Q-117.05 -28.25 -113.8 -33.7Q-95.8 -60.65 -72.85 -63.6L-71.95 -63.65Q-94 -60 -111.4 -33.95Q-115.15 -28.4 -121 -27.2" />
<linearGradient
id="LinearGradID_4801" gradientUnits="userSpaceOnUse" gradientTransform="matrix(0.0168152, 0, 0, 0.00564575, -20.25, -40.9)" spreadMethod ="pad" x1="-819.2" y1="0" x2="819.2" y2="0" >
<stop  offset="0" style="stop-color:#7A7480;stop-opacity:1" />
<stop  offset="0.188235" style="stop-color:#504E59;stop-opacity:1" />
<stop  offset="0.447059" style="stop-color:#70727F;stop-opacity:1" />
<stop  offset="0.54902" style="stop-color:#D2E1FE;stop-opacity:1" />
<stop  offset="0.666667" style="stop-color:#FEF6FF;stop-opacity:1" />
<stop  offset="0.784314" style="stop-color:#E3D6F2;stop-opacity:1" />
<stop  offset="1" style="stop-color:#755F61;stop-opacity:1" />
</linearGradient>
<path style="fill:url(#LinearGradID_4801) " d="M-6.55,-45.5L-6.3 -45.6Q17.05 -54.9 -6.45 -42L-16.55 -41.7Q-27.45 -40.95 -32.05 -36.45Q-34.6 -35.4 -33.8 -39.45Q-29.2 -43.95 -18.3 -44.7Q-12.45 -43.55 -6.55 -45.5" />
<linearGradient
id="LinearGradID_4802" gradientUnits="userSpaceOnUse" gradientTransform="matrix(0.0937195, 0, 0, 0.0463867, -108.85, 56.55)" spreadMethod ="pad" x1="-819.2" y1="0" x2="819.2" y2="0" >
<stop  offset="0" style="stop-color:#323731;stop-opacity:1" />
<stop  offset="0.6" style="stop-color:#4E5357;stop-opacity:1" />
<stop  offset="1" style="stop-color:#564F56;stop-opacity:1" />
</linearGradient>
<path style="fill:url(#LinearGradID_4802) " d="M-185.6,18.55Q-174.35 32.4 -155.3 46.3Q-146.75 51.8 -140.75 57.85Q-124.95 73.15 -84.85 85.05Q-75.95 88.15 -69.9 84.8Q-65.95 82.7 -62.3 78.55Q-55.9 71.5 -51.3 68.85L-50.4 68.35L-49.35 67.7Q-40.35 61.9 -32.05 47.3Q-41.2 64.95 -50.5 78.6Q-54.55 84.5 -58.65 89.7L-58.75 89.85L-58.8 89.9L-59.6 90.75Q-65.65 96.5 -73.8 93.55Q-133.15 78.45 -173.05 35.05Q-180.4 26.7 -185.6 18.55" />
<linearGradient
id="LinearGradID_4803" gradientUnits="userSpaceOnUse" gradientTransform="matrix(0.0774231, 0, 0, 0.0730591, -111.05, 22.2)" spreadMethod ="pad" x1="-819.2" y1="0" x2="819.2" y2="0" >
<stop  offset="0" style="stop-color:#7A4B38;stop-opacity:1" />
<stop  offset="0.176471" style="stop-color:#5A3228;stop-opacity:1" />
<stop  offset="0.321569" style="stop-color:#8D6D61;stop-opacity:1" />
<stop  offset="0.470588" style="stop-color:#8A726C;stop-opacity:1" />
<stop  offset="0.721569" style="stop-color:#B6998D;stop-opacity:1" />
<stop  offset="1" style="stop-color:#BD8E8E;stop-opacity:1" />
</linearGradient>
<path style="fill:url(#LinearGradID_4803) " d="M-47.6,49.55L-50.3 55.55Q-54.2 64.4 -58.05 70.5L-60.05 73.45L-63.5 77.75Q-68.6 82.4 -73.55 82.05Q-93.4 78.4 -113.4 67.85Q-155.4 41.6 -168.55 8.3Q-174.45 -4.9 -174.45 -15.15Q-174.45 -22.35 -171.55 -28.05Q-170.1 -30.95 -167.9 -33.5Q-163.7 -36.95 -158.05 -37.65Q-165.65 -36.5 -170 -28.5Q-174.8 -19.8 -171.5 -4.6Q-170.05 0.45 -167.55 6.05Q-154.4 39.35 -112.8 65.3Q-108.35 68.05 -103.9 70.05L-95.05 73.55L-84.3 77L-73.65 79.4Q-68.7 79.75 -63.6 75.1Q-61.4 73.05 -59.15 70.1L-58.4 69.05Q-55.2 64.55 -49.7 53.4L-49.55 53.1L-47.6 49.55" />
<linearGradient
id="LinearGradID_4804" gradientUnits="userSpaceOnUse" gradientTransform="matrix(0.0687866, 0, 0, 0.0715942, -119.85, 25.15)" spreadMethod ="pad" x1="-819.2" y1="0" x2="819.2" y2="0" >
<stop  offset="0" style="stop-color:#C0ADAD;stop-opacity:1" />
<stop  offset="0.176471" style="stop-color:#EDD9D8;stop-opacity:1" />
<stop  offset="0.227451" style="stop-color:#F0DCDB;stop-opacity:1" />
<stop  offset="0.470588" style="stop-color:#ECD7D6;stop-opacity:1" />
<stop  offset="0.721569" style="stop-color:#C9B6B6;stop-opacity:1" />
<stop  offset="1" style="stop-color:#AC8E8E;stop-opacity:1" />
</linearGradient>
<path style="fill:url(#LinearGradID_4804) " d="M-63.5,77.75Q-69.5 84.2 -75.3 83.8Q-90.15 81.05 -105.35 74.55Q-114.85 70.9 -123.7 64.35L-126.35 62.5Q-158.95 38.85 -170.3 10.05Q-180.2 -12.1 -173.5 -25.9Q-172.15 -28.8 -170.05 -31.25L-168.55 -32.95L-167.9 -33.5Q-170.1 -30.95 -171.55 -28.05Q-174.45 -22.35 -174.45 -15.15Q-174.45 -4.9 -168.55 8.3Q-155.4 41.6 -113.4 67.85Q-93.4 78.4 -73.55 82.05Q-68.6 82.4 -63.5 77.75" />
<linearGradient
id="LinearGradID_4805" gradientUnits="userSpaceOnUse" gradientTransform="matrix(0.0400085, 0, 0, 0.0312805, -120.9, -55.15)" spreadMethod ="pad" x1="-819.2" y1="0" x2="819.2" y2="0" >
<stop  offset="0" style="stop-color:#000000;stop-opacity:1" />
<stop  offset="0.627451" style="stop-color:#000000;stop-opacity:1" />
<stop  offset="1" style="stop-color:#5B5851;stop-opacity:1" />
</linearGradient>
<path style="fill:url(#LinearGradID_4805) " d="M-153.65,-44.15Q-140.35 -38.6 -133.25 -36.15Q-126.05 -33.7 -125.3 -34.45Q-125.1 -41.65 -127.8 -46.9Q-123.45 -46.45 -120.55 -51.95Q-110.4 -68.5 -98.85 -76.05Q-94.3 -79.05 -88.65 -80.75Q-85.85 -71.8 -96.9 -61.25Q-107.95 -50.7 -109.25 -45.9Q-115.2 -38.55 -121.05 -30.2Q-122.6 -28.75 -126.05 -30.2Q-137.1 -35.95 -149.75 -40.05Q-152.1 -41.35 -153.65 -44.15" />
<linearGradient
id="LinearGradID_4806" gradientUnits="userSpaceOnUse" gradientTransform="matrix(0.0156403, -0.00198364, 0.00161743, 0.0127411, -138.25, -44.8)" spreadMethod ="pad" x1="-819.2" y1="0" x2="819.2" y2="0" >
<stop  offset="0" style="stop-color:#323731;stop-opacity:1" />
<stop  offset="0.0235294" style="stop-color:#24252A;stop-opacity:1" />
<stop  offset="0.627451" style="stop-color:#27282C;stop-opacity:1" />
<stop  offset="0.705882" style="stop-color:#41403F;stop-opacity:1" />
<stop  offset="0.768627" style="stop-color:#373738;stop-opacity:1" />
<stop  offset="0.835294" style="stop-color:#2D2F31;stop-opacity:1" />
<stop  offset="0.882353" style="stop-color:#514F49;stop-opacity:1" />
<stop  offset="1" style="stop-color:#5B5851;stop-opacity:1" />
</linearGradient>
<path style="fill:url(#LinearGradID_4806) " d="M-136.55,-44.45Q-152.1 -53.1 -151.1 -55.3Q-141.8 -53.5 -130.95 -47.9Q-129.3 -47.05 -127.8 -46.9Q-125.1 -41.65 -125.3 -34.45Q-126.05 -33.7 -133.25 -36.15Q-132.45 -40.3 -136.55 -44.45" />
<radialGradient
id="RadialGradID_4807" gradientUnits="userSpaceOnUse" gradientTransform="matrix(0.123077, 0, 0, 0.123077, -98.05, 28.55)" spreadMethod ="pad" cx="0" cy="0" r="819.2" fx="0" fy="0" >
<stop  offset="0"  style="stop-color:#FFFFFF;stop-opacity:0.290196" />
<stop  offset="0.203922"  style="stop-color:#F6F3F0;stop-opacity:0.501961" />
<stop  offset="0.494118"  style="stop-color:#E6DCD4;stop-opacity:0.501961" />
<stop  offset="1"  style="stop-color:#856050;stop-opacity:0.690196" />
</radialGradient>
<path style="fill:url(#RadialGradID_4807) " d="M-111.4,-33.95Q-94 -60 -71.95 -63.65Q-67.45 -63.65 -62.95 -62.1Q-49.7 -56.95 -43.05 -43.4Q-38.5 -34.15 -37.05 -20.95Q-34.65 18.55 -47.55 49.45L-47.55 49.5L-47.6 49.55L-49.55 53.1L-49.7 53.4Q-55.2 64.55 -58.4 69.05L-59.15 70.1Q-61.4 73.05 -63.6 75.1Q-68.7 79.75 -73.65 79.4L-84.3 77L-95.05 73.55L-103.9 70.05Q-108.35 68.05 -112.8 65.3Q-154.4 39.35 -167.55 6.05Q-170.05 0.45 -171.5 -4.6Q-174.8 -19.8 -170 -28.5Q-165.65 -36.5 -158.05 -37.65Q-145.75 -39.2 -126.55 -27.7Q-123.65 -26.5 -121 -27.2Q-115.15 -28.4 -111.4 -33.95" />
<radialGradient
id="RadialGradID_4808" gradientUnits="userSpaceOnUse" gradientTransform="matrix(0.139908, 0, 0, 0.139908, 76.9, 34.55)" spreadMethod ="pad" cx="0" cy="0" r="819.2" fx="0" fy="0" >
<stop  offset="0"  style="stop-color:#FFFFFF;stop-opacity:0.501961" />
<stop  offset="0.203922"  style="stop-color:#F6F3F0;stop-opacity:0.501961" />
<stop  offset="0.494118"  style="stop-color:#E6DCD4;stop-opacity:0.501961" />
<stop  offset="1"  style="stop-color:#80614D;stop-opacity:0.690196" />
</radialGradient>
<path style="fill:url(#RadialGradID_4808) " d="M36.9,52.8L36.75 52.55Q30.85 42.2 26.85 31.25Q23.95 23.4 22.1 15.25L21.45 12.3Q19.2 1.7 18.7 -9.45Q18.55 -64.55 50.95 -68.95Q74.65 -71.15 99.7 -38.9Q100.75 -37.5 102.05 -36.6Q103.6 -35.5 105.5 -35.15Q108.55 -34.6 112.45 -35.95Q135.9 -46.75 150.45 -45.45L151.8 -45.3L155.15 -43.7Q165.9 -37.85 167.95 -24.7Q168.35 -16.65 167.3 -12.6Q161.05 14.35 137.45 38.55Q100.4 73.5 63.15 78.1Q55.05 77.2 36.9 52.8" />
<path style="fill:none;stroke-width:0.05;stroke-linecap:round;stroke-linejoin:round;stroke-miterlimit:3;stroke:#000000;stroke-opacity:0.14902" d="M155.15,-43.7Q165.9 -37.85 167.95 -24.7Q168.35 -16.65 167.3 -12.6Q161.05 14.35 137.45 38.55Q100.4 73.5 63.15 78.1Q55.05 77.2 36.9 52.8L36.75 52.55Q30.85 42.2 26.85 31.25Q23.95 23.4 22.1 15.25L21.45 12.3Q19.2 1.7 18.7 -9.45Q18.55 -64.55 50.95 -68.95Q74.65 -71.15 99.7 -38.9Q100.75 -37.5 102.05 -36.6Q103.6 -35.5 105.5 -35.15Q108.55 -34.6 112.45 -35.95Q135.9 -46.75 150.45 -45.45L151.8 -45.3M-32.05,47.3L-30.55 44.3Q-19.7 23.2 -10.5 20.8Q-7.75 20.05 -4.9 20.75Q-3.35 21.1 -1.8 21.9Q0.25 22.9 2.3 24.65Q8.6 29.95 15.35 41.9L15.45 42.05L18.65 47.25Q36.1 75.2 53.85 90.8Q57.65 94.2 66.95 91.3Q108.8 81.05 137.2 60.05L149.8 50.05L150 49.85Q187.6 18.2 196.45 -12.2Q197.5 -16.8 198 -21Q201.5 -51.6 176.2 -65.2Q146.65 -77.6 121.95 -62.7Q115.45 -58.7 111.7 -60.7Q86.15 -92.85 61.95 -93.45Q29.2 -95.75 6.2 -68.95Q0.2 -59.75 -5.55 -56.9L-6.85 -56.35Q-10.2 -55.1 -13.45 -56Q-14.9 -56.4 -16.3 -57.2L-25.4 -67.35Q-34.25 -77.25 -49.9 -84.35Q-82.5 -93.95 -100.1 -82.3Q-111.65 -74.75 -121.8 -58.2Q-125.7 -50.8 -132.2 -54.15M-5.35,1.7Q4.6 -8.45 8.45 -18Q15.35 -35.15 4.45 -37.85Q-2.45 -38.95 -6.25 -33.85L-6.25 -33.6Q-8 -32.45 -9.95 -33.6Q-22.8 -39.75 -27.8 -33.1Q-32.85 -23.95 -19.3 -6.6L-10.55 2.5L-10.05 2.95Q-8 4 -5.35 1.75L-5.35 1.7M59.7,81L59.5 80.9M155.15,-43.7L151.8 -45.3M-166.3,-61.95Q-176.45 -59.5 -183.4 -54.25Q-194 -46.35 -197.4 -32.05Q-198.1 -28.55 -198.35 -25M-158.05,-37.65Q-145.75 -39.2 -126.55 -27.7Q-123.65 -26.5 -121 -27.2M-71.95,-63.65Q-67.45 -63.65 -62.95 -62.1Q-49.7 -56.95 -43.05 -43.4Q-38.5 -34.15 -37.05 -20.95Q-34.65 18.55 -47.55 49.45L-47.55 49.5L-47.6 49.55M-123.7,64.35L-126.35 62.5M-197.4,-32.05L-198.3 -31.2M-158.05,-37.65Q-165.65 -36.5 -170 -28.5Q-174.8 -19.8 -171.5 -4.6Q-170.05 0.45 -167.55 6.05Q-154.4 39.35 -112.8 65.3Q-108.35 68.05 -103.9 70.05L-95.05 73.55L-84.3 77L-73.65 79.4Q-68.7 79.75 -63.6 75.1Q-61.4 73.05 -59.15 70.1L-58.4 69.05Q-55.2 64.55 -49.7 53.4L-49.55 53.1L-47.6 49.55M-10.65,2.7L-10.05 2.95M-32.05,47.3Q-41.2 64.95 -50.5 78.6Q-54.55 84.5 -58.65 89.7L-58.75 89.85L-58.8 89.9L-59.6 90.75Q-65.65 96.5 -73.8 93.55Q-133.15 78.45 -173.05 35.05Q-180.4 26.7 -185.6 18.55Q-199.85 -3.8 -198.35 -25M124.3,55.85L122.45 57.3Q116.95 61.3 110.9 64.75L108.9 65.8L106.35 67.15" />
<path style="fill:none;stroke-width:0.05;stroke-linecap:round;stroke-linejoin:round;stroke-miterlimit:3;stroke:#000000;stroke-opacity:0.14902" d="M-132.2,-54.15Q-151.8 -64.3 -166.3 -61.95M-71.95,-63.65Q-94 -60 -111.4 -33.95Q-115.15 -28.4 -121 -27.2" />
</g>
</svg>
