<?xml version="1.0" encoding="utf-8"?>
<svg version="1.1" id="Layer_1"
xmlns="http://www.w3.org/2000/svg"
xmlns:xlink="http://www.w3.org/1999/xlink"
xmlns:author="http://www.sothink.com"
width="21px" height="4px"
xml:space="preserve">
<g id="624" transform="matrix(1, 0, 0, 1, -60.1, -30.05)">
<path style="fill:#F4F4FE;fill-opacity:1" d="M68.55,31.65L68.15 32.25L68.1 32.3L68.1 32.05L68.15 31.8L68.55 31.6L68.55 31.65" />
<path style="fill:#E0DEE9;fill-opacity:1" d="M68.55,31.6L68.15 31.8L68.1 32.05L68.1 32.3L68.15 32.25L68.55 31.65L68.55 31.6M68.6,32.4L68.3 32.8Q68.1 32.7 68.05 32.25L68.15 31.65L68.6 31.5L69 31.45L68.6 32.4" />
<path style="fill:#B5B5BF;fill-opacity:1" d="M69,31.45L69.05 31.45L69.15 31.45L69.15 31.55L68.8 32.45L68.7 32.6Q68.45 32.9 68.3 32.8L68.6 32.4L69 31.45" />
<path style="fill:#8C8D8F;fill-opacity:1" d="M61.1,31.95L61.05 31.75L60.65 31.75L60.3 31.7L60.15 31.7L60.1 31.5L60.1 31.45L60.3 31.5L60.75 31.5L60.9 31.35L60.95 31.05L61.1 31.95M69.3,31.05L69.35 31L69.45 30.9Q69.85 30.65 70.4 30.65L70.55 30.7L70.55 30.85L70.4 30.85L70.15 30.85L70.05 30.9L69.95 30.9L69.85 30.9L69.7 30.95L69.55 31.05L69.5 31.1L69.25 31.2L68.95 31.25L69.05 31.15L69.3 31.05" />
<path style="fill:#A2A2A2;fill-opacity:1" d="M69.05,31.15L68.95 31.25L68.95 31.35L68.9 31.05L68.9 30.95L69.1 30.95L69.3 31.05L69.05 31.15" />
<path style="fill:#BABABA;fill-opacity:1" d="M60.25,31.1L60.25 31.35L60.4 31.35L60.9 31.35L60.75 31.5L60.3 31.5L60.1 31.45L60.1 31.4L60.1 31.35L60.1 31.25L60.15 31.1L60.25 31.1" />
<path style="fill:#D1D1D3;fill-opacity:1" d="M62.5,33.3L62.15 33.1L61.8 32.7L61.75 32.65L61.8 32.65L61.7 32.5L61.6 32.3L61.5 32.15L61.5 32.1L61.45 32.1L61.45 32.05L61.2 31.25Q61.2 31 61.35 30.8L61.3 30.95L61.5 31.65L61.6 31.85L61.7 32.1L61.75 32.25L62 32.6L62.35 33L62.5 33.1L62.95 33.4L63.5 33.6L63.15 33.55L62.9 33.5L62.55 33.3L62.5 33.3" />
<path style="fill:#828385;fill-opacity:1" d="M62.5,33.3L62.55 33.3L62.9 33.5L63.15 33.55L63.5 33.6L63.85 33.65L65.3 33.75Q66.5 33.75 67.4 33L68.35 31.8L68.35 31.75L68.4 31.6L68.35 31.6L68.4 31.5L68.4 31.25L68.4 31.2L68.4 31.1L68.2 30.75L68.15 30.75L68.1 30.75L68.05 30.75L67.95 30.7L67.9 30.7L67.65 30.65L65.95 30.5L65.9 30.5L65.6 30.45L65.4 30.45L64.6 30.45L64.5 30.45L64 30.45L63.1 30.5L62.9 30.5L61.7 30.8L61.6 30.95L61.55 31L61.55 31.6L61.55 31.65L61.6 31.85L61.5 31.65L61.3 30.95L61.35 30.8Q61.75 30.2 63.2 30.2L64.1 30.25L65.05 30.2Q68.35 30.2 68.65 31.2L68.7 31.35Q68.7 32.05 67.4 33.3L67.05 33.45Q66.95 33.55 66.8 33.6L66.4 33.75L66 33.9L65.6 34L64.85 34L63.3 33.8L63.15 33.8L63.05 33.75L62.7 33.6L62.6 33.5L62.5 33.45L62.45 33.45L62.4 33.4L62.35 33.4L62.25 33.3L61.95 33.05L61.9 33.05L61.8 32.95L61.45 32.55L62.5 33.3" />
<path style="fill:#F2F2F2;fill-opacity:1" d="M60.4,31.35L60.25 31.35L60.25 31.1L60.45 31.05L60.95 31.05L60.9 31.35L60.4 31.35M70.4,30.65Q69.85 30.65 69.45 30.9L69.35 31L69.3 31.05L69.1 30.95L69.2 30.9L69.55 30.7L69.65 30.65L70.4 30.5L70.55 30.55L70.55 30.7L70.4 30.65" />
<path style="fill:#ABABAB;fill-opacity:1" d="M68.4,31.6L68.35 31.75L68.35 31.8L67.4 33Q66.5 33.75 65.3 33.75L63.85 33.65L63.5 33.6L62.95 33.4L62.5 33.1L62.35 33L62 32.6L61.75 32.25L61.7 32.1L61.6 31.85L61.55 31.65L61.55 31.6L61.55 31L61.55 31.3L61.6 31.5L61.8 32.1L61.85 32.2L62.05 32.45L62.15 32.6L62.35 32.85L62.4 32.9L62.55 33L62.75 33.15L62.9 33.2L63 33.25L63.05 33.25L63.3 33.35L63.4 33.4L64.9 33.6L65.45 33.6L65.65 33.55L65.95 33.45L66.15 33.4L66.35 33.3L66.4 33.3L66.5 33.2L66.65 33.15L67.35 32.8L67.35 32.75L67.5 32.65L67.65 32.55L68 32.1L68.05 32.05L68.25 31.8L68.3 31.8L68.35 31.6L68.4 31.6" />
<path style="fill:#A6A6A6;fill-opacity:1" d="M68.95,31.35L68.95 31.4L68.6 32.1L68.45 32.35L68.3 32.5L68 32.8L67.95 32.85L67.4 33.3Q68.7 32.05 68.7 31.35L68.65 31.2Q68.35 30.2 65.05 30.2L64.1 30.25L63.2 30.2Q61.75 30.2 61.35 30.8Q61.2 31 61.2 31.25L61.45 32.05L61.45 32.1L61.5 32.1L61.5 32.15L61.6 32.3L61.7 32.5L61.8 32.65L61.75 32.65L61.8 32.7L62.15 33.1L62.5 33.3L61.45 32.55L61.35 32.35L61.3 32.3L61.25 32.2L61.15 32L61.1 31.95L60.95 31.05L61 31.05L61 31L61 30.95Q61.1 30.5 61.45 30.3L62.2 30.15L64.35 30.05L64.85 30.05L65.45 30.05L65.6 30.1L65.95 30.1L68.15 30.25L68.55 30.5L68.75 30.7L68.9 30.9L68.9 30.95L68.9 31.05L68.95 31.35" />
<radialGradient
id="RadialGradID_4950" gradientUnits="userSpaceOnUse" gradientTransform="matrix(-0.00695801, 0, 0, 0.00665283, 67.7, 29.35)" spreadMethod ="pad" cx="0" cy="0" r="819.2" fx="0" fy="0" >
<stop  offset="0"  style="stop-color:#FFFFFF;stop-opacity:1" />
<stop  offset="0.517647"  style="stop-color:#F5F6FA;stop-opacity:1" />
<stop  offset="1"  style="stop-color:#D9D9D9;stop-opacity:1" />
</radialGradient>
<path style="fill:url(#RadialGradID_4950) " d="M64,30.25L63.1 30.25L64 30.2L64.2 30.15L64.45 30.15L65.1 30.15L65.6 30.15L66.55 30.2L68.3 30.45L68.75 30.85L68.75 31.5L67.8 32.85Q68.65 31.85 68.6 31.35Q68.6 30.9 68.2 30.65L66.8 30.35L65.6 30.3L65 30.3L64.45 30.3L64.4 30.3L64.1 30.25L64 30.25" />
<radialGradient
id="RadialGradID_4951" gradientUnits="userSpaceOnUse" gradientTransform="matrix(-0.00794983, 0, 0, 0.00775146, 59.6, 29.75)" spreadMethod ="pad" cx="0" cy="0" r="819.2" fx="0" fy="0" >
<stop  offset="0"  style="stop-color:#FFFFFF;stop-opacity:1" />
<stop  offset="0.517647"  style="stop-color:#F5F6FA;stop-opacity:1" />
<stop  offset="1"  style="stop-color:#D9D9D9;stop-opacity:1" />
</radialGradient>
<path style="fill:url(#RadialGradID_4951) " d="M64,30.2L63.1 30.25L64 30.25L62 30.45L61.8 30.5Q61.3 30.75 61.35 31.15L61.45 31.8L62.2 33.15L61.25 31.75L61.1 31L61.35 30.5Q61.6 30.3 62.2 30.25L62.85 30.15L64.2 30.15L64 30.2" />
<radialGradient
id="RadialGradID_4952" gradientUnits="userSpaceOnUse" gradientTransform="matrix(-0.00231934, -0.00273132, -0.00361633, 0.00289917, 64.95, 32.5)" spreadMethod ="pad" cx="0" cy="0" r="819.2" fx="0" fy="0" >
<stop  offset="0"  style="stop-color:#FFFFFF;stop-opacity:1" />
<stop  offset="0.517647"  style="stop-color:#F5F6FA;stop-opacity:1" />
<stop  offset="1"  style="stop-color:#D9D9D9;stop-opacity:1" />
</radialGradient>
<path style="fill:url(#RadialGradID_4952) " d="M65.05,33.7L65.6 33.65L66.4 33.4L67.45 32.85L66.6 33.5L65.6 33.8L64.9 33.85L63.8 33.7L62.75 33.3L64.55 33.65L65.05 33.7" />
<path style="fill:#F4F4FE;fill-opacity:1" d="M72.35,32.3L72.35 32.25L71.9 31.65L71.95 31.6L72.35 31.8L72.4 32.05L72.4 32.3L72.35 32.3" />
<path style="fill:#E0DEE9;fill-opacity:1" d="M72.4,32.3L72.4 32.05L72.35 31.8L71.95 31.6L71.9 31.65L72.35 32.25L72.35 32.3L72.4 32.3M71.85,32.4L71.45 31.45L71.9 31.5L72.3 31.65L72.45 32.25L72.2 32.8L71.85 32.4" />
<path style="fill:#B5B5BF;fill-opacity:1" d="M71.45,31.45L71.85 32.4L72.2 32.8L72.15 32.8Q72 32.9 71.8 32.6L71.65 32.45L71.3 31.55L71.35 31.45L71.4 31.45L71.45 31.45" />
<path style="fill:#8C8D8F;fill-opacity:1" d="M79.3,31.95L79.4 31.75L79.75 31.75L80.15 31.7L80.3 31.7L80.3 31.5L80.3 31.45L80.1 31.5L79.65 31.5L79.5 31.35L79.45 31.05L79.3 31.95M71.15,31.05L71.1 31L70.95 30.9Q70.55 30.65 70 30.65L69.9 30.7L69.9 30.85L70 30.85L70.3 30.85L70.4 30.9L70.5 30.9L70.55 30.9L70.75 30.95L70.85 31.05L70.9 31.05L70.95 31.1L71.15 31.2L71.45 31.25L71.4 31.15L71.15 31.05" />
<path style="fill:#A2A2A2;fill-opacity:1" d="M71.4,31.15L71.45 31.25L71.5 31.25L71.5 31.35L71.55 31.05L71.55 30.95L71.5 30.95L71.35 30.95L71.3 30.95L71.15 31.05L71.4 31.15" />
<path style="fill:#BABABA;fill-opacity:1" d="M80.2,31.1L80.15 31.35L80.05 31.35L79.5 31.35L79.65 31.5L80.1 31.5L80.3 31.45L80.3 31.4L80.3 31.35L80.3 31.25L80.3 31.1L80.2 31.1" />
<path style="fill:#D1D1D3;fill-opacity:1" d="M76.95,33.6L77.25 33.55L77.5 33.5L77.9 33.3L77.95 33.3L78.25 33.1L78.65 32.7L78.65 32.65L78.7 32.5L78.8 32.3L78.9 32.15L78.95 32.1L78.95 32.05L79.25 31.25L79.1 30.8L79.1 30.95L78.9 31.65L78.85 31.85L78.75 32.1L78.65 32.25L78.4 32.6L78.05 33L77.95 33.1L77.45 33.4L76.95 33.6" />
<path style="fill:#828385;fill-opacity:1" d="M73.05,33.3L73.35 33.45L73.6 33.6L74 33.75L74.4 33.9L74.85 34L75.55 34L77.15 33.8L77.25 33.8L77.35 33.75L77.7 33.6L77.85 33.5L77.95 33.45L78 33.45L78.05 33.4L78.15 33.3L78.5 33.05L78.6 32.95L78.95 32.55L77.95 33.3L77.9 33.3L77.5 33.5L77.25 33.55L76.95 33.6L76.6 33.65L75.15 33.75Q73.95 33.75 73.05 33L72.05 31.8L72.05 31.75L72.05 31.6L72.05 31.5L72 31.25L72 31.2L72.05 31.1L72.25 30.75L72.3 30.75L72.4 30.75L72.45 30.7L72.55 30.7L72.75 30.65L74.5 30.5L74.85 30.45L75 30.45L75.85 30.45L75.95 30.45L76.4 30.45L77.3 30.5L77.55 30.5L78.75 30.8L78.85 30.95L78.85 31L78.9 31.6L78.85 31.65L78.85 31.85L78.9 31.65L79.1 30.95L79.1 30.8Q78.7 30.2 77.2 30.2L76.3 30.25L75.35 30.2Q72.1 30.2 71.75 31.2L71.75 31.35Q71.75 32.05 73.05 33.3" />
<path style="fill:#F2F2F2;fill-opacity:1" d="M80.05,31.35L80.15 31.35L80.2 31.1L79.95 31.05L79.45 31.05L79.5 31.35L80.05 31.35M70,30.65Q70.55 30.65 70.95 30.9L71.1 31L71.15 31.05L71.3 30.95L71.35 30.95L71.25 30.9L71.2 30.9L70.9 30.7L70.85 30.7L70.8 30.65L70.05 30.5L69.9 30.55L69.9 30.7L70 30.65" />
<path style="fill:#ABABAB;fill-opacity:1" d="M77.45,33.4L77.95 33.1L78.05 33L78.4 32.6L78.65 32.25L78.75 32.1L78.85 31.85L78.85 31.65L78.9 31.6L78.85 31L78.85 31.3L78.85 31.5L78.65 32.1L78.55 32.2L78.4 32.45L78.3 32.6L78.05 32.85L78 32.9L77.9 33L77.65 33.15L77.55 33.2L77.4 33.25L77.35 33.25L77.1 33.35L77 33.4L75.55 33.6L75 33.6L74.75 33.55L74.45 33.45L74.3 33.4L74.05 33.3L73.9 33.2L73.75 33.15L73.1 32.8L73.05 32.75L72.95 32.65L72.8 32.55L72.4 32.1L72.35 32.05L72.15 31.8L72.05 31.6L72.05 31.75L72.05 31.8L73.05 33Q73.95 33.75 75.15 33.75L76.6 33.65L76.95 33.6L77.45 33.4" />
<path style="fill:#A6A6A6;fill-opacity:1" d="M71.5,31.35L71.5 31.4L71.8 32.1L72 32.35L72.1 32.5L72.4 32.8L72.45 32.8L72.5 32.85L73.05 33.3Q71.75 32.05 71.75 31.35L71.75 31.2Q72.1 30.2 75.35 30.2L76.3 30.25L77.2 30.2Q78.7 30.2 79.1 30.8L79.25 31.25L78.95 32.05L78.95 32.1L78.9 32.15L78.8 32.3L78.7 32.5L78.65 32.65L78.65 32.7L78.25 33.1L77.95 33.3L78.95 32.55L79.1 32.35L79.1 32.3L79.2 32.2L79.3 32L79.3 31.95L79.45 31.05L79.45 31L79.4 30.95L78.95 30.3L78.2 30.15L76.05 30.05L75.55 30.05L75 30.05L74.8 30.1L74.5 30.1L72.3 30.25L71.85 30.5L71.7 30.7L71.55 30.9L71.5 30.95L71.55 30.95L71.55 31.05L71.5 31.35" />
<radialGradient
id="RadialGradID_4953" gradientUnits="userSpaceOnUse" gradientTransform="matrix(0.00695801, 0, 0, 0.00665283, 72.7, 29.35)" spreadMethod ="pad" cx="0" cy="0" r="819.2" fx="0" fy="0" >
<stop  offset="0"  style="stop-color:#FFFFFF;stop-opacity:1" />
<stop  offset="0.517647"  style="stop-color:#F5F6FA;stop-opacity:1" />
<stop  offset="1"  style="stop-color:#D9D9D9;stop-opacity:1" />
</radialGradient>
<path style="fill:url(#RadialGradID_4953) " d="M76.45,30.25L77.35 30.25L76.4 30.2L76.2 30.15L76 30.15L75.3 30.15L74.8 30.15L73.9 30.2L72.15 30.45L71.7 30.85Q71.6 31.05 71.65 31.5Q71.7 32 72.6 32.85Q71.75 31.85 71.8 31.35Q71.85 30.9 72.25 30.65L73.6 30.35L74.8 30.3L75.4 30.3L75.95 30.3L76 30.3L76.35 30.25L76.45 30.25" />
<radialGradient
id="RadialGradID_4954" gradientUnits="userSpaceOnUse" gradientTransform="matrix(0.00794983, 0, 0, 0.00775146, 80.8, 29.75)" spreadMethod ="pad" cx="0" cy="0" r="819.2" fx="0" fy="0" >
<stop  offset="0"  style="stop-color:#FFFFFF;stop-opacity:1" />
<stop  offset="0.517647"  style="stop-color:#F5F6FA;stop-opacity:1" />
<stop  offset="1"  style="stop-color:#D9D9D9;stop-opacity:1" />
</radialGradient>
<path style="fill:url(#RadialGradID_4954) " d="M76.4,30.2L77.35 30.25L76.45 30.25L78.45 30.45L78.6 30.5Q79.1 30.75 79.1 31.15L79 31.8L78.2 33.15L79.2 31.75L79.3 31L79.05 30.5L78.2 30.25L77.55 30.15L76.2 30.15L76.4 30.2" />
<radialGradient
id="RadialGradID_4955" gradientUnits="userSpaceOnUse" gradientTransform="matrix(0.00231934, -0.00273132, 0.00361633, 0.00289917, 75.45, 32.5)" spreadMethod ="pad" cx="0" cy="0" r="819.2" fx="0" fy="0" >
<stop  offset="0"  style="stop-color:#FFFFFF;stop-opacity:1" />
<stop  offset="0.517647"  style="stop-color:#F5F6FA;stop-opacity:1" />
<stop  offset="1"  style="stop-color:#D9D9D9;stop-opacity:1" />
</radialGradient>
<path style="fill:url(#RadialGradID_4955) " d="M75.35,33.7L74.85 33.65L74 33.4L72.95 32.85Q73.35 33.3 73.85 33.5L74.85 33.8L75.55 33.85L76.6 33.7L77.65 33.3L75.9 33.65L75.35 33.7" />
</g>
</svg>
