<?xml version="1.0" encoding="utf-8"?>
<svg version="1.1" id="Layer_1"
xmlns="http://www.w3.org/2000/svg"
xmlns:xlink="http://www.w3.org/1999/xlink"
xmlns:author="http://www.sothink.com"
width="21px" height="5px"
xml:space="preserve">
<g id="615" transform="matrix(1, 0, 0, 1, -59.95, -37.35)">
<path style="fill:#5D2C0E;fill-opacity:0.952941" d="M79.9,37.8L79.75 37.75L80.15 37.85L80.15 37.9L79.9 37.8" />
<path style="fill:#888A74;fill-opacity:0.901961" d="M79.75,37.75L79.5 37.7L79.45 37.6L79.5 37.65L80.15 37.85L79.75 37.75" />
<path style="fill:#061208;fill-opacity:0.952941" d="M79.9,38.9L80.15 38.95L80.1 39.5L79.7 39.25L79.85 39.15L79.9 38.9M79.9,37.8L79.5 37.75L79.5 37.7L79.75 37.75L79.9 37.8M79.8,38.35L79.75 38.3L80.05 38.3L80.1 38.45L79.85 38.4L79.8 38.35" />
<path style="fill:#4C460A;fill-opacity:0.952941" d="M80.15,38.45L80.05 38.1L79.7 38.15L80.1 38L80.2 38L80.15 38.4L80.15 38.45" />
<path style="fill:#574A13;fill-opacity:0.952941" d="M80.1,38L79.7 37.9L79.65 38.15L79.75 38.3L79.8 38.35L79.75 38.35L79.4 38.35L79.55 38.3L79.6 38.3L79.55 38.25L79.6 38.15L79.65 37.85L79.65 37.8L80.2 37.95L80.2 38L80.1 38" />
<path style="fill:#CFC7B4;fill-opacity:0.901961" d="M80.15,37.9L80.2 37.95L79.65 37.8L79.5 37.8L79.45 37.75L79.5 37.75L79.9 37.8L80.15 37.9" />
<path style="fill:#44370D;fill-opacity:0.952941" d="M79.7,38.15L80.05 38.1L80.15 38.45L80.1 38.45L80.05 38.3L79.75 38.3L79.65 38.15L79.7 38.15" />
<path style="fill:#8C0300;fill-opacity:0.901961" d="M79.35,37.65L79.15 37.65L79.15 37.7L79.05 37.7L79 37.65L78.95 37.6L79.05 37.55L79.3 37.6L79.35 37.65" />
<path style="fill:#DC8945;fill-opacity:0.901961" d="M79.45,37.75L79.35 37.75L79.35 37.65L79.3 37.6L79.45 37.6L79.5 37.7L79.5 37.75L79.45 37.75" />
<path style="fill:#061107;fill-opacity:0.952941" d="M79.35,37.75L79.15 37.7L79.15 37.65L79.35 37.65L79.35 37.75" />
<path style="fill:#E1D59B;fill-opacity:0.85098" d="M78.9,37.65L79 37.65L79.05 37.7L79.15 37.7L79.35 37.75L79.45 37.75L79.5 37.8L79.35 37.85L79.05 37.75L78.75 37.7L78.7 37.7L78.45 37.55L78.8 37.65L78.85 37.65L78.9 37.65" />
<path style="fill:#925304;fill-opacity:0.85098" d="M79.35,37.85L79.5 37.8L79.65 37.8L79.65 37.85L79.5 37.85L79.35 37.85" />
<path style="fill:#E0CA64;fill-opacity:0.85098" d="M79.45,38.15L79.4 38.15L79.5 37.85L79.65 37.85L79.6 38.15L79.45 38.15" />
<path style="fill:#C46225;fill-opacity:0.85098" d="M79.4,38.05L79.3 38.1L79.35 37.95L79.4 38.05" />
<path style="fill:#FFDB91;fill-opacity:0.85098" d="M78.4,37.75L78.35 37.7L78.3 37.7L78.2 37.7L78.55 37.7L78.7 37.7L78.75 37.7L79.05 37.75L79.35 37.85L79.15 37.9L79.05 37.85L79 37.85L78.95 37.85L78.9 37.85L78.55 37.75L78.4 37.75" />
<path style="fill:#E8D763;fill-opacity:0.85098" d="M79.2,38.2L79.4 38.15L79.45 38.15L79.35 38.2L79.2 38.25L79.4 38.2L79.35 38.25L79.2 38.3L79.1 38.3L79.05 38.15L79 38.1L79.2 38.2" />
<path style="fill:#694F02;fill-opacity:0.85098" d="M79.4,38.2L79.2 38.25L79.35 38.2L79.4 38.2" />
<path style="fill:#AA971F;fill-opacity:0.85098" d="M79.4,38.2L79.35 38.2L79.45 38.15L79.6 38.15L79.4 38.2" />
<path style="fill:#825204;fill-opacity:0.85098" d="M79.4,38.3L79.35 38.25L79.4 38.2L79.6 38.15L79.55 38.25L79.4 38.3" />
<path style="fill:#A75718;fill-opacity:0.85098" d="M79.2,37.95L79.35 37.95L79.3 38.1L79.2 37.95" />
<path style="fill:#30310F;fill-opacity:0.952941" d="M79.7,38.15L79.65 38.15L79.7 37.9L80.1 38L79.7 38.15" />
<path style="fill:#703509;fill-opacity:0.952941" d="M79.9,38.55L80.15 38.45L80.15 38.85L80.1 38.85L79.9 38.55" />
<path style="fill:#5C2306;fill-opacity:0.952941" d="M80.15,38.4L80.15 38.45L79.9 38.55L79.85 38.4L80.1 38.45L80.15 38.45L80.15 38.4" />
<path style="fill:#72320C;fill-opacity:0.952941" d="M79.75,38.35L79.8 38.5L79.8 38.85L79.8 38.9L79.75 39.05L79.75 38.85L79.75 38.8L79.75 38.75L79.75 38.7L79.75 38.45L79.75 38.4L79.75 38.35" />
<path style="fill:#85A469;fill-opacity:0.952941" d="M79.5,38.7L79.7 38.45L79.75 38.45L79.5 38.7" />
<path style="fill:#66732B;fill-opacity:0.952941" d="M79.7,38.45L79.75 38.4L79.75 38.45L79.7 38.45M79.35,38.4L79.3 38.4L79.35 38.4" />
<path style="fill:#98B178;fill-opacity:0.952941" d="M79.5,38.7L79.75 38.45L79.75 38.7L79.5 38.7" />
<path style="fill:#933C0F;fill-opacity:0.952941" d="M79.8,38.5L79.75 38.35L79.8 38.35L79.85 38.4L79.9 38.55L80.1 38.85L79.95 38.9L79.8 38.5" />
<path style="fill:#ECB773;fill-opacity:0.85098" d="M79.55,38.25L79.55 38.3L79.4 38.35L79.35 38.4L79.4 38.3L79.55 38.25M79.3,38.7L79.2 38.7L79.2 38.5L79.3 38.4L79.3 38.7" />
<path style="fill:#644002;fill-opacity:0.85098" d="M79.2,38.3L79.35 38.25L79.4 38.3L79.35 38.4L79.3 38.4L79.2 38.5L79.2 38.3" />
<path style="fill:#855517;fill-opacity:0.952941" d="M79.35,38.7L79.35 38.75L79.3 38.8L79.35 39.05L79.3 39.05L79.25 38.95L79.3 38.75L79.3 38.7L79.3 38.4L79.35 38.4L79.3 38.4L79.35 38.4L79.4 38.35L79.75 38.35L79.75 38.4L79.7 38.45L79.65 38.45L79.35 38.45L79.35 38.7" />
<path style="fill:#8F9E5D;fill-opacity:0.952941" d="M79.35,38.7L79.35 38.45L79.4 38.7L79.35 38.7" />
<path style="fill:#B8B159;fill-opacity:0.952941" d="M79.35,38.7L79.35 38.45L79.35 38.7" />
<path style="fill:#689445;fill-opacity:0.952941" d="M79.5,38.7L79.4 38.7L79.35 38.45L79.65 38.45L79.7 38.45L79.5 38.7" />
<path style="fill:#2F400C;fill-opacity:0.952941" d="M79.65,38.8L79.6 38.8L79.5 38.8L79.5 38.75L79.6 38.75L79.65 38.8" />
<path style="fill:#9C783E;fill-opacity:0.952941" d="M79.4,38.75L79.5 38.75L79.5 38.8L79.4 38.8L79.4 38.75" />
<path style="fill:#41692A;fill-opacity:0.952941" d="M79.75,38.7L79.75 38.75L79.6 38.75L79.5 38.75L79.5 38.7L79.75 38.7M79.5,38.8L79.6 38.8L79.75 38.8L79.75 38.85L79.65 38.85L79.5 38.85L79.5 38.8" />
<path style="fill:#7D7137;fill-opacity:0.952941" d="M79.4,38.75L79.4 38.7L79.5 38.7L79.5 38.75L79.4 38.75" />
<path style="fill:#785213;fill-opacity:0.952941" d="M79.35,38.75L79.35 38.7L79.4 38.7L79.4 38.75L79.35 38.75M79.3,38.8L79.4 38.8L79.4 38.85L79.35 38.85L79.3 38.8" />
<path style="fill:#512F00;fill-opacity:0.952941" d="M79.4,38.75L79.4 38.8L79.3 38.8L79.35 38.75L79.4 38.75" />
<path style="fill:#B49248;fill-opacity:0.952941" d="M79.35,39.05L79.3 38.8L79.35 38.85L79.35 39.05" />
<path style="fill:#798A43;fill-opacity:0.952941" d="M79.4,39.05L79.35 39.05L79.35 38.85L79.4 38.85L79.5 38.85L79.65 38.85L79.55 38.9L79.4 39.05" />
<path style="fill:#508D63;fill-opacity:0.952941" d="M79.55,38.9L79.6 39.1L79.4 39.05L79.55 38.9" />
<path style="fill:#886E24;fill-opacity:0.952941" d="M79.5,38.85L79.4 38.85L79.4 38.8L79.5 38.8L79.5 38.85" />
<path style="fill:#7A3500;fill-opacity:0.952941" d="M79.95,38.9L79.8 38.85L79.8 38.5L79.95 38.9" />
<path style="fill:#7E4B16;fill-opacity:0.952941" d="M79.6,38.8L79.65 38.8L79.6 38.75L79.75 38.75L79.75 38.8L79.6 38.8" />
<path style="fill:#6A2B0A;fill-opacity:0.952941" d="M79.9,38.9L79.8 38.9L79.8 38.85L79.95 38.9L80.1 38.85L80.15 38.85L80.15 38.9L79.9 38.9" />
<path style="fill:#341900;fill-opacity:0.952941" d="M79.55,39.25L79.55 39.15L79.35 39.05L79.4 39.05L79.6 39.1L79.55 38.9L79.65 38.85L79.75 38.85L79.75 39.05L79.8 38.9L79.9 38.9L80.15 38.9L80.15 38.95L79.9 38.9L79.85 39.15L79.7 39.25L80.1 39.5L80.1 39.55L80 39.55L79.75 39.5L79.55 39.3L79.55 39.25" />
<path style="fill:#B3283F;fill-opacity:0.85098" d="M77.45,37.6L77.75 37.6L77.85 37.6L77.8 37.65L77.75 37.65L77.65 37.65L77.5 37.65L77.45 37.65L77.45 37.6" />
<path style="fill:#DB9D92;fill-opacity:0.85098" d="M77.65,37.65L77.75 37.65L77.8 37.65L77.85 37.6L77.75 37.6L77.45 37.6L77.5 37.55L77.55 37.55L77.7 37.6L77.8 37.6L77.95 37.6L77.75 37.65L77.7 37.65L77.5 37.65L77.65 37.65" />
<path style="fill:#B4C692;fill-opacity:0.85098" d="M78.1,37.7L78.2 37.7L78.3 37.7L78.35 37.7L78.4 37.75L78.75 37.85L77.85 37.7L77.6 37.7L77.2 37.7L76.6 37.7L76.05 37.7L75.4 37.7L75 37.75L74.5 37.75L74.1 37.8L73.35 37.85L72.2 38L72.6 37.95L74.25 37.7L74.55 37.7L74.6 37.7L76.05 37.65L76.15 37.65L77.05 37.65L77.1 37.65L77.5 37.65L77.7 37.65L77.75 37.65L77.85 37.7L77.9 37.7L78.1 37.7" />
<path style="fill:#CFA984;fill-opacity:0.85098" d="M77.95,37.6L77.8 37.6L78.45 37.65L77.9 37.7L77.85 37.7L77.75 37.65L77.95 37.6" />
<path style="fill:#E7EDD3;fill-opacity:0.85098" d="M78.45,37.65L77.8 37.6L77.7 37.6L77.55 37.55L77.5 37.55L76.85 37.55L76.75 37.55L76.6 37.55L76 37.6L75.9 37.6L75.1 37.6L75.85 37.5L76.3 37.5L77 37.5L77.1 37.5L77.85 37.5L78.4 37.55L78.45 37.55L78.7 37.7L78.45 37.65" />
<path style="fill:#ECF7E6;fill-opacity:0.85098" d="M77.1,37.6L77.15 37.6L77.4 37.6L77.45 37.6L77.45 37.65L77.5 37.65L77.1 37.65L77.1 37.6" />
<path style="fill:#F5FEFF;fill-opacity:0.85098" d="M78.8,37.9L78.85 37.9L78.9 37.95L78.9 38L78.95 38L78.8 38.05L77.95 37.85L77.25 37.75L76.9 37.75L76.85 37.75L76 37.75L75.4 37.7L76.05 37.7L76.6 37.7L77.2 37.7L77.6 37.7L77.85 37.7L78.75 37.85L78.8 37.9" />
<path style="fill:#999981;fill-opacity:0.85098" d="M76.85,37.55L77.5 37.55L77.45 37.6L77.4 37.6L77.15 37.6L77.1 37.6L77.1 37.65L77.05 37.65L76.85 37.55" />
<path style="fill:#C0B295;fill-opacity:0.85098" d="M76.45,37.45L76 37.4L76.65 37.4L78.45 37.5L77.85 37.5L77.1 37.5L77 37.5L76.45 37.45" />
<path style="fill:#E7C7B2;fill-opacity:0.901961" d="M75,37.75L75.4 37.7L76 37.75L76.85 37.75L76.9 37.75L77.25 37.75L77.95 37.85L78.8 38.05L78.7 38.05L78.55 38L76.7 37.8L75.05 37.75L74.7 37.8L75 37.75" />
<path style="fill:#A1AE69;fill-opacity:0.85098" d="M77.05,37.65L76.15 37.65L76 37.6L76.6 37.55L76.75 37.55L76.85 37.55L77.05 37.65" />
<path style="fill:#E3A710;fill-opacity:0.901961" d="M79,37.65L78.9 37.65L78.85 37.65L78.85 37.6L78.9 37.55L79.05 37.55L78.95 37.6L79 37.65" />
<path style="fill:#F7FDD9;fill-opacity:0.85098" d="M75.95,37.4L75.85 37.4L75.5 37.4L74.5 37.45L73.3 37.55L73.25 37.55L72.4 37.65L71.45 37.85L71.35 37.85L71.6 37.75L71.65 37.75L73.4 37.45L76.65 37.35L79 37.5L79.05 37.55L78.9 37.55L78.8 37.5L78.7 37.5L78.45 37.5L76.65 37.4L76 37.4L75.95 37.4M79.45,37.6L79.3 37.6L79.05 37.55L79.5 37.65L79.45 37.6" />
<path style="fill:#965702;fill-opacity:0.901961" d="M78.7,37.5L78.8 37.5L78.9 37.55L78.85 37.6L78.85 37.65L78.8 37.65L78.7 37.5" />
<path style="fill:#EFBD9A;fill-opacity:0.85098" d="M78.2,37.7L78.1 37.7L77.9 37.7L78.45 37.65L78.7 37.7L78.55 37.7L78.2 37.7" />
<path style="fill:#F4E66C;fill-opacity:0.85098" d="M78.45,37.5L78.7 37.5L78.8 37.65L78.45 37.55L78.4 37.55L77.85 37.5L78.45 37.5" />
<path style="fill:#CB8F2F;fill-opacity:0.85098" d="M79,38.1L79 38.05L78.95 38.05L78.95 38L78.9 38L78.9 37.95L79 38L79 37.95L79.05 38L79.15 38L79.15 37.9L79.35 37.85L79.5 37.85L79.4 38.15L79.2 38.2L79 38.1M79.35,37.95L79.2 37.95L79.3 38.1L79.4 38.05L79.35 37.95" />
<path style="fill:#D1C451;fill-opacity:0.85098" d="M78.9,37.95L78.85 37.9L78.8 37.9L78.75 37.85L78.4 37.75L78.55 37.75L78.9 37.85L78.95 37.85L79 37.95L79 38L78.9 37.95" />
<path style="fill:#C76121;fill-opacity:0.85098" d="M79,37.95L78.95 37.85L79 37.85L79.05 37.85L79.15 37.9L79.15 38L79.05 38L79 37.95" />
<path style="fill:#E4D7A2;fill-opacity:0.701961" d="M78.9,38.1L78.7 38.05L78.8 38.05L78.95 38L78.95 38.05L79 38.05L78.95 38.15L79 38.2L79.05 38.25L79.1 38.5L79.05 39.15L79.05 39.25L79 39.5L78.8 40.3L78.7 40.65L78.75 40.3L78.8 40.05L78.85 40L78.85 39.9L79 39.2L79 39.15L79.05 38.8L79.05 38.4L79 38.3L79 38.25L78.9 38.1" />
<path style="fill:#D9B79B;fill-opacity:0.701961" d="M78.9,38.95L78.95 38.65L78.9 38.25L78.85 38.1L78.7 38.05L78.9 38.1L79 38.25L79 38.3L79 38.5L79 38.55L78.95 38.85L78.9 38.95" />
<path style="fill:#948C43;fill-opacity:0.85098" d="M79.1,38.5L79.05 38.25L79 38.2L78.95 38.15L79 38.05L79 38.1L79.05 38.15L79.1 38.3L79.1 38.5" />
<path style="fill:#716211;fill-opacity:0.85098" d="M79.2,38.5L79.2 38.7L79.15 38.8L79.05 39.2L79.05 39.25L79.05 39.15L79.1 38.5L79.1 38.3L79.2 38.3L79.2 38.5" />
<path style="fill:#A76036;fill-opacity:0.85098" d="M79,39.1L78.95 39.15L78.95 39L79 38.55L79 38.5L79 38.3L79.05 38.4L79.05 38.8L79 39.15L79 39.1" />
<path style="fill:#97A17C;fill-opacity:0.701961" d="M78.85,39.55L78.85 39.65L78.8 39.65L78.8 39.75L78.8 39.8L78.65 40.3L78.7 40.05L78.7 39.85L78.9 38.95L78.95 38.85L79 38.55L78.95 39L78.95 39.15L78.85 39.55" />
<path style="fill:#6B1216;fill-opacity:0.85098" d="M79,39.7L79.05 39.7L79.65 39.6L79.05 39.85L78.95 40.05L78.9 40.15L78.8 40.3L79 39.5L79.05 39.25L79.05 39.2L79.15 38.8L79.15 38.95L79.15 39.05L79.1 39.25L79.05 39.55L79.05 39.6L79 39.7" />
<path style="fill:#9E6E30;fill-opacity:0.85098" d="M79.15,38.8L79.2 38.7L79.3 38.7L79.3 38.75L79.15 38.8M79.15,39.05L79.15 38.95L79.25 38.95L79.3 39.05L79.15 39.05" />
<path style="fill:#E3C28C;fill-opacity:0.85098" d="M79.15,38.95L79.15 38.8L79.3 38.75L79.25 38.95L79.15 38.95" />
<path style="fill:#982717;fill-opacity:0.85098" d="M79.3,39.05L79.35 39.05L79.55 39.15L79.15 39.05L79.3 39.05" />
<path style="fill:#C66157;fill-opacity:0.85098" d="M79.55,39.25L79.5 39.25L79.1 39.25L79.15 39.05L79.55 39.15L79.55 39.25" />
<path style="fill:#DD3C4E;fill-opacity:0.85098" d="M78.95,39.15L79 39.1L79 39.15L79 39.2L78.85 39.9L78.85 40L78.85 39.7L78.85 39.55L78.95 39.15" />
<path style="fill:#CC1220;fill-opacity:1" d="M79.25,39.35L79.5 39.5L79.15 39.6L79.15 39.35L79.5 39.3L79.25 39.35" />
<path style="fill:#BA1823;fill-opacity:1" d="M79.65,39.55L79.05 39.65L79.05 39.6L79.05 39.55L79.1 39.25L79.5 39.25L79.65 39.55M79.5,39.3L79.15 39.35L79.15 39.6L79.5 39.5L79.25 39.35L79.5 39.3" />
<path style="fill:#EE5875;fill-opacity:0.85098" d="M78.85,40L78.8 40.05L78.75 40.15L78.75 40.2L78.65 40.35L78.65 40.3L78.8 39.8L78.8 39.75L78.8 39.65L78.85 39.65L78.85 39.55L78.85 39.7L78.85 40" />
<path style="fill:#9E0C0C;fill-opacity:0.952941" d="M79.7,39.65L79.05 40L78.95 40.1L78.95 40.05L79.05 39.85L79.65 39.6L79.05 39.7L79 39.7L79.05 39.6L79.05 39.65L79.65 39.55L79.75 39.55L79.75 39.5L80 39.55L79.2 39.95L79.7 39.65M79.55,39.3L79.55 39.25L79.55 39.3" />
<path style="fill:#FFFDF4;fill-opacity:0.701961" d="M71.95,40.75L71.9 40.7L71.8 40.45L71.55 39.85L71.35 39.25L71.35 39.2L71.3 39.2L71.3 39.15L71.3 39.1L71.3 39.05L71.3 38.95L71.3 38.85L71.3 38.65L71.3 38.6L71.4 38.45L71.45 38.4L71.5 38.4L71.35 38.55L71.3 38.85L71.3 38.9L71.5 39.65L72.05 40.85L71.95 40.75M72.7,41.25L72.75 41.25L73 41.3L74.4 41.45L74.45 41.45L77.05 41.3L78.2 40.9L78.25 40.9L78.4 40.8L78.6 40.5L78.6 40.4L78.65 40.4L78.7 40.3L78.7 40.35L78.7 40.5L78.55 40.8L78.1 41.1L75.55 41.55L72.55 41.35L72.5 41.3L72.4 41.3L72.15 41.15L72.7 41.25" />
<path style="fill:#CED0A1;fill-opacity:0.85098" d="M78.65,40.3L78.65 40.35L78.65 40.4L78.6 40.4L78.6 40.5L78.4 40.8L78.25 40.9L78.2 40.9L77.95 41L77.75 41.05L78.4 40.7L78.6 40.25L78.7 39.85L78.7 40.05L78.65 40.3" />
<path style="fill:#72100F;fill-opacity:1" d="M79.75,39.8L79.2 40.1L79.55 39.9L79.35 40.05L79.2 40.15L79.15 40.1L79.2 40L79.2 39.95L80 39.55L80.1 39.55L80.05 39.6L79.75 39.8M79.65,39.85L79.7 39.8L79.3 40.2L79.25 40.2L79.35 40.1L79.65 39.85" />
<path style="fill:#8C1E12;fill-opacity:0.952941" d="M79.15,40.25L79.05 40.35L79 40.45L79 40.35L79.05 40.3L79.05 40.25L79.05 40.2L79.05 40.1L79.2 40L79.15 40.1L79.2 40.15L79.15 40.25" />
<path style="fill:#B4141E;fill-opacity:0.952941" d="M79,40.35L79 40.2L78.95 40.15L78.9 40.15L78.95 40.1L79.05 40L79.7 39.65L79.2 39.95L79.2 40L79.05 40.1L79.05 40.2L79.05 40.25L79.05 40.3L79 40.35" />
<path style="fill:#9E1F0E;fill-opacity:0.901961" d="M79,40.5L79 40.45L79 40.5" />
<path style="fill:#F52F3E;fill-opacity:0.85098" d="M79.35,40.1L79.25 40.2L79.2 40.25L79.15 40.25L79.2 40.15L79.35 40.05L79.35 40.1" />
<path style="fill:#0D0D0B;fill-opacity:0.8" d="M79.55,39.9L79.2 40.1L79.75 39.8L80.05 39.6L79.7 39.8L79.65 39.85L79.75 39.8L79.55 39.9" />
<path style="fill:#C98642;fill-opacity:0.85098" d="M79.2,40.25L79.05 40.55L78.95 40.8L78.9 40.85L78.8 41.1L78.75 41.15L78.85 40.9L78.75 41L78.85 40.85L78.95 40.55L78.95 40.5L79 40.5L79 40.45L79.05 40.35L79.15 40.25L79.2 40.25" />
<path style="fill:#F0E9B5;fill-opacity:0.85098" d="M78.3,41.2L78.3 41.25L78.15 41.25L78.2 41.2L78.55 41L78.55 40.95L78.85 40.45L78.85 40.35L78.9 40.3L78.95 40.5L78.85 40.65L78.85 40.7L78.75 40.8L78.75 40.85L78.7 40.95L78.65 40.95L78.5 41.1L78.45 41.15L78.3 41.2M78.7,40.5L78.7 40.35L78.7 40.3L78.65 40.4L78.65 40.35L78.75 40.2L78.75 40.15L78.8 40.05L78.75 40.3L78.7 40.5" />
<path style="fill:#EFC99C;fill-opacity:0.85098" d="M78.9,40.15L78.95 40.15L79 40.2L79 40.35L78.95 40.5L78.9 40.3L78.85 40.35L78.9 40.15" />
<path style="fill:#946014;fill-opacity:0.701961" d="M78.5,41L78.55 40.9L78.6 40.85L78.65 40.8L78.7 40.65L78.8 40.3L78.9 40.15L78.95 40.05L78.95 40.1L78.9 40.15L78.85 40.35L78.85 40.45L78.55 40.95L78.5 41" />
<path style="fill:#B78F49;fill-opacity:0.85098" d="M79,40.35L79.05 40.3L79 40.35" />
<path style="fill:#E4EBC5;fill-opacity:0.701961" d="M76.1,41.6L76.05 41.6L75.7 41.65L73.7 41.6L73.6 41.6L72.55 41.35L75.55 41.55L78.1 41.1L78.55 40.8L78.7 40.5L78.75 40.3L78.7 40.65L78.65 40.8L78.6 40.85L78.55 40.9L78.05 41.15L77.9 41.25L77.8 41.25L76.1 41.6" />
<path style="fill:#590D09;fill-opacity:0.8" d="M79.2,40.25L79.25 40.2L79.3 40.2L79.05 40.65L78.95 40.85L78.8 41.1L78.9 40.85L78.95 40.8L79.05 40.55L79.2 40.25" />
<path style="fill:#BDC0A3;fill-opacity:0.85098" d="M72.6,41.15L74.85 41.4L77.65 41.05L77.75 41.05L77.95 41L78.2 40.9L77.05 41.3L74.45 41.45L74.4 41.45L73 41.3L72.75 41.25L72.7 41.25L72.6 41.15" />
<path style="fill:#EEEAAA;fill-opacity:0.85098" d="M77.75,41.35L77.8 41.35L78.05 41.25L78.2 41.2L78.15 41.25L78.3 41.25L78 41.35L77.45 41.45L77.5 41.45L77.75 41.35" />
<path style="fill:#C8C461;fill-opacity:0.752941" d="M78.2,41.3L77.85 41.45L77.7 41.5L77.1 41.6L76.7 41.6L76.95 41.55L77.45 41.45L78 41.35L78.3 41.25L78.3 41.2L78.45 41.15L78.25 41.3L78.2 41.3" />
<path style="fill:#AB8018;fill-opacity:0.752941" d="M76.95,41.55L76.7 41.6L76.9 41.5L77.05 41.5L77.55 41.35L77.5 41.45L77.45 41.45L76.95 41.55" />
<path style="fill:#BDBB68;fill-opacity:0.752941" d="M77.8,41.25L77.65 41.35L77.75 41.35L77.5 41.45L77.55 41.35L77.05 41.5L76.9 41.5L76.1 41.6L77.8 41.25" />
<path style="fill:#7B7610;fill-opacity:0.701961" d="M77.8,41.25L77.9 41.25L78.05 41.15L78.25 41.15L78.2 41.2L78.05 41.25L77.8 41.35L77.75 41.35L77.65 41.35L77.8 41.25" />
<path style="fill:#F7EFAF;fill-opacity:0.8" d="M76.3,41.75L75.7 41.8L76.15 41.75L77.1 41.6L77.7 41.5L76.3 41.75" />
<path style="fill:#AA9A45;fill-opacity:0.752941" d="M77.7,41.5L77.85 41.45L78.2 41.3L78.25 41.3L78.5 41.2L78.05 41.45L77.75 41.55L77.65 41.55L77.4 41.6L76.1 41.8L76.3 41.75L77.7 41.5" />
<path style="fill:#C9D283;fill-opacity:0.752941" d="M76.7,41.6L76.95 41.55L76.7 41.6L77.1 41.6L76.15 41.75L73.7 41.7L73.55 41.65L74.2 41.7L74.45 41.7L74.9 41.75L75.7 41.7L76 41.7L76.7 41.6" />
<path style="fill:#A8B55D;fill-opacity:0.752941" d="M76.9,41.5L76.7 41.6L76 41.7L75.7 41.65L76.05 41.6L76.1 41.6L76.9 41.5" />
<path style="fill:#F6E387;fill-opacity:0.85098" d="M77.35,41.7L76.05 41.85L76 41.85L75.75 41.85L75.9 41.8L76.1 41.8L77.4 41.6L77.65 41.55L77.35 41.7" />
<path style="fill:#E4DF61;fill-opacity:0.85098" d="M77.65,41.55L77.75 41.55L78.05 41.45L78.5 41.2L78.45 41.3L78.55 41.3L77.35 41.7L77.65 41.55" />
<path style="fill:#8F5D12;fill-opacity:0.8" d="M78.7,41L78.6 41.1L78.65 40.95L78.7 40.95L78.75 40.85L78.75 40.8L78.85 40.7L78.85 40.65L78.95 40.5L79 40.35L79 40.45L79 40.5L78.95 40.5L78.95 40.55L78.85 40.85L78.75 41L78.7 41" />
<path style="fill:#C6A53A;fill-opacity:0.85098" d="M78.7,41L78.65 41.05L78.7 41" />
<path style="fill:#E5E285;fill-opacity:0.85098" d="M78.75,41L78.85 40.9L78.75 41.15L78.7 41.2L78.65 41.25L78.7 41.1L78.65 41.1L78.6 41.15L78.55 41.2L78.5 41.2L78.25 41.3L78.45 41.15L78.5 41.1L78.65 40.95L78.6 41.1L78.7 41L78.75 41M78.65,41.05L78.7 41L78.65 41.05" />
<path style="fill:#FFFFB5;fill-opacity:0.85098" d="M78.45,41.3L78.5 41.2L78.55 41.2L78.6 41.15L78.65 41.1L78.7 41.1L78.65 41.25L78.6 41.25L78.6 41.3L78.55 41.3L78.45 41.3" />
<path style="fill:#C1C87B;fill-opacity:0.701961" d="M78.55,40.9L78.5 41L78.55 40.95L78.55 41L78.2 41.2L78.25 41.15L78.05 41.15L78.55 40.9" />
<path style="fill:#D61024;fill-opacity:1" d="M79.55,39.3L79.75 39.5L79.75 39.55L79.65 39.55L79.5 39.25L79.55 39.25L79.55 39.3" />
<path style="fill:#AA1727;fill-opacity:0.85098" d="M79.35,40.1L79.35 40.05L79.55 39.9L79.75 39.8L79.65 39.85L79.35 40.1" />
<path style="fill:#E3E9CD;fill-opacity:0.85098" d="M71.4,38.3L71.5 38.25L72.05 38.05L72.2 38L73.35 37.85L74.1 37.8L74.5 37.75L75 37.75L74.7 37.8L74.5 37.8L73.45 37.9L71.95 38.15L71.55 38.35L71.5 38.4L71.45 38.4L71.4 38.3" />
<path style="fill:#9A9D50;fill-opacity:0.85098" d="M76.15,37.65L76.05 37.65L74.6 37.7L74.55 37.7L74.25 37.7L74.15 37.7L74.25 37.65L74.4 37.65L75.1 37.6L75.9 37.6L76 37.6L76.15 37.65" />
<path style="fill:#CDD29A;fill-opacity:0.85098" d="M73.2,37.75L73.45 37.75L74.25 37.65L74.15 37.7L74.25 37.7L72.6 37.95L73.2 37.75" />
<path style="fill:#F2F6C3;fill-opacity:0.85098" d="M73.05,37.75L72.95 37.8L71.9 37.95L71.8 38L71.75 38L71.7 38L71.5 38.05L71.75 37.9L71.85 37.9L71.9 37.9L72.4 37.75L73.5 37.6L75.65 37.5L76.3 37.5L75.85 37.5L75.1 37.6L74.4 37.65L74.25 37.65L73.45 37.75L73.2 37.75L73.05 37.75" />
<path style="fill:#DDD396;fill-opacity:0.85098" d="M72.1,37.8L71.45 37.85L72.4 37.65L73.25 37.55L73.3 37.55L74.5 37.45L75.5 37.4L75.85 37.4L75.95 37.4L76 37.4L76.45 37.45L77 37.5L76.3 37.5L75.65 37.5L73.5 37.6L72.4 37.75L71.9 37.9L72.1 37.8" />
<path style="fill:#F0F7C4;fill-opacity:0.85098" d="M71.5,38.25Q71.75 38.05 72.2 37.95L72.3 37.95L72.95 37.8L73.05 37.75L73.2 37.75L72.6 37.95L72.2 38L72.05 38.05L71.5 38.25" />
<path style="fill:#FBF49C;fill-opacity:0.85098" d="M71.9,37.9L71.85 37.9L71.75 37.9L71.35 38L71.5 37.9L71.45 37.9L71.3 37.95L71.25 37.95L71.35 37.9L71.35 37.85L71.45 37.85L72.1 37.8L71.9 37.9" />
<path style="fill:#D2D38F;fill-opacity:0.85098" d="M71.7,38L71.75 38L71.8 38L71.9 37.95L72.95 37.8L72.3 37.95L72.2 37.95Q71.75 38.05 71.5 38.25L71.4 38.3L71.45 38.3L71.7 38" />
<path style="fill:#B6A320;fill-opacity:1" d="M70.95,37.9L71 37.9L71.15 37.9L71.2 37.9L71.25 37.8L71.35 37.8L71.45 37.8L71.6 37.75L71.35 37.85L71.35 37.9L71.25 37.95L71.3 37.95L71.45 37.9L71.5 37.9L71.35 38L71.4 37.95L71.25 38L71.25 37.95L71.1 37.95L71 37.95L70.95 37.9" />
<path style="fill:#F8FCC1;fill-opacity:0.85098" d="M70.3,38.25L70.45 38.25L71 38.15L71 38.1L71.15 38.1L71.2 38.05L71.25 38.05L71.35 38.05L71.35 38L71.75 37.9L71.5 38.05L71.4 38.1L71.15 38.15L71 38.2L70.2 38.35L69.95 38.4L69.95 38.25L70.3 38.25" />
<path style="fill:#F7EFB1;fill-opacity:0.85098" d="M71.45,38.3L71.3 38.35L71.15 38.4L71 38.45L69.95 38.5L69.95 38.4L70.2 38.35L71 38.2L71.15 38.15L71.4 38.1L71.5 38.05L71.7 38L71.45 38.3" />
<path style="fill:#D6DFB4;fill-opacity:0.85098" d="M71.15,38.55L71 38.6L70.8 38.7L70.6 38.75L69.95 38.75L69.95 38.7L71 38.55L71.1 38.45L71.15 38.45L71.3 38.35L71.45 38.3L71.4 38.3L71.25 38.45L71.2 38.55L71.15 38.55" />
<path style="fill:#C1BF75;fill-opacity:0.701961" d="M71.3,38.5L71.2 38.55L71.25 38.45L71.4 38.3L71.45 38.4L71.4 38.45L71.3 38.6L71.3 38.5" />
<path style="fill:#898228;fill-opacity:0.701961" d="M71.25,38.85L71.15 38.9L71.15 38.85L71.15 38.65L71.2 38.55L71.3 38.5L71.3 38.6L71.3 38.65L71.3 38.85L71.25 38.85" />
<path style="fill:#E6E676;fill-opacity:0.701961" d="M71.25,38.95L71.2 39L71.15 38.9L71.25 38.85L71.25 38.95" />
<path style="fill:#C8BB8E;fill-opacity:0.701961" d="M71.2,39L71.25 38.95L71.25 38.85L71.3 38.85L71.3 38.95L71.3 39.05L71.25 39L71.2 39.1L71.2 39" />
<path style="fill:#E8E6AD;fill-opacity:0.701961" d="M71.3,39.15L71.3 39.25L71.3 39.4L71.25 39.25L71.25 39.2L71.2 39.1L71.25 39L71.3 39.05L71.3 39.1L71.3 39.15" />
<path style="fill:#AF7061;fill-opacity:0.701961" d="M71.3,39.1L71.3 39.15L71.3 39.1M71.3,39.2L71.35 39.2L71.35 39.25L71.5 39.8L71.55 39.9L71.6 40.2L71.6 40.15L71.55 40.1L71.5 40.1L71.5 40.05L71.4 39.8L71.45 39.85L71.3 39.2" />
<path style="fill:#D5B493;fill-opacity:0.85098" d="M71.25,39.25L71.3 39.4L71.2 39.25L71.15 39.2L71.1 39.15L71.15 39.15L71.2 39.15L71.25 39.2L71.25 39.25" />
<path style="fill:#8F461B;fill-opacity:0.85098" d="M71.15,39.15L71.15 39.1L71 39L70.95 38.95L71 38.95L71.15 39.05L71.05 38.8L71.05 38.75L71.15 38.85L71.15 38.9L71.2 39L71.2 39.1L71.25 39.2L71.2 39.15L71.15 39.15" />
<path style="fill:#74371B;fill-opacity:0.85098" d="M71.15,39.2L71.2 39.25L71.3 39.4L71.25 39.4L71.05 39.25L71.05 39.45L71 39.4L70.95 39.35Q70.9 39.15 70.85 39.3L70.8 39.2L70.85 39.15L70.95 39.15L70.9 38.95L71.1 39.15L71.15 39.2" />
<path style="fill:#B7835B;fill-opacity:0.85098" d="M70.9,39.45L70.85 39.3Q70.9 39.15 70.95 39.35L71 39.4L71.05 39.45L71.05 39.25L71.25 39.4L71.2 39.45L71 39.55L70.9 39.45" />
<path style="fill:#6B1D19;fill-opacity:0.85098" d="M71.3,39.45L71.4 39.8L71.5 40.05L71.35 39.9L71.4 40.1L71.2 39.9L71.15 39.9L71.15 39.85L71.1 39.8L71.1 39.75L71.15 39.75L71.3 39.8L71.3 39.75L71.25 39.5L71.25 39.4L71.3 39.4L71.3 39.45" />
<path style="fill:#D6D2AF;fill-opacity:0.701961" d="M71.45,39.85L71.4 39.8L71.3 39.45L71.3 39.4L71.3 39.25L71.3 39.15L71.3 39.2L71.45 39.85" />
<path style="fill:#B22633;fill-opacity:0.85098" d="M71,39.6L71 39.55L71.2 39.45L71.25 39.4L71.25 39.5L71.3 39.75L71.3 39.8L71.15 39.75L71.1 39.75L71.1 39.8L71 39.6" />
<path style="fill:#F9E1BD;fill-opacity:0.701961" d="M71.9,40.75L71.85 40.65L71.85 40.7L71.9 40.85L71.7 40.35L71.55 39.9L71.5 39.8L71.35 39.25L71.55 39.85L71.8 40.45L71.9 40.7L71.9 40.75" />
<path style="fill:#DCB991;fill-opacity:0.701961" d="M71.85,40.8L71.8 40.65L71.7 40.5L71.65 40.4L71.65 40.35L71.5 40.1L71.55 40.1L71.6 40.15L71.6 40.2L71.55 39.9L71.7 40.35L71.9 40.85L71.85 40.8" />
<path style="fill:#BD2031;fill-opacity:0.85098" d="M71.5,40.1L71.65 40.35L71.6 40.3L71.3 40.15L71.25 40.2L71.2 40.05L71.2 40L71.2 39.95L71.15 39.9L71.2 39.9L71.4 40.1L71.35 39.9L71.5 40.05L71.5 40.1" />
<path style="fill:#F91F42;fill-opacity:0.85098" d="M71.55,40.35L71.5 40.3L71.45 40.3L71.35 40.25L71.3 40.3L71.3 40.2L71.25 40.2L71.3 40.15L71.6 40.3L71.65 40.35L71.65 40.4L71.55 40.35" />
<path style="fill:#931926;fill-opacity:0.85098" d="M71.35,40.5L71.3 40.35L71.2 40.1L70.95 39.65L70.9 39.45L71 39.55L71 39.6L71.1 39.8L71.15 39.85L71.15 39.9L71.2 39.95L71.2 40L71.2 40.05L71.25 40.2L71.3 40.2L71.3 40.3L71.35 40.4L71.35 40.5" />
<path style="fill:#FFF4D2;fill-opacity:0.752941" d="M71.7,40.95L71.75 41.1L71.55 40.8L71.4 40.45L71.4 40.4L71.5 40.45L71.55 40.65L71.65 40.95L71.7 40.95" />
<path style="fill:#FFE0C7;fill-opacity:0.752941" d="M71.5,40.45L71.4 40.4L71.4 40.45L71.55 40.8L71.75 41.1L71.8 41.2L72 41.45L71.9 41.4L71.65 41.1L71.65 41.05L71.55 40.85L71.35 40.4L71.35 40.35L71.45 40.4L71.5 40.45" />
<path style="fill:#FB838C;fill-opacity:0.85098" d="M71.3,40.3L71.35 40.25L71.45 40.3L71.5 40.3L71.55 40.35L71.65 40.5L71.55 40.4L71.55 40.45L71.45 40.4L71.35 40.35L71.35 40.4L71.3 40.3" />
<path style="fill:#FFE4B2;fill-opacity:0.752941" d="M71.55,40.65L71.5 40.45L71.45 40.4L71.55 40.45L71.55 40.4L71.65 40.5L71.75 40.65L71.7 40.65L71.6 40.55L71.6 40.5L71.55 40.55L71.55 40.65" />
<path style="fill:#8A6C21;fill-opacity:0.752941" d="M71.65,40.9L71.65 40.95L71.55 40.65L71.55 40.55L71.65 40.75L71.7 40.9L71.65 40.9" />
<path style="fill:#D5B084;fill-opacity:0.752941" d="M71.55,40.95L71.35 40.5L71.35 40.4L71.55 40.85L71.55 40.95" />
<path style="fill:#BC955C;fill-opacity:0.85098" d="M71.8,40.8L71.75 40.7L71.75 40.65L71.65 40.5L71.55 40.35L71.65 40.4L71.7 40.5L71.8 40.65L71.85 40.8L71.9 40.85L71.9 40.9L72 41L71.8 40.8" />
<path style="fill:#DBAD6F;fill-opacity:0.752941" d="M71.7,40.9L71.65 40.75L71.55 40.55L71.6 40.5L71.6 40.55L71.7 40.65L71.75 40.65L71.75 40.7L71.7 40.75L71.65 40.7L71.7 40.9L71.75 40.9L71.7 40.9" />
<path style="fill:#FFD9BE;fill-opacity:0.701961" d="M72.15,41.15L72.1 41.1L72.05 41.05L72 41L71.9 40.9L71.9 40.85L71.85 40.7L71.85 40.65L71.9 40.75L71.95 40.75L72.15 41L72.2 41.05L72.7 41.25L72.15 41.15" />
<path style="fill:#EFCAB0;fill-opacity:0.85098" d="M72.7,41.25L72.2 41.05L72.15 41L71.95 40.75L72.05 40.85L72.1 40.95L72.6 41.15L72.7 41.25" />
<path style="fill:#F3F4BB;fill-opacity:0.752941" d="M72.05,41.05L72.05 41.1L72.25 41.25L72.45 41.35L72.6 41.45L72.8 41.5L72.75 41.5L72.35 41.4L72.2 41.3L72.15 41.25L72.05 41.15L72.05 41.1L72 41.1M72,41.1L72 41L72.05 41.05" />
<path style="fill:#F3C0AB;fill-opacity:0.752941" d="M71.75,40.85L71.75 40.8L71.8 40.8L72 41L72 41.1L71.85 40.9L71.95 41.2L71.75 40.85" />
<path style="fill:#DCEBAA;fill-opacity:0.752941" d="M73.05,41.55L72.85 41.55L72.55 41.55L72.5 41.55L73.1 41.65L72.85 41.65L72.4 41.55L72.2 41.45L72.15 41.4L72 41.3L71.95 41.25L72.05 41.3L72.1 41.3L72.1 41.25L72.05 41.2L72 41.1L72.05 41.1L72.05 41.15L72.15 41.25L72.2 41.3L72.35 41.4L72.75 41.5L72.8 41.5L72.6 41.45L72.45 41.35L72.25 41.25L72.05 41.1L72.1 41.1L72.15 41.15L72.4 41.3L72.75 41.45L72.9 41.5L72.95 41.5L73.05 41.55" />
<path style="fill:#E8BD9B;fill-opacity:0.752941" d="M71.9,41.25L71.9 41.2L71.8 41.1L71.75 40.9L71.75 40.85L71.95 41.2L71.85 40.9L72 41.1L72.05 41.1L72 41.1L72.05 41.2L72.1 41.25L72.1 41.3L72.05 41.3L71.95 41.25L71.9 41.25" />
<path style="fill:#FFFDFA;fill-opacity:0.752941" d="M72,41.45L71.95 41.35L71.9 41.25L71.95 41.25L72 41.3L72.15 41.4L72.2 41.45L72.2 41.5L72.05 41.5L72 41.45" />
<path style="fill:#FFEBC2;fill-opacity:0.752941" d="M71.8,41.1L71.9 41.2L71.9 41.25L71.95 41.35L71.7 40.95L71.7 40.9L71.75 40.9L71.8 41.1" />
<path style="fill:#F2975E;fill-opacity:0.752941" d="M72,41.45L71.8 41.2L71.75 41.1L71.7 40.95L71.65 40.95L71.65 40.9L71.7 40.9L71.7 40.95L71.95 41.35L72 41.45" />
<path style="fill:#D2D9A6;fill-opacity:0.752941" d="M73,41.8L72.95 41.8L72.85 41.8Q72.2 41.65 71.85 41.4L71.9 41.4L72 41.45L72.05 41.5L72.35 41.6L73 41.8" />
<path style="fill:#F3B6A3;fill-opacity:0.752941" d="M71.65,41.1L71.9 41.4L71.85 41.4L71.7 41.25L71.7 41.2L71.65 41.1" />
<path style="fill:#FFFCBE;fill-opacity:0.752941" d="M72.35,41.6L72.05 41.5L72.2 41.5L72.2 41.45L72.4 41.55L72.85 41.65L72.75 41.65L72.35 41.6" />
<path style="fill:#BABB6B;fill-opacity:0.752941" d="M72.5,41.3L72.55 41.35L73.6 41.6L73.35 41.55L72.95 41.5L72.9 41.5L72.75 41.45L72.4 41.3L72.5 41.3" />
<path style="fill:#946D26;fill-opacity:0.752941" d="M71.75,40.8L71.75 40.85L71.75 40.9L71.7 40.9L71.65 40.7L71.7 40.75L71.75 40.7L71.8 40.8L71.75 40.8" />
<path style="fill:#EBD5BD;fill-opacity:0.752941" d="M71.7,41.2L71.55 41L71.55 40.95L71.55 40.85L71.65 41.05L71.65 41.1L71.7 41.2" />
<path style="fill:#CFB26E;fill-opacity:0.752941" d="M73.45,41.65L73.55 41.65L73.7 41.7L73.65 41.7L73.5 41.7L73.35 41.65L73.1 41.65L72.5 41.55L72.55 41.55L72.85 41.55L73.45 41.65" />
<path style="fill:#EAD699;fill-opacity:0.752941" d="M73.75,41.75L73.8 41.75L73.75 41.75" />
<path style="fill:#B07E1B;fill-opacity:0.752941" d="M72.85,41.55L73.05 41.55L72.95 41.5L73.35 41.55L73.6 41.6L73.45 41.65L72.85 41.55" />
<path style="fill:#C5AA67;fill-opacity:0.752941" d="M73.9,41.85L73.6 41.85L73 41.8L72.9 41.7L72.95 41.7L73 41.7L73.25 41.75L73.9 41.85" />
<path style="fill:#A5B68A;fill-opacity:0.752941" d="M76,41.85L74.65 41.9L72.95 41.8L73 41.8L73.6 41.85L73.9 41.85L73.95 41.85L75.6 41.85L75.75 41.85L76 41.85" />
<path style="fill:#D1DAA3;fill-opacity:0.752941" d="M72.35,41.6L72.75 41.65L72.95 41.7L72.9 41.7L73 41.8L72.35 41.6" />
<path style="fill:#89913E;fill-opacity:0.752941" d="M73.45,41.65L73.6 41.6L73.7 41.6L75.7 41.65L76 41.7L75.7 41.7L74.9 41.75L74.45 41.7L74.2 41.7L73.55 41.65L73.45 41.65" />
<path style="fill:#C1C78B;fill-opacity:0.752941" d="M75.7,41.8L76.3 41.75L76.1 41.8L75.9 41.8L75.75 41.85L75.6 41.85L73.85 41.75L73.8 41.75L73.75 41.75L73.25 41.75L73 41.7L72.95 41.7L72.75 41.65L72.85 41.65L73.1 41.65L73.35 41.65L73.5 41.7L73.65 41.7L73.7 41.7L76.15 41.75L75.7 41.8" />
<path style="fill:#EEF5AF;fill-opacity:0.752941" d="M73.95,41.85L73.9 41.85L73.25 41.75L73.75 41.75L73.8 41.75L73.85 41.75L75.6 41.85L73.95 41.85" />
<path style="fill:#A68649;fill-opacity:1" d="M70.45,38.25L70.7 38.1L70.75 38.15L71.2 38.05L71.15 38.1L71 38.1L71 38.15L70.45 38.25" />
<path style="fill:#801E03;fill-opacity:1" d="M70.75,38.15L70.7 38.1L70.45 38.25L70.3 38.25L70.35 38.05L71 38L71.1 38L71 37.95L70.85 37.95L70.9 37.9L70.95 37.9L71 37.95L71.1 37.95L71.25 37.95L71.25 38L71.4 37.95L71.35 38L71.35 38.05L71.25 38.05L71.2 38.05L70.75 38.15" />
<path style="fill:#F2E45F;fill-opacity:1" d="M71.2,37.9L71.15 37.9L71 37.9L71.05 37.85L71.15 37.85L71.2 37.85L71.25 37.8L71.2 37.9" />
<path style="fill:#1E0C02;fill-opacity:1" d="M70.85,37.95L71 37.95L71.1 38L71 38L70.35 38.05L70.3 38.05L70.85 37.95" />
<path style="fill:#6F694F;fill-opacity:1" d="M70.3,38.05L70.35 38.05L70.9 37.9L70.85 37.95L70.3 38.05" />
<path style="fill:#813C00;fill-opacity:1" d="M70.15,38.15L69.95 38.25L69.95 38.15L70.15 38.15" />
<path style="fill:#C4851E;fill-opacity:1" d="M69.95,38.25L70.15 38.15L69.95 38.15L70.35 38.05L70.3 38.25L69.95 38.25M70.3,38.05L70.35 38.05L70.3 38.05" />
<path style="fill:#545121;fill-opacity:0.901961" d="M70.1,38.85L70.15 38.9L70 38.95L69.95 38.8L70.1 38.85" />
<path style="fill:#7F8930;fill-opacity:0.901961" d="M69.95,39.05L70 38.95L70.15 38.9L70.1 38.85L70.15 38.85L70.2 38.9L70.2 38.95L70.3 39.05L70.35 39.05L69.95 39.05" />
<path style="fill:#ADA167;fill-opacity:0.85098" d="M69.95,38.8L69.95 38.75L70.6 38.75L70.7 38.85L70.6 38.85L70.5 38.85L70.35 38.85L70.2 38.85L70.15 38.85L70.1 38.85L69.95 38.8" />
<path style="fill:#FFCE7F;fill-opacity:0.901961" d="M70.2,38.85L70.35 38.85L70.2 38.95L70.2 38.9L70.2 38.85" />
<path style="fill:#D8A339;fill-opacity:0.901961" d="M70.35,38.85L70.5 38.85L70.45 39L70.6 38.85L70.6 38.9L70.55 39L70.45 39.05L70.3 39.05L70.2 38.95L70.35 38.85M70.2,38.85L70.2 38.9L70.15 38.85L70.2 38.85" />
<path style="fill:#986218;fill-opacity:0.85098" d="M70.45,39.05L70.65 39.1L70.65 39.15L70.35 39.05L70.3 39.05L70.45 39.05" />
<path style="fill:#AD6519;fill-opacity:0.901961" d="M70.5,38.85L70.6 38.85L70.45 39L70.5 38.85" />
<path style="fill:#E5D7A8;fill-opacity:0.85098" d="M69.95,38.7L69.95 38.5L71 38.45L71.15 38.4L71.3 38.35L71.15 38.45L71.1 38.45L71 38.55L69.95 38.7" />
<path style="fill:#8C6522;fill-opacity:0.85098" d="M70.8,38.7L71 38.6L71.15 38.55L71.2 38.55L71.15 38.65L71.1 38.65L71.05 38.65L71 38.7L70.85 38.8L70.8 38.7" />
<path style="fill:#EAC787;fill-opacity:0.85098" d="M70.8,38.85L70.7 38.85L70.6 38.75L70.8 38.7L70.85 38.8L70.9 38.85L70.85 38.9L70.8 38.85" />
<path style="fill:#DE9B57;fill-opacity:0.85098" d="M70.75,39.05L70.55 39L70.6 38.9L70.65 38.95L70.8 38.85L70.85 38.9L70.9 38.9L70.75 39.05" />
<path style="fill:#FDE6A0;fill-opacity:0.85098" d="M70.55,39L70.75 39.05L70.65 39.1L70.45 39.05L70.55 39" />
<path style="fill:#A5541D;fill-opacity:0.85098" d="M70.8,38.85L70.65 38.95L70.6 38.9L70.6 38.85L70.7 38.85L70.8 38.85" />
<path style="fill:#D08657;fill-opacity:0.85098" d="M71,39L71.15 39.1L71.15 39.15L71.1 39.15L70.9 38.95L70.9 38.9L70.85 38.9L70.9 38.85L70.95 38.95L71 39" />
<path style="fill:#A36220;fill-opacity:0.85098" d="M71.05,38.75L71.05 38.8L71.15 39.05L71 38.95L70.95 38.95L70.9 38.85L70.85 38.8L71 38.7L71.05 38.65L71.1 38.65L71.15 38.65L71.15 38.85L71.05 38.75" />
<path style="fill:#AD6C34;fill-opacity:0.85098" d="M70.9,38.9L70.9 38.95L70.95 39.15L70.85 39.15L70.8 39.2L70.75 39.05L70.9 38.9" />
<path style="fill:#A9844F;fill-opacity:0.85098" d="M70.65,39.15L70.65 39.1L70.75 39.05L70.8 39.2L70.85 39.3L70.9 39.45L70.95 39.65L70.8 39.35L70.65 39.15" />
<path style="fill:#FFE1A8;fill-opacity:0.901961" d="M70.35,39.05L70.65 39.15L70.8 39.35L69.95 39.05L70.35 39.05" />
<path style="fill:#B22532;fill-opacity:0.85098" d="M71,39.55L71 39.6L71 39.55" />
<path style="fill:none;stroke-width:0.05;stroke-linecap:round;stroke-linejoin:round;stroke-miterlimit:3;stroke:#FFCC00;stroke-opacity:1" d="M79.3,38.1L79.35 37.95" />
<radialGradient
id="RadialGradID_4884" gradientUnits="userSpaceOnUse" gradientTransform="matrix(0.0117035, 0, 0, 0.0117035, 81.45, 34.5)" spreadMethod ="pad" cx="0" cy="0" r="819.2" fx="0" fy="0" >
<stop  offset="0"  style="stop-color:#FFFFFF;stop-opacity:0.8" />
<stop  offset="1"  style="stop-color:#FFFFFF;stop-opacity:0" />
</radialGradient>
<path style="fill:url(#RadialGradID_4884) " d="M78,37.95Q78.75 37.95 78.75 38.7L78.3 40.4L77.6 40.75Q77.4 40.9 77.6 40.25L77.8 39.15Q77.8 38.65 77.25 38.55L75.85 38.3L74.8 38.15L74.2 37.95Q73.9 37.8 74.45 37.8L77.25 37.85L78 37.95" />
<radialGradient
id="RadialGradID_4885" gradientUnits="userSpaceOnUse" gradientTransform="matrix(0.00668335, 0, 0, 0.00668335, 70.45, 42.45)" spreadMethod ="pad" cx="0" cy="0" r="819.2" fx="0" fy="0" >
<stop  offset="0"  style="stop-color:#FFFFFF;stop-opacity:0.8" />
<stop  offset="1"  style="stop-color:#FFFFFF;stop-opacity:0" />
</radialGradient>
<path style="fill:url(#RadialGradID_4885) " d="M71.85,39.45L71.8 39.3L71.9 38.85L72 38.9Q72.45 40.85 74.9 41.1L72.95 41.15Q72.1 41 71.95 40.3L71.85 39.45" />
<path style="fill:#5D2C0E;fill-opacity:0.952941" d="M60.4,37.75L60 37.85L60 37.9L60.25 37.8L60.4 37.75" />
<path style="fill:#888A74;fill-opacity:0.901961" d="M60,37.85L60.4 37.75L60.65 37.7L60.7 37.6L60.65 37.65L60 37.85" />
<path style="fill:#061208;fill-opacity:0.952941" d="M60.65,37.75L60.65 37.7L60.4 37.75L60.25 37.8L60.65 37.75M60,38.95L60.05 39.5L60.45 39.25L60.3 39.15L60.25 38.9L60 38.95M60.05,38.45L60.3 38.4L60.35 38.35L60.4 38.3L60.1 38.3L60.05 38.45" />
<path style="fill:#4C460A;fill-opacity:0.952941" d="M60,38.45L60.1 38.1L60.45 38.15L60.05 38L59.95 38L60 38.4L60 38.45" />
<path style="fill:#574A13;fill-opacity:0.952941" d="M59.95,37.95L59.95 38L60.05 38L60.45 37.9L60.5 38.15L60.4 38.3L60.35 38.35L60.4 38.35L60.75 38.35L60.6 38.3L60.55 38.3L60.6 38.25L60.55 38.15L60.5 37.85L60.5 37.8L59.95 37.95" />
<path style="fill:#CFC7B4;fill-opacity:0.901961" d="M60.25,37.8L60 37.9L59.95 37.95L60.5 37.8L60.65 37.8L60.7 37.75L60.65 37.75L60.25 37.8" />
<path style="fill:#44370D;fill-opacity:0.952941" d="M60.1,38.3L60.4 38.3L60.5 38.15L60.45 38.15L60.1 38.1L60 38.45L60.05 38.45L60.1 38.3" />
<path style="fill:#8C0300;fill-opacity:0.901961" d="M60.8,37.65L61 37.65L61 37.7L61.1 37.7L61.15 37.65L61.2 37.6L61.1 37.55L60.85 37.6L60.8 37.65" />
<path style="fill:#DC8945;fill-opacity:0.901961" d="M60.8,37.65L60.85 37.6L60.7 37.6L60.65 37.7L60.65 37.75L60.7 37.75L60.8 37.75L60.8 37.65" />
<path style="fill:#061107;fill-opacity:0.952941" d="M60.8,37.75L61 37.7L61 37.65L60.8 37.65L60.8 37.75" />
<path style="fill:#E1D59B;fill-opacity:0.85098" d="M61.25,37.65L61.15 37.65L61.1 37.7L61 37.7L60.8 37.75L60.7 37.75L60.65 37.8L60.8 37.85L61.1 37.75L61.4 37.7L61.45 37.7L61.7 37.55L61.35 37.65L61.3 37.65L61.25 37.65" />
<path style="fill:#925304;fill-opacity:0.85098" d="M60.8,37.85L60.65 37.8L60.5 37.8L60.5 37.85L60.65 37.85L60.8 37.85" />
<path style="fill:#E0CA64;fill-opacity:0.85098" d="M60.7,38.15L60.75 38.15L60.65 37.85L60.5 37.85L60.55 38.15L60.7 38.15" />
<path style="fill:#C46225;fill-opacity:0.85098" d="M60.75,38.05L60.85 38.1L60.8 37.95L60.75 38.05" />
<path style="fill:#FFDB91;fill-opacity:0.85098" d="M61.75,37.75L61.8 37.7L61.85 37.7L61.95 37.7L61.6 37.7L61.45 37.7L61.4 37.7L61.1 37.75L60.8 37.85L61 37.9L61.1 37.85L61.15 37.85L61.2 37.85L61.25 37.85L61.6 37.75L61.75 37.75" />
<path style="fill:#E8D763;fill-opacity:0.85098" d="M61.05,38.3L61.1 38.15L61.15 38.1L60.95 38.2L60.75 38.15L60.7 38.15L60.8 38.2L60.95 38.25L60.75 38.2L60.8 38.25L60.95 38.3L61.05 38.3" />
<path style="fill:#694F02;fill-opacity:0.85098" d="M60.75,38.2L60.95 38.25L60.8 38.2L60.75 38.2" />
<path style="fill:#AA971F;fill-opacity:0.85098" d="M60.75,38.2L60.8 38.2L60.7 38.15L60.55 38.15L60.75 38.2" />
<path style="fill:#825204;fill-opacity:0.85098" d="M60.75,38.3L60.8 38.25L60.75 38.2L60.55 38.15L60.6 38.25L60.75 38.3" />
<path style="fill:#A75718;fill-opacity:0.85098" d="M60.95,37.95L60.8 37.95L60.85 38.1L60.95 37.95" />
<path style="fill:#30310F;fill-opacity:0.952941" d="M60.45,38.15L60.5 38.15L60.45 37.9L60.05 38L60.45 38.15" />
<path style="fill:#703509;fill-opacity:0.952941" d="M60,38.45L60 38.85L60.05 38.85L60.25 38.55L60 38.45" />
<path style="fill:#5C2306;fill-opacity:0.952941" d="M60,38.4L60 38.45L60 38.4M60.25,38.55L60.3 38.4L60.05 38.45L60 38.45L60.25 38.55" />
<path style="fill:#72320C;fill-opacity:0.952941" d="M60.4,38.45L60.4 38.4L60.4 38.35L60.35 38.5L60.35 38.85L60.35 38.9L60.4 39.05L60.4 38.85L60.4 38.8L60.4 38.75L60.4 38.7L60.4 38.45" />
<path style="fill:#85A469;fill-opacity:0.952941" d="M60.65,38.7L60.45 38.45L60.4 38.45L60.65 38.7" />
<path style="fill:#66732B;fill-opacity:0.952941" d="M60.4,38.45L60.45 38.45L60.4 38.4L60.4 38.45M60.8,38.4L60.85 38.4L60.8 38.4" />
<path style="fill:#98B178;fill-opacity:0.952941" d="M60.4,38.7L60.65 38.7L60.4 38.45L60.4 38.7" />
<path style="fill:#933C0F;fill-opacity:0.952941" d="M60.3,38.4L60.25 38.55L60.05 38.85L60.2 38.9L60.35 38.5L60.4 38.35L60.35 38.35L60.3 38.4" />
<path style="fill:#ECB773;fill-opacity:0.85098" d="M60.6,38.25L60.6 38.3L60.75 38.35L60.8 38.4L60.75 38.3L60.6 38.25M60.85,38.7L60.95 38.7L60.95 38.5L60.85 38.4L60.85 38.7" />
<path style="fill:#644002;fill-opacity:0.85098" d="M60.95,38.3L60.8 38.25L60.75 38.3L60.8 38.4L60.85 38.4L60.95 38.5L60.95 38.3" />
<path style="fill:#855517;fill-opacity:0.952941" d="M60.8,38.7L60.8 38.75L60.85 38.8L60.8 39.05L60.85 39.05L60.9 38.95L60.85 38.75L60.85 38.7L60.85 38.4L60.8 38.4L60.85 38.4L60.8 38.4L60.75 38.35L60.4 38.35L60.4 38.4L60.45 38.45L60.5 38.45L60.8 38.45L60.8 38.7" />
<path style="fill:#8F9E5D;fill-opacity:0.952941" d="M60.8,38.7L60.8 38.45L60.75 38.7L60.8 38.7" />
<path style="fill:#B8B159;fill-opacity:0.952941" d="M60.8,38.7L60.8 38.45L60.8 38.7" />
<path style="fill:#689445;fill-opacity:0.952941" d="M60.75,38.7L60.8 38.45L60.5 38.45L60.45 38.45L60.65 38.7L60.75 38.7" />
<path style="fill:#2F400C;fill-opacity:0.952941" d="M60.5,38.8L60.55 38.8L60.65 38.8L60.65 38.75L60.55 38.75L60.5 38.8" />
<path style="fill:#9C783E;fill-opacity:0.952941" d="M60.75,38.8L60.75 38.75L60.65 38.75L60.65 38.8L60.75 38.8" />
<path style="fill:#41692A;fill-opacity:0.952941" d="M60.4,38.7L60.4 38.75L60.55 38.75L60.65 38.75L60.65 38.7L60.4 38.7M60.4,38.8L60.4 38.85L60.5 38.85L60.65 38.85L60.65 38.8L60.55 38.8L60.4 38.8" />
<path style="fill:#7D7137;fill-opacity:0.952941" d="M60.75,38.75L60.75 38.7L60.65 38.7L60.65 38.75L60.75 38.75" />
<path style="fill:#785213;fill-opacity:0.952941" d="M60.8,38.75L60.8 38.7L60.75 38.7L60.75 38.75L60.8 38.75M60.85,38.8L60.75 38.8L60.75 38.85L60.8 38.85L60.85 38.8" />
<path style="fill:#512F00;fill-opacity:0.952941" d="M60.75,38.75L60.75 38.8L60.85 38.8L60.8 38.75L60.75 38.75" />
<path style="fill:#B49248;fill-opacity:0.952941" d="M60.8,39.05L60.85 38.8L60.8 38.85L60.8 39.05" />
<path style="fill:#798A43;fill-opacity:0.952941" d="M60.65,38.85L60.5 38.85L60.6 38.9L60.75 39.05L60.8 39.05L60.8 38.85L60.75 38.85L60.65 38.85" />
<path style="fill:#508D63;fill-opacity:0.952941" d="M60.6,38.9L60.55 39.1L60.75 39.05L60.6 38.9" />
<path style="fill:#886E24;fill-opacity:0.952941" d="M60.75,38.85L60.75 38.8L60.65 38.8L60.65 38.85L60.75 38.85" />
<path style="fill:#7A3500;fill-opacity:0.952941" d="M60.35,38.85L60.35 38.5L60.2 38.9L60.35 38.85" />
<path style="fill:#7E4B16;fill-opacity:0.952941" d="M60.4,38.8L60.55 38.8L60.5 38.8L60.55 38.75L60.4 38.75L60.4 38.8" />
<path style="fill:#6A2B0A;fill-opacity:0.952941" d="M60.25,38.9L60.35 38.9L60.35 38.85L60.2 38.9L60.05 38.85L60 38.85L60 38.9L60.25 38.9" />
<path style="fill:#341900;fill-opacity:0.952941" d="M60,38.9L60 38.95L60.25 38.9L60 38.9M60.6,39.25L60.6 39.15L60.8 39.05L60.75 39.05L60.55 39.1L60.6 38.9L60.5 38.85L60.4 38.85L60.4 39.05L60.35 38.9L60.25 38.9L60.3 39.15L60.45 39.25L60.05 39.5L60.05 39.55L60.15 39.55L60.4 39.5L60.6 39.3L60.6 39.25" />
<path style="fill:#B3283F;fill-opacity:0.85098" d="M62.7,37.65L62.7 37.6L62.4 37.6L62.3 37.6L62.35 37.65L62.4 37.65L62.5 37.65L62.65 37.65L62.7 37.65" />
<path style="fill:#DB9D92;fill-opacity:0.85098" d="M62.65,37.55L62.6 37.55L62.45 37.6L62.35 37.6L62.2 37.6L62.4 37.65L62.45 37.65L62.65 37.65L62.5 37.65L62.4 37.65L62.35 37.65L62.3 37.6L62.4 37.6L62.7 37.6L62.65 37.55" />
<path style="fill:#B4C692;fill-opacity:0.85098" d="M62.3,37.7L62.25 37.7L62.05 37.7L61.95 37.7L61.85 37.7L61.8 37.7L61.75 37.75L61.4 37.85L62.3 37.7L62.55 37.7L62.95 37.7L63.55 37.7L64.1 37.7L64.75 37.7L65.15 37.75L65.65 37.75L66.05 37.8L66.8 37.85L67.95 38L67.55 37.95L65.9 37.7L65.6 37.7L65.55 37.7L64.1 37.65L64 37.65L63.1 37.65L63.05 37.65L62.65 37.65L62.45 37.65L62.4 37.65L62.3 37.7" />
<path style="fill:#CFA984;fill-opacity:0.85098" d="M62.25,37.7L62.3 37.7L62.4 37.65L62.2 37.6L62.35 37.6L61.7 37.65L62.25 37.7" />
<path style="fill:#E7EDD3;fill-opacity:0.85098" d="M62.35,37.6L62.45 37.6L62.6 37.55L62.65 37.55L63.3 37.55L63.4 37.55L63.55 37.55L64.15 37.6L64.25 37.6L65.05 37.6L64.3 37.5L63.85 37.5L63.15 37.5L63.05 37.5L62.3 37.5L61.75 37.55L61.7 37.55L61.45 37.7L61.7 37.65L62.35 37.6" />
<path style="fill:#ECF7E6;fill-opacity:0.85098" d="M62.7,37.6L62.7 37.65L62.65 37.65L63.05 37.65L63.05 37.6L63 37.6L62.75 37.6L62.7 37.6" />
<path style="fill:#F5FEFF;fill-opacity:0.85098" d="M61.35,37.9L61.3 37.9L61.25 37.95L61.25 38L61.2 38L61.35 38.05L62.2 37.85L62.9 37.75L63.25 37.75L63.3 37.75L64.15 37.75L64.75 37.7L64.1 37.7L63.55 37.7L62.95 37.7L62.55 37.7L62.3 37.7L61.4 37.85L61.35 37.9" />
<path style="fill:#999981;fill-opacity:0.85098" d="M63.3,37.55L62.65 37.55L62.7 37.6L62.75 37.6L63 37.6L63.05 37.6L63.05 37.65L63.1 37.65L63.3 37.55" />
<path style="fill:#C0B295;fill-opacity:0.85098" d="M63.7,37.45L64.15 37.4L63.5 37.4L61.7 37.5L62.3 37.5L63.05 37.5L63.15 37.5L63.7 37.45" />
<path style="fill:#E7C7B2;fill-opacity:0.901961" d="M65.15,37.75L64.75 37.7L64.15 37.75L63.3 37.75L63.25 37.75L62.9 37.75L62.2 37.85L61.35 38.05L61.45 38.05L61.6 38L63.45 37.8L65.1 37.75L65.45 37.8L65.15 37.75" />
<path style="fill:#A1AE69;fill-opacity:0.85098" d="M63.1,37.65L64 37.65L64.15 37.6L63.55 37.55L63.4 37.55L63.3 37.55L63.1 37.65" />
<path style="fill:#E3A710;fill-opacity:0.901961" d="M61.15,37.65L61.25 37.65L61.3 37.65L61.3 37.6L61.25 37.55L61.1 37.55L61.2 37.6L61.15 37.65" />
<path style="fill:#F7FDD9;fill-opacity:0.85098" d="M64.2,37.4L64.3 37.4L64.65 37.4L65.65 37.45L66.85 37.55L66.9 37.55L67.75 37.65L68.7 37.85L68.8 37.85L68.55 37.75L68.5 37.75L66.75 37.45L63.5 37.35L61.15 37.5L61.1 37.55L61.25 37.55L61.35 37.5L61.45 37.5L61.7 37.5L63.5 37.4L64.15 37.4L64.2 37.4M60.7,37.6L60.85 37.6L61.1 37.55L60.65 37.65L60.7 37.6" />
<path style="fill:#965702;fill-opacity:0.901961" d="M61.45,37.5L61.35 37.5L61.25 37.55L61.3 37.6L61.3 37.65L61.35 37.65L61.45 37.5" />
<path style="fill:#EFBD9A;fill-opacity:0.85098" d="M61.7,37.65L61.45 37.7L61.6 37.7L61.95 37.7L62.05 37.7L62.25 37.7L61.7 37.65" />
<path style="fill:#F4E66C;fill-opacity:0.85098" d="M61.7,37.5L61.45 37.5L61.35 37.65L61.7 37.55L61.75 37.55L62.3 37.5L61.7 37.5" />
<path style="fill:#CB8F2F;fill-opacity:0.85098" d="M61.15,38L61.15 37.95L61.1 38L61 38L61 37.9L60.8 37.85L60.65 37.85L60.75 38.15L60.95 38.2L61.15 38.1L61.15 38.05L61.2 38.05L61.2 38L61.25 38L61.25 37.95L61.15 38M60.8,37.95L60.95 37.95L60.85 38.1L60.75 38.05L60.8 37.95" />
<path style="fill:#D1C451;fill-opacity:0.85098" d="M61.25,37.95L61.3 37.9L61.35 37.9L61.4 37.85L61.75 37.75L61.6 37.75L61.25 37.85L61.2 37.85L61.15 37.95L61.15 38L61.25 37.95" />
<path style="fill:#C76121;fill-opacity:0.85098" d="M61.15,37.95L61.2 37.85L61.15 37.85L61.1 37.85L61 37.9L61 38L61.1 38L61.15 37.95" />
<path style="fill:#E4D7A2;fill-opacity:0.701961" d="M61.25,38.1L61.45 38.05L61.35 38.05L61.2 38L61.2 38.05L61.15 38.05L61.2 38.15L61.15 38.2L61.1 38.25L61.05 38.5L61.1 39.15L61.1 39.25L61.15 39.5L61.35 40.3L61.45 40.65L61.4 40.3L61.35 40.05L61.3 40L61.3 39.9L61.15 39.2L61.15 39.15L61.1 38.8L61.1 38.4L61.15 38.3L61.15 38.25L61.25 38.1" />
<path style="fill:#D9B79B;fill-opacity:0.701961" d="M61.25,38.95L61.2 38.65L61.25 38.25L61.3 38.1L61.45 38.05L61.25 38.1L61.15 38.25L61.15 38.3L61.15 38.5L61.15 38.55L61.2 38.85L61.25 38.95" />
<path style="fill:#948C43;fill-opacity:0.85098" d="M61.1,38.15L61.05 38.3L61.05 38.5L61.1 38.25L61.15 38.2L61.2 38.15L61.15 38.05L61.15 38.1L61.1 38.15" />
<path style="fill:#716211;fill-opacity:0.85098" d="M61.1,39.25L61.1 39.15L61.05 38.5L61.05 38.3L60.95 38.3L60.95 38.5L60.95 38.7L61 38.8L61.1 39.2L61.1 39.25" />
<path style="fill:#A76036;fill-opacity:0.85098" d="M61.15,39.1L61.2 39.15L61.2 39L61.15 38.55L61.15 38.5L61.15 38.3L61.1 38.4L61.1 38.8L61.15 39.15L61.15 39.1" />
<path style="fill:#97A17C;fill-opacity:0.701961" d="M61.3,39.55L61.3 39.65L61.35 39.65L61.35 39.75L61.35 39.8L61.5 40.3L61.45 40.05L61.45 39.85L61.25 38.95L61.2 38.85L61.15 38.55L61.2 39L61.2 39.15L61.3 39.55" />
<path style="fill:#6B1216;fill-opacity:0.85098" d="M61.15,39.7L61.1 39.7L60.5 39.6L61.1 39.85L61.2 40.05L61.25 40.15L61.35 40.3L61.15 39.5L61.1 39.25L61.1 39.2L61 38.8L61 38.95L61 39.05L61.05 39.25L61.1 39.55L61.1 39.6L61.15 39.7" />
<path style="fill:#9E6E30;fill-opacity:0.85098" d="M61,38.8L60.95 38.7L60.85 38.7L60.85 38.75L61 38.8M60.9,38.95L60.85 39.05L61 39.05L61 38.95L60.9 38.95" />
<path style="fill:#E3C28C;fill-opacity:0.85098" d="M61,38.95L61 38.8L60.85 38.75L60.9 38.95L61 38.95" />
<path style="fill:#982717;fill-opacity:0.85098" d="M60.85,39.05L60.8 39.05L60.6 39.15L61 39.05L60.85 39.05" />
<path style="fill:#C66157;fill-opacity:0.85098" d="M60.6,39.25L60.65 39.25L61.05 39.25L61 39.05L60.6 39.15L60.6 39.25" />
<path style="fill:#DD3C4E;fill-opacity:0.85098" d="M61.2,39.15L61.15 39.1L61.15 39.15L61.15 39.2L61.3 39.9L61.3 40L61.3 39.7L61.3 39.55L61.2 39.15" />
<path style="fill:#CC1220;fill-opacity:1" d="M60.65,39.5L61 39.6L61 39.35L60.65 39.3L60.9 39.35L60.65 39.5" />
<path style="fill:#BA1823;fill-opacity:1" d="M60.5,39.55L61.1 39.65L61.1 39.6L61.1 39.55L61.05 39.25L60.65 39.25L60.5 39.55M60.9,39.35L60.65 39.3L61 39.35L61 39.6L60.65 39.5L60.9 39.35" />
<path style="fill:#EE5875;fill-opacity:0.85098" d="M61.4,40.15L61.4 40.2L61.5 40.35L61.5 40.3L61.35 39.8L61.35 39.75L61.35 39.65L61.3 39.65L61.3 39.55L61.3 39.7L61.3 40L61.35 40.05L61.4 40.15" />
<path style="fill:#9E0C0C;fill-opacity:0.952941" d="M60.45,39.65L61.1 40L61.2 40.1L61.2 40.05L61.1 39.85L60.5 39.6L61.1 39.7L61.15 39.7L61.1 39.6L61.1 39.65L60.5 39.55L60.4 39.55L60.4 39.5L60.15 39.55L60.95 39.95L60.45 39.65M60.6,39.3L60.6 39.25L60.6 39.3" />
<path style="fill:#FFFDF4;fill-opacity:0.701961" d="M68.2,40.75L68.25 40.7L68.35 40.45L68.6 39.85L68.8 39.25L68.8 39.2L68.85 39.2L68.85 39.15L68.85 39.1L68.85 39.05L68.85 38.95L68.85 38.85L68.85 38.65L68.85 38.6L68.75 38.45L68.7 38.4L68.65 38.4L68.8 38.55L68.85 38.85L68.85 38.9L68.65 39.65L68.1 40.85L68.2 40.75M67.45,41.25L67.4 41.25L67.15 41.3L65.75 41.45L65.7 41.45L63.1 41.3L61.95 40.9L61.9 40.9L61.75 40.8L61.55 40.5L61.55 40.4L61.5 40.4L61.45 40.3L61.45 40.35L61.45 40.5L61.6 40.8L62.05 41.1L64.6 41.55L67.6 41.35L67.65 41.3L67.75 41.3L68 41.15L67.45 41.25" />
<path style="fill:#CED0A1;fill-opacity:0.85098" d="M61.5,40.3L61.5 40.35L61.5 40.4L61.55 40.4L61.55 40.5L61.75 40.8L61.9 40.9L61.95 40.9L62.2 41L62.4 41.05L61.75 40.7L61.55 40.25L61.45 39.85L61.45 40.05L61.5 40.3" />
<path style="fill:#72100F;fill-opacity:1" d="M60.95,40.15L61 40.1L60.95 40L60.95 39.95L60.15 39.55L60.05 39.55L60.1 39.6L60.4 39.8L60.95 40.1L60.6 39.9L60.8 40.05L60.95 40.15M60.9,40.2L60.8 40.1L60.5 39.85L60.45 39.8L60.85 40.2L60.9 40.2" />
<path style="fill:#8C1E12;fill-opacity:0.952941" d="M61,40.25L61.1 40.35L61.15 40.45L61.15 40.35L61.1 40.3L61.1 40.25L61.1 40.2L61.1 40.1L60.95 40L61 40.1L60.95 40.15L61 40.25" />
<path style="fill:#B4141E;fill-opacity:0.952941" d="M61.15,40.35L61.15 40.2L61.2 40.15L61.25 40.15L61.2 40.1L61.1 40L60.45 39.65L60.95 39.95L60.95 40L61.1 40.1L61.1 40.2L61.1 40.25L61.1 40.3L61.15 40.35" />
<path style="fill:#9E1F0E;fill-opacity:0.901961" d="M61.15,40.45L61.15 40.5L61.15 40.45" />
<path style="fill:#F52F3E;fill-opacity:0.85098" d="M61,40.25L60.95 40.15L60.8 40.05L60.8 40.1L60.9 40.2L60.95 40.25L61 40.25" />
<path style="fill:#0D0D0B;fill-opacity:0.8" d="M60.5,39.85L60.4 39.8L60.1 39.6L60.45 39.8L60.5 39.85M60.95,40.1L60.4 39.8L60.6 39.9L60.95 40.1" />
<path style="fill:#C98642;fill-opacity:0.85098" d="M61.15,40.45L61.1 40.35L61 40.25L60.95 40.25L61.1 40.55L61.2 40.8L61.25 40.85L61.35 41.1L61.4 41.15L61.3 40.9L61.4 41L61.3 40.85L61.2 40.55L61.2 40.5L61.15 40.5L61.15 40.45" />
<path style="fill:#F0E9B5;fill-opacity:0.85098" d="M61.85,41.2L61.85 41.25L62 41.25L61.95 41.2L61.6 41L61.6 40.95L61.3 40.45L61.3 40.35L61.25 40.3L61.2 40.5L61.3 40.65L61.3 40.7L61.4 40.8L61.4 40.85L61.45 40.95L61.5 40.95L61.65 41.1L61.7 41.15L61.85 41.2M61.45,40.5L61.45 40.35L61.45 40.3L61.5 40.4L61.5 40.35L61.4 40.2L61.4 40.15L61.35 40.05L61.4 40.3L61.45 40.5" />
<path style="fill:#EFC99C;fill-opacity:0.85098" d="M61.25,40.15L61.2 40.15L61.15 40.2L61.15 40.35L61.2 40.5L61.25 40.3L61.3 40.35L61.25 40.15" />
<path style="fill:#946014;fill-opacity:0.701961" d="M61.65,41L61.6 40.9L61.55 40.85L61.5 40.8L61.45 40.65L61.35 40.3L61.25 40.15L61.2 40.05L61.2 40.1L61.25 40.15L61.3 40.35L61.3 40.45L61.6 40.95L61.65 41" />
<path style="fill:#B78F49;fill-opacity:0.85098" d="M61.15,40.35L61.1 40.3L61.15 40.35" />
<path style="fill:#E4EBC5;fill-opacity:0.701961" d="M62.1,41.15L62.25 41.25L62.35 41.25L64.05 41.6L64.1 41.6L64.45 41.65L66.45 41.6L66.55 41.6L67.6 41.35L64.6 41.55L62.05 41.1L61.6 40.8L61.45 40.5L61.4 40.3L61.45 40.65L61.5 40.8L61.55 40.85L61.6 40.9L62.1 41.15" />
<path style="fill:#590D09;fill-opacity:0.8" d="M60.95,40.25L60.9 40.2L60.85 40.2L61.1 40.65L61.2 40.85L61.35 41.1L61.25 40.85L61.2 40.8L61.1 40.55L60.95 40.25" />
<path style="fill:#BDC0A3;fill-opacity:0.85098" d="M67.55,41.15L65.3 41.4L62.5 41.05L62.4 41.05L62.2 41L61.95 40.9L63.1 41.3L65.7 41.45L65.75 41.45L67.15 41.3L67.4 41.25L67.45 41.25L67.55 41.15" />
<path style="fill:#EEEAAA;fill-opacity:0.85098" d="M62.35,41.35L62.1 41.25L61.95 41.2L62 41.25L61.85 41.25L62.15 41.35L62.7 41.45L62.65 41.45L62.4 41.35L62.35 41.35" />
<path style="fill:#C8C461;fill-opacity:0.752941" d="M61.7,41.15L61.9 41.3L61.95 41.3L62.3 41.45L62.45 41.5L63.05 41.6L63.45 41.6L63.2 41.55L62.7 41.45L62.15 41.35L61.85 41.25L61.85 41.2L61.7 41.15" />
<path style="fill:#AB8018;fill-opacity:0.752941" d="M63.2,41.55L63.45 41.6L63.25 41.5L63.1 41.5L62.6 41.35L62.65 41.45L62.7 41.45L63.2 41.55" />
<path style="fill:#BDBB68;fill-opacity:0.752941" d="M64.05,41.6L62.35 41.25L62.5 41.35L62.4 41.35L62.65 41.45L62.6 41.35L63.1 41.5L63.25 41.5L64.05 41.6" />
<path style="fill:#7B7610;fill-opacity:0.701961" d="M62.1,41.15L61.9 41.15L61.95 41.2L62.1 41.25L62.35 41.35L62.4 41.35L62.5 41.35L62.35 41.25L62.25 41.25L62.1 41.15" />
<path style="fill:#F7EFAF;fill-opacity:0.8" d="M63.85,41.75L64.45 41.8L64 41.75L63.05 41.6L62.45 41.5L63.85 41.75" />
<path style="fill:#AA9A45;fill-opacity:0.752941" d="M62.45,41.5L62.3 41.45L61.95 41.3L61.9 41.3L61.65 41.2L62.1 41.45L62.4 41.55L62.5 41.55L62.75 41.6L64.05 41.8L63.85 41.75L62.45 41.5" />
<path style="fill:#C9D283;fill-opacity:0.752941" d="M63.45,41.6L63.2 41.55L63.45 41.6L63.05 41.6L64 41.75L66.45 41.7L66.6 41.65L65.95 41.7L65.7 41.7L65.25 41.75L64.45 41.7L64.15 41.7L63.45 41.6" />
<path style="fill:#A8B55D;fill-opacity:0.752941" d="M64.1,41.6L64.05 41.6L63.25 41.5L63.45 41.6L64.15 41.7L64.45 41.65L64.1 41.6" />
<path style="fill:#F6E387;fill-opacity:0.85098" d="M62.8,41.7L64.1 41.85L64.15 41.85L64.4 41.85L64.25 41.8L64.05 41.8L62.75 41.6L62.5 41.55L62.8 41.7" />
<path style="fill:#E4DF61;fill-opacity:0.85098" d="M61.6,41.3L62.8 41.7L62.5 41.55L62.4 41.55L62.1 41.45L61.65 41.2L61.7 41.3L61.6 41.3" />
<path style="fill:#8F5D12;fill-opacity:0.8" d="M61.5,40.95L61.45 40.95L61.4 40.85L61.4 40.8L61.3 40.7L61.3 40.65L61.2 40.5L61.15 40.35L61.15 40.45L61.15 40.5L61.2 40.5L61.2 40.55L61.3 40.85L61.4 41L61.45 41L61.55 41.1L61.5 40.95" />
<path style="fill:#C6A53A;fill-opacity:0.85098" d="M61.45,41L61.5 41.05L61.45 41" />
<path style="fill:#E5E285;fill-opacity:0.85098" d="M61.7,41.15L61.65 41.1L61.5 40.95L61.55 41.1L61.45 41L61.4 41L61.3 40.9L61.4 41.15L61.45 41.2L61.5 41.25L61.45 41.1L61.5 41.1L61.55 41.15L61.6 41.2L61.65 41.2L61.9 41.3L61.7 41.15M61.5,41.05L61.45 41L61.5 41.05" />
<path style="fill:#FFFFB5;fill-opacity:0.85098" d="M61.7,41.3L61.65 41.2L61.6 41.2L61.55 41.15L61.5 41.1L61.45 41.1L61.5 41.25L61.55 41.25L61.55 41.3L61.6 41.3L61.7 41.3" />
<path style="fill:#C1C87B;fill-opacity:0.701961" d="M61.6,40.9L61.65 41L61.6 40.95L61.6 41L61.95 41.2L61.9 41.15L62.1 41.15L61.6 40.9" />
<path style="fill:#D61024;fill-opacity:1" d="M60.6,39.3L60.4 39.5L60.4 39.55L60.5 39.55L60.65 39.25L60.6 39.25L60.6 39.3" />
<path style="fill:#AA1727;fill-opacity:0.85098" d="M60.5,39.85L60.8 40.1L60.8 40.05L60.6 39.9L60.4 39.8L60.5 39.85" />
<path style="fill:#E3E9CD;fill-opacity:0.85098" d="M68.75,38.3L68.65 38.25L68.1 38.05L67.95 38L66.8 37.85L66.05 37.8L65.65 37.75L65.15 37.75L65.45 37.8L65.65 37.8L66.7 37.9L68.2 38.15L68.6 38.35L68.65 38.4L68.7 38.4L68.75 38.3" />
<path style="fill:#9A9D50;fill-opacity:0.85098" d="M64,37.65L64.1 37.65L65.55 37.7L65.6 37.7L65.9 37.7L66 37.7L65.9 37.65L65.75 37.65L65.05 37.6L64.25 37.6L64.15 37.6L64 37.65" />
<path style="fill:#CDD29A;fill-opacity:0.85098" d="M66.95,37.75L66.7 37.75L65.9 37.65L66 37.7L65.9 37.7L67.55 37.95L66.95 37.75" />
<path style="fill:#F2F6C3;fill-opacity:0.85098" d="M67.1,37.75L67.2 37.8L68.25 37.95L68.35 38L68.4 38L68.45 38L68.65 38.05L68.4 37.9L68.3 37.9L68.25 37.9L67.75 37.75L66.65 37.6L64.5 37.5L63.85 37.5L64.3 37.5L65.05 37.6L65.75 37.65L65.9 37.65L66.7 37.75L66.95 37.75L67.1 37.75" />
<path style="fill:#DDD396;fill-opacity:0.85098" d="M68.05,37.8L68.7 37.85L67.75 37.65L66.9 37.55L66.85 37.55L65.65 37.45L64.65 37.4L64.3 37.4L64.2 37.4L64.15 37.4L63.7 37.45L63.15 37.5L63.85 37.5L64.5 37.5L66.65 37.6L67.75 37.75L68.25 37.9L68.05 37.8" />
<path style="fill:#F0F7C4;fill-opacity:0.85098" d="M68.65,38.25Q68.4 38.05 67.95 37.95L67.85 37.95L67.2 37.8L67.1 37.75L66.95 37.75L67.55 37.95L67.95 38L68.1 38.05L68.65 38.25" />
<path style="fill:#FBF49C;fill-opacity:0.85098" d="M68.25,37.9L68.3 37.9L68.4 37.9L68.8 38L68.65 37.9L68.7 37.9L68.85 37.95L68.9 37.95L68.8 37.9L68.8 37.85L68.7 37.85L68.05 37.8L68.25 37.9" />
<path style="fill:#D2D38F;fill-opacity:0.85098" d="M68.45,38L68.4 38L68.35 38L68.25 37.95L67.2 37.8L67.85 37.95L67.95 37.95Q68.4 38.05 68.65 38.25L68.75 38.3L68.7 38.3L68.45 38" />
<path style="fill:#B6A320;fill-opacity:1" d="M69.2,37.9L69.15 37.9L69 37.9L68.95 37.9L68.9 37.8L68.8 37.8L68.7 37.8L68.55 37.75L68.8 37.85L68.8 37.9L68.9 37.95L68.85 37.95L68.7 37.9L68.65 37.9L68.8 38L68.75 37.95L68.9 38L68.9 37.95L69.05 37.95L69.15 37.95L69.2 37.9" />
<path style="fill:#F8FCC1;fill-opacity:0.85098" d="M68.75,38.1L69 38.15L69.15 38.2L69.95 38.35L70.2 38.4L70.2 38.25L69.85 38.25L69.7 38.25L69.15 38.15L69.15 38.1L69 38.1L68.95 38.05L68.9 38.05L68.8 38.05L68.8 38L68.4 37.9L68.65 38.05L68.75 38.1" />
<path style="fill:#F7EFB1;fill-opacity:0.85098" d="M68.7,38.3L68.85 38.35L69 38.4L69.15 38.45L70.2 38.5L70.2 38.4L69.95 38.35L69.15 38.2L69 38.15L68.75 38.1L68.65 38.05L68.45 38L68.7 38.3" />
<path style="fill:#D6DFB4;fill-opacity:0.85098" d="M69,38.55L69.15 38.6L69.35 38.7L69.55 38.75L70.2 38.75L70.2 38.7L69.15 38.55L69.05 38.45L69 38.45L68.85 38.35L68.7 38.3L68.75 38.3L68.9 38.45L68.95 38.55L69 38.55" />
<path style="fill:#C1BF75;fill-opacity:0.701961" d="M68.85,38.5L68.95 38.55L68.9 38.45L68.75 38.3L68.7 38.4L68.75 38.45L68.85 38.6L68.85 38.5" />
<path style="fill:#898228;fill-opacity:0.701961" d="M68.9,38.85L69 38.9L69 38.85L69 38.65L68.95 38.55L68.85 38.5L68.85 38.6L68.85 38.65L68.85 38.85L68.9 38.85" />
<path style="fill:#E6E676;fill-opacity:0.701961" d="M69,38.9L68.9 38.85L68.9 38.95L68.95 39L69 38.9" />
<path style="fill:#C8BB8E;fill-opacity:0.701961" d="M68.95,39L68.9 38.95L68.9 38.85L68.85 38.85L68.85 38.95L68.85 39.05L68.9 39L68.95 39.1L68.95 39" />
<path style="fill:#E8E6AD;fill-opacity:0.701961" d="M68.85,39.1L68.85 39.15L68.85 39.25L68.85 39.4L68.9 39.25L68.9 39.2L68.95 39.1L68.9 39L68.85 39.05L68.85 39.1" />
<path style="fill:#AF7061;fill-opacity:0.701961" d="M68.85,39.1L68.85 39.15L68.85 39.1M68.55,40.2L68.55 40.15L68.6 40.1L68.65 40.1L68.65 40.05L68.75 39.8L68.7 39.85L68.85 39.2L68.8 39.2L68.8 39.25L68.65 39.8L68.6 39.9L68.55 40.2" />
<path style="fill:#D5B493;fill-opacity:0.85098" d="M68.95,39.15L68.9 39.2L68.9 39.25L68.85 39.4L68.95 39.25L69 39.2L69.05 39.15L69 39.15L68.95 39.15" />
<path style="fill:#8F461B;fill-opacity:0.85098" d="M69,39.15L69 39.1L69.15 39L69.2 38.95L69.15 38.95L69 39.05L69.1 38.8L69.1 38.75L69 38.85L69 38.9L68.95 39L68.95 39.1L68.9 39.2L68.95 39.15L69 39.15" />
<path style="fill:#74371B;fill-opacity:0.85098" d="M69,39.2L68.95 39.25L68.85 39.4L68.9 39.4L69.1 39.25L69.1 39.45L69.15 39.4L69.2 39.35Q69.25 39.15 69.3 39.3L69.35 39.2L69.3 39.15L69.2 39.15L69.25 38.95L69.05 39.15L69 39.2" />
<path style="fill:#B7835B;fill-opacity:0.85098" d="M69.25,39.45L69.3 39.3Q69.25 39.15 69.2 39.35L69.15 39.4L69.1 39.45L69.1 39.25L68.9 39.4L68.95 39.45L69.15 39.55L69.25 39.45" />
<path style="fill:#6B1D19;fill-opacity:0.85098" d="M68.65,40.05L68.8 39.9L68.75 40.1L68.95 39.9L69 39.9L69 39.85L69.05 39.8L69.05 39.75L69 39.75L68.85 39.8L68.85 39.75L68.9 39.5L68.9 39.4L68.85 39.4L68.85 39.45L68.75 39.8L68.65 40.05" />
<path style="fill:#D6D2AF;fill-opacity:0.701961" d="M68.7,39.85L68.75 39.8L68.85 39.45L68.85 39.4L68.85 39.25L68.85 39.15L68.85 39.2L68.7 39.85" />
<path style="fill:#B22633;fill-opacity:0.85098" d="M68.9,39.5L68.85 39.75L68.85 39.8L69 39.75L69.05 39.75L69.05 39.8L69.15 39.6L69.15 39.55L68.95 39.45L68.9 39.4L68.9 39.5" />
<path style="fill:#F9E1BD;fill-opacity:0.701961" d="M68.25,40.75L68.3 40.65L68.3 40.7L68.25 40.85L68.45 40.35L68.6 39.9L68.65 39.8L68.8 39.25L68.6 39.85L68.35 40.45L68.25 40.7L68.25 40.75" />
<path style="fill:#DCB991;fill-opacity:0.701961" d="M68.3,40.8L68.35 40.65L68.45 40.5L68.5 40.4L68.5 40.35L68.65 40.1L68.6 40.1L68.55 40.15L68.55 40.2L68.6 39.9L68.45 40.35L68.25 40.85L68.3 40.8" />
<path style="fill:#BD2031;fill-opacity:0.85098" d="M68.65,40.1L68.5 40.35L68.55 40.3L68.85 40.15L68.9 40.2L68.95 40.05L68.95 40L68.95 39.95L69 39.9L68.95 39.9L68.75 40.1L68.8 39.9L68.65 40.05L68.65 40.1" />
<path style="fill:#F91F42;fill-opacity:0.85098" d="M68.6,40.35L68.65 40.3L68.7 40.3L68.8 40.25L68.85 40.3L68.85 40.2L68.9 40.2L68.85 40.15L68.55 40.3L68.5 40.35L68.5 40.4L68.6 40.35" />
<path style="fill:#931926;fill-opacity:0.85098" d="M68.8,40.5L68.85 40.35L68.95 40.1L69.2 39.65L69.25 39.45L69.15 39.55L69.15 39.6L69.05 39.8L69 39.85L69 39.9L68.95 39.95L68.95 40L68.95 40.05L68.9 40.2L68.85 40.2L68.85 40.3L68.8 40.4L68.8 40.5" />
<path style="fill:#FFF4D2;fill-opacity:0.752941" d="M68.45,40.95L68.4 41.1L68.6 40.8L68.75 40.45L68.75 40.4L68.65 40.45L68.6 40.65L68.5 40.95L68.45 40.95" />
<path style="fill:#FFE0C7;fill-opacity:0.752941" d="M68.65,40.45L68.75 40.4L68.75 40.45L68.6 40.8L68.4 41.1L68.35 41.2L68.15 41.45L68.25 41.4L68.5 41.1L68.5 41.05L68.6 40.85L68.8 40.4L68.8 40.35L68.7 40.4L68.65 40.45" />
<path style="fill:#FB838C;fill-opacity:0.85098" d="M68.85,40.3L68.8 40.25L68.7 40.3L68.65 40.3L68.6 40.35L68.5 40.5L68.6 40.4L68.6 40.45L68.7 40.4L68.8 40.35L68.8 40.4L68.85 40.3" />
<path style="fill:#FFE4B2;fill-opacity:0.752941" d="M68.6,40.65L68.65 40.45L68.7 40.4L68.6 40.45L68.6 40.4L68.5 40.5L68.4 40.65L68.45 40.65L68.55 40.55L68.55 40.5L68.6 40.55L68.6 40.65" />
<path style="fill:#8A6C21;fill-opacity:0.752941" d="M68.5,40.9L68.5 40.95L68.6 40.65L68.6 40.55L68.5 40.75L68.45 40.9L68.5 40.9" />
<path style="fill:#D5B084;fill-opacity:0.752941" d="M68.6,40.95L68.8 40.5L68.8 40.4L68.6 40.85L68.6 40.95" />
<path style="fill:#BC955C;fill-opacity:0.85098" d="M68.35,40.8L68.4 40.7L68.4 40.65L68.5 40.5L68.6 40.35L68.5 40.4L68.45 40.5L68.35 40.65L68.3 40.8L68.25 40.85L68.25 40.9L68.15 41L68.35 40.8" />
<path style="fill:#DBAD6F;fill-opacity:0.752941" d="M68.45,40.75L68.5 40.7L68.45 40.9L68.4 40.9L68.45 40.9L68.5 40.75L68.6 40.55L68.55 40.5L68.55 40.55L68.45 40.65L68.4 40.65L68.4 40.7L68.45 40.75" />
<path style="fill:#FFD9BE;fill-opacity:0.701961" d="M68,41.15L68.05 41.1L68.1 41.05L68.15 41L68.25 40.9L68.25 40.85L68.3 40.7L68.3 40.65L68.25 40.75L68.2 40.75L68 41L67.95 41.05L67.45 41.25L68 41.15" />
<path style="fill:#EFCAB0;fill-opacity:0.85098" d="M67.45,41.25L67.95 41.05L68 41L68.2 40.75L68.1 40.85L68.05 40.95L67.55 41.15L67.45 41.25" />
<path style="fill:#F3F4BB;fill-opacity:0.752941" d="M68.1,41.05L68.1 41.1L67.9 41.25L67.7 41.35L67.55 41.45L67.35 41.5L67.4 41.5L67.8 41.4L67.95 41.3L68 41.25L68.1 41.15L68.1 41.1L68.15 41.1M68.15,41.1L68.15 41L68.1 41.05" />
<path style="fill:#F3C0AB;fill-opacity:0.752941" d="M68.4,40.85L68.4 40.8L68.35 40.8L68.15 41L68.15 41.1L68.3 40.9L68.2 41.2L68.4 40.85" />
<path style="fill:#DCEBAA;fill-opacity:0.752941" d="M67.1,41.55L67.3 41.55L67.6 41.55L67.65 41.55L67.05 41.65L67.3 41.65L67.75 41.55L67.95 41.45L68 41.4L68.15 41.3L68.2 41.25L68.1 41.3L68.05 41.3L68.05 41.25L68.1 41.2L68.15 41.1L68.1 41.1L68.1 41.15L68 41.25L67.95 41.3L67.8 41.4L67.4 41.5L67.35 41.5L67.55 41.45L67.7 41.35L67.9 41.25L68.1 41.1L68.05 41.1L68 41.15L67.75 41.3L67.4 41.45L67.25 41.5L67.2 41.5L67.1 41.55" />
<path style="fill:#E8BD9B;fill-opacity:0.752941" d="M68.25,41.25L68.25 41.2L68.35 41.1L68.4 40.9L68.4 40.85L68.2 41.2L68.3 40.9L68.15 41.1L68.1 41.1L68.15 41.1L68.1 41.2L68.05 41.25L68.05 41.3L68.1 41.3L68.2 41.25L68.25 41.25" />
<path style="fill:#FFFDFA;fill-opacity:0.752941" d="M68.15,41.45L68.2 41.35L68.25 41.25L68.2 41.25L68.15 41.3L68 41.4L67.95 41.45L67.95 41.5L68.1 41.5L68.15 41.45" />
<path style="fill:#FFEBC2;fill-opacity:0.752941" d="M68.2,41.35L68.45 40.95L68.45 40.9L68.4 40.9L68.35 41.1L68.25 41.2L68.25 41.25L68.2 41.35" />
<path style="fill:#F2975E;fill-opacity:0.752941" d="M68.15,41.45L68.35 41.2L68.4 41.1L68.45 40.95L68.5 40.95L68.5 40.9L68.45 40.9L68.45 40.95L68.2 41.35L68.15 41.45" />
<path style="fill:#D2D9A6;fill-opacity:0.752941" d="M68.25,41.4L68.15 41.45L68.1 41.5L67.8 41.6L67.15 41.8L67.2 41.8L67.3 41.8L68.3 41.4L68.25 41.4" />
<path style="fill:#F3B6A3;fill-opacity:0.752941" d="M68.5,41.1L68.25 41.4L68.3 41.4L68.45 41.25L68.45 41.2L68.5 41.1" />
<path style="fill:#FFFCBE;fill-opacity:0.752941" d="M68.1,41.5L67.95 41.5L67.95 41.45L67.75 41.55L67.3 41.65L67.4 41.65L67.8 41.6L68.1 41.5" />
<path style="fill:#BABB6B;fill-opacity:0.752941" d="M67.65,41.3L67.6 41.35L66.55 41.6L66.8 41.55L67.2 41.5L67.25 41.5L67.4 41.45L67.75 41.3L67.65 41.3" />
<path style="fill:#946D26;fill-opacity:0.752941" d="M68.4,40.9L68.45 40.9L68.5 40.7L68.45 40.75L68.4 40.7L68.35 40.8L68.4 40.8L68.4 40.85L68.4 40.9" />
<path style="fill:#EBD5BD;fill-opacity:0.752941" d="M68.45,41.2L68.6 41L68.6 40.95L68.6 40.85L68.5 41.05L68.5 41.1L68.45 41.2" />
<path style="fill:#CFB26E;fill-opacity:0.752941" d="M66.7,41.65L66.6 41.65L66.45 41.7L66.5 41.7L66.65 41.7L66.8 41.65L67.05 41.65L67.65 41.55L67.6 41.55L67.3 41.55L66.7 41.65" />
<path style="fill:#EAD699;fill-opacity:0.752941" d="M66.35,41.75L66.4 41.75L66.35 41.75" />
<path style="fill:#B07E1B;fill-opacity:0.752941" d="M67.3,41.55L67.1 41.55L67.2 41.5L66.8 41.55L66.55 41.6L66.7 41.65L67.3 41.55" />
<path style="fill:#C5AA67;fill-opacity:0.752941" d="M67.15,41.7L66.9 41.75L66.25 41.85L66.55 41.85L67.15 41.8L67.25 41.7L67.2 41.7L67.15 41.7" />
<path style="fill:#A5B68A;fill-opacity:0.752941" d="M64.15,41.85L65.5 41.9L67.2 41.8L67.15 41.8L66.55 41.85L66.25 41.85L66.2 41.85L64.55 41.85L64.4 41.85L64.15 41.85" />
<path style="fill:#D1DAA3;fill-opacity:0.752941" d="M67.8,41.6L67.4 41.65L67.2 41.7L67.25 41.7L67.15 41.8L67.8 41.6" />
<path style="fill:#89913E;fill-opacity:0.752941" d="M66.7,41.65L66.55 41.6L66.45 41.6L64.45 41.65L64.15 41.7L64.45 41.7L65.25 41.75L65.7 41.7L65.95 41.7L66.6 41.65L66.7 41.65" />
<path style="fill:#C1C78B;fill-opacity:0.752941" d="M64.45,41.8L63.85 41.75L64.05 41.8L64.25 41.8L64.4 41.85L64.55 41.85L66.3 41.75L66.35 41.75L66.4 41.75L66.9 41.75L67.15 41.7L67.2 41.7L67.4 41.65L67.3 41.65L67.05 41.65L66.8 41.65L66.65 41.7L66.5 41.7L66.45 41.7L64 41.75L64.45 41.8" />
<path style="fill:#EEF5AF;fill-opacity:0.752941" d="M66.4,41.75L66.35 41.75L66.3 41.75L64.55 41.85L66.2 41.85L66.25 41.85L66.9 41.75L66.4 41.75" />
<path style="fill:#A68649;fill-opacity:1" d="M69.45,38.1L69.4 38.15L68.95 38.05L69 38.1L69.15 38.1L69.15 38.15L69.7 38.25L69.45 38.1" />
<path style="fill:#801E03;fill-opacity:1" d="M69.8,38.05L69.15 38L69.05 38L69.15 37.95L69.3 37.95L69.25 37.9L69.2 37.9L69.15 37.95L69.05 37.95L68.9 37.95L68.9 38L68.75 37.95L68.8 38L68.8 38.05L68.9 38.05L68.95 38.05L69.4 38.15L69.45 38.1L69.7 38.25L69.85 38.25L69.8 38.05" />
<path style="fill:#F2E45F;fill-opacity:1" d="M68.95,37.9L69 37.9L69.15 37.9L69.1 37.85L69 37.85L68.95 37.85L68.9 37.8L68.95 37.9" />
<path style="fill:#1E0C02;fill-opacity:1" d="M69.3,37.95L69.15 37.95L69.05 38L69.15 38L69.8 38.05L69.85 38.05L69.3 37.95" />
<path style="fill:#6F694F;fill-opacity:1" d="M69.85,38.05L69.8 38.05L69.25 37.9L69.3 37.95L69.85 38.05" />
<path style="fill:#813C00;fill-opacity:1" d="M70,38.15L70.2 38.25L70.2 38.15L70 38.15" />
<path style="fill:#C4851E;fill-opacity:1" d="M70.2,38.15L69.8 38.05L69.85 38.25L70.2 38.25L70 38.15L70.2 38.15M69.8,38.05L69.85 38.05L69.8 38.05" />
<path style="fill:#545121;fill-opacity:0.901961" d="M70.05,38.85L70 38.9L70.15 38.95L70.2 38.8L70.05 38.85" />
<path style="fill:#7F8930;fill-opacity:0.901961" d="M70.2,39.05L70.15 38.95L70 38.9L70.05 38.85L70 38.85L69.95 38.9L69.95 38.95L69.85 39.05L69.8 39.05L70.2 39.05" />
<path style="fill:#ADA167;fill-opacity:0.85098" d="M70,38.85L70.05 38.85L70.2 38.8L70.2 38.75L69.55 38.75L69.45 38.85L69.55 38.85L69.65 38.85L69.8 38.85L69.95 38.85L70 38.85" />
<path style="fill:#FFCE7F;fill-opacity:0.901961" d="M69.95,38.85L69.8 38.85L69.95 38.95L69.95 38.9L69.95 38.85" />
<path style="fill:#D8A339;fill-opacity:0.901961" d="M69.8,38.85L69.65 38.85L69.7 39L69.55 38.85L69.55 38.9L69.6 39L69.7 39.05L69.85 39.05L69.95 38.95L69.8 38.85M69.95,38.85L69.95 38.9L70 38.85L69.95 38.85" />
<path style="fill:#986218;fill-opacity:0.85098" d="M69.5,39.1L69.5 39.15L69.8 39.05L69.85 39.05L69.7 39.05L69.5 39.1" />
<path style="fill:#AD6519;fill-opacity:0.901961" d="M69.65,38.85L69.55 38.85L69.7 39L69.65 38.85" />
<path style="fill:#E5D7A8;fill-opacity:0.85098" d="M69.15,38.45L69 38.4L68.85 38.35L69 38.45L69.05 38.45L69.15 38.55L70.2 38.7L70.2 38.5L69.15 38.45" />
<path style="fill:#8C6522;fill-opacity:0.85098" d="M69.35,38.7L69.15 38.6L69 38.55L68.95 38.55L69 38.65L69.05 38.65L69.1 38.65L69.15 38.7L69.3 38.8L69.35 38.7" />
<path style="fill:#EAC787;fill-opacity:0.85098" d="M69.3,38.8L69.25 38.85L69.3 38.9L69.35 38.85L69.45 38.85L69.55 38.75L69.35 38.7L69.3 38.8" />
<path style="fill:#DE9B57;fill-opacity:0.85098" d="M69.3,38.9L69.25 38.9L69.4 39.05L69.6 39L69.55 38.9L69.5 38.95L69.35 38.85L69.3 38.9" />
<path style="fill:#FDE6A0;fill-opacity:0.85098" d="M69.5,39.1L69.7 39.05L69.6 39L69.4 39.05L69.5 39.1" />
<path style="fill:#A5541D;fill-opacity:0.85098" d="M69.35,38.85L69.5 38.95L69.55 38.9L69.55 38.85L69.45 38.85L69.35 38.85" />
<path style="fill:#D08657;fill-opacity:0.85098" d="M69.15,39L69 39.1L69 39.15L69.05 39.15L69.25 38.95L69.25 38.9L69.3 38.9L69.25 38.85L69.2 38.95L69.15 39" />
<path style="fill:#A36220;fill-opacity:0.85098" d="M69.1,38.75L69.1 38.8L69 39.05L69.15 38.95L69.2 38.95L69.25 38.85L69.3 38.8L69.15 38.7L69.1 38.65L69.05 38.65L69 38.65L69 38.85L69.1 38.75" />
<path style="fill:#AD6C34;fill-opacity:0.85098" d="M69.25,38.9L69.25 38.95L69.2 39.15L69.3 39.15L69.35 39.2L69.4 39.05L69.25 38.9" />
<path style="fill:#A9844F;fill-opacity:0.85098" d="M69.5,39.15L69.5 39.1L69.4 39.05L69.35 39.2L69.3 39.3L69.25 39.45L69.2 39.65L69.35 39.35L69.5 39.15" />
<path style="fill:#FFE1A8;fill-opacity:0.901961" d="M69.8,39.05L69.5 39.15L69.35 39.35L70.2 39.05L69.8 39.05" />
<path style="fill:#B22532;fill-opacity:0.85098" d="M69.15,39.55L69.15 39.6L69.15 39.55" />
<path style="fill:none;stroke-width:0.05;stroke-linecap:round;stroke-linejoin:round;stroke-miterlimit:3;stroke:#FFCC00;stroke-opacity:1" d="M60.85,38.1L60.8 37.95" />
<radialGradient
id="RadialGradID_4886" gradientUnits="userSpaceOnUse" gradientTransform="matrix(-0.0117035, 0, 0, 0.0117035, 58.7, 34.5)" spreadMethod ="pad" cx="0" cy="0" r="819.2" fx="0" fy="0" >
<stop  offset="0"  style="stop-color:#FFFFFF;stop-opacity:0.8" />
<stop  offset="1"  style="stop-color:#FFFFFF;stop-opacity:0" />
</radialGradient>
<path style="fill:url(#RadialGradID_4886) " d="M62.15,37.95Q61.4 37.95 61.4 38.7Q61.4 39.45 61.85 40.4L62.55 40.75Q62.75 40.9 62.55 40.25L62.35 39.15Q62.35 38.65 62.9 38.55L64.3 38.3L65.35 38.15L65.95 37.95Q66.25 37.8 65.7 37.8L62.9 37.85L62.15 37.95" />
<radialGradient
id="RadialGradID_4887" gradientUnits="userSpaceOnUse" gradientTransform="matrix(-0.00668335, 0, 0, 0.00668335, 69.7, 42.45)" spreadMethod ="pad" cx="0" cy="0" r="819.2" fx="0" fy="0" >
<stop  offset="0"  style="stop-color:#FFFFFF;stop-opacity:0.8" />
<stop  offset="1"  style="stop-color:#FFFFFF;stop-opacity:0" />
</radialGradient>
<path style="fill:url(#RadialGradID_4887) " d="M68.3,39.45L68.35 39.3L68.25 38.85L68.15 38.9Q67.7 40.85 65.25 41.1L67.2 41.15Q68.05 41 68.2 40.3L68.3 39.45" />
</g>
</svg>
