<?xml version="1.0" encoding="utf-8"?>
<svg version="1.1" id="Layer_1"
xmlns="http://www.w3.org/2000/svg"
xmlns:xlink="http://www.w3.org/1999/xlink"
xmlns:author="http://www.sothink.com"
width="21px" height="6px"
xml:space="preserve">
<g id="648" transform="matrix(1, 0, 0, 1, -59.85, -37.05)">
<path style="fill:#93968D;fill-opacity:1" d="M79.2,39.85L78.95 40.85L78.5 41.55L78 41.9L77.35 42L76.9 42.05L75.8 42.1L75.7 42.1L74.4 42.05L73.8 42L72.9 41.75L72.7 41.6L72.35 41.2L72.3 41.1Q72 40.75 71.85 40.05L71.75 39.7L71.65 39.05L71.65 38.85L71.6 38.6L71.5 38.5L71.1 38.4L70.7 38.4L70.6 38.4L70.5 38.4L70.25 38.4L69.6 38.4L69.6 38.15L70.75 38.15L71.35 38.25L71.45 38.25L71.55 38.3L71.6 38.35L71.75 38.55L71.75 38.45L71.8 38.55L71.85 38.55L71.85 38.6L71.85 38.7L71.85 38.75L71.85 38.85L71.9 39L71.9 39.1L71.95 39.4L72 39.7L72.05 39.95L72 39.85L72.5 40.7L72.15 40.2L72.2 40.4L72.3 40.55L72.55 40.85L72.65 40.95L72.6 40.85L72.75 41.05L73 41.3Q73.05 41.4 73.65 41.55L74.9 41.7L76.05 41.7L77.3 41.65L77.4 41.6Q78.6 41.25 78.8 39.8L78.9 39L79 39L79.05 39L79.15 39L79.2 39.85M71.95,39.85L71.95 39.8L71.95 39.85M72.1,40.45L72.3 40.95L72.75 41.5L72.8 41.55Q73.15 41.9 74.6 41.95L76.95 41.95L78.15 41.7L78.6 41.25L78.95 40.7L79 39.15L78.9 39.45L78.9 40.15Q78.7 41.6 77.1 41.8L77.05 41.85L77 41.85L75.8 41.85L75.75 41.85L74.05 41.8L74 41.8L73.95 41.8L72.95 41.5L72.8 41.3L72.55 41.05L72.1 40.45" />
<path style="fill:#A8ADA7;fill-opacity:1" d="M79.25,39.15L79.35 39.15L79.4 39.15L79.6 39.15L80.05 39.15L80.05 39.5L79.25 39.5L79.25 39.15" />
<path style="fill:#E0E6DE;fill-opacity:1" d="M79.25,39L80.05 39L80.05 39.15L79.6 39.15L79.4 39.15L79.35 39.15L79.25 39.15L79.25 39" />
<path style="fill:#C1C8C0;fill-opacity:1" d="M71.95,39.8L71.95 39.85L71.95 39.8M72.55,41.05L72.8 41.3L72.95 41.5L73.95 41.8L74 41.8L74.05 41.8L75.75 41.85L75.8 41.85L77 41.85L77.05 41.85L77.1 41.8Q78.7 41.6 78.9 40.15L78.9 39.45L79 39.15L78.95 40.7L78.6 41.25L78.15 41.7L76.95 41.95L74.6 41.95Q73.15 41.9 72.8 41.55L72.75 41.5L72.3 40.95L72.1 40.45L72.55 41.05" />
<path style="fill:#61615F;fill-opacity:1" d="M79.25,39.15L79.25 39.5L79.3 39.55Q79.2 40.75 78.9 41.2L78.25 41.85L77.85 42.05L77.15 42.15L75.8 42.2L73.8 42.15L72.65 41.75L72.6 41.7L72.4 41.55L72.25 41.3L72.05 41L71.85 40.65L71.75 40.4L71.7 40.2L71.55 39.6L71.45 39.35L71.45 39.2L71.45 39.15L71.45 39.05L71.3 38.85L71.25 38.75L71.15 38.75L70.95 38.6L70.7 38.55L70.55 38.55L69.6 38.6L69.6 38.4L70.25 38.4L70.5 38.4L70.6 38.4L70.7 38.4L71.1 38.4L71.5 38.5L71.6 38.6L71.65 38.85L71.65 39.05L71.75 39.7L71.85 40.05Q72 40.75 72.3 41.1L72.35 41.2L72.7 41.6L72.9 41.75L73.8 42L74.4 42.05L75.7 42.1L75.8 42.1L76.9 42.05L77.35 42L78 41.9L78.5 41.55L78.95 40.85L79.2 39.85L79.15 39L79.2 39L79.25 39L79.25 39.15" />
<path style="fill:#8D928B;fill-opacity:1" d="M71.15,38.75L71.1 38.7L71 38.7L70.65 38.7L69.6 38.7L69.6 38.6L70.55 38.55L70.7 38.55L70.95 38.6L71.15 38.75" />
<path style="fill:#000000;fill-opacity:0.25098" d="M79.15,39L79.05 39L79 39L79 38.05L78.95 37.75L78.85 37.6Q78.8 37.45 78.4 37.35L75.75 37.25L72.85 37.4Q72 37.55 71.95 37.7L71.8 38.4L71.75 38.45L71.75 38.55L71.6 38.35L71.65 38.15L71.8 37.55L72.8 37.25L75.8 37.05L78.4 37.2L79 37.4L79.1 37.65L79.15 37.95L79.2 39L79.15 39" />
<radialGradient
id="RadialGradID_5248" gradientUnits="userSpaceOnUse" gradientTransform="matrix(0.00750732, -6.10352e-005, 0, 0.00740051, 77.5, 37.6)" spreadMethod ="pad" cx="0" cy="0" r="819.2" fx="0" fy="0" >
<stop  offset="0"  style="stop-color:#FFFFFF;stop-opacity:0.972549" />
<stop  offset="1"  style="stop-color:#FFFFFF;stop-opacity:0" />
</radialGradient>
<path style="fill:url(#RadialGradID_5248) " d="M75.7,37.3L75.85 37.15L76 37.15L77.1 37.2L77.35 37.2L77.55 37.2L77.85 37.2L78.55 37.35L78.9 37.6L78.95 38.1L78.85 38.85L78.8 38.9L78.75 38.1L78.65 37.65Q78.6 37.5 78.2 37.4L77.9 37.35L77.75 37.35L76.4 37.3L76.3 37.35L75.85 37.35L75.8 37.35L75.7 37.35L75.7 37.3" />
<radialGradient
id="RadialGradID_5249" gradientUnits="userSpaceOnUse" gradientTransform="matrix(0.00765991, 0, 0, 0.00775146, 73.65, 37.55)" spreadMethod ="pad" cx="0" cy="0" r="819.2" fx="0" fy="0" >
<stop  offset="0"  style="stop-color:#FFFFFF;stop-opacity:0.972549" />
<stop  offset="1"  style="stop-color:#FFFFFF;stop-opacity:0" />
</radialGradient>
<path style="fill:url(#RadialGradID_5249) " d="M75.75,37.15L75.85 37.15L75.7 37.3L75.7 37.35L75.65 37.35L75.45 37.35L75.25 37.35L74.9 37.35L74.75 37.35L73 37.45Q72.25 37.65 72.15 37.8L72.05 38.4L72 38.7L71.9 38.65L71.85 38.25Q71.85 37.85 72 37.65Q72.1 37.5 72.5 37.4L73.9 37.2L74.25 37.2L74.85 37.2L75.1 37.2L75.15 37.2L75.7 37.15L75.75 37.15" />
<radialGradient
id="RadialGradID_5250" gradientUnits="userSpaceOnUse" gradientTransform="matrix(0.008255, 0, 0, 0.00836182, 73.6, 37.4)" spreadMethod ="pad" cx="0" cy="0" r="819.2" fx="0" fy="0" >
<stop  offset="0"  style="stop-color:#FFFFFF;stop-opacity:0.972549" />
<stop  offset="1"  style="stop-color:#FFFFFF;stop-opacity:0" />
</radialGradient>
<path style="fill:url(#RadialGradID_5250) " d="M75.7,37.15L75.75 37.15L75.7 37.15" />
<radialGradient
id="RadialGradID_5251" gradientUnits="userSpaceOnUse" gradientTransform="matrix(0.00485229, -0.000274658, -0.000244141, -0.00572205, 74.2, 39.95)" spreadMethod ="pad" cx="0" cy="0" r="819.2" fx="0" fy="0" >
<stop  offset="0"  style="stop-color:#FFFFFF;stop-opacity:0.972549" />
<stop  offset="1"  style="stop-color:#FFFFFF;stop-opacity:0" />
</radialGradient>
<path style="fill:url(#RadialGradID_5251) " d="M71.85,39.75Q72.2 40.75 72.6 41.15L72.6 41.2L73 41.6L73.05 41.6L73.05 41.65L73.8 41.8L74.1 41.85L74.15 41.85L74.3 41.9L75.3 42L74 42L73.9 42L73.35 41.9L73.2 41.9L73 41.8L72.75 41.6L72.5 41.35L72.4 41.2L71.95 40.3L71.85 39.75" />
<radialGradient
id="RadialGradID_5252" gradientUnits="userSpaceOnUse" gradientTransform="matrix(-0.00488281, -4.57764e-005, -0.00218201, -0.00572205, 75.7, 38.75)" spreadMethod ="pad" cx="0" cy="0" r="819.2" fx="0" fy="0" >
<stop  offset="0"  style="stop-color:#FFFFFF;stop-opacity:0.972549" />
<stop  offset="1"  style="stop-color:#FFFFFF;stop-opacity:0" />
</radialGradient>
<path style="fill:url(#RadialGradID_5252) " d="M79.1,40L78.85 40.75L78.55 41.55L78.15 41.8L77.8 41.9L76.55 42L77.25 41.85L77.55 41.8L77.7 41.8L78.05 41.6L78.5 41.2L78.8 40.5L78.95 39.5L79.1 40" />
<path style="fill:#93968D;fill-opacity:1" d="M69.7,38.4L69.45 38.4L69.35 38.4L69.2 38.4L68.8 38.4L68.45 38.5L68.4 38.6L68.35 38.85L68.3 39.05L68.15 39.7L68.1 40.05L67.65 41.1L67.6 41.2L67.2 41.6L67.05 41.75L66.15 42L65.55 42.05L64.25 42.1L64.15 42.1L63.05 42.05L62.55 42L61.95 41.9L61.4 41.55L60.95 40.85L60.75 39.85L60.8 39L60.85 39L60.95 39L61.05 39L61.2 39.8Q61.3 41.25 62.5 41.6L62.65 41.65L63.85 41.7L65.05 41.7L66.35 41.55L66.95 41.3L67.15 41.05L67.4 40.85L67.35 40.95L67.4 40.85L67.6 40.55L67.7 40.4L67.8 40.2L67.5 40.7L67.9 39.85L67.85 39.95L67.95 39.7L68 39.4L68.05 39.1L68.05 39L68.05 38.85L68.05 38.75L68.1 38.7L68.1 38.6L68.1 38.55L68.15 38.45L68.15 38.55L68.2 38.55L68.4 38.35L68.45 38.3L68.55 38.25L68.6 38.25L69.15 38.15L70.3 38.15L70.3 38.4L69.7 38.4M60.95,39.15Q60.8 40.35 60.95 40.7L61.3 41.25L61.75 41.7L63 41.95L65.35 41.95L67.1 41.55L67.2 41.5L67.6 40.95L67.85 40.45L67.4 41.05L67.15 41.3L66.95 41.5L65.95 41.8L65.9 41.8L64.2 41.85L62.9 41.85L62.8 41.8Q61.25 41.6 61.1 40.15L61.1 39.45L60.95 39.15M68,39.8L67.95 39.85L68 39.85L68 39.8" />
<path style="fill:#A8ADA7;fill-opacity:1" d="M60.65,39.5L59.85 39.5L59.85 39.15L60.35 39.15L60.5 39.15L60.6 39.15L60.65 39.15L60.65 39.5" />
<path style="fill:#E0E6DE;fill-opacity:1" d="M60.65,39.15L60.6 39.15L60.5 39.15L60.35 39.15L59.85 39.15L59.85 39L60.65 39L60.65 39.15" />
<path style="fill:#C1C8C0;fill-opacity:1" d="M61.1,39.45L61.1 40.15Q61.25 41.6 62.8 41.8L62.9 41.85L64.2 41.85L65.9 41.8L65.95 41.8L66.95 41.5L67.15 41.3L67.4 41.05L67.85 40.45L67.6 40.95L67.2 41.5L67.1 41.55L65.35 41.95L63 41.95L61.75 41.7L61.3 41.25L60.95 40.7Q60.8 40.35 60.95 39.15L61.1 39.45M68,39.85L67.95 39.85L68 39.8L68 39.85" />
<path style="fill:#61615F;fill-opacity:1" d="M69.45,38.55L69.25 38.55L68.95 38.6L68.75 38.75L68.7 38.75L68.6 38.85L68.55 39.05L68.55 39.15L68.5 39.2L68.5 39.35L68.45 39.6L68.3 40.2L68.2 40.4L68.05 40.65L67.9 41L67.7 41.3L67.5 41.55L67.35 41.7L67.3 41.75Q66.9 42.05 66.15 42.15L64.15 42.2L62.75 42.15L62.15 42.05L61.65 41.85L61.1 41.2Q60.7 40.75 60.65 39.55L60.65 39.5L60.65 39.15L60.65 39L60.75 39L60.8 39L60.75 39.85L60.95 40.85L61.4 41.55L61.95 41.9L62.55 42L63.05 42.05L64.15 42.1L64.25 42.1L65.55 42.05L66.15 42L67.05 41.75L67.2 41.6L67.6 41.2L67.65 41.1L68.1 40.05L68.15 39.7L68.3 39.05L68.35 38.85L68.4 38.6L68.45 38.5L68.8 38.4L69.2 38.4L69.35 38.4L69.45 38.4L69.7 38.4L70.3 38.4L70.3 38.6L69.45 38.55" />
<path style="fill:#8D928B;fill-opacity:1" d="M70.3,38.6L70.3 38.7L69.25 38.7L68.95 38.7L68.85 38.7L68.75 38.75L68.95 38.6L69.25 38.55L69.45 38.55L70.3 38.6" />
<path style="fill:#000000;fill-opacity:0.25098" d="M60.75,39L60.8 37.95L60.85 37.65L60.95 37.4L61.55 37.2L64.2 37.05L67.15 37.25L68.1 37.55L68.3 38.15L68.4 38.35L68.2 38.55L68.15 38.55L68.15 38.45L68.15 38.4L68 37.7L67.05 37.4L64.2 37.25L61.55 37.35Q61.15 37.45 61.1 37.6L61.05 37.75L60.95 38.05L60.95 39L60.85 39L60.8 39L60.75 39" />
<radialGradient
id="RadialGradID_5253" gradientUnits="userSpaceOnUse" gradientTransform="matrix(-0.00750732, -6.10352e-005, 0, 0.00740051, 62.35, 37.6)" spreadMethod ="pad" cx="0" cy="0" r="819.2" fx="0" fy="0" >
<stop  offset="0"  style="stop-color:#FFFFFF;stop-opacity:0.972549" />
<stop  offset="1"  style="stop-color:#FFFFFF;stop-opacity:0" />
</radialGradient>
<path style="fill:url(#RadialGradID_5253) " d="M64.15,37.3L64 37.15L63.85 37.15L62.75 37.2L62.5 37.2L62.3 37.2L62 37.2L61.3 37.35Q61.05 37.4 60.95 37.6L60.9 38.1L61 38.85L61.05 38.9L61.1 38.1L61.2 37.65Q61.25 37.5 61.65 37.4L61.95 37.35L62.1 37.35L63.45 37.3L63.55 37.35L64 37.35L64.05 37.35L64.15 37.35L64.15 37.3" />
<radialGradient
id="RadialGradID_5254" gradientUnits="userSpaceOnUse" gradientTransform="matrix(-0.00765991, 0, 0, 0.00775146, 66.2, 37.55)" spreadMethod ="pad" cx="0" cy="0" r="819.2" fx="0" fy="0" >
<stop  offset="0"  style="stop-color:#FFFFFF;stop-opacity:0.972549" />
<stop  offset="1"  style="stop-color:#FFFFFF;stop-opacity:0" />
</radialGradient>
<path style="fill:url(#RadialGradID_5254) " d="M64.1,37.15L64 37.15L64.15 37.3L64.15 37.35L64.2 37.35L64.4 37.35L64.6 37.35L64.95 37.35L65.1 37.35L66.85 37.45L67.7 37.8L67.8 38.4L67.85 38.7L67.95 38.65L68 38.25L67.85 37.65L67.35 37.4L65.95 37.2L65.6 37.2L65 37.2L64.75 37.2L64.7 37.2L64.15 37.15L64.1 37.15" />
<radialGradient
id="RadialGradID_5255" gradientUnits="userSpaceOnUse" gradientTransform="matrix(-0.008255, 0, 0, 0.00836182, 66.25, 37.4)" spreadMethod ="pad" cx="0" cy="0" r="819.2" fx="0" fy="0" >
<stop  offset="0"  style="stop-color:#FFFFFF;stop-opacity:0.972549" />
<stop  offset="1"  style="stop-color:#FFFFFF;stop-opacity:0" />
</radialGradient>
<path style="fill:url(#RadialGradID_5255) " d="M64.15,37.15L64.1 37.15L64.15 37.15" />
<radialGradient
id="RadialGradID_5256" gradientUnits="userSpaceOnUse" gradientTransform="matrix(-0.00485229, -0.000274658, 0.000244141, -0.00572205, 65.65, 39.95)" spreadMethod ="pad" cx="0" cy="0" r="819.2" fx="0" fy="0" >
<stop  offset="0"  style="stop-color:#FFFFFF;stop-opacity:0.972549" />
<stop  offset="1"  style="stop-color:#FFFFFF;stop-opacity:0" />
</radialGradient>
<path style="fill:url(#RadialGradID_5256) " d="M68,39.75L67.25 41.15L67.25 41.2L66.85 41.6L66.8 41.6L66.8 41.65L66.05 41.8L65.75 41.85L65.7 41.85L65.55 41.9L64.55 42L65.85 42L65.95 42L66.5 41.9L66.65 41.9L66.85 41.8L67.1 41.6L67.35 41.35L67.45 41.2L67.9 40.3L68 39.75" />
<radialGradient
id="RadialGradID_5257" gradientUnits="userSpaceOnUse" gradientTransform="matrix(0.00488281, -4.57764e-005, 0.00218201, -0.00572205, 64.15, 38.75)" spreadMethod ="pad" cx="0" cy="0" r="819.2" fx="0" fy="0" >
<stop  offset="0"  style="stop-color:#FFFFFF;stop-opacity:0.972549" />
<stop  offset="1"  style="stop-color:#FFFFFF;stop-opacity:0" />
</radialGradient>
<path style="fill:url(#RadialGradID_5257) " d="M60.75,40L61 40.75L61.3 41.55L61.7 41.8L62.05 41.9L63.3 42L62.6 41.85L62.3 41.8L62.15 41.8L61.8 41.6L61.35 41.2L61.05 40.5L60.9 39.5L60.75 40" />
</g>
</svg>
