<?xml version="1.0" encoding="utf-8"?>
<svg version="1.1" id="Layer_1"
xmlns="http://www.w3.org/2000/svg"
xmlns:xlink="http://www.w3.org/1999/xlink"
xmlns:author="http://www.sothink.com"
width="21px" height="5px"
xml:space="preserve">
<g id="643" transform="matrix(1, 0, 0, 1, -59.9, -37.5)">
<path style="fill:#F6F6EE;fill-opacity:1" d="M80.15,38.75L79.85 38.75L79.6 38.85L79.6 39.05L79.5 39.2L79.4 39.15L79.4 38.8L79.3 38.45Q79.2 38.3 78.9 38.2L78.25 38L78.2 38L74.8 38.05L73.6 38.3L72.8 38.35L72.45 38.45L71.15 38.95L71.05 39.2L71.05 39.25L71 39.5L70.95 39.55L70.9 39.55L70.85 39.55L70.8 39.45L70.8 39.35L70.8 39.2L70.45 39.15L70 39.15L70.05 39L70.6 39.05L70.8 39L71.05 38.9L71.55 38.65L72 38.45L72.45 38.35L73.05 38.25L74.15 38.1L76.35 37.9L78.6 37.9L79.45 38.35L79.5 38.35L79.6 38.45L79.85 38.55L80.1 38.6L80.15 38.65L80.15 38.75" />
<path style="fill:#F5EDE3;fill-opacity:1" d="M71.35,40.15L71.35 40.1L71.3 39.95L71.3 39.7L71.3 39.45L71.25 39.05L71.1 39.45L71.1 39.55L70.95 39.65L70.75 39.55L70.7 39.5L70.65 39.4L70.6 39.35L70.45 39.3L70 39.3L70 39.15L70.45 39.15L70.8 39.2L70.8 39.35L70.8 39.45L70.85 39.55L70.9 39.55L70.95 39.55L71 39.5L71.05 39.25L71.05 39.2L71.15 38.95L72.45 38.45L72.8 38.35L73.6 38.3L74.8 38.05L78.2 38L78.25 38L78.9 38.2Q79.2 38.3 79.3 38.45L79.4 38.8L79.4 39.15L79.5 39.2L79.6 39.05L79.6 38.85L79.85 38.75L80.15 38.75L79.9 39.2L79.45 39.65L79.15 40.15L79 40.65L79.35 39.95L79.65 39.55L79.9 39.3L80.1 39.2L80.2 39.1L80.2 38.75L80.2 38.65L80.3 38.8L80.25 39L80.25 39.15L80.15 39.25Q79.8 39.4 79.65 39.65L79.2 40.3L79.05 40.6L78.8 40.95L78.65 41.1L78.35 41.25L77.7 41.55L77.15 41.7L76.9 41.75L75.75 41.95L75.15 41.95L75 41.95L72.55 41.6L71.7 41L71.55 40.7L71.55 40.6L71.35 40.15M72.05,38.75L71.9 38.8Q71.45 39.05 71.4 39.4L71.4 39.5L71.4 39.6L71.45 39.9L71.5 40.1L71.65 40.55L71.85 40.95L72.85 41.55L75.15 41.85L75.8 41.8L75.85 41.8L76 41.8L76.9 41.65L77.95 41.35L78.6 40.85L78.9 40.3L79.05 39.75L79.15 39.05L79.05 38.55L78.9 38.4L78.85 38.35L78.7 38.3L78.65 38.3L78.6 38.3L76.8 38.1L75.55 38.2L73.35 38.5L72.4 38.65L72.05 38.75" />
<path style="fill:#000000;fill-opacity:1" d="M80.2,38.45L80.1 38.4L79.9 38.35L79.6 38.25L79.5 38.2Q79.05 37.8 78.6 37.7L76.4 37.7L74.15 37.85L73.1 38.05L72.45 38.15L72 38.25L71.55 38.45L71.05 38.65L70.85 38.8L70.6 38.85L70.05 38.8L70.05 38.65L70.5 38.65L71.3 38.35Q71.9 38.05 73.45 37.85L76.2 37.6L78.2 37.6L78.95 37.75L79 37.75L79.25 37.9L79.5 38.05L80 38.3L80.25 38.35L80.3 38.4L80.3 38.45L80.3 38.55L80.2 38.45" />
<path style="fill:#BBB5B5;fill-opacity:1" d="M80.2,38.5L80.1 38.5L79.9 38.4L79.6 38.3L79.5 38.25Q79.05 37.85 78.6 37.75L76.4 37.75L74.15 37.95L73.1 38.1L72.45 38.2L72 38.3L71.55 38.5L71.05 38.75L70.85 38.85L70.6 38.9L70.05 38.9L70.05 38.8L70.6 38.85L70.85 38.8L71.05 38.65L71.55 38.45L72 38.25L72.45 38.15L73.1 38.05L74.15 37.85L76.4 37.7L78.6 37.7Q79.05 37.8 79.5 38.2L79.6 38.25L79.9 38.35L80.1 38.4L80.2 38.45L80.3 38.55L80.3 38.6L80.2 38.5" />
<path style="fill:#FFFFFF;fill-opacity:1" d="M80.2,38.65L80.15 38.65L80.1 38.6L79.85 38.55L79.6 38.45L79.5 38.35L79.45 38.35L78.6 37.9L76.35 37.9L74.15 38.1L73.05 38.25L72.45 38.35L72 38.45L71.55 38.65L71.05 38.9L70.8 39L70.6 39.05L70.05 39L70.05 38.9L70.6 38.9L70.85 38.85L71.05 38.75L71.55 38.5L72 38.3L72.45 38.2L73.1 38.1L74.15 37.95L76.4 37.75L78.6 37.75Q79.05 37.85 79.5 38.25L79.6 38.3L79.9 38.4L80.1 38.5L80.2 38.5L80.3 38.6L80.3 38.65L80.3 38.8L80.2 38.65M71.7,39L71.55 39.2L71.55 39.25L71.5 39.4L71.5 39.5L71.5 39.55L71.5 39.75L71.55 39.85L71.55 40.05L71.65 40.4L71.8 40.65L72.25 41.15L72.5 41.3L73.25 41.55L74.25 41.65L74.35 41.65L74.5 41.65L74.55 41.65L75.1 41.7L75.95 41.65L76.3 41.6L76.9 41.5L77.85 41.2L77.9 41.2Q78.5 40.95 78.8 40.15L78.8 40.1L79.05 39.1L79 38.5L78.9 38.4L79.05 38.55L79.15 39.05L79.05 39.75L78.9 40.3L78.6 40.85L77.95 41.35L76.9 41.65L76 41.8L75.85 41.8L75.8 41.8L75.15 41.85L72.85 41.55L71.85 40.95L71.65 40.55L71.5 40.1L71.45 39.9L71.4 39.6L71.4 39.5L71.4 39.4Q71.45 39.05 71.9 38.8L72.05 38.75L72.4 38.65L71.75 38.95L71.7 39" />
<path style="fill:#FCF6F6;fill-opacity:1" d="M80.2,38.75L80.2 39.1L80.1 39.2L79.9 39.3L79.65 39.55L79.35 39.95L79 40.65L79.15 40.15L79.45 39.65L79.9 39.2L80.15 38.75L80.15 38.65L80.2 38.65L80.2 38.75" />
<path style="fill:#281912;fill-opacity:1" d="M72.1,40.8Q72.85 41.45 75.15 41.5L75.6 41.5L76.05 41.45L76.15 41.45L76.55 41.4L76.95 41.3Q77.7 41.1 78.15 40.75Q78.95 40.1 78.9 38.55L78.9 38.4L79 38.5L79.05 39.1L78.8 40.1L78.8 40.15Q78.5 40.95 77.9 41.2L77.85 41.2L76.9 41.5L76.3 41.6L75.95 41.65L75.1 41.7L74.55 41.65L74.5 41.65L74.35 41.65L74.25 41.65L73.25 41.55L72.5 41.3L72.25 41.15L71.8 40.65L71.65 40.4L71.55 40.05L71.55 39.85L71.65 40.15L71.85 40.55L71.9 40.65L72.15 40.9L72.5 41.1L72.1 40.8" />
<path style="fill:#D8CBBB;fill-opacity:1" d="M70.5,39.55L70.65 39.55L70.65 39.6L70.75 39.6L70.8 39.7L70.95 39.8L71.05 39.9L71.2 40.05L71.3 40.2L71.55 40.6L71.55 40.7L71.7 41L72.55 41.6L75 41.95L75.15 41.95L75.75 41.95L76.9 41.75L77.15 41.7L77.7 41.55L78.35 41.25L78.65 41.1L78.8 40.95L79.05 40.6L79 40.7Q78.65 41.55 76.85 41.9L76.15 42L76.1 42L75.7 42.05L75.15 42.05L73.75 42L72.7 41.75L72.15 41.5L71.8 41.3L71.4 40.65L71.1 40.15L71.05 40.1L71 40L70.7 39.7L70.55 39.65L70.4 39.6L70.25 39.6L70 39.6L70 39.55L70.5 39.55" />
<path style="fill:#FFFFFF;fill-opacity:0.101961" d="M71.95,40.55L71.6 39.85L71.5 39.55L71.5 39.5L71.5 39.4L71.55 39.25L71.55 39.2L71.7 39L71.9 39.7L71.95 40.15L71.95 40.55" />
<path style="fill:#E5C2A4;fill-opacity:1" d="M71.95,40.15L71.9 39.7L71.7 39L71.75 38.95L72 39.65L72.05 39.95L72.1 40.75L72.1 40.8L72.1 40.75L71.95 40.55L71.95 40.15" />
<path style="fill:#E8DDD3;fill-opacity:1" d="M70,39.55L70 39.5L70 39.3L70.45 39.3L70.6 39.35L70.65 39.4L70.7 39.5L70.75 39.55L70.95 39.65L71.1 39.55L71.1 39.45L71.25 39.05L71.3 39.45L71.3 39.7L71.3 39.95L71.35 40.1L71.35 40.15L71.55 40.6L71.3 40.2L71.2 40.05L71.05 39.9L70.95 39.8L70.8 39.7L70.75 39.6L70.65 39.6L70.65 39.55L70.5 39.55L70 39.55" />
<path style="fill:#5F3B2F;fill-opacity:1" d="M71.5,39.55L71.6 39.85L71.95 40.55L72.1 40.75L72.1 40.8L72.5 41.1L72.15 40.9L71.9 40.65L71.85 40.55L71.65 40.15L71.55 39.85L71.5 39.75L71.5 39.55L71.5 39.5L71.5 39.55" />
<radialGradient
id="RadialGradID_5188" gradientUnits="userSpaceOnUse" gradientTransform="matrix(0.00334167, 0.000183105, -0.000183105, 0.00337219, 71.95, 38)" spreadMethod ="pad" cx="0" cy="0" r="819.2" fx="0" fy="0" >
<stop  offset="0"  style="stop-color:#FFFFFF;stop-opacity:1" />
<stop  offset="1"  style="stop-color:#FFFFFF;stop-opacity:0" />
</radialGradient>
<path style="fill:url(#RadialGradID_5188) " d="M71.05,38.5L71.35 38.4L71.35 38.35L71.4 38.35L71.5 38.3L72.15 38.1L73.2 37.9L73.8 37.8L75.25 37.65L74.85 37.75L74.65 37.75L72.95 38L71.9 38.25L71.4 38.45L71.3 38.5L71.35 38.5L70.85 38.75L70.45 38.8L70.25 38.8L70.2 38.8L70.7 38.65L71.05 38.5" />
<radialGradient
id="RadialGradID_5189" gradientUnits="userSpaceOnUse" gradientTransform="matrix(0.00263977, 0.000137329, -0.000137329, 0.00267029, 78.9, 37.85)" spreadMethod ="pad" cx="0" cy="0" r="819.2" fx="0" fy="0" >
<stop  offset="0"  style="stop-color:#FFFFFF;stop-opacity:1" />
<stop  offset="1"  style="stop-color:#FFFFFF;stop-opacity:0" />
</radialGradient>
<path style="fill:url(#RadialGradID_5189) " d="M76.55,37.7L77.1 37.65L77.5 37.65L77.7 37.65L78.3 37.65L78.9 37.8L79.25 38L79.3 38.05L79.4 38.1L79.6 38.2L80.05 38.35L79.7 38.3L79.65 38.3L79.2 38.05L79 37.9L78.6 37.75L78.5 37.75L77.9 37.7L77.2 37.7L76.55 37.7" />
<path style="fill:#9FA583;fill-opacity:1" d="M73.35,41.45Q74.85 41.7 76.6 41.45Q77.85 41.25 78.4 40.7L78.65 40.45L78.5 40.7L78.15 41.05L77.45 41.35L77 41.5L76.8 41.5L76.6 41.55L76.45 41.55L75.9 41.65L74.85 41.65L73.9 41.6L73.45 41.6L73.1 41.5L72.6 41.35L72.2 41.05L72.05 40.85L72.2 41L72.45 41.15L73 41.3L73.35 41.45" />
<radialGradient
id="RadialGradID_5190" gradientUnits="userSpaceOnUse" gradientTransform="matrix(0.00138855, 7.62939e-005, -7.62939e-005, 0.00140381, 72.15, 40.35)" spreadMethod ="pad" cx="0" cy="0" r="819.2" fx="0" fy="0" >
<stop  offset="0"  style="stop-color:#FFFFFF;stop-opacity:1" />
<stop  offset="1"  style="stop-color:#FFFFFF;stop-opacity:0" />
</radialGradient>
<path style="fill:url(#RadialGradID_5190) " d="M71.9,40.4L72.15 40.8L72.15 40.85L72 40.75L71.8 40.4L71.65 40.05L71.65 39.9L71.75 40.05L71.9 40.4" />
<radialGradient
id="RadialGradID_5191" gradientUnits="userSpaceOnUse" gradientTransform="matrix(0.00131226, 6.10352e-005, -6.10352e-005, 0.00132751, 72, 40.45)" spreadMethod ="pad" cx="0" cy="0" r="819.2" fx="0" fy="0" >
<stop  offset="0"  style="stop-color:#FFFFFF;stop-opacity:1" />
<stop  offset="1"  style="stop-color:#FFFFFF;stop-opacity:0" />
</radialGradient>
<path style="fill:url(#RadialGradID_5191) " d="M71.95,39.85L72 40.15L72.05 40.45L72 40.6L71.95 40.25L71.95 39.85" />
<path style="fill:#F6F6EE;fill-opacity:1" d="M60.1,38.7L60.4 38.7L60.65 38.8L60.65 39L60.75 39.15L60.85 39.1L60.85 38.75L60.95 38.4L61.35 38.15L62 37.95L62.05 37.95L65.45 38L66.65 38.25L67.45 38.4L67.8 38.5L69.1 39L69.2 39.25L69.2 39.3L69.25 39.55L69.3 39.6L69.35 39.6L69.4 39.6L69.45 39.5L69.45 39.4L69.45 39.25L69.8 39.2L70.25 39.2L70.2 39.05L69.65 39.1L69.45 39.05L69.2 38.95L68.7 38.7L68.25 38.5L67.8 38.4L67.2 38.2L66.1 38.05L63.9 37.85L61.65 37.85Q61.2 37.95 60.8 38.3L60.75 38.3L60.65 38.4L60.4 38.5L60.15 38.55L60.1 38.6L60.1 38.7" />
<path style="fill:#F5EDE3;fill-opacity:1" d="M68.9,40.2L68.9 40.15L68.95 40L68.95 39.75L68.95 39.5Q68.9 39.1 69 39.1L69.15 39.5L69.15 39.6L69.3 39.7L69.5 39.6L69.55 39.55L69.6 39.45L69.65 39.4L69.8 39.35L70.25 39.35L70.25 39.2L69.8 39.2L69.45 39.25L69.45 39.4L69.45 39.5L69.4 39.6L69.35 39.6L69.3 39.6L69.25 39.55L69.2 39.3L69.2 39.25L69.1 39L67.8 38.5L67.45 38.4L66.65 38.25L65.45 38L62.05 37.95L62 37.95L61.35 38.15L60.95 38.4L60.85 38.75L60.85 39.1L60.75 39.15L60.65 39L60.65 38.8L60.4 38.7L60.1 38.7L60.35 39.15L60.8 39.6L61.1 40.1L61.25 40.6L60.9 39.9L60.6 39.5L60.35 39.25L60.15 39.15L60.05 39.05L60.05 38.7L60.05 38.6L59.95 38.75L60 38.95L60 39.1L60.1 39.2L60.6 39.6L61.05 40.25L61.2 40.55L61.45 40.9L61.6 41.05L61.9 41.2L62.55 41.5L63.1 41.65L63.35 41.7L64.5 41.9L65.1 41.9L65.25 41.9L67.7 41.65L68.55 41.05L68.7 40.75L68.7 40.65L68.9 40.2M68.2,38.8L68.35 38.85Q68.8 39.1 68.85 39.45L68.85 39.55L68.85 39.65L68.8 39.95L68.75 40.15L68.6 40.6L68.4 41L67.4 41.6L65.1 41.8L64.45 41.75L64.4 41.75L64.25 41.75L63.35 41.6L62.3 41.3L61.65 40.8L61.35 40.25L61.2 39.7L61.1 39L61.2 38.5L61.35 38.35L61.4 38.3L61.55 38.25L61.6 38.25L61.65 38.25L63.45 38.05L64.7 38.15L66.9 38.45L67.85 38.7L68.2 38.8" />
<path style="fill:#000000;fill-opacity:1" d="M60.05,38.4L60.15 38.35L60.35 38.3L60.65 38.2L60.75 38.15Q61.2 37.75 61.65 37.65L63.85 37.65L66.1 37.8L67.15 38L67.8 38.2L68.25 38.3L68.7 38.5L69.2 38.7L69.4 38.85L69.65 38.9L70.2 38.85L70.2 38.7L69.75 38.7L68.95 38.4L66.8 37.8L64.05 37.55L62.05 37.55L61.3 37.7L61.25 37.7L61 37.85L60.75 38L60.25 38.25L60 38.3L59.95 38.35L59.95 38.4L59.95 38.5L60.05 38.4" />
<path style="fill:#BBB5B5;fill-opacity:1" d="M60.05,38.45L60.15 38.45L60.35 38.35L60.65 38.25L60.75 38.2Q61.2 37.8 61.65 37.7L63.85 37.7L66.1 37.9L67.15 38.05L67.8 38.25L68.25 38.35L68.7 38.55L69.2 38.8L69.4 38.9L69.65 38.95L70.2 38.95L70.2 38.85L69.65 38.9L69.4 38.85L69.2 38.7L68.7 38.5L68.25 38.3L67.8 38.2L67.15 38L66.1 37.8L63.85 37.65L61.65 37.65Q61.2 37.75 60.75 38.15L60.65 38.2L60.35 38.3L60.15 38.35L60.05 38.4L59.95 38.5L59.95 38.55L60.05 38.45" />
<path style="fill:#FFFFFF;fill-opacity:1" d="M60.05,38.6L60.1 38.6L60.15 38.55L60.4 38.5L60.65 38.4L60.75 38.3L60.8 38.3Q61.2 37.95 61.65 37.85L63.9 37.85L66.1 38.05L67.2 38.2L67.8 38.4L68.25 38.5L68.7 38.7L69.2 38.95L69.45 39.05L69.65 39.1L70.2 39.05L70.2 38.95L69.65 38.95L69.4 38.9L69.2 38.8L68.7 38.55L68.25 38.35L67.8 38.25L67.15 38.05L66.1 37.9L63.85 37.7L61.65 37.7Q61.2 37.8 60.75 38.2L60.65 38.25L60.35 38.35L60.15 38.45L60.05 38.45L59.95 38.55L59.95 38.6L59.95 38.75L60.05 38.6M68.55,39.05L68.7 39.25L68.7 39.3L68.75 39.45L68.75 39.55L68.75 39.6L68.75 39.8L68.7 39.9L68.7 40.1L68.6 40.45L68.45 40.7L68 41.2L67.75 41.35L67 41.5L66 41.6L65.9 41.6L65.75 41.6L65.7 41.6L65.15 41.65L64.3 41.6L63.95 41.55L63.35 41.45L62.4 41.15L62.35 41.15Q61.75 40.9 61.45 40.1L61.45 40.05L61.2 39.05L61.25 38.45L61.35 38.35L61.2 38.5L61.1 39L61.2 39.7L61.35 40.25L61.65 40.8L62.3 41.3L63.35 41.6L64.25 41.75L64.4 41.75L64.45 41.75L65.1 41.8L67.4 41.6L68.4 41L68.6 40.6L68.75 40.15L68.8 39.95L68.85 39.65L68.85 39.55L68.85 39.45Q68.8 39.1 68.35 38.85L68.2 38.8L67.85 38.7L68.5 39L68.55 39.05" />
<path style="fill:#FCF6F6;fill-opacity:1" d="M60.05,38.7L60.05 39.05L60.15 39.15L60.35 39.25L60.6 39.5L60.9 39.9L61.25 40.6L61.1 40.1L60.8 39.6L60.35 39.15L60.1 38.7L60.1 38.6L60.05 38.6L60.05 38.7" />
<path style="fill:#281912;fill-opacity:1" d="M68.15,40.85Q67.4 41.5 65.1 41.45L64.65 41.45L64.2 41.4L64.1 41.4L63.7 41.35L63.3 41.25L62.1 40.7Q61.3 40.05 61.35 38.5L61.35 38.35L61.25 38.45L61.2 39.05L61.45 40.05L61.45 40.1Q61.75 40.9 62.35 41.15L62.4 41.15L63.35 41.45L63.95 41.55L64.3 41.6L65.15 41.65L65.7 41.6L65.75 41.6L65.9 41.6L66 41.6L67 41.5L67.75 41.35L68 41.2L68.45 40.7L68.6 40.45L68.7 40.1L68.7 39.9L68.6 40.2L68.4 40.6L68.35 40.7L68.1 40.95L67.75 41.15L68.15 40.85" />
<path style="fill:#D8CBBB;fill-opacity:1" d="M69.75,39.6L69.6 39.6L69.6 39.65L69.5 39.65L69.45 39.75L69.3 39.85L69.2 39.95L69.05 40.1L68.95 40.25L68.7 40.65L68.7 40.75L68.55 41.05L67.7 41.65L65.25 41.9L65.1 41.9L64.5 41.9L63.35 41.7L63.1 41.65L62.55 41.5L61.9 41.2L61.6 41.05L61.45 40.9L61.2 40.55L61.25 40.65Q61.6 41.5 63.4 41.85L64.1 41.95L64.15 41.95L64.55 42L65.1 42L66.5 41.95L67.55 41.8L68.1 41.55L68.45 41.35L68.85 40.7L69.15 40.2L69.2 40.15L69.25 40.05L69.55 39.75L69.7 39.7L69.85 39.65L70 39.65L70.25 39.65L70.25 39.6L69.75 39.6" />
<path style="fill:#FFFFFF;fill-opacity:0.101961" d="M68.3,40.6L68.65 39.9L68.75 39.6L68.75 39.55L68.75 39.45L68.7 39.3L68.7 39.25L68.55 39.05L68.35 39.75L68.3 40.2L68.3 40.6" />
<path style="fill:#E5C2A4;fill-opacity:1" d="M68.3,40.2L68.35 39.75L68.55 39.05L68.5 39L68.25 39.7L68.2 40L68.15 40.8L68.15 40.85L68.15 40.8L68.3 40.6L68.3 40.2" />
<path style="fill:#E8DDD3;fill-opacity:1" d="M70.25,39.6L70.25 39.55L70.25 39.35L69.8 39.35L69.65 39.4L69.6 39.45L69.55 39.55L69.5 39.6L69.3 39.7L69.15 39.6L69.15 39.5L69 39.1Q68.9 39.1 68.95 39.5L68.95 39.75L68.95 40L68.9 40.15L68.9 40.2L68.7 40.65L68.95 40.25L69.05 40.1L69.2 39.95L69.3 39.85L69.45 39.75L69.5 39.65L69.6 39.65L69.6 39.6L69.75 39.6L70.25 39.6" />
<path style="fill:#5F3B2F;fill-opacity:1" d="M68.75,39.6L68.65 39.9L68.3 40.6L68.15 40.8L68.15 40.85L67.75 41.15L68.1 40.95L68.35 40.7L68.4 40.6L68.6 40.2L68.7 39.9L68.75 39.8L68.75 39.6L68.75 39.55L68.75 39.6" />
<radialGradient
id="RadialGradID_5192" gradientUnits="userSpaceOnUse" gradientTransform="matrix(-0.00334167, 0.000183105, 0.000183105, 0.00337219, 68, 37.95)" spreadMethod ="pad" cx="0" cy="0" r="819.2" fx="0" fy="0" >
<stop  offset="0"  style="stop-color:#FFFFFF;stop-opacity:1" />
<stop  offset="1"  style="stop-color:#FFFFFF;stop-opacity:0" />
</radialGradient>
<path style="fill:url(#RadialGradID_5192) " d="M68.9,38.45L68.6 38.35L68.6 38.3L68.55 38.3L68.45 38.25L67.8 38.05L66.75 37.85L66.15 37.75L64.7 37.6L65.1 37.7L65.3 37.7L67 37.95L68.05 38.2L68.55 38.4L68.65 38.45L68.6 38.45L69.1 38.7L69.5 38.75L69.7 38.75L69.75 38.75L69.25 38.6L68.9 38.45" />
<radialGradient
id="RadialGradID_5193" gradientUnits="userSpaceOnUse" gradientTransform="matrix(-0.00263977, 0.000137329, 0.000137329, 0.00267029, 61.05, 37.8)" spreadMethod ="pad" cx="0" cy="0" r="819.2" fx="0" fy="0" >
<stop  offset="0"  style="stop-color:#FFFFFF;stop-opacity:1" />
<stop  offset="1"  style="stop-color:#FFFFFF;stop-opacity:0" />
</radialGradient>
<path style="fill:url(#RadialGradID_5193) " d="M63.4,37.65L62.85 37.6L62.45 37.6L62.25 37.6L61.65 37.6L61.05 37.75L60.7 37.95L60.65 38L60.55 38.05L60.35 38.15L59.9 38.3L60.25 38.25L60.3 38.25L60.75 38L60.95 37.85L61.35 37.7L61.45 37.7L62.05 37.65L62.75 37.65L63.4 37.65" />
<path style="fill:#9FA583;fill-opacity:1" d="M66.9,41.4Q65.4 41.65 63.65 41.4Q62.4 41.2 61.85 40.65L61.6 40.4L61.75 40.65L62.15 41L62.8 41.3L63.25 41.45L63.45 41.45L63.65 41.5L63.8 41.5L64.35 41.6L65.4 41.6L66.35 41.55L66.8 41.55L67.15 41.45L67.65 41.4L68.05 41.1L68.2 40.9L68.05 41.05L67.8 41.2L67.25 41.35L66.9 41.4" />
<radialGradient
id="RadialGradID_5194" gradientUnits="userSpaceOnUse" gradientTransform="matrix(-0.00138855, 7.62939e-005, 7.62939e-005, 0.00140381, 67.95, 40.4)" spreadMethod ="pad" cx="0" cy="0" r="819.2" fx="0" fy="0" >
<stop  offset="0"  style="stop-color:#FFFFFF;stop-opacity:1" />
<stop  offset="1"  style="stop-color:#FFFFFF;stop-opacity:0" />
</radialGradient>
<path style="fill:url(#RadialGradID_5194) " d="M68.2,40.45L67.95 40.85L67.95 40.9L68.1 40.8L68.3 40.45L68.45 40.1L68.45 39.95L68.35 40.1L68.2 40.45" />
<radialGradient
id="RadialGradID_5195" gradientUnits="userSpaceOnUse" gradientTransform="matrix(-0.00131226, 6.10352e-005, 6.10352e-005, 0.00132751, 68.1, 40.5)" spreadMethod ="pad" cx="0" cy="0" r="819.2" fx="0" fy="0" >
<stop  offset="0"  style="stop-color:#FFFFFF;stop-opacity:1" />
<stop  offset="1"  style="stop-color:#FFFFFF;stop-opacity:0" />
</radialGradient>
<path style="fill:url(#RadialGradID_5195) " d="M68.15,39.9L68.1 40.2L68.05 40.5L68.1 40.65L68.15 40.3L68.15 39.9" />
<radialGradient
id="RadialGradID_5196" gradientUnits="userSpaceOnUse" gradientTransform="matrix(0.00712585, 0, 0, 0.00720215, 79.1, 36.25)" spreadMethod ="pad" cx="0" cy="0" r="819.2" fx="0" fy="0" >
<stop  offset="0"  style="stop-color:#FFFFFF;stop-opacity:1" />
<stop  offset="1"  style="stop-color:#FFFFFF;stop-opacity:0" />
</radialGradient>
<path style="fill:url(#RadialGradID_5196) " d="M78.25,38.25Q78.8 38.55 78.7 39.25L78.6 40.25L78.2 40.65L77.15 40.3Q76.45 39.95 74.45 39.3L74.75 38.4L76.45 38.15L78.25 38.25" />
<radialGradient
id="RadialGradID_5197" gradientUnits="userSpaceOnUse" gradientTransform="matrix(-0.00712585, 0, 0, 0.00720215, 61, 36.25)" spreadMethod ="pad" cx="0" cy="0" r="819.2" fx="0" fy="0" >
<stop  offset="0"  style="stop-color:#FFFFFF;stop-opacity:1" />
<stop  offset="1"  style="stop-color:#FFFFFF;stop-opacity:0" />
</radialGradient>
<path style="fill:url(#RadialGradID_5197) " d="M62.95,40.3L62 40.65Q61.7 40.65 61.6 40.25L61.4 39.25Q61.3 38.55 61.9 38.25L63.7 38.15L65.4 38.4L65.7 39.3L62.95 40.3" />
</g>
</svg>
